<svg width="25" height="24" viewBox="0 0 25 24" fill="none" xmlns="http://www.w3.org/2000/svg">
<path fill-rule="evenodd" clip-rule="evenodd" d="M6.97287 0H18.0276C21.5786 0 24.5002 2.92806 24.5002 6.48821V17.5118C24.5002 21.0713 21.5792 24 18.0276 24H6.97287C3.42187 24 0.500244 21.0719 0.500244 17.5118V6.48821C0.500244 2.92806 3.42127 0 6.97287 0ZM18.9434 4.19103C19.6881 4.19103 20.3181 4.82251 20.3181 5.56898C20.3181 6.31544 19.6881 6.94693 18.9434 6.94693C18.1417 6.94693 17.5688 6.31544 17.5688 5.56898C17.5688 4.82251 18.1417 4.19103 18.9434 4.19103ZM12.4714 5.4546H12.5285C16.0795 5.4546 19.0581 8.44045 19.0581 12C19.0581 15.6173 16.0795 18.5454 12.5285 18.5454H12.4714C8.92042 18.5454 5.99879 15.6173 5.99879 12C5.99879 8.44045 8.91982 5.4546 12.4714 5.4546ZM12.4714 7.69339H12.5285C14.8766 7.69339 16.8241 9.64563 16.8241 11.9994C16.8241 14.411 14.8766 16.3632 12.5285 16.3632H12.4714C10.1233 16.3632 8.17575 14.411 8.17575 11.9994C8.17575 9.64563 10.1233 7.69339 12.4714 7.69339ZM7.02992 2.06722H17.97C20.4328 2.06722 22.4374 4.07665 22.4374 6.5454V17.4546C22.4374 19.9233 20.4328 21.9328 17.97 21.9328H7.02992C4.5671 21.9328 2.5625 19.9233 2.5625 17.4546V6.5454C2.5625 4.07665 4.5671 2.06722 7.02992 2.06722Z" fill="#1E1E1C"/>
</svg>
