<svg width="99" height="28" viewBox="0 0 99 28" fill="none" xmlns="http://www.w3.org/2000/svg">
<g clip-path="url(#clip0_214_1330)">
<path d="M95.3429 27.7437H1.93665C1.14747 27.7437 0.499634 27.0943 0.499634 26.3032V17.7309H0.911893C2.67872 17.6955 4.31598 16.5029 4.66935 14.7554C5.15228 12.4176 3.35011 10.304 1.08858 10.2686H0.511413V1.69637C0.499634 0.905271 1.14747 0.255859 1.93665 0.255859H97.0626C97.8518 0.255859 98.4996 0.905271 98.4996 1.69637V10.304L97.7694 10.2686C95.7316 10.2686 94.0708 11.9453 94.0708 13.9998C94.0708 16.0543 95.7316 17.7191 97.7694 17.7309H97.8871L98.4996 17.6955V26.3032C98.4996 27.0943 97.8518 27.7437 97.0626 27.7437H95.3547H95.3429ZM1.67752 18.8526V26.5629H97.3218V18.8881C94.8364 18.6519 92.8811 16.5502 92.8811 13.9998C92.8811 11.4493 94.8364 9.34762 97.3218 9.11147V1.43661H1.67752V9.14689C4.05685 9.4775 5.9179 11.5438 5.9179 13.9998C5.9179 16.4557 4.06862 18.5338 1.67752 18.8526Z" fill="#1E1E1C"/>
<path d="M18.4153 19.7149V17.6958H20.4648V9.96195H18.4153V7.94287H22.903V17.6958H23.5155V19.7149H18.4153Z" fill="#1E1E1C" stroke="#1E1E1C" stroke-width="0.15" stroke-miterlimit="10"/>
<path d="M25.035 14.9682V10.0327H24.5403V7.95459H27.4732V14.9682H25.035Z" fill="#1E1E1C" stroke="#1E1E1C" stroke-width="0.15" stroke-miterlimit="10"/>
<path d="M28.8632 19.7149V17.6958H30.9127V9.96195H28.8632V7.94287H33.3509V17.6958H33.9634V19.7149H28.8632Z" fill="#1E1E1C" stroke="#1E1E1C" stroke-width="0.15" stroke-miterlimit="10"/>
<path d="M41.5608 13.2089C41.5254 13.8938 41.3959 14.3424 40.9011 14.7793L40.112 15.3225L41.6785 19.7148H39.2992L37.3086 13.634L37.4382 19.7148H35.2237L35.2944 14.0591C35.318 13.268 35.4593 12.8311 35.9187 12.347L36.5076 11.8983L34.941 7.95459H37.4146L39.5701 13.8111L39.5112 7.95459H41.761L41.5608 13.2089Z" fill="#1E1E1C" stroke="#1E1E1C" stroke-width="0.15" stroke-miterlimit="10"/>
<path d="M46.5903 19.7147H44.1874L45.8129 9.96172H42.821V5.95898H44.9884V7.95445H48.3335V9.70195L46.6021 19.7147H46.5903Z" fill="#1E1E1C" stroke="#1E1E1C" stroke-width="0.15" stroke-miterlimit="10"/>
<path d="M53.9638 19.7149V9.96195H52.727V16.3498C52.6917 16.7276 52.6681 17.0346 52.6328 17.2944C52.5975 17.7549 52.4443 18.18 52.1852 18.5814C51.9496 18.9592 51.608 19.2662 51.184 19.4906C50.76 19.6913 49.6645 19.7149 49.6528 19.7149H49.429V17.7785H49.6528C49.9119 17.7785 50.1121 17.6368 50.1946 17.3534C50.2535 17.1291 50.2888 16.6332 50.2888 15.9247V9.96195H49.4407V7.94287H56.3314V19.7031H53.9638V19.7149Z" fill="#1E1E1C" stroke="#1E1E1C" stroke-width="0.15" stroke-miterlimit="10"/>
<path d="M65.2009 19.7149V9.96195H63.9641V16.3498C63.9288 16.7276 63.9052 17.0346 63.8699 17.2944C63.8345 17.7549 63.6814 18.18 63.4223 18.5814C63.1867 18.9592 62.8451 19.2662 62.4211 19.4906C61.997 19.6913 60.9016 19.7149 60.8898 19.7149H60.666V17.7785H60.8898C61.1489 17.7785 61.3492 17.6368 61.4199 17.3534C61.4788 17.1291 61.5141 16.6332 61.5141 15.9247V9.96195H60.666V7.94287H67.5566V19.7031H65.1891L65.2009 19.7149Z" fill="#1E1E1C" stroke="#1E1E1C" stroke-width="0.15" stroke-miterlimit="10"/>
<path d="M74.9066 17.1999C74.8477 17.684 74.7063 18.1091 74.4472 18.4869C74.2116 18.8884 73.87 19.1954 73.446 19.3961C73.0455 19.5968 72.1032 19.7031 71.9854 19.7149H69.0525V17.6958H72.0679C72.327 17.6958 72.5272 17.5542 72.6215 17.2472C72.645 17.1409 72.6568 17.07 72.6804 16.9284C72.7039 16.7867 72.7039 16.5859 72.7039 16.2081V10.1863C72.7039 9.84387 72.5037 9.64315 72.221 9.59592H71.2198V12.9965H71.6674V14.5905H69.0643V7.94287H73.128C74.0938 7.94287 74.883 8.85205 74.989 9.93833V14.8739C74.989 16.0782 74.9537 16.6922 74.9184 17.1881L74.9066 17.1999Z" fill="#1E1E1C" stroke="#1E1E1C" stroke-width="0.15" stroke-miterlimit="10"/>
<path d="M76.7795 19.7149V9.96195H76.2848V7.94287H79.2177V19.7031H76.7795V19.7149Z" fill="#1E1E1C" stroke="#1E1E1C" stroke-width="0.15" stroke-miterlimit="10"/>
<path d="M86.0141 19.6794H83.7997V18.5341L85.0718 9.97367H80.6901V7.95459H87.51V9.64306L86.0141 19.6794ZM80.6901 21.2498V11.7684H83.0223V21.2498H80.6901Z" fill="#1E1E1C" stroke="#1E1E1C" stroke-width="0.15" stroke-miterlimit="10"/>
<path d="M13.8216 26.8937H12.6437V24.6858H13.8216V26.8937ZM13.8216 22.3243H12.6437V18.782H13.8216V22.3243ZM13.8216 16.4205H12.6437V12.8783H13.8216V16.4205ZM13.8216 10.5168H12.6437V6.97454H13.8216V10.5168ZM13.8216 4.61304H12.6437V1.0708H13.8216V4.61304Z" fill="#1E1E1C"/>
</g>
<defs>
<clipPath id="clip0_214_1330">
<rect width="98" height="27.4878" fill="white" transform="translate(0.499634 0.255859)"/>
</clipPath>
</defs>
</svg>
