<?xml version="1.0" standalone="no"?>
<!DOCTYPE svg PUBLIC "-//W3C//DTD SVG 1.1//EN" "http://www.w3.org/Graphics/SVG/1.1/DTD/svg11.dtd" >
<svg xmlns="http://www.w3.org/2000/svg" xmlns:xlink="http://www.w3.org/1999/xlink" version="1.1">
<metadata>
Created by FontForge 20201107 at Mon Jul  8 07:16:24 2024
 By 
Copyright (c) 2009-2021 Avraham Cornfeld. All rights reserved.
</metadata>
<defs>
<font id="AlmoniMLv5AAA-U-Black" horiz-adv-x="0" >
  <font-face 
    font-family="Almoni ML v5 AAA U-Black"
    font-weight="905"
    font-stretch="normal"
    units-per-em="2048"
    panose-1="0 0 10 0 0 0 0 0 0 0"
    ascent="1638"
    descent="-410"
    x-height="973"
    cap-height="1238"
    bbox="-1344 -651 2969 2121"
    underline-thickness="150"
    underline-position="-273"
    unicode-range="U+0020-FFFD"
  />
<missing-glyph horiz-adv-x="1008" 
d="M117 0q-57 0 -57 57v1123q0 58 57 58h773q58 0 58 -58v-1123q0 -57 -58 -57h-773zM378 1043l126 -249l124 249h-250zM272 909v-580l131 290zM603 619l133 -290v580zM504 446l-126 -251h250z" />
    <glyph glyph-name="f_f.liga" unicode="ff" horiz-adv-x="1451" 
d="M1286 1055q-14 -22 -14 -77v-5h146v-283h-146v-690h-443v690h-240v-690h-442v690h-112v283h112v9q0 133 34 210q35 78 119 116q85 38 238 38q116 0 244 -27l-32 -254q-64 10 -97 10q-37 0 -50 -20q-14 -22 -14 -77v-5h240v9q0 131 35 210t118 116q85 38 238 38
q116 0 244 -27l-31 -254q-64 10 -98 10q-36 0 -49 -20z" />
    <glyph glyph-name="f_f_i.liga" unicode="ffi" horiz-adv-x="2104" 
d="M1547 1337q155 -11 474 -41v-245h-459q-96 33 -206 33q-49 0 -67 -19q-17 -18 -17 -73v-19h146v-230h-146v-743h-443v690h-240v-690h-442v690h-112v283h112v9q0 133 34 210q35 78 119 116q85 38 238 38q116 0 244 -27l-32 -254q-64 10 -97 10q-37 0 -50 -20
q-14 -22 -14 -77v-5h240v58q0 109 38 180q37 69 124 104q86 34 240 34q142 0 316 -12zM1998 0h-459v973h459v-973z" />
    <glyph glyph-name="f_f_l.liga" unicode="ffl" horiz-adv-x="2099" 
d="M2075 292v-292h-200q-144 0 -226 27t-120 97t-38 198v753q-87 6 -135 6q-49 0 -67 -21q-17 -20 -17 -73v-14h146v-283h-146v-690h-443v690h-240v-690h-442v690h-112v283h112v9q0 133 34 210q35 78 119 116q85 38 238 38q116 0 244 -27l-32 -254q-64 10 -97 10
q-37 0 -50 -20q-14 -22 -14 -77v-5h240v58q0 113 41 181t148 103q105 34 301 34q105 0 291 -16q200 -17 323 -37v-916q0 -53 19 -71q18 -17 68 -17h55z" />
    <glyph glyph-name="f_i.liga" unicode="fi" horiz-adv-x="1421" 
d="M865 1337q155 -11 474 -41v-245h-460q-96 33 -205 33q-49 0 -67 -19t-18 -73v-19h147v-230h-147v-743h-442v743h-112v230h112v58q0 110 37 180q37 69 125 104q86 34 239 34q143 0 317 -12zM1316 0h-460v973h460v-973z" />
    <glyph glyph-name="f_l.liga" unicode="fl" horiz-adv-x="1416" 
d="M1392 292v-292h-200q-142 0 -225 27t-121 97t-38 198v753q-87 6 -134 6q-49 0 -67 -21t-18 -73v-14h147v-283h-147v-690h-442v690h-112v283h112v58q0 114 40 181q41 68 148 103q105 34 302 34q105 0 291 -16q198 -17 322 -37v-916q0 -53 20 -71q18 -17 67 -17h55z" />
    <glyph glyph-name="uni05D005D005D0.liga" unicode="&#x5d0;&#x5d0;&#x5d0;" horiz-adv-x="2453" 
d="M65 1061h439l706 -1061h-439l-270 407q-13 -3 -20 -16q-5 -10 -5 -36v-355h-434v354q0 124 69 213q68 88 211 107zM1374 0l-705 1061h438l706 -1061h-439zM2416 0h-439l-705 1061h438l244 -366q21 11 21 39v327h434v-304q0 -119 -38 -187q-37 -67 -98 -98
q-59 -30 -142 -44z" />
    <glyph glyph-name=".notdef" horiz-adv-x="1008" 
d="M117 0q-57 0 -57 57v1123q0 58 57 58h773q58 0 58 -58v-1123q0 -57 -58 -57h-773zM378 1043l126 -249l124 249h-250zM272 909v-580l131 290zM603 619l133 -290v580zM504 446l-126 -251h250z" />
    <glyph glyph-name=".null" 
 />
    <glyph glyph-name="nonmarkingreturn" horiz-adv-x="588" 
 />
    <glyph glyph-name="space" unicode=" " horiz-adv-x="459" 
 />
    <glyph glyph-name="exclam" unicode="!" horiz-adv-x="647" 
d="M94 821v417h460v-417l-59 -361h-343zM131 0v357h385v-357h-385z" />
    <glyph glyph-name="quotedbl" unicode="&#x22;" horiz-adv-x="1011" 
d="M64 672l60 566h373v-249l-120 -317h-313zM511 672l60 566h373v-249l-120 -317h-313z" />
    <glyph glyph-name="numbersign" unicode="#" horiz-adv-x="1612" 
d="M1567 1047l-83 -341h-168l-32 -131h168l-83 -342h-168l-57 -233h-426l57 233h-135l-56 -233h-427l57 233h-168l83 342h168l32 131h-168l83 341h170l46 191h428l-48 -191h133l46 191h426l-46 -191h168zM745 725l-43 -170h168l41 170h-166z" />
    <glyph glyph-name="dollar" unicode="$" horiz-adv-x="1137" 
d="M789 21v-159h-375v145q-187 18 -278 102q-92 84 -92 261q0 27 2 51h424q-3 -75 19 -110t73 -35q49 0 72 16q24 16 24 46q0 35 -28 58q-27 23 -115 48q-197 58 -298 125q-104 69 -140 149t-36 186q0 127 93 214q91 85 283 111v147h375v-159q167 -36 234 -133
q67 -96 56 -256h-410q6 67 -21 100q-26 32 -74 32q-85 0 -85 -58q0 -33 25 -55q26 -23 109 -44q193 -48 299 -114q104 -65 142 -146t38 -189q0 -270 -316 -333z" />
    <glyph glyph-name="percent" unicode="%" horiz-adv-x="1653" 
d="M615 1179q73 -74 73 -233v-85q0 -159 -73 -235t-245 -76q-178 0 -251 76t-73 235v85q0 159 73 233q73 75 251 75q172 0 245 -75zM435 0h-301l1054 1238h301zM329 829q0 -43 9 -61t32 -18q19 0 28 18t9 61v147q0 42 -9 60t-28 18q-23 0 -32 -18t-9 -60v-147zM1534 614
q74 -77 74 -234v-83q0 -159 -74 -236t-245 -77q-177 0 -250 76t-73 237v83q0 158 73 234t250 76q172 0 245 -76zM1249 265q0 -46 8 -62q9 -17 32 -17q21 0 29 17q8 16 8 62v145q0 44 -8 60q-9 18 -29 18q-23 0 -32 -18q-8 -16 -8 -60v-145z" />
    <glyph glyph-name="ampersand" unicode="&#x26;" horiz-adv-x="1340" 
d="M1330 0h-426l-92 122l-13 -12q-60 -66 -146 -99q-83 -32 -179 -32q-108 0 -201 40q-94 40 -151 115q-74 96 -74 206q0 93 54 177q55 86 149 143l99 60l-37 46q-85 106 -85 210q0 79 50 143q50 63 139 99q90 36 206 36q104 0 191 -42q88 -43 138 -110q51 -69 51 -151
q0 -66 -43 -137t-129 -130l-371 -252q-19 -13 -32 -33q-12 -18 -12 -38t16 -39q18 -20 42 -20q34 0 74 36l358 308h399l-267 -283zM605 874l35 21q50 30 50 71q0 22 -19 39q-16 15 -48 15t-52 -14q-19 -13 -19 -37q0 -39 44 -86z" />
    <glyph glyph-name="quotesingle" unicode="'" horiz-adv-x="560" 
d="M64 672l60 566h369v-249l-120 -317h-309z" />
    <glyph glyph-name="parenleft" unicode="(" horiz-adv-x="732" 
d="M544 156q37 -164 95 -300q56 -131 116 -208h-346q-138 150 -218 370t-80 468q0 252 80 471q79 217 218 369h346q-61 -78 -116 -207q-58 -136 -95 -300q-38 -169 -38 -333q0 -161 38 -330z" />
    <glyph glyph-name="parenright" unicode=")" horiz-adv-x="732" 
d="M188 819q-37 164 -95 300q-55 129 -116 207h347q137 -151 217 -369q80 -219 80 -471q0 -248 -80 -468q-80 -222 -217 -370h-347q60 77 116 208q58 136 95 300q38 169 38 330q0 164 -38 333z" />
    <glyph glyph-name="asterisk" unicode="*" horiz-adv-x="817" 
d="M695 1222l87 -274l-172 -37l117 -135l-232 -169l-88 139l-83 -139l-232 169l113 135l-170 37l87 274l154 -71l-12 175h290l-20 -176z" />
    <glyph glyph-name="plus" unicode="+" horiz-adv-x="963" 
d="M630 684h288v-297h-288v-286h-298v286h-286l2 297h284v289h298v-289z" />
    <glyph glyph-name="comma" unicode="," horiz-adv-x="537" 
d="M34 -265l54 636h375v-253l-148 -383h-281z" />
    <glyph glyph-name="hyphen" unicode="-" horiz-adv-x="726" 
d="M46 386v300h635v-300h-635z" />
    <glyph glyph-name="period" unicode="." horiz-adv-x="569" 
d="M64 0v424h442v-424h-442z" />
    <glyph glyph-name="slash" unicode="/" horiz-adv-x="772" 
d="M-35 0l463 1238h380l-463 -1238h-380z" />
    <glyph glyph-name="zero" unicode="0" horiz-adv-x="1236" 
d="M931 1203q119 -50 172 -154q54 -105 54 -274v-312q0 -171 -54 -276t-172 -155t-312 -50q-193 0 -313 50q-118 49 -172 155q-54 105 -54 276v312q0 169 54 274t172 154q117 49 313 49t312 -49zM539 401q0 -109 80 -109q78 0 78 109v436q0 106 -78 106q-80 0 -80 -106v-436
z" />
    <glyph glyph-name="one" unicode="1" horiz-adv-x="889" 
d="M69 0v309h186v443h-174v309q74 0 122 10q46 9 73 34q39 39 56 133h374v-929h157v-309h-794z" />
    <glyph glyph-name="two" unicode="2" horiz-adv-x="1142" 
d="M798 309h281v-309h-1033l470 635q55 75 76 125q20 49 20 112q0 78 -62 78q-34 0 -49 -30t-15 -96q0 -2 4 -72h-440q-4 62 -4 67q0 230 134 331q135 102 384 102q256 0 383 -101t127 -279q0 -97 -44 -209q-44 -111 -163 -265z" />
    <glyph glyph-name="three" unicode="3" horiz-adv-x="1128" 
d="M1023 550q54 -76 54 -187q0 -183 -130 -282q-131 -99 -379 -99q-269 0 -397 110t-116 345h435q-3 -79 16 -117q20 -39 58 -39t56 23q18 22 18 78q0 58 -27 80q-28 23 -88 23h-102v283h88q58 0 81 24q24 26 24 75q0 46 -13 69q-12 21 -42 21q-33 0 -51 -29t-15 -113h-433
l-2 39q0 197 128 298q127 100 369 100q249 0 366 -87t117 -245q0 -90 -41 -163t-116 -104q88 -27 142 -103z" />
    <glyph glyph-name="four" unicode="4" horiz-adv-x="1206" 
d="M1054 509h119v-300h-119v-209h-430l2 209h-598v226l336 803h467l-295 -729h92v160h426v-160z" />
    <glyph glyph-name="five" unicode="5" horiz-adv-x="1126" 
d="M991 775q83 -107 83 -331q0 -234 -115 -348t-388 -114q-251 0 -368 108q-116 107 -116 315h429q0 -57 14 -87q13 -28 41 -28q35 0 48 31q14 33 14 118q0 84 -14 114q-14 29 -48 29q-47 0 -55 -60h-429v716h951v-301h-530v-113q70 57 207 57q194 0 276 -106z" />
    <glyph glyph-name="six" unicode="6" horiz-adv-x="1144" 
d="M913 776q83 -44 132 -130q50 -88 50 -211q0 -221 -135 -337q-136 -116 -389 -116t-389 116q-134 115 -134 337q0 105 36 212t132 225l292 366h512l-350 -423q48 4 57 4q104 0 186 -43zM626 308q14 42 14 125q0 81 -14 121q-13 38 -55 38t-55 -38q-14 -40 -14 -121
q0 -83 14 -125q14 -41 55 -41t55 41z" />
    <glyph glyph-name="seven" unicode="7" horiz-adv-x="990" 
d="M612 0h-469l292 920h-398v318h952z" />
    <glyph glyph-name="eight" unicode="8" horiz-adv-x="1174" 
d="M295 693q-88 39 -133 102t-45 144q0 145 125 230t345 85t344 -85q125 -86 125 -230q0 -81 -45 -144t-134 -102q124 -41 186 -123q64 -84 64 -202q0 -184 -141 -285q-142 -101 -399 -101t-399 101q-140 100 -140 285q0 243 247 325zM587 822q62 0 62 89q0 94 -62 94
t-62 -94q0 -89 62 -89zM527 284q18 -38 60 -38t60 38t18 110q0 78 -18 118t-60 40t-60 -40t-18 -118q0 -72 18 -110z" />
    <glyph glyph-name="nine" unicode="9" horiz-adv-x="1147" 
d="M960 1140q135 -115 135 -337q0 -103 -37 -212t-131 -225l-292 -366h-513l350 423q-48 -4 -56 -4q-104 0 -186 43q-84 44 -133 130t-49 211q0 222 134 337q136 116 389 116t389 -116zM516 930q-14 -42 -14 -125q0 -81 14 -121q13 -38 55 -38t55 38q14 40 14 121
q0 83 -14 125q-14 41 -55 41t-55 -41z" />
    <glyph glyph-name="colon" unicode=":" horiz-adv-x="565" 
d="M69 561v412h428v-412h-428zM69 0v412h428v-412h-428z" />
    <glyph glyph-name="semicolon" unicode=";" horiz-adv-x="590" 
d="M94 561v412h428v-412h-428zM71 -265l55 636h375v-253l-149 -383h-281z" />
    <glyph glyph-name="less" unicode="&#x3c;" horiz-adv-x="967" 
d="M814 87l-710 309v280l710 311v-322l-377 -129l377 -127v-322z" />
    <glyph glyph-name="equal" unicode="=" horiz-adv-x="1055" 
d="M87 607v279h882v-279h-882zM87 187v280h882v-280h-882z" />
    <glyph glyph-name="greater" unicode="&#x3e;" horiz-adv-x="967" 
d="M863 676v-280l-709 -309v322l377 127l-377 129v322z" />
    <glyph glyph-name="question" unicode="?" horiz-adv-x="1130" 
d="M1048 813q-24 -50 -58 -83q-32 -31 -88 -70q-59 -39 -96 -81q-31 -35 -31 -94v-25h-386v55q0 97 36 153q35 55 104 108q44 37 68 69q22 29 22 71q0 44 -14 64q-13 19 -43 19t-47 -23q-16 -22 -16 -79v-69h-441v76q0 353 508 353q254 0 379 -76q127 -77 127 -245
q0 -72 -24 -123zM389 0v357h386v-357h-386z" />
    <glyph glyph-name="at" unicode="@" horiz-adv-x="1757" 
d="M1325 1168q181 -91 276 -255q97 -168 97 -395q0 -282 -122 -422q-120 -138 -334 -138q-129 0 -218 58q-91 59 -104 156q-22 -40 -63 -61t-104 -21q-66 0 -123 36q-56 36 -92 107q-36 72 -36 179q0 59 13 134q31 173 122 244q89 70 192 70q110 0 151 -62l9 40h277
l-92 -484q-9 -50 -9 -80q0 -87 68 -87q79 0 121 78q41 76 41 253q0 246 -122 368t-369 122q-155 0 -276 -71q-120 -71 -188 -200q-67 -128 -67 -297q0 -152 61 -261q63 -112 172 -168q111 -57 259 -57q58 0 127 11l20 -227q-99 -16 -198 -16q-234 0 -406 95
q-170 94 -259 258t-89 365q0 228 100 413q101 188 290 296q188 108 448 108q249 0 427 -89zM886 352q16 37 35 138q13 88 13 106q0 28 -10 41q-9 12 -33 12q-56 0 -83 -152q-14 -82 -14 -117q0 -36 12 -53q12 -16 36 -16q26 0 44 41z" />
    <glyph glyph-name="A" unicode="A" horiz-adv-x="1236" 
d="M1265 0h-487l-37 196h-244l-39 -196h-486l375 1238h543zM619 829l-67 -350h134z" />
    <glyph glyph-name="B" unicode="B" horiz-adv-x="1257" 
d="M1171 546q51 -72 51 -187q0 -173 -108 -266t-313 -93h-716v1238h690q202 0 306 -85q106 -86 106 -242q0 -102 -40 -169q-41 -68 -105 -96q77 -27 129 -100zM653 750q118 0 118 95q0 53 -28 75q-29 23 -90 23h-117v-193h117zM633 295q69 0 102 24t33 79q0 57 -32 80
t-103 23h-97v-206h97z" />
    <glyph glyph-name="C" unicode="C" horiz-adv-x="1234" 
d="M195 104q-142 129 -142 409v216q0 278 142 405t426 127q285 0 430 -131q144 -130 136 -419h-460q0 95 -10 153q-9 52 -32 72q-22 19 -64 19q-60 0 -84 -38q-24 -37 -24 -135v-322q0 -96 24 -137q24 -40 84 -40q42 0 63 20q24 23 33 74q10 58 10 154h460q0 -291 -142 -424
q-141 -132 -424 -132t-426 129z" />
    <glyph glyph-name="D" unicode="D" horiz-adv-x="1259" 
d="M580 1238q251 0 382 -52q133 -53 190 -184q58 -134 58 -383q0 -251 -58 -385q-57 -132 -190 -183q-132 -51 -382 -51h-495v1238h495zM554 315q80 0 120 17q39 16 57 81q19 68 19 206t-19 206q-18 65 -57 81q-40 17 -120 17h-9v-608h9z" />
    <glyph glyph-name="E" unicode="E" horiz-adv-x="1101" 
d="M545 481v-163h511v-318h-971v1238h960v-318h-500v-138h429v-301h-429z" />
    <glyph glyph-name="F" unicode="F" horiz-adv-x="1048" 
d="M1010 1238v-318h-465v-138h398v-301h-398v-481h-460v1238h925z" />
    <glyph glyph-name="G" unicode="G" horiz-adv-x="1248" 
d="M617 723h579v-201q0 -190 -58 -312q-57 -120 -179 -177q-124 -58 -322 -58q-300 0 -442 128t-142 410v216q0 281 142 407q144 127 442 127q269 0 406 -108t149 -340h-444q-3 73 -30 106q-28 34 -83 34q-65 0 -94 -41q-28 -40 -28 -132v-322q0 -94 28 -135q29 -42 96 -42
q65 0 93 35q29 36 30 115h-143v290z" />
    <glyph glyph-name="H" unicode="H" horiz-adv-x="1319" 
d="M775 798v440h459v-1238h-459v479h-230v-479h-460v1238h460v-440h230z" />
    <glyph glyph-name="I" unicode="I" horiz-adv-x="629" 
d="M545 0h-460v1238h460v-1238z" />
    <glyph glyph-name="J" unicode="J" horiz-adv-x="742" 
d="M28 0v318h71q57 0 80 29t23 93v798h459v-768q0 -195 -38 -291q-39 -99 -139 -139q-99 -40 -297 -40h-159z" />
    <glyph glyph-name="K" unicode="K" horiz-adv-x="1259" 
d="M868 626l430 -626h-538l-215 377v-377h-460v1238h460v-345l184 345h537z" />
    <glyph glyph-name="L" unicode="L" horiz-adv-x="1073" 
d="M1049 0h-964v1238h460v-920h504v-318z" />
    <glyph glyph-name="M" unicode="M" horiz-adv-x="1687" 
d="M844 746l97 492h661v-1238h-431v787l-138 -617h-379l-138 617v-787h-431v1238h661z" />
    <glyph glyph-name="N" unicode="N" horiz-adv-x="1335" 
d="M842 654v584h408v-1238h-507l-248 580v-580h-410v1238h507z" />
    <glyph glyph-name="O" unicode="O" horiz-adv-x="1239" 
d="M195 104q-142 130 -142 409v216q0 278 142 406t426 128q283 0 425 -128q141 -128 141 -406v-216q0 -280 -141 -409t-425 -129q-285 0 -426 129zM701 319q26 37 26 113v374q0 76 -26 113q-25 36 -80 36q-108 0 -108 -149v-374q0 -149 108 -149q55 0 80 36z" />
    <glyph glyph-name="P" unicode="P" horiz-adv-x="1206" 
d="M1057 1126q117 -113 117 -353q0 -243 -117 -355q-116 -112 -373 -112h-138l-1 -306h-460v1238h599q257 0 373 -112zM603 615q72 0 105 33t33 125q0 90 -33 123q-32 32 -105 32h-51l-4 -313h55z" />
    <glyph glyph-name="Q" unicode="Q" horiz-adv-x="1237" 
d="M1187 520q0 -156 -66 -254q-67 -99 -171 -149q60 -10 90 -20l133 -40l-108 -285l-356 113l-44 14q-243 78 -361 135q-115 56 -184 169q-67 110 -67 317v209q0 279 139 406q140 128 429 128q292 0 429 -128t137 -406v-209zM513 439q0 -149 108 -149q55 0 80 36
q26 37 26 113v367q0 76 -26 113q-25 36 -80 36q-108 0 -108 -149v-367z" />
    <glyph glyph-name="R" unicode="R" horiz-adv-x="1222" 
d="M1017 424l170 -424h-465l-115 364h-62v-364h-460v1238h670q216 0 326 -110q109 -109 109 -327q0 -273 -173 -377zM545 937v-272h76q63 0 94 34q30 33 30 102q0 72 -30 105q-28 31 -94 31h-76z" />
    <glyph glyph-name="S" unicode="S" horiz-adv-x="1186" 
d="M179 61q-131 86 -131 300q0 29 2 53h442q-3 -80 18 -114q22 -36 77 -36q49 0 74 16t25 47q0 37 -28 61t-120 51q-204 59 -310 130q-109 73 -146 154q-38 84 -38 193q0 155 134 251t409 96q310 0 432 -107q121 -106 109 -319h-428q6 68 -23 103q-28 34 -76 34
q-88 0 -88 -60q0 -34 26 -57q27 -24 114 -45q198 -50 311 -120q108 -67 148 -151q39 -83 39 -196q0 -370 -571 -370q-270 0 -401 86z" />
    <glyph glyph-name="T" unicode="T" horiz-adv-x="1075" 
d="M1043 1238v-318h-275v-920h-460v920h-276v318h1011z" />
    <glyph glyph-name="U" unicode="U" horiz-adv-x="1264" 
d="M215 91q-134 116 -134 360v787h460v-805q0 -63 21 -94t71 -31q48 0 69 31t21 94v805h460v-787q0 -245 -133 -360q-134 -116 -417 -116q-284 0 -418 116z" />
    <glyph glyph-name="V" unicode="V" horiz-adv-x="1209" 
d="M852 0h-497l-383 1238h486l147 -760l147 760h486z" />
    <glyph glyph-name="W" unicode="W" horiz-adv-x="1803" 
d="M1261 539l81 699h480l-296 -1238h-507l-117 555l-117 -555h-507l-296 1238h480l81 -699l133 699h452z" />
    <glyph glyph-name="X" unicode="X" horiz-adv-x="1260" 
d="M923 635l356 -635h-517l-131 329l-132 -329h-517l354 635l-324 603h499l119 -313l120 313h499z" />
    <glyph glyph-name="Y" unicode="Y" horiz-adv-x="1188" 
d="M594 888l112 350h500l-382 -796v-442h-460v442l-382 796h501z" />
    <glyph glyph-name="Z" unicode="Z" horiz-adv-x="1034" 
d="M994 0h-966l375 920h-350v318h943l-370 -920h368v-318z" />
    <glyph glyph-name="bracketleft" unicode="[" horiz-adv-x="702" 
d="M508 1107v-1240h192v-221h-582v1680h582v-219h-192z" />
    <glyph glyph-name="backslash" unicode="\" horiz-adv-x="772" 
d="M-35 1238h380l463 -1238h-380z" />
    <glyph glyph-name="bracketright" unicode="]" horiz-adv-x="702" 
d="M2 -133h193v1240h-193v219h582v-1680h-582v221z" />
    <glyph glyph-name="asciicircum" unicode="^" horiz-adv-x="1087" 
d="M455 1273h176l434 -474l-255 -240l-267 325l-265 -325l-255 239z" />
    <glyph glyph-name="underscore" unicode="_" horiz-adv-x="707" 
d="M0 -308v308h707v-308h-707z" />
    <glyph glyph-name="grave" unicode="`" horiz-adv-x="1016" 
d="M147 1326h414l208 -265h-309z" />
    <glyph glyph-name="a" unicode="a" horiz-adv-x="1080" 
d="M811 949q101 -41 148 -131t47 -247v-571h-422v74q-44 -44 -110 -65t-133 -21q-142 0 -223 80q-83 81 -83 215q0 334 536 366q-12 31 -41 45q-27 13 -83 13q-69 0 -144 -14q-71 -13 -172 -42l-53 262q100 27 235 52q131 24 233 24q166 0 265 -40zM561 292q23 26 23 67v76
q-81 -13 -115 -40q-34 -26 -34 -64q0 -28 18 -46t48 -18q38 0 60 25z" />
    <glyph glyph-name="b" unicode="b" horiz-adv-x="1193" 
d="M1151 486q0 -495 -389 -495q-152 0 -237 69v-60h-442v1326h442v-410q87 66 237 66q389 0 389 -496zM685 315q24 53 24 171q0 120 -24 172q-24 53 -75 53t-75 -53q-24 -52 -24 -172q0 -118 24 -171t75 -53t75 53z" />
    <glyph glyph-name="c" unicode="c" horiz-adv-x="1114" 
d="M42 485q0 498 517 498q485 0 513 -424h-434q-7 72 -16 97q-12 32 -27 41t-36 9q-30 0 -48 -18q-17 -17 -26 -65t-9 -138q0 -89 9 -136q9 -48 26 -63q19 -17 48 -17q23 0 37 9q14 10 26 40q9 24 16 98h434q-29 -427 -513 -427q-517 0 -517 496z" />
    <glyph glyph-name="d" unicode="d" horiz-adv-x="1193" 
d="M669 1326h442v-1326h-442v60q-85 -69 -237 -69q-390 0 -390 495q0 496 390 496q150 0 237 -66v410zM659 315q24 53 24 171q0 120 -24 172q-24 53 -75 53q-52 0 -76 -53q-23 -50 -23 -172q0 -121 23 -171q24 -53 76 -53q51 0 75 53z" />
    <glyph glyph-name="e" unicode="e" horiz-adv-x="1107" 
d="M1061 472q0 -26 -3 -83h-586q8 -75 28 -103q22 -30 52 -30q58 0 69 80h431q-29 -165 -152 -255q-125 -92 -348 -92q-249 0 -380 125q-130 124 -130 371t130 373q129 125 380 125q509 0 509 -511zM501 691q-20 -28 -29 -102h159q-3 73 -24 101t-55 28q-32 0 -51 -27z" />
    <glyph glyph-name="f" unicode="f" horiz-adv-x="769" 
d="M603 1055q-14 -22 -14 -77v-5h147v-283h-147v-690h-442v690h-112v283h112v9q0 133 34 210q35 78 119 116q85 38 238 38q116 0 244 -27l-32 -254q-64 10 -97 10q-37 0 -50 -20z" />
    <glyph glyph-name="g" unicode="g" horiz-adv-x="1192" 
d="M667 973h442v-851q0 -188 -60 -294q-61 -109 -176 -152q-117 -44 -300 -44q-187 0 -432 60l69 274q138 -39 257 -39q74 0 121 15q41 13 59 48q19 36 20 102q-78 -74 -237 -74q-194 0 -291 126q-98 127 -98 355q0 227 99 355t290 128q153 0 237 -73v64zM658 335
q23 49 23 164q0 114 -23 163t-76 49t-76 -49t-23 -163q0 -115 23 -164q22 -48 76 -48t76 48z" />
    <glyph glyph-name="h" unicode="h" horiz-adv-x="1202" 
d="M1047 883q81 -98 81 -299v-584h-442v584q0 50 -19 73q-19 24 -60 24t-61 -27q-19 -26 -19 -85v-569h-442l-2 1326h442v-436q97 92 262 92q178 0 260 -99z" />
    <glyph glyph-name="i" unicode="i" horiz-adv-x="608" 
d="M525 1397v-311h-442v311h442zM83 973h442v-973h-442v973z" />
    <glyph glyph-name="j" unicode="j" horiz-adv-x="631" 
d="M548 1086h-442v311h442v-311zM-2 -354v283h11q59 0 78 22t19 86v936h442v-952q0 -149 -35 -226q-36 -80 -128 -114q-94 -35 -274 -35h-113z" />
    <glyph glyph-name="k" unicode="k" horiz-adv-x="1151" 
d="M875 516l289 -521l-469 5l-170 341v-341h-442v1326h442v-633l136 280l469 -6z" />
    <glyph glyph-name="l" unicode="l" horiz-adv-x="687" 
d="M463 0q-143 0 -225 27t-120 97t-38 198v1004h442v-946q0 -53 19 -71q18 -17 67 -17h55v-292h-200z" />
    <glyph glyph-name="m" unicode="m" horiz-adv-x="1759" 
d="M1685 601v-601h-442v584q0 53 -16 75t-51 22q-38 0 -54 -22q-17 -23 -17 -75v-584h-442v584q0 52 -15 75q-15 22 -52 22q-38 0 -54 -22q-17 -23 -17 -75v-584h-442v973h442v-85q94 94 255 94q172 0 258 -122q90 122 295 122q352 0 352 -381z" />
    <glyph glyph-name="n" unicode="n" horiz-adv-x="1202" 
d="M1047 885q81 -97 81 -300v-585h-442v585q0 51 -19 74q-19 24 -60 24t-61 -27q-19 -26 -19 -85l-2 2l2 -573h-442l-2 973h442v-83q90 93 262 93q179 0 260 -98z" />
    <glyph glyph-name="o" unicode="o" horiz-adv-x="1131" 
d="M42 485q0 504 524 504q523 0 523 -504q0 -501 -523 -501q-524 0 -524 501zM641 315q24 53 24 171q0 120 -24 172q-24 53 -75 53t-75 -53q-24 -52 -24 -172q0 -118 24 -171t75 -53t75 53z" />
    <glyph glyph-name="p" unicode="p" horiz-adv-x="1193" 
d="M1051 857q100 -122 100 -371q0 -248 -100 -370q-101 -123 -306 -123q-64 0 -123 17q-58 17 -97 50v-414h-442v1327h442v-64q37 34 97 53q57 18 123 18q205 0 306 -123zM685 315q24 53 24 171q0 120 -24 172q-24 53 -75 53t-75 -53q-24 -52 -24 -172q0 -118 24 -171
t75 -53t75 53z" />
    <glyph glyph-name="q" unicode="q" horiz-adv-x="1193" 
d="M669 973h442v-1327h-442v414q-39 -33 -97 -50q-59 -17 -123 -17q-207 0 -307 123q-100 122 -100 370q0 249 100 371q100 123 307 123q66 0 123 -18q60 -19 97 -53v64zM659 315q24 53 24 171q0 120 -24 172q-24 53 -75 53q-52 0 -76 -53q-23 -50 -23 -172q0 -121 23 -171
q24 -53 76 -53q51 0 75 53z" />
    <glyph glyph-name="r" unicode="r" horiz-adv-x="896" 
d="M83 0v973h423v-218l5 -2q27 84 59 127q35 48 95 70q61 23 159 23h34v-395h-34q-104 0 -163 -17q-63 -18 -99 -72q-37 -55 -37 -160v-329h-442z" />
    <glyph glyph-name="s" unicode="s" horiz-adv-x="1073" 
d="M255 21q-112 32 -166 107q-53 74 -50 204h410q0 -42 21 -60q20 -17 62 -17t60 9t18 31q0 17 -10 26q-13 11 -44 18q-35 8 -101 18q-156 22 -249 64q-90 41 -126 102t-36 153q0 142 120 225q119 82 370 82q256 0 373 -87t108 -238h-405q0 38 -18 54q-19 17 -58 17
q-71 0 -71 -39q0 -21 30 -33q28 -11 117 -22q165 -21 258 -65q94 -45 127 -108q34 -65 34 -163q0 -144 -118 -226q-121 -84 -366 -84q-177 0 -290 32z" />
    <glyph glyph-name="t" unicode="t" horiz-adv-x="818" 
d="M764 292v-292h-263q-132 0 -209 31q-78 32 -114 100q-37 71 -37 186v373h-114v283h114v265h443v-265h175v-283h-175v-312q0 -48 19 -67t69 -19h92z" />
    <glyph glyph-name="u" unicode="u" horiz-adv-x="1202" 
d="M677 973h442v-973h-442v87q-89 -99 -256 -99q-181 0 -264 96q-83 97 -83 294v595h442v-575q0 -58 18 -83t62 -25q42 0 62 27q19 26 19 86v570z" />
    <glyph glyph-name="v" unicode="v" horiz-adv-x="1103" 
d="M762 0h-421l-353 973h468l96 -518l95 518h469z" />
    <glyph glyph-name="w" unicode="w" horiz-adv-x="1620" 
d="M1097 439l67 534h451l-266 -973h-443l-96 435l-95 -435h-444l-266 973h451l67 -534l78 534h418z" />
    <glyph glyph-name="x" unicode="x" horiz-adv-x="1103" 
d="M842 493l270 -493h-456l-104 258l-105 -258h-456l274 493l-247 480h456l78 -258l78 258h456z" />
    <glyph glyph-name="y" unicode="y" horiz-adv-x="1114" 
d="M561 559l122 414h442l-520 -1327h-412l154 384l-358 943h464z" />
    <glyph glyph-name="z" unicode="z" horiz-adv-x="928" 
d="M886 0h-859l309 681h-297v292h859l-309 -681h297v-292z" />
    <glyph glyph-name="braceleft" unicode="{" horiz-adv-x="834" 
d="M766 1111q-70 0 -98 -30t-28 -96v-191q0 -158 -74 -225q-76 -69 -163 -76v-14q50 -3 105 -32q53 -28 93 -97q39 -68 39 -177v-185q0 -67 28 -97q27 -29 98 -29h67v-216h-225q-184 0 -259 77t-75 226v210q0 81 -15 121t-60 57q-46 17 -141 17v265q95 0 141 17q45 17 60 56
q15 41 15 122v210q0 148 75 225t259 77h225v-215h-67z" />
    <glyph glyph-name="bar" unicode="|" horiz-adv-x="558" 
d="M85 -354v1680h389v-1680h-389z" />
    <glyph glyph-name="braceright" unicode="}" horiz-adv-x="834" 
d="M2 1111v215h224q184 0 259 -77q76 -78 76 -225v-210q0 -81 15 -122q15 -39 60 -56q46 -17 140 -17v-265q-94 0 -140 -17q-45 -17 -60 -57t-15 -121v-210q0 -148 -76 -226q-75 -77 -259 -77h-224v216h67q71 0 98 29q28 30 28 97v185q0 111 38 177q40 69 93 97
q55 29 106 32v14q-87 7 -163 76q-74 67 -74 225v191q0 66 -28 96t-98 30h-67z" />
    <glyph glyph-name="asciitilde" unicode="~" horiz-adv-x="716" 
d="M670 394q-80 -44 -162 -44q-45 0 -83 11q-37 11 -77 30q-30 12 -73 26q-29 9 -66 9q-46 0 -81 -13q-37 -14 -82 -40v303q38 26 79 37q36 10 84 10t82 -10q37 -11 77 -30q40 -17 73 -27q29 -9 67 -9q45 0 84 14q42 15 78 39v-306z" />
    <glyph glyph-name="uni00A0" unicode="&#xa0;" horiz-adv-x="459" 
 />
    <glyph glyph-name="exclamdown" unicode="&#xa1;" horiz-adv-x="615" 
d="M501 973v-358h-386v358h386zM538 152v-417h-460v417l58 361h343z" />
    <glyph glyph-name="cent" unicode="&#xa2;" horiz-adv-x="1114" 
d="M596 410q14 9 26 41q9 25 16 97h434q-21 -323 -303 -401v-147h-389v140q-338 78 -338 477q0 401 338 481v140h389v-147q282 -78 303 -399h-434q-7 72 -16 97q-12 31 -27 40t-36 9q-31 0 -48 -17t-26 -66q-9 -48 -9 -138q0 -89 9 -135q9 -49 26 -64q19 -17 48 -17
q23 0 37 9z" />
    <glyph glyph-name="sterling" unicode="&#xa3;" horiz-adv-x="1137" 
d="M1111 88q-89 -52 -165 -74q-80 -23 -157 -23q-57 0 -136 14q-93 18 -195 18q-162 0 -306 -39l-64 304q58 13 92 52q32 36 30 129h-141v274h101l-18 97q-5 30 -5 67q0 165 140 248t353 83q212 0 319 -105t107 -328h-376q-3 84 -16 118q-12 32 -43 32q-19 0 -30 -17
q-10 -16 -10 -47q0 -26 7 -51l25 -97h201v-274h-164q-12 -89 -82 -158q24 2 53 2t76 -3q70 -4 75 -4q54 0 107 14q48 13 101 50z" />
    <glyph glyph-name="currency" unicode="&#xa4;" horiz-adv-x="1237" 
d="M1008 502l154 -143l-264 -262l-139 152q-65 -24 -140 -24t-140 24l-139 -152l-264 262l154 143q-23 63 -23 135q0 71 23 134l-154 143l264 262l139 -152q68 25 140 25t140 -25l139 152l264 -262l-154 -143q23 -63 23 -134q0 -72 -23 -135zM540 558q32 -32 79 -33
q47 1 79 33q30 30 32 79q-1 47 -32 78q-32 32 -79 33q-47 -1 -79 -33q-31 -31 -32 -78q2 -49 32 -79z" />
    <glyph glyph-name="yen" unicode="&#xa5;" horiz-adv-x="1188" 
d="M706 1238h500l-285 -592h94v-213h-191v-65h191v-212h-191v-156h-460v156h-185v212h185v65h-185v213h88l-285 592h501l111 -350z" />
    <glyph glyph-name="brokenbar" unicode="&#xa6;" horiz-adv-x="558" 
d="M474 672h-389v654h389v-654zM474 -354h-389v655h389v-655z" />
    <glyph glyph-name="section" unicode="&#xa7;" horiz-adv-x="884" 
d="M769 22q50 -76 50 -192q0 -137 -101 -205q-100 -67 -288 -67q-182 0 -273 90t-79 294h315q-2 -22 -2 -41q0 -47 10 -64t34 -17q39 0 39 47q0 83 -92 119q-129 48 -198 105q-68 56 -97 140t-29 211q0 142 47 215q46 72 159 84q-100 47 -149 121q-50 76 -50 192
q0 137 101 205q100 67 289 67q181 0 273 -90q90 -89 78 -293h-314q1 11 1 40q0 47 -10 64q-11 18 -34 18q-39 0 -39 -48q0 -83 92 -119q129 -48 198 -105t98 -140q28 -81 28 -211q0 -142 -47 -215q-46 -72 -158 -84q99 -46 148 -121zM478 329q8 33 8 113q0 82 -12 116
t-37 34q-21 0 -30 -37t-9 -113q0 -82 12 -116t37 -34q22 0 31 37z" />
    <glyph glyph-name="dieresis" unicode="&#xa8;" horiz-adv-x="958" 
d="M173 1090q-37 37 -37 98q0 63 37 100t99 37t99 -37q38 -38 38 -100q0 -60 -38 -98t-99 -38t-99 38zM523 1090q-37 37 -37 98q0 63 37 100t100 37q61 0 98 -37q38 -38 38 -100q0 -60 -38 -98t-98 -38q-62 0 -100 38z" />
    <glyph glyph-name="copyright" unicode="&#xa9;" horiz-adv-x="1377" 
d="M371 74q-142 81 -227 227q-84 144 -84 316q0 175 84 319t227 226q145 83 317 83t317 -83q146 -84 229 -226q84 -144 84 -319q0 -173 -84 -317t-229 -227q-143 -82 -317 -82q-172 0 -317 83zM886 276q91 53 142 143t51 198q0 110 -51 200t-142 143t-198 53
q-106 0 -197 -53q-90 -52 -141 -144t-51 -199q0 -108 51 -198q51 -91 141 -143q91 -53 197 -53q107 0 198 53zM960 465q-32 -72 -103 -113q-74 -43 -160 -43q-135 0 -221 87q-85 86 -85 225q0 90 39 162q38 70 108 111q68 40 159 40q87 0 160 -44q72 -43 103 -115l-187 -115
q-11 21 -31 32q-21 12 -40 12q-35 0 -57 -25t-22 -62t22 -62q21 -24 57 -24q19 0 40 12q20 11 31 32z" />
    <glyph glyph-name="ordfeminine" unicode="&#xaa;" horiz-adv-x="794" 
d="M417 999q-12 25 -31 33q-23 10 -61 10q-53 0 -106 -11q-42 -9 -127 -32l-39 195q76 21 172 39q92 17 175 17q182 0 260 -69q79 -70 79 -240v-423h-313v55q-32 -32 -79 -48t-99 -16q-102 0 -165 60q-62 59 -62 158q0 247 396 272zM426 840q-59 -10 -85 -30
q-24 -18 -24 -48q0 -19 13 -32q14 -14 34 -14q27 0 45 18q17 17 17 49v57zM64 317v138h686v-138h-686z" />
    <glyph glyph-name="guillemotleft" unicode="&#xab;" horiz-adv-x="1153" 
d="M485 69l-420 467l420 467l194 -161l-270 -306l270 -304zM944 69l-419 467l419 467l195 -161l-271 -306l271 -304z" />
    <glyph glyph-name="logicalnot" unicode="&#xac;" horiz-adv-x="726" 
d="M46 386v300h635v-504h-327v204h-308z" />
    <glyph glyph-name="uni00AD" unicode="&#xad;" horiz-adv-x="726" 
d="M46 386v300h635v-300h-635z" />
    <glyph glyph-name="registered" unicode="&#xae;" horiz-adv-x="1377" 
d="M1005 1162q146 -84 229 -226q84 -144 84 -319q0 -173 -84 -317t-229 -227q-143 -82 -317 -82q-172 0 -317 83q-142 81 -227 227q-84 144 -84 316q0 175 84 319t227 226q145 83 317 83t317 -83zM886 276q91 53 142 143t51 198q0 110 -51 200t-142 143t-198 53
q-106 0 -197 -53q-90 -52 -141 -144t-51 -199q0 -108 51 -198q51 -91 141 -143q91 -53 197 -53q107 0 198 53zM863 591l88 -239h-205l-54 189h-8v-189h-208v568h233q111 0 166 -47q53 -46 53 -127q0 -109 -65 -155zM684 768v-84h9q48 0 48 41q0 43 -48 43h-9z" />
    <glyph glyph-name="macron" unicode="&#xaf;" horiz-adv-x="877" 
d="M706 1079h-580v198h580v-198z" />
    <glyph glyph-name="degree" unicode="&#xb0;" horiz-adv-x="594" 
d="M107 796q-73 74 -73 191q0 119 72 191t191 72t191 -72q73 -73 73 -191q0 -115 -74 -191q-73 -74 -190 -74t-190 74zM336 949q14 16 14 38q0 23 -15 37q-16 14 -38 14t-38 -14q-15 -14 -15 -37t15 -38t38 -15q25 0 39 15z" />
    <glyph glyph-name="plusminus" unicode="&#xb1;" horiz-adv-x="787" 
d="M504 1128v-217h218v-225h-218v-216h-223v216h-216v225h216v217h223zM711 143h-646v228h646v-228z" />
    <glyph glyph-name="uni00B2" unicode="&#xb2;" horiz-adv-x="703" 
d="M522 725h143v-194h-623l282 362q35 44 43 65q10 25 10 50q0 17 -10 30t-27 13q-27 0 -36 -27q-8 -25 -5 -80h-269q-2 16 -2 38q0 142 88 207t236 65q154 0 231 -66t77 -180q0 -45 -26 -102q-27 -60 -80 -135z" />
    <glyph glyph-name="uni00B3" unicode="&#xb3;" horiz-adv-x="710" 
d="M654 842q27 -41 27 -97q0 -106 -89 -168t-249 -62q-153 0 -236 63t-75 197h263q-2 -40 12 -58q13 -18 43 -18q27 0 39 14q12 13 12 33q0 55 -76 55h-61v166h49q35 0 52 12t17 41q0 46 -44 46q-46 0 -39 -72h-262q-7 126 74 192t225 66q161 0 241 -56q81 -57 81 -151
q0 -95 -80 -143q49 -19 76 -60z" />
    <glyph glyph-name="acute" unicode="&#xb4;" horiz-adv-x="999" 
d="M133 1061l208 265h414l-313 -265h-309z" />
    <glyph glyph-name="uni00B5" unicode="&#xb5;" horiz-adv-x="1264" 
d="M730 973h451v-973h-451v67q-36 -30 -100 -30q-60 0 -96 27v-418h-451v1327h451v-462q0 -156 96 -156q100 0 100 156v462z" />
    <glyph glyph-name="paragraph" unicode="&#xb6;" horiz-adv-x="1241" 
d="M435 561q-364 6 -364 339q0 338 364 338h768v-318h-85v-922h-312v922h-60v-922h-311v563z" />
    <glyph glyph-name="periodcentered" unicode="&#xb7;" horiz-adv-x="569" 
d="M64 329v424h442v-424h-442z" />
    <glyph glyph-name="cedilla" unicode="&#xb8;" horiz-adv-x="827" 
d="M470 -58q89 -6 130 -48q40 -41 40 -104q0 -71 -56 -117t-167 -46t-253 32l39 131q118 -22 168 -22q39 0 55 9t16 27q0 22 -31 32q-30 10 -123 10l34 205h168v-24z" />
    <glyph glyph-name="uni00B9" unicode="&#xb9;" horiz-adv-x="532" 
d="M435 725h81v-194h-475v194h102v226h-90v177q66 0 94 20q26 19 35 90h253v-513z" />
    <glyph glyph-name="ordmasculine" unicode="&#xba;" horiz-adv-x="824" 
d="M25 877q0 373 387 373t387 -373q0 -371 -387 -371t-387 371zM468 752q17 40 17 127q0 86 -17 126q-16 38 -56 38q-39 0 -57 -38q-17 -37 -17 -126q0 -88 17 -126q18 -40 57 -40q40 0 56 39zM81 317v138h679v-138h-679z" />
    <glyph glyph-name="guillemotright" unicode="&#xbb;" horiz-adv-x="1153" 
d="M1088 536l-419 -467l-195 163l271 304l-271 306l195 161zM628 536l-419 -467l-195 163l271 304l-271 306l195 161z" />
    <glyph glyph-name="onequarter" unicode="&#xbc;" horiz-adv-x="1574" 
d="M435 725h81v-194h-475v194h102v226h-90v177q66 0 94 20q26 19 35 90h253v-513zM387 0h-300l1054 1238h300zM1503 309h52v-189h-52v-120h-276l2 120h-375v112l166 475h289l-135 -398h57v96h272v-96z" />
    <glyph glyph-name="onehalf" unicode="&#xbd;" horiz-adv-x="1605" 
d="M435 725h81v-194h-475v194h102v226h-90v177q66 0 94 20q26 19 35 90h253v-513zM391 0h-301l1054 1238h301zM1424 195h143v-195h-623l282 363q35 45 43 64q10 25 10 51q0 17 -10 30q-9 12 -27 12q-27 0 -36 -27q-8 -24 -5 -79h-269q-2 16 -2 37q0 143 88 208q86 64 236 64
q154 0 231 -66t77 -179q0 -45 -26 -102q-27 -60 -80 -135z" />
    <glyph glyph-name="threequarters" unicode="&#xbe;" horiz-adv-x="1685" 
d="M654 842q27 -41 27 -97q0 -106 -89 -168t-249 -62q-153 0 -236 63t-75 197h263q-2 -40 12 -58q13 -18 43 -18q27 0 39 14q12 13 12 33q0 55 -76 55h-61v166h49q35 0 52 12t17 41q0 46 -44 46q-46 0 -39 -72h-262q-7 126 74 192t225 66q161 0 241 -56q81 -57 81 -151
q0 -95 -80 -143q49 -19 76 -60zM467 0h-301l1054 1238h301zM1615 309h51v-189h-51v-120h-276l2 120h-375v112l166 475h288l-134 -398h56v96h273v-96z" />
    <glyph glyph-name="questiondown" unicode="&#xbf;" horiz-adv-x="855" 
d="M534 973v-358h-385v358h385zM-125 160q23 48 58 82q36 35 88 71q62 41 97 81q31 35 31 94v25h385v-55q0 -98 -36 -153q-37 -57 -104 -109q-42 -36 -68 -68q-22 -28 -22 -71q0 -44 14 -64t43 -20q31 0 48 23q15 20 15 80v69h441v-76q0 -354 -508 -354q-252 0 -379 77
t-127 245q0 72 24 123z" />
    <glyph glyph-name="Agrave" unicode="&#xc0;" horiz-adv-x="1236" 
d="M1265 0h-487l-37 196h-244l-39 -196h-486l375 1238h543zM619 829l-67 -350h134zM196 1592h414l209 -266h-310z" />
    <glyph glyph-name="Aacute" unicode="&#xc1;" horiz-adv-x="1236" 
d="M1265 0h-487l-37 196h-244l-39 -196h-486l375 1238h543zM619 829l-67 -350h134zM412 1326l209 266h414l-313 -266h-310z" />
    <glyph glyph-name="Acircumflex" unicode="&#xc2;" horiz-adv-x="1236" 
d="M1265 0h-487l-37 196h-244l-39 -196h-486l375 1238h543zM619 829l-67 -350h134zM338 1443l281 237l281 -237l-170 -145l-111 122l-111 -122z" />
    <glyph glyph-name="Atilde" unicode="&#xc3;" horiz-adv-x="1236" 
d="M1265 0h-487l-37 196h-244l-39 -196h-486l375 1238h543zM619 829l-67 -350h134zM313 1397q71 177 205 177q34 0 62 -10q23 -8 55 -29q34 -18 40 -21q14 -7 36 -7q52 0 90 65l136 -86q-72 -179 -205 -179q-34 0 -61 10q-24 9 -54 27q-25 16 -39 22q-19 8 -40 8
q-59 0 -89 -63z" />
    <glyph glyph-name="Adieresis" unicode="&#xc4;" horiz-adv-x="1236" 
d="M1265 0h-487l-37 196h-244l-39 -196h-486l375 1238h543zM619 829l-67 -350h134zM345 1356q-37 37 -37 98q0 62 37 99t99 37q61 0 98 -37q38 -38 38 -99q0 -60 -38 -98t-98 -38q-61 0 -99 38zM695 1356q-37 37 -37 98q0 62 37 99t99 37q61 0 98 -37q38 -38 38 -99
q0 -60 -38 -98t-98 -38q-61 0 -99 38z" />
    <glyph glyph-name="Aring" unicode="&#xc5;" horiz-adv-x="1236" 
d="M1265 0h-487l-37 196h-244l-39 -196h-486l375 1238h543zM619 829l-67 -350h134zM444 1364q-69 62 -69 162q0 102 69 163q70 62 175 62t175 -62q69 -62 69 -163q0 -100 -69 -162q-70 -62 -175 -62t-175 62zM671 1477q21 18 21 49q0 32 -21 49q-22 17 -52 17t-52 -17
q-21 -17 -21 -49q0 -31 21 -49t52 -18t52 18z" />
    <glyph glyph-name="AE" unicode="&#xc6;" horiz-adv-x="1763" 
d="M1213 481v-163h511v-318h-971v179h-207l-61 -179h-520l558 1238h1191v-318h-501v-138h430v-301h-430zM753 768l-107 -306h107v306z" />
    <glyph glyph-name="Ccedilla" unicode="&#xc7;" horiz-adv-x="1234" 
d="M537 917q-24 -37 -24 -135v-322q0 -96 24 -137q24 -40 84 -40q42 0 63 20q24 23 33 74q10 58 10 154h460q0 -272 -125 -406q-125 -135 -372 -148l-7 -35q89 -6 130 -48q39 -40 39 -104q0 -71 -56 -117t-166 -46q-111 0 -253 32l39 131q118 -22 168 -22q38 0 54 9t16 27
q0 22 -31 32q-30 10 -122 10l21 133q-234 21 -351 150q-118 130 -118 384v216q0 278 142 405t426 127q285 0 430 -131q144 -130 136 -419h-460q0 95 -10 153q-9 52 -32 72q-22 19 -64 19q-60 0 -84 -38z" />
    <glyph glyph-name="Egrave" unicode="&#xc8;" horiz-adv-x="1101" 
d="M545 481v-163h511v-318h-971v1238h960v-318h-500v-138h429v-301h-429zM149 1590h413l209 -265h-309z" />
    <glyph glyph-name="Eacute" unicode="&#xc9;" horiz-adv-x="1101" 
d="M545 481v-163h511v-318h-971v1238h960v-318h-500v-138h429v-301h-429zM364 1325l209 265h414l-313 -265h-310z" />
    <glyph glyph-name="Ecircumflex" unicode="&#xca;" horiz-adv-x="1101" 
d="M545 481v-163h511v-318h-971v1238h960v-318h-500v-138h429v-301h-429zM290 1441l281 237l281 -237l-169 -145l-112 122l-111 -122z" />
    <glyph glyph-name="Edieresis" unicode="&#xcb;" horiz-adv-x="1101" 
d="M545 481v-163h511v-318h-971v1238h960v-318h-500v-138h429v-301h-429zM297 1354q-37 37 -37 98q0 62 37 99t99 37q61 0 98 -37q38 -38 38 -99q0 -60 -38 -98t-98 -38q-61 0 -99 38zM647 1354q-37 37 -37 98q0 62 37 99t99 37q61 0 98 -37q39 -39 39 -99q0 -59 -39 -98
q-38 -38 -98 -38q-61 0 -99 38z" />
    <glyph glyph-name="Igrave" unicode="&#xcc;" horiz-adv-x="629" 
d="M545 0h-460v1238h460v-1238zM-108 1592h414l209 -266h-310z" />
    <glyph glyph-name="Iacute" unicode="&#xcd;" horiz-adv-x="629" 
d="M545 0h-460v1238h460v-1238zM108 1326l209 266h413l-313 -266h-309z" />
    <glyph glyph-name="Icircumflex" unicode="&#xce;" horiz-adv-x="629" 
d="M545 0h-460v1238h460v-1238zM34 1443l281 237l281 -237l-170 -145l-111 122l-112 -122z" />
    <glyph glyph-name="Idieresis" unicode="&#xcf;" horiz-adv-x="629" 
d="M545 0h-460v1238h460v-1238zM41 1356q-37 37 -37 98q0 62 37 99t99 37q61 0 98 -37q38 -38 38 -99q0 -60 -38 -98t-98 -38q-61 0 -99 38zM391 1356q-37 37 -37 98q0 62 37 99t99 37q61 0 98 -37q38 -38 38 -99q0 -60 -38 -98t-98 -38q-61 0 -99 38z" />
    <glyph glyph-name="Eth" unicode="&#xd0;" horiz-adv-x="1259" 
d="M580 1238q251 0 382 -52q133 -53 190 -184q58 -134 58 -383q0 -251 -58 -385q-57 -132 -190 -183q-132 -51 -382 -51h-495v495h-83v265h83v478h495zM554 315q80 0 120 17q39 16 57 81q19 68 19 206t-19 206q-18 65 -57 81q-40 17 -120 17h-9v-163h118v-265h-118v-180h9z
" />
    <glyph glyph-name="Ntilde" unicode="&#xd1;" horiz-adv-x="1335" 
d="M842 654v584h408v-1238h-507l-248 580v-580h-410v1238h507zM400 1397q70 177 205 177q34 0 62 -10q23 -8 55 -29q7 -4 20.5 -11t18.5 -10q14 -7 37 -7q52 0 90 65l136 -86q-72 -179 -205 -179q-34 0 -61 10q-24 9 -54 27q-25 16 -39 22q-19 8 -41 8q-58 0 -88 -63z" />
    <glyph glyph-name="Ograve" unicode="&#xd2;" horiz-adv-x="1239" 
d="M195 104q-142 130 -142 409v216q0 278 142 406t426 128q283 0 425 -128q141 -128 141 -406v-216q0 -280 -141 -409t-425 -129q-285 0 -426 129zM701 319q26 37 26 113v374q0 76 -26 113q-25 36 -80 36q-108 0 -108 -149v-374q0 -149 108 -149q55 0 80 36zM198 1592h414
l209 -266h-310z" />
    <glyph glyph-name="Oacute" unicode="&#xd3;" horiz-adv-x="1239" 
d="M195 104q-142 130 -142 409v216q0 278 142 406t426 128q283 0 425 -128q141 -128 141 -406v-216q0 -280 -141 -409t-425 -129q-285 0 -426 129zM701 319q26 37 26 113v374q0 76 -26 113q-25 36 -80 36q-108 0 -108 -149v-374q0 -149 108 -149q55 0 80 36zM414 1326
l209 266h413l-313 -266h-309z" />
    <glyph glyph-name="Ocircumflex" unicode="&#xd4;" horiz-adv-x="1239" 
d="M195 104q-142 130 -142 409v216q0 278 142 406t426 128q283 0 425 -128q141 -128 141 -406v-216q0 -280 -141 -409t-425 -129q-285 0 -426 129zM701 319q26 37 26 113v374q0 76 -26 113q-25 36 -80 36q-108 0 -108 -149v-374q0 -149 108 -149q55 0 80 36zM340 1443
l281 237l281 -237l-170 -145l-111 122l-112 -122z" />
    <glyph glyph-name="Otilde" unicode="&#xd5;" horiz-adv-x="1239" 
d="M195 104q-142 130 -142 409v216q0 278 142 406t426 128q283 0 425 -128q141 -128 141 -406v-216q0 -280 -141 -409t-425 -129q-285 0 -426 129zM701 319q26 37 26 113v374q0 76 -26 113q-25 36 -80 36q-108 0 -108 -149v-374q0 -149 108 -149q55 0 80 36zM315 1397
q71 177 205 177q34 0 62 -10q23 -8 55 -29q8 -4 21 -11t18 -10q14 -7 37 -7q52 0 90 65l136 -86q-72 -179 -205 -179q-34 0 -61 10q-24 9 -54 27q-25 16 -39 22q-19 8 -41 8q-58 0 -88 -63z" />
    <glyph glyph-name="Odieresis" unicode="&#xd6;" horiz-adv-x="1239" 
d="M195 104q-142 130 -142 409v216q0 278 142 406t426 128q283 0 425 -128q141 -128 141 -406v-216q0 -280 -141 -409t-425 -129q-285 0 -426 129zM701 319q26 37 26 113v374q0 76 -26 113q-25 36 -80 36q-108 0 -108 -149v-374q0 -149 108 -149q55 0 80 36zM347 1356
q-38 38 -38 98q0 61 38 99q37 37 99 37q61 0 98 -37q38 -38 38 -99q0 -60 -38 -98t-98 -38q-61 0 -99 38zM697 1356q-37 37 -37 98q0 62 37 99t99 37q61 0 98 -37q38 -38 38 -99q0 -60 -38 -98t-98 -38q-61 0 -99 38z" />
    <glyph glyph-name="multiply" unicode="&#xd7;" horiz-adv-x="919" 
d="M663 936l211 -211l-204 -205l202 -202l-209 -210l-203 203l-202 -203l-210 212l201 202l-203 203l210 211l204 -204z" />
    <glyph glyph-name="Oslash" unicode="&#xd8;" horiz-adv-x="1239" 
d="M1068 1112q119 -133 119 -383v-216q0 -280 -141 -409t-425 -129q-202 0 -329 62l-53 -72l-133 86l60 83q-113 130 -113 379v216q0 278 142 406t426 128q197 0 320 -59l62 87l132 -87zM513 614l202 279q-23 62 -94 62q-108 0 -108 -149v-192zM701 319q26 37 26 113v208
l-205 -283q25 -74 99 -74q55 0 80 36z" />
    <glyph glyph-name="Ugrave" unicode="&#xd9;" horiz-adv-x="1264" 
d="M215 91q-134 116 -134 360v787h460v-805q0 -63 21 -94t71 -31q48 0 69 31t21 94v805h460v-787q0 -245 -133 -360q-134 -116 -417 -116q-284 0 -418 116zM210 1592h414l209 -266h-310z" />
    <glyph glyph-name="Uacute" unicode="&#xda;" horiz-adv-x="1264" 
d="M215 91q-134 116 -134 360v787h460v-805q0 -63 21 -94t71 -31q48 0 69 31t21 94v805h460v-787q0 -245 -133 -360q-134 -116 -417 -116q-284 0 -418 116zM426 1326l209 266h414l-313 -266h-310z" />
    <glyph glyph-name="Ucircumflex" unicode="&#xdb;" horiz-adv-x="1264" 
d="M215 91q-134 116 -134 360v787h460v-805q0 -63 21 -94t71 -31q48 0 69 31t21 94v805h460v-787q0 -245 -133 -360q-134 -116 -417 -116q-284 0 -418 116zM352 1443l281 237l281 -237l-169 -145l-112 122l-111 -122z" />
    <glyph glyph-name="Udieresis" unicode="&#xdc;" horiz-adv-x="1264" 
d="M215 91q-134 116 -134 360v787h460v-805q0 -63 21 -94t71 -31q48 0 69 31t21 94v805h460v-787q0 -245 -133 -360q-134 -116 -417 -116q-284 0 -418 116zM359 1356q-37 37 -37 98q0 62 37 99t99 37q61 0 98 -37q38 -38 38 -99q0 -60 -38 -98t-98 -38q-61 0 -99 38z
M709 1356q-37 37 -37 98q0 62 37 99t99 37q61 0 98 -37q38 -38 38 -99q0 -60 -38 -98t-98 -38q-61 0 -99 38z" />
    <glyph glyph-name="Yacute" unicode="&#xdd;" horiz-adv-x="1188" 
d="M594 888l112 350h500l-382 -796v-442h-460v442l-382 796h501zM387 1326l209 266h414l-313 -266h-310z" />
    <glyph glyph-name="Thorn" unicode="&#xde;" horiz-adv-x="1167" 
d="M661 1086q255 0 365 -110q109 -109 109 -355q0 -247 -109 -357t-365 -110h-116v-154h-460v1238h460v-152h116zM571 463q73 0 102 33q29 34 29 125q0 89 -29 123q-28 32 -102 32h-26v-313h26z" />
    <glyph glyph-name="germandbls" unicode="&#xdf;" horiz-adv-x="1188" 
d="M638 292q52 0 77 22q26 23 26 72q0 43 -20 74q-24 38 -60 78q-47 55 -67 91q-23 41 -23 94t15 91q12 30 44 84q35 54 35 89q0 34 -19 58q-18 23 -52 23q-42 0 -60 -29q-18 -28 -18 -93v-946h-438v939q0 209 130 303q131 95 376 95q133 0 239 -41q108 -42 165 -112
q59 -73 59 -158q0 -57 -12 -93q-11 -32 -36 -81q-16 -28 -25 -53q-8 -22 -8 -47t15 -49q12 -20 47 -61q60 -72 92 -138q33 -67 33 -172q0 -166 -95 -249t-292 -83h-166v292h38z" />
    <glyph glyph-name="agrave" unicode="&#xe0;" horiz-adv-x="1080" 
d="M811 949q101 -41 148 -131t47 -247v-571h-422v74q-44 -44 -110 -65t-133 -21q-142 0 -223 80q-83 81 -83 215q0 334 536 366q-12 31 -41 45q-27 13 -83 13q-69 0 -144 -14q-71 -13 -172 -42l-53 262q100 27 235 52q131 24 233 24q166 0 265 -40zM561 292q23 26 23 67v76
q-81 -13 -115 -40q-34 -26 -34 -64q0 -28 18 -46t48 -18q38 0 60 25zM124 1342h414l208 -265h-309z" />
    <glyph glyph-name="aacute" unicode="&#xe1;" horiz-adv-x="1080" 
d="M811 949q101 -41 148 -131t47 -247v-571h-422v74q-44 -44 -110 -65t-133 -21q-142 0 -223 80q-83 81 -83 215q0 334 536 366q-12 31 -41 45q-27 13 -83 13q-69 0 -144 -14q-71 -13 -172 -42l-53 262q100 27 235 52q131 24 233 24q166 0 265 -40zM561 292q23 26 23 67v76
q-81 -13 -115 -40q-34 -26 -34 -64q0 -28 18 -46t48 -18q38 0 60 25zM340 1077l208 265h414l-313 -265h-309z" />
    <glyph glyph-name="acircumflex" unicode="&#xe2;" horiz-adv-x="1080" 
d="M811 949q101 -41 148 -131t47 -247v-571h-422v74q-44 -44 -110 -65t-133 -21q-142 0 -223 80q-83 81 -83 215q0 334 536 366q-12 31 -41 45q-27 13 -83 13q-69 0 -144 -14q-71 -13 -172 -42l-53 262q100 27 235 52q131 24 233 24q166 0 265 -40zM561 292q23 26 23 67v76
q-81 -13 -115 -40q-34 -26 -34 -64q0 -28 18 -46t48 -18q38 0 60 25zM265 1194l281 237l282 -237l-170 -145l-112 122l-111 -122z" />
    <glyph glyph-name="atilde" unicode="&#xe3;" horiz-adv-x="1080" 
d="M811 949q101 -41 148 -131t47 -247v-571h-422v74q-44 -44 -110 -65t-133 -21q-142 0 -223 80q-83 81 -83 215q0 334 536 366q-12 31 -41 45q-27 13 -83 13q-69 0 -144 -14q-71 -13 -172 -42l-53 262q100 27 235 52q131 24 233 24q166 0 265 -40zM561 292q23 26 23 67v76
q-81 -13 -115 -40q-34 -26 -34 -64q0 -28 18 -46t48 -18q38 0 60 25zM241 1148q71 177 205 177q34 0 62 -10q21 -7 54 -29q34 -18 40 -21q16 -8 36 -8q52 0 91 66l136 -87q-72 -178 -205 -178q-37 0 -61 9q-20 7 -54 28q-25 16 -39 22q-19 8 -41 8q-58 0 -88 -64z" />
    <glyph glyph-name="adieresis" unicode="&#xe4;" horiz-adv-x="1080" 
d="M811 949q101 -41 148 -131t47 -247v-571h-422v74q-44 -44 -110 -65t-133 -21q-142 0 -223 80q-83 81 -83 215q0 334 536 366q-12 31 -41 45q-27 13 -83 13q-69 0 -144 -14q-71 -13 -172 -42l-53 262q100 27 235 52q131 24 233 24q166 0 265 -40zM561 292q23 26 23 67v76
q-81 -13 -115 -40q-34 -26 -34 -64q0 -28 18 -46t48 -18q38 0 60 25zM272 1106q-37 37 -37 98q0 62 37 99q38 38 99 38t99 -38t38 -99q0 -60 -38 -98t-99 -38t-99 38zM623 1106q-38 38 -38 98q0 61 38 99t99 38q60 0 98 -38t38 -99q0 -60 -38 -98t-98 -38q-61 0 -99 38z" />
    <glyph glyph-name="aring" unicode="&#xe5;" horiz-adv-x="1080" 
d="M811 949q101 -41 148 -131t47 -247v-571h-422v74q-44 -44 -110 -65t-133 -21q-142 0 -223 80q-83 81 -83 215q0 334 536 366q-12 31 -41 45q-27 13 -83 13q-69 0 -144 -14q-71 -13 -172 -42l-53 262q100 27 235 52q131 24 233 24q166 0 265 -40zM561 292q23 26 23 67v76
q-81 -13 -115 -40q-34 -26 -34 -64q0 -28 18 -46t48 -18q38 0 60 25zM371 1114q-69 62 -69 163t69 163q70 62 175 62q106 0 176 -62q69 -61 69 -163q0 -101 -69 -163q-70 -62 -176 -62q-105 0 -175 62zM599 1227q20 17 20 50t-20 49t-53 16q-32 0 -52 -16t-20 -49t20 -50
t52 -17q33 0 53 17z" />
    <glyph glyph-name="ae" unicode="&#xe6;" horiz-adv-x="1520" 
d="M1362 838q129 -150 117 -449h-577q8 -79 27 -105q21 -29 58 -29q59 0 72 79h407q-21 -165 -127 -255q-106 -89 -317 -91q-194 0 -290 115q-115 -115 -343 -115q-173 0 -265 78t-92 217q0 334 536 366q-12 31 -42 45q-27 13 -82 13q-69 0 -144 -14q-73 -14 -173 -42
l-53 262q101 27 234 52q126 24 228 24q143 0 219 -64q82 64 232 64q245 0 375 -151zM929 691q-19 -26 -27 -107h172q-3 71 -27 105q-22 31 -60 31q-37 0 -58 -29zM557 292q23 26 23 67v76q-81 -13 -115 -40q-33 -25 -33 -64q0 -29 17 -46q18 -18 48 -18q38 0 60 25z" />
    <glyph glyph-name="ccedilla" unicode="&#xe7;" horiz-adv-x="1114" 
d="M596 278q14 10 26 40q9 24 16 98h434q-27 -381 -414 -421l-14 -64q89 -6 130 -48q40 -41 40 -104q0 -71 -57 -117q-56 -46 -166 -46q-111 0 -253 32l39 131q113 -21 168 -21q39 0 55 9q15 8 15 26q0 22 -30 32q-33 11 -123 11l24 155q-444 36 -444 494q0 498 517 498
q485 0 513 -424h-434q-7 72 -16 97q-12 32 -27 41t-36 9q-30 0 -48 -18q-17 -17 -26 -65t-9 -138q0 -89 9 -136q9 -48 26 -63q19 -17 48 -17q23 0 37 9z" />
    <glyph glyph-name="egrave" unicode="&#xe8;" horiz-adv-x="1107" 
d="M1061 472q0 -26 -3 -83h-586q8 -75 28 -103q22 -30 52 -30q58 0 69 80h431q-29 -165 -152 -255q-125 -92 -348 -92q-249 0 -380 125q-130 124 -130 371t130 373q129 125 380 125q509 0 509 -511zM501 691q-20 -28 -29 -102h159q-3 73 -24 101t-55 28q-32 0 -51 -27z
M129 1319h414l209 -265h-310z" />
    <glyph glyph-name="eacute" unicode="&#xe9;" horiz-adv-x="1107" 
d="M1061 472q0 -26 -3 -83h-586q8 -75 28 -103q22 -30 52 -30q58 0 69 80h431q-29 -165 -152 -255q-125 -92 -348 -92q-249 0 -380 125q-130 124 -130 371t130 373q129 125 380 125q509 0 509 -511zM501 691q-20 -28 -29 -102h159q-3 73 -24 101t-55 28q-32 0 -51 -27z
M345 1054l209 265h413l-313 -265h-309z" />
    <glyph glyph-name="ecircumflex" unicode="&#xea;" horiz-adv-x="1107" 
d="M1061 472q0 -26 -3 -83h-586q8 -75 28 -103q22 -30 52 -30q58 0 69 80h431q-29 -165 -152 -255q-125 -92 -348 -92q-249 0 -380 125q-130 124 -130 371t130 373q129 125 380 125q509 0 509 -511zM501 691q-20 -28 -29 -102h159q-3 73 -24 101t-55 28q-32 0 -51 -27z
M271 1171l281 237l281 -237l-170 -145l-111 122l-112 -122z" />
    <glyph glyph-name="edieresis" unicode="&#xeb;" horiz-adv-x="1107" 
d="M1061 472q0 -26 -3 -83h-586q8 -75 28 -103q22 -30 52 -30q58 0 69 80h431q-29 -165 -152 -255q-125 -92 -348 -92q-249 0 -380 125q-130 124 -130 371t130 373q129 125 380 125q509 0 509 -511zM501 691q-20 -28 -29 -102h159q-3 73 -24 101t-55 28q-32 0 -51 -27z
M278 1083q-37 37 -37 98q0 62 37 99q38 38 99 38q60 0 98 -38t38 -99q0 -60 -38 -98t-98 -38q-61 0 -99 38zM628 1083q-37 37 -37 98q0 62 37 99q38 38 99 38q60 0 98 -38t38 -99q0 -60 -38 -98t-98 -38q-61 0 -99 38z" />
    <glyph glyph-name="igrave" unicode="&#xec;" horiz-adv-x="626" 
d="M83 973h460v-973h-460v973zM-110 1326h414l209 -265h-310z" />
    <glyph glyph-name="iacute" unicode="&#xed;" horiz-adv-x="626" 
d="M83 973h460v-973h-460v973zM106 1061l209 265h414l-313 -265h-310z" />
    <glyph glyph-name="icircumflex" unicode="&#xee;" horiz-adv-x="626" 
d="M83 973h460v-973h-460v973zM32 1178l281 237l281 -237l-170 -145l-111 122l-111 -122z" />
    <glyph glyph-name="idieresis" unicode="&#xef;" horiz-adv-x="626" 
d="M83 973h460v-973h-460v973zM39 1090q-37 37 -37 98q0 63 37 100t99 37q61 0 98 -37q38 -38 38 -100q0 -60 -38 -98t-98 -38q-61 0 -99 38zM389 1090q-37 37 -37 98q0 63 37 100t99 37q61 0 98 -37q38 -38 38 -100q0 -60 -38 -98t-98 -38q-61 0 -99 38z" />
    <glyph glyph-name="eth" unicode="&#xf0;" horiz-adv-x="1133" 
d="M670 1188q203 -121 312 -305t109 -423q0 -234 -132 -357q-131 -122 -390 -122q-261 0 -391 112t-130 316q0 201 118 306q117 104 350 104q43 0 91 -9q-55 86 -149 145l-108 -117l-171 152l56 62q-38 13 -97 29l103 267q108 -25 212 -59l101 110l171 -152zM667 417
q0 167 -108 167t-108 -167q0 -171 108 -171t108 171z" />
    <glyph glyph-name="ntilde" unicode="&#xf1;" horiz-adv-x="1202" 
d="M1047 885q81 -97 81 -300v-585h-442v585q0 51 -19 74q-19 24 -60 24t-61 -27q-19 -26 -19 -85l-2 2l2 -573h-442l-2 973h442v-83q90 93 262 93q179 0 260 -98zM327 1141q71 177 205 177q34 0 62 -10q23 -8 55 -29q8 -4 21.5 -11.5t18.5 -10.5q14 -7 36 -7q51 0 90 66
l136 -87q-72 -178 -205 -178q-37 0 -61 9q-20 7 -54 28q-25 16 -39 22q-19 8 -40 8q-59 0 -89 -64z" />
    <glyph glyph-name="ograve" unicode="&#xf2;" horiz-adv-x="1131" 
d="M42 485q0 504 524 504q523 0 523 -504q0 -501 -523 -501q-524 0 -524 501zM641 315q24 53 24 171q0 120 -24 172q-24 53 -75 53t-75 -53q-24 -52 -24 -172q0 -118 24 -171t75 -53t75 53zM143 1337h414l209 -265h-310z" />
    <glyph glyph-name="oacute" unicode="&#xf3;" horiz-adv-x="1131" 
d="M42 485q0 504 524 504q523 0 523 -504q0 -501 -523 -501q-524 0 -524 501zM641 315q24 53 24 171q0 120 -24 172q-24 53 -75 53t-75 -53q-24 -52 -24 -172q0 -118 24 -171t75 -53t75 53zM359 1072l209 265h414l-313 -265h-310z" />
    <glyph glyph-name="ocircumflex" unicode="&#xf4;" horiz-adv-x="1131" 
d="M42 485q0 504 524 504q523 0 523 -504q0 -501 -523 -501q-524 0 -524 501zM641 315q24 53 24 171q0 120 -24 172q-24 53 -75 53t-75 -53q-24 -52 -24 -172q0 -118 24 -171t75 -53t75 53zM285 1188l281 237l281 -237l-170 -145l-111 122l-111 -122z" />
    <glyph glyph-name="otilde" unicode="&#xf5;" horiz-adv-x="1131" 
d="M42 485q0 504 524 504q523 0 523 -504q0 -501 -523 -501q-524 0 -524 501zM641 315q24 53 24 171q0 120 -24 172q-24 53 -75 53t-75 -53q-24 -52 -24 -172q0 -118 24 -171t75 -53t75 53zM260 1142q70 177 205 177q36 0 62 -9q19 -7 55 -30q34 -18 40 -21q14 -7 36 -7
q51 0 90 66l136 -87q-72 -179 -205 -179q-34 0 -61 10q-24 9 -54 27q-30 19 -39 23q-19 8 -40 8q-59 0 -89 -64z" />
    <glyph glyph-name="odieresis" unicode="&#xf6;" horiz-adv-x="1131" 
d="M42 485q0 504 524 504q523 0 523 -504q0 -501 -523 -501q-524 0 -524 501zM641 315q24 53 24 171q0 120 -24 172q-24 53 -75 53t-75 -53q-24 -52 -24 -172q0 -118 24 -171t75 -53t75 53zM292 1101q-37 37 -37 98q0 62 37 99t99 37q61 0 98 -37q38 -38 38 -99
q0 -60 -38 -98t-98 -38q-61 0 -99 38zM642 1101q-37 37 -37 98q0 62 37 99t99 37q61 0 98 -37q38 -38 38 -99q0 -60 -38 -98t-98 -38q-61 0 -99 38z" />
    <glyph glyph-name="divide" unicode="&#xf7;" horiz-adv-x="1024" 
d="M348 746v315h328v-315h-328zM46 387v287h932v-287h-932zM348 0v315h328v-315h-328z" />
    <glyph glyph-name="oslash" unicode="&#xf8;" horiz-adv-x="1131" 
d="M948 874q141 -126 141 -389q0 -501 -523 -501q-163 0 -274 48l-50 -64l-111 69l49 66q-138 126 -138 382q0 504 524 504q159 0 269 -46l56 72l114 -69zM467 469l163 210q-23 32 -64 32q-51 0 -75 -53q-24 -52 -24 -172v-17zM641 315q24 53 24 171v23l-166 -210
q25 -37 67 -37q51 0 75 53z" />
    <glyph glyph-name="ugrave" unicode="&#xf9;" horiz-adv-x="1202" 
d="M677 973h442v-973h-442v87q-89 -99 -256 -99q-181 0 -264 96q-83 97 -83 294v595h442v-575q0 -58 18 -83t62 -25q42 0 62 27q19 26 19 86v570zM173 1326h414l209 -265h-310z" />
    <glyph glyph-name="uacute" unicode="&#xfa;" horiz-adv-x="1202" 
d="M677 973h442v-973h-442v87q-89 -99 -256 -99q-181 0 -264 96q-83 97 -83 294v595h442v-575q0 -58 18 -83t62 -25q42 0 62 27q19 26 19 86v570zM389 1061l209 265h414l-313 -265h-310z" />
    <glyph glyph-name="ucircumflex" unicode="&#xfb;" horiz-adv-x="1202" 
d="M677 973h442v-973h-442v87q-89 -99 -256 -99q-181 0 -264 96q-83 97 -83 294v595h442v-575q0 -58 18 -83t62 -25q42 0 62 27q19 26 19 86v570zM315 1178l281 237l281 -237l-170 -145l-111 122l-111 -122z" />
    <glyph glyph-name="udieresis" unicode="&#xfc;" horiz-adv-x="1202" 
d="M677 973h442v-973h-442v87q-89 -99 -256 -99q-181 0 -264 96q-83 97 -83 294v595h442v-575q0 -58 18 -83t62 -25q42 0 62 27q19 26 19 86v570zM322 1090q-37 37 -37 98q0 63 37 100t99 37q61 0 98 -37q38 -38 38 -100q0 -60 -38 -98t-98 -38q-61 0 -99 38zM672 1090
q-37 37 -37 98q0 63 37 100t99 37q61 0 98 -37q38 -38 38 -100q0 -60 -38 -98t-98 -38q-61 0 -99 38z" />
    <glyph glyph-name="yacute" unicode="&#xfd;" horiz-adv-x="1114" 
d="M561 559l122 414h442l-520 -1327h-412l154 384l-358 943h464zM302 1061l209 265h414l-313 -265h-310z" />
    <glyph glyph-name="thorn" unicode="&#xfe;" horiz-adv-x="1193" 
d="M1051 857q100 -122 100 -371q0 -248 -100 -370q-101 -123 -306 -123q-63 0 -122 17q-57 16 -98 50v-414h-442v1680h442v-412q40 34 98 50q57 16 122 16q205 0 306 -123zM685 315q24 53 24 171q0 120 -24 172q-24 53 -75 53t-75 -53q-24 -52 -24 -172q0 -118 24 -171
t75 -53t75 53z" />
    <glyph glyph-name="ydieresis" unicode="&#xff;" horiz-adv-x="1114" 
d="M561 559l122 414h442l-520 -1327h-412l154 384l-358 943h464zM235 1090q-37 37 -37 98q0 63 37 100t99 37q61 0 98 -37q38 -38 38 -100q0 -60 -38 -98t-98 -38q-61 0 -99 38zM585 1090q-37 37 -37 98q0 63 37 100t99 37t99 -37q38 -38 38 -100q0 -60 -38 -98t-99 -38
t-99 38z" />
    <glyph glyph-name="Amacron" unicode="&#x100;" horiz-adv-x="1236" 
d="M1265 0h-487l-37 196h-244l-39 -196h-486l375 1238h543zM619 829l-67 -350h134zM909 1344h-580v198h580v-198z" />
    <glyph glyph-name="amacron" unicode="&#x101;" horiz-adv-x="1080" 
d="M811 949q101 -41 148 -131t47 -247v-571h-422v74q-44 -44 -110 -65t-133 -21q-142 0 -223 80q-83 81 -83 215q0 334 536 366q-12 31 -41 45q-27 13 -83 13q-69 0 -144 -14q-71 -13 -172 -42l-53 262q100 27 235 52q131 24 233 24q166 0 265 -40zM561 292q23 26 23 67v76
q-81 -13 -115 -40q-34 -26 -34 -64q0 -28 18 -46t48 -18q38 0 60 25zM837 1095h-581v198h581v-198z" />
    <glyph glyph-name="Abreve" unicode="&#x102;" horiz-adv-x="1236" 
d="M1265 0h-487l-37 196h-244l-39 -196h-486l375 1238h543zM619 829l-67 -350h134zM921 1593q0 -298 -302 -298t-302 298h237q0 -93 65 -93t65 93h237z" />
    <glyph glyph-name="abreve" unicode="&#x103;" horiz-adv-x="1080" 
d="M811 949q101 -41 148 -131t47 -247v-571h-422v74q-44 -44 -110 -65t-133 -21q-142 0 -223 80q-83 81 -83 215q0 334 536 366q-12 31 -41 45q-27 13 -83 13q-69 0 -144 -14q-71 -13 -172 -42l-53 262q100 27 235 52q131 24 233 24q166 0 265 -40zM561 292q23 26 23 67v76
q-81 -13 -115 -40q-34 -26 -34 -64q0 -28 18 -46t48 -18q38 0 60 25zM849 1344q0 -299 -303 -299q-302 0 -302 299h237q0 -94 65 -94q66 0 66 94h237z" />
    <glyph glyph-name="Aogonek" unicode="&#x104;" horiz-adv-x="1236" 
d="M1349 -348q-40 -34 -100 -61q-58 -26 -122 -26q-96 0 -162 57q-67 58 -67 148q0 124 138 230h-258l-37 196h-244l-39 -196h-486l375 1238h543l375 -1238q-145 -108 -145 -179q0 -25 15 -39q16 -14 39 -14q32 0 73 25zM619 829l-67 -350h134z" />
    <glyph glyph-name="aogonek" unicode="&#x105;" horiz-adv-x="1080" 
d="M1091 -348q-40 -34 -100 -61q-58 -26 -123 -26q-95 0 -161 57q-67 58 -67 148q0 124 138 230h-194v74q-44 -44 -110 -65t-133 -21q-142 0 -223 80q-83 81 -83 215q0 334 536 366q-12 31 -41 45q-27 13 -83 13q-69 0 -144 -14q-71 -13 -172 -42l-53 262q100 27 235 52
q131 24 233 24q166 0 265 -40q101 -41 148 -131t47 -247v-571q-145 -108 -145 -179q0 -25 15 -39q16 -14 40 -14q32 0 73 25zM561 292q23 26 23 67v76q-81 -13 -115 -40q-34 -26 -34 -64q0 -28 18 -46t48 -18q38 0 60 25z" />
    <glyph glyph-name="Cacute" unicode="&#x106;" horiz-adv-x="1234" 
d="M195 104q-142 129 -142 409v216q0 278 142 405t426 127q285 0 430 -131q144 -130 136 -419h-460q0 95 -10 153q-9 52 -32 72q-22 19 -64 19q-60 0 -84 -38q-24 -37 -24 -135v-322q0 -96 24 -137q24 -40 84 -40q42 0 63 20q24 23 33 74q10 58 10 154h460q0 -291 -142 -424
q-141 -132 -424 -132t-426 129zM414 1326l209 266h413l-313 -266h-309z" />
    <glyph glyph-name="cacute" unicode="&#x107;" horiz-adv-x="1114" 
d="M42 485q0 498 517 498q485 0 513 -424h-434q-7 72 -16 97q-12 32 -27 41t-36 9q-30 0 -48 -18q-17 -17 -26 -65t-9 -138q0 -89 9 -136q9 -48 26 -63q19 -17 48 -17q23 0 37 9q14 10 26 40q9 24 16 98h434q-29 -427 -513 -427q-517 0 -517 496zM352 1072l209 265h413
l-313 -265h-309z" />
    <glyph glyph-name="Ccircumflex" unicode="&#x108;" horiz-adv-x="1234" 
d="M195 104q-142 129 -142 409v216q0 278 142 405t426 127q285 0 430 -131q144 -130 136 -419h-460q0 95 -10 153q-9 52 -32 72q-22 19 -64 19q-60 0 -84 -38q-24 -37 -24 -135v-322q0 -96 24 -137q24 -40 84 -40q42 0 63 20q24 23 33 74q10 58 10 154h460q0 -291 -142 -424
q-141 -132 -424 -132t-426 129zM340 1443l281 237l281 -237l-170 -145l-111 122l-112 -122z" />
    <glyph glyph-name="ccircumflex" unicode="&#x109;" horiz-adv-x="1114" 
d="M42 485q0 498 517 498q485 0 513 -424h-434q-7 72 -16 97q-12 32 -27 41t-36 9q-30 0 -48 -18q-17 -17 -26 -65t-9 -138q0 -89 9 -136q9 -48 26 -63q19 -17 48 -17q23 0 37 9q14 10 26 40q9 24 16 98h434q-29 -427 -513 -427q-517 0 -517 496zM278 1188l281 237l281 -237
l-170 -145l-111 122l-112 -122z" />
    <glyph glyph-name="Cdotaccent" unicode="&#x10a;" horiz-adv-x="1234" 
d="M195 104q-142 129 -142 409v216q0 278 142 405t426 127q285 0 430 -131q144 -130 136 -419h-460q0 95 -10 153q-9 52 -32 72q-22 19 -64 19q-60 0 -84 -38q-24 -37 -24 -135v-322q0 -96 24 -137q24 -40 84 -40q42 0 63 20q24 23 33 74q10 58 10 154h460q0 -291 -142 -424
q-141 -132 -424 -132t-426 129zM524 1357q-39 39 -39 97q0 57 39 96q40 40 97 40q56 0 96 -40t40 -96q0 -57 -40 -97q-39 -39 -96 -39q-58 0 -97 39z" />
    <glyph glyph-name="cdotaccent" unicode="&#x10b;" horiz-adv-x="1114" 
d="M42 485q0 498 517 498q485 0 513 -424h-434q-7 72 -16 97q-12 32 -27 41t-36 9q-30 0 -48 -18q-17 -17 -26 -65t-9 -138q0 -89 9 -136q9 -48 26 -63q19 -17 48 -17q23 0 37 9q14 10 26 40q9 24 16 98h434q-29 -427 -513 -427q-517 0 -517 496zM462 1103q-39 39 -39 96
t39 96q40 40 97 40q56 0 96 -40t40 -96t-40 -96t-96 -40q-57 0 -97 40z" />
    <glyph glyph-name="Ccaron" unicode="&#x10c;" horiz-adv-x="1234" 
d="M195 104q-142 129 -142 409v216q0 278 142 405t426 127q285 0 430 -131q144 -130 136 -419h-460q0 95 -10 153q-9 52 -32 72q-22 19 -64 19q-60 0 -84 -38q-24 -37 -24 -135v-322q0 -96 24 -137q24 -40 84 -40q42 0 63 20q24 23 33 74q10 58 10 154h460q0 -291 -142 -424
q-141 -132 -424 -132t-426 129zM918 1540l-297 -242l-297 242l178 153l119 -130l118 130z" />
    <glyph glyph-name="ccaron" unicode="&#x10d;" horiz-adv-x="1114" 
d="M42 485q0 498 517 498q485 0 513 -424h-434q-7 72 -16 97q-12 32 -27 41t-36 9q-30 0 -48 -18q-17 -17 -26 -65t-9 -138q0 -89 9 -136q9 -48 26 -63q19 -17 48 -17q23 0 37 9q14 10 26 40q9 24 16 98h434q-29 -427 -513 -427q-517 0 -517 496zM856 1286l-297 -243
l-297 243l178 152l119 -129l118 129z" />
    <glyph glyph-name="Dcaron" unicode="&#x10e;" horiz-adv-x="1259" 
d="M580 1238q251 0 382 -52q133 -53 190 -184q58 -134 58 -383q0 -251 -58 -385q-57 -132 -190 -183q-132 -51 -382 -51h-495v1238h495zM554 315q80 0 120 17q39 16 57 81q19 68 19 206t-19 206q-18 65 -57 81q-40 17 -120 17h-9v-608h9zM886 1540l-297 -242l-297 242
l178 153l119 -130l118 130z" />
    <glyph glyph-name="dcaron" unicode="&#x10f;" horiz-adv-x="1581" 
d="M669 1326h442v-1326h-442v60q-85 -69 -237 -69q-390 0 -390 495q0 496 390 496q150 0 237 -66v410zM1173 760l49 566h308v-249l-101 -317h-256zM659 315q24 53 24 171q0 120 -24 172q-24 53 -75 53q-52 0 -76 -53q-23 -50 -23 -172q0 -121 23 -171q24 -53 76 -53
q51 0 75 53z" />
    <glyph glyph-name="Dcroat" unicode="&#x110;" horiz-adv-x="1259" 
d="M580 1238q251 0 382 -52q133 -53 190 -184q58 -134 58 -383q0 -251 -58 -385q-57 -132 -190 -183q-132 -51 -382 -51h-495v495h-83v265h83v478h495zM554 315q80 0 120 17q39 16 57 81q19 68 19 206t-19 206q-18 65 -57 81q-40 17 -120 17h-9v-163h118v-265h-118v-180h9z
" />
    <glyph glyph-name="dcroat" unicode="&#x111;" horiz-adv-x="1193" 
d="M1210 1273v-265h-99v-1008h-442v60q-85 -69 -237 -69q-390 0 -390 495q0 496 390 496q150 0 237 -66v92h-121v265h121v53h442v-53h99zM659 315q24 53 24 171q0 120 -24 172q-24 53 -75 53q-52 0 -76 -53q-23 -50 -23 -172q0 -121 23 -171q24 -53 76 -53q51 0 75 53z" />
    <glyph glyph-name="Emacron" unicode="&#x112;" horiz-adv-x="1101" 
d="M545 481v-163h511v-318h-971v1238h960v-318h-500v-138h429v-301h-429zM861 1342h-580v198h580v-198z" />
    <glyph glyph-name="emacron" unicode="&#x113;" horiz-adv-x="1107" 
d="M1061 472q0 -26 -3 -83h-586q8 -75 28 -103q22 -30 52 -30q58 0 69 80h431q-29 -165 -152 -255q-125 -92 -348 -92q-249 0 -380 125q-130 124 -130 371t130 373q129 125 380 125q509 0 509 -511zM501 691q-20 -28 -29 -102h159q-3 73 -24 101t-55 28q-32 0 -51 -27z
M842 1072h-580v198h580v-198z" />
    <glyph glyph-name="Ebreve" unicode="&#x114;" horiz-adv-x="1101" 
d="M545 481v-163h511v-318h-971v1238h960v-318h-500v-138h429v-301h-429zM874 1592q0 -299 -303 -299q-302 0 -302 299h237q0 -94 65 -94q66 0 66 94h237z" />
    <glyph glyph-name="ebreve" unicode="&#x115;" horiz-adv-x="1107" 
d="M1061 472q0 -26 -3 -83h-586q8 -75 28 -103q22 -30 52 -30q58 0 69 80h431q-29 -165 -152 -255q-125 -92 -348 -92q-249 0 -380 125q-130 124 -130 371t130 373q129 125 380 125q509 0 509 -511zM501 691q-20 -28 -29 -102h159q-3 73 -24 101t-55 28q-32 0 -51 -27z
M854 1321q0 -299 -302 -299q-303 0 -303 299h237q0 -94 66 -94q65 0 65 94h237z" />
    <glyph glyph-name="Edotaccent" unicode="&#x116;" horiz-adv-x="1101" 
d="M545 481v-163h511v-318h-971v1238h960v-318h-500v-138h429v-301h-429zM475 1356q-40 40 -40 96t40 96t96 40q57 0 97 -40q39 -39 39 -96t-39 -96q-40 -40 -97 -40q-56 0 -96 40z" />
    <glyph glyph-name="edotaccent" unicode="&#x117;" horiz-adv-x="1107" 
d="M1061 472q0 -26 -3 -83h-586q8 -75 28 -103q22 -30 52 -30q58 0 69 80h431q-29 -165 -152 -255q-125 -92 -348 -92q-249 0 -380 125q-130 124 -130 371t130 373q129 125 380 125q509 0 509 -511zM501 691q-20 -28 -29 -102h159q-3 73 -24 101t-55 28q-32 0 -51 -27z
M455 1085q-39 39 -39 96q0 58 39 97q40 40 97 40q56 0 96 -40t40 -97q0 -56 -40 -96t-96 -40q-57 0 -97 40z" />
    <glyph glyph-name="Eogonek" unicode="&#x118;" horiz-adv-x="1101" 
d="M1141 -348q-40 -34 -100 -61q-58 -26 -123 -26q-96 0 -162 57t-66 148q0 124 138 230h-743v1238h960v-318h-500v-138h429v-301h-429v-163h511v-318q-145 -108 -145 -179q0 -25 15 -39q16 -14 40 -14q31 0 72 25z" />
    <glyph glyph-name="eogonek" unicode="&#x119;" horiz-adv-x="1107" 
d="M1061 472q0 -26 -3 -83h-586q8 -75 28 -103q22 -30 52 -30q58 0 69 80h431q-22 -139 -118 -229t-267 -111q-140 -107 -140 -175q0 -25 15 -39q16 -14 40 -14q31 0 72 25l103 -141q-40 -34 -100 -61q-58 -26 -123 -26q-96 0 -162 57t-66 148q0 125 134 226
q-196 27 -297 150q-101 124 -101 339q0 247 130 373q129 125 380 125q509 0 509 -511zM501 691q-20 -28 -29 -102h159q-3 73 -24 101t-55 28q-32 0 -51 -27z" />
    <glyph glyph-name="Ecaron" unicode="&#x11a;" horiz-adv-x="1101" 
d="M545 481v-163h511v-318h-971v1238h960v-318h-500v-138h429v-301h-429zM868 1539l-297 -243l-297 243l179 152l118 -129l119 129z" />
    <glyph glyph-name="ecaron" unicode="&#x11b;" horiz-adv-x="1107" 
d="M1061 472q0 -26 -3 -83h-586q8 -75 28 -103q22 -30 52 -30q58 0 69 80h431q-29 -165 -152 -255q-125 -92 -348 -92q-249 0 -380 125q-130 124 -130 371t130 373q129 125 380 125q509 0 509 -511zM501 691q-20 -28 -29 -102h159q-3 73 -24 101t-55 28q-32 0 -51 -27z
M849 1268l-297 -242l-297 242l178 152l119 -129l118 129z" />
    <glyph glyph-name="Gcircumflex" unicode="&#x11c;" horiz-adv-x="1248" 
d="M617 723h579v-201q0 -190 -58 -312q-57 -120 -179 -177q-124 -58 -322 -58q-300 0 -442 128t-142 410v216q0 281 142 407q144 127 442 127q269 0 406 -108t149 -340h-444q-3 73 -30 106q-28 34 -83 34q-65 0 -94 -41q-28 -40 -28 -132v-322q0 -94 28 -135q29 -42 96 -42
q65 0 93 35q29 36 30 115h-143v290zM355 1443l282 237l281 -237l-170 -145l-111 122l-112 -122z" />
    <glyph glyph-name="gcircumflex" unicode="&#x11d;" horiz-adv-x="1192" 
d="M667 973h442v-851q0 -188 -60 -294q-61 -109 -176 -152q-117 -44 -300 -44q-187 0 -432 60l69 274q138 -39 257 -39q74 0 121 15q41 13 59 48q19 36 20 102q-78 -74 -237 -74q-194 0 -291 126q-98 127 -98 355q0 227 99 355t290 128q153 0 237 -73v64zM658 335
q23 49 23 164q0 114 -23 163t-76 49t-76 -49t-23 -163q0 -115 23 -164q22 -48 76 -48t76 48zM361 1178l281 237l281 -237l-170 -145l-111 122l-111 -122z" />
    <glyph glyph-name="Gbreve" unicode="&#x11e;" horiz-adv-x="1248" 
d="M617 723h579v-201q0 -190 -58 -312q-57 -120 -179 -177q-124 -58 -322 -58q-300 0 -442 128t-142 410v216q0 281 142 407q144 127 442 127q269 0 406 -108t149 -340h-444q-3 73 -30 106q-28 34 -83 34q-65 0 -94 -41q-28 -40 -28 -132v-322q0 -94 28 -135q29 -42 96 -42
q65 0 93 35q29 36 30 115h-143v290zM939 1593q0 -298 -302 -298q-303 0 -303 298h237q0 -93 66 -93q65 0 65 93h237z" />
    <glyph glyph-name="gbreve" unicode="&#x11f;" horiz-adv-x="1192" 
d="M667 973h442v-851q0 -188 -60 -294q-61 -109 -176 -152q-117 -44 -300 -44q-187 0 -432 60l69 274q138 -39 257 -39q74 0 121 15q41 13 59 48q19 36 20 102q-78 -74 -237 -74q-194 0 -291 126q-98 127 -98 355q0 227 99 355t290 128q153 0 237 -73v64zM658 335
q23 49 23 164q0 114 -23 163t-76 49t-76 -49t-23 -163q0 -115 23 -164q22 -48 76 -48t76 48zM944 1328q0 -299 -302 -299t-302 299h237q0 -94 65 -94t65 94h237z" />
    <glyph glyph-name="Gdotaccent" unicode="&#x120;" horiz-adv-x="1248" 
d="M617 723h579v-201q0 -190 -58 -312q-57 -120 -179 -177q-124 -58 -322 -58q-300 0 -442 128t-142 410v216q0 281 142 407q144 127 442 127q269 0 406 -108t149 -340h-444q-3 73 -30 106q-28 34 -83 34q-65 0 -94 -41q-28 -40 -28 -132v-322q0 -94 28 -135q29 -42 96 -42
q65 0 93 35q29 36 30 115h-143v290zM540 1357q-39 39 -39 97q0 57 39 96q40 40 97 40q56 0 96 -40t40 -96q0 -57 -40 -97q-39 -39 -96 -39q-58 0 -97 39z" />
    <glyph glyph-name="gdotaccent" unicode="&#x121;" horiz-adv-x="1192" 
d="M667 973h442v-851q0 -188 -60 -294q-61 -109 -176 -152q-117 -44 -300 -44q-187 0 -432 60l69 274q138 -39 257 -39q74 0 121 15q41 13 59 48q19 36 20 102q-78 -74 -237 -74q-194 0 -291 126q-98 127 -98 355q0 227 99 355t290 128q153 0 237 -73v64zM658 335
q23 49 23 164q0 114 -23 163t-76 49t-76 -49t-23 -163q0 -115 23 -164q22 -48 76 -48t76 48zM546 1092q-40 40 -40 96q0 57 40 97t96 40t96 -40t40 -97q0 -56 -40 -96t-96 -40t-96 40z" />
    <glyph glyph-name="uni0122" unicode="&#x122;" horiz-adv-x="1248" 
d="M617 723h579v-201q0 -190 -58 -312q-57 -120 -179 -177q-124 -58 -322 -58q-300 0 -442 128t-142 410v216q0 281 142 407q144 127 442 127q269 0 406 -108t149 -340h-444q-3 73 -30 106q-28 34 -83 34q-65 0 -94 -41q-28 -40 -28 -132v-322q0 -94 28 -135q29 -42 96 -42
q65 0 93 35q29 36 30 115h-143v290zM462 -407l54 333h260l-90 -333h-224z" />
    <glyph glyph-name="uni0123" unicode="&#x123;" horiz-adv-x="1192" 
d="M667 973h442v-851q0 -188 -60 -294q-61 -109 -176 -152q-117 -44 -300 -44q-187 0 -432 60l69 274q138 -39 257 -39q74 0 121 15q41 13 59 48q19 36 20 102q-78 -74 -237 -74q-194 0 -291 126q-98 127 -98 355q0 227 99 355t290 128q153 0 237 -73v64zM658 335
q23 49 23 164q0 114 -23 163t-76 49t-76 -49t-23 -163q0 -115 23 -164q22 -48 76 -48t76 48zM856 1326l-104 -265h-230l132 265h202z" />
    <glyph glyph-name="Hcircumflex" unicode="&#x124;" horiz-adv-x="1319" 
d="M775 798v440h459v-1238h-459v479h-230v-479h-460v1238h460v-440h230zM377 1443l281 237l281 -237l-170 -145l-111 122l-112 -122z" />
    <glyph glyph-name="hcircumflex" unicode="&#x125;" horiz-adv-x="1202" 
d="M1047 883q81 -98 81 -299v-584h-442v584q0 50 -19 73q-19 24 -60 24t-61 -27q-19 -26 -19 -85v-569h-442l-2 1326h442v-436q97 92 262 92q178 0 260 -99zM35 1532l282 237l281 -237l-170 -145l-111 122l-112 -122z" />
    <glyph glyph-name="Hbar" unicode="&#x126;" horiz-adv-x="1319" 
d="M1234 1134h98v-230h-98v-904h-459v479h-230v-479h-460v904h-97v230h97v104h460v-104h230v104h459v-104zM545 798h230v106h-230v-106z" />
    <glyph glyph-name="hbar" unicode="&#x127;" horiz-adv-x="1202" 
d="M1047 883q81 -98 81 -299v-584h-442v584q0 50 -19 73q-19 24 -60 24t-61 -27q-19 -26 -19 -85v-569h-442l-2 1029h-83v186h83v111h442v-111h136v-186h-136v-139q97 92 262 92q178 0 260 -99z" />
    <glyph glyph-name="Itilde" unicode="&#x128;" horiz-adv-x="629" 
d="M545 0h-460v1238h460v-1238zM9 1397q71 177 205 177q34 0 62 -10q23 -8 55 -29q34 -18 40 -21q14 -7 36 -7q52 0 90 65l136 -86q-72 -179 -205 -179q-34 0 -61 10q-24 9 -54 27q-25 16 -39 22q-19 8 -41 8q-58 0 -88 -63z" />
    <glyph glyph-name="itilde" unicode="&#x129;" horiz-adv-x="626" 
d="M83 973h460v-973h-460v973zM7 1132q71 177 205 177q34 0 62 -10q23 -8 55 -29q34 -18 40 -21q14 -7 36 -7q52 0 90 65l136 -87q-72 -178 -205 -178q-37 0 -61 9q-20 7 -54 28q-25 16 -39 22q-19 8 -40 8q-59 0 -89 -64z" />
    <glyph glyph-name="Imacron" unicode="&#x12a;" horiz-adv-x="629" 
d="M545 0h-460v1238h460v-1238zM605 1344h-580v198h580v-198z" />
    <glyph glyph-name="imacron" unicode="&#x12b;" horiz-adv-x="626" 
d="M83 973h460v-973h-460v973zM603 1079h-580v198h580v-198z" />
    <glyph glyph-name="Ibreve" unicode="&#x12c;" horiz-adv-x="629" 
d="M545 0h-460v1238h460v-1238zM617 1593q0 -298 -302 -298q-303 0 -303 298h237q0 -93 66 -93q65 0 65 93h237z" />
    <glyph glyph-name="ibreve" unicode="&#x12d;" horiz-adv-x="626" 
d="M83 973h460v-973h-460v973zM615 1328q0 -299 -302 -299t-302 299h237q0 -94 65 -94t65 94h237z" />
    <glyph glyph-name="Iogonek" unicode="&#x12e;" horiz-adv-x="629" 
d="M630 -348q-40 -34 -100 -61q-58 -26 -123 -26q-96 0 -162 57t-66 148q0 124 138 230h-232v1238h460v-1238q-145 -108 -145 -179q0 -25 15 -39q16 -14 40 -14q31 0 72 25z" />
    <glyph glyph-name="iogonek" unicode="&#x12f;" horiz-adv-x="626" 
d="M217 1092q-40 40 -40 96q0 57 40 97t96 40t96 -40t40 -97q0 -56 -40 -96t-96 -40t-96 40zM628 -348q-40 -34 -100 -61q-58 -26 -123 -26q-96 0 -162 57t-66 148q0 124 138 230h-232v973h460v-973q-145 -108 -145 -179q0 -25 15 -39q16 -14 40 -14q31 0 72 25z" />
    <glyph glyph-name="Idotaccent" unicode="&#x130;" horiz-adv-x="629" 
d="M545 0h-460v1238h460v-1238zM218 1357q-39 39 -39 97q0 57 39 96q40 40 97 40q56 0 96 -40t40 -96q0 -57 -40 -97q-39 -39 -96 -39q-58 0 -97 39z" />
    <glyph glyph-name="dotlessi" unicode="&#x131;" horiz-adv-x="626" 
d="M83 973h460v-973h-460v973z" />
    <glyph glyph-name="IJ" unicode="&#x132;" horiz-adv-x="1372" 
d="M545 0h-460v1238h460v-1238zM658 0v318h71q56 0 79 29t23 93v798h460v-768q0 -192 -39 -291t-139 -139q-99 -40 -296 -40h-159z" />
    <glyph glyph-name="ij" unicode="&#x133;" horiz-adv-x="1243" 
d="M525 1397v-311h-442v311h442zM83 973h442v-973h-442v973zM1160 1433v-347h-442v347h442zM106 -324l46 274q203 -35 389 -35q71 0 108 18q36 17 53 60q16 41 16 124v856h442v-900q0 -159 -56 -257q-55 -96 -174 -143q-117 -46 -311 -46q-256 0 -513 49z" />
    <glyph glyph-name="Jcircumflex" unicode="&#x134;" horiz-adv-x="742" 
d="M28 0v318h71q57 0 80 29t23 93v798h459v-768q0 -195 -38 -291q-39 -99 -139 -139q-99 -40 -297 -40h-159zM157 1443l282 237l281 -237l-170 -145l-111 122l-112 -122z" />
    <glyph glyph-name="jcircumflex" unicode="&#x135;" horiz-adv-x="620" 
d="M-12 -354v283h10q59 0 78 22q20 23 20 86v936h442v-952q0 -147 -36 -226q-36 -80 -128 -114q-94 -35 -273 -35h-113zM37 1178l281 237l282 -237l-170 -145l-112 122l-111 -122z" />
    <glyph glyph-name="uni0136" unicode="&#x136;" horiz-adv-x="1259" 
d="M868 626l430 -626h-538l-215 377v-377h-460v1238h460v-345l184 345h537zM465 -407l55 333h260l-90 -333h-225z" />
    <glyph glyph-name="uni0137" unicode="&#x137;" horiz-adv-x="1151" 
d="M875 516l289 -521l-469 5l-170 341v-341h-442v1326h442v-633l136 280l469 -6zM440 -407l55 333h260l-90 -333h-225z" />
    <glyph glyph-name="Lacute" unicode="&#x139;" horiz-adv-x="1073" 
d="M1049 0h-964v1238h460v-920h504v-318zM122 1326l209 266h414l-313 -266h-310z" />
    <glyph glyph-name="lacute" unicode="&#x13a;" horiz-adv-x="687" 
d="M463 0q-143 0 -225 27t-120 97t-38 198v1004h442v-946q0 -53 19 -71q18 -17 67 -17h55v-292h-200zM118 1415l209 265h414l-313 -265h-310z" />
    <glyph glyph-name="uni013B" unicode="&#x13b;" horiz-adv-x="1073" 
d="M1049 0h-964v1238h460v-920h504v-318zM400 -407l55 333h260l-91 -333h-224z" />
    <glyph glyph-name="uni013C" unicode="&#x13c;" horiz-adv-x="687" 
d="M463 0q-143 0 -225 27t-120 97t-38 198v1004h442v-946q0 -53 19 -71q18 -17 67 -17h55v-292h-200zM226 -407l55 333h260l-90 -333h-225z" />
    <glyph glyph-name="Lcaron" unicode="&#x13d;" horiz-adv-x="1073" 
d="M1049 0h-964v1238h460v-920h504v-318zM692 672l49 566h308v-249l-101 -317h-256z" />
    <glyph glyph-name="lcaron" unicode="&#x13e;" horiz-adv-x="958" 
d="M463 0q-143 0 -225 27t-120 97t-38 198v1004h442v-946q0 -53 19 -71q18 -17 67 -17h55v-292h-200zM607 760l42 566h258v-249l-83 -317h-217z" />
    <glyph glyph-name="Ldot" unicode="&#x13f;" horiz-adv-x="1073" 
d="M1049 0h-964v1238h460v-920h504v-318zM686 559v297h310v-297h-310z" />
    <glyph glyph-name="ldot" unicode="&#x140;" horiz-adv-x="854" 
d="M463 0q-143 0 -225 27t-120 97t-38 198v1004h442v-946q0 -53 19 -71q18 -17 67 -17h55v-292h-200zM601 456v255h221v-255h-221z" />
    <glyph glyph-name="Lslash" unicode="&#x141;" horiz-adv-x="1073" 
d="M545 534v-216h504v-318h-964v223l-90 -60v362l90 60v653h460v-341l145 97v-363z" />
    <glyph glyph-name="lslash" unicode="&#x142;" horiz-adv-x="687" 
d="M663 598l-141 -96v-122q0 -53 19 -71q18 -17 67 -17h55v-292h-200q-180 0 -267 45t-108 165l-120 -81v363l112 74v760h442v-461l141 95v-362z" />
    <glyph glyph-name="Nacute" unicode="&#x143;" horiz-adv-x="1335" 
d="M842 654v584h408v-1238h-507l-248 580v-580h-410v1238h507zM499 1326l208 266h414l-313 -266h-309z" />
    <glyph glyph-name="nacute" unicode="&#x144;" horiz-adv-x="1202" 
d="M1047 885q81 -97 81 -300v-585h-442v585q0 51 -19 74q-19 24 -60 24t-61 -27q-19 -26 -19 -85l-2 2l2 -573h-442l-2 973h442v-83q90 93 262 93q179 0 260 -98zM426 1070l209 265h414l-313 -265h-310z" />
    <glyph glyph-name="uni0145" unicode="&#x145;" horiz-adv-x="1335" 
d="M842 654v584h408v-1238h-507l-248 580v-580h-410v1238h507zM493 -407l55 333h260l-90 -333h-225z" />
    <glyph glyph-name="uni0146" unicode="&#x146;" horiz-adv-x="1202" 
d="M1047 885q81 -97 81 -300v-585h-442v585q0 51 -19 74q-19 24 -60 24t-61 -27q-19 -26 -19 -85l-2 2l2 -573h-442l-2 973h442v-83q90 93 262 93q179 0 260 -98zM433 -407l55 333h260l-90 -333h-225z" />
    <glyph glyph-name="Ncaron" unicode="&#x147;" horiz-adv-x="1335" 
d="M842 654v584h408v-1238h-507l-248 580v-580h-410v1238h507zM1003 1540l-297 -242l-297 242l178 153l119 -130l118 130z" />
    <glyph glyph-name="ncaron" unicode="&#x148;" horiz-adv-x="1202" 
d="M1047 885q81 -97 81 -300v-585h-442v585q0 51 -19 74q-19 24 -60 24t-61 -27q-19 -26 -19 -85l-2 2l2 -573h-442l-2 973h442v-83q90 93 262 93q179 0 260 -98zM930 1284l-297 -242l-297 242l179 152l118 -129l119 129z" />
    <glyph glyph-name="napostrophe" unicode="&#x149;" horiz-adv-x="1202" 
d="M426 1502v-200l-95 -253h-248l48 453h295zM1047 885q81 -97 81 -300v-585h-442v585q0 51 -19 74q-19 24 -60 24t-61 -27q-19 -26 -19 -85l-2 2l2 -573h-442l-2 973h442v-83q90 93 262 93q179 0 260 -98z" />
    <glyph glyph-name="Eng" unicode="&#x14a;" horiz-adv-x="1354" 
d="M1250 18h20v-18q0 -136 -36 -211q-37 -76 -129 -109q-96 -34 -272 -34h-87v283h11q55 0 77 17q20 16 20 54h-111l-248 580v-580h-410v1238h507l250 -584v584h408v-1220z" />
    <glyph glyph-name="eng" unicode="&#x14b;" horiz-adv-x="1225" 
d="M1128 57h23v-57q0 -138 -35 -211q-37 -76 -129 -109q-96 -34 -273 -34h-113v283h11q51 0 72 15q20 14 23 56h-21v585q0 51 -19 74q-19 24 -60 24t-61 -27q-19 -26 -19 -85l-2 2l2 -573h-442l-2 973h442v-83q90 93 262 93q179 0 260 -98q81 -97 81 -300v-528z" />
    <glyph glyph-name="Omacron" unicode="&#x14c;" horiz-adv-x="1239" 
d="M195 104q-142 130 -142 409v216q0 278 142 406t426 128q283 0 425 -128q141 -128 141 -406v-216q0 -280 -141 -409t-425 -129q-285 0 -426 129zM701 319q26 37 26 113v374q0 76 -26 113q-25 36 -80 36q-108 0 -108 -149v-374q0 -149 108 -149q55 0 80 36zM911 1344h-580
v198h580v-198z" />
    <glyph glyph-name="omacron" unicode="&#x14d;" horiz-adv-x="1131" 
d="M42 485q0 504 524 504q523 0 523 -504q0 -501 -523 -501q-524 0 -524 501zM641 315q24 53 24 171q0 120 -24 172q-24 53 -75 53t-75 -53q-24 -52 -24 -172q0 -118 24 -171t75 -53t75 53zM856 1089h-580v199h580v-199z" />
    <glyph glyph-name="Obreve" unicode="&#x14e;" horiz-adv-x="1239" 
d="M195 104q-142 130 -142 409v216q0 278 142 406t426 128q283 0 425 -128q141 -128 141 -406v-216q0 -280 -141 -409t-425 -129q-285 0 -426 129zM701 319q26 37 26 113v374q0 76 -26 113q-25 36 -80 36q-108 0 -108 -149v-374q0 -149 108 -149q55 0 80 36zM923 1593
q0 -298 -302 -298q-303 0 -303 298h237q0 -93 66 -93q65 0 65 93h237z" />
    <glyph glyph-name="obreve" unicode="&#x14f;" horiz-adv-x="1131" 
d="M42 485q0 504 524 504q523 0 523 -504q0 -501 -523 -501q-524 0 -524 501zM641 315q24 53 24 171q0 120 -24 172q-24 53 -75 53t-75 -53q-24 -52 -24 -172q0 -118 24 -171t75 -53t75 53zM868 1339q0 -299 -302 -299t-302 299h237q0 -94 65 -94t65 94h237z" />
    <glyph glyph-name="Ohungarumlaut" unicode="&#x150;" horiz-adv-x="1239" 
d="M195 104q-142 130 -142 409v216q0 278 142 406t426 128q283 0 425 -128q141 -128 141 -406v-216q0 -280 -141 -409t-425 -129q-285 0 -426 129zM701 319q26 37 26 113v374q0 76 -26 113q-25 36 -80 36q-108 0 -108 -149v-374q0 -149 108 -149q55 0 80 36zM515 1627h247
l-200 -301h-199zM799 1627h248l-218 -301h-199z" />
    <glyph glyph-name="ohungarumlaut" unicode="&#x151;" horiz-adv-x="1131" 
d="M42 485q0 504 524 504q523 0 523 -504q0 -501 -523 -501q-524 0 -524 501zM641 315q24 53 24 171q0 120 -24 172q-24 53 -75 53t-75 -53q-24 -52 -24 -172q0 -118 24 -171t75 -53t75 53zM460 1372h247l-199 -300h-200zM745 1372h247l-217 -300h-200z" />
    <glyph glyph-name="OE" unicode="&#x152;" horiz-adv-x="1694" 
d="M1171 318h477v-318h-819v32q-98 -50 -244 -50q-259 0 -396 128q-136 127 -136 403v209q0 279 136 406q137 128 396 128q146 0 244 -50v32h809v-318h-467v-138h396v-301h-396v-163zM702 782q0 90 -22 131q-22 42 -72 42t-72 -42q-23 -43 -23 -131v-322q0 -92 23 -135
q22 -42 72 -42t72 42q22 41 22 135v322z" />
    <glyph glyph-name="oe" unicode="&#x153;" horiz-adv-x="1609" 
d="M1456 834q123 -148 111 -445h-566q7 -76 28 -107t55 -31q36 0 55 19q17 17 26 64h390q-19 -178 -137 -261q-119 -84 -307 -84q-199 0 -292 110q-99 -110 -313 -110q-224 0 -346 126q-121 125 -121 370q0 247 121 372q121 126 346 126q212 0 311 -109q91 109 294 109
q221 0 345 -149zM1029 692q-21 -31 -28 -108h179q-1 75 -25 108q-22 31 -71 31q-34 0 -55 -31zM603 319q20 52 20 166q0 113 -20 167q-19 52 -62 52q-41 0 -59 -52q-19 -55 -19 -167q0 -111 19 -165q18 -51 59 -51q43 0 62 50z" />
    <glyph glyph-name="Racute" unicode="&#x154;" horiz-adv-x="1222" 
d="M1017 424l170 -424h-465l-115 364h-62v-364h-460v1238h670q216 0 326 -110q109 -109 109 -327q0 -273 -173 -377zM545 937v-272h76q63 0 94 34q30 33 30 102q0 72 -30 105q-28 31 -94 31h-76zM393 1326l208 266h414l-313 -266h-309z" />
    <glyph glyph-name="racute" unicode="&#x155;" horiz-adv-x="896" 
d="M83 0v973h423v-218l5 -2q27 84 59 127q35 48 95 70q61 23 159 23h34v-395h-34q-104 0 -163 -17q-63 -18 -99 -72q-37 -55 -37 -160v-329h-442zM347 1061l208 265h414l-313 -265h-309z" />
    <glyph glyph-name="uni0156" unicode="&#x156;" horiz-adv-x="1222" 
d="M1017 424l170 -424h-465l-115 364h-62v-364h-460v1238h670q216 0 326 -110q109 -109 109 -327q0 -273 -173 -377zM545 937v-272h76q63 0 94 34q30 33 30 102q0 72 -30 105q-28 31 -94 31h-76zM449 -407l55 333h260l-90 -333h-225z" />
    <glyph glyph-name="uni0157" unicode="&#x157;" horiz-adv-x="896" 
d="M83 0v973h423v-218l5 -2q27 84 59 127q35 48 95 70q61 23 159 23h34v-395h-34q-104 0 -163 -17q-63 -18 -99 -72q-37 -55 -37 -160v-329h-442zM157 -407l55 333h260l-90 -333h-225z" />
    <glyph glyph-name="Rcaron" unicode="&#x158;" horiz-adv-x="1222" 
d="M1017 424l170 -424h-465l-115 364h-62v-364h-460v1238h670q216 0 326 -110q109 -109 109 -327q0 -273 -173 -377zM545 937v-272h76q63 0 94 34q30 33 30 102q0 72 -30 105q-28 31 -94 31h-76zM897 1540l-297 -242l-298 242l179 153l119 -130l118 130z" />
    <glyph glyph-name="rcaron" unicode="&#x159;" horiz-adv-x="896" 
d="M83 0v973h423v-218l5 -2q27 84 59 127q35 48 95 70q61 23 159 23h34v-395h-34q-104 0 -163 -17q-63 -18 -99 -72q-37 -55 -37 -160v-329h-442zM851 1275l-297 -242l-298 242l179 152l119 -129l118 129z" />
    <glyph glyph-name="Sacute" unicode="&#x15a;" horiz-adv-x="1186" 
d="M179 61q-131 86 -131 300q0 29 2 53h442q-3 -80 18 -114q22 -36 77 -36q49 0 74 16t25 47q0 37 -28 61t-120 51q-204 59 -310 130q-109 73 -146 154q-38 84 -38 193q0 155 134 251t409 96q310 0 432 -107q121 -106 109 -319h-428q6 68 -23 103q-28 34 -76 34
q-88 0 -88 -60q0 -34 26 -57q27 -24 114 -45q198 -50 311 -120q108 -67 148 -151q39 -83 39 -196q0 -370 -571 -370q-270 0 -401 86zM380 1326l209 266h414l-313 -266h-310z" />
    <glyph glyph-name="sacute" unicode="&#x15b;" horiz-adv-x="1073" 
d="M255 21q-112 32 -166 107q-53 74 -50 204h410q0 -42 21 -60q20 -17 62 -17t60 9t18 31q0 17 -10 26q-13 11 -44 18q-35 8 -101 18q-156 22 -249 64q-90 41 -126 102t-36 153q0 142 120 225q119 82 370 82q256 0 373 -87t108 -238h-405q0 38 -18 54q-19 17 -58 17
q-71 0 -71 -39q0 -21 30 -33q28 -11 117 -22q165 -21 258 -65q94 -45 127 -108q34 -65 34 -163q0 -144 -118 -226q-121 -84 -366 -84q-177 0 -290 32zM327 1072l209 265h414l-313 -265h-310z" />
    <glyph glyph-name="Scircumflex" unicode="&#x15c;" horiz-adv-x="1186" 
d="M179 61q-131 86 -131 300q0 29 2 53h442q-3 -80 18 -114q22 -36 77 -36q49 0 74 16t25 47q0 37 -28 61t-120 51q-204 59 -310 130q-109 73 -146 154q-38 84 -38 193q0 155 134 251t409 96q310 0 432 -107q121 -106 109 -319h-428q6 68 -23 103q-28 34 -76 34
q-88 0 -88 -60q0 -34 26 -57q27 -24 114 -45q198 -50 311 -120q108 -67 148 -151q39 -83 39 -196q0 -370 -571 -370q-270 0 -401 86zM306 1443l281 237l281 -237l-169 -145l-112 122l-111 -122z" />
    <glyph glyph-name="scircumflex" unicode="&#x15d;" horiz-adv-x="1073" 
d="M255 21q-112 32 -166 107q-53 74 -50 204h410q0 -42 21 -60q20 -17 62 -17t60 9t18 31q0 17 -10 26q-13 11 -44 18q-35 8 -101 18q-156 22 -249 64q-90 41 -126 102t-36 153q0 142 120 225q119 82 370 82q256 0 373 -87t108 -238h-405q0 38 -18 54q-19 17 -58 17
q-71 0 -71 -39q0 -21 30 -33q28 -11 117 -22q165 -21 258 -65q94 -45 127 -108q34 -65 34 -163q0 -144 -118 -226q-121 -84 -366 -84q-177 0 -290 32zM253 1188l281 237l281 -237l-169 -145l-112 122l-111 -122z" />
    <glyph glyph-name="Scedilla" unicode="&#x15e;" horiz-adv-x="1186" 
d="M697 -21l-9 -37q89 -6 130 -48q40 -41 40 -104q0 -70 -57 -117q-56 -46 -166 -46q-111 0 -253 32l39 131q118 -22 168 -22q39 0 55 9t16 27q0 22 -31 32q-30 10 -123 10l21 129q-257 9 -375 108q-119 99 -102 331h442q-3 -80 18 -114q22 -36 77 -36q49 0 74 16t25 47
q0 37 -28 61t-120 51q-204 59 -310 130q-109 73 -146 154q-38 84 -38 193q0 155 134 251t409 96q310 0 432 -107q121 -106 109 -319h-428q6 68 -23 103q-28 34 -76 34q-88 0 -88 -60q0 -34 26 -57q27 -24 114 -45q198 -50 311 -120q108 -67 148 -151q39 -83 39 -196
q0 -330 -454 -366z" />
    <glyph glyph-name="scedilla" unicode="&#x15f;" horiz-adv-x="1073" 
d="M935 89q-93 -79 -293 -96l-14 -60q89 -6 130 -48q40 -41 40 -104q0 -71 -57 -117q-56 -46 -166 -46q-111 0 -253 32l39 131q118 -22 168 -22q39 0 55 9t16 27q0 22 -31 32q-30 10 -123 10l24 154q-227 9 -332 87t-99 254h410q0 -42 21 -60q20 -17 62 -17t60 9t18 31
q0 17 -10 26q-13 11 -44 18q-35 8 -101 18q-156 22 -249 64q-90 41 -126 102t-36 153q0 142 120 225q119 82 370 82q256 0 373 -87t108 -238h-405q0 38 -18 54q-19 17 -58 17q-71 0 -71 -39q0 -21 30 -33q28 -11 117 -22q165 -21 258 -65q94 -45 127 -108q34 -65 34 -163
q0 -129 -94 -210z" />
    <glyph glyph-name="Scaron" unicode="&#x160;" horiz-adv-x="1186" 
d="M179 61q-131 86 -131 300q0 29 2 53h442q-3 -80 18 -114q22 -36 77 -36q49 0 74 16t25 47q0 37 -28 61t-120 51q-204 59 -310 130q-109 73 -146 154q-38 84 -38 193q0 155 134 251t409 96q310 0 432 -107q121 -106 109 -319h-428q6 68 -23 103q-28 34 -76 34
q-88 0 -88 -60q0 -34 26 -57q27 -24 114 -45q198 -50 311 -120q108 -67 148 -151q39 -83 39 -196q0 -370 -571 -370q-270 0 -401 86zM884 1540l-297 -242l-297 242l179 153l118 -130l119 130z" />
    <glyph glyph-name="scaron" unicode="&#x161;" horiz-adv-x="1073" 
d="M255 21q-112 32 -166 107q-53 74 -50 204h410q0 -42 21 -60q20 -17 62 -17t60 9t18 31q0 17 -10 26q-13 11 -44 18q-35 8 -101 18q-156 22 -249 64q-90 41 -126 102t-36 153q0 142 120 225q119 82 370 82q256 0 373 -87t108 -238h-405q0 38 -18 54q-19 17 -58 17
q-71 0 -71 -39q0 -21 30 -33q28 -11 117 -22q165 -21 258 -65q94 -45 127 -108q34 -65 34 -163q0 -144 -118 -226q-121 -84 -366 -84q-177 0 -290 32zM831 1286l-297 -243l-297 243l179 152l118 -129l119 129z" />
    <glyph glyph-name="uni0162" unicode="&#x162;" horiz-adv-x="1075" 
d="M1043 920h-275v-920h-160l-12 -58q89 -6 130 -48q40 -41 40 -104q0 -70 -57 -117q-56 -46 -166 -46q-111 0 -253 32l39 131q118 -22 168 -22q39 0 55 9t16 27q0 22 -31 32q-30 10 -123 10l25 154h-131v920h-276v318h1011v-318z" />
    <glyph glyph-name="uni0163" unicode="&#x163;" horiz-adv-x="818" 
d="M764 0h-170l-12 -58q89 -6 130 -48q40 -41 40 -104q0 -70 -57 -117q-56 -46 -166 -46q-111 0 -253 32l39 131q118 -22 168 -22q39 0 55 9t16 27q0 22 -31 32q-30 10 -123 10l26 158q-152 12 -218 84q-67 73 -67 229v373h-114v283h114v265h443v-265h175v-283h-175v-312
q0 -48 19 -67t69 -19h92v-292z" />
    <glyph glyph-name="Tcaron" unicode="&#x164;" horiz-adv-x="1075" 
d="M1043 1238v-318h-275v-920h-460v920h-276v318h1011zM835 1540l-297 -242l-297 242l178 153l119 -130l118 130z" />
    <glyph glyph-name="tcaron" unicode="&#x165;" horiz-adv-x="863" 
d="M637 1038l42 398h258v-175l-83 -223h-217zM584 378q0 -48 19 -67t69 -19h92v-292h-263q-132 0 -209 31q-78 32 -114 100q-37 71 -37 186v373h-114v283h114v265h443v-265h175v-283h-175v-312z" />
    <glyph glyph-name="Tbar" unicode="&#x166;" horiz-adv-x="1075" 
d="M1043 1238v-318h-275v-151h100v-265h-100v-504h-460v504h-101v265h101v151h-276v318h1011z" />
    <glyph glyph-name="tbar" unicode="&#x167;" horiz-adv-x="845" 
d="M780 292v-292h-264q-131 0 -208 31q-78 32 -114 100q-37 71 -37 186v58h-79v265h79v50h-115v283h115v265h443v-265h175v-283h-175v-50h139v-265h-139q0 -45 20 -64t68 -19h92z" />
    <glyph glyph-name="Utilde" unicode="&#x168;" horiz-adv-x="1264" 
d="M215 91q-134 116 -134 360v787h460v-805q0 -63 21 -94t71 -31q48 0 69 31t21 94v805h460v-787q0 -245 -133 -360q-134 -116 -417 -116q-284 0 -418 116zM327 1397q71 177 205 177q34 0 62 -10q23 -8 55 -29q34 -18 40 -21q14 -7 36 -7q52 0 90 65l136 -86
q-72 -179 -205 -179q-34 0 -61 10q-24 9 -54 27q-25 16 -39 22q-19 8 -40 8q-59 0 -89 -63z" />
    <glyph glyph-name="utilde" unicode="&#x169;" horiz-adv-x="1202" 
d="M677 973h442v-973h-442v87q-89 -99 -256 -99q-181 0 -264 96q-83 97 -83 294v595h442v-575q0 -58 18 -83t62 -25q42 0 62 27q19 26 19 86v570zM290 1132q70 177 205 177q34 0 62 -10q23 -8 55 -29q34 -18 40 -21q14 -7 36 -7q52 0 90 65l136 -87q-72 -178 -205 -178
q-37 0 -61 9q-20 7 -54 28q-25 16 -39 22q-19 8 -40 8q-59 0 -89 -64z" />
    <glyph glyph-name="Umacron" unicode="&#x16a;" horiz-adv-x="1264" 
d="M215 91q-134 116 -134 360v787h460v-805q0 -63 21 -94t71 -31q48 0 69 31t21 94v805h460v-787q0 -245 -133 -360q-134 -116 -417 -116q-284 0 -418 116zM923 1344h-580v198h580v-198z" />
    <glyph glyph-name="umacron" unicode="&#x16b;" horiz-adv-x="1202" 
d="M677 973h442v-973h-442v87q-89 -99 -256 -99q-181 0 -264 96q-83 97 -83 294v595h442v-575q0 -58 18 -83t62 -25q42 0 62 27q19 26 19 86v570zM886 1079h-580v198h580v-198z" />
    <glyph glyph-name="Ubreve" unicode="&#x16c;" horiz-adv-x="1264" 
d="M215 91q-134 116 -134 360v787h460v-805q0 -63 21 -94t71 -31q48 0 69 31t21 94v805h460v-787q0 -245 -133 -360q-134 -116 -417 -116q-284 0 -418 116zM936 1593q0 -298 -303 -298q-302 0 -302 298h237q0 -93 65 -93q66 0 66 93h237z" />
    <glyph glyph-name="ubreve" unicode="&#x16d;" horiz-adv-x="1202" 
d="M677 973h442v-973h-442v87q-89 -99 -256 -99q-181 0 -264 96q-83 97 -83 294v595h442v-575q0 -58 18 -83t62 -25q42 0 62 27q19 26 19 86v570zM898 1328q0 -299 -302 -299t-302 299h237q0 -94 65 -94t65 94h237z" />
    <glyph glyph-name="Uring" unicode="&#x16e;" horiz-adv-x="1264" 
d="M215 91q-134 116 -134 360v787h460v-805q0 -63 21 -94t71 -31q48 0 69 31t21 94v805h460v-787q0 -245 -133 -360q-134 -116 -417 -116q-284 0 -418 116zM458 1364q-69 62 -69 162q0 102 69 163q70 62 175 62t175 -62q69 -62 69 -163q0 -100 -69 -162q-70 -62 -175 -62
t-175 62zM685 1477q21 18 21 49q0 32 -21 49q-22 17 -52 17t-52 -17q-20 -16 -20 -49q0 -32 20 -49q21 -18 52 -18t52 18z" />
    <glyph glyph-name="uring" unicode="&#x16f;" horiz-adv-x="1202" 
d="M677 973h442v-973h-442v87q-89 -99 -256 -99q-181 0 -264 96q-83 97 -83 294v595h442v-575q0 -58 18 -83t62 -25q42 0 62 27q19 26 19 86v570zM421 1098q-69 62 -69 163t69 163q70 62 175 62t175 -62q69 -61 69 -163q0 -101 -69 -163q-70 -62 -175 -62t-175 62zM648 1211
q21 18 21 50q0 33 -21 49q-20 16 -52 16t-52 -16q-21 -16 -21 -49q0 -32 21 -50q20 -17 52 -17t52 17z" />
    <glyph glyph-name="Uhungarumlaut" unicode="&#x170;" horiz-adv-x="1264" 
d="M215 91q-134 116 -134 360v787h460v-805q0 -63 21 -94t71 -31q48 0 69 31t21 94v805h460v-787q0 -245 -133 -360q-134 -116 -417 -116q-284 0 -418 116zM527 1627h248l-200 -301h-200zM812 1627h247l-217 -301h-200z" />
    <glyph glyph-name="uhungarumlaut" unicode="&#x171;" horiz-adv-x="1202" 
d="M677 973h442v-973h-442v87q-89 -99 -256 -99q-181 0 -264 96q-83 97 -83 294v595h442v-575q0 -58 18 -83t62 -25q42 0 62 27q19 26 19 86v570zM490 1362h247l-199 -301h-200zM775 1362h247l-217 -301h-200z" />
    <glyph glyph-name="Uogonek" unicode="&#x172;" horiz-adv-x="1264" 
d="M723 1238h460v-787q0 -222 -109 -337t-340 -135q-119 -93 -119 -158q0 -25 15 -39q16 -14 40 -14q32 0 73 25l102 -141q-40 -34 -100 -61q-58 -26 -122 -26q-96 0 -162 57q-67 58 -67 148q0 115 115 211q-219 22 -323 137q-105 116 -105 333v787h460v-805q0 -63 21 -94
t71 -31q48 0 69 31t21 94v805z" />
    <glyph glyph-name="uogonek" unicode="&#x173;" horiz-adv-x="1202" 
d="M1204 -348q-40 -34 -100 -61q-58 -26 -122 -26q-96 0 -162 57q-67 58 -67 148q0 124 138 230h-214v87q-89 -99 -256 -99q-181 0 -264 96q-83 97 -83 294v595h442v-575q0 -58 18 -83t62 -25q42 0 62 27q19 26 19 86v570h443v-973q-146 -108 -146 -179q0 -25 16 -39t39 -14
q32 0 73 25z" />
    <glyph glyph-name="Wcircumflex" unicode="&#x174;" horiz-adv-x="1803" 
d="M1261 539l81 699h480l-296 -1238h-507l-117 555l-117 -555h-507l-296 1238h480l81 -699l133 699h452zM621 1443l281 237l281 -237l-170 -145l-111 122l-111 -122z" />
    <glyph glyph-name="wcircumflex" unicode="&#x175;" horiz-adv-x="1620" 
d="M1097 439l67 534h451l-266 -973h-443l-96 435l-95 -435h-444l-266 973h451l67 -534l78 534h418zM516 1178l282 237l281 -237l-170 -145l-111 122l-112 -122z" />
    <glyph glyph-name="Ycircumflex" unicode="&#x176;" horiz-adv-x="1188" 
d="M594 888l112 350h500l-382 -796v-442h-460v442l-382 796h501zM313 1443l281 237l281 -237l-169 -145l-112 122l-111 -122z" />
    <glyph glyph-name="ycircumflex" unicode="&#x177;" horiz-adv-x="1114" 
d="M561 559l122 414h442l-520 -1327h-412l154 384l-358 943h464zM228 1178l281 237l282 -237l-170 -145l-112 122l-111 -122z" />
    <glyph glyph-name="Ydieresis" unicode="&#x178;" horiz-adv-x="1188" 
d="M594 888l112 350h500l-382 -796v-442h-460v442l-382 796h501zM320 1356q-37 37 -37 98q0 62 37 99t99 37q61 0 98 -37q38 -38 38 -99q0 -60 -38 -98t-98 -38q-61 0 -99 38zM670 1356q-37 37 -37 98q0 62 37 99t99 37q61 0 98 -37q39 -39 39 -99q0 -59 -39 -98
q-38 -38 -98 -38q-61 0 -99 38z" />
    <glyph glyph-name="Zacute" unicode="&#x179;" horiz-adv-x="1034" 
d="M994 0h-966l375 920h-350v318h943l-370 -920h368v-318zM317 1326l208 266h414l-313 -266h-309z" />
    <glyph glyph-name="zacute" unicode="&#x17a;" horiz-adv-x="928" 
d="M886 0h-859l309 681h-297v292h859l-309 -681h297v-292zM235 1061l209 265h414l-313 -265h-310z" />
    <glyph glyph-name="Zdotaccent" unicode="&#x17b;" horiz-adv-x="1034" 
d="M994 0h-966l375 920h-350v318h943l-370 -920h368v-318zM427 1357q-40 40 -40 97q0 56 40 96t96 40q57 0 97 -40t40 -96q0 -57 -40 -97q-39 -39 -97 -39q-57 0 -96 39z" />
    <glyph glyph-name="zdotaccent" unicode="&#x17c;" horiz-adv-x="928" 
d="M886 0h-859l309 681h-297v292h859l-309 -681h297v-292zM346 1092q-40 40 -40 96q0 57 40 97t96 40q57 0 97 -40q39 -39 39 -97q0 -57 -39 -96q-40 -40 -97 -40q-56 0 -96 40z" />
    <glyph glyph-name="Zcaron" unicode="&#x17d;" horiz-adv-x="1034" 
d="M994 0h-966l375 920h-350v318h943l-370 -920h368v-318zM821 1540l-298 -242l-297 242l179 153l118 -130l119 130z" />
    <glyph glyph-name="zcaron" unicode="&#x17e;" horiz-adv-x="928" 
d="M886 0h-859l309 681h-297v292h859l-309 -681h297v-292zM739 1275l-297 -242l-297 242l179 152l118 -129l119 129z" />
    <glyph glyph-name="uni018F" unicode="&#x18f;" horiz-adv-x="1248" 
d="M1056 1135q140 -128 140 -406v-216q0 -284 -136 -411t-434 -127q-299 0 -436 131t-137 416v226h683v34q0 91 -29 132t-93 41q-104 0 -113 -133h-444q12 222 153 332q140 109 420 109q286 0 426 -128zM706 323q29 41 30 128h-248v-7q0 -86 28 -123q29 -38 96 -38
q66 0 94 40z" />
    <glyph glyph-name="florin" unicode="&#x192;" horiz-adv-x="817" 
d="M683 1043q-15 -20 -18 -61l-14 -199h136v-265h-154l-39 -573q-11 -158 -86 -232t-257 -74q-72 0 -152 7t-140 20l32 256q49 -7 94 -7q35 0 49 18q15 20 18 62l35 523h-127v265h145l18 248q10 157 87 232q75 74 261 74q50 0 143 -8q87 -7 144 -18l-32 -257q-49 7 -94 7
q-36 0 -49 -18z" />
    <glyph glyph-name="uni01CD" unicode="&#x1cd;" horiz-adv-x="1236" 
d="M1265 0h-487l-37 196h-244l-39 -196h-486l375 1238h543zM619 829l-67 -350h134zM916 1540l-297 -242l-297 242l179 153l118 -130l118 130z" />
    <glyph glyph-name="uni01CE" unicode="&#x1ce;" horiz-adv-x="1080" 
d="M811 949q101 -41 148 -131t47 -247v-571h-422v74q-44 -44 -110 -65t-133 -21q-142 0 -223 80q-83 81 -83 215q0 334 536 366q-12 31 -41 45q-27 13 -83 13q-69 0 -144 -14q-71 -13 -172 -42l-53 262q100 27 235 52q131 24 233 24q166 0 265 -40zM561 292q23 26 23 67v76
q-81 -13 -115 -40q-34 -26 -34 -64q0 -28 18 -46t48 -18q38 0 60 25zM844 1291l-298 -242l-297 242l179 152l118 -129l119 129z" />
    <glyph glyph-name="uni01CF" unicode="&#x1cf;" horiz-adv-x="629" 
d="M545 0h-460v1238h460v-1238zM612 1540l-297 -242l-297 242l178 153l119 -130l118 130z" />
    <glyph glyph-name="uni01D0" unicode="&#x1d0;" horiz-adv-x="626" 
d="M83 973h460v-973h-460v973zM610 1275l-297 -242l-297 242l179 152l118 -129l119 129z" />
    <glyph glyph-name="uni01D1" unicode="&#x1d1;" horiz-adv-x="1239" 
d="M195 104q-142 130 -142 409v216q0 278 142 406t426 128q283 0 425 -128q141 -128 141 -406v-216q0 -280 -141 -409t-425 -129q-285 0 -426 129zM701 319q26 37 26 113v374q0 76 -26 113q-25 36 -80 36q-108 0 -108 -149v-374q0 -149 108 -149q55 0 80 36zM918 1540
l-297 -242l-297 242l178 153l119 -130l118 130z" />
    <glyph glyph-name="uni01D2" unicode="&#x1d2;" horiz-adv-x="1131" 
d="M42 485q0 504 524 504q523 0 523 -504q0 -501 -523 -501q-524 0 -524 501zM641 315q24 53 24 171q0 120 -24 172q-24 53 -75 53t-75 -53q-24 -52 -24 -172q0 -118 24 -171t75 -53t75 53zM863 1286l-297 -243l-297 243l178 152l119 -129l118 129z" />
    <glyph glyph-name="uni01D3" unicode="&#x1d3;" horiz-adv-x="1264" 
d="M215 91q-134 116 -134 360v787h460v-805q0 -63 21 -94t71 -31q48 0 69 31t21 94v805h460v-787q0 -245 -133 -360q-134 -116 -417 -116q-284 0 -418 116zM930 1540l-297 -242l-297 242l179 153l118 -130l119 130z" />
    <glyph glyph-name="uni01D4" unicode="&#x1d4;" horiz-adv-x="1202" 
d="M677 973h442v-973h-442v87q-89 -99 -256 -99q-181 0 -264 96q-83 97 -83 294v595h442v-575q0 -58 18 -83t62 -25q42 0 62 27q19 26 19 86v570zM893 1275l-297 -242l-297 242l179 152l118 -129l118 129z" />
    <glyph glyph-name="uni01D5" unicode="&#x1d5;" horiz-adv-x="1264" 
d="M215 91q-134 116 -134 360v787h460v-805q0 -63 21 -94t71 -31q48 0 69 31t21 94v805h460v-787q0 -245 -133 -360q-134 -116 -417 -116q-284 0 -418 116zM359 1356q-37 37 -37 98q0 62 37 99t99 37q61 0 98 -37q38 -38 38 -99q0 -60 -38 -98t-98 -38q-61 0 -99 38z
M709 1356q-37 37 -37 98q0 62 37 99t99 37q61 0 98 -37q38 -38 38 -99q0 -60 -38 -98t-98 -38q-61 0 -99 38zM923 1666h-580v198h580v-198z" />
    <glyph glyph-name="uni01D6" unicode="&#x1d6;" horiz-adv-x="1202" 
d="M677 973h442v-973h-442v87q-89 -99 -256 -99q-181 0 -264 96q-83 97 -83 294v595h442v-575q0 -58 18 -83t62 -25q42 0 62 27q19 26 19 86v570zM322 1090q-37 37 -37 98q0 63 37 100t99 37q61 0 98 -37q38 -38 38 -100q0 -60 -38 -98t-98 -38q-61 0 -99 38zM672 1090
q-37 37 -37 98q0 63 37 100t99 37q61 0 98 -37q38 -38 38 -100q0 -60 -38 -98t-98 -38q-61 0 -99 38zM886 1401h-580v198h580v-198z" />
    <glyph glyph-name="uni01D7" unicode="&#x1d7;" horiz-adv-x="1264" 
d="M215 91q-134 116 -134 360v787h460v-805q0 -63 21 -94t71 -31q48 0 69 31t21 94v805h460v-787q0 -245 -133 -360q-134 -116 -417 -116q-284 0 -418 116zM359 1356q-37 37 -37 98q0 62 37 99t99 37q61 0 98 -37q38 -38 38 -99q0 -60 -38 -98t-98 -38q-61 0 -99 38z
M709 1356q-37 37 -37 98q0 62 37 99t99 37q61 0 98 -37q38 -38 38 -99q0 -60 -38 -98t-98 -38q-61 0 -99 38zM426 1648l209 266h414l-313 -266h-310z" />
    <glyph glyph-name="uni01D8" unicode="&#x1d8;" horiz-adv-x="1202" 
d="M677 973h442v-973h-442v87q-89 -99 -256 -99q-181 0 -264 96q-83 97 -83 294v595h442v-575q0 -58 18 -83t62 -25q42 0 62 27q19 26 19 86v570zM322 1090q-37 37 -37 98q0 63 37 100t99 37q61 0 98 -37q38 -38 38 -100q0 -60 -38 -98t-98 -38q-61 0 -99 38zM672 1090
q-37 37 -37 98q0 63 37 100t99 37q61 0 98 -37q38 -38 38 -100q0 -60 -38 -98t-98 -38q-61 0 -99 38zM389 1383l209 265h414l-313 -265h-310z" />
    <glyph glyph-name="uni01D9" unicode="&#x1d9;" horiz-adv-x="1264" 
d="M215 91q-134 116 -134 360v787h460v-805q0 -63 21 -94t71 -31q48 0 69 31t21 94v805h460v-787q0 -245 -133 -360q-134 -116 -417 -116q-284 0 -418 116zM359 1356q-37 37 -37 98q0 62 37 99t99 37q61 0 98 -37q38 -38 38 -99q0 -60 -38 -98t-98 -38q-61 0 -99 38z
M709 1356q-37 37 -37 98q0 62 37 99t99 37q61 0 98 -37q38 -38 38 -99q0 -60 -38 -98t-98 -38q-61 0 -99 38zM930 1862l-297 -242l-297 242l179 152l118 -129l119 129z" />
    <glyph glyph-name="uni01DA" unicode="&#x1da;" horiz-adv-x="1202" 
d="M677 973h442v-973h-442v87q-89 -99 -256 -99q-181 0 -264 96q-83 97 -83 294v595h442v-575q0 -58 18 -83t62 -25q42 0 62 27q19 26 19 86v570zM322 1090q-37 37 -37 98q0 63 37 100t99 37q61 0 98 -37q38 -38 38 -100q0 -60 -38 -98t-98 -38q-61 0 -99 38zM672 1090
q-37 37 -37 98q0 63 37 100t99 37q61 0 98 -37q38 -38 38 -100q0 -60 -38 -98t-98 -38q-61 0 -99 38zM893 1597l-297 -242l-297 242l179 152l118 -129l118 129z" />
    <glyph glyph-name="uni01DB" unicode="&#x1db;" horiz-adv-x="1264" 
d="M215 91q-134 116 -134 360v787h460v-805q0 -63 21 -94t71 -31q48 0 69 31t21 94v805h460v-787q0 -245 -133 -360q-134 -116 -417 -116q-284 0 -418 116zM359 1356q-37 37 -37 98q0 62 37 99t99 37q61 0 98 -37q38 -38 38 -99q0 -60 -38 -98t-98 -38q-61 0 -99 38z
M709 1356q-37 37 -37 98q0 62 37 99t99 37q61 0 98 -37q38 -38 38 -99q0 -60 -38 -98t-98 -38q-61 0 -99 38zM210 1914h414l209 -266h-310z" />
    <glyph glyph-name="uni01DC" unicode="&#x1dc;" horiz-adv-x="1202" 
d="M677 973h442v-973h-442v87q-89 -99 -256 -99q-181 0 -264 96q-83 97 -83 294v595h442v-575q0 -58 18 -83t62 -25q42 0 62 27q19 26 19 86v570zM322 1090q-37 37 -37 98q0 63 37 100t99 37q61 0 98 -37q38 -38 38 -100q0 -60 -38 -98t-98 -38q-61 0 -99 38zM672 1090
q-37 37 -37 98q0 63 37 100t99 37q61 0 98 -37q38 -38 38 -100q0 -60 -38 -98t-98 -38q-61 0 -99 38zM173 1648h414l209 -265h-310z" />
    <glyph glyph-name="Gcaron" unicode="&#x1e6;" horiz-adv-x="1248" 
d="M617 723h579v-201q0 -190 -58 -312q-57 -120 -179 -177q-124 -58 -322 -58q-300 0 -442 128t-142 410v216q0 281 142 407q144 127 442 127q269 0 406 -108t149 -340h-444q-3 73 -30 106q-28 34 -83 34q-65 0 -94 -41q-28 -40 -28 -132v-322q0 -94 28 -135q29 -42 96 -42
q65 0 93 35q29 36 30 115h-143v290zM934 1540l-297 -242l-297 242l178 153l119 -130l118 130z" />
    <glyph glyph-name="gcaron" unicode="&#x1e7;" horiz-adv-x="1192" 
d="M667 973h442v-851q0 -188 -60 -294q-61 -109 -176 -152q-117 -44 -300 -44q-187 0 -432 60l69 274q138 -39 257 -39q74 0 121 15q41 13 59 48q19 36 20 102q-78 -74 -237 -74q-194 0 -291 126q-98 127 -98 355q0 227 99 355t290 128q153 0 237 -73v64zM658 335
q23 49 23 164q0 114 -23 163t-76 49t-76 -49t-23 -163q0 -115 23 -164q22 -48 76 -48t76 48zM939 1275l-297 -242l-297 242l178 152l119 -129l118 129z" />
    <glyph glyph-name="uni01EA" unicode="&#x1ea;" horiz-adv-x="1239" 
d="M1046 1135q141 -128 141 -406v-216q0 -258 -121 -388q-120 -129 -362 -146q-124 -97 -124 -163q0 -26 15 -40q14 -13 40 -13q31 0 72 25l103 -142q-40 -34 -100 -61q-56 -25 -123 -25q-96 0 -162 57t-66 148q0 119 124 219q-216 28 -323 157q-107 128 -107 372v216
q0 278 142 406t426 128q283 0 425 -128zM727 806q0 76 -26 113q-25 36 -80 36q-108 0 -108 -149v-374q0 -149 108 -149q55 0 80 36q26 37 26 113v374z" />
    <glyph glyph-name="uni01EB" unicode="&#x1eb;" horiz-adv-x="1131" 
d="M421 -189q0 -27 15 -40q14 -13 40 -13q32 0 72 24l103 -141q-40 -34 -100 -61q-58 -26 -123 -26q-95 0 -162 58q-66 57 -66 147q0 135 163 248q-321 87 -321 478q0 504 524 504q523 0 523 -504q0 -501 -523 -501h-7q-138 -105 -138 -173zM491 658q-24 -52 -24 -172
q0 -118 24 -171t75 -53t75 53t24 171q0 120 -24 172q-24 53 -75 53t-75 -53z" />
    <glyph glyph-name="Aringacute" unicode="&#x1fa;" horiz-adv-x="1236" 
d="M1265 0h-487l-37 196h-244l-39 -196h-486l375 1238h543zM619 829l-67 -350h134zM444 1364q-69 62 -69 162q0 102 69 163q70 62 175 62t175 -62q69 -62 69 -163q0 -100 -69 -162q-70 -62 -175 -62t-175 62zM671 1477q21 18 21 49q0 32 -21 49q-22 17 -52 17t-52 -17
q-21 -17 -21 -49q0 -31 21 -49t52 -18t52 18zM412 1855l209 266h414l-313 -266h-310z" />
    <glyph glyph-name="aringacute" unicode="&#x1fb;" horiz-adv-x="1080" 
d="M811 949q101 -41 148 -131t47 -247v-571h-422v74q-44 -44 -110 -65t-133 -21q-142 0 -223 80q-83 81 -83 215q0 334 536 366q-12 31 -41 45q-27 13 -83 13q-69 0 -144 -14q-71 -13 -172 -42l-53 262q100 27 235 52q131 24 233 24q166 0 265 -40zM561 292q23 26 23 67v76
q-81 -13 -115 -40q-34 -26 -34 -64q0 -28 18 -46t48 -18q38 0 60 25zM371 1114q-69 62 -69 163t69 163q70 62 175 62q106 0 176 -62q69 -61 69 -163q0 -101 -69 -163q-70 -62 -176 -62q-105 0 -175 62zM599 1227q20 17 20 50t-20 49t-53 16q-32 0 -52 -16t-20 -49t20 -50
t52 -17q33 0 53 17zM340 1606l208 265h414l-313 -265h-309z" />
    <glyph glyph-name="AEacute" unicode="&#x1fc;" horiz-adv-x="1763" 
d="M1213 481v-163h511v-318h-971v179h-207l-61 -179h-520l558 1238h1191v-318h-501v-138h430v-301h-430zM753 768l-107 -306h107v306zM760 1326l209 266h414l-313 -266h-310z" />
    <glyph glyph-name="aeacute" unicode="&#x1fd;" horiz-adv-x="1520" 
d="M1362 838q129 -150 117 -449h-577q8 -79 27 -105q21 -29 58 -29q59 0 72 79h407q-21 -165 -127 -255q-106 -89 -317 -91q-194 0 -290 115q-115 -115 -343 -115q-173 0 -265 78t-92 217q0 334 536 366q-12 31 -42 45q-27 13 -82 13q-69 0 -144 -14q-73 -14 -173 -42
l-53 262q101 27 234 52q126 24 228 24q143 0 219 -64q82 64 232 64q245 0 375 -151zM929 691q-19 -26 -27 -107h172q-3 71 -27 105q-22 31 -60 31q-37 0 -58 -29zM557 292q23 26 23 67v76q-81 -13 -115 -40q-33 -25 -33 -64q0 -29 17 -46q18 -18 48 -18q38 0 60 25z
M546 1065l209 265h414l-313 -265h-310z" />
    <glyph glyph-name="Oslashacute" unicode="&#x1fe;" horiz-adv-x="1239" 
d="M1068 1112q119 -133 119 -383v-216q0 -280 -141 -409t-425 -129q-202 0 -329 62l-53 -72l-133 86l60 83q-113 130 -113 379v216q0 278 142 406t426 128q197 0 320 -59l62 87l132 -87zM513 614l202 279q-23 62 -94 62q-108 0 -108 -149v-192zM701 319q26 37 26 113v208
l-205 -283q25 -74 99 -74q55 0 80 36zM414 1326l209 266h413l-313 -266h-309z" />
    <glyph glyph-name="oslashacute" unicode="&#x1ff;" horiz-adv-x="1131" 
d="M948 874q141 -126 141 -389q0 -501 -523 -501q-163 0 -274 48l-50 -64l-111 69l49 66q-138 126 -138 382q0 504 524 504q159 0 269 -46l56 72l114 -69zM467 469l163 210q-23 32 -64 32q-51 0 -75 -53q-24 -52 -24 -172v-17zM641 315q24 53 24 171v23l-166 -210
q25 -37 67 -37q51 0 75 53zM359 1072l209 265h414l-313 -265h-310z" />
    <glyph glyph-name="uni0218" unicode="&#x218;" horiz-adv-x="1186" 
d="M179 61q-131 86 -131 300q0 29 2 53h442q-3 -80 18 -114q22 -36 77 -36q49 0 74 16t25 47q0 37 -28 61t-120 51q-204 59 -310 130q-109 73 -146 154q-38 84 -38 193q0 155 134 251t409 96q310 0 432 -107q121 -106 109 -319h-428q6 68 -23 103q-28 34 -76 34
q-88 0 -88 -60q0 -34 26 -57q27 -24 114 -45q198 -50 311 -120q108 -67 148 -151q39 -83 39 -196q0 -370 -571 -370q-270 0 -401 86zM449 -407l55 333h260l-90 -333h-225z" />
    <glyph glyph-name="uni0219" unicode="&#x219;" horiz-adv-x="1073" 
d="M255 21q-112 32 -166 107q-53 74 -50 204h410q0 -42 21 -60q20 -17 62 -17t60 9t18 31q0 17 -10 26q-13 11 -44 18q-35 8 -101 18q-156 22 -249 64q-90 41 -126 102t-36 153q0 142 120 225q119 82 370 82q256 0 373 -87t108 -238h-405q0 38 -18 54q-19 17 -58 17
q-71 0 -71 -39q0 -21 30 -33q28 -11 117 -22q165 -21 258 -65q94 -45 127 -108q34 -65 34 -163q0 -144 -118 -226q-121 -84 -366 -84q-177 0 -290 32zM389 -416l55 333h260l-90 -333h-225z" />
    <glyph glyph-name="uni021A" unicode="&#x21a;" horiz-adv-x="1075" 
d="M1043 1238v-318h-275v-920h-460v920h-276v318h1011zM357 -407l55 333h260l-90 -333h-225z" />
    <glyph glyph-name="uni021B" unicode="&#x21b;" horiz-adv-x="818" 
d="M764 292v-292h-263q-132 0 -209 31q-78 32 -114 100q-37 71 -37 186v373h-114v283h114v265h443v-265h175v-283h-175v-312q0 -48 19 -67t69 -19h92zM343 -407l55 333h260l-90 -333h-225z" />
    <glyph glyph-name="uni0232" unicode="&#x232;" horiz-adv-x="1188" 
d="M594 888l112 350h500l-382 -796v-442h-460v442l-382 796h501zM884 1344h-580v198h580v-198z" />
    <glyph glyph-name="uni0233" unicode="&#x233;" horiz-adv-x="1114" 
d="M561 559l122 414h442l-520 -1327h-412l154 384l-358 943h464zM799 1079h-580v198h580v-198z" />
    <glyph glyph-name="uni0237" unicode="&#x237;" horiz-adv-x="620" 
d="M-12 -354v283h10q59 0 78 22q20 23 20 86v936h442v-952q0 -147 -36 -226q-36 -80 -128 -114q-94 -35 -273 -35h-113z" />
    <glyph glyph-name="uni0259" unicode="&#x259;" horiz-adv-x="1107" 
d="M935 859q130 -124 130 -371t-130 -373q-131 -126 -380 -126q-509 0 -509 512q0 7 4 83h585q-8 75 -28 103q-21 29 -52 29q-59 0 -69 -79h-431q29 163 152 254q125 92 348 92q250 0 380 -124zM607 282q19 26 28 102h-159q3 -71 25 -101q21 -28 54 -28t52 27z" />
    <glyph glyph-name="uni02BC" unicode="&#x2bc;" horiz-adv-x="560" 
d="M64 672l60 566h369v-249l-120 -317h-309z" />
    <glyph glyph-name="circumflex" unicode="&#x2c6;" horiz-adv-x="907" 
d="M141 1178l282 237l281 -237l-170 -145l-111 122l-112 -122z" />
    <glyph glyph-name="caron" unicode="&#x2c7;" horiz-adv-x="907" 
d="M720 1275l-297 -242l-297 242l178 152l119 -129l118 129z" />
    <glyph glyph-name="breve" unicode="&#x2d8;" horiz-adv-x="930" 
d="M736 1328q0 -299 -303 -299q-302 0 -302 299h237q0 -94 65 -94q66 0 66 94h237z" />
    <glyph glyph-name="dotaccent" unicode="&#x2d9;" horiz-adv-x="756" 
d="M241 1092q-39 39 -39 96q0 58 39 97q40 40 97 40q56 0 96 -40t40 -97q0 -56 -40 -96t-96 -40q-57 0 -97 40z" />
    <glyph glyph-name="ring" unicode="&#x2da;" horiz-adv-x="845" 
d="M225 1098q-69 62 -69 163t69 163q70 62 175 62t175 -62q69 -61 69 -163q0 -101 -69 -163q-70 -62 -175 -62t-175 62zM452 1211q20 17 20 50t-20 49t-52 16t-52 -16q-21 -16 -21 -49q0 -32 21 -50q20 -17 52 -17t52 17z" />
    <glyph glyph-name="ogonek" unicode="&#x2db;" horiz-adv-x="749" 
d="M559 -348q-40 -34 -100 -61q-58 -26 -123 -26q-96 0 -162 57t-66 148q0 149 198 271l168 -41q-145 -108 -145 -179q0 -25 15 -39q16 -14 40 -14q31 0 72 25z" />
    <glyph glyph-name="tilde" unicode="&#x2dc;" horiz-adv-x="932" 
d="M127 1132q71 177 205 177q34 0 62 -10q23 -8 55 -29q34 -18 40 -21q14 -7 36 -7q52 0 90 65l137 -87q-72 -178 -206 -178q-37 0 -61 9q-17 6 -53 28q-25 16 -39 22q-19 8 -41 8q-58 0 -88 -64z" />
    <glyph glyph-name="hungarumlaut" unicode="&#x2dd;" horiz-adv-x="967" 
d="M338 1362h247l-199 -301h-200zM623 1362h247l-217 -301h-200z" />
    <glyph glyph-name="gravecomb" unicode="&#x300;" 
d="M-833 1326h414l209 -265h-310z" />
    <glyph glyph-name="acutecomb" unicode="&#x301;" 
d="M-725 1061l209 265h413l-313 -265h-309z" />
    <glyph glyph-name="uni0302" unicode="&#x302;" 
d="M-704 1178l281 237l282 -237l-170 -145l-112 122l-111 -122z" />
    <glyph glyph-name="tildecomb" unicode="&#x303;" 
d="M-746 1132q70 177 205 177q34 0 62 -10q23 -8 55 -29q8 -4 21 -11t18 -10q14 -7 37 -7q52 0 90 65l136 -87q-72 -178 -205 -178q-37 0 -61 9q-20 7 -54 28q-25 16 -39 22q-19 8 -41 8q-58 0 -88 -64z" />
    <glyph glyph-name="uni0304" unicode="&#x304;" 
d="M-113 1079h-580v198h580v-198z" />
    <glyph glyph-name="uni0306" unicode="&#x306;" 
d="M-133 1328q0 -299 -302 -299t-302 299h236q0 -94 66 -94q65 0 65 94h237z" />
    <glyph glyph-name="uni0307" unicode="&#x307;" 
d="M-432 1092q-40 40 -40 96q0 57 40 97t96 40t96 -40t40 -97q0 -56 -40 -96t-96 -40t-96 40z" />
    <glyph glyph-name="uni0308" unicode="&#x308;" 
d="M-723 1090q-37 37 -37 98q0 63 37 100t99 37q61 0 98 -37q38 -38 38 -100q0 -60 -38 -98t-98 -38q-61 0 -99 38zM-373 1090q-37 37 -37 98q0 63 37 100t99 37q61 0 98 -37q38 -38 38 -100q0 -60 -38 -98t-98 -38q-61 0 -99 38z" />
    <glyph glyph-name="uni030A" unicode="&#x30a;" 
d="M-557 1098q-69 62 -69 163t69 163q70 62 175 62t175 -62q69 -62 69 -163t-69 -163q-70 -62 -175 -62t-175 62zM-330 1211q21 18 21 50q0 33 -21 49q-20 16 -52 16t-52 -16q-21 -17 -21 -49t21 -50q20 -17 52 -17t52 17z" />
    <glyph glyph-name="uni030B" unicode="&#x30b;" 
d="M-729 1362h248l-200 -301h-200zM-444 1362h248l-218 -301h-200z" />
    <glyph glyph-name="uni030C" unicode="&#x30c;" 
d="M-126 1275l-297 -242l-297 242l179 152l118 -129l119 129z" />
    <glyph glyph-name="uni0312" unicode="&#x312;" 
d="M-210 1326l-105 -265h-230l133 265h202z" />
    <glyph glyph-name="uni0326" unicode="&#x326;" 
d="M-656 -407l55 333h260l-91 -333h-224z" />
    <glyph glyph-name="uni0327" unicode="&#x327;" 
d="M-317 -58q89 -6 130 -48q40 -41 40 -104q0 -71 -56 -117t-167 -46t-253 32l39 131q118 -22 168 -22q38 0 55 9q16 9 16 27q0 22 -31 32q-30 10 -123 10l34 205h168v-24z" />
    <glyph glyph-name="uni0328" unicode="&#x328;" 
d="M-147 -348q-40 -34 -100 -61q-58 -26 -123 -26q-95 0 -161 57q-67 58 -67 148q0 149 198 271l168 -41q-145 -108 -145 -179q0 -25 15 -39q16 -14 40 -14q32 0 73 25z" />
    <glyph glyph-name="uni0335" unicode="&#x335;" 
d="M-661 410v266h661v-266h-661z" />
    <glyph glyph-name="uni0336" unicode="&#x336;" 
d="M-1344 417v230h1344v-230h-1344z" />
    <glyph glyph-name="uni0337" unicode="&#x337;" 
d="M-695 607l695 468v-362l-695 -469v363z" />
    <glyph glyph-name="uni0338" unicode="&#x338;" 
d="M-1058 51l897 1240l133 -87l-897 -1239z" />
    <glyph glyph-name="uni0394" unicode="&#x394;" horiz-adv-x="1289" 
d="M446 1238h398l474 -1238h-1346zM646 746l-154 -442h311z" />
    <glyph glyph-name="uni03A9" unicode="&#x3a9;" horiz-adv-x="1299" 
d="M1233 297v-297h-536v297q32 11 46 32q13 21 18 64q5 47 5 127v202q0 124 -26 176q-25 50 -89 50q-68 0 -94 -49q-25 -47 -25 -177v-202q0 -80 5 -127q5 -44 19 -64q15 -21 47 -32v-297h-536v297h131q-120 120 -120 301v124q0 275 144 401t429 126q284 0 428 -126
q143 -125 143 -401v-124q0 -89 -32 -167t-88 -134h131z" />
    <glyph glyph-name="uni03BC" unicode="&#x3bc;" horiz-adv-x="1264" 
d="M730 973h451v-973h-451v67q-36 -30 -100 -30q-60 0 -96 27v-418h-451v1327h451v-462q0 -156 96 -156q100 0 100 156v462z" />
    <glyph glyph-name="pi" unicode="&#x3c0;" horiz-adv-x="1354" 
d="M1275 681h-127v-294q0 -51 17 -72q18 -23 66 -23h44v-292h-193q-143 0 -223 28q-81 29 -117 100q-36 72 -36 206v347h-96v-681h-442v681h-117v292h1224v-292z" />
    <glyph glyph-name="uni0400" unicode="&#x400;" horiz-adv-x="1101" 
d="M545 481v-163h511v-318h-971v1238h960v-318h-500v-138h429v-301h-429zM149 1590h413l209 -265h-309z" />
    <glyph glyph-name="uni0401" unicode="&#x401;" horiz-adv-x="1101" 
d="M545 481v-163h511v-318h-971v1238h960v-318h-500v-138h429v-301h-429zM297 1354q-37 37 -37 98q0 62 37 99t99 37q61 0 98 -37q38 -38 38 -99q0 -60 -38 -98t-98 -38q-61 0 -99 38zM647 1354q-37 37 -37 98q0 62 37 99t99 37q61 0 98 -37q39 -39 39 -99q0 -59 -39 -98
q-38 -38 -98 -38q-61 0 -99 38z" />
    <glyph glyph-name="uni0402" unicode="&#x402;" horiz-adv-x="1448" 
d="M32 920v318h1153v-318h-417v-110q80 7 199 7q450 0 450 -394v-29q0 -198 -106 -296t-335 -98h-113v295h14q56 0 81 22t25 72v2q0 87 -106 87q-57 0 -109 -2v-476h-460v920h-276z" />
    <glyph glyph-name="uni0403" unicode="&#x403;" horiz-adv-x="1034" 
d="M1012 1238v-318h-467v-920h-460v1238h927zM331 1326l208 266h414l-313 -266h-309z" />
    <glyph glyph-name="uni0404" unicode="&#x404;" horiz-adv-x="1239" 
d="M708 320q27 30 35 94h444q-8 -209 -151 -320q-145 -112 -415 -112q-283 0 -426 129q-142 129 -142 409v202q0 278 142 405t426 127q273 0 416 -110t150 -316h-441q-6 61 -34 90q-28 30 -91 30q-71 0 -98 -38q-28 -39 -28 -135v-18h319v-272h-319v-18q0 -99 27 -138
t95 -39q64 0 91 30z" />
    <glyph glyph-name="uni0405" unicode="&#x405;" horiz-adv-x="1186" 
d="M179 61q-131 86 -131 300q0 29 2 53h442q-3 -80 18 -114q22 -36 77 -36q49 0 74 16t25 47q0 37 -28 61t-120 51q-204 59 -310 130q-109 73 -146 154q-38 84 -38 193q0 155 134 251t409 96q310 0 432 -107q121 -106 109 -319h-428q6 68 -23 103q-28 34 -76 34
q-88 0 -88 -60q0 -34 26 -57q27 -24 114 -45q198 -50 311 -120q108 -67 148 -151q39 -83 39 -196q0 -370 -571 -370q-270 0 -401 86z" />
    <glyph glyph-name="uni0406" unicode="&#x406;" horiz-adv-x="629" 
d="M545 0h-460v1238h460v-1238z" />
    <glyph glyph-name="uni0407" unicode="&#x407;" horiz-adv-x="629" 
d="M545 0h-460v1238h460v-1238zM41 1356q-37 37 -37 98q0 62 37 99t99 37q61 0 98 -37q38 -38 38 -99q0 -60 -38 -98t-98 -38q-61 0 -99 38zM391 1356q-37 37 -37 98q0 62 37 99t99 37q61 0 98 -37q38 -38 38 -99q0 -60 -38 -98t-98 -38q-61 0 -99 38z" />
    <glyph glyph-name="uni0408" unicode="&#x408;" horiz-adv-x="742" 
d="M28 0v318h71q57 0 80 29t23 93v798h459v-768q0 -195 -38 -291q-39 -99 -139 -139q-99 -40 -297 -40h-159z" />
    <glyph glyph-name="uni0409" unicode="&#x409;" horiz-adv-x="1929" 
d="M1415 907q251 0 366 -108q117 -110 117 -346q0 -235 -117 -344q-116 -109 -366 -109h-605v920h-191l-12 -393q-6 -215 -53 -325q-49 -115 -144 -158q-97 -44 -263 -44h-138v371h23q77 0 109 44q33 45 34 154l7 669h1088v-331h145zM1326 310q75 0 106 30q32 31 32 113
q0 83 -32 114t-106 31h-56v-288h56z" />
    <glyph glyph-name="uni040A" unicode="&#x40a;" horiz-adv-x="1902" 
d="M1388 833q170 0 275 -39q107 -40 157 -130q51 -92 51 -248q0 -155 -51 -247q-50 -90 -157 -130q-105 -39 -275 -39h-613v515h-230v-515h-460v1238h460v-405h230v405h459v-405h154zM1300 309q71 0 105 23q33 22 33 84t-33 85q-32 22 -105 22h-66v-214h66z" />
    <glyph glyph-name="uni040B" unicode="&#x40b;" horiz-adv-x="1448" 
d="M1311 684q106 -97 106 -300v-384h-434v331q0 58 -28 85q-27 26 -85 26q-56 0 -102 -7v-435h-460v920h-276v318h1153v-318h-417v-149q107 11 210 11q226 0 333 -98z" />
    <glyph glyph-name="uni040C" unicode="&#x40c;" horiz-adv-x="1289" 
d="M1298 0h-513l-168 446h-72v-446h-460v1238h460v-424h69l143 424h509l-261 -612zM423 1326l208 266h414l-313 -266h-309z" />
    <glyph glyph-name="uni040D" unicode="&#x40d;" horiz-adv-x="1326" 
d="M1242 1238v-1238h-446v559l-262 -559h-449v1238h447v-555l260 555h450zM233 1592h414l209 -266h-310z" />
    <glyph glyph-name="uni040E" unicode="&#x40e;" horiz-adv-x="1186" 
d="M746 1238h469l-377 -868q-61 -143 -130 -220q-70 -79 -169 -115q-96 -35 -247 -35h-142v338h96q91 0 147 32l-411 868h469l159 -394zM1008 1652q0 -197 -95 -279t-313 -82t-313 82q-96 83 -96 279h334q0 -49 18 -70q17 -20 57 -20q41 0 57 20q17 22 17 70h334z" />
    <glyph glyph-name="uni040F" unicode="&#x40f;" horiz-adv-x="1319" 
d="M775 318v920h459v-1238h-371v-235h-407v235h-371v1238h460v-920h230z" />
    <glyph glyph-name="uni0410" unicode="&#x410;" horiz-adv-x="1236" 
d="M1265 0h-487l-37 196h-244l-39 -196h-486l375 1238h543zM619 829l-67 -350h134z" />
    <glyph glyph-name="uni0411" unicode="&#x411;" horiz-adv-x="1225" 
d="M720 801q252 0 362 -97q112 -98 112 -301q0 -202 -113 -303q-112 -100 -361 -100h-635v1238h1008v-318h-548v-119h175zM630 295q68 0 100 26q30 24 30 82q0 62 -30 86q-32 26 -100 26h-85v-220h85z" />
    <glyph glyph-name="uni0412" unicode="&#x412;" horiz-adv-x="1257" 
d="M1171 546q51 -72 51 -187q0 -173 -108 -266t-313 -93h-716v1238h690q202 0 306 -85q106 -86 106 -242q0 -102 -40 -169q-41 -68 -105 -96q77 -27 129 -100zM653 750q118 0 118 95q0 53 -28 75q-29 23 -90 23h-117v-193h117zM633 295q69 0 102 24t33 79q0 57 -32 80
t-103 23h-97v-206h97z" />
    <glyph glyph-name="uni0413" unicode="&#x413;" horiz-adv-x="1034" 
d="M1012 1238v-318h-467v-920h-460v1238h927z" />
    <glyph glyph-name="uni0414" unicode="&#x414;" horiz-adv-x="1482" 
d="M1323 318h141v-553h-406v235h-642v-235h-407v553h51q78 0 111 44q32 43 34 154l20 722h1098v-920zM863 318v602h-202l-12 -393q-2 -119 -19 -209h233z" />
    <glyph glyph-name="uni0415" unicode="&#x415;" horiz-adv-x="1101" 
d="M545 481v-163h511v-318h-971v1238h960v-318h-500v-138h429v-301h-429z" />
    <glyph glyph-name="uni0416" unicode="&#x416;" horiz-adv-x="1913" 
d="M1922 0h-495l-168 446h-72v-446h-460v446h-71l-170 -446h-495l280 626l-248 612h492l146 -424h66v424h460v-424h67l145 424h492l-246 -612z" />
    <glyph glyph-name="uni0417" unicode="&#x417;" horiz-adv-x="1229" 
d="M1135 551q59 -74 59 -192q0 -182 -125 -283t-393 -101h-108q-281 0 -404 103q-122 102 -122 288v51h437v-10q0 -58 29 -89q28 -30 95 -30h12q122 0 122 99q0 49 -31 76q-32 27 -91 27h-185v267h191q50 0 78 25t28 69q0 45 -30 72t-85 27h-14q-61 0 -93 -29
q-31 -28 -31 -81v-7h-432v39q0 391 515 391h97q258 0 384 -90t126 -252q0 -111 -50 -182t-127 -90q91 -26 148 -98z" />
    <glyph glyph-name="uni0418" unicode="&#x418;" horiz-adv-x="1326" 
d="M1242 1238v-1238h-446v559l-262 -559h-449v1238h447v-555l260 555h450z" />
    <glyph glyph-name="uni0419" unicode="&#x419;" horiz-adv-x="1326" 
d="M1242 1238v-1238h-446v559l-262 -559h-449v1238h447v-555l260 555h450zM1065 1652q0 -196 -96 -279q-95 -82 -313 -82t-313 82t-95 279h334q0 -49 18 -70q17 -20 56 -20q42 0 58 20t16 70h335z" />
    <glyph glyph-name="uni041A" unicode="&#x41a;" horiz-adv-x="1289" 
d="M1298 0h-513l-168 446h-72v-446h-460v1238h460v-424h69l143 424h509l-261 -612z" />
    <glyph glyph-name="uni041B" unicode="&#x41b;" horiz-adv-x="1340" 
d="M1256 0h-460v920h-191l-13 -393q-6 -215 -53 -325q-49 -116 -143 -158q-97 -44 -263 -44h-124v371h9q77 0 109 44q33 45 34 154l7 669h1088v-1238z" />
    <glyph glyph-name="uni041C" unicode="&#x41c;" horiz-adv-x="1687" 
d="M844 746l97 492h661v-1238h-431v787l-138 -617h-379l-138 617v-787h-431v1238h661z" />
    <glyph glyph-name="uni041D" unicode="&#x41d;" horiz-adv-x="1319" 
d="M775 798v440h459v-1238h-459v479h-230v-479h-460v1238h460v-440h230z" />
    <glyph glyph-name="uni041E" unicode="&#x41e;" horiz-adv-x="1239" 
d="M195 104q-142 130 -142 409v216q0 278 142 406t426 128q283 0 425 -128q141 -128 141 -406v-216q0 -280 -141 -409t-425 -129q-285 0 -426 129zM701 319q26 37 26 113v374q0 76 -26 113q-25 36 -80 36q-108 0 -108 -149v-374q0 -149 108 -149q55 0 80 36z" />
    <glyph glyph-name="uni041F" unicode="&#x41f;" horiz-adv-x="1319" 
d="M1234 1238v-1238h-459v920h-230v-920h-460v1238h1149z" />
    <glyph glyph-name="uni0420" unicode="&#x420;" horiz-adv-x="1206" 
d="M1057 1126q117 -113 117 -353q0 -243 -117 -355q-116 -112 -373 -112h-138l-1 -306h-460v1238h599q257 0 373 -112zM603 615q72 0 105 33t33 125q0 90 -33 123q-32 32 -105 32h-51l-4 -313h55z" />
    <glyph glyph-name="uni0421" unicode="&#x421;" horiz-adv-x="1234" 
d="M195 104q-142 129 -142 409v216q0 278 142 405t426 127q285 0 430 -131q144 -130 136 -419h-460q0 95 -10 153q-9 52 -32 72q-22 19 -64 19q-60 0 -84 -38q-24 -37 -24 -135v-322q0 -96 24 -137q24 -40 84 -40q42 0 63 20q24 23 33 74q10 58 10 154h460q0 -291 -142 -424
q-141 -132 -424 -132t-426 129z" />
    <glyph glyph-name="uni0422" unicode="&#x422;" horiz-adv-x="1075" 
d="M1043 1238v-318h-275v-920h-460v920h-276v318h1011z" />
    <glyph glyph-name="uni0423" unicode="&#x423;" horiz-adv-x="1186" 
d="M746 1238h469l-377 -868q-61 -143 -130 -220q-70 -79 -169 -115q-96 -35 -247 -35h-142v338h96q91 0 147 32l-411 868h469l159 -394z" />
    <glyph glyph-name="uni0424" unicode="&#x424;" horiz-adv-x="1879" 
d="M1169 1220q320 0 493 -135q172 -135 172 -434v-60q0 -301 -172 -437t-493 -136v-124h-460v124h-2q-320 0 -490 136q-171 136 -171 437v60q0 298 172 434q171 135 491 135v124h460v-124zM506 562q0 -236 203 -237v588q-203 -1 -203 -237v-114zM1374 676q0 236 -205 237
v-588q205 1 205 237v114z" />
    <glyph glyph-name="uni0425" unicode="&#x425;" horiz-adv-x="1260" 
d="M923 635l356 -635h-517l-131 329l-132 -329h-517l354 635l-324 603h499l119 -313l120 313h499z" />
    <glyph glyph-name="uni0426" unicode="&#x426;" horiz-adv-x="1383" 
d="M959 0h-874v1238h460v-920h230v920h459v-920h131v-553h-406v235z" />
    <glyph glyph-name="uni0427" unicode="&#x427;" horiz-adv-x="1276" 
d="M732 1238h460v-1238h-460v394q-84 -7 -166 -7q-200 0 -311 46q-115 47 -162 151q-49 107 -49 288v366h448v-343q0 -91 33 -124q34 -34 119 -34q6 0 17.5 0.5t32.5 1.5t38 2v497z" />
    <glyph glyph-name="uni0428" unicode="&#x428;" horiz-adv-x="1991" 
d="M1447 318v920h460v-1238h-1822v1238h460v-920h221v920h460v-920h221z" />
    <glyph glyph-name="uni0429" unicode="&#x429;" horiz-adv-x="2055" 
d="M1631 0h-1546v1238h460v-920h221v920h460v-920h221v920h460v-920h130v-553h-406v235z" />
    <glyph glyph-name="uni042A" unicode="&#x42a;" horiz-adv-x="1434" 
d="M920 907q251 0 366 -108q116 -109 116 -346q0 -235 -116 -344t-366 -109h-612v920h-276v318h736v-331h152zM831 309q73 0 105 31q33 31 33 113q0 83 -33 114q-32 31 -105 31h-63v-289h63z" />
    <glyph glyph-name="uni042B" unicode="&#x42b;" horiz-adv-x="1807" 
d="M697 907q251 0 366 -108q117 -110 117 -346q0 -235 -117 -344q-116 -109 -366 -109h-612v1238h460v-331h152zM1263 0v1238h460v-1238h-460zM608 309q74 0 106 31t32 113q0 83 -32 114t-106 31h-63v-289h63z" />
    <glyph glyph-name="uni042C" unicode="&#x42c;" horiz-adv-x="1211" 
d="M697 907q251 0 366 -108q117 -110 117 -346q0 -235 -117 -344q-116 -109 -366 -109h-612v1238h460v-331h152zM608 309q74 0 106 31t32 113q0 83 -32 114t-106 31h-63v-289h63z" />
    <glyph glyph-name="uni042D" unicode="&#x42d;" horiz-adv-x="1239" 
d="M1044 1127q143 -128 143 -405v-202q0 -280 -143 -409q-142 -129 -425 -129q-271 0 -416 112q-142 110 -150 320h444q8 -65 34 -94q27 -30 92 -30q68 0 95 39t27 138v18h-319v272h319v18q0 96 -28 135q-27 38 -98 38q-63 0 -91 -30q-29 -31 -35 -90h-440q8 207 149 316
q143 110 417 110q283 0 425 -127z" />
    <glyph glyph-name="uni042E" unicode="&#x42e;" horiz-adv-x="1821" 
d="M1628 1135q141 -128 141 -406v-216q0 -280 -141 -409t-425 -129q-269 0 -410 114q-139 113 -156 360h-92v-449h-460v1238h460v-439h92q18 242 158 352q142 112 408 112q283 0 425 -128zM1309 806q0 76 -26 113q-25 36 -80 36q-108 0 -108 -149v-374q0 -149 108 -149
q55 0 80 36q26 37 26 113v374z" />
    <glyph glyph-name="uni042F" unicode="&#x42f;" horiz-adv-x="1252" 
d="M1167 0h-460v364h-65l-136 -364h-474l198 426q-177 100 -177 375q0 222 119 329q120 108 344 108h651v-1238zM707 665v272h-70q-71 0 -100 -30q-29 -31 -29 -106q0 -73 30 -104q30 -32 99 -32h70z" />
    <glyph glyph-name="uni0430" unicode="&#x430;" horiz-adv-x="1080" 
d="M811 949q101 -41 148 -131t47 -247v-571h-422v74q-44 -44 -110 -65t-133 -21q-142 0 -223 80q-83 81 -83 215q0 334 536 366q-12 31 -41 45q-27 13 -83 13q-69 0 -144 -14q-71 -13 -172 -42l-53 262q100 27 235 52q131 24 233 24q166 0 265 -40zM561 292q23 26 23 67v76
q-81 -13 -115 -40q-34 -26 -34 -64q0 -28 18 -46t48 -18q38 0 60 25z" />
    <glyph glyph-name="uni0431" unicode="&#x431;" horiz-adv-x="1153" 
d="M991 751q120 -117 120 -325q0 -210 -132 -326q-133 -116 -392 -116q-271 0 -408 137t-137 438q0 292 108 457t336 204l94 16q67 12 97 29q28 16 34 51l2 10l304 2l-2 -40q-8 -158 -75 -242q-68 -84 -233 -107l-88 -12q-94 -12 -146 -44q-49 -30 -75 -87q87 72 274 72
q199 0 319 -117zM667 306q26 42 26 118q0 78 -26 120q-27 43 -80 43t-80 -44q-28 -45 -28 -119q0 -73 28 -118q27 -44 80 -44t80 44z" />
    <glyph glyph-name="uni0432" unicode="&#x432;" horiz-adv-x="1142" 
d="M1111 285q0 -144 -106 -214q-107 -71 -319 -71h-601l-2 973h609q200 0 297 -67q95 -65 95 -197q0 -164 -117 -212q144 -48 144 -212zM580 582q46 0 68 17q21 17 21 57q0 41 -21 59q-22 19 -66 19h-57v-152h55zM582 239q45 0 66 18t21 61q0 41 -23 59q-21 17 -66 17h-53
v-155h55z" />
    <glyph glyph-name="uni0433" unicode="&#x433;" horiz-adv-x="900" 
d="M527 0h-442l-2 973h789v-329h-347z" />
    <glyph glyph-name="uni0434" unicode="&#x434;" horiz-adv-x="1360" 
d="M27 -193v522h56q59 0 81 26q21 26 23 107l16 511h1001v-644h124v-522h-424v193h-453v-193h-424zM768 329v315h-151l-7 -193q-2 -50 -9 -122h167z" />
    <glyph glyph-name="uni0435" unicode="&#x435;" horiz-adv-x="1107" 
d="M1061 472q0 -26 -3 -83h-586q8 -75 28 -103q22 -30 52 -30q58 0 69 80h431q-29 -165 -152 -255q-125 -92 -348 -92q-249 0 -380 125q-130 124 -130 371t130 373q129 125 380 125q509 0 509 -511zM501 691q-20 -28 -29 -102h159q-3 73 -24 101t-55 28q-32 0 -51 -27z" />
    <glyph glyph-name="uni0436" unicode="&#x436;" horiz-adv-x="1736" 
d="M1728 0h-451l-127 320h-61v-320h-442v320h-60l-127 -320h-451l219 479l-186 494h451l99 -324h55v324h442v-324h55l99 324h451l-185 -494z" />
    <glyph glyph-name="uni0437" unicode="&#x437;" horiz-adv-x="1101" 
d="M1037 421q33 -57 33 -127q0 -312 -509 -312h-6q-181 0 -297 37q-114 36 -167 115q-54 80 -54 213v5h425v-7q0 -55 21 -79t72 -24h4q87 0 87 73q0 69 -89 69h-55v216h55q48 0 67 15q22 17 22 52q0 70 -87 70h-2q-54 0 -74 -24q-21 -25 -21 -80v-12h-425v5q0 197 123 284
t394 87h5q265 0 379 -71q116 -72 116 -229q0 -62 -30 -119q-30 -56 -101 -79q81 -21 114 -78z" />
    <glyph glyph-name="uni0438" unicode="&#x438;" horiz-adv-x="1225" 
d="M700 973h442v-973h-442v389l-173 -389h-442l-2 973h442v-391z" />
    <glyph glyph-name="uni0439" unicode="&#x439;" horiz-adv-x="1225" 
d="M317 1120q-91 78 -91 263h319q0 -47 17 -66t53 -19q37 0 54 19t17 66h317q0 -185 -90 -263t-298 -78q-207 0 -298 78zM700 973h442v-973h-442v389l-173 -389h-442l-2 973h442v-391z" />
    <glyph glyph-name="uni043A" unicode="&#x43a;" horiz-adv-x="1172" 
d="M1164 0h-451l-128 320h-60v-320h-442v973h442v-324h55l99 324h451l-186 -494z" />
    <glyph glyph-name="uni043B" unicode="&#x43b;" horiz-adv-x="1257" 
d="M1174 0h-442v644h-147l-5 -193q-6 -176 -47 -270q-43 -98 -130 -139q-89 -42 -242 -42h-129v364h35q47 0 70 29t24 104l7 476h1006v-973z" />
    <glyph glyph-name="uni043C" unicode="&#x43c;" horiz-adv-x="1589" 
d="M1507 973v-973h-425v449l-131 -449h-311l-131 453v-453h-424l-2 973h586l127 -437l127 437h584z" />
    <glyph glyph-name="uni043D" unicode="&#x43d;" horiz-adv-x="1222" 
d="M697 649v324h442v-973h-442v320h-170v-320h-442l-2 973h442v-324h172z" />
    <glyph glyph-name="uni043E" unicode="&#x43e;" horiz-adv-x="1131" 
d="M42 485q0 504 524 504q523 0 523 -504q0 -501 -523 -501q-524 0 -524 501zM641 315q24 53 24 171q0 120 -24 172q-24 53 -75 53t-75 -53q-24 -52 -24 -172q0 -118 24 -171t75 -53t75 53z" />
    <glyph glyph-name="uni043F" unicode="&#x43f;" horiz-adv-x="1218" 
d="M1135 973v-973h-442v644h-168l2 -644h-442l-2 973h1052z" />
    <glyph glyph-name="uni0440" unicode="&#x440;" horiz-adv-x="1193" 
d="M1051 857q100 -122 100 -371q0 -248 -100 -370q-101 -123 -306 -123q-64 0 -123 17q-58 17 -97 50v-414h-442v1327h442v-64q37 34 97 53q57 18 123 18q205 0 306 -123zM685 315q24 53 24 171q0 120 -24 172q-24 53 -75 53t-75 -53q-24 -52 -24 -172q0 -118 24 -171
t75 -53t75 53z" />
    <glyph glyph-name="uni0441" unicode="&#x441;" horiz-adv-x="1114" 
d="M42 485q0 498 517 498q485 0 513 -424h-434q-7 72 -16 97q-12 32 -27 41t-36 9q-30 0 -48 -18q-17 -17 -26 -65t-9 -138q0 -89 9 -136q9 -48 26 -63q19 -17 48 -17q23 0 37 9q14 10 26 40q9 24 16 98h434q-29 -427 -513 -427q-517 0 -517 496z" />
    <glyph glyph-name="uni0442" unicode="&#x442;" horiz-adv-x="1020" 
d="M989 973v-329h-259l2 -644h-442l-2 644h-256v329h957z" />
    <glyph glyph-name="uni0443" unicode="&#x443;" horiz-adv-x="1114" 
d="M561 559l122 414h442l-520 -1327h-412l154 384l-358 943h464z" />
    <glyph glyph-name="uni0444" unicode="&#x444;" horiz-adv-x="1779" 
d="M1637 857q100 -122 100 -371q0 -248 -100 -370q-101 -123 -307 -123q-64 0 -123 17q-56 16 -96 50v-414h-442v414q-39 -33 -97 -50q-59 -17 -123 -17q-207 0 -307 123q-100 122 -100 370q0 249 100 371q100 123 307 123q66 0 123 -18q60 -19 97 -53v417h442v-417
q37 34 96 53q57 18 123 18q206 0 307 -123zM646 316q23 55 23 170q0 116 -23 171q-23 54 -68 54q-51 0 -72 -52q-21 -53 -21 -173q0 -119 21 -172q21 -52 72 -52q46 0 68 54zM1274 314q21 52 21 172t-21 173q-21 52 -71 52q-47 0 -69 -54q-23 -55 -23 -171q0 -115 23 -170
q22 -54 69 -54q50 0 71 52z" />
    <glyph glyph-name="uni0445" unicode="&#x445;" horiz-adv-x="1103" 
d="M842 493l270 -493h-456l-104 258l-105 -258h-456l274 493l-247 480h456l78 -258l78 258h456z" />
    <glyph glyph-name="uni0446" unicode="&#x446;" horiz-adv-x="1278" 
d="M1259 -193h-424v193h-750l-2 973h442l2 -644h166v644h442v-644h124v-522z" />
    <glyph glyph-name="uni0447" unicode="&#x447;" horiz-adv-x="1199" 
d="M674 973h442v-973h-442v285q-92 -18 -195 -18q-225 0 -327 111t-102 365v230h442v-216q0 -85 24 -119q25 -35 78 -35q49 0 80 7v363z" />
    <glyph glyph-name="uni0448" unicode="&#x448;" horiz-adv-x="1819" 
d="M1295 329v644h442v-973h-1652l-2 973h442l2 -644h163v644h442v-644h163z" />
    <glyph glyph-name="uni0449" unicode="&#x449;" horiz-adv-x="1869" 
d="M1850 -193h-425v193h-1340l-2 973h442l2 -644h163v644h442v-644h163v644h442v-644h113v-522z" />
    <glyph glyph-name="uni044A" unicode="&#x44a;" horiz-adv-x="1319" 
d="M870 707q425 0 425 -344q0 -184 -114 -274q-113 -89 -311 -89h-606v644h-232v329h674v-266h164zM753 271q99 0 99 83t-99 83h-47v-166h47z" />
    <glyph glyph-name="uni044B" unicode="&#x44b;" horiz-adv-x="1750" 
d="M690 707q424 0 424 -344q0 -184 -114 -274q-113 -89 -310 -89h-607v973h442v-266h165zM1208 0v973h460v-973h-460zM573 271q99 0 99 83t-99 83h-48v-166h48z" />
    <glyph glyph-name="uni044C" unicode="&#x44c;" horiz-adv-x="1138" 
d="M690 707q424 0 424 -344q0 -184 -114 -274q-113 -89 -310 -89h-607v973h442v-266h165zM573 271q99 0 99 83t-99 83h-48v-166h48z" />
    <glyph glyph-name="uni044D" unicode="&#x44d;" horiz-adv-x="1098" 
d="M1056 485q0 -496 -517 -496q-213 0 -344 84q-132 85 -154 251h419q9 -28 30 -41q22 -14 49 -14q81 0 89 102h-260v216h260q-1 63 -25 91q-23 28 -64 28q-31 0 -54 -20q-21 -18 -30 -51h-418q21 174 153 261t349 87q517 0 517 -498z" />
    <glyph glyph-name="uni044E" unicode="&#x44e;" horiz-adv-x="1657" 
d="M1615 485q0 -501 -524 -501q-428 0 -506 336h-77v-320h-425v973h425v-324h76q78 340 507 340q524 0 524 -504zM1166 315q24 53 24 171q0 120 -24 172q-24 53 -75 53t-75 -53t-24 -172q0 -118 24 -171t75 -53t75 53z" />
    <glyph glyph-name="uni044F" unicode="&#x44f;" horiz-adv-x="1188" 
d="M1105 0h-442v265h-51l-104 -265l-451 -5l153 327q-143 80 -143 288q0 186 108 274q109 89 299 89h631v-973zM663 536v166h-48q-99 0 -99 -83t99 -83h48z" />
    <glyph glyph-name="uni0450" unicode="&#x450;" horiz-adv-x="1107" 
d="M1061 472q0 -26 -3 -83h-586q8 -75 28 -103q22 -30 52 -30q58 0 69 80h431q-29 -165 -152 -255q-125 -92 -348 -92q-249 0 -380 125q-130 124 -130 371t130 373q129 125 380 125q509 0 509 -511zM501 691q-20 -28 -29 -102h159q-3 73 -24 101t-55 28q-32 0 -51 -27z
M129 1319h414l209 -265h-310z" />
    <glyph glyph-name="uni0451" unicode="&#x451;" horiz-adv-x="1107" 
d="M1061 472q0 -26 -3 -83h-586q8 -75 28 -103q22 -30 52 -30q58 0 69 80h431q-29 -165 -152 -255q-125 -92 -348 -92q-249 0 -380 125q-130 124 -130 371t130 373q129 125 380 125q509 0 509 -511zM501 691q-20 -28 -29 -102h159q-3 73 -24 101t-55 28q-32 0 -51 -27z
M278 1083q-37 37 -37 98q0 62 37 99q38 38 99 38q60 0 98 -38t38 -99q0 -60 -38 -98t-98 -38q-61 0 -99 38zM628 1083q-37 37 -37 98q0 62 37 99q38 38 99 38q60 0 98 -38t38 -99q0 -60 -38 -98t-98 -38q-61 0 -99 38z" />
    <glyph glyph-name="uni0452" unicode="&#x452;" horiz-adv-x="1202" 
d="M1047 883q81 -98 81 -299v-584q-2 -138 -39 -213t-129 -108t-268 -33h-114v283h11q59 0 78 22t19 86v547q0 50 -19 73q-19 24 -60 24t-61 -27q-19 -26 -19 -83v-571h-442l-2 1024h-83v212h83v90h442v-90h136v-212h-136v-134q97 92 262 92q178 0 260 -99z" />
    <glyph glyph-name="uni0453" unicode="&#x453;" horiz-adv-x="900" 
d="M527 0h-442l-2 973h789v-329h-347zM260 1061l209 265h414l-314 -265h-309z" />
    <glyph glyph-name="uni0454" unicode="&#x454;" horiz-adv-x="1098" 
d="M608 283q21 13 30 41h420q-22 -166 -154 -251q-130 -84 -345 -84q-517 0 -517 496q0 498 517 498q217 0 349 -87t153 -261h-417q-9 32 -31 51q-23 20 -54 20q-41 0 -64 -28q-24 -28 -25 -91h260v-216h-260q8 -102 89 -102q27 0 49 14z" />
    <glyph glyph-name="uni0455" unicode="&#x455;" horiz-adv-x="1073" 
d="M255 21q-112 32 -166 107q-53 74 -50 204h410q0 -42 21 -60q20 -17 62 -17t60 9t18 31q0 17 -10 26q-13 11 -44 18q-35 8 -101 18q-156 22 -249 64q-90 41 -126 102t-36 153q0 142 120 225q119 82 370 82q256 0 373 -87t108 -238h-405q0 38 -18 54q-19 17 -58 17
q-71 0 -71 -39q0 -21 30 -33q28 -11 117 -22q165 -21 258 -65q94 -45 127 -108q34 -65 34 -163q0 -144 -118 -226q-121 -84 -366 -84q-177 0 -290 32z" />
    <glyph glyph-name="uni0456" unicode="&#x456;" horiz-adv-x="608" 
d="M525 1397v-311h-442v311h442zM83 973h442v-973h-442v973z" />
    <glyph glyph-name="uni0457" unicode="&#x457;" horiz-adv-x="626" 
d="M83 973h460v-973h-460v973zM39 1090q-37 37 -37 98q0 63 37 100t99 37q61 0 98 -37q38 -38 38 -100q0 -60 -38 -98t-98 -38q-61 0 -99 38zM389 1090q-37 37 -37 98q0 63 37 100t99 37q61 0 98 -37q38 -38 38 -100q0 -60 -38 -98t-98 -38q-61 0 -99 38z" />
    <glyph glyph-name="uni0458" unicode="&#x458;" horiz-adv-x="631" 
d="M548 1086h-442v311h442v-311zM-2 -354v283h11q59 0 78 22t19 86v936h442v-952q0 -149 -35 -226q-36 -80 -128 -114q-94 -35 -274 -35h-113z" />
    <glyph glyph-name="uni0459" unicode="&#x459;" horiz-adv-x="1800" 
d="M1351 707q425 0 425 -344q0 -184 -114 -274q-113 -89 -311 -89h-619v644h-147l-5 -193q-6 -176 -47 -270q-43 -98 -130 -139q-89 -42 -242 -42h-129v364h35q47 0 70 29t24 104l7 476h1006v-266h177zM1234 271q99 0 99 83t-99 83h-60v-166h60z" />
    <glyph glyph-name="uni045A" unicode="&#x45a;" horiz-adv-x="1734" 
d="M1286 690q424 0 424 -343q0 -347 -424 -347h-589v359h-170v-359h-442l-2 973h442v-283h172v283h442v-283h147zM1169 271q52 0 75 16q24 17 24 56q0 40 -24 58t-75 18h-30v-148h30z" />
    <glyph glyph-name="uni045B" unicode="&#x45b;" horiz-adv-x="1202" 
d="M1047 883q81 -98 81 -299v-584h-442v584q0 50 -19 73q-19 24 -60 24t-61 -27q-19 -26 -19 -85v-569h-442l-2 1029h-83v186h83v111h442v-111h136v-186h-136v-139q97 92 262 92q178 0 260 -99z" />
    <glyph glyph-name="uni045C" unicode="&#x45c;" horiz-adv-x="1172" 
d="M1164 0h-451l-128 320h-60v-320h-442v973h442v-324h55l99 324h451l-186 -494zM391 1061l209 265h413l-313 -265h-309z" />
    <glyph glyph-name="uni045D" unicode="&#x45d;" horiz-adv-x="1225" 
d="M700 973h442v-973h-442v389l-173 -389h-442l-2 973h442v-391zM193 1344h414l208 -265h-309z" />
    <glyph glyph-name="uni045E" unicode="&#x45e;" horiz-adv-x="1114" 
d="M561 559l122 414h442l-520 -1327h-412l154 384l-358 943h464zM918 1387q0 -197 -96 -279q-95 -82 -313 -82t-313 82t-95 279h334q0 -49 18 -70t56 -21q41 0 58 21q17 22 17 70h334z" />
    <glyph glyph-name="uni045F" unicode="&#x45f;" horiz-adv-x="1218" 
d="M693 329v644h442v-973h-313v-193h-424v193h-313l-2 973h442l2 -644h166z" />
    <glyph glyph-name="uni0462" unicode="&#x462;" horiz-adv-x="1340" 
d="M890 780q209 0 314 -99t105 -292q0 -191 -105 -290t-314 -99h-642v879h-216v251h216v108h406v-108h301v-251h-301v-99h236zM780 306q92 0 92 83q0 85 -92 85h-126v-168h126z" />
    <glyph glyph-name="uni0463" unicode="&#x463;" horiz-adv-x="1259" 
d="M810 707q424 0 424 -344q0 -184 -114 -274q-113 -89 -310 -89h-607v833h-203v311h203v182h443v-182h311v-311h-311v-126h164zM693 271q99 0 99 83t-99 83h-47v-166h47z" />
    <glyph glyph-name="uni0490" unicode="&#x490;" horiz-adv-x="1034" 
d="M605 1238v235h407v-553h-467v-920h-460v1238h520z" />
    <glyph glyph-name="uni0491" unicode="&#x491;" horiz-adv-x="900" 
d="M527 0h-442l-2 973h364v192h425v-521h-347z" />
    <glyph glyph-name="uni04C1" unicode="&#x4c1;" horiz-adv-x="1913" 
d="M1922 0h-495l-168 446h-72v-446h-460v446h-71l-170 -446h-495l280 626l-248 612h492l146 -424h66v424h460v-424h67l145 424h492l-246 -612zM1365 1652q0 -197 -95 -279t-313 -82t-313 82q-96 83 -96 279h335q0 -50 17 -70t57 -20q41 0 57 20q17 22 17 70h334z" />
    <glyph glyph-name="uni04C2" unicode="&#x4c2;" horiz-adv-x="1736" 
d="M1728 0h-451l-127 320h-61v-320h-442v320h-60l-127 -320h-451l219 479l-186 494h451l99 -324h55v324h442v-324h55l99 324h451l-185 -494zM1277 1387q0 -197 -96 -279q-95 -82 -313 -82t-313 82t-95 279h334q0 -49 18 -70t56 -21q42 0 58 21q17 22 17 70h334z" />
    <glyph glyph-name="uni04F8" unicode="&#x4f8;" horiz-adv-x="1807" 
d="M697 907q251 0 366 -108q117 -110 117 -346q0 -235 -117 -344q-116 -109 -366 -109h-612v1238h460v-331h152zM1263 0v1238h460v-1238h-460zM608 309q74 0 106 31t32 113q0 83 -32 114t-106 31h-63v-289h63zM633 1356q-37 37 -37 98q0 62 37 99t99 37q61 0 98 -37
q38 -38 38 -99q0 -60 -38 -98t-98 -38q-61 0 -99 38zM983 1356q-37 37 -37 98q0 62 37 99t99 37t99 -37q38 -38 38 -99q0 -60 -38 -98t-99 -38t-99 38z" />
    <glyph glyph-name="uni04F9" unicode="&#x4f9;" horiz-adv-x="1750" 
d="M690 707q424 0 424 -344q0 -184 -114 -274q-113 -89 -310 -89h-607v973h442v-266h165zM1208 0v973h460v-973h-460zM573 271q99 0 99 83t-99 83h-48v-166h48zM596 1090q-37 37 -37 98q0 63 37 100t99 37q61 0 98 -37q38 -38 38 -100q0 -60 -38 -98t-98 -38q-61 0 -99 38z
M946 1090q-37 37 -37 98q0 63 37 100t99 37q61 0 98 -37q38 -38 38 -100q0 -60 -38 -98t-98 -38q-61 0 -99 38z" />
    <glyph glyph-name="uni05B0" unicode="&#x5b0;" 
d="M458 -295q-30 30 -30 74q0 42 30 72q31 31 73 31q41 0 72 -31q30 -30 30 -72q0 -44 -30 -74t-72 -30q-43 0 -73 30zM458 -580q-30 30 -30 74q0 43 30 73t73 30q42 0 72 -30t30 -73q0 -44 -30 -74t-72 -30q-43 0 -73 30z" />
    <glyph glyph-name="uni05B1" unicode="&#x5b1;" 
d="M715 -295q-31 31 -31 74q0 41 31 72t72 31q42 0 73 -31q30 -30 30 -72q0 -44 -30 -74t-73 -30q-42 0 -72 30zM715 -580q-31 31 -31 74q0 42 31 73q30 30 72 30q43 0 73 -30t30 -73q0 -44 -30 -74t-73 -30q-42 0 -72 30zM190 -295q-29 31 -29 74q0 41 29 72t74 31
q44 0 73 -31t29 -72q0 -43 -29 -74q-29 -30 -73 -30q-46 0 -74 30zM462 -295q-29 31 -29 74q0 41 29 72t74 31q44 0 73 -31t29 -72q0 -43 -29 -74q-29 -30 -73 -30q-46 0 -74 30zM326 -539q-29 31 -29 74q0 41 29 72q28 30 74 30q44 0 73 -30q29 -31 29 -72q0 -43 -29 -74
q-29 -30 -73 -30q-46 0 -74 30z" />
    <glyph glyph-name="uni05B2" unicode="&#x5b2;" 
d="M147 -283v149h470v-149h-470zM718 -295q-30 30 -30 74q0 42 30 72q31 31 73 31q41 0 72 -31q30 -30 30 -72q0 -44 -30 -74t-72 -30q-43 0 -73 30zM718 -580q-30 30 -30 74q0 43 30 73t73 30q42 0 72 -30t30 -73q0 -44 -30 -74t-72 -30q-43 0 -73 30z" />
    <glyph glyph-name="uni05B3" unicode="&#x5b3;" 
d="M147 -134h499v-145h-193l30 -154v-119h-172v119l32 154h-196v145zM732 -295q-30 30 -30 74q0 42 30 72q31 31 73 31q41 0 72 -31q30 -30 30 -72q0 -44 -30 -74t-72 -30q-43 0 -73 30zM732 -580q-30 30 -30 74q0 43 30 73t73 30q42 0 72 -30t30 -73q0 -44 -30 -74t-72 -30
q-43 0 -73 30z" />
    <glyph glyph-name="uni05B4" unicode="&#x5b4;" 
d="M450 -312q-33 33 -33 79q0 47 33 80t81 33q45 0 78 -33t33 -80q0 -46 -33 -79t-78 -33q-48 0 -81 33z" />
    <glyph glyph-name="uni05B5" unicode="&#x5b5;" 
d="M321 -295q-29 31 -29 74q0 41 29 72t73 31q45 0 74 -31t29 -72q0 -43 -29 -74q-29 -30 -74 -30q-44 0 -73 30zM593 -295q-29 31 -29 74q0 41 29 72t74 31q44 0 73 -31t29 -72q0 -43 -29 -74q-29 -30 -73 -30q-45 0 -74 30z" />
    <glyph glyph-name="uni05B6" unicode="&#x5b6;" 
d="M321 -295q-29 31 -29 74q0 41 29 72t73 31q45 0 74 -31t29 -72q0 -43 -29 -74q-29 -30 -74 -30q-44 0 -73 30zM593 -295q-29 31 -29 74q0 41 29 72t74 31q44 0 73 -31t29 -72q0 -43 -29 -74q-29 -30 -73 -30q-45 0 -74 30zM457 -539q-29 31 -29 74q0 41 29 72
q28 30 74 30q45 0 73 -30q29 -31 29 -72q0 -43 -29 -74q-29 -30 -73 -30q-45 0 -74 30z" />
    <glyph glyph-name="uni05B7" unicode="&#x5b7;" 
d="M295 -283v149h471v-149h-471z" />
    <glyph glyph-name="uni05B8" unicode="&#x5b8;" 
d="M281 -134h499v-145h-193l30 -154v-119h-171v119l32 154h-197v145z" />
    <glyph glyph-name="uni05B9" unicode="&#x5b9;" 
d="M445 1174q-35 33 -35 83q0 49 35 84t86 35q50 0 84 -34t34 -85q0 -50 -34 -83q-35 -33 -84 -33q-51 0 -86 33z" />
    <glyph glyph-name="uni05BA" unicode="&#x5ba;" 
d="M445 1174q-35 33 -35 83q0 49 35 84t86 35q50 0 84 -34t34 -85q0 -50 -34 -83q-35 -33 -84 -33q-51 0 -86 33z" />
    <glyph glyph-name="uni05BB" unicode="&#x5bb;" 
d="M456 -295q-30 30 -30 74q0 42 30 72q31 31 73 31q41 0 72 -31q30 -30 30 -72q0 -44 -30 -74t-72 -30q-43 0 -73 30zM656 -458q-30 30 -30 74q0 43 30 73t73 30q42 0 72 -30t30 -73q0 -44 -30 -74t-72 -30q-43 0 -73 30zM856 -621q-30 30 -30 75q0 42 30 72t72 30
q43 0 73 -30t30 -72q0 -45 -30 -75t-73 -30q-42 0 -72 30z" />
    <glyph glyph-name="uni05BC" unicode="&#x5bc;" 
d="M475 468q-22 22 -22 55q0 34 22 56t56 22q33 0 55 -22t22 -56q0 -33 -22 -55t-55 -22q-34 0 -56 22z" />
    <glyph glyph-name="uni05BE" unicode="&#x5be;" horiz-adv-x="638" 
d="M64 752v309h511v-309h-511z" />
    <glyph glyph-name="uni05BF" unicode="&#x5bf;" 
d="M313 1158v140h435v-140h-435z" />
    <glyph glyph-name="uni05C1" unicode="&#x5c1;" 
d="M445 1174q-35 33 -35 83q0 49 35 84t86 35q50 0 84 -34t34 -85q0 -50 -34 -83q-35 -33 -84 -33q-51 0 -86 33z" />
    <glyph glyph-name="uni05C2" unicode="&#x5c2;" 
d="M445 1174q-35 33 -35 83q0 49 35 84t86 35q50 0 84 -34t34 -85q0 -50 -34 -83q-35 -33 -84 -33q-51 0 -86 33z" />
    <glyph glyph-name="uni05C3" unicode="&#x5c3;" horiz-adv-x="580" 
d="M69 0v424h442v-424h-442zM69 637v424h442v-424h-442z" />
    <glyph glyph-name="uni05C6" unicode="&#x5c6;" horiz-adv-x="698" 
d="M297 2q-122 0 -180 65q-59 67 -59 202v792h588v-309h-137v-349q0 -52 15 -73t61 -21h66v-309z" />
    <glyph glyph-name="uni05C7" unicode="&#x5c7;" 
d="M364 -118h333v-96h-129l19 -103v-79h-113v79l19 103h-129v96z" />
    <glyph glyph-name="uni05D0" unicode="&#x5d0;" horiz-adv-x="1253" 
d="M1217 0h-451l-271 405q-13 -7 -16 -19q-3 -14 -3 -41v-345h-434v354q0 123 68 211t207 109l-260 387h451l242 -361q13 6 17 18q4 11 4 39v304h433v-309q0 -151 -69 -226q-70 -76 -205 -98z" />
    <glyph glyph-name="uni05D1" unicode="&#x5d1;" horiz-adv-x="1080" 
d="M930 1061v-752h126v-309h-1003v309h426v443h-426v309h877z" />
    <glyph glyph-name="uni05D2" unicode="&#x5d2;" horiz-adv-x="861" 
d="M389 214q-32 -109 -103 -161q-73 -53 -210 -53h-41v345h41q102 0 152 10q53 11 77 41t24 89q0 41 -11 104l-28 163h-177v309h559l186 -1061h-411l-47 214h-11z" />
    <glyph glyph-name="uni05D3" unicode="&#x5d3;" horiz-adv-x="1059" 
d="M42 1061h977v-309h-115v-752h-451v752h-411v309z" />
    <glyph glyph-name="uni05D4" unicode="&#x5d4;" horiz-adv-x="1183" 
d="M57 1061h1066v-1061h-451v752h-615v309zM64 0v584h451v-584h-451z" />
    <glyph glyph-name="uni05D5" unicode="&#x5d5;" horiz-adv-x="571" 
d="M511 1061v-1061h-451v1061h451z" />
    <glyph glyph-name="uni05D6" unicode="&#x5d6;" horiz-adv-x="855" 
d="M815 1061v-309h-162q-22 -25 -38 -58q-14 -30 -14 -86q0 -39 14 -123l94 -485h-445l-68 357q-16 83 -16 149q0 173 114 237l-2 9h-250v309h773z" />
    <glyph glyph-name="uni05D7" unicode="&#x5d7;" horiz-adv-x="1230" 
d="M752 1061q152 0 244 -42t134 -136q43 -95 43 -252v-631h-451v600q0 83 -19 118q-19 34 -82 34h-110v-752h-451v1061h692z" />
    <glyph glyph-name="uni05D8" unicode="&#x5d8;" horiz-adv-x="1282" 
d="M1226 545q0 -208 -58 -329q-57 -119 -179 -167q-124 -49 -329 -49h-511l-122 1061h447l85 -752h19q82 0 125 21q44 21 62 70q18 50 18 145v207h-183v309h626v-516z" />
    <glyph glyph-name="uni05D9" unicode="&#x5d9;" horiz-adv-x="567" 
d="M509 1061v-642h-451v642h451z" />
    <glyph glyph-name="uni05DA" unicode="&#x5da;" horiz-adv-x="930" 
d="M870 -265h-451v1017h-377v309h828v-1326z" />
    <glyph glyph-name="uni05DB" unicode="&#x5db;" horiz-adv-x="953" 
d="M483 1061q219 0 322 -98q102 -97 102 -333v-198q0 -236 -102 -334q-103 -98 -322 -98h-430v309h272q77 0 108 39q32 40 32 119v127q0 79 -32 119q-31 39 -108 39h-272v309h430z" />
    <glyph glyph-name="uni05DC" unicode="&#x5dc;" horiz-adv-x="1013" 
d="M663 0h-460l246 752h-399v486h435v-177h525z" />
    <glyph glyph-name="uni05DD" unicode="&#x5dd;" horiz-adv-x="1184" 
d="M734 1061q140 0 225 -39t126 -126q40 -86 40 -236v-660h-1065v1061h674zM692 617q0 57 -11 90q-10 29 -35 42q-22 11 -71 11h-82v-459h199v316z" />
    <glyph glyph-name="uni05DE" unicode="&#x5de;" horiz-adv-x="1222" 
d="M739 1061q159 0 251 -48t134 -154q41 -103 41 -284v-575h-560v309h120v250q0 87 -7 126q-8 43 -29 60q-24 19 -70 19h-16l-122 -764h-454l129 752h-112v309h695z" />
    <glyph glyph-name="uni05DF" unicode="&#x5df;" horiz-adv-x="571" 
d="M60 1061h451v-1326h-451v1326z" />
    <glyph glyph-name="uni05E0" unicode="&#x5e0;" horiz-adv-x="733" 
d="M48 0v309h95q48 0 65 26t17 91v326h-117v309h568v-721q0 -132 -28 -207q-27 -73 -94 -103q-66 -30 -188 -30h-318z" />
    <glyph glyph-name="uni05E1" unicode="&#x5e1;" horiz-adv-x="1230" 
d="M1174 545q0 -215 -52 -331q-53 -117 -169 -165q-119 -49 -325 -49h-488l-115 1061h1149v-516zM727 760h-225l50 -459h35q59 0 87 15q29 15 41 66t12 163v215z" />
    <glyph glyph-name="uni05E2" unicode="&#x5e2;" horiz-adv-x="1161" 
d="M656 1061h451v-513q0 -156 -61 -259t-168 -166q-108 -64 -264 -107l-504 -142l-85 298l155 46l-162 843h456l118 -723q33 13 45 32q13 22 16 56q3 38 3 131v504z" />
    <glyph glyph-name="uni05E3" unicode="&#x5e3;" horiz-adv-x="1142" 
d="M663 1061q220 0 320 -108q101 -109 101 -345v-873h-451v866q0 78 -21 114q-22 37 -74 37h-52v-354h-435v663h612z" />
    <glyph glyph-name="uni05E4" unicode="&#x5e4;" horiz-adv-x="1110" 
d="M631 1061q157 0 249 -41q95 -42 140 -136q45 -93 45 -254v-198q0 -162 -45 -255t-140 -135q-94 -42 -249 -42h-574v309h458q56 0 82 23t26 82v233q0 67 -26 90t-82 23h-25v-277h-433v578h574z" />
    <glyph glyph-name="uni05E5" unicode="&#x5e5;" horiz-adv-x="1177" 
d="M670 1061h451v-348q0 -217 -110 -326q-111 -109 -297 -129l179 -523h-446l-451 1326h446l170 -497q34 14 46 60t12 145v292z" />
    <glyph glyph-name="uni05E6" unicode="&#x5e6;" horiz-adv-x="1172" 
d="M1118 771q0 -170 -76 -249q-77 -80 -205 -105l249 -417h-1022v309h412l-478 752h455l205 -345q13 10 17 21t4 38v286h439v-290z" />
    <glyph glyph-name="uni05E7" unicode="&#x5e7;" horiz-adv-x="1206" 
d="M1148 437q0 -168 -46 -261q-47 -95 -146 -135q-102 -41 -268 -41h-113v309h12q55 0 82 27q28 28 28 104v312h-642v309h1093v-624zM55 -265v866h451v-866h-451z" />
    <glyph glyph-name="uni05E8" unicode="&#x5e8;" horiz-adv-x="956" 
d="M447 534q0 119 -34 168q-35 50 -121 50h-250v309h411q174 0 271 -53t136 -157q38 -102 38 -276v-575h-451v534z" />
    <glyph glyph-name="uni05E9" unicode="&#x5e9;" horiz-adv-x="1607" 
d="M1551 479q0 -173 -53 -276q-52 -102 -193 -153q-137 -50 -401 -50h-763l-120 1061h434l84 -760h329q111 0 163 24q55 25 73 77q19 55 19 148v511h428v-582zM1020 453h-428v608h428v-608z" />
    <glyph glyph-name="uni05EA" unicode="&#x5ea;" horiz-adv-x="1328" 
d="M775 1061q187 0 294 -45q108 -46 154 -142q47 -99 47 -264v-610h-451v605q0 86 -28 117q-27 30 -92 30h-61v-752h-596v309h156v443h-111v309h688z" />
    <glyph glyph-name="uni05F0" unicode="&#x5f0;" horiz-adv-x="1142" 
d="M1082 1061v-1061h-451v1061h451zM511 1061v-1061h-451v1061h451z" />
    <glyph glyph-name="uni05F1" unicode="&#x5f1;" horiz-adv-x="1188" 
d="M509 1061v-642h-451v642h451zM1128 1061v-1061h-451v1061h451z" />
    <glyph glyph-name="uni05F2" unicode="&#x5f2;" horiz-adv-x="1135" 
d="M1077 1061v-642h-451v642h451zM509 1061v-642h-451v642h451z" />
    <glyph glyph-name="uni05F3" unicode="&#x5f3;" horiz-adv-x="560" 
d="M64 672l60 566h369v-249l-120 -317h-309z" />
    <glyph glyph-name="uni05F4" unicode="&#x5f4;" horiz-adv-x="940" 
d="M64 672l60 566h338v-249l-121 -317h-277zM476 672l60 566h338v-249l-121 -317h-277z" />
    <glyph glyph-name="uni0950" unicode="&#x950;" horiz-adv-x="1398" 
d="M580 1349h265v-168h-265v168zM1100 996q-186 -57 -371 -57q-181 0 -388 57l36 191q183 -55 352 -55q175 0 336 55zM701 360q37 -66 37 -144q0 -125 -96 -206t-260 -81q-101 0 -195 50q-93 50 -159 157l172 138q49 -62 81 -87q35 -28 74 -28q40 0 63 20q22 19 22 56
q0 40 -16 71q-20 37 -51 74l-74 -30l-85 204l166 65q26 9 38 22t12 36q0 18 -13 29q-11 10 -37 10q-62 0 -62 -78h-253q0 155 80 227q79 72 239 72q162 0 243 -60q80 -59 80 -154q0 -87 -25 -143t-86 -97q69 -59 105 -123zM1310 845q84 -92 84 -263v-73q0 -171 -84 -263
t-247 -92q-159 0 -243 92t-84 263v73q0 172 84 263q84 92 243 92q163 0 247 -92zM1105 562q0 84 -8 124q-7 37 -34 37q-24 0 -31 -37q-8 -40 -8 -124v-33q0 -84 8 -124q7 -37 31 -37q27 0 34 37q8 40 8 124v33z" />
    <glyph glyph-name="uni0E3F" unicode="&#xe3f;" horiz-adv-x="1257" 
d="M1171 546q51 -72 51 -187q0 -173 -108 -266t-313 -93h-35v-159h-269v159h-412v1238h412v159h269v-159h9q202 0 306 -85q106 -86 106 -242q0 -102 -40 -169q-41 -68 -105 -96q77 -27 129 -100zM653 750q118 0 118 95q0 53 -28 75q-29 23 -90 23h-117v-193h117zM633 295
q69 0 102 24t33 79q0 57 -32 80t-103 23h-97v-206h97z" />
    <glyph glyph-name="uni1E3E" unicode="&#x1e3e;" horiz-adv-x="1687" 
d="M844 746l97 492h661v-1238h-431v787l-138 -617h-379l-138 617v-787h-431v1238h661zM637 1326l208 266h414l-313 -266h-309z" />
    <glyph glyph-name="uni1E3F" unicode="&#x1e3f;" horiz-adv-x="1759" 
d="M1685 601v-601h-442v584q0 53 -16 75t-51 22q-38 0 -54 -22q-17 -23 -17 -75v-584h-442v584q0 52 -15 75q-15 22 -52 22q-38 0 -54 -22q-17 -23 -17 -75v-584h-442v973h442v-85q94 94 255 94q172 0 258 -122q90 122 295 122q352 0 352 -381zM769 1061l209 265h414
l-313 -265h-310z" />
    <glyph glyph-name="Wgrave" unicode="&#x1e80;" horiz-adv-x="1803" 
d="M1261 539l81 699h480l-296 -1238h-507l-117 555l-117 -555h-507l-296 1238h480l81 -699l133 699h452zM479 1592h414l209 -266h-310z" />
    <glyph glyph-name="wgrave" unicode="&#x1e81;" horiz-adv-x="1620" 
d="M1097 439l67 534h451l-266 -973h-443l-96 435l-95 -435h-444l-266 973h451l67 -534l78 534h418zM375 1326h414l208 -265h-309z" />
    <glyph glyph-name="Wacute" unicode="&#x1e82;" horiz-adv-x="1803" 
d="M1261 539l81 699h480l-296 -1238h-507l-117 555l-117 -555h-507l-296 1238h480l81 -699l133 699h452zM695 1326l209 266h414l-313 -266h-310z" />
    <glyph glyph-name="wacute" unicode="&#x1e83;" horiz-adv-x="1620" 
d="M1097 439l67 534h451l-266 -973h-443l-96 435l-95 -435h-444l-266 973h451l67 -534l78 534h418zM591 1061l208 265h414l-313 -265h-309z" />
    <glyph glyph-name="Wdieresis" unicode="&#x1e84;" horiz-adv-x="1803" 
d="M1261 539l81 699h480l-296 -1238h-507l-117 555l-117 -555h-507l-296 1238h480l81 -699l133 699h452zM628 1356q-37 37 -37 98q0 62 37 99t99 37q61 0 98 -37q38 -38 38 -99q0 -60 -38 -98t-98 -38q-61 0 -99 38zM978 1356q-37 37 -37 98q0 62 37 99t99 37q61 0 98 -37
q38 -38 38 -99q0 -60 -38 -98t-98 -38q-61 0 -99 38z" />
    <glyph glyph-name="wdieresis" unicode="&#x1e85;" horiz-adv-x="1620" 
d="M1097 439l67 534h451l-266 -973h-443l-96 435l-95 -435h-444l-266 973h451l67 -534l78 534h418zM523 1090q-37 37 -37 98q0 63 37 100t100 37q61 0 98 -37q38 -38 38 -100q0 -60 -38 -98t-98 -38q-62 0 -100 38zM874 1090q-37 37 -37 98q0 63 37 100t99 37q61 0 98 -37
q38 -38 38 -100q0 -60 -38 -98t-98 -38q-61 0 -99 38z" />
    <glyph glyph-name="uni1E9E" unicode="&#x1e9e;" horiz-adv-x="1246" 
d="M941 762q132 -23 207 -127q74 -104 74 -257q0 -195 -121 -298t-312 -103q-103 0 -237 34l67 295q41 -11 76 -11q59 0 92 27q34 28 34 74q0 48 -34 76q-33 27 -92 27h-126v168l115 242h-84q-49 0 -71 -28q-23 -29 -23 -76v-805h-425v835q0 197 89 300t256 103h741z" />
    <glyph glyph-name="uni1EBC" unicode="&#x1ebc;" horiz-adv-x="1101" 
d="M545 481v-163h511v-318h-971v1238h960v-318h-500v-138h429v-301h-429zM265 1395q71 177 205 177q36 0 62 -9q19 -7 55 -30q34 -18 40 -21q14 -7 36 -7q52 0 90 65l137 -86q-72 -179 -206 -179q-34 0 -61 10q-24 9 -54 27q-27 18 -38 22q-19 8 -41 8q-59 0 -89 -63z" />
    <glyph glyph-name="uni1EBD" unicode="&#x1ebd;" horiz-adv-x="1107" 
d="M1061 472q0 -26 -3 -83h-586q8 -75 28 -103q22 -30 52 -30q58 0 69 80h431q-29 -165 -152 -255q-125 -92 -348 -92q-249 0 -380 125q-130 124 -130 371t130 373q129 125 380 125q509 0 509 -511zM501 691q-20 -28 -29 -102h159q-3 73 -24 101t-55 28q-32 0 -51 -27z
M246 1125q70 177 205 177q34 0 62 -10q23 -8 55 -29q34 -18 40 -21q16 -8 36 -8q51 0 90 66l136 -87q-72 -178 -205 -178q-37 0 -61 9q-20 7 -54 28q-25 16 -39 22q-19 8 -41 8q-58 0 -88 -64z" />
    <glyph glyph-name="Ygrave" unicode="&#x1ef2;" horiz-adv-x="1188" 
d="M594 888l112 350h500l-382 -796v-442h-460v442l-382 796h501zM172 1592h413l209 -266h-309z" />
    <glyph glyph-name="ygrave" unicode="&#x1ef3;" horiz-adv-x="1114" 
d="M561 559l122 414h442l-520 -1327h-412l154 384l-358 943h464zM87 1326h414l208 -265h-309z" />
    <glyph glyph-name="uni1EF8" unicode="&#x1ef8;" horiz-adv-x="1188" 
d="M594 888l112 350h500l-382 -796v-442h-460v442l-382 796h501zM288 1397q70 177 205 177q34 0 62 -10q23 -8 55 -29q34 -18 40 -21q14 -7 36 -7q52 0 90 65l137 -86q-72 -179 -206 -179q-34 0 -61 10q-24 9 -54 27q-27 18 -38 22q-19 8 -41 8q-59 0 -89 -63z" />
    <glyph glyph-name="uni1EF9" unicode="&#x1ef9;" horiz-adv-x="1114" 
d="M561 559l122 414h442l-520 -1327h-412l154 384l-358 943h464zM203 1132q71 177 206 177q33 0 61 -10q23 -8 55 -29q34 -18 40 -21q14 -7 36 -7q53 0 91 65l136 -87q-72 -178 -205 -178q-37 0 -61 9q-20 7 -54 28q-25 16 -39 22q-19 8 -41 8q-58 0 -88 -64z" />
    <glyph glyph-name="uni200B" unicode="&#x200b;" 
 />
    <glyph glyph-name="endash" unicode="&#x2013;" horiz-adv-x="1165" 
d="M46 386v300h1074v-300h-1074z" />
    <glyph glyph-name="emdash" unicode="&#x2014;" horiz-adv-x="1439" 
d="M21 400v270h1397v-270h-1397z" />
    <glyph glyph-name="quoteleft" unicode="&#x2018;" horiz-adv-x="560" 
d="M493 1238l-60 -566h-369v249l120 317h309z" />
    <glyph glyph-name="quoteright" unicode="&#x2019;" horiz-adv-x="560" 
d="M64 672l60 566h369v-249l-120 -317h-309z" />
    <glyph glyph-name="quotesinglbase" unicode="&#x201a;" horiz-adv-x="537" 
d="M34 -265l60 566h369v-250l-120 -316h-309z" />
    <glyph glyph-name="quotedblleft" unicode="&#x201c;" horiz-adv-x="1011" 
d="M497 1238l-60 -566h-373v249l120 317h313zM944 1238l-60 -566h-373v249l120 317h313z" />
    <glyph glyph-name="quotedblright" unicode="&#x201d;" horiz-adv-x="1011" 
d="M64 672l60 566h373v-249l-120 -317h-313zM511 672l60 566h373v-249l-120 -317h-313z" />
    <glyph glyph-name="quotedblbase" unicode="&#x201e;" horiz-adv-x="988" 
d="M34 -265l60 566h373v-250l-120 -316h-313zM481 -265l60 566h373v-250l-120 -316h-313z" />
    <glyph glyph-name="dagger" unicode="&#x2020;" horiz-adv-x="1165" 
d="M776 1326v-380h344v-300h-1074v300h341v380h389zM776 -354h-389v639h389v-639z" />
    <glyph glyph-name="daggerdbl" unicode="&#x2021;" horiz-adv-x="1165" 
d="M776 1326v-380h344v-300h-1074v300h341v380h389zM387 16h-341v301h1074v-301h-344v-370h-389v370z" />
    <glyph glyph-name="bullet" unicode="&#x2022;" horiz-adv-x="815" 
d="M235 237q-78 46 -125 126q-46 79 -46 173q0 95 46 172q47 80 125 125q79 46 174 46t172 -46q78 -47 125 -125q46 -77 46 -172q0 -94 -46 -173t-125 -126q-77 -46 -172 -46t-174 46z" />
    <glyph glyph-name="ellipsis" unicode="&#x2026;" horiz-adv-x="1701" 
d="M64 0v424h442v-424h-442zM630 0v424h442v-424h-442zM1196 0v424h442v-424h-442z" />
    <glyph glyph-name="perthousand" unicode="&#x2030;" horiz-adv-x="2329" 
d="M615 1179q73 -74 73 -233v-85q0 -159 -73 -235t-245 -76q-178 0 -251 76t-73 235v85q0 159 73 233q73 75 251 75q172 0 245 -75zM435 0h-301l1054 1238h301zM329 829q0 -43 9 -61t32 -18q19 0 28 18t9 61v147q0 42 -9 60t-28 18q-23 0 -32 -18t-9 -60v-147zM1534 614
q74 -77 74 -234v-83q0 -159 -74 -236t-245 -77q-177 0 -250 76t-73 237v83q0 158 73 234t250 76q172 0 245 -76zM2215 614q74 -77 74 -234v-83q0 -159 -74 -236t-245 -77q-177 0 -250 76t-73 237v83q0 158 73 234t250 76q172 0 245 -76zM1249 265q0 -46 8 -62q9 -17 32 -17
q21 0 29 17q8 16 8 62v145q0 44 -8 60q-9 18 -29 18q-23 0 -32 -18q-8 -16 -8 -60v-145zM1930 265q0 -46 8 -62q8 -17 32 -17q20 0 28 17q9 18 9 62v145q0 42 -9 60t-28 18q-23 0 -32 -18q-8 -16 -8 -60v-145z" />
    <glyph glyph-name="uni2031" unicode="&#x2031;" horiz-adv-x="3010" 
d="M615 1179q73 -74 73 -233v-85q0 -159 -73 -235t-245 -76q-178 0 -251 76t-73 235v85q0 159 73 233q73 75 251 75q172 0 245 -75zM435 0h-301l1054 1238h301zM329 829q0 -43 9 -61t32 -18q19 0 28 18t9 61v147q0 42 -9 60t-28 18q-23 0 -32 -18t-9 -60v-147zM1534 614
q74 -77 74 -234v-83q0 -159 -74 -236t-245 -77q-177 0 -250 76t-73 237v83q0 158 73 234t250 76q172 0 245 -76zM2215 614q74 -77 74 -234v-83q0 -159 -74 -236t-245 -77q-177 0 -250 76t-73 237v83q0 158 73 234t250 76q172 0 245 -76zM2896 614q73 -76 73 -234v-83
q0 -160 -73 -236q-74 -77 -245 -77q-177 0 -250 76q-74 77 -74 237v83q0 157 74 234q73 76 250 76q172 0 245 -76zM1249 265q0 -46 8 -62q9 -17 32 -17q21 0 29 17q8 16 8 62v145q0 44 -8 60q-9 18 -29 18q-23 0 -32 -18q-8 -16 -8 -60v-145zM1930 265q0 -46 8 -62
q8 -17 32 -17q20 0 28 17q9 18 9 62v145q0 42 -9 60t-28 18q-23 0 -32 -18q-8 -16 -8 -60v-145zM2610 265q0 -44 9 -62q9 -17 32 -17q19 0 28 17q9 18 9 62v145q0 42 -9 60t-28 18q-23 0 -32 -18t-9 -60v-145z" />
    <glyph glyph-name="guilsinglleft" unicode="&#x2039;" horiz-adv-x="693" 
d="M485 69l-420 467l420 467l194 -161l-270 -306l270 -304z" />
    <glyph glyph-name="guilsinglright" unicode="&#x203a;" horiz-adv-x="693" 
d="M628 536l-419 -467l-195 163l271 304l-271 306l195 161z" />
    <glyph glyph-name="uni203D" unicode="&#x203d;" horiz-adv-x="1115" 
d="M780 1234q141 -29 209 -100q69 -72 69 -198q0 -74 -25 -124q-27 -54 -60 -83q-39 -34 -92 -69q-64 -42 -99 -81q-32 -37 -32 -94v-25h-386v55q0 76 22 127q24 55 53 86t79 68q52 43 66 60q21 26 21 60q0 44 -14 64q-13 19 -43 19t-47 -23q-16 -22 -16 -79v-69h-427v76
q0 263 280 329l3 187h442zM750 0h-386v370h386v-370z" />
    <glyph glyph-name="fraction" unicode="&#x2044;" horiz-adv-x="452" 
d="M-150 0h-301l1054 1238h301z" />
    <glyph glyph-name="uni2051" unicode="&#x2051;" horiz-adv-x="795" 
d="M334 697l-173 127l85 99l-128 28l66 206l117 -53l-11 130h216l-16 -132l122 55l65 -206l-127 -28l87 -99l-174 -127l-67 104zM490 446l122 55l65 -206l-127 -28l87 -99l-174 -127l-67 104l-62 -104l-173 127l85 99l-128 28l66 206l117 -54l-11 131h216z" />
    <glyph glyph-name="uni20A9" unicode="&#x20a9;" horiz-adv-x="1872" 
d="M1804 1015h87v-230h-142l-187 -785h-508l-117 555l-116 -555h-508l-187 785h-144v230h89l-53 223h479l26 -223h146l42 223h453l42 -223h145l27 223h479zM624 785h-74l28 -246zM1250 785l46 -246l29 246h-75z" />
    <glyph glyph-name="uni20AA" unicode="&#x20aa;" horiz-adv-x="1505" 
d="M1070 315h-287v306q0 65 -15 88q-16 25 -68 25h-327v-734h-313v973h780q230 0 230 -236v-422zM435 0v658h287v-419h283q74 0 100 29q25 28 25 112v593h317v-618q0 -179 -94 -267t-269 -88h-649z" />
    <glyph glyph-name="Euro" unicode="&#x20ac;" horiz-adv-x="1046" 
d="M786 316q42 18 95 59l120 -257q-52 -52 -141 -91q-87 -38 -204 -38q-242 0 -373 93q-132 94 -163 300h-85v216h76v32h-76v215h83q27 211 160 308q132 96 378 96q99 0 194 -26q90 -25 151 -70l-118 -267q-89 58 -199 58q-67 0 -97 -21t-39 -78h317l-94 -215h-228v-32h214
l-96 -216h-111q10 -48 41 -66q32 -19 93 -19q58 0 102 19z" />
    <glyph glyph-name="uni20B9" unicode="&#x20b9;" horiz-adv-x="1110" 
d="M1026 937h-223q15 -27 26 -65h197v-124h-182q-3 -133 -59 -215q-55 -80 -166 -110l393 -423h-501l-401 401v285h205q45 0 72 15q26 15 37 47h-314v124h316q-10 33 -37 49q-26 16 -74 16h-205v301h916v-301z" />
    <glyph glyph-name="uni20BA" unicode="&#x20ba;" horiz-adv-x="1397" 
d="M1330 633q-11 -327 -175 -480q-165 -153 -486 -153h-382v481l-176 -48v142l176 48v123l-176 -47v141l176 48v350h406v-241l205 55v-141l-205 -55v-124l205 55v-141l-205 -55v-259h18q120 0 186 80q64 77 70 221h363z" />
    <glyph glyph-name="uni20BD" unicode="&#x20bd;" horiz-adv-x="1204" 
d="M600 439v-46h323v-266h-323v-127h-448v127h-76v266h76v46h-76v309h76v490h547q250 0 362 -98t112 -302q0 -203 -112 -301t-362 -98h-99zM600 928v-180h33q57 0 81 20q25 21 25 70t-25 70q-24 20 -81 20h-33z" />
    <glyph glyph-name="uni20BF" unicode="&#x20bf;" horiz-adv-x="1257" 
d="M1135 112q-85 -90 -254 -108v-181h-237v177h-46v-177h-235v177h-278v1238h278v177h235v-177h46v177h237v-184q149 -21 228 -104q78 -83 78 -216q0 -102 -40 -169q-41 -68 -105 -96q77 -27 129 -100q51 -72 51 -187q0 -155 -87 -247zM536 943v-193h117q118 0 118 95
q0 53 -28 75q-29 23 -90 23h-117zM536 295h97q69 0 102 24t33 79q0 57 -32 80t-103 23h-97v-206z" />
    <glyph glyph-name="uni2113" unicode="&#x2113;" horiz-adv-x="896" 
d="M826 80q-147 -108 -301 -108q-136 0 -231 88q-96 88 -114 241q-53 -6 -107 -6l-2 179q16 0 106 4v380q0 204 74 300q75 98 258 98q184 0 247 -81t63 -202q0 -174 -72 -312q-72 -139 -199 -228v-65q0 -52 22 -75q22 -24 58 -24q45 0 81 26zM562 1049q-14 -30 -14 -89v-327
q108 125 108 352q0 47 -12 70q-12 22 -39 22q-30 0 -43 -28z" />
    <glyph glyph-name="uni2116" unicode="&#x2116;" horiz-adv-x="2044" 
d="M592 1238l250 -584v584h408v-1238h-507l-248 580v-580h-410v1238h507zM1900 906q74 -76 74 -232v-85q0 -158 -74 -235q-73 -76 -245 -76q-177 0 -250 76t-73 235v85q0 158 73 232q74 76 250 76q171 0 245 -76zM1693 704q0 42 -9 60t-29 18q-22 0 -31 -18t-9 -60v-147
q0 -43 9 -61t31 -18q20 0 29 18t9 61v147zM1930 0h-572v216h572v-216z" />
    <glyph glyph-name="trademark" unicode="&#x2122;" horiz-adv-x="1124" 
d="M39 1238h389v-191h-85v-279h-221v279h-83v191zM814 863h-92l-59 142v-237h-203v470h249l59 -111l56 111h250v-470h-204v237z" />
    <glyph glyph-name="estimated" unicode="&#x212e;" horiz-adv-x="1354" 
d="M1148 1073q163 -181 154 -519h-964v-260q63 -74 161 -111q100 -38 221 -38q148 0 244 54t166 142l117 -85q-71 -128 -211 -199q-135 -69 -314 -69q-209 0 -359 77t-230 221q-80 143 -80 333q0 189 78 333q78 145 221 222q144 78 332 78q303 0 464 -179zM475 1055
q-83 -37 -137 -111v-252h695v268q-55 66 -138 99q-85 34 -209 34q-126 0 -211 -38z" />
    <glyph glyph-name="uni2135" unicode="&#x2135;" horiz-adv-x="1282" 
d="M1199 865l-557 -322l-559 322l559 327zM683 677q-8 22 -16 58q-7 31 -7 52q66 0 125 12q58 12 97 29q13 6 31 13.5t23 9.5l24 -18l36 14l1 11l-76 42q-12 8 -12 20q0 10 9 23l-60 26l-50 -32l37 -33q-46 -35 -87 -56q-40 -20 -95 -20q9 83 69 224q-20 11 -63 11
q-48 0 -62 -5q0 -16 4 -47t4 -56q-33 11 -67 11q-62 0 -102 -32q-28 -21 -66 -80l-3 -2l-30 15l-29 12l-53 -18l25 -28l23 2q12 0 25 -7l76 -45q12 3 28 8q15 5 21 10q4 7 16 36q20 56 52 77q22 16 46 16q18 0 33 -7q-1 -3 -25 -60q-7 -18 -39 -98q-14 -36 -14 -61
q0 -32 27 -32l117 -3zM624 511v-640l-557 324l-2 640zM1215 195l-555 -324v642l557 322zM785 41q6 21 25 33l76 48q14 44 14 51q-65 84 -65 133q0 34 33 60q55 -58 193 -175l59 99v11q-20 2 -57 13q-28 8 -51 22q48 81 67 158q18 75 18 111l24 14l9 35l-7 6l-74 -41
q-8 -4 -16 -4q-19 0 -25 22l-53 -39v-55l50 12q5 -52 5 -70q0 -67 -32 -126q-45 34 -94 92q-51 60 -62 81q-21 -12 -51 -42t-30 -48q0 -6 9 -12q65 -31 94 -48q-68 -56 -68 -156q0 -36 34 -93l-2 -11l-26 -16q-25 -13 -25 -18l-11 -60zM531 58l-2 13q-74 95 -113 162
q52 22 71 77t19 86l25 -16l10 27l-7 12l-76 43q-17 9 -28 29q-13 24 -16 40l-51 19v-55l49 -42q4 -56 4 -71q0 -76 -30 -88q-53 91 -93 184q-48 112 -49 113q-12 28 -14 32q-6 11 -7 17q-11 6 -27 6q-20 0 -36 -8t-8 -19q62 -91 97 -150q-11 5 -24 5q-25 0 -38 -21
q-14 -22 -8 -60q1 -19 12 -60q9 -34 23 -73l-2 -5l-28 14l-25 12l-12 -46l39 -32q0 4 3 7q4 4 11 4q6 0 14 -5l80 -48q12 29 12 37q-7 20 -12 32t-9 25q-35 91 -44 129l-4 23q0 21 16 21q9 0 19 -5q9 -19 81 -162l50.5 -101t43.5 -86l23 -46z" />
    <glyph glyph-name="uni2136" unicode="&#x2136;" horiz-adv-x="1768" 
d="M1728 868q-7 -37 -39 -37q-11 0 -25 6q-332 116 -755 116q-138 0 -249 -10q-2 -22 -2 -48q0 -48 14 -87q7 -17 -5 -33q-11 -15 -34 -23q-18 -6 -33 4q-14 9 -20 33q-12 57 -12 134q-33 -47 -90 -122q-27 -36 -50 -49q-25 -16 -42 -16q-16 0 -27 10q-16 10 -16 29
q0 9 12 35q8 17 39 49q7 7 73 71q-108 -12 -294 -40q-25 -3 -40 9q-16 13 -16 40q0 37 42 43q54 8 189 38q163 36 209 50q23 41 50 105q17 41 39 88q2 4 10 24.5t16 38.5q14 29 42 29q22 0 35 -19q11 -17 8 -40q-8 -47 -23 -80q-18 -41 -50 -102q76 29 141 61q53 26 66 35
q12 9 25 9q20 0 34 -20q9 -13 9 -23q0 -17 -20 -37q-8 -8 -58 -33q-46 -23 -147 -64q84 5 212 5q462 0 741 -119q50 -21 41 -60zM1306 785q36 -32 36 -74q0 -115 -147 -305q-143 -186 -338 -359q-191 -170 -286 -210q-38 -17 -74 -17q-65 0 -101 63q-19 32 -19 87
q0 90 59 211q57 118 155 220q74 78 157 128q86 51 145 51q45 0 67 -28q18 -20 18 -50q0 -60 -56 -137q-58 -80 -91 -109q-22 -19 -46 -19q-16 0 -35 14q-18 18 -18 36q0 24 27 51q79 79 109 136q-89 -32 -172 -112q-84 -81 -141 -180q-56 -98 -70 -182q-2 -10 -2 -23
q0 -20 8 -34t24 -14q13 0 30 9q111 59 251 183q141 125 260 266q120 142 163 244q14 33 14 53q0 25 -25 37q-23 11 -83 11q-143 0 -294 -69q-150 -69 -256 -159q-17 -16 -39 -16q-30 0 -43 25q-7 11 -7 26q0 16 7 29q8 14 20 23q97 75 266 157q171 83 353 83q48 0 83 -5
q54 -9 91 -41z" />
    <glyph glyph-name="uni2137" unicode="&#x2137;" horiz-adv-x="1356" 
d="M1203 396q0 -117 -66 -224q-67 -108 -185 -173q-120 -66 -275 -66t-275 66q-119 65 -184 173q-64 106 -64 224q0 320 352 515q-231 68 -342 88l34 133q145 -30 238 -59q111 -34 241 -86q148 56 241 85q101 31 239 60l35 -133q-118 -20 -341 -88q352 -196 352 -515z
M877 111q90 47 141 123q50 75 50 167q0 144 -99 258t-292 192q-193 -78 -291 -192q-98 -115 -98 -258q0 -91 51 -167q52 -78 139 -123q89 -46 199 -46q111 0 200 46zM607 570q-30 32 -30 72q0 39 30 69t70 30q41 0 71 -30t30 -69q0 -40 -30 -72q-30 -31 -71 -31
q-40 0 -70 31zM433 557q69 -32 134 -53q57 -18 112 -18t113 18q65 20 131 53l53 -115q-96 -49 -175 -67l101 -129l-110 -80l-115 154l-115 -154l-107 80l99 129q-77 20 -174 67z" />
    <glyph glyph-name="uni2150" unicode="&#x2150;" horiz-adv-x="1600" 
d="M435 725h81v-194h-475v194h102v226h-90v177q66 0 94 20q26 19 35 90h253v-513zM386 0h-301l1054 1238h301zM1381 0h-316l171 513h-216v194h579z" />
    <glyph glyph-name="uni2151" unicode="&#x2151;" horiz-adv-x="1637" 
d="M435 725h81v-194h-475v194h102v226h-90v177q66 0 94 20q26 19 35 90h253v-513zM387 0h-300l1054 1238h300zM1519 660q87 -63 87 -179q0 -46 -19 -105q-17 -54 -52 -104l-189 -272h-327l178 256q-31 -3 -49 -3q-94 0 -155 61t-61 167q0 116 87 179t251 63q162 0 249 -63z
M1238 472q0 -83 37 -83q36 0 36 83q0 85 -36 85q-37 0 -37 -85z" />
    <glyph glyph-name="uni2152" unicode="&#x2152;" horiz-adv-x="2145" 
d="M435 725h81v-194h-475v194h102v226h-90v177q66 0 94 20q26 19 35 90h253v-513zM387 0h-300l1054 1238h300zM1326 195h82v-195h-476v195h103v226h-91v177q68 0 94 19q27 19 36 90h252v-512zM2021 645q77 -79 77 -245v-89q0 -164 -77 -246q-77 -81 -258 -81q-183 0 -261 80
t-78 247v89q0 167 78 245t261 78q181 0 258 -78zM1721 278q0 -42 10 -64q9 -19 32 -19q21 0 30 18t9 65v154q0 44 -9 62q-9 19 -30 19q-23 0 -32 -19q-10 -20 -10 -62v-154z" />
    <glyph glyph-name="uni2153" unicode="&#x2153;" horiz-adv-x="1591" 
d="M435 725h81v-194h-475v194h102v226h-90v177q66 0 94 20q26 19 35 90h253v-513zM389 0h-301l1054 1238h301zM1535 311q27 -41 27 -97q0 -104 -90 -167t-248 -63q-152 0 -236 64q-83 63 -75 196h263q-2 -39 12 -57q14 -19 43 -19q27 0 39 14t12 34q0 55 -76 55h-62v166h50
q37 0 52 11q17 12 17 42q0 46 -44 46q-47 0 -39 -73h-262q-8 126 73 192q82 67 226 67q159 0 240 -57q82 -58 82 -150q0 -96 -80 -144q49 -19 76 -60z" />
    <glyph glyph-name="uni2154" unicode="&#x2154;" horiz-adv-x="1828" 
d="M522 725h143v-194h-623l282 362q35 44 43 65q10 25 10 50q0 17 -10 30t-27 13q-27 0 -36 -27q-8 -25 -5 -80h-269q-2 16 -2 38q0 142 88 207t236 65q154 0 231 -66t77 -180q0 -45 -26 -102q-27 -60 -80 -135zM569 0h-300l1054 1238h301zM1772 311q27 -41 27 -97
q0 -104 -90 -167t-248 -63q-152 0 -236 64q-83 63 -75 196h263q-1 -39 12 -57q14 -19 43 -19q27 0 39 14t12 34q0 55 -76 55h-62v166h50q37 0 52 11q17 12 17 42q0 46 -44 46q-47 0 -39 -73h-262q-8 126 73 192q82 67 226 67q159 0 240 -57q82 -58 82 -150q0 -96 -80 -144
q49 -19 76 -60z" />
    <glyph glyph-name="uni2155" unicode="&#x2155;" horiz-adv-x="1697" 
d="M435 725h81v-194h-475v194h102v226h-90v177q66 0 94 20q26 19 35 90h253v-513zM387 0h-300l1054 1238h300zM1601 436q65 -62 65 -187q0 -133 -85 -199t-255 -66q-153 0 -230 65t-77 186h276q3 -63 37 -63q24 0 31 22q8 24 8 64q0 74 -39 74q-27 0 -36 -38h-277v413h626
v-184h-370l-2 -68q47 42 142 42q122 0 186 -61z" />
    <glyph glyph-name="uni2156" unicode="&#x2156;" horiz-adv-x="1879" 
d="M522 725h143v-194h-623l282 362q35 44 43 65q10 25 10 50q0 17 -10 30t-27 13q-27 0 -36 -27q-8 -25 -5 -80h-269q-2 16 -2 38q0 142 88 207t236 65q154 0 231 -66t77 -180q0 -45 -26 -102q-27 -60 -80 -135zM557 0h-301l1055 1238h300zM1784 436q64 -61 64 -187
q0 -133 -85 -199t-254 -66q-154 0 -231 65t-77 186h276q3 -63 37 -63q24 0 31 22q8 24 8 64q0 74 -39 74q-26 0 -35 -38h-278v413h626v-184h-370l-1 -68q46 42 141 42q123 0 187 -61z" />
    <glyph glyph-name="uni2157" unicode="&#x2157;" horiz-adv-x="1818" 
d="M654 842q27 -41 27 -97q0 -106 -89 -168t-249 -62q-153 0 -236 63t-75 197h263q-2 -40 12 -58q13 -18 43 -18q27 0 39 14q12 13 12 33q0 55 -76 55h-61v166h49q35 0 52 12t17 41q0 46 -44 46q-46 0 -39 -72h-262q-7 126 74 192t225 66q161 0 241 -56q81 -57 81 -151
q0 -95 -80 -143q49 -19 76 -60zM481 0h-301l1054 1238h301zM1722 436q64 -61 64 -187q0 -133 -85 -199t-254 -66q-154 0 -231 65t-77 186h276q3 -63 37 -63q24 0 31 22q8 24 8 64q0 74 -39 74q-26 0 -35 -38h-278v413h626v-184h-370l-1 -68q46 42 141 42q123 0 187 -61z" />
    <glyph glyph-name="uni2158" unicode="&#x2158;" horiz-adv-x="1899" 
d="M667 840h51v-189h-51v-120h-276l2 120h-375v111l166 476h288l-134 -398h56v96h273v-96zM571 0h-300l1054 1238h300zM1803 436q65 -62 65 -187q0 -133 -85 -199t-255 -66q-154 0 -231 65t-77 186h276q3 -63 37 -63q24 0 31 22q8 24 8 64q0 74 -39 74q-26 0 -35 -38h-278
v413h626v-184h-369l-2 -68q47 42 141 42q123 0 187 -61z" />
    <glyph glyph-name="uni2159" unicode="&#x2159;" horiz-adv-x="1510" 
d="M435 725h81v-194h-475v194h102v226h-90v177q66 0 94 20q26 19 35 90h253v-513zM386 0h-301l1054 1238h301zM1419 394q61 -61 61 -168q0 -116 -86 -178q-88 -64 -252 -64q-161 0 -249 64q-87 63 -87 178q0 47 19 106q17 52 52 103l189 272h328l-179 -256q42 4 50 4
q93 0 154 -61zM1174 235q0 83 -37 83q-35 0 -35 -83q0 -85 35 -85q37 0 37 85z" />
    <glyph glyph-name="uni215A" unicode="&#x215a;" horiz-adv-x="1669" 
d="M634 967q65 -62 65 -187q0 -134 -85 -200q-84 -65 -255 -65q-155 0 -231 64q-77 65 -77 187h276q3 -64 37 -64q24 0 31 22q8 24 8 65q0 74 -39 74q-26 0 -35 -39h-278v414h626v-184h-369l-2 -69q48 43 141 43q123 0 187 -61zM511 0h-301l1055 1238h300zM1578 394
q61 -61 61 -168q0 -116 -86 -178q-88 -64 -251 -64q-162 0 -250 64q-86 62 -86 178q0 50 18 106q17 52 52 103l190 272h327l-179 -256q42 4 50 4q93 0 154 -61zM1333 235q0 83 -37 83q-35 0 -35 -83q0 -85 35 -85q37 0 37 85z" />
    <glyph glyph-name="oneeighth" unicode="&#x215b;" horiz-adv-x="1605" 
d="M435 725h81v-194h-475v194h102v226h-90v177q66 0 94 20q26 19 35 90h253v-513zM387 0h-300l1054 1238h300zM1578 212q0 -108 -87 -168t-251 -60q-168 0 -255 60t-87 168q0 133 142 181q-51 26 -75 62q-26 38 -26 83q0 85 79 137q76 50 224 50q143 0 218 -50
q77 -51 77 -137q0 -46 -25 -83t-74 -62q140 -48 140 -181zM1216 567q-8 -16 -8 -49q0 -44 34 -44q29 0 30 49q-2 59 -30 59q-18 0 -26 -15zM1280 225q-2 90 -40 90q-43 0 -43 -80q0 -43 10 -68q9 -22 33 -22q38 0 40 80z" />
    <glyph glyph-name="threeeighths" unicode="&#x215c;" horiz-adv-x="1690" 
d="M654 842q27 -41 27 -97q0 -106 -89 -168t-249 -62q-153 0 -236 63t-75 197h263q-2 -40 12 -58q13 -18 43 -18q27 0 39 14q12 13 12 33q0 55 -76 55h-61v166h49q35 0 52 12t17 41q0 46 -44 46q-46 0 -39 -72h-262q-7 126 74 192t225 66q161 0 241 -56q81 -57 81 -151
q0 -95 -80 -143q49 -19 76 -60zM458 0h-301l1054 1238h301zM1662 212q0 -109 -86 -168q-87 -60 -251 -60q-168 0 -255 60t-87 168q0 133 142 181q-51 26 -75 62q-26 38 -26 83q0 85 79 137q76 50 223 50q144 0 219 -50q77 -51 77 -137q0 -46 -25 -83t-74 -62
q139 -48 139 -181zM1301 567q-8 -16 -8 -49q0 -44 33 -44q29 0 30 49q-2 59 -30 59q-18 0 -25 -15zM1365 225q-1 90 -40 90q-43 0 -43 -80q0 -43 10 -68q9 -22 33 -22q38 0 40 80z" />
    <glyph glyph-name="fiveeighths" unicode="&#x215d;" horiz-adv-x="1747" 
d="M634 967q65 -62 65 -187q0 -134 -85 -200q-84 -65 -255 -65q-155 0 -231 64q-77 65 -77 187h276q3 -64 37 -64q24 0 31 22q8 24 8 65q0 74 -39 74q-26 0 -35 -39h-278v414h626v-184h-369l-2 -69q48 43 141 43q123 0 187 -61zM501 0h-301l1054 1238h301zM1719 212
q0 -108 -87 -168t-251 -60q-167 0 -254 60t-87 168q0 133 141 181q-51 26 -75 62q-25 37 -25 83q0 86 78 137q76 50 224 50q143 0 218 -50q77 -51 77 -137q0 -48 -24 -83q-24 -36 -75 -62q140 -48 140 -181zM1357 567q-8 -16 -8 -49q0 -44 34 -44q29 0 30 49q-2 59 -30 59
q-19 0 -26 -15zM1422 225q-2 90 -41 90q-42 0 -42 -80q0 -43 10 -68q9 -22 32 -22q39 0 41 80z" />
    <glyph glyph-name="seveneighths" unicode="&#x215e;" horiz-adv-x="1584" 
d="M428 531h-317l172 512h-216v195h579zM324 0h-301l1054 1238h301zM1556 212q0 -109 -86 -168q-87 -60 -251 -60q-168 0 -255 60t-87 168q0 133 142 181q-51 26 -75 62q-26 38 -26 83q0 85 79 137q76 50 223 50q144 0 219 -50q77 -51 77 -137q0 -46 -25 -83t-74 -62
q139 -48 139 -181zM1195 567q-8 -16 -8 -49q0 -44 33 -44q29 0 30 49q-2 59 -30 59q-18 0 -25 -15zM1259 225q-1 90 -40 90q-43 0 -43 -80q0 -43 10 -68q9 -22 33 -22q38 0 40 80z" />
    <glyph glyph-name="uni215F" unicode="&#x215f;" horiz-adv-x="944" 
d="M1095 1238h300l-1054 -1238h-300l451 531h-450v194h103v226h-90v177q66 0 94 20q26 19 35 90h253v-513h81v-164z" />
    <glyph glyph-name="uni2189" unicode="&#x2189;" horiz-adv-x="1750" 
d="M645 1175q77 -79 77 -245v-88q0 -165 -77 -247q-76 -80 -258 -80q-183 0 -261 79q-78 80 -78 248v88q0 167 78 245q79 79 261 79q181 0 258 -79zM345 808q0 -41 10 -63q9 -20 32 -20q21 0 30 19q9 18 9 64v154q0 45 -9 63t-30 18q-23 0 -32 -18q-10 -20 -10 -63v-154z
M497 0h-301l1054 1238h301zM1694 311q27 -41 27 -97q0 -105 -89 -167q-90 -63 -249 -63q-152 0 -236 64q-83 63 -75 196h263q-1 -39 12 -57q14 -19 43 -19q27 0 39 14t12 34q0 55 -76 55h-62v166h50q37 0 52 11q17 12 17 42q0 46 -44 46q-47 0 -39 -73h-262q-8 126 73 192
q82 67 226 67q159 0 240 -57q82 -58 82 -150q0 -96 -80 -144q49 -19 76 -60z" />
    <glyph glyph-name="arrowleft" unicode="&#x2190;" horiz-adv-x="1283" 
d="M541 677h697v-283h-695l161 -148l-191 -212l-504 502l504 504l191 -212z" />
    <glyph glyph-name="arrowup" unicode="&#x2191;" horiz-adv-x="1105" 
d="M554 1188l502 -504l-212 -191l-149 161v-695h-283v697l-150 -163l-212 191z" />
    <glyph glyph-name="arrowright" unicode="&#x2192;" horiz-adv-x="1283" 
d="M580 828l191 212l504 -504l-504 -502l-191 212l161 148h-695v283h697z" />
    <glyph glyph-name="arrowdown" unicode="&#x2193;" horiz-adv-x="1105" 
d="M693 433l151 163l212 -191l-504 -504l-502 504l212 191l148 -161v695h283v-697z" />
    <glyph glyph-name="arrowboth" unicode="&#x2194;" horiz-adv-x="1994" 
d="M1196 828l191 212l504 -504l-504 -502l-191 212l160 148h-718l161 -148l-191 -212l-504 502l504 504l191 -212l-162 -151h721z" />
    <glyph glyph-name="arrowupdn" unicode="&#x2195;" horiz-adv-x="1105" 
d="M693 845v-629l158 171l205 -198l-504 -507l-502 507l205 198l155 -169v626l-155 -170l-205 198l502 507l504 -507l-205 -198z" />
    <glyph glyph-name="uni2196" unicode="&#x2196;" horiz-adv-x="1170" 
d="M573 729l493 -492l-199 -200l-492 490l9 -218l-287 -15v712h713l-16 -286z" />
    <glyph glyph-name="uni2197" unicode="&#x2197;" horiz-adv-x="1170" 
d="M377 718l-16 287h713v-713l-287 16l9 217l-492 -490l-200 200l494 492z" />
    <glyph glyph-name="uni2198" unicode="&#x2198;" horiz-adv-x="1170" 
d="M796 447l-9 218l287 16v-713h-713l16 287l221 -9l-494 491l200 200z" />
    <glyph glyph-name="uni2199" unicode="&#x2199;" horiz-adv-x="1170" 
d="M1066 737l-493 -491l221 9l16 -287h-713v713l287 -16l-9 -218l492 490z" />
    <glyph glyph-name="uni21AF" unicode="&#x21af;" horiz-adv-x="1084" 
d="M768 426l132 99l181 -256l-619 -419l-446 536l255 196l104 -140l65 214l-288 -14l223 684h400l-121 -332l274 11z" />
    <glyph glyph-name="arrowdbldown" unicode="&#x21d3;" horiz-adv-x="1243" 
d="M336 1326h258v-1017h-194l-375 471l193 152l118 -156v550zM649 309v1017h258v-550l119 156l193 -152l-375 -471h-195zM27 0v260h1190v-260h-1190z" />
    <glyph glyph-name="uni21DE" unicode="&#x21de;" horiz-adv-x="1105" 
d="M1056 860l-212 -191l-149 160v-201h126v-168h-126v-64h126v-168h-126v-94h-283v94h-127v168h127v64h-127v168h127v203l-150 -162l-212 191l504 504z" />
    <glyph glyph-name="uni21DF" unicode="&#x21df;" horiz-adv-x="1105" 
d="M695 409l149 160l212 -191l-502 -504l-504 504l212 191l150 -162v203h-127v168h127v64h-127v168h127v94h283v-94h126v-168h-126v-64h126v-168h-126v-201z" />
    <glyph glyph-name="uni21E7" unicode="&#x21e7;" horiz-adv-x="1451" 
d="M727 1265l656 -726v-5h-331v-534h-651v534h-332v4zM778 239v454h108l-159 168l-159 -168h108v-454h102z" />
    <glyph glyph-name="uni21E9" unicode="&#x21e9;" horiz-adv-x="1451" 
d="M1383 704v-5l-656 -726l-658 727v4h332v534h651v-534h331zM886 545h-108v454h-102v-454h-108l159 -168z" />
    <glyph glyph-name="uni21EA" unicode="&#x21ea;" horiz-adv-x="1451" 
d="M69 538l658 727l656 -726v-5h-331v-225h-651v225h-332v4zM780 515v178h108l-161 170l-161 -170h108v-178h106zM1052 0h-651v241h651v-241z" />
    <glyph glyph-name="uni21F1" unicode="&#x21f1;" horiz-adv-x="1503" 
d="M138 1326h1185v-123h-1059v-1097h-126v1220zM893 796l531 -531l-225 -224l-530 530v-226h-268v716h717v-265h-225z" />
    <glyph glyph-name="partialdiff" unicode="&#x2202;" horiz-adv-x="1144" 
d="M928 872q96 -118 132 -225q37 -109 37 -212q0 -221 -135 -337q-136 -116 -389 -116t-389 116q-134 115 -134 337q0 125 49 211t133 130q82 43 185 43q9 0 57 -4l-350 423h513zM628 308q14 42 14 125q0 81 -14 121q-13 38 -55 38t-55 -38q-14 -40 -14 -121q0 -83 14 -125
q14 -41 55 -41t55 41z" />
    <glyph glyph-name="emptyset" unicode="&#x2205;" horiz-adv-x="1377" 
d="M1139 1059q86 -86 132 -199q47 -115 47 -243q0 -173 -84 -317t-229 -227q-143 -82 -317 -82q-152 0 -283 66l-41 -57h-258l131 179q-84 87 -130 198q-47 114 -47 240q0 175 84 319t227 226q145 83 317 83q148 0 281 -64l43 57h258zM380 375l449 614q-65 24 -141 24
q-106 0 -197 -53q-90 -52 -141 -144t-51 -199q0 -137 81 -242zM886 276q91 53 142 143t51 198q0 139 -83 246l-450 -614q65 -26 142 -26q107 0 198 53z" />
    <glyph glyph-name="uni2206" unicode="&#x2206;" horiz-adv-x="1289" 
d="M446 1238h398l474 -1238h-1346zM646 746l-154 -442h311z" />
    <glyph glyph-name="product" unicode="&#x220f;" horiz-adv-x="1308" 
d="M85 -354v1680h1139v-1680h-442v1362h-255v-1362h-442z" />
    <glyph glyph-name="summation" unicode="&#x2211;" horiz-adv-x="1041" 
d="M9 1326h976v-318h-352l285 -522l-285 -521h352v-319h-976l481 840z" />
    <glyph glyph-name="minus" unicode="&#x2212;" horiz-adv-x="726" 
d="M46 386v300h635v-300h-635z" />
    <glyph glyph-name="radical" unicode="&#x221a;" horiz-adv-x="1292" 
d="M828 -354h-430l-370 846l416 166l133 -276l226 944h462z" />
    <glyph glyph-name="infinity" unicode="&#x221e;" horiz-adv-x="1400" 
d="M1275 812q80 -97 80 -276t-80 -276q-79 -96 -209 -96q-87 0 -180 48q-94 49 -184 140q-90 -92 -185 -140t-181 -48q-128 0 -210 97q-80 95 -80 275t80 275q81 96 210 96q88 0 181 -47q95 -48 185 -140q90 91 184 140q91 47 180 47q130 0 209 -95zM557 536q-89 83 -163 83
q-34 0 -52 -22q-18 -23 -18 -61t18 -61q18 -22 52 -22q74 0 163 83zM1058 476q19 24 19 60t-19 60q-18 23 -50 23q-76 0 -159 -83q83 -83 159 -83q32 0 50 23z" />
    <glyph glyph-name="integral" unicode="&#x222b;" horiz-adv-x="817" 
d="M715 1329q85 -7 143 -18l-32 -257q-49 7 -94 7q-36 0 -49 -18q-15 -20 -18 -61l-71 -1037q-11 -158 -86 -232t-257 -74q-72 0 -152 7t-140 20l32 256q49 -7 94 -7q35 0 49 18q15 20 18 62l71 1036q10 157 87 232q75 74 261 74q51 0 144 -8z" />
    <glyph glyph-name="approxequal" unicode="&#x2248;" horiz-adv-x="905" 
d="M828 603q-97 -41 -197 -41q-54 0 -96 9q-43 9 -95 27q-44 16 -83 25q-33 8 -83 8q-56 0 -95 -11q-53 -15 -101 -36v272q54 25 94 33q46 9 102 9q60 0 97 -8q41 -9 94 -27q44 -16 83 -25q38 -9 83 -9q51 0 100 13q45 12 97 35v-274zM828 209q-97 -41 -197 -41q-54 0 -96 9
q-51 11 -95 26q-44 16 -83 25q-37 9 -83 9q-53 0 -95 -12q-53 -15 -101 -36v273q50 24 94 32q52 10 102 10q55 0 97 -9q48 -10 94 -26q44 -16 83 -25q38 -9 83 -9q55 0 100 12q39 10 97 36v-274z" />
    <glyph glyph-name="notequal" unicode="&#x2260;" horiz-adv-x="1055" 
d="M969 886v-279h-251l-71 -140h322v-280h-461l-96 -187h-304l95 187h-116v280h256l71 140h-327v279h468l89 175h304l-88 -175h109z" />
    <glyph glyph-name="lessequal" unicode="&#x2264;" horiz-adv-x="979" 
d="M837 348l-710 310v279l710 312v-322l-377 -129l377 -128v-322zM140 287h718v-287h-718v287z" />
    <glyph glyph-name="greaterequal" unicode="&#x2265;" horiz-adv-x="979" 
d="M852 937v-279l-709 -310v322l377 128l-377 129v322zM122 0v287h718v-287h-718z" />
    <glyph glyph-name="uni2318" unicode="&#x2318;" horiz-adv-x="1333" 
d="M1020 554q79 0 147 -38q65 -36 106 -105q39 -66 39 -146t-39 -146q-40 -67 -106 -104q-68 -38 -147 -38q-80 0 -148 38q-66 37 -106 104q-39 66 -39 146v67h-120v-67q0 -80 -39 -146q-40 -67 -106 -104q-68 -38 -149 -38q-79 0 -147 38q-66 37 -106 104q-39 66 -39 146
t39 146q41 69 106 105q68 38 147 38h64v130h-64q-79 0 -147 38q-65 36 -106 105q-39 66 -39 146t39 146t106 105q68 39 147 39q81 0 149 -39q67 -39 106 -105t39 -146v-66h120v66q0 80 39 146t106 105q68 39 148 39t147 -39t106 -105t39 -146t-39 -146q-41 -69 -106 -105
q-68 -38 -147 -38h-65v-130h65zM377 907v66q0 26 -19 47q-18 20 -45 20t-45 -20q-19 -21 -19 -47q0 -28 19 -47t45 -19h64zM955 907h65q27 0 46 19q18 18 18 47q0 27 -18 47t-46 20t-46 -20q-19 -21 -19 -47v-66zM737 697h-143v-156h143v156zM377 332h-64q-27 0 -45 -19
q-19 -21 -19 -48q0 -28 19 -47q18 -18 45 -18t45 18q19 19 19 47v67zM955 332v-67q0 -28 19 -47q18 -18 46 -18t46 18t18 47t-18 48t-46 19h-65z" />
    <glyph glyph-name="uni2325" unicode="&#x2325;" horiz-adv-x="1379" 
d="M1052 318h225v-318h-451l-517 920h-224v318h451zM1277 920h-446v318h446v-318z" />
    <glyph glyph-name="uni2326" unicode="&#x2326;" horiz-adv-x="1660" 
d="M96 1238h1137l426 -619l-426 -619h-1137v1238zM338 223h759l272 396l-272 396h-759v-792zM1142 796l-176 -177l178 -177l-178 -178l-177 178l-179 -178l-178 178l178 177l-177 177l177 178l179 -176l177 176z" />
    <glyph glyph-name="uni232B" unicode="&#x232b;" horiz-adv-x="1660" 
d="M2 619l426 619h1137v-1238h-1137zM564 223h759v792h-759l-272 -396zM695 619l-177 177l177 178l179 -176l177 176l176 -178l-176 -177l178 -177l-178 -178l-177 178l-179 -178l-179 178z" />
    <glyph glyph-name="uni2380" unicode="&#x2380;" horiz-adv-x="916" 
d="M215 959q85 62 268 74q-7 21 -27 30q-19 9 -55 9q-47 0 -90 -9q-53 -11 -116 -28l-36 171q60 16 153 34q84 16 155 16q161 0 232 -62q70 -61 70 -212v-375h-277v49q-29 -31 -72 -44q-45 -14 -88 -14q-90 0 -146 53q-55 52 -55 141q0 106 84 167zM492 893q-53 -9 -76 -26
q-22 -16 -22 -43q0 -19 12 -31q11 -11 31 -11q25 0 40 16t15 44v51zM458 304l209 255l200 -188l-340 -371h-140l-337 373l199 186z" />
    <glyph glyph-name="uni2387" unicode="&#x2387;" horiz-adv-x="1379" 
d="M1277 1238v-318h-225l-516 -920h-451v318h224l517 920h451zM831 0v318h446v-318h-446z" />
    <glyph glyph-name="uni23CE" unicode="&#x23ce;" horiz-adv-x="1627" 
d="M1162 1061h361v-527q0 -156 -76 -226q-77 -71 -244 -71h-515l177 -157l-228 -253l-600 590l600 598l228 -253l-189 -171h408q41 0 59 19q19 21 19 60v391z" />
    <glyph glyph-name="uni2400" unicode="&#x2400;" horiz-adv-x="1375" 
d="M1318 1022l-216 -216q83 -125 83 -275q0 -136 -67 -249t-182 -181q-113 -67 -248 -67q-149 0 -276 83l-216 -216l-138 138l216 216q-83 127 -83 276q0 135 67 248q67 114 181 181q115 68 249 68q148 0 276 -84l216 216zM437 417l364 365q-54 23 -117 23q-70 0 -135 -37
q-63 -36 -99 -99t-36 -135q0 -63 23 -117zM939 644l-364 -365q54 -23 117 -23q70 0 135 37q63 36 99 99t36 135q0 63 -23 117z" />
    <glyph glyph-name="uni24D8" unicode="&#x24d8;" horiz-adv-x="1377" 
d="M371 74q-142 81 -227 227q-84 144 -84 316q0 175 84 319t227 226q145 83 317 83t317 -83q146 -84 229 -226q84 -144 84 -319q0 -173 -84 -317t-229 -227q-143 -82 -317 -82q-172 0 -317 83zM886 276q91 53 142 143t51 198q0 110 -51 200t-142 143t-198 53
q-106 0 -197 -53q-90 -52 -141 -144t-51 -199q0 -108 51 -198q51 -91 141 -143q91 -53 197 -53q107 0 198 53zM539 829q0 115 151 115q150 0 150 -115t-150 -115q-151 0 -151 115zM821 315h-260v346h260v-346z" />
    <glyph glyph-name="uni24FF" unicode="&#x24ff;" horiz-adv-x="1429" 
d="M399 73q-144 83 -227 227q-84 147 -84 315q0 170 84 317q82 144 226 226q147 84 317 84q169 0 316 -84q144 -82 226 -226q84 -147 84 -317q0 -169 -84 -316q-82 -144 -226 -226q-147 -84 -316 -84t-316 84zM949 318q71 65 71 213v180q0 146 -71 210t-238 64
q-169 0 -240 -64t-71 -210v-180q0 -148 71 -213t240 -65q167 0 238 65zM665 495v251q0 62 46 62q44 0 44 -62v-251q0 -63 -44 -63q-46 0 -46 63z" />
    <glyph glyph-name="filledbox" unicode="&#x25a0;" horiz-adv-x="1273" 
d="M106 0v1061h1061v-1061h-1061z" />
    <glyph glyph-name="uni25A1" unicode="&#x25a1;" horiz-adv-x="1273" 
d="M106 0v1061h1061v-1061h-1061zM932 833h-589v-603h589v603z" />
    <glyph glyph-name="uni25A4" unicode="&#x25a4;" horiz-adv-x="1474" 
d="M118 0v1238h1238v-1238h-1238zM249 1114v-39h977v39h-977zM249 918h977v39h-977v-39zM249 759h977v40h-977v-40zM249 600h977v40h-977v-40zM249 440h977v41h-977v-41zM249 281h977v41h-977v-41zM249 126h977v37h-977v-37z" />
    <glyph glyph-name="triagup" unicode="&#x25b2;" horiz-adv-x="1358" 
d="M1341 0h-1323l661 1173z" />
    <glyph glyph-name="uni25B3" unicode="&#x25b3;" horiz-adv-x="1358" 
d="M1341 0h-1323l661 1173zM679 702l-263 -470h528z" />
    <glyph glyph-name="triagdn" unicode="&#x25bc;" horiz-adv-x="1358" 
d="M679 -111l-661 1172h1323z" />
    <glyph glyph-name="uni25BD" unicode="&#x25bd;" horiz-adv-x="1358" 
d="M679 -111l-661 1172h1323zM944 829h-528l263 -470z" />
    <glyph glyph-name="uni25C6" unicode="&#x25c6;" horiz-adv-x="1061" 
d="M999 619l-468 -469l-469 469l469 469z" />
    <glyph glyph-name="uni25C7" unicode="&#x25c7;" horiz-adv-x="1061" 
d="M999 619l-468 -469l-469 469l469 469zM384 619l147 -147l146 147l-146 147z" />
    <glyph glyph-name="lozenge" unicode="&#x25ca;" horiz-adv-x="1043" 
d="M28 624l492 720l495 -720l-495 -718zM304 624l216 -318l217 318l-217 319z" />
    <glyph glyph-name="circle" unicode="&#x25cb;" horiz-adv-x="1377" 
d="M371 74q-142 81 -227 227q-84 144 -84 316q0 175 84 319t227 226q145 83 317 83t317 -83q146 -84 229 -226q84 -144 84 -319q0 -173 -84 -317t-229 -227q-143 -82 -317 -82q-172 0 -317 83zM886 276q91 53 142 143t51 198q0 110 -51 200t-142 143t-198 53
q-106 0 -197 -53q-90 -52 -141 -144t-51 -199q0 -108 51 -198q51 -91 141 -143q91 -53 197 -53q107 0 198 53z" />
    <glyph glyph-name="uni25CC" unicode="&#x25cc;" horiz-adv-x="1383" 
d="M593 1012q-39 39 -39 99q0 59 39 98q40 40 99 40q58 0 98 -40q39 -39 39 -98q0 -60 -39 -99q-41 -41 -98 -41q-58 0 -99 41zM244 1064q40 40 99 40q58 0 98 -40t40 -98q0 -59 -40 -99q-39 -39 -98 -39q-60 0 -99 39q-41 41 -41 99q0 57 41 98zM941 1064q40 40 99 40
q58 0 98 -40t40 -98q0 -59 -40 -99q-39 -39 -98 -39q-60 0 -99 39q-41 41 -41 99q0 57 41 98zM100 518q-40 40 -40 99q0 58 40 98t98 40t98 -40t40 -98q0 -59 -40 -99t-98 -40t-98 40zM1087 518q-40 40 -40 99q0 58 40 98t98 40t98 -40t40 -98q0 -59 -40 -99t-98 -40t-98 40
zM244 367q40 40 99 40q58 0 98 -40t40 -98t-40 -98t-98 -40q-59 0 -99 40q-41 41 -41 98t41 98zM941 365q40 40 99 40q58 0 98 -40t40 -98t-40 -98t-98 -40q-59 0 -99 40q-41 41 -41 98t41 98zM593 27q-39 39 -39 99q0 59 39 98q40 40 99 40q58 0 98 -40q39 -39 39 -98
q0 -60 -39 -99q-41 -41 -98 -41q-58 0 -99 41z" />
    <glyph glyph-name="uni25CF" unicode="&#x25cf;" horiz-adv-x="1377" 
d="M371 74q-142 81 -227 227q-84 144 -84 316q0 175 84 319t227 226q145 83 317 83t317 -83q146 -84 229 -226q84 -144 84 -319q0 -173 -84 -317t-229 -227q-143 -82 -317 -82q-172 0 -317 83z" />
    <glyph glyph-name="uni2605" unicode="&#x2605;" horiz-adv-x="1457" 
d="M727 191l-460 -285l126 527l-411 350l538 41l209 502l207 -502l539 -41l-414 -350l131 -527z" />
    <glyph glyph-name="uni2606" unicode="&#x2606;" horiz-adv-x="1457" 
d="M727 191l-460 -285l126 527l-411 350l538 41l209 502l207 -502l539 -41l-414 -350l131 -527zM626 516l-42 -171l148 92l147 -92l-41 171l133 112l-173 14l-66 161l-65 -161l-174 -14z" />
    <glyph glyph-name="uni2610" unicode="&#x2610;" horiz-adv-x="1273" 
d="M106 0v1061h1061v-1061h-1061zM932 833h-589v-603h589v603z" />
    <glyph glyph-name="uni2611" unicode="&#x2611;" horiz-adv-x="1273" 
d="M106 0v1061h1061v-1061h-1061zM932 833h-589v-603h589v603zM723 288h-173l-170 278l156 95l85 -175l58 285h204z" />
    <glyph glyph-name="uni2612" unicode="&#x2612;" horiz-adv-x="1273" 
d="M106 0v1061h1061v-1061h-1061zM343 230h589v603h-589v-603zM638 394l-120 -120l-136 138l119 119l-119 118l136 138l120 -118l119 118l136 -138l-118 -118l118 -119l-136 -138z" />
    <glyph glyph-name="uni262E" unicode="&#x262e;" horiz-adv-x="1377" 
d="M1005 1162q146 -84 229 -226q84 -144 84 -319q0 -173 -84 -317t-229 -227q-143 -82 -317 -82q-172 0 -317 83q-142 81 -227 227q-84 144 -84 316q0 175 84 319t227 226q145 83 317 83t317 -83zM568 994q-120 -38 -194 -142q-75 -105 -75 -235q0 -39 5 -69l264 202v244z
M1005 852q-75 103 -193 142v-244l262 -200q5 26 5 67q0 133 -74 235zM407 343q63 -69 161 -102v229zM812 242q92 30 161 103l-161 125v-228z" />
    <glyph glyph-name="uni262F" unicode="&#x262f;" horiz-adv-x="1377" 
d="M1005 1162q146 -84 229 -226q84 -144 84 -319q0 -173 -84 -317t-229 -227q-143 -82 -317 -82q-172 0 -317 83q-142 81 -227 227q-84 144 -84 316q0 175 84 319t227 226q145 83 317 83t317 -83zM491 960q-90 -52 -141 -144t-51 -199v-12l2 25q3 -87 58 -123
q57 -37 119 -37q61 0 100 24t60 59q21 34 43 89q61 147 191 147q84 0 139 -46q56 -47 68 -124q0 108 -51 198t-142 143t-198 53q-106 0 -197 -53z" />
    <glyph glyph-name="smileface" unicode="&#x263a;" horiz-adv-x="1377" 
d="M371 74q-142 81 -227 227q-84 144 -84 316q0 175 84 319t227 226q145 83 317 83t317 -83q146 -84 229 -226q84 -144 84 -319q0 -173 -84 -317t-229 -227q-143 -82 -317 -82q-172 0 -317 83zM886 276q91 53 142 143t51 198q0 110 -51 200t-142 143t-198 53
q-106 0 -197 -53q-90 -52 -141 -144t-51 -199q0 -108 51 -198q51 -91 141 -143q91 -53 197 -53q107 0 198 53zM438 667q-40 40 -40 101q0 60 40 100q41 41 100 41q56 0 97 -41t41 -100q0 -61 -40 -101q-41 -41 -98 -41q-59 0 -100 41zM742 667q-40 40 -40 101q0 54 42 98
q42 43 98 43t98 -43q42 -44 42 -98q0 -60 -41 -101t-99 -41q-59 0 -100 41zM1026 591q0 -89 -45 -162q-45 -74 -122 -116t-171 -42q-93 0 -169 42q-78 43 -121 116q-44 74 -44 162h217q0 -57 30 -96t87 -39q58 0 89 39q31 38 31 96h218z" />
    <glyph glyph-name="uni263F" unicode="&#x263f;" horiz-adv-x="1414" 
d="M833 771q106 -27 184 -90q81 -66 127 -158t46 -199q0 -129 -64 -235q-65 -108 -176 -169q-110 -61 -243 -61q-132 0 -242 61q-111 61 -176 169q-64 106 -64 235q0 107 46 199q47 94 126 157q80 64 183 91l7 113l-140 -63l-77 249l153 32l-102 122l210 154l75 -126l81 126
l209 -154l-105 -120l154 -34l-78 -249l-146 67zM831 195q50 52 50 129t-50 129q-50 51 -124 51q-73 0 -123 -51q-50 -52 -50 -129t50 -129t123 -52q74 0 124 52z" />
    <glyph glyph-name="female" unicode="&#x2640;" horiz-adv-x="1768" 
d="M1777 28q0 -23 -23 -40q-38 -26 -114 -39q-79 -14 -170 -14q-130 0 -218 24q-167 -106 -368 -106t-368 106q-88 -24 -217 -24q-92 0 -171 14q-76 13 -114 39q-23 17 -23 40q0 34 32 57q90 68 128 194q38 128 38 269q0 186 94 348q93 161 254 254t347 93q188 0 348 -93
q161 -93 254 -254q93 -160 93 -348q0 -141 38 -269q37 -125 129 -194q31 -22 31 -57zM641 1066q-115 -58 -196 -153q-82 -97 -114 -220q145 10 322 63q178 53 297 151q36 27 62 27q30 0 53 -27q86 -98 190 -155q103 -57 186 -69q-30 124 -112 224q-85 103 -198 159
q-116 57 -247 57q-129 0 -243 -57zM389 264q79 -134 211 -212q134 -79 284 -79q151 0 285 79q130 77 210 212q78 132 78 284v18q-101 6 -220 57q-123 53 -234 171q-155 -118 -347 -166q-193 -49 -345 -50v-30q0 -152 78 -284zM638 517q18 -25 18 -66t-18 -66
q-18 -26 -46 -26q-29 0 -47 26q-18 25 -18 66t18 66q18 26 47 26q28 0 46 -26zM1224 517q18 -25 18 -66t-18 -66q-18 -26 -46 -26q-30 0 -48 26q-18 25 -18 66t18 66q18 26 48 26q28 0 46 -26zM1056 281q25 0 37 -16q16 -19 16 -39q0 -28 -27 -49q-84 -74 -198 -74t-198 74
q-26 20 -26 49q0 20 16 39q16 16 37 16q25 0 44 -19q23 -20 57 -32q35 -12 70 -12q36 0 70 12q35 12 58 32q20 19 44 19zM271 51q59 0 120 11q-84 81 -136 193q-29 -131 -96 -188q39 -16 112 -16zM1498 51q72 0 111 16q-66 56 -95 188q-52 -112 -136 -193q61 -11 120 -11z
" />
    <glyph glyph-name="male" unicode="&#x2642;" horiz-adv-x="1768" 
d="M1232 1150q161 -93 254 -254q93 -160 93 -348q0 -186 -93 -347t-254 -254q-162 -94 -348 -94q-185 0 -347 94q-161 93 -254 254q-94 162 -94 347q0 186 94 348q93 161 254 254t347 93q188 0 348 -93zM640 1068q-113 -56 -197 -155q-82 -97 -114 -220q143 10 322 63
q180 53 299 151q36 27 62 27q30 0 53 -27q87 -98 191 -154q108 -58 187 -70q-30 124 -112 224q-83 101 -199 159q-118 59 -248 59q-128 0 -244 -57zM1171 50q130 77 210 212q78 132 78 286v18q-101 6 -220 57q-124 53 -236 171q-156 -117 -349 -166t-344 -50v-30
q0 -156 77 -286q79 -134 211 -212t286 -78q155 0 287 78zM638 517q18 -25 18 -66t-18 -66q-18 -26 -46 -26q-29 0 -47 26q-18 25 -18 66t18 66q18 26 47 26q28 0 46 -26zM1224 517q18 -25 18 -66t-18 -66q-18 -26 -46 -26q-30 0 -48 26q-18 25 -18 66t18 66q18 26 48 26
q28 0 46 -26zM1056 281q25 0 37 -16q16 -19 16 -39q0 -28 -27 -49q-84 -74 -198 -74t-198 74q-26 20 -26 49q0 20 16 39q16 16 37 16q25 0 44 -19q23 -20 57 -32q35 -12 70 -12q36 0 70 12q35 12 58 32q20 19 44 19z" />
    <glyph glyph-name="uni2661" unicode="&#x2661;" horiz-adv-x="1402" 
d="M1172 1093q78 -43 121 -117q44 -76 44 -166q0 -84 -35 -158q-38 -81 -112 -159l-490 -527l-488 527q-72 76 -111 159q-36 76 -36 158q0 90 44 166t119 117q77 42 172 42q94 0 162 -38q66 -37 138 -121q74 83 140 122q62 37 159 37t173 -42zM907 890q-24 -16 -67 -59
l-140 -141l-138 141q-41 41 -68 59q-26 17 -64 17q-52 0 -83 -34q-32 -35 -32 -86q0 -71 56 -131l329 -348l329 348q31 33 45 65q14 33 14 66q0 52 -31 86t-86 34q-39 0 -64 -17z" />
    <glyph glyph-name="heart" unicode="&#x2665;" horiz-adv-x="1390" 
d="M1158 1102q74 -43 118 -120q43 -76 43 -167q0 -79 -37 -154q-39 -80 -111 -159l-476 -521l-477 521q-75 80 -111 158q-36 76 -36 155q0 93 41 168q42 77 116 120t166 43q97 0 158 -36t143 -116q81 81 141 116q62 36 153 36q93 0 169 -44z" />
    <glyph glyph-name="diamond" unicode="&#x2666;" horiz-adv-x="1117" 
d="M559 1351l484 -721l-484 -298l-485 315zM51 562l508 -359l507 342l-507 -761z" />
    <glyph glyph-name="uni26A5" unicode="&#x26a5;" horiz-adv-x="1768" 
d="M1737 653q0 -16 -16 -25q-37 -20 -108 -20q-69 0 -127 18q-93 -64 -207 -64q-117 0 -207 64q-58 -18 -128 -18t-107 20q-18 8 -18 26q0 20 19 30q37 21 58 96q20 71 20 148q0 104 48 186q49 84 131 132q84 49 184 49t184 -49q80 -47 130 -132q48 -83 48 -186
q0 -70 20 -147q19 -75 51 -93q25 -13 25 -35zM133 999q-29 0 -29 29v194q0 30 29 30h583q30 0 30 -30v-194q0 -29 -30 -29h-583zM1090 1171q-80 -66 -103 -168q78 6 165 35q88 29 155 92q11 11 23 11q18 0 30 -21q41 -58 102 -92q60 -34 114 -43q-20 109 -102 180
q-83 71 -195 71q-109 0 -189 -65zM686 1196h-522v-140h522v140zM1018 774q41 -71 109 -111t152 -40q85 0 152 38q68 39 109 108q39 67 41 154q-56 7 -128 41q-70 33 -127 99q-132 -115 -348 -126v-9q0 -84 40 -154zM1140 912q8 -14 8 -38q0 -23 -8 -37q-7 -13 -21 -13
q-13 0 -22 13t-9 37t9 38q9 13 22 13q14 0 21 -13zM1462 912q8 -14 8 -38q0 -23 -8 -37q-7 -13 -21 -13t-23 13q-8 12 -8 37q0 26 8 38q9 13 23 13t21 -13zM133 660q-29 0 -29 30v193q0 30 29 30h583q30 0 30 -30v-193q0 -30 -30 -30h-583zM686 856h-522v-140h522v140z
M946 665q31 0 74 7q-45 51 -67 110q-17 -81 -53 -113q34 -4 46 -4zM1608 665q29 0 47 4q-38 26 -51 111q-22 -56 -67 -108q27 -7 71 -7zM1374 766q12 0 23 -11q7 -7 7 -18q0 -12 -12 -24q-44 -39 -113 -39q-73 0 -112 39q-12 11 -12 24q0 12 10 22q6 7 16 7q9 0 18 -9
q31 -27 81 -27q43 0 80 29q6 7 14 7zM623 509q85 -50 134 -135t49 -187q0 -98 -49 -180q-51 -84 -134 -132q-84 -48 -184 -48q-98 0 -180 49q-83 50 -131 134t-48 183t48 183q47 83 131 133q83 50 180 50q99 0 184 -50zM255 435q-83 -66 -108 -168q79 7 168 36q87 28 150 91
q14 11 23 11q20 0 32 -21q40 -55 107 -92q63 -35 116 -43q-19 108 -105 180q-84 71 -194 71q-108 0 -189 -65zM1643 163q2 -4 2 -11q0 -13 -18 -19l-136 -32l92 -101q9 -9 9 -18t-13 -19l-198 -133q-6 -5 -14 -5q-10 0 -16 11l-74 118l-73 -118q-6 -11 -16 -11q-8 0 -15 5
l-199 133q-12 9 -12 19q0 9 9 18l92 101l-138 32q-21 8 -14 30l74 219q7 19 28 12l131 -53l-9 135v3q0 20 22 20h242q24 0 21 -23l-10 -135l129 55q4 2 10 2q5 0 13 -4q6 -3 7 -10zM1516 -12l-124 145l189 47l-53 147l-179 -65l9 184h-162l10 -184l-180 65l-52 -147l186 -47
l-120 -145l133 -92l104 157l106 -157zM594 -74q70 41 111 110q41 70 43 151q-59 6 -131 39t-131 101q-77 -67 -171 -94q-97 -28 -177 -31v-9q0 -83 42 -154t111 -112q71 -42 153 -42q80 0 150 41zM298 176q8 -14 8 -38q0 -22 -8 -36t-22 -14t-22 14t-8 36q0 24 8 38
q7 13 22 13t22 -13zM623 176q8 -14 8 -38q0 -22 -8 -36t-22 -14t-22 14t-8 36q0 24 8 38q7 13 22 13t22 -13zM538 37q10 0 17 -7q9 -9 9 -21q0 -14 -14 -25q-14 -14 -46 -27q-30 -12 -65 -12q-36 0 -66 12q-33 13 -48 27q-14 11 -14 27q0 7 9 19q7 7 18 7t23 -9
q11 -11 33 -19q20 -7 45 -7q23 0 43 7q22 8 33 19q12 9 23 9z" />
    <glyph glyph-name="uni272A" unicode="&#x272a;" horiz-adv-x="1377" 
d="M1005 1162q146 -84 229 -226q84 -144 84 -319q0 -173 -84 -317t-229 -227q-143 -82 -317 -82q-172 0 -317 83q-142 81 -227 227q-84 144 -84 316q0 175 84 319t227 226q145 83 317 83t317 -83z" />
    <glyph glyph-name="uni2731" unicode="&#x2731;" horiz-adv-x="1379" 
d="M1123 1105l205 -353l-230 -133l230 -133l-205 -353l-228 132v-265h-410v265l-229 -132l-205 353l230 133l-230 133l205 353l229 -132v265h410v-265z" />
    <glyph glyph-name="uni2732" unicode="&#x2732;" horiz-adv-x="1305" 
d="M792 858h-277v380h277v-380zM930 617l-138 241l328 194l139 -240zM515 858l-138 -243l-335 191l142 243zM1263 426l-140 -242l-331 194l138 239zM184 187l-138 239l331 189l138 -237zM792 0h-277v378h277v-378z" />
    <glyph glyph-name="uni275B" unicode="&#x275b;" horiz-adv-x="779" 
d="M341 916q68 39 140 39q64 0 122 -32q56 -31 89 -93q33 -61 33 -142q0 -91 -43 -162t-120 -112t-171 -41q-98 0 -175 46q-79 47 -122 127q-44 82 -44 183q0 138 69 257q71 122 204 195t314 73v-140q-102 -1 -191 -55q-87 -53 -117 -139z" />
    <glyph glyph-name="uni275C" unicode="&#x275c;" horiz-adv-x="779" 
d="M564 1208q79 -47 122 -127q44 -82 44 -183q0 -138 -69 -257q-70 -120 -204 -194t-314 -74v140q102 1 191 55q87 53 117 139l-12 4q-68 -39 -140 -39q-64 0 -122 32q-56 31 -89 93t-33 142q0 91 43 162t120 112t171 41q98 0 175 -46z" />
    <glyph glyph-name="uni275D" unicode="&#x275d;" horiz-adv-x="1505" 
d="M341 916q68 39 140 39q64 0 122 -32q56 -31 89 -93q33 -61 33 -142q0 -91 -43 -162t-120 -112t-171 -41q-98 0 -175 46q-79 47 -122 127q-44 82 -44 183q0 138 69 257q71 122 204 195t314 73v-140q-102 -1 -191 -55q-87 -53 -117 -139zM1066 916q68 39 140 39
q64 0 122 -32q57 -31 90 -93q32 -60 32 -142q0 -91 -43 -162q-44 -72 -119 -112q-77 -41 -172 -41q-98 0 -175 46q-79 47 -122 127q-44 82 -44 183q0 138 69 257q70 122 204 195q133 73 314 73v-140q-102 -1 -191 -55q-87 -53 -117 -139z" />
    <glyph glyph-name="uni275E" unicode="&#x275e;" horiz-adv-x="1505" 
d="M564 1208q79 -47 122 -127q44 -82 44 -183q0 -138 -69 -257q-70 -120 -204 -194t-314 -74v140q102 1 191 55q87 53 117 139l-12 4q-68 -39 -140 -39q-64 0 -122 32q-56 31 -89 93t-33 142q0 91 43 162t120 112t171 41q98 0 175 -46zM1289 1208q79 -47 122 -127
q45 -84 45 -183q0 -136 -70 -257q-70 -120 -204 -194t-314 -74v140q102 1 191 55q87 53 117 139l-12 4q-68 -39 -140 -39q-64 0 -122 32q-56 31 -89 93t-33 142q0 91 43 162t120 112t171 41q98 0 175 -46z" />
    <glyph glyph-name="uni2761" unicode="&#x2761;" horiz-adv-x="1335" 
d="M1233 1238v-974q0 -301 -129 -466q-130 -166 -439 -166q-214 0 -353 90q-138 89 -202 224q-65 137 -66 270l225 58q12 -160 61 -217q48 -55 123 -55q51 0 79 25q29 26 41 82t12 155v155q-209 3 -330 108q-122 105 -122 302q0 200 122 305q120 104 330 104h648zM907 -30
q67 106 67 294v707h-130v-707q0 -163 -30 -253q-29 -88 -105 -147q131 0 198 106z" />
    <glyph glyph-name="uni2776" unicode="&#x2776;" horiz-adv-x="1429" 
d="M399 73q-144 83 -227 227q-84 147 -84 315q0 170 84 317q82 144 226 226q147 84 317 84q169 0 316 -84q144 -82 226 -226q84 -147 84 -317q0 -169 -84 -316q-82 -144 -226 -226q-147 -84 -316 -84t-316 84zM506 258h458v179h-92v536h-214q-10 -55 -34 -76
q-16 -16 -41 -22q-21 -5 -70 -5v-178h99v-255h-106v-179z" />
    <glyph glyph-name="uni2777" unicode="&#x2777;" horiz-adv-x="1429" 
d="M399 73q-144 83 -227 227q-84 147 -84 315q0 170 84 317q82 144 226 226q147 84 317 84q169 0 316 -84q144 -82 226 -226q84 -147 84 -317q0 -169 -84 -316q-82 -144 -226 -226q-147 -84 -316 -84t-316 84zM417 260h596v179h-162l40 51q68 87 94 153q25 63 25 119
q0 102 -73 161t-221 59q-152 0 -231 -68q-78 -67 -66 -221h255q-2 24 -2 44q0 37 9 54t26 17q38 0 38 -46q0 -36 -12 -64q-13 -32 -45 -72z" />
    <glyph glyph-name="uni2778" unicode="&#x2778;" horiz-adv-x="1429" 
d="M399 73q-144 83 -227 227q-84 147 -84 315q0 170 84 317q82 144 226 226q147 84 317 84q169 0 316 -84q144 -82 226 -226q84 -147 84 -317q0 -169 -84 -316q-82 -144 -226 -226q-147 -84 -316 -84t-316 84zM943 304q74 56 74 163q0 67 -30 110q-31 45 -81 58q42 20 66 61
q24 42 24 93q0 90 -68 141q-69 52 -212 52q-146 0 -219 -64q-72 -63 -65 -189h249q-2 83 39 83q18 0 24 -13t6 -40q0 -31 -13 -44q-15 -15 -45 -15h-52v-162h60q33 0 50 -14q16 -13 16 -45q0 -60 -44 -60q-21 0 -33 23q-12 22 -10 67h-249q-8 -135 67 -198t228 -63
q144 0 218 56z" />
    <glyph glyph-name="uni2779" unicode="&#x2779;" horiz-adv-x="1429" 
d="M399 73q-144 83 -227 227q-84 147 -84 315q0 170 84 317q82 144 226 226q147 84 317 84q169 0 316 -84q144 -82 226 -226q84 -147 84 -317q0 -169 -84 -316q-82 -144 -226 -226q-147 -84 -316 -84t-316 84zM734 378v-120h248v120h65v174h-65v143h-246v-143h-76l166 421
h-265l-190 -464v-131h363z" />
    <glyph glyph-name="uni277A" unicode="&#x277a;" horiz-adv-x="1429" 
d="M399 73q-144 83 -227 227q-84 147 -84 315q0 170 84 317q82 144 226 226q147 84 317 84q169 0 316 -84q144 -82 226 -226q84 -147 84 -317q0 -169 -84 -316q-82 -144 -226 -226q-147 -84 -316 -84t-316 84zM951 313q66 66 66 202q0 129 -48 190t-161 61q-81 0 -118 -34
v67h306v174h-550v-414h249q6 33 32 33q20 0 27 -16q8 -18 8 -65q0 -49 -8 -68t-27 -19q-32 0 -32 68h-249q0 -244 281 -244q159 0 224 65z" />
    <glyph glyph-name="uni277B" unicode="&#x277b;" horiz-adv-x="1429" 
d="M399 73q-144 83 -227 227q-84 147 -84 315q0 170 84 317q82 144 226 226q147 84 317 84q169 0 316 -84q144 -82 226 -226q84 -147 84 -317q0 -169 -84 -316q-82 -144 -226 -226q-147 -84 -316 -84t-316 84zM921 317q76 67 76 194q0 107 -60 164t-150 57q-16 0 -34 -3
l202 245h-295l-168 -210q-55 -66 -77 -129q-21 -61 -21 -124q0 -127 78 -194q79 -68 225 -68q147 0 224 68zM665 438q-9 24 -9 71t9 69q9 23 32 23q24 0 31 -22q8 -24 8 -70q0 -45 -8 -71q-8 -24 -31 -24t-32 24z" />
    </font>
</defs>
</svg>
