<?xml version="1.0" standalone="no"?>
<!DOCTYPE svg PUBLIC "-//W3C//DTD SVG 1.1//EN" "http://www.w3.org/Graphics/SVG/1.1/DTD/svg11.dtd" >
<svg xmlns="http://www.w3.org/2000/svg" xmlns:xlink="http://www.w3.org/1999/xlink" version="1.1">
<metadata>
Created by FontForge 20201107 at Mon Jul  8 07:16:36 2024
 By 
Copyright (c) 2009-2021 Avraham Cornfeld. All rights reserved.
</metadata>
<defs>
<font id="AlmoniMLv5AAA-Bold" horiz-adv-x="0" >
  <font-face 
    font-family="Almoni ML v5 AAA"
    font-weight="700"
    font-stretch="normal"
    units-per-em="2048"
    panose-1="0 0 8 0 0 0 0 0 0 0"
    ascent="1638"
    descent="-410"
    x-height="973"
    cap-height="1238"
    bbox="-1302 -571 2649 1988"
    underline-thickness="109"
    underline-position="-301"
    unicode-range="U+0020-FFFD"
  />
<missing-glyph horiz-adv-x="988" 
d="M113 0q-53 0 -53 53v1130q0 55 53 55h761q56 0 56 -55v-1130q0 -53 -56 -53h-761zM331 1074l164 -306l163 306h-327zM239 960v-682l170 341zM578 619l172 -341v682zM495 472l-164 -308h327z" />
    <glyph glyph-name="f_f.liga" unicode="ff" horiz-adv-x="1292" 
d="M1108 1122q-17 -25 -17 -84v-65h166v-195h-166v-778h-283v778h-368v-778h-283v778h-113v195h113v69q0 151 64 224t207 73q110 0 228 -25l-26 -180q-78 12 -107 12q-47 0 -65 -24t-18 -84v-65h368v69q0 152 63 224q64 73 206 73q110 0 228 -25l-26 -180q-1 0 -8 1t-16 2.5
t-19 3.5q-28 5 -63 5q-49 0 -65 -24z" />
    <glyph glyph-name="f_f_i.liga" unicode="ffi" horiz-adv-x="1814" 
d="M1398 1334q165 -15 309 -34v-228h-297v69q-157 14 -213 14q-60 0 -83 -28t-23 -96v-58h166v-195h-166v-778h-283v778h-368v-778h-283v778h-113v195h113v69q0 151 64 224t207 73q110 0 228 -25l-26 -180q-78 12 -107 12q-47 0 -65 -24t-18 -84v-65h368v60q0 107 34 178
q33 70 112 103q80 34 213 34q79 0 231 -14zM1694 0h-297v973h297v-973z" />
    <glyph glyph-name="f_f_l.liga" unicode="ffl" horiz-adv-x="1874" 
d="M1830 209v-209h-145q-108 0 -165 19q-58 19 -87 73q-29 53 -29 156v894q-169 13 -207 13q-60 0 -83 -28t-23 -96v-58h166v-195h-166v-778h-283v778h-368v-778h-283v778h-113v195h113v69q0 151 64 224t207 73q110 0 228 -25l-26 -180q-78 12 -107 12q-47 0 -65 -24
t-18 -84v-65h368v60q0 107 34 178q33 70 112 103q80 34 213 34q73 0 242 -13q157 -12 278 -30v-1020q0 -43 17 -60q16 -16 59 -16h67z" />
    <glyph glyph-name="f_i.liga" unicode="fi" horiz-adv-x="1163" 
d="M747 1334q165 -15 309 -34v-228h-297v69q-156 14 -213 14q-60 0 -83 -28t-23 -96v-58h168v-195h-168v-778h-283v778h-113v195h113v60q0 164 81 239q82 76 278 76q79 0 231 -14zM1045 0h-297v973h297v-973z" />
    <glyph glyph-name="f_l.liga" unicode="fl" horiz-adv-x="1225" 
d="M1180 209v-209h-144q-108 0 -166 19q-59 19 -88 73q-29 53 -29 156v894q-167 13 -207 13q-60 0 -83 -28t-23 -96v-58h168v-195h-168v-778h-283v778h-113v195h113v60q0 164 81 239q82 76 278 76q73 0 242 -13q157 -12 278 -30v-1020q0 -43 17 -60q16 -16 59 -16h68z" />
    <glyph glyph-name="uni05D005D005D0.liga" unicode="&#x5d0;&#x5d0;&#x5d0;" horiz-adv-x="2345" 
d="M113 1061h296l725 -1061h-294l-380 555q-41 -12 -59 -44q-17 -30 -17 -88v-423h-290v437q0 105 62 190t175 118zM1401 0l-725 1061h293l727 -1061h-295zM2257 0h-296l-725 1061h296l336 -493q51 12 72 43t21 93v357h290v-371q0 -133 -69 -209q-70 -78 -180 -108z" />
    <glyph glyph-name=".notdef" horiz-adv-x="988" 
d="M113 0q-53 0 -53 53v1130q0 55 53 55h761q56 0 56 -55v-1130q0 -53 -56 -53h-761zM331 1074l164 -306l163 306h-327zM239 960v-682l170 341zM578 619l172 -341v682zM495 472l-164 -308h327z" />
    <glyph glyph-name=".null" 
 />
    <glyph glyph-name="nonmarkingreturn" horiz-adv-x="588" 
 />
    <glyph glyph-name="space" unicode=" " horiz-adv-x="498" 
 />
    <glyph glyph-name="exclam" unicode="!" horiz-adv-x="567" 
d="M136 739v499h297v-499l-35 -327h-228zM140 0v295h288v-295h-288z" />
    <glyph glyph-name="quotedbl" unicode="&#x22;" horiz-adv-x="760" 
d="M78 734l60 504h225v-184l-112 -320h-173zM394 734l61 504h226v-184l-112 -320h-175z" />
    <glyph glyph-name="numbersign" unicode="#" horiz-adv-x="1397" 
d="M1342 951l-51 -210h-175l-55 -221h177l-50 -209h-176l-76 -311h-273l76 311h-230l-77 -311h-271l76 311h-182l51 209h182l55 221h-184l53 210h182l71 287h271l-71 -287h230l71 287h270l-69 -287h175zM614 741l-55 -221h232l53 221h-230z" />
    <glyph glyph-name="dollar" unicode="$" horiz-adv-x="1140" 
d="M979 99q-102 -87 -293 -108v-118h-223v118q-185 18 -286 111t-101 282q0 3 4 65h281q-2 -18 -2 -42q0 -104 52 -152t164 -48q100 0 150 31q51 32 51 87q0 41 -18 70q-20 31 -71 59q-54 29 -155 62q-187 62 -285 125q-96 61 -129 129t-33 166q0 118 96 203q95 85 281 106
v120h222v-118q393 -41 375 -414h-274q6 200 -198 200q-99 0 -148 -29q-48 -28 -48 -83q0 -32 17 -57q16 -23 66 -49q44 -23 147 -56q187 -57 288 -119q99 -62 135 -135q37 -76 37 -180q0 -139 -102 -226z" />
    <glyph glyph-name="percent" unicode="%" horiz-adv-x="1478" 
d="M542 1182q68 -63 68 -192v-215q0 -132 -68 -195q-69 -64 -208 -64q-138 0 -207 64q-67 63 -67 195v215q0 129 67 192t207 63t208 -63zM249 760q0 -99 85 -99q87 0 87 99v243q0 97 -87 97q-85 0 -85 -97v-243zM1354 655q68 -63 68 -192v-215q0 -132 -68 -195
q-69 -64 -208 -64q-138 0 -207 64q-67 63 -67 195v215q0 129 67 192t207 63t208 -63zM1061 233q0 -99 85 -99q87 0 87 99v243q0 97 -87 97q-85 0 -85 -97v-243zM368 0h-181l918 1238h181z" />
    <glyph glyph-name="ampersand" unicode="&#x26;" horiz-adv-x="1184" 
d="M1164 0h-292l-124 173l-7 -9q-62 -85 -151 -129q-88 -44 -180 -44q-80 0 -149 31q-71 32 -118 89q-78 93 -78 200q0 89 50 172q52 87 134 147l114 88l-69 90q-71 94 -71 188q0 74 41 130q42 57 119 90t178 33q89 0 159 -35q69 -34 108 -93t39 -129q0 -59 -32 -123
q-29 -58 -96 -117l-338 -294q-70 -63 -70 -120q0 -34 26 -69q14 -19 36 -28q21 -9 44 -9q79 0 141 92l271 346h290l-242 -309zM529 849l53 41q32 26 48 54q17 29 17 57q0 33 -23 54q-21 20 -65 20q-50 0 -76 -20q-27 -21 -27 -56q0 -52 52 -122z" />
    <glyph glyph-name="quotesingle" unicode="'" horiz-adv-x="454" 
d="M78 734l60 504h237v-184l-111 -320h-186z" />
    <glyph glyph-name="parenleft" unicode="(" horiz-adv-x="631" 
d="M416 245q36 -165 93 -296q59 -136 117 -213h-202q-131 151 -210 370q-78 218 -78 469q0 253 78 470q79 219 210 370h202q-59 -79 -117 -212q-57 -132 -93 -297t-36 -331q0 -167 36 -330z" />
    <glyph glyph-name="parenright" unicode=")" horiz-adv-x="631" 
d="M215 906q-35 160 -94 297q-58 133 -117 212h203q132 -151 209 -369q77 -217 77 -471q0 -250 -77 -469q-77 -218 -209 -370h-203q58 77 117 213t94 296q36 163 36 330q0 166 -36 331z" />
    <glyph glyph-name="asterisk" unicode="*" horiz-adv-x="753" 
d="M638 1178l68 -214l-188 -36l131 -143l-182 -132l-94 155l-85 -155l-182 132l127 143l-185 36l67 214l168 -81l-19 191h226l-27 -195z" />
    <glyph glyph-name="plus" unicode="+" horiz-adv-x="896" 
d="M545 631h283v-191h-283v-284h-191v284h-285v191h285v285h191v-285z" />
    <glyph glyph-name="comma" unicode="," horiz-adv-x="431" 
d="M55 -249l48 578h237v-203l-128 -375h-157z" />
    <glyph glyph-name="hyphen" unicode="-" horiz-adv-x="742" 
d="M69 432v208h605v-208h-605z" />
    <glyph glyph-name="period" unicode="." horiz-adv-x="459" 
d="M81 0v308h297v-308h-297z" />
    <glyph glyph-name="slash" unicode="/" horiz-adv-x="721" 
d="M5 0l464 1238h246l-464 -1238h-246z" />
    <glyph glyph-name="zero" unicode="0" horiz-adv-x="1130" 
d="M921 1142q115 -106 115 -332v-380q0 -226 -115 -334t-355 -108t-356 108t-116 334v380q0 225 116 332t356 107q239 0 355 -107zM391 407q0 -103 42 -150t133 -47q173 0 173 197v426q0 193 -173 193q-91 0 -133 -46t-42 -147v-426z" />
    <glyph glyph-name="one" unicode="1" horiz-adv-x="776" 
d="M87 0v223h191v615h-175v223q73 0 116 8q39 7 66 31q21 21 33 54q13 35 20 84h237v-1015h155v-223h-643z" />
    <glyph glyph-name="two" unicode="2" horiz-adv-x="978" 
d="M516 223h393v-223h-868l442 614q67 91 96 158t29 121q0 61 -34 95t-98 34q-76 0 -111 -68q-34 -67 -25 -181h-280q-2 30 -2 64q0 218 118 315t309 97q195 0 305 -95q108 -93 108 -270q0 -160 -152 -366z" />
    <glyph glyph-name="three" unicode="3" horiz-adv-x="1008" 
d="M898 549q50 -76 50 -194q0 -172 -118 -269t-324 -97q-213 0 -329 107q-115 106 -103 325h276q-6 -105 40 -157t126 -52q71 0 112 44t41 115q0 77 -46 117q-47 41 -135 41h-71v208h52q75 0 119 39q42 38 42 114q0 60 -36 98t-99 38q-71 0 -107 -51q-37 -52 -31 -147h-274
l-2 39q0 185 111 283q113 99 301 99q205 0 311 -89q105 -88 105 -242q0 -93 -37 -160q-39 -69 -117 -102q92 -29 143 -107z" />
    <glyph glyph-name="four" unicode="4" horiz-adv-x="1009" 
d="M851 440h127v-222h-127v-218h-273v218h-548v114l350 906h289l-301 -798h210v271h273v-271z" />
    <glyph glyph-name="five" unicode="5" horiz-adv-x="1015" 
d="M857 771q84 -108 84 -329q0 -228 -104 -339q-106 -114 -324 -114q-200 0 -301 100q-103 101 -104 286h272q1 -73 36 -119q33 -44 97 -44q75 0 108 52q33 53 33 173q0 121 -33 170t-106 49q-49 0 -83 -23q-33 -23 -50 -64h-272v669h794v-223h-529v-201q86 65 214 65
q184 0 268 -108z" />
    <glyph glyph-name="six" unicode="6" horiz-adv-x="1011" 
d="M777 771q84 -47 132 -133q48 -87 48 -212q0 -214 -113 -325q-114 -112 -335 -112q-222 0 -336 112q-113 111 -113 325q0 98 33 189q34 95 107 188l339 435h335l-338 -424q32 3 51 3q107 0 190 -46zM624 264q41 56 41 160q0 100 -41 156q-40 55 -115 55q-72 0 -114 -55
q-41 -54 -41 -156q0 -105 40 -160t115 -55t115 55z" />
    <glyph glyph-name="seven" unicode="7" horiz-adv-x="871" 
d="M465 0h-302l322 1001h-441v237h808z" />
    <glyph glyph-name="eight" unicode="8" horiz-adv-x="1025" 
d="M117 568q59 88 164 129q-72 36 -114 101q-40 62 -40 143q0 141 105 224q107 84 281 84t281 -84q104 -82 104 -224q0 -82 -39 -143q-42 -65 -114 -101q105 -41 164 -129q58 -86 58 -205q0 -178 -119 -276q-120 -99 -335 -99t-335 99t-120 276q0 117 59 205zM426 824
q30 -33 87 -33t87 33t30 94q0 66 -30 102t-87 36t-87 -36t-30 -102q0 -61 30 -94zM396 241q40 -50 117 -50t117 50t40 143q0 95 -40 147q-41 53 -117 53t-117 -53t-41 -147q0 -91 41 -143z" />
    <glyph glyph-name="nine" unicode="9" horiz-adv-x="1002" 
d="M833 1137q113 -111 113 -325q0 -98 -33 -189q-34 -95 -107 -188l-339 -435h-334l337 424q-32 -3 -51 -3q-107 0 -190 46q-84 47 -132 133q-47 85 -47 212q0 214 112 325q114 112 335 112q222 0 336 -112zM382 658q40 -55 115 -55q72 0 114 55q42 56 42 156q0 104 -41 160
q-40 55 -115 55t-115 -55q-41 -56 -41 -160q0 -100 41 -156z" />
    <glyph glyph-name="colon" unicode=":" horiz-adv-x="500" 
d="M103 0v308h297v-308h-297zM103 665v308h297v-308h-297z" />
    <glyph glyph-name="semicolon" unicode=";" horiz-adv-x="500" 
d="M88 -249l48 578h237v-203l-127 -375h-158zM103 665v308h297v-308h-297z" />
    <glyph glyph-name="less" unicode="&#x3c;" horiz-adv-x="967" 
d="M805 113l-679 320v205l679 322v-221l-453 -203l453 -202v-221z" />
    <glyph glyph-name="equal" unicode="=" horiz-adv-x="1057" 
d="M103 642v196h856v-196h-856zM103 233v197h856v-197h-856z" />
    <glyph glyph-name="greater" unicode="&#x3e;" horiz-adv-x="967" 
d="M842 638v-205l-679 -320v221l452 202l-452 203v221z" />
    <glyph glyph-name="question" unicode="?" horiz-adv-x="960" 
d="M863 823q-20 -52 -50 -88q-29 -35 -79 -79q-66 -59 -91 -98q-29 -44 -29 -112v-34h-262v53q0 99 37 157q39 61 106 119q57 52 82 88q24 34 24 91q0 63 -29 92q-28 28 -91 28q-67 0 -95 -33q-29 -34 -29 -114v-51h-283v83q0 164 101 242t306 78q201 0 302 -74t101 -220
q0 -74 -21 -128zM338 0v295h288v-295h-288z" />
    <glyph glyph-name="at" unicode="@" horiz-adv-x="1710" 
d="M1264 1158q172 -91 268 -258q95 -165 95 -384q0 -182 -57 -306t-150 -186q-92 -61 -205 -61q-123 0 -202 58q-78 58 -86 161q-70 -94 -191 -94q-106 0 -178 74q-72 73 -72 227q0 75 18 157q33 169 128 244q94 75 196 75q69 0 115 -27t67 -70l14 74h200l-104 -490
q-13 -62 -13 -101q0 -59 26 -85q25 -25 75 -25q91 0 150 97t59 278q0 159 -65 284q-66 127 -188 196q-124 70 -294 70q-166 0 -293 -80q-131 -82 -202 -224q-73 -146 -73 -322q0 -164 68 -286q68 -123 187 -188q118 -65 276 -65q53 0 133 12l16 -157q-96 -18 -193 -18
q-211 0 -371 90q-159 89 -247 251t-88 361q0 227 97 411q98 185 276 291q179 107 411 107q225 0 397 -91zM962 575q0 125 -97 125q-55 0 -97 -51q-41 -49 -59 -143q-10 -53 -10 -101q0 -72 26 -108q27 -37 78 -37t90 59q39 58 60 171q9 41 9 85z" />
    <glyph glyph-name="A" unicode="A" horiz-adv-x="1176" 
d="M1181 0h-323l-71 244h-396l-71 -244h-324l448 1238h288zM589 937l-136 -477h272z" />
    <glyph glyph-name="B" unicode="B" horiz-adv-x="1202" 
d="M1083 540q45 -74 45 -192q0 -175 -104 -261q-105 -87 -306 -87h-596v1238h580q196 0 299 -86t103 -246q0 -93 -38 -161q-37 -67 -104 -99q75 -31 121 -106zM776 974q-37 31 -113 31h-251v-262h255q72 0 109 32q36 31 36 102q0 67 -36 97zM667 233q86 0 127 35t41 112
t-41 110q-40 33 -127 33h-255v-290h255z" />
    <glyph glyph-name="C" unicode="C" horiz-adv-x="1215" 
d="M216 113q-126 125 -126 402v212q0 276 126 399t398 123q268 0 395 -116q126 -115 126 -364h-297q0 137 -54 197t-170 60t-172 -63q-55 -62 -55 -206v-272q0 -148 55 -210q56 -63 172 -63t170 61q54 62 54 199h297q0 -248 -126 -365q-127 -118 -395 -118q-273 0 -398 124z
" />
    <glyph glyph-name="D" unicode="D" horiz-adv-x="1229" 
d="M571 1238q225 0 346 -51q120 -51 175 -184q54 -132 54 -384q0 -253 -54 -385t-175 -183t-346 -51h-449v1238h449zM557 237q123 0 182 28t85 108q25 78 25 246t-25 246q-26 80 -85 108t-182 28h-138v-764h138z" />
    <glyph glyph-name="E" unicode="E" horiz-adv-x="1096" 
d="M419 527v-290h601v-237h-898v1238h884v-237h-587v-242h515v-232h-515z" />
    <glyph glyph-name="F" unicode="F" horiz-adv-x="1052" 
d="M1005 1238v-237h-586v-258h511v-232h-511v-511h-297v1238h883z" />
    <glyph glyph-name="G" unicode="G" horiz-adv-x="1252" 
d="M646 711h516v-203q0 -276 -129 -397q-130 -122 -407 -122q-279 0 -407 124q-129 125 -129 402v212q0 276 129 399t407 123q252 0 382 -96q131 -96 147 -299h-295q-7 87 -68 129q-61 43 -166 43q-122 0 -180 -63q-59 -64 -59 -206v-272q0 -145 59 -209t180 -64
q128 0 187 59t59 201v30h-226v209z" />
    <glyph glyph-name="H" unicode="H" horiz-adv-x="1296" 
d="M875 762v476h298v-1238h-298v525h-456v-525h-297v1238h297v-476h456z" />
    <glyph glyph-name="I" unicode="I" horiz-adv-x="542" 
d="M419 0h-297v1238h297v-1238z" />
    <glyph glyph-name="J" unicode="J" horiz-adv-x="687" 
d="M34 0v237h120q66 0 93 32q27 31 27 108v861h297v-895q0 -130 -32 -203t-110 -107q-77 -33 -215 -33h-180z" />
    <glyph glyph-name="K" unicode="K" horiz-adv-x="1140" 
d="M661 640l499 -640h-361l-380 513v-513h-297v1238h297v-472l349 472h360z" />
    <glyph glyph-name="L" unicode="L" horiz-adv-x="1066" 
d="M1028 0h-906v1238h297v-1001h609v-237z" />
    <glyph glyph-name="M" unicode="M" horiz-adv-x="1612" 
d="M806 529l282 709h401v-1238h-281v883l-280 -706h-244l-279 706v-883h-283v1238h403z" />
    <glyph glyph-name="N" unicode="N" horiz-adv-x="1303" 
d="M907 354v884h274v-1238h-367l-414 881v-881h-278v1238h370z" />
    <glyph glyph-name="O" unicode="O" horiz-adv-x="1243" 
d="M218 113q-128 125 -128 402v212q0 276 128 399t405 123q275 0 403 -123q127 -123 127 -399v-212q0 -278 -127 -402t-403 -124q-278 0 -405 124zM799 276q57 63 57 209v272q0 143 -57 206t-176 63q-121 0 -178 -63q-58 -64 -58 -206v-272q0 -145 58 -209t178 -64
q118 0 176 64z" />
    <glyph glyph-name="P" unicode="P" horiz-adv-x="1146" 
d="M970 1131q105 -107 105 -337q0 -228 -105 -335t-333 -107h-216l-2 -352h-297v1238h515q228 0 333 -107zM571 582q114 0 160 50q47 52 47 162q0 112 -47 164q-46 50 -160 50h-147l-1 -426h148z" />
    <glyph glyph-name="Q" unicode="Q" horiz-adv-x="1241" 
d="M1153 515q0 -194 -94 -305q-93 -109 -233 -141q108 -21 150 -35l159 -50l-77 -207l-345 110q-269 87 -379 140q-115 55 -179 166q-65 112 -65 322v212q0 273 128 398q127 124 405 124q276 0 403 -124t127 -398v-212zM856 757q0 143 -57 206t-176 63q-121 0 -178 -63
q-58 -64 -58 -206v-272q0 -145 58 -209t178 -64q118 0 176 64q57 63 57 209v272z" />
    <glyph glyph-name="R" unicode="R" horiz-adv-x="1163" 
d="M775 0l-214 414h-142v-414h-297v1238h520q221 0 322 -100q102 -100 102 -309q0 -146 -51 -242t-159 -138l242 -449h-323zM419 1003v-354h150q106 0 152 46q47 47 47 136q0 88 -46 130t-153 42h-150z" />
    <glyph glyph-name="S" unicode="S" horiz-adv-x="1153" 
d="M211 78q-128 92 -128 306q0 3 4 65h281q-2 -18 -2 -42q0 -104 53 -152t163 -48q100 0 150 31q51 32 51 87q0 41 -18 70q-20 31 -71 59q-54 29 -155 62q-187 62 -285 125q-96 61 -129 129t-33 166q0 89 55 160q56 73 165 114q111 42 272 42q267 0 380 -110t104 -309h-276
q6 200 -198 200q-98 0 -147 -29t-49 -83q0 -32 17 -57q16 -24 67 -49q46 -23 148 -56q185 -56 286 -119q99 -62 135 -135q37 -76 37 -180q0 -160 -134 -250q-132 -89 -381 -89q-234 0 -362 92z" />
    <glyph glyph-name="T" unicode="T" horiz-adv-x="1069" 
d="M1024 1238v-237h-341v-1001h-297v1001h-342v237h980z" />
    <glyph glyph-name="U" unicode="U" horiz-adv-x="1268" 
d="M251 103q-129 113 -129 350v785h297v-785q0 -130 52 -185q53 -56 164 -56q112 0 163 56t51 185v785h297v-785q0 -238 -128 -351t-383 -113q-253 0 -384 114z" />
    <glyph glyph-name="V" unicode="V" horiz-adv-x="1167" 
d="M739 0h-313l-422 1238h320l260 -875l260 875h318z" />
    <glyph glyph-name="W" unicode="W" horiz-adv-x="1816" 
d="M1279 371l207 867h318l-352 -1238h-331l-214 791l-214 -791h-330l-351 1238h319l207 -867l237 867h267z" />
    <glyph glyph-name="X" unicode="X" horiz-adv-x="1170" 
d="M755 658l409 -658h-333l-246 446l-245 -446h-333l409 658l-359 580h332l196 -366l197 366h332z" />
    <glyph glyph-name="Y" unicode="Y" horiz-adv-x="1146" 
d="M573 759l241 479h316l-408 -732v-506h-298v506l-410 732h317z" />
    <glyph glyph-name="Z" unicode="Z" horiz-adv-x="1066" 
d="M1008 0h-964l545 1001h-515v237h946l-544 -1001h532v-237z" />
    <glyph glyph-name="bracketleft" unicode="[" horiz-adv-x="597" 
d="M380 1259v-1367h197v-157h-436v1680h436v-156h-197z" />
    <glyph glyph-name="backslash" unicode="\" horiz-adv-x="721" 
d="M5 1238h246l464 -1238h-246z" />
    <glyph glyph-name="bracketright" unicode="]" horiz-adv-x="597" 
d="M21 -108h197v1367h-197v156h435v-1680h-435v157z" />
    <glyph glyph-name="asciicircum" unicode="^" horiz-adv-x="1057" 
d="M523 1288h9l483 -513l-150 -140l-336 387l-336 -387l-149 138z" />
    <glyph glyph-name="underscore" unicode="_" horiz-adv-x="687" 
d="M0 -218v216h688v-216h-688z" />
    <glyph glyph-name="grave" unicode="`" horiz-adv-x="963" 
d="M203 1307h276l165 -246h-204z" />
    <glyph glyph-name="a" unicode="a" horiz-adv-x="970" 
d="M722 947q78 -34 116 -114q37 -78 37 -218v-615h-272v96q-93 -105 -256 -105q-138 0 -224 80t-86 214q0 170 139 264q140 95 425 102q-8 74 -42 100q-36 27 -112 27q-124 -1 -298 -49l-46 184q89 29 203 49q112 20 203 20q132 0 213 -35zM557 252q46 43 46 134v83
q-163 -12 -227 -53q-63 -40 -63 -99q0 -48 32 -78q31 -30 94 -30q72 0 118 43z" />
    <glyph glyph-name="b" unicode="b" horiz-adv-x="1094" 
d="M1038 486q0 -493 -403 -493q-75 0 -137 22q-64 23 -107 63v-78h-283v1326h283v-429q44 41 107 62t137 21q403 0 403 -494zM710 262q45 72 45 224q0 153 -45 225t-142 72q-98 0 -144 -73t-46 -224q0 -150 46 -223q47 -74 144 -74q96 0 142 73z" />
    <glyph glyph-name="c" unicode="c" horiz-adv-x="1008" 
d="M58 485q0 498 450 498q201 0 315 -96q115 -96 128 -282h-281q-21 175 -162 175q-89 0 -129 -70q-39 -68 -39 -225t39 -222q41 -68 129 -68q141 0 162 175h281q-13 -185 -128 -283t-315 -98q-450 0 -450 496z" />
    <glyph glyph-name="d" unicode="d" horiz-adv-x="1096" 
d="M704 1326h283v-1326h-283v78q-43 -40 -107 -63q-62 -22 -137 -22q-403 0 -403 493q0 494 403 494q74 0 137 -21t107 -62v429zM670 263q46 73 46 223q0 151 -46 224t-143 73t-142 -72t-45 -225q0 -152 45 -224q46 -73 142 -73t143 74z" />
    <glyph glyph-name="e" unicode="e" horiz-adv-x="1027" 
d="M848 857q114 -127 114 -385q0 -37 -2 -67h-613q9 -115 49 -165q40 -51 117 -51q68 0 110 34q41 33 51 90h277q-23 -151 -132 -239t-303 -88q-226 0 -342 126q-116 127 -116 373q0 247 118 374q117 126 340 126q218 0 332 -128zM400 731q-41 -49 -53 -158h332
q-8 108 -49 157q-42 50 -117 50q-72 0 -113 -49z" />
    <glyph glyph-name="f" unicode="f" horiz-adv-x="641" 
d="M458 1122q-18 -24 -18 -84v-65h168v-195h-168v-778h-283v778h-113v195h113v69q0 151 64 224t207 73q110 0 228 -25l-26 -180q-78 12 -107 12q-47 0 -65 -24z" />
    <glyph glyph-name="g" unicode="g" horiz-adv-x="1092" 
d="M702 973h283v-915q0 -224 -105 -323t-328 -99q-193 0 -396 79l69 188q156 -59 286 -59q67 0 111 19q42 18 61 64q19 45 19 131v36q-82 -82 -228 -82q-419 0 -419 485q0 236 101 360q100 123 302 123q75 0 137 -22q63 -22 107 -65v80zM669 281q46 71 46 216q0 144 -46 215
t-144 71t-142 -71q-45 -72 -45 -215q0 -145 45 -217q44 -71 142 -71q97 0 144 72z" />
    <glyph glyph-name="h" unicode="h" horiz-adv-x="1101" 
d="M909 878q97 -101 97 -296v-582h-283v582q0 189 -164 189q-168 0 -168 -203v-568h-283v1326h283v-413q88 67 230 67q191 0 288 -102z" />
    <glyph glyph-name="i" unicode="i" horiz-adv-x="498" 
d="M391 1291v-219h-283v219h283zM108 973h283v-973h-283v973z" />
    <glyph glyph-name="j" unicode="j" horiz-adv-x="521" 
d="M414 1072h-283v219h283v-219zM0 -354v218h28q45 0 64 11q21 12 30 41t9 86v971h283v-984q0 -131 -28 -205t-93 -106q-66 -32 -182 -32h-111z" />
    <glyph glyph-name="k" unicode="k" horiz-adv-x="978" 
d="M614 536l373 -536h-315l-281 433v-433h-283v1326h283v-696l246 343h316z" />
    <glyph glyph-name="l" unicode="l" horiz-adv-x="574" 
d="M386 0q-109 0 -166 19q-58 19 -87 73q-29 53 -29 156v1078h283v-1041q0 -43 17 -60q16 -16 58 -16h69v-209h-145z" />
    <glyph glyph-name="m" unicode="m" horiz-adv-x="1632" 
d="M1537 608v-608h-283v608q0 78 -36 122q-36 43 -109 43t-109 -43q-36 -44 -36 -122v-608h-283v608q0 78 -36 122q-36 43 -109 43t-109 -44q-36 -43 -36 -124v-605h-283v973h283v-67q82 76 228 76q183 0 272 -110q87 110 283 110q363 0 363 -374z" />
    <glyph glyph-name="n" unicode="n" horiz-adv-x="1103" 
d="M917 882q91 -100 91 -297v-585h-283v585q0 190 -164 190q-168 0 -168 -204h-2l2 -571h-283l-2 973h283v-71q91 80 246 80q189 0 280 -100z" />
    <glyph glyph-name="o" unicode="o" horiz-adv-x="1057" 
d="M58 485q0 500 471 500q470 0 470 -500q0 -499 -470 -499q-471 0 -471 499zM671 261q45 72 45 225q0 154 -45 226q-44 71 -142 71q-100 0 -144 -71q-45 -72 -45 -226q0 -153 45 -225t144 -72q97 0 142 72z" />
    <glyph glyph-name="p" unicode="p" horiz-adv-x="1094" 
d="M1038 486q0 -493 -403 -493q-73 0 -136 21q-64 22 -108 62v-430h-283v1327h283v-78q43 40 107 63q62 22 137 22q403 0 403 -494zM710 262q45 72 45 224q0 153 -45 225t-142 72q-98 0 -144 -73t-46 -224q0 -150 46 -223q47 -74 144 -74q96 0 142 73z" />
    <glyph glyph-name="q" unicode="q" horiz-adv-x="1096" 
d="M704 973h283v-1327h-283v430q-43 -41 -108 -62q-63 -21 -136 -21q-403 0 -403 493q0 494 403 494q75 0 137 -22q64 -23 107 -63v78zM670 263q46 73 46 223q0 151 -46 224t-143 73t-142 -72t-45 -225q0 -152 45 -224q46 -73 142 -73t143 74z" />
    <glyph glyph-name="r" unicode="r" horiz-adv-x="744" 
d="M108 0v973h267v-198l3 -2q38 98 107 148q72 52 208 52h32v-266h-32q-99 0 -164 -22q-66 -23 -102 -82q-36 -60 -36 -171v-432h-283z" />
    <glyph glyph-name="s" unicode="s" horiz-adv-x="928" 
d="M218 22q-94 33 -135 107q-43 77 -37 202h253q-3 -73 35 -107q40 -35 128 -35q79 0 117 19q36 18 36 59q0 27 -18 46q-16 18 -72 40q-41 16 -161 48q-160 42 -238 117q-75 72 -75 189q0 126 105 201t320 75q206 0 301 -85q97 -86 88 -229h-250q6 120 -153 120
q-144 0 -144 -78q0 -24 21 -42q24 -20 74 -37q56 -19 160 -45q164 -42 237 -115t73 -198q0 -285 -418 -285q-154 0 -247 33z" />
    <glyph glyph-name="t" unicode="t" horiz-adv-x="695" 
d="M656 209v-209h-166q-182 0 -260 69t-78 235v474h-118v195h118v265h283v-265h214v-195h-214v-460q0 -60 25 -85q24 -24 85 -24h111z" />
    <glyph glyph-name="u" unicode="u" horiz-adv-x="1101" 
d="M711 973h283v-973h-283v67q-91 -78 -244 -78q-191 0 -281 98q-90 97 -90 291v595h282v-591q0 -184 167 -184q166 0 166 198v577z" />
    <glyph glyph-name="v" unicode="v" horiz-adv-x="1031" 
d="M649 0h-267l-370 973h305l198 -651l200 651h304z" />
    <glyph glyph-name="w" unicode="w" horiz-adv-x="1582" 
d="M1102 324l155 649h306l-311 -973h-285l-175 614l-177 -614h-283l-313 973h306l156 -649l180 649h262z" />
    <glyph glyph-name="x" unicode="x" horiz-adv-x="1006" 
d="M669 513l334 -513h-313l-186 332l-186 -332h-313l338 513l-302 460h311l152 -271l152 271h311z" />
    <glyph glyph-name="y" unicode="y" horiz-adv-x="986" 
d="M483 391l221 582h279l-532 -1327h-264l160 400l-349 927h294z" />
    <glyph glyph-name="z" unicode="z" horiz-adv-x="871" 
d="M829 0h-788l414 764h-395v209h773l-414 -764h410v-209z" />
    <glyph glyph-name="braceleft" unicode="{" horiz-adv-x="714" 
d="M628 1261q-72 0 -101 -30q-28 -29 -28 -103v-268q0 -148 -56 -210q-55 -61 -135 -70v-12q77 -7 134 -72t57 -211v-266q0 -70 28 -101t101 -31h64v-152h-107q-168 0 -237 70q-69 71 -69 213v254q0 90 -16 131q-17 42 -62 59q-44 16 -137 16v194q93 0 137 16q46 17 62 58
t16 129v257q0 139 69 211t237 72h107v-154h-64z" />
    <glyph glyph-name="bar" unicode="|" horiz-adv-x="512" 
d="M122 -354v1680h269v-1680h-269z" />
    <glyph glyph-name="braceright" unicode="}" horiz-adv-x="714" 
d="M21 1261v154h108q168 0 236 -71t68 -212v-257q0 -87 18 -129q18 -41 62 -58q42 -16 136 -16v-194q-94 0 -136 -16q-44 -17 -62 -59t-18 -131v-254q0 -142 -68 -213q-67 -70 -236 -70h-108v152h66q71 0 99 31t28 101v266q0 147 57 211t136 72v12q-79 9 -136 70
q-57 62 -57 210v268q0 74 -28 103q-28 30 -99 30h-66z" />
    <glyph glyph-name="asciitilde" unicode="~" horiz-adv-x="737" 
d="M669 446q-71 -82 -165 -82q-44 0 -73 17q-33 19 -72 54q-34 33 -61 49q-28 17 -65 17q-82 0 -164 -91v214q75 85 164 85q46 0 76 -17q29 -17 68 -54q39 -34 63 -49q26 -16 64 -16q90 0 165 90v-217z" />
    <glyph glyph-name="uni00A0" unicode="&#xa0;" horiz-adv-x="498" 
 />
    <glyph glyph-name="exclamdown" unicode="&#xa1;" horiz-adv-x="535" 
d="M412 973v-296h-288v296h288zM417 233v-498h-297v498l34 328h228z" />
    <glyph glyph-name="cent" unicode="&#xa2;" horiz-adv-x="1008" 
d="M670 502h281q-12 -156 -93 -249t-227 -120v-133h-208v127q-365 47 -365 490q0 447 365 494v127h208v-133q143 -27 226 -120q82 -92 94 -248h-281q-21 176 -162 176q-89 0 -129 -70q-39 -68 -39 -226q0 -157 39 -222q41 -68 129 -68q141 0 162 175z" />
    <glyph glyph-name="sterling" unicode="&#xa3;" horiz-adv-x="1057" 
d="M1010 81q-81 -47 -150 -69q-66 -21 -137 -21q-50 0 -129 14q-93 18 -180 18q-124 0 -253 -37l-53 226q136 51 125 290h-159v193h138l-16 142q-5 34 -5 74q0 170 103 248q105 79 298 79q189 0 277 -94t88 -288h-262q0 86 -31 129q-32 44 -89 44q-110 0 -110 -138
q0 -4 0.5 -10.5l1.5 -19.5t2 -24l17 -142h255v-193h-237q2 -104 -19 -168q-20 -63 -66 -109q44 10 119 10q62 0 102 -5q39 -5 78 -5q50 0 94 14q43 14 97 49z" />
    <glyph glyph-name="currency" unicode="&#xa4;" horiz-adv-x="1066" 
d="M840 481l157 -156l-150 -150l-155 156q-77 -37 -160 -37q-80 0 -157 37l-156 -156l-150 150l157 156q-37 68 -37 156q0 87 37 155l-157 156l150 150l156 -155q77 37 157 37q83 0 160 -37l155 155l150 -150l-157 -156q37 -74 37 -155q0 -82 -37 -156zM652 518
q48 49 48 119q0 69 -48 118q-48 50 -120 50q-68 0 -118 -50t-50 -118q0 -69 50 -119q49 -49 118 -49q72 0 120 49z" />
    <glyph glyph-name="yen" unicode="&#xa5;" horiz-adv-x="1146" 
d="M814 1238h316l-348 -624h166v-158h-226v-81h226v-157h-226v-218h-298v218h-203v157h203v81h-203v158h143l-350 624h317l242 -479z" />
    <glyph glyph-name="brokenbar" unicode="&#xa6;" horiz-adv-x="512" 
d="M391 677h-269v649h269v-649zM391 -354h-269v649h269v-649z" />
    <glyph glyph-name="section" unicode="&#xa7;" horiz-adv-x="866" 
d="M741 29q44 -71 44 -188q0 -149 -89 -216t-280 -67q-176 0 -261 89q-85 90 -75 286h240q-3 -36 -3 -48q0 -76 31 -113t84 -37q60 0 87 27t27 86q0 72 -36 118q-35 45 -114 71q-177 69 -255 168q-79 100 -79 237t49 214q48 76 156 89q-100 41 -143 110q-44 71 -44 188
q0 149 90 216q89 67 279 67q176 0 261 -89q85 -90 75 -286h-239q2 22 2 45q0 78 -30 116t-85 38q-57 0 -85 -28t-28 -86q0 -71 36 -118q35 -45 114 -71q178 -70 256 -168q79 -100 79 -237q0 -138 -50 -214q-49 -75 -157 -88q100 -41 143 -111zM519 296q29 46 29 146
q0 102 -25 146q-25 45 -83 45q-63 0 -93 -45t-30 -146q0 -100 26 -145q27 -46 81 -46q66 0 95 45z" />
    <glyph glyph-name="dieresis" unicode="&#xa8;" horiz-adv-x="916" 
d="M190 1088q-29 31 -29 74q0 46 29 75t75 29t75 -29q28 -28 28 -75q0 -46 -29 -75t-74 -29q-47 0 -75 30zM524 1087q-29 29 -29 75q0 47 28 75q29 29 75 29t75 -29t29 -75t-29 -75t-75 -29q-45 0 -74 29z" />
    <glyph glyph-name="copyright" unicode="&#xa9;" horiz-adv-x="1421" 
d="M394 74q-142 81 -227 227q-84 144 -84 316q0 174 84 318q85 146 227 227q145 83 317 83t317 -83q146 -84 228 -227q83 -145 83 -318q0 -172 -83 -317q-82 -143 -228 -227q-143 -82 -317 -82q-172 0 -317 83zM940 220q105 62 164 166q60 105 60 231t-60 231
q-59 104 -164 166q-103 61 -229 61t-230 -61t-164 -166q-61 -107 -61 -231t61 -231q60 -105 164 -166t230 -61t229 61zM983 460q-32 -71 -102 -113q-72 -43 -158 -43q-139 0 -226 87t-87 226q0 140 85 226q86 88 223 89q90 0 161 -43q73 -44 104 -118l-138 -81
q-20 35 -54 55q-35 21 -73 21q-63 0 -103 -43q-38 -41 -38 -109q0 -69 38 -110q39 -42 103 -42q38 0 74 21q34 20 53 55z" />
    <glyph glyph-name="ordfeminine" unicode="&#xaa;" horiz-adv-x="698" 
d="M579 1184q63 -62 63 -211v-455h-202v71q-70 -78 -189 -78q-102 0 -166 59t-64 159q0 124 103 195q100 69 315 77q-6 52 -30 72t-77 20q-94 0 -228 -35l-35 136q72 21 153 36t149 15q146 0 208 -61zM407 706q33 32 33 97v64q-121 -10 -169 -40q-46 -28 -46 -75
q0 -37 24 -58q25 -22 73 -22q51 1 85 34zM637 359h-589v103h589v-103z" />
    <glyph glyph-name="guillemotleft" unicode="&#xab;" horiz-adv-x="935" 
d="M430 88l-336 397l336 396l139 -113l-235 -283l235 -282zM789 88l-334 397l334 396l139 -113l-235 -283l235 -282z" />
    <glyph glyph-name="logicalnot" unicode="&#xac;" horiz-adv-x="742" 
d="M69 432v208h605v-431h-230v223h-375z" />
    <glyph glyph-name="uni00AD" unicode="&#xad;" horiz-adv-x="742" 
d="M69 432v208h605v-208h-605z" />
    <glyph glyph-name="registered" unicode="&#xae;" horiz-adv-x="1421" 
d="M1028 1162q146 -84 228 -227q83 -145 83 -318q0 -172 -83 -317q-82 -143 -228 -227q-143 -82 -317 -82q-172 0 -317 83q-142 81 -227 227q-84 144 -84 316q0 174 84 318q85 146 227 227q145 83 317 83t317 -83zM940 220q105 62 164 166q60 105 60 231t-60 231
q-59 104 -164 166q-103 61 -229 61t-230 -61t-164 -166q-61 -107 -61 -231t61 -231q60 -105 164 -166t230 -61t229 61zM849 564l115 -226h-143l-99 203h-61v-203h-148v583h224q107 0 156 -48q50 -48 50 -136q0 -134 -94 -173zM661 801v-140h61q40 0 59 17q18 16 18 52
q0 38 -18 54q-19 17 -59 17h-61z" />
    <glyph glyph-name="macron" unicode="&#xaf;" horiz-adv-x="848" 
d="M633 1081h-454v145h454v-145z" />
    <glyph glyph-name="degree" unicode="&#xb0;" horiz-adv-x="573" 
d="M124 864q-62 64 -62 164t62 162t163 62q100 0 162 -62t62 -162t-62 -164q-61 -63 -162 -63t-163 63zM341 971q22 22 22 57q0 31 -22 53q-21 21 -54 21q-34 0 -55 -21q-22 -22 -22 -53q0 -35 22 -57q21 -21 55 -21q33 0 54 21z" />
    <glyph glyph-name="plusminus" unicode="&#xb1;" horiz-adv-x="841" 
d="M509 1123v-251h250v-168h-250v-251h-169v251h-250v168h250v251h169zM752 168h-665v177h665v-177z" />
    <glyph glyph-name="uni00B2" unicode="&#xb2;" horiz-adv-x="555" 
d="M318 670h197v-143h-485l235 354q38 57 54 91q17 37 17 66q0 33 -18 51t-53 18q-83 0 -74 -136h-164q-2 16 -2 37q0 237 246 237q113 0 175 -53t62 -157q0 -90 -80 -211z" />
    <glyph glyph-name="uni00B3" unicode="&#xb3;" horiz-adv-x="585" 
d="M520 837q28 -43 28 -112q0 -104 -67 -156q-68 -53 -189 -53q-123 0 -190 61t-60 189h170q-3 -63 19 -90q23 -27 68 -27q38 0 61 23q22 22 22 64q0 44 -25 65t-78 21h-38v124h28q90 0 90 87q0 74 -72 74q-39 0 -57 -29q-17 -27 -14 -81h-168q-8 122 57 185t180 63
q119 0 181 -51q61 -51 61 -145q0 -53 -22 -93t-68 -58q55 -18 83 -61z" />
    <glyph glyph-name="acute" unicode="&#xb4;" horiz-adv-x="949" 
d="M228 1061l165 246h276l-237 -246h-204z" />
    <glyph glyph-name="uni00B5" unicode="&#xb5;" horiz-adv-x="1174" 
d="M785 973h280v-973h-280v85q-77 -87 -200 -87q-119 0 -196 82v-434h-281v1327h281v-566q0 -94 58 -147t138 -53q82 0 141 53t59 147v566z" />
    <glyph glyph-name="paragraph" unicode="&#xb6;" horiz-adv-x="1153" 
d="M424 585q-171 3 -264 81q-91 76 -91 247t92 248t263 77h688v-223h-92v-1017h-226v1017h-143v-1017h-227v587z" />
    <glyph glyph-name="periodcentered" unicode="&#xb7;" horiz-adv-x="459" 
d="M81 386v307h297v-307h-297z" />
    <glyph glyph-name="cedilla" unicode="&#xb8;" horiz-adv-x="806" 
d="M410 -71q184 0 184 -138q0 -63 -49 -102t-147 -39q-103 0 -211 32l29 99q95 -20 162 -20q77 0 77 39q0 26 -34 35q-35 9 -138 8l34 184h120v-15z" />
    <glyph glyph-name="uni00B9" unicode="&#xb9;" horiz-adv-x="445" 
d="M325 674h94v-143h-368v143h103v336h-92v127q31 0 54 5q20 4 36 16q15 13 22 30q9 23 12 50h139v-564z" />
    <glyph glyph-name="ordmasculine" unicode="&#xba;" horiz-adv-x="765" 
d="M34 877q0 370 348 370q350 0 350 -370q0 -369 -350 -369q-348 0 -348 369zM489 711q33 53 33 168q0 114 -33 166q-33 53 -107 53q-72 0 -105 -53q-33 -52 -33 -166q0 -115 33 -168t105 -53q74 0 107 53zM76 359v103h600v-103h-600z" />
    <glyph glyph-name="guillemotright" unicode="&#xbb;" horiz-adv-x="935" 
d="M842 485l-336 -397l-140 115l235 282l-235 283l140 113zM483 485l-336 -397l-140 115l235 282l-235 283l140 113z" />
    <glyph glyph-name="onequarter" unicode="&#xbc;" horiz-adv-x="1229" 
d="M325 674h94v-143h-368v143h103v336h-92v127q31 0 54 5q20 4 36 16q15 13 22 30q9 23 12 50h139v-564zM242 0h-180l918 1238h180zM1153 264h57v-138h-57v-126h-166v126h-324v72l197 509h180l-170 -443h117v146h166v-146z" />
    <glyph glyph-name="onehalf" unicode="&#xbd;" horiz-adv-x="1294" 
d="M327 677h94v-143h-368v143h103v336h-92v128q35 0 54 4q18 4 36 17q15 13 22 30q8 19 11 50h140v-565zM242 0h-180l918 1238h180zM1058 143h196v-143h-485l236 354q35 52 53 91q17 37 17 66q0 34 -17 51q-18 18 -53 18q-84 0 -75 -136h-164q-2 16 -2 37q0 237 246 237
q113 0 175 -53t62 -157q0 -90 -80 -211z" />
    <glyph glyph-name="threequarters" unicode="&#xbe;" horiz-adv-x="1460" 
d="M520 837q28 -43 28 -112q0 -104 -67 -156q-68 -53 -189 -53q-123 0 -190 61t-60 189h170q-3 -63 19 -90q23 -27 68 -27q38 0 61 23q22 22 22 64q0 44 -25 65t-78 21h-38v124h28q90 0 90 87q0 74 -72 74q-39 0 -57 -29q-17 -27 -14 -81h-168q-8 122 57 185t180 63
q119 0 181 -51q61 -51 61 -145q0 -53 -22 -93t-68 -58q55 -18 83 -61zM398 0h-180l917 1238h181zM1387 264h56v-138h-56v-126h-167v126h-323v72l196 509h180l-169 -443h116v146h167v-146z" />
    <glyph glyph-name="questiondown" unicode="&#xbf;" horiz-adv-x="855" 
d="M585 973v-296h-286v296h286zM60 149q20 52 51 89q32 38 78 79q66 59 91 98q29 44 29 112v34h262v-53q0 -99 -37 -157q-39 -61 -106 -119q-52 -48 -81 -89q-25 -35 -25 -90q0 -63 30 -92q29 -28 92 -28q64 0 94 33t30 114v51h281v-83q0 -165 -100 -243q-99 -77 -305 -77
q-405 0 -405 293q0 74 21 128z" />
    <glyph glyph-name="Agrave" unicode="&#xc0;" horiz-adv-x="1176" 
d="M1181 0h-323l-71 244h-396l-71 -244h-324l448 1238h288zM589 937l-136 -477h272zM279 1572h276l165 -246h-204z" />
    <glyph glyph-name="Aacute" unicode="&#xc1;" horiz-adv-x="1176" 
d="M1181 0h-323l-71 244h-396l-71 -244h-324l448 1238h288zM589 937l-136 -477h272zM465 1326l165 246h276l-237 -246h-204z" />
    <glyph glyph-name="Acircumflex" unicode="&#xc2;" horiz-adv-x="1176" 
d="M1181 0h-323l-71 244h-396l-71 -244h-324l448 1238h288zM589 937l-136 -477h272zM347 1410l242 215l244 -215l-115 -108l-129 131l-127 -131z" />
    <glyph glyph-name="Atilde" unicode="&#xc3;" horiz-adv-x="1176" 
d="M1181 0h-323l-71 244h-396l-71 -244h-324l448 1238h288zM589 937l-136 -477h272zM324 1371q21 59 67 101q43 40 102 40q36 0 63 -12q23 -10 59 -36q24 -17 40 -25t33 -8q28 0 45 17q19 19 35 48l93 -63q-57 -140 -162 -140q-37 0 -64 12q-21 9 -58 34q-20 16 -40 25
q-18 8 -36 8q-51 0 -84 -65z" />
    <glyph glyph-name="Adieresis" unicode="&#xc4;" horiz-adv-x="1176" 
d="M1181 0h-323l-71 244h-396l-71 -244h-324l448 1238h288zM589 937l-136 -477h272zM348 1353q-30 32 -30 74q0 45 30 75t75 30q44 0 74 -30q28 -28 28 -75q0 -46 -29 -75t-73 -29q-47 0 -75 30zM682 1352q-29 29 -29 75q0 47 28 75q30 30 74 30q45 0 75 -30t30 -75t-30 -75
q-29 -29 -75 -29q-44 0 -73 29z" />
    <glyph glyph-name="Aring" unicode="&#xc5;" horiz-adv-x="1176" 
d="M1181 0h-323l-71 244h-396l-71 -244h-324l448 1238h288zM589 937l-136 -477h272zM450 1339q-54 49 -54 131q0 83 54 131q55 49 139 49t139 -49q54 -48 54 -131q0 -82 -54 -131q-55 -50 -139 -50t-139 50zM646 1414q23 21 23 56t-23 55q-22 19 -57 19t-57 -19
q-23 -20 -23 -55t23 -56q21 -20 57 -20t57 20z" />
    <glyph glyph-name="AE" unicode="&#xc6;" horiz-adv-x="1743" 
d="M1079 527v-290h599v-237h-896v242h-361l-119 -242h-332l647 1238h1049v-237h-587v-242h513v-232h-513zM782 987l-260 -536h260v536z" />
    <glyph glyph-name="Ccedilla" unicode="&#xc7;" horiz-adv-x="1215" 
d="M784 273q54 62 54 199h297q0 -241 -118 -358q-119 -117 -370 -125l-19 -60q184 0 184 -138q0 -63 -50 -102t-147 -39q-102 0 -210 32l28 99q95 -20 163 -20q76 0 76 39q0 26 -34 35q-35 9 -137 8l26 150q-227 18 -332 142q-105 125 -105 380v212q0 276 126 399t398 123
q268 0 395 -116q126 -115 126 -364h-297q0 137 -54 197t-170 60t-172 -63q-55 -62 -55 -206v-272q0 -148 55 -210q56 -63 172 -63t170 61z" />
    <glyph glyph-name="Egrave" unicode="&#xc8;" horiz-adv-x="1096" 
d="M419 527v-290h601v-237h-898v1238h884v-237h-587v-242h515v-232h-515zM256 1570h276l165 -245h-204z" />
    <glyph glyph-name="Eacute" unicode="&#xc9;" horiz-adv-x="1096" 
d="M419 527v-290h601v-237h-898v1238h884v-237h-587v-242h515v-232h-515zM442 1325l165 245h276l-237 -245h-204z" />
    <glyph glyph-name="Ecircumflex" unicode="&#xca;" horiz-adv-x="1096" 
d="M419 527v-290h601v-237h-898v1238h884v-237h-587v-242h515v-232h-515zM324 1408l242 216l244 -216l-115 -108l-129 131l-127 -131z" />
    <glyph glyph-name="Edieresis" unicode="&#xcb;" horiz-adv-x="1096" 
d="M419 527v-290h601v-237h-898v1238h884v-237h-587v-242h515v-232h-515zM325 1351q-30 32 -30 74q0 46 30 76q29 29 75 29q45 0 74 -29q28 -28 28 -76q0 -46 -29 -75t-73 -29q-46 0 -75 30zM659 1350q-29 29 -29 75q0 48 28 76q29 29 74 29q46 0 75 -29q30 -30 30 -76
q0 -45 -30 -75q-29 -29 -75 -29q-44 0 -73 29z" />
    <glyph glyph-name="Igrave" unicode="&#xcc;" horiz-adv-x="542" 
d="M419 0h-297v1238h297v-1238zM-37 1572h276l164 -246h-203z" />
    <glyph glyph-name="Iacute" unicode="&#xcd;" horiz-adv-x="542" 
d="M419 0h-297v1238h297v-1238zM147 1326l164 246h276l-237 -246h-203z" />
    <glyph glyph-name="Icircumflex" unicode="&#xce;" horiz-adv-x="542" 
d="M419 0h-297v1238h297v-1238zM28 1410l243 215l244 -215l-115 -108l-129 131l-128 -131z" />
    <glyph glyph-name="Idieresis" unicode="&#xcf;" horiz-adv-x="542" 
d="M419 0h-297v1238h297v-1238zM29 1353q-29 31 -29 74q0 46 29 75q30 30 75 30t75 -30q28 -28 28 -75q0 -46 -29 -75t-74 -29q-46 0 -75 30zM363 1352q-29 29 -29 75t29 75q30 30 74 30q45 0 75 -30q29 -29 29 -75t-29 -75t-75 -29q-45 0 -74 29z" />
    <glyph glyph-name="Eth" unicode="&#xd0;" horiz-adv-x="1262" 
d="M605 1238q225 0 346 -51q120 -51 175 -184q54 -132 54 -384q0 -253 -54 -385t-175 -183t-346 -51h-449v552h-105v193h105v493h449zM591 237q123 0 182 28t85 108q25 78 25 246t-25 246q-26 80 -85 108t-182 28h-138v-256h214v-193h-214v-315h138z" />
    <glyph glyph-name="Ntilde" unicode="&#xd1;" horiz-adv-x="1303" 
d="M907 354v884h274v-1238h-367l-414 881v-881h-278v1238h370zM417 1371q21 57 68 101q43 40 102 40q36 0 63 -12q23 -10 59 -36q24 -17 40 -25t33 -8q28 0 45 17t34 48l94 -63q-57 -140 -163 -140q-36 0 -63 12q-24 11 -59 34q-20 16 -40 25q-18 8 -36 8q-50 0 -83 -65z
" />
    <glyph glyph-name="Ograve" unicode="&#xd2;" horiz-adv-x="1243" 
d="M218 113q-128 125 -128 402v212q0 276 128 399t405 123q275 0 403 -123q127 -123 127 -399v-212q0 -278 -127 -402t-403 -124q-278 0 -405 124zM799 276q57 63 57 209v272q0 143 -57 206t-176 63q-121 0 -178 -63q-58 -64 -58 -206v-272q0 -145 58 -209t178 -64
q118 0 176 64zM313 1572h276l164 -246h-203z" />
    <glyph glyph-name="Oacute" unicode="&#xd3;" horiz-adv-x="1243" 
d="M218 113q-128 125 -128 402v212q0 276 128 399t405 123q275 0 403 -123q127 -123 127 -399v-212q0 -278 -127 -402t-403 -124q-278 0 -405 124zM799 276q57 63 57 209v272q0 143 -57 206t-176 63q-121 0 -178 -63q-58 -64 -58 -206v-272q0 -145 58 -209t178 -64
q118 0 176 64zM499 1326l164 246h276l-237 -246h-203z" />
    <glyph glyph-name="Ocircumflex" unicode="&#xd4;" horiz-adv-x="1243" 
d="M218 113q-128 125 -128 402v212q0 276 128 399t405 123q275 0 403 -123q127 -123 127 -399v-212q0 -278 -127 -402t-403 -124q-278 0 -405 124zM799 276q57 63 57 209v272q0 143 -57 206t-176 63q-121 0 -178 -63q-58 -64 -58 -206v-272q0 -145 58 -209t178 -64
q118 0 176 64zM380 1410l243 215l244 -215l-115 -108l-129 131l-128 -131z" />
    <glyph glyph-name="Otilde" unicode="&#xd5;" horiz-adv-x="1243" 
d="M218 113q-128 125 -128 402v212q0 276 128 399t405 123q275 0 403 -123q127 -123 127 -399v-212q0 -278 -127 -402t-403 -124q-278 0 -405 124zM799 276q57 63 57 209v272q0 143 -57 206t-176 63q-121 0 -178 -63q-58 -64 -58 -206v-272q0 -145 58 -209t178 -64
q118 0 176 64zM355 1371q21 57 68 101q43 40 102 40q36 0 63 -12q23 -10 59 -36q24 -17 40 -25t33 -8q28 0 45 17t34 48l94 -63q-57 -140 -163 -140q-36 0 -63 12q-24 11 -59 34q-21 17 -39 25t-37 8q-50 0 -83 -65z" />
    <glyph glyph-name="Odieresis" unicode="&#xd6;" horiz-adv-x="1243" 
d="M218 113q-128 125 -128 402v212q0 276 128 399t405 123q275 0 403 -123q127 -123 127 -399v-212q0 -278 -127 -402t-403 -124q-278 0 -405 124zM799 276q57 63 57 209v272q0 143 -57 206t-176 63q-121 0 -178 -63q-58 -64 -58 -206v-272q0 -145 58 -209t178 -64
q118 0 176 64zM381 1353q-29 31 -29 74q0 46 29 75q30 30 75 30t75 -30q28 -28 28 -75q0 -46 -29 -75t-74 -29q-46 0 -75 30zM715 1352q-29 29 -29 75t29 75q30 30 74 30q45 0 75 -30q29 -29 29 -75t-29 -75t-75 -29q-45 0 -74 29z" />
    <glyph glyph-name="multiply" unicode="&#xd7;" horiz-adv-x="848" 
d="M626 863l134 -134l-201 -202l201 -200l-134 -136l-202 202l-201 -202l-135 136l202 200l-202 202l135 134l201 -202z" />
    <glyph glyph-name="Oslash" unicode="&#xd8;" horiz-adv-x="1243" 
d="M1059 1088q94 -123 94 -361v-212q0 -278 -127 -402t-403 -124q-200 0 -319 62l-74 -101l-126 89l82 111q-96 121 -96 365v212q0 276 128 399t405 123q199 0 318 -62l67 92l126 -89zM387 485q0 -31 2 -55l398 546q-58 50 -164 50q-121 0 -178 -63q-58 -64 -58 -206v-272z
M856 757q0 27 -2 49l-396 -544q58 -50 165 -50q118 0 176 64q57 63 57 209v272z" />
    <glyph glyph-name="Ugrave" unicode="&#xd9;" horiz-adv-x="1268" 
d="M251 103q-129 113 -129 350v785h297v-785q0 -130 52 -185q53 -56 164 -56q112 0 163 56t51 185v785h297v-785q0 -238 -128 -351t-383 -113q-253 0 -384 114zM325 1572h276l165 -246h-204z" />
    <glyph glyph-name="Uacute" unicode="&#xda;" horiz-adv-x="1268" 
d="M251 103q-129 113 -129 350v785h297v-785q0 -130 52 -185q53 -56 164 -56q112 0 163 56t51 185v785h297v-785q0 -238 -128 -351t-383 -113q-253 0 -384 114zM511 1326l165 246h275l-236 -246h-204z" />
    <glyph glyph-name="Ucircumflex" unicode="&#xdb;" horiz-adv-x="1268" 
d="M251 103q-129 113 -129 350v785h297v-785q0 -130 52 -185q53 -56 164 -56q112 0 163 56t51 185v785h297v-785q0 -238 -128 -351t-383 -113q-253 0 -384 114zM393 1410l242 215l244 -215l-115 -108l-129 131l-127 -131z" />
    <glyph glyph-name="Udieresis" unicode="&#xdc;" horiz-adv-x="1268" 
d="M251 103q-129 113 -129 350v785h297v-785q0 -130 52 -185q53 -56 164 -56q112 0 163 56t51 185v785h297v-785q0 -238 -128 -351t-383 -113q-253 0 -384 114zM394 1353q-30 32 -30 74q0 45 30 75t75 30q44 0 74 -30q28 -28 28 -75q0 -46 -29 -75t-73 -29q-47 0 -75 30z
M728 1352q-29 29 -29 75q0 47 28 75q30 30 74 30q45 0 75 -30t30 -75t-30 -75q-29 -29 -75 -29q-44 0 -73 29z" />
    <glyph glyph-name="Yacute" unicode="&#xdd;" horiz-adv-x="1146" 
d="M573 759l241 479h316l-408 -732v-506h-298v506l-410 732h317zM449 1326l165 246h276l-237 -246h-204z" />
    <glyph glyph-name="Thorn" unicode="&#xde;" horiz-adv-x="1124" 
d="M626 1052q224 0 326 -103t102 -330t-102 -330t-326 -103h-207v-186h-297v1238h297v-186h207zM548 416q114 0 161 47q48 48 48 156t-48 156q-47 47 -161 47h-129v-406h129z" />
    <glyph glyph-name="germandbls" unicode="&#xdf;" horiz-adv-x="1075" 
d="M582 209q78 0 116 38t38 116q0 55 -29 99q-30 46 -81 97q-57 60 -79 94q-25 38 -25 90q0 38 12 65t39 69q26 36 40 67q13 29 13 71q0 108 -110 108q-70 0 -102 -44t-32 -136v-943h-279v955q0 199 99 288q100 89 321 89q111 0 199 -37q85 -36 130 -99t45 -140
q0 -68 -19 -116q-18 -45 -50 -89q-22 -32 -29 -45q-8 -15 -8 -38q0 -22 15 -41q18 -23 52 -57q49 -52 82 -94q29 -37 57 -106q25 -62 25 -145q0 -165 -94 -245t-252 -80h-167v209h73z" />
    <glyph glyph-name="agrave" unicode="&#xe0;" horiz-adv-x="970" 
d="M722 947q78 -34 116 -114q37 -78 37 -218v-615h-272v96q-93 -105 -256 -105q-138 0 -224 80t-86 214q0 170 139 264q140 95 425 102q-8 74 -42 100q-36 27 -112 27q-124 -1 -298 -49l-46 184q89 29 203 49q112 20 203 20q132 0 213 -35zM557 252q46 43 46 134v83
q-163 -12 -227 -53q-63 -40 -63 -99q0 -48 32 -78q31 -30 94 -30q72 0 118 43zM179 1307h276l164 -246h-203z" />
    <glyph glyph-name="aacute" unicode="&#xe1;" horiz-adv-x="970" 
d="M722 947q78 -34 116 -114q37 -78 37 -218v-615h-272v96q-93 -105 -256 -105q-138 0 -224 80t-86 214q0 170 139 264q140 95 425 102q-8 74 -42 100q-36 27 -112 27q-124 -1 -298 -49l-46 184q89 29 203 49q112 20 203 20q132 0 213 -35zM557 252q46 43 46 134v83
q-163 -12 -227 -53q-63 -40 -63 -99q0 -48 32 -78q31 -30 94 -30q72 0 118 43zM364 1061l165 246h276l-237 -246h-204z" />
    <glyph glyph-name="acircumflex" unicode="&#xe2;" horiz-adv-x="970" 
d="M722 947q78 -34 116 -114q37 -78 37 -218v-615h-272v96q-93 -105 -256 -105q-138 0 -224 80t-86 214q0 170 139 264q140 95 425 102q-8 74 -42 100q-36 27 -112 27q-124 -1 -298 -49l-46 184q89 29 203 49q112 20 203 20q132 0 213 -35zM557 252q46 43 46 134v83
q-163 -12 -227 -53q-63 -40 -63 -99q0 -48 32 -78q31 -30 94 -30q72 0 118 43zM246 1144l242 216l244 -216l-115 -108l-129 131l-127 -131z" />
    <glyph glyph-name="atilde" unicode="&#xe3;" horiz-adv-x="970" 
d="M722 947q78 -34 116 -114q37 -78 37 -218v-615h-272v96q-93 -105 -256 -105q-138 0 -224 80t-86 214q0 170 139 264q140 95 425 102q-8 74 -42 100q-36 27 -112 27q-124 -1 -298 -49l-46 184q89 29 203 49q112 20 203 20q132 0 213 -35zM557 252q46 43 46 134v83
q-163 -12 -227 -53q-63 -40 -63 -99q0 -48 32 -78q31 -30 94 -30q72 0 118 43zM223 1105q22 60 67 102q43 40 103 40q33 0 62 -13t60 -35q32 -22 39 -26q16 -8 33 -8q27 0 45 18q19 19 35 48l93 -64q-57 -139 -162 -139q-37 0 -64 12q-21 9 -58 34q-20 16 -40 25
q-18 8 -36 8q-50 0 -83 -65z" />
    <glyph glyph-name="adieresis" unicode="&#xe4;" horiz-adv-x="970" 
d="M722 947q78 -34 116 -114q37 -78 37 -218v-615h-272v96q-93 -105 -256 -105q-138 0 -224 80t-86 214q0 170 139 264q140 95 425 102q-8 74 -42 100q-36 27 -112 27q-124 -1 -298 -49l-46 184q89 29 203 49q112 20 203 20q132 0 213 -35zM557 252q46 43 46 134v83
q-163 -12 -227 -53q-63 -40 -63 -99q0 -48 32 -78q31 -30 94 -30q72 0 118 43zM247 1088q-29 31 -29 74q0 46 29 75t75 29q45 0 74 -29q28 -28 28 -75q0 -46 -29 -75t-73 -29q-46 0 -75 30zM581 1087q-29 29 -29 75q0 47 28 75q29 29 74 29q47 0 76 -29t29 -75t-29 -75
t-76 -29q-44 0 -73 29z" />
    <glyph glyph-name="aring" unicode="&#xe5;" horiz-adv-x="970" 
d="M722 947q78 -34 116 -114q37 -78 37 -218v-615h-272v96q-93 -105 -256 -105q-138 0 -224 80t-86 214q0 170 139 264q140 95 425 102q-8 74 -42 100q-36 27 -112 27q-124 -1 -298 -49l-46 184q89 29 203 49q112 20 203 20q132 0 213 -35zM557 252q46 43 46 134v83
q-163 -12 -227 -53q-63 -40 -63 -99q0 -48 32 -78q31 -30 94 -30q72 0 118 43zM349 1074q-54 50 -54 130q0 84 54 132q55 49 139 49t139 -49q54 -48 54 -132q0 -80 -54 -130q-55 -50 -139 -50t-139 50zM546 1149q22 21 22 55q0 36 -22 55q-23 20 -58 20q-33 0 -56 -20
t-23 -55q0 -34 23 -55t56 -21q36 0 58 21z" />
    <glyph glyph-name="ae" unicode="&#xe6;" horiz-adv-x="1535" 
d="M1375 841q112 -142 102 -436h-612q9 -114 48 -161q40 -49 118 -49q67 0 102 32q36 33 48 86h282q-21 -148 -124 -236t-274 -88q-118 0 -199 39q-80 39 -129 121q-51 -78 -142 -118q-90 -40 -209 -40q-167 0 -260 78q-92 77 -92 216q0 169 138 262q140 95 424 104
q-8 74 -42 100q-36 27 -110 27q-125 -2 -299 -49l-48 184q99 32 186 51q83 18 159 18q116 0 195 -28q75 -26 116 -89q88 118 278 118q232 0 344 -142zM915 731q-39 -47 -50 -160h329q-6 110 -46 159q-41 50 -117 50q-75 0 -116 -49zM552 252q46 43 46 134v83
q-163 -12 -227 -53q-63 -40 -63 -99q0 -48 32 -78t93 -30q73 0 119 43z" />
    <glyph glyph-name="ccedilla" unicode="&#xe7;" horiz-adv-x="1008" 
d="M670 370h281q-12 -172 -109 -267q-98 -97 -269 -110l-23 -74q184 0 184 -138q0 -64 -50 -103t-146 -39q-103 0 -211 32l28 99q91 -19 163 -19q76 0 76 39q0 25 -33 34q-35 9 -138 8l28 159q-393 30 -393 494q0 498 450 498q201 0 315 -96q115 -96 128 -282h-281
q-21 175 -162 175q-89 0 -129 -70q-39 -68 -39 -225t39 -222q41 -68 129 -68q141 0 162 175z" />
    <glyph glyph-name="egrave" unicode="&#xe8;" horiz-adv-x="1027" 
d="M848 857q114 -127 114 -385q0 -37 -2 -67h-613q9 -115 49 -165q40 -51 117 -51q68 0 110 34q41 33 51 90h277q-23 -151 -132 -239t-303 -88q-226 0 -342 126q-116 127 -116 373q0 247 118 374q117 126 340 126q218 0 332 -128zM400 731q-41 -49 -53 -158h332
q-8 108 -49 157q-42 50 -117 50q-72 0 -113 -49zM207 1307h276l164 -246h-203z" />
    <glyph glyph-name="eacute" unicode="&#xe9;" horiz-adv-x="1027" 
d="M848 857q114 -127 114 -385q0 -37 -2 -67h-613q9 -115 49 -165q40 -51 117 -51q68 0 110 34q41 33 51 90h277q-23 -151 -132 -239t-303 -88q-226 0 -342 126q-116 127 -116 373q0 247 118 374q117 126 340 126q218 0 332 -128zM400 731q-41 -49 -53 -158h332
q-8 108 -49 157q-42 50 -117 50q-72 0 -113 -49zM391 1061l164 246h276l-237 -246h-203z" />
    <glyph glyph-name="ecircumflex" unicode="&#xea;" horiz-adv-x="1027" 
d="M848 857q114 -127 114 -385q0 -37 -2 -67h-613q9 -115 49 -165q40 -51 117 -51q68 0 110 34q41 33 51 90h277q-23 -151 -132 -239t-303 -88q-226 0 -342 126q-116 127 -116 373q0 247 118 374q117 126 340 126q218 0 332 -128zM400 731q-41 -49 -53 -158h332
q-8 108 -49 157q-42 50 -117 50q-72 0 -113 -49zM272 1144l243 216l244 -216l-115 -108l-129 131l-128 -131z" />
    <glyph glyph-name="edieresis" unicode="&#xeb;" horiz-adv-x="1027" 
d="M848 857q114 -127 114 -385q0 -37 -2 -67h-613q9 -115 49 -165q40 -51 117 -51q68 0 110 34q41 33 51 90h277q-23 -151 -132 -239t-303 -88q-226 0 -342 126q-116 127 -116 373q0 247 118 374q117 126 340 126q218 0 332 -128zM400 731q-41 -49 -53 -158h332
q-8 108 -49 157q-42 50 -117 50q-72 0 -113 -49zM273 1088q-29 31 -29 74q0 46 29 75t75 29t75 -29q28 -28 28 -75q0 -46 -29 -75t-74 -29q-46 0 -75 30zM608 1087q-30 30 -30 75q0 46 29 75t74 29q46 0 75 -29t29 -75t-29 -75t-75 -29q-44 0 -73 29z" />
    <glyph glyph-name="igrave" unicode="&#xec;" horiz-adv-x="512" 
d="M108 973h297v-973h-297v973zM-53 1307h276l164 -246h-203z" />
    <glyph glyph-name="iacute" unicode="&#xed;" horiz-adv-x="512" 
d="M108 973h297v-973h-297v973zM133 1061l164 246h276l-237 -246h-203z" />
    <glyph glyph-name="icircumflex" unicode="&#xee;" horiz-adv-x="512" 
d="M108 973h297v-973h-297v973zM14 1144l242 216l245 -216l-115 -108l-130 131l-127 -131z" />
    <glyph glyph-name="idieresis" unicode="&#xef;" horiz-adv-x="512" 
d="M108 973h297v-973h-297v973zM15 1088q-29 31 -29 74q0 46 29 75t75 29q45 0 74 -29t29 -75t-29 -75t-74 -29q-46 0 -75 30zM349 1087q-29 29 -29 75q0 47 28 75q29 29 75 29t75 -29t29 -75t-29 -75t-75 -29q-45 0 -74 29z" />
    <glyph glyph-name="eth" unicode="&#xf0;" horiz-adv-x="1013" 
d="M566 1130q208 -130 300 -311q91 -179 91 -402q0 -207 -120 -321t-324 -114q-206 0 -324 109t-118 296t113 297q111 108 302 108q67 0 114 -16q-60 108 -190 191l-152 -161l-125 110l122 129q-56 24 -158 59l85 191q120 -37 230 -84l120 128l126 -112zM636 244
q41 51 41 152t-41 152q-42 53 -121 53q-81 0 -123 -52q-42 -53 -42 -153t42 -152q42 -53 123 -53q79 0 121 53z" />
    <glyph glyph-name="ntilde" unicode="&#xf1;" horiz-adv-x="1103" 
d="M917 882q91 -100 91 -297v-585h-283v585q0 190 -164 190q-168 0 -168 -204h-2l2 -571h-283l-2 973h283v-71q91 80 246 80q189 0 280 -100zM297 1114q22 60 67 102q43 40 103 40q34 0 63 -13q26 -12 59 -35q29 -21 40 -26q16 -8 32 -8q28 0 46 18q17 17 34 48l94 -64
q-57 -140 -163 -140q-35 0 -64 13q-25 11 -58 33q-23 18 -40 26q-18 8 -36 8q-50 0 -83 -65z" />
    <glyph glyph-name="ograve" unicode="&#xf2;" horiz-adv-x="1057" 
d="M58 485q0 500 471 500q470 0 470 -500q0 -499 -470 -499q-471 0 -471 499zM671 261q45 72 45 225q0 154 -45 226q-44 71 -142 71q-100 0 -144 -71q-45 -72 -45 -226q0 -153 45 -225t144 -72q97 0 142 72zM219 1318h276l165 -246h-204z" />
    <glyph glyph-name="oacute" unicode="&#xf3;" horiz-adv-x="1057" 
d="M58 485q0 500 471 500q470 0 470 -500q0 -499 -470 -499q-471 0 -471 499zM671 261q45 72 45 225q0 154 -45 226q-44 71 -142 71q-100 0 -144 -71q-45 -72 -45 -226q0 -153 45 -225t144 -72q97 0 142 72zM405 1072l164 246h276l-237 -246h-203z" />
    <glyph glyph-name="ocircumflex" unicode="&#xf4;" horiz-adv-x="1057" 
d="M58 485q0 500 471 500q470 0 470 -500q0 -499 -470 -499q-471 0 -471 499zM671 261q45 72 45 225q0 154 -45 226q-44 71 -142 71q-100 0 -144 -71q-45 -72 -45 -226q0 -153 45 -225t144 -72q97 0 142 72zM285 1155l242 216l244 -216l-115 -108l-129 131l-127 -131z" />
    <glyph glyph-name="otilde" unicode="&#xf5;" horiz-adv-x="1057" 
d="M58 485q0 500 471 500q470 0 470 -500q0 -499 -470 -499q-471 0 -471 499zM671 261q45 72 45 225q0 154 -45 226q-44 71 -142 71q-100 0 -144 -71q-45 -72 -45 -226q0 -153 45 -225t144 -72q97 0 142 72zM262 1116q22 60 67 102q42 39 103 39q35 0 62 -12q29 -13 60 -35
q32 -22 39 -26q16 -8 33 -8q27 0 45 18q19 19 35 48l93 -64q-57 -140 -162 -140q-35 0 -64 13q-26 11 -58 33q-23 18 -40 26q-18 8 -36 8q-51 0 -84 -66z" />
    <glyph glyph-name="odieresis" unicode="&#xf6;" horiz-adv-x="1057" 
d="M58 485q0 500 471 500q470 0 470 -500q0 -499 -470 -499q-471 0 -471 499zM671 261q45 72 45 225q0 154 -45 226q-44 71 -142 71q-100 0 -144 -71q-45 -72 -45 -226q0 -153 45 -225t144 -72q97 0 142 72zM287 1098q-29 31 -29 75q0 46 29 75t76 29q45 0 74 -29
q28 -28 28 -75t-29 -76t-73 -29q-47 0 -76 30zM622 1097q-30 30 -30 76t29 75t74 29q46 0 75 -29t29 -75q0 -47 -29 -76t-75 -29q-44 0 -73 29z" />
    <glyph glyph-name="divide" unicode="&#xf7;" horiz-adv-x="1031" 
d="M386 768v270h261v-270h-261zM69 432v208h897v-208h-897zM386 27v270h261v-270h-261z" />
    <glyph glyph-name="oslash" unicode="&#xf8;" horiz-adv-x="1057" 
d="M891 849q108 -125 108 -364q0 -499 -470 -499q-158 0 -264 56l-65 -84l-104 70l70 92q-108 124 -108 365q0 500 471 500q157 0 265 -57l60 78l105 -70zM350 357l297 384q-42 42 -118 42q-100 0 -144 -71q-45 -72 -45 -226q0 -79 10 -129zM671 261q45 72 45 225
q0 66 -9 124l-297 -380q43 -41 119 -41q97 0 142 72z" />
    <glyph glyph-name="ugrave" unicode="&#xf9;" horiz-adv-x="1101" 
d="M711 973h283v-973h-283v67q-91 -78 -244 -78q-191 0 -281 98q-90 97 -90 291v595h282v-591q0 -184 167 -184q166 0 166 198v577zM237 1307h276l164 -246h-203z" />
    <glyph glyph-name="uacute" unicode="&#xfa;" horiz-adv-x="1101" 
d="M711 973h283v-973h-283v67q-91 -78 -244 -78q-191 0 -281 98q-90 97 -90 291v595h282v-591q0 -184 167 -184q166 0 166 198v577zM423 1061l164 246h276l-237 -246h-203z" />
    <glyph glyph-name="ucircumflex" unicode="&#xfb;" horiz-adv-x="1101" 
d="M711 973h283v-973h-283v67q-91 -78 -244 -78q-191 0 -281 98q-90 97 -90 291v595h282v-591q0 -184 167 -184q166 0 166 198v577zM304 1144l242 216l245 -216l-115 -108l-130 131l-127 -131z" />
    <glyph glyph-name="udieresis" unicode="&#xfc;" horiz-adv-x="1101" 
d="M711 973h283v-973h-283v67q-91 -78 -244 -78q-191 0 -281 98q-90 97 -90 291v595h282v-591q0 -184 167 -184q166 0 166 198v577zM305 1088q-29 31 -29 74q0 46 29 75t75 29t75 -29q28 -28 28 -75q0 -46 -29 -75t-74 -29q-46 0 -75 30zM639 1087q-29 29 -29 75q0 47 28 75
q29 29 75 29t75 -29t29 -75t-29 -75t-75 -29q-45 0 -74 29z" />
    <glyph glyph-name="yacute" unicode="&#xfd;" horiz-adv-x="986" 
d="M483 391l221 582h279l-532 -1327h-264l160 400l-349 927h294zM368 1061l164 246h276l-237 -246h-203z" />
    <glyph glyph-name="thorn" unicode="&#xfe;" horiz-adv-x="1094" 
d="M1038 486q0 -493 -403 -493q-75 0 -137 22q-64 23 -107 63v-435h-283v1683h283v-429q44 41 108 62q63 21 136 21q403 0 403 -494zM710 262q45 72 45 224q0 153 -45 225t-142 72q-98 0 -144 -73t-46 -224q0 -150 46 -223q47 -74 144 -74q96 0 142 73z" />
    <glyph glyph-name="ydieresis" unicode="&#xff;" horiz-adv-x="986" 
d="M483 391l221 582h279l-532 -1327h-264l160 400l-349 927h294zM250 1088q-29 31 -29 74q0 46 29 75t75 29t75 -29q28 -28 28 -75q0 -46 -29 -75t-74 -29q-47 0 -75 30zM585 1087q-30 30 -30 75q0 46 29 75t74 29q46 0 75 -29t29 -75t-29 -75t-75 -29q-44 0 -73 29z" />
    <glyph glyph-name="Amacron" unicode="&#x100;" horiz-adv-x="1176" 
d="M1181 0h-323l-71 244h-396l-71 -244h-324l448 1238h288zM589 937l-136 -477h272zM817 1346h-454v145h454v-145z" />
    <glyph glyph-name="amacron" unicode="&#x101;" horiz-adv-x="970" 
d="M722 947q78 -34 116 -114q37 -78 37 -218v-615h-272v96q-93 -105 -256 -105q-138 0 -224 80t-86 214q0 170 139 264q140 95 425 102q-8 74 -42 100q-36 27 -112 27q-124 -1 -298 -49l-46 184q89 29 203 49q112 20 203 20q132 0 213 -35zM557 252q46 43 46 134v83
q-163 -12 -227 -53q-63 -40 -63 -99q0 -48 32 -78q31 -30 94 -30q72 0 118 43zM716 1081h-454v145h454v-145z" />
    <glyph glyph-name="Abreve" unicode="&#x102;" horiz-adv-x="1176" 
d="M1181 0h-323l-71 244h-396l-71 -244h-324l448 1238h288zM589 937l-136 -477h272zM842 1558q0 -256 -253 -256q-252 0 -253 256h156q1 -115 97 -115q97 0 97 115h156z" />
    <glyph glyph-name="abreve" unicode="&#x103;" horiz-adv-x="970" 
d="M722 947q78 -34 116 -114q37 -78 37 -218v-615h-272v96q-93 -105 -256 -105q-138 0 -224 80t-86 214q0 170 139 264q140 95 425 102q-8 74 -42 100q-36 27 -112 27q-124 -1 -298 -49l-46 184q89 29 203 49q112 20 203 20q132 0 213 -35zM557 252q46 43 46 134v83
q-163 -12 -227 -53q-63 -40 -63 -99q0 -48 32 -78q31 -30 94 -30q72 0 118 43zM741 1293q0 -257 -253 -257q-251 0 -253 257h156q1 -115 97 -115q97 0 97 115h156z" />
    <glyph glyph-name="Aogonek" unicode="&#x104;" horiz-adv-x="1176" 
d="M1215 -325q-78 -45 -157 -45q-82 0 -131 45q-50 45 -50 120q0 112 124 205h-143l-71 244h-396l-71 -244h-324l448 1238h288l449 -1238h-1q-74 -43 -115 -93q-43 -52 -43 -89q0 -30 18 -47q19 -17 49 -17q28 0 82 23zM589 937l-136 -477h272z" />
    <glyph glyph-name="aogonek" unicode="&#x105;" horiz-adv-x="970" 
d="M911 -325q-78 -45 -158 -45q-81 0 -130 45q-50 45 -50 120q0 112 124 205h-94v96q-93 -105 -256 -105q-138 0 -224 80t-86 214q0 170 139 264q140 95 425 102q-8 74 -42 100q-36 27 -112 27q-124 -1 -298 -49l-46 184q89 29 203 49q112 20 203 20q132 0 213 -35
q78 -34 116 -114q37 -78 37 -218v-615q-74 -43 -115 -93q-42 -51 -42 -89q0 -30 18 -47q19 -17 49 -17q28 0 82 23zM557 252q46 43 46 134v83q-163 -12 -227 -53q-63 -40 -63 -99q0 -48 32 -78q31 -30 94 -30q72 0 118 43z" />
    <glyph glyph-name="Cacute" unicode="&#x106;" horiz-adv-x="1215" 
d="M216 113q-126 125 -126 402v212q0 276 126 399t398 123q268 0 395 -116q126 -115 126 -364h-297q0 137 -54 197t-170 60t-172 -63q-55 -62 -55 -206v-272q0 -148 55 -210q56 -63 172 -63t170 61q54 62 54 199h297q0 -248 -126 -365q-127 -118 -395 -118q-273 0 -398 124z
M490 1326l164 246h276l-237 -246h-203z" />
    <glyph glyph-name="cacute" unicode="&#x107;" horiz-adv-x="1008" 
d="M58 485q0 498 450 498q201 0 315 -96q115 -96 128 -282h-281q-21 175 -162 175q-89 0 -129 -70q-39 -68 -39 -225t39 -222q41 -68 129 -68q141 0 162 175h281q-13 -185 -128 -283t-315 -98q-450 0 -450 496zM382 1072l164 246h276l-237 -246h-203z" />
    <glyph glyph-name="Ccircumflex" unicode="&#x108;" horiz-adv-x="1215" 
d="M216 113q-126 125 -126 402v212q0 276 126 399t398 123q268 0 395 -116q126 -115 126 -364h-297q0 137 -54 197t-170 60t-172 -63q-55 -62 -55 -206v-272q0 -148 55 -210q56 -63 172 -63t170 61q54 62 54 199h297q0 -248 -126 -365q-127 -118 -395 -118q-273 0 -398 124z
M371 1410l243 215l244 -215l-115 -108l-129 131l-128 -131z" />
    <glyph glyph-name="ccircumflex" unicode="&#x109;" horiz-adv-x="1008" 
d="M58 485q0 498 450 498q201 0 315 -96q115 -96 128 -282h-281q-21 175 -162 175q-89 0 -129 -70q-39 -68 -39 -225t39 -222q41 -68 129 -68q141 0 162 175h281q-13 -185 -128 -283t-315 -98q-450 0 -450 496zM264 1155l242 216l244 -216l-115 -108l-129 131l-128 -131z
" />
    <glyph glyph-name="Cdotaccent" unicode="&#x10a;" horiz-adv-x="1215" 
d="M216 113q-126 125 -126 402v212q0 276 126 399t398 123q268 0 395 -116q126 -115 126 -364h-297q0 137 -54 197t-170 60t-172 -63q-55 -62 -55 -206v-272q0 -148 55 -210q56 -63 172 -63t170 61q54 62 54 199h297q0 -248 -126 -365q-127 -118 -395 -118q-273 0 -398 124z
M539 1353q-30 30 -30 74q0 45 30 75t75 30q42 0 72 -30t30 -75q0 -44 -30 -74t-72 -30q-45 0 -75 30z" />
    <glyph glyph-name="cdotaccent" unicode="&#x10b;" horiz-adv-x="1008" 
d="M58 485q0 498 450 498q201 0 315 -96q115 -96 128 -282h-281q-21 175 -162 175q-89 0 -129 -70q-39 -68 -39 -225t39 -222q41 -68 129 -68q141 0 162 175h281q-13 -185 -128 -283t-315 -98q-450 0 -450 496zM433 1098q-30 30 -30 75q0 44 30 74t75 30q42 0 72 -30t30 -74
q0 -45 -30 -75t-72 -30q-45 0 -75 30z" />
    <glyph glyph-name="Ccaron" unicode="&#x10c;" horiz-adv-x="1215" 
d="M216 113q-126 125 -126 402v212q0 276 126 399t398 123q268 0 395 -116q126 -115 126 -364h-297q0 137 -54 197t-170 60t-172 -63q-55 -62 -55 -206v-272q0 -148 55 -210q56 -63 172 -63t170 61q54 62 54 199h297q0 -248 -126 -365q-127 -118 -395 -118q-273 0 -398 124z
M858 1517l-244 -215l-243 215l115 108l128 -131l129 131z" />
    <glyph glyph-name="ccaron" unicode="&#x10d;" horiz-adv-x="1008" 
d="M58 485q0 498 450 498q201 0 315 -96q115 -96 128 -282h-281q-21 175 -162 175q-89 0 -129 -70q-39 -68 -39 -225t39 -222q41 -68 129 -68q141 0 162 175h281q-13 -185 -128 -283t-315 -98q-450 0 -450 496zM750 1263l-244 -216l-242 216l114 108l128 -131l129 131z" />
    <glyph glyph-name="Dcaron" unicode="&#x10e;" horiz-adv-x="1229" 
d="M571 1238q225 0 346 -51q120 -51 175 -184q54 -132 54 -384q0 -253 -54 -385t-175 -183t-346 -51h-449v1238h449zM557 237q123 0 182 28t85 108q25 78 25 246t-25 246q-26 80 -85 108t-182 28h-138v-764h138zM803 1517l-244 -215l-242 215l115 108l127 -131l129 131z" />
    <glyph glyph-name="dcaron" unicode="&#x10f;" horiz-adv-x="1474" 
d="M704 1326h283v-1326h-283v78q-43 -40 -107 -63q-62 -22 -137 -22q-403 0 -403 493q0 494 403 494q74 0 137 -21t107 -62v429zM670 263q46 73 46 223q0 151 -46 224t-143 73t-142 -72t-45 -225q0 -152 45 -224q46 -73 142 -73t143 74zM1114 822l60 504h237v-184l-111 -320
h-186z" />
    <glyph glyph-name="Dcroat" unicode="&#x110;" horiz-adv-x="1262" 
d="M605 1238q225 0 346 -51q120 -51 175 -184q54 -132 54 -384q0 -253 -54 -385t-175 -183t-346 -51h-449v552h-105v193h105v493h449zM591 237q123 0 182 28t85 108q25 78 25 246t-25 246q-26 80 -85 108t-182 28h-138v-256h214v-193h-214v-315h138z" />
    <glyph glyph-name="dcroat" unicode="&#x111;" horiz-adv-x="1096" 
d="M1098 1238v-193h-111v-1045h-283v78q-43 -40 -107 -63q-62 -22 -137 -22q-403 0 -403 493q0 494 403 494q74 0 137 -21t107 -62v148h-221v193h221v88h283v-88h111zM670 263q46 73 46 223q0 151 -46 224t-143 73t-142 -72t-45 -225q0 -152 45 -224q46 -73 142 -73t143 74z
" />
    <glyph glyph-name="Emacron" unicode="&#x112;" horiz-adv-x="1096" 
d="M419 527v-290h601v-237h-898v1238h884v-237h-587v-242h515v-232h-515zM794 1344h-454v145h454v-145z" />
    <glyph glyph-name="emacron" unicode="&#x113;" horiz-adv-x="1027" 
d="M848 857q114 -127 114 -385q0 -37 -2 -67h-613q9 -115 49 -165q40 -51 117 -51q68 0 110 34q41 33 51 90h277q-23 -151 -132 -239t-303 -88q-226 0 -342 126q-116 127 -116 373q0 247 118 374q117 126 340 126q218 0 332 -128zM400 731q-41 -49 -53 -158h332
q-8 108 -49 157q-42 50 -117 50q-72 0 -113 -49zM743 1081h-455v145h455v-145z" />
    <glyph glyph-name="Ebreve" unicode="&#x114;" horiz-adv-x="1096" 
d="M419 527v-290h601v-237h-898v1238h884v-237h-587v-242h515v-232h-515zM819 1556q0 -256 -253 -256q-252 0 -253 256h156q1 -115 97 -115q97 0 97 115h156z" />
    <glyph glyph-name="ebreve" unicode="&#x115;" horiz-adv-x="1027" 
d="M848 857q114 -127 114 -385q0 -37 -2 -67h-613q9 -115 49 -165q40 -51 117 -51q68 0 110 34q41 33 51 90h277q-23 -151 -132 -239t-303 -88q-226 0 -342 126q-116 127 -116 373q0 247 118 374q117 126 340 126q218 0 332 -128zM400 731q-41 -49 -53 -158h332
q-8 108 -49 157q-42 50 -117 50q-72 0 -113 -49zM768 1293q0 -257 -253 -257q-251 0 -253 257h155q1 -115 98 -115t97 115h156z" />
    <glyph glyph-name="Edotaccent" unicode="&#x116;" horiz-adv-x="1096" 
d="M419 527v-290h601v-237h-898v1238h884v-237h-587v-242h515v-232h-515zM493 1351q-30 30 -30 74q0 45 30 75t75 30q42 0 72 -30t30 -75q0 -44 -30 -74t-72 -30q-45 0 -75 30z" />
    <glyph glyph-name="edotaccent" unicode="&#x117;" horiz-adv-x="1027" 
d="M848 857q114 -127 114 -385q0 -37 -2 -67h-613q9 -115 49 -165q40 -51 117 -51q68 0 110 34q41 33 51 90h277q-23 -151 -132 -239t-303 -88q-226 0 -342 126q-116 127 -116 373q0 247 118 374q117 126 340 126q218 0 332 -128zM400 731q-41 -49 -53 -158h332
q-8 108 -49 157q-42 50 -117 50q-72 0 -113 -49zM442 1088q-30 30 -30 74t30 74t74 30q43 0 73 -30t30 -74t-30 -74t-73 -30q-44 0 -74 30z" />
    <glyph glyph-name="Eogonek" unicode="&#x118;" horiz-adv-x="1096" 
d="M1054 -325q-78 -45 -157 -45q-81 0 -131 45t-50 120q0 112 124 205h-718v1238h884v-237h-587v-242h515v-232h-515v-290h601v-237h-1q-74 -43 -115 -93q-43 -52 -43 -89q0 -30 18 -47q19 -17 49 -17q28 0 82 23z" />
    <glyph glyph-name="eogonek" unicode="&#x119;" horiz-adv-x="1027" 
d="M848 857q114 -127 114 -385q0 -37 -2 -67h-613q9 -115 49 -165q40 -51 117 -51q68 0 110 34q41 33 51 90h277q-20 -133 -107 -217q-88 -86 -243 -105q-63 -43 -98 -87q-36 -45 -36 -81q0 -31 18 -47q19 -17 49 -17q27 0 81 23l45 -102q-76 -44 -158 -44t-131 45t-49 119
q0 104 106 191q-185 26 -277 149q-93 124 -93 345q0 247 118 374q117 126 340 126q218 0 332 -128zM400 731q-41 -49 -53 -158h332q-8 108 -49 157q-42 50 -117 50q-72 0 -113 -49z" />
    <glyph glyph-name="Ecaron" unicode="&#x11a;" horiz-adv-x="1096" 
d="M419 527v-290h601v-237h-898v1238h884v-237h-587v-242h515v-232h-515zM810 1516l-244 -216l-242 216l115 108l127 -131l129 131z" />
    <glyph glyph-name="ecaron" unicode="&#x11b;" horiz-adv-x="1027" 
d="M848 857q114 -127 114 -385q0 -37 -2 -67h-613q9 -115 49 -165q40 -51 117 -51q68 0 110 34q41 33 51 90h277q-23 -151 -132 -239t-303 -88q-226 0 -342 126q-116 127 -116 373q0 247 118 374q117 126 340 126q218 0 332 -128zM400 731q-41 -49 -53 -158h332
q-8 108 -49 157q-42 50 -117 50q-72 0 -113 -49zM759 1252l-244 -216l-243 216l115 108l128 -131l129 131z" />
    <glyph glyph-name="Gcircumflex" unicode="&#x11c;" horiz-adv-x="1252" 
d="M646 711h516v-203q0 -276 -129 -397q-130 -122 -407 -122q-279 0 -407 124q-129 125 -129 402v212q0 276 129 399t407 123q252 0 382 -96q131 -96 147 -299h-295q-7 87 -68 129q-61 43 -166 43q-122 0 -180 -63q-59 -64 -59 -206v-272q0 -145 59 -209t180 -64
q128 0 187 59t59 201v30h-226v209zM384 1410l242 215l244 -215l-115 -108l-129 131l-127 -131z" />
    <glyph glyph-name="gcircumflex" unicode="&#x11d;" horiz-adv-x="1092" 
d="M702 973h283v-915q0 -224 -105 -323t-328 -99q-193 0 -396 79l69 188q156 -59 286 -59q67 0 111 19q42 18 61 64q19 45 19 131v36q-82 -82 -228 -82q-419 0 -419 485q0 236 101 360q100 123 302 123q75 0 137 -22q63 -22 107 -65v80zM669 281q46 71 46 216q0 144 -46 215
t-144 71t-142 -71q-45 -72 -45 -215q0 -145 45 -217q44 -71 142 -71q97 0 144 72zM378 1144l243 216l244 -216l-115 -108l-129 131l-128 -131z" />
    <glyph glyph-name="Gbreve" unicode="&#x11e;" horiz-adv-x="1252" 
d="M646 711h516v-203q0 -276 -129 -397q-130 -122 -407 -122q-279 0 -407 124q-129 125 -129 402v212q0 276 129 399t407 123q252 0 382 -96q131 -96 147 -299h-295q-7 87 -68 129q-61 43 -166 43q-122 0 -180 -63q-59 -64 -59 -206v-272q0 -145 59 -209t180 -64
q128 0 187 59t59 201v30h-226v209zM879 1558q0 -256 -253 -256q-252 0 -253 256h156q1 -115 97 -115q97 0 97 115h156z" />
    <glyph glyph-name="gbreve" unicode="&#x11f;" horiz-adv-x="1092" 
d="M702 973h283v-915q0 -224 -105 -323t-328 -99q-193 0 -396 79l69 188q156 -59 286 -59q67 0 111 19q42 18 61 64q19 45 19 131v36q-82 -82 -228 -82q-419 0 -419 485q0 236 101 360q100 123 302 123q75 0 137 -22q63 -22 107 -65v80zM669 281q46 71 46 216q0 144 -46 215
t-144 71t-142 -71q-45 -72 -45 -215q0 -145 45 -217q44 -71 142 -71q97 0 144 72zM874 1293q0 -257 -253 -257q-251 0 -253 257h155q1 -115 98 -115t97 115h156z" />
    <glyph glyph-name="Gdotaccent" unicode="&#x120;" horiz-adv-x="1252" 
d="M646 711h516v-203q0 -276 -129 -397q-130 -122 -407 -122q-279 0 -407 124q-129 125 -129 402v212q0 276 129 399t407 123q252 0 382 -96q131 -96 147 -299h-295q-7 87 -68 129q-61 43 -166 43q-122 0 -180 -63q-59 -64 -59 -206v-272q0 -145 59 -209t180 -64
q128 0 187 59t59 201v30h-226v209zM554 1353q-31 31 -31 74q0 44 31 75q30 30 74 30q42 0 72 -30t30 -75q0 -44 -30 -74t-72 -30q-44 0 -74 30z" />
    <glyph glyph-name="gdotaccent" unicode="&#x121;" horiz-adv-x="1092" 
d="M702 973h283v-915q0 -224 -105 -323t-328 -99q-193 0 -396 79l69 188q156 -59 286 -59q67 0 111 19q42 18 61 64q19 45 19 131v36q-82 -82 -228 -82q-419 0 -419 485q0 236 101 360q100 123 302 123q75 0 137 -22q63 -22 107 -65v80zM669 281q46 71 46 216q0 144 -46 215
t-144 71t-142 -71q-45 -72 -45 -215q0 -145 45 -217q44 -71 142 -71q97 0 144 72zM548 1088q-30 30 -30 74t30 74t75 30q42 0 72 -30t30 -74t-30 -74t-72 -30q-45 0 -75 30z" />
    <glyph glyph-name="uni0122" unicode="&#x122;" horiz-adv-x="1252" 
d="M646 711h516v-203q0 -276 -129 -397q-130 -122 -407 -122q-279 0 -407 124q-129 125 -129 402v212q0 276 129 399t407 123q252 0 382 -96q131 -96 147 -299h-295q-7 87 -68 129q-61 43 -166 43q-122 0 -180 -63q-59 -64 -59 -206v-272q0 -145 59 -209t180 -64
q128 0 187 59t59 201v30h-226v209zM488 -393l41 312h221l-85 -312h-177z" />
    <glyph glyph-name="uni0123" unicode="&#x123;" horiz-adv-x="1092" 
d="M702 973h283v-915q0 -224 -105 -323t-328 -99q-193 0 -396 79l69 188q156 -59 286 -59q67 0 111 19q42 18 61 64q19 45 19 131v36q-82 -82 -228 -82q-419 0 -419 485q0 236 101 360q100 123 302 123q75 0 137 -22q63 -22 107 -65v80zM669 281q46 71 46 216q0 144 -46 215
t-144 71t-142 -71q-45 -72 -45 -215q0 -145 45 -217q44 -71 142 -71q97 0 144 72zM806 1334l-91 -276h-199l117 276h173z" />
    <glyph glyph-name="Hcircumflex" unicode="&#x124;" horiz-adv-x="1296" 
d="M875 762v476h298v-1238h-298v525h-456v-525h-297v1238h297v-476h456zM403 1410l243 215l244 -215l-115 -108l-129 131l-128 -131z" />
    <glyph glyph-name="hcircumflex" unicode="&#x125;" horiz-adv-x="1101" 
d="M909 878q97 -101 97 -296v-582h-283v582q0 189 -164 189q-168 0 -168 -203v-568h-283v1326h283v-413q88 67 230 67q191 0 288 -102zM2 1498l242 216l244 -216l-115 -108l-129 131l-127 -131z" />
    <glyph glyph-name="Hbar" unicode="&#x126;" horiz-adv-x="1296" 
d="M1173 1086h125v-179h-125v-907h-298v525h-456v-525h-297v907h-126v179h126v152h297v-152h456v152h298v-152zM419 762h456v145h-456v-145z" />
    <glyph glyph-name="hbar" unicode="&#x127;" horiz-adv-x="1101" 
d="M909 878q97 -101 97 -296v-582h-283v582q0 189 -164 189q-168 0 -168 -203v-568h-283v1045h-113v193h113v88h283v-88h219v-193h-219v-132q88 67 230 67q191 0 288 -102z" />
    <glyph glyph-name="Itilde" unicode="&#x128;" horiz-adv-x="542" 
d="M419 0h-297v1238h297v-1238zM5 1371q21 57 68 101q43 40 102 40q36 0 63 -12q23 -10 59 -36q24 -17 40 -25t33 -8q28 0 45 17t34 48l94 -63q-57 -140 -163 -140q-36 0 -63 12q-24 11 -59 34q-20 16 -40 25q-18 8 -36 8q-50 0 -83 -65z" />
    <glyph glyph-name="itilde" unicode="&#x129;" horiz-adv-x="512" 
d="M108 973h297v-973h-297v973zM-9 1105q22 60 67 102q43 40 103 40q34 0 63 -13q26 -12 59 -35q29 -21 40 -26q16 -8 32 -8q28 0 46 18q17 17 34 48l94 -64q-57 -139 -163 -139q-37 0 -64 12q-21 9 -58 34q-20 16 -40 25q-18 8 -36 8q-50 0 -83 -65z" />
    <glyph glyph-name="Imacron" unicode="&#x12a;" horiz-adv-x="542" 
d="M419 0h-297v1238h297v-1238zM499 1346h-455v145h455v-145z" />
    <glyph glyph-name="imacron" unicode="&#x12b;" horiz-adv-x="512" 
d="M108 973h297v-973h-297v973zM485 1081h-455v145h455v-145z" />
    <glyph glyph-name="Ibreve" unicode="&#x12c;" horiz-adv-x="542" 
d="M419 0h-297v1238h297v-1238zM523 1558q0 -256 -252 -256t-253 256h155q1 -115 98 -115t97 115h155z" />
    <glyph glyph-name="ibreve" unicode="&#x12d;" horiz-adv-x="512" 
d="M108 973h297v-973h-297v973zM509 1293q0 -257 -253 -257q-250 0 -252 257h155q1 -115 97 -115q98 0 98 115h155z" />
    <glyph glyph-name="Iogonek" unicode="&#x12e;" horiz-adv-x="542" 
d="M455 -325q-78 -45 -158 -45q-81 0 -131 45q-49 45 -49 120q0 112 124 205h-119v1238h297v-1238q-74 -43 -115 -93q-42 -51 -42 -89q0 -31 17 -47q19 -17 50 -17q27 0 81 23z" />
    <glyph glyph-name="iogonek" unicode="&#x12f;" horiz-adv-x="512" 
d="M184 1088q-30 30 -30 74t30 74t74 30q43 0 73 -30t30 -74t-30 -74t-73 -30q-44 0 -74 30zM440 -325q-78 -45 -157 -45q-81 0 -131 45q-49 45 -49 120q0 113 123 205h-118v973h297v-973q-74 -43 -115 -93q-42 -51 -42 -89q0 -31 17 -47q19 -17 50 -17q27 0 81 23z" />
    <glyph glyph-name="Idotaccent" unicode="&#x130;" horiz-adv-x="542" 
d="M419 0h-297v1238h297v-1238zM198 1353q-30 30 -30 74q0 45 30 75t74 30q43 0 73 -30t30 -75q0 -44 -30 -74t-73 -30q-44 0 -74 30z" />
    <glyph glyph-name="dotlessi" unicode="&#x131;" horiz-adv-x="512" 
d="M108 973h297v-973h-297v973z" />
    <glyph glyph-name="IJ" unicode="&#x132;" horiz-adv-x="1229" 
d="M419 0h-297v1238h297v-1238zM577 0v237h120q66 0 93 32q27 31 27 108v861h297v-895q0 -128 -33 -203q-33 -74 -109 -107t-215 -33h-180z" />
    <glyph glyph-name="ij" unicode="&#x133;" horiz-adv-x="1025" 
d="M391 1291v-219h-283v219h283zM108 973h283v-973h-283v973zM918 1077h-283v249h283v-249zM120 -318l32 196q119 -19 181 -27q59 -8 132 -8q71 0 106 16q37 17 50 54q14 40 14 114v946h283v-954q0 -145 -33 -227t-116 -120q-84 -38 -240 -38q-166 0 -409 48z" />
    <glyph glyph-name="Jcircumflex" unicode="&#x134;" horiz-adv-x="687" 
d="M34 0v237h120q66 0 93 32q27 31 27 108v861h297v-895q0 -130 -32 -203t-110 -107q-77 -33 -215 -33h-180zM184 1410l242 215l244 -215l-115 -108l-129 131l-127 -131z" />
    <glyph glyph-name="jcircumflex" unicode="&#x135;" horiz-adv-x="495" 
d="M-25 -354v218h27q44 0 63 11q22 13 31 41q8 25 8 86v971h283v-984q0 -131 -28 -205t-93 -106q-66 -32 -181 -32h-110zM7 1144l242 216l244 -216l-115 -108l-129 131l-127 -131z" />
    <glyph glyph-name="uni0136" unicode="&#x136;" horiz-adv-x="1140" 
d="M661 640l499 -640h-361l-380 513v-513h-297v1238h297v-472l349 472h360zM493 -391l41 311h221l-85 -311h-177z" />
    <glyph glyph-name="uni0137" unicode="&#x137;" horiz-adv-x="978" 
d="M614 536l373 -536h-315l-281 433v-433h-283v1326h283v-696l246 343h316zM384 -391l40 311h222l-85 -311h-177z" />
    <glyph glyph-name="Lacute" unicode="&#x139;" horiz-adv-x="1066" 
d="M1028 0h-906v1238h297v-1001h609v-237zM161 1326l164 246h276l-237 -246h-203z" />
    <glyph glyph-name="lacute" unicode="&#x13a;" horiz-adv-x="574" 
d="M386 0q-109 0 -166 19q-58 19 -87 73q-29 53 -29 156v1078h283v-1041q0 -43 17 -60q16 -16 58 -16h69v-209h-145zM126 1415l164 246h276l-237 -246h-203z" />
    <glyph glyph-name="uni013B" unicode="&#x13b;" horiz-adv-x="1066" 
d="M1028 0h-906v1238h297v-1001h609v-237zM470 -391l41 311h221l-85 -311h-177z" />
    <glyph glyph-name="uni013C" unicode="&#x13c;" horiz-adv-x="574" 
d="M386 0q-109 0 -166 19q-58 19 -87 73q-29 53 -29 156v1078h283v-1041q0 -43 17 -60q16 -16 58 -16h69v-209h-145zM186 -391l40 311h221l-84 -311h-177z" />
    <glyph glyph-name="Lcaron" unicode="&#x13d;" horiz-adv-x="1064" 
d="M1028 0h-906v1238h297v-1001h609v-237zM706 734l56 504h225v-184l-106 -320h-175z" />
    <glyph glyph-name="lcaron" unicode="&#x13e;" horiz-adv-x="801" 
d="M386 0q-109 0 -166 19q-58 19 -87 73q-29 53 -29 156v1078h283v-1041q0 -43 17 -60q16 -16 58 -16h69v-209h-145zM495 822l51 504h199v-184l-94 -320h-156z" />
    <glyph glyph-name="Ldot" unicode="&#x13f;" horiz-adv-x="1066" 
d="M1028 0h-906v1238h297v-1001h609v-237zM669 559v272h263v-272h-263z" />
    <glyph glyph-name="ldot" unicode="&#x140;" horiz-adv-x="728" 
d="M386 0q-109 0 -166 19q-58 19 -87 73q-29 53 -29 156v1078h283v-1041q0 -43 17 -60q16 -16 58 -16h69v-209h-145zM469 432v258h224v-258h-224z" />
    <glyph glyph-name="Lslash" unicode="&#x141;" horiz-adv-x="1066" 
d="M419 495v-258h609v-237h-906v283l-83 -60v276l83 60v679h297v-467l166 120v-276z" />
    <glyph glyph-name="lslash" unicode="&#x142;" horiz-adv-x="574" 
d="M554 568l-167 -121v-162q0 -43 17 -60q16 -16 58 -16h69v-209h-145q-109 0 -166 19q-58 19 -87 73q-29 53 -29 154l-97 -71v276l97 71v804h283v-603l167 121v-276z" />
    <glyph glyph-name="Nacute" unicode="&#x143;" horiz-adv-x="1303" 
d="M907 354v884h274v-1238h-367l-414 881v-881h-278v1238h370zM559 1326l164 246h276l-237 -246h-203z" />
    <glyph glyph-name="nacute" unicode="&#x144;" horiz-adv-x="1103" 
d="M917 882q91 -100 91 -297v-585h-283v585q0 190 -164 190q-168 0 -168 -204h-2l2 -571h-283l-2 973h283v-71q91 80 246 80q189 0 280 -100zM439 1070l164 246h276l-237 -246h-203z" />
    <glyph glyph-name="uni0145" unicode="&#x145;" horiz-adv-x="1303" 
d="M907 354v884h274v-1238h-367l-414 881v-881h-278v1238h370zM513 -391l41 311h221l-85 -311h-177z" />
    <glyph glyph-name="uni0146" unicode="&#x146;" horiz-adv-x="1103" 
d="M917 882q91 -100 91 -297v-585h-283v585q0 190 -164 190q-168 0 -168 -204h-2l2 -571h-283l-2 973h283v-71q91 80 246 80q189 0 280 -100zM410 -391l41 311h221l-85 -311h-177z" />
    <glyph glyph-name="Ncaron" unicode="&#x147;" horiz-adv-x="1303" 
d="M907 354v884h274v-1238h-367l-414 881v-881h-278v1238h370zM927 1517l-244 -215l-243 215l115 108l128 -131l129 131z" />
    <glyph glyph-name="ncaron" unicode="&#x148;" horiz-adv-x="1103" 
d="M917 882q91 -100 91 -297v-585h-283v585q0 190 -164 190q-168 0 -168 -204h-2l2 -571h-283l-2 973h283v-71q91 80 246 80q189 0 280 -100zM806 1261l-244 -216l-242 216l115 108l127 -131l130 131z" />
    <glyph glyph-name="napostrophe" unicode="&#x149;" horiz-adv-x="1103" 
d="M377 1464v-146l-89 -257h-148l47 403h190zM917 882q91 -100 91 -297v-585h-283v585q0 190 -164 190q-168 0 -168 -204h-2l2 -571h-283l-2 973h283v-71q91 80 246 80q189 0 280 -100z" />
    <glyph glyph-name="Eng" unicode="&#x14a;" horiz-adv-x="1303" 
d="M1181 1238v-1238h-1v-27q0 -122 -29 -194q-29 -71 -93 -102q-63 -31 -181 -31h-102v218h28q60 0 81 23q22 24 22 86v27h-92l-414 881v-881h-278v1238h370l415 -884v884h274z" />
    <glyph glyph-name="eng" unicode="&#x14b;" horiz-adv-x="1115" 
d="M1008 14h11v-41q0 -121 -28 -194q-27 -71 -93 -102q-65 -31 -182 -31h-109v218h28q61 0 82 23q20 21 20 86v27h-12v585q0 190 -164 190q-168 0 -168 -204h-2l2 -571h-283l-2 973h283v-71q91 80 246 80q189 0 280 -100t91 -297v-571z" />
    <glyph glyph-name="Omacron" unicode="&#x14c;" horiz-adv-x="1243" 
d="M218 113q-128 125 -128 402v212q0 276 128 399t405 123q275 0 403 -123q127 -123 127 -399v-212q0 -278 -127 -402t-403 -124q-278 0 -405 124zM799 276q57 63 57 209v272q0 143 -57 206t-176 63q-121 0 -178 -63q-58 -64 -58 -206v-272q0 -145 58 -209t178 -64
q118 0 176 64zM851 1346h-455v145h455v-145z" />
    <glyph glyph-name="omacron" unicode="&#x14d;" horiz-adv-x="1057" 
d="M58 485q0 500 471 500q470 0 470 -500q0 -499 -470 -499q-471 0 -471 499zM671 261q45 72 45 225q0 154 -45 226q-44 71 -142 71q-100 0 -144 -71q-45 -72 -45 -226q0 -153 45 -225t144 -72q97 0 142 72zM755 1091h-454v145h454v-145z" />
    <glyph glyph-name="Obreve" unicode="&#x14e;" horiz-adv-x="1243" 
d="M218 113q-128 125 -128 402v212q0 276 128 399t405 123q275 0 403 -123q127 -123 127 -399v-212q0 -278 -127 -402t-403 -124q-278 0 -405 124zM799 276q57 63 57 209v272q0 143 -57 206t-176 63q-121 0 -178 -63q-58 -64 -58 -206v-272q0 -145 58 -209t178 -64
q118 0 176 64zM875 1558q0 -256 -252 -256t-253 256h155q1 -115 98 -115t97 115h155z" />
    <glyph glyph-name="obreve" unicode="&#x14f;" horiz-adv-x="1057" 
d="M58 485q0 500 471 500q470 0 470 -500q0 -499 -470 -499q-471 0 -471 499zM671 261q45 72 45 225q0 154 -45 226q-44 71 -142 71q-100 0 -144 -71q-45 -72 -45 -226q0 -153 45 -225t144 -72q97 0 142 72zM780 1303q0 -256 -253 -256q-252 0 -253 256h156q1 -115 97 -115
q97 0 97 115h156z" />
    <glyph glyph-name="Ohungarumlaut" unicode="&#x150;" horiz-adv-x="1243" 
d="M218 113q-128 125 -128 402v212q0 276 128 399t405 123q275 0 403 -123q127 -123 127 -399v-212q0 -278 -127 -402t-403 -124q-278 0 -405 124zM799 276q57 63 57 209v272q0 143 -57 206t-176 63q-121 0 -178 -63q-58 -64 -58 -206v-272q0 -145 58 -209t178 -64
q118 0 176 64zM550 1606h152l-134 -280h-124zM757 1606h152l-134 -280h-126z" />
    <glyph glyph-name="ohungarumlaut" unicode="&#x151;" horiz-adv-x="1057" 
d="M58 485q0 500 471 500q470 0 470 -500q0 -499 -470 -499q-471 0 -471 499zM671 261q45 72 45 225q0 154 -45 226q-44 71 -142 71q-100 0 -144 -71q-45 -72 -45 -226q0 -153 45 -225t144 -72q97 0 142 72zM455 1351h152l-135 -279h-124zM661 1351h153l-135 -279h-125z" />
    <glyph glyph-name="OE" unicode="&#x152;" horiz-adv-x="1793" 
d="M1137 237h579v-237h-823v76q-105 -87 -297 -87q-253 0 -379 126q-127 127 -127 400v212q0 272 127 397t379 125q192 0 297 -87v76h810v-237h-566v-244h492v-223h-492v-297zM840 757q0 144 -55 206q-55 63 -170 63q-114 0 -171 -63t-57 -206v-272q0 -146 57 -209
q58 -64 171 -64q114 0 170 64q55 62 55 209v272z" />
    <glyph glyph-name="oe" unicode="&#x153;" horiz-adv-x="1579" 
d="M1521 405h-612q9 -112 49 -161t117 -49q121 0 151 118h281q-21 -149 -128 -236q-108 -88 -290 -88q-194 0 -295 131q-99 -131 -304 -131q-213 0 -326 125t-113 371t112 373q110 125 327 125q203 0 302 -131q101 131 297 131q453 0 432 -578zM959 730q-41 -50 -50 -161
h329q-6 112 -46 161q-41 50 -117 50q-75 0 -116 -50zM637 264q42 69 42 221q0 155 -42 224t-133 69q-88 0 -129 -69q-41 -70 -41 -224q0 -151 41 -221q41 -69 129 -69q91 0 133 69z" />
    <glyph glyph-name="Racute" unicode="&#x154;" horiz-adv-x="1163" 
d="M775 0l-214 414h-142v-414h-297v1238h520q221 0 322 -100q102 -100 102 -309q0 -146 -51 -242t-159 -138l242 -449h-323zM419 1003v-354h150q106 0 152 46q47 47 47 136q0 88 -46 130t-153 42h-150zM417 1326l165 246h276l-237 -246h-204z" />
    <glyph glyph-name="racute" unicode="&#x155;" horiz-adv-x="744" 
d="M108 0v973h267v-198l3 -2q38 98 107 148q72 52 208 52h32v-266h-32q-99 0 -164 -22q-66 -23 -102 -82q-36 -60 -36 -171v-432h-283zM306 1061l164 246h276l-237 -246h-203z" />
    <glyph glyph-name="uni0156" unicode="&#x156;" horiz-adv-x="1163" 
d="M775 0l-214 414h-142v-414h-297v1238h520q221 0 322 -100q102 -100 102 -309q0 -146 -51 -242t-159 -138l242 -449h-323zM419 1003v-354h150q106 0 152 46q47 47 47 136q0 88 -46 130t-153 42h-150zM433 -391l41 311h221l-85 -311h-177z" />
    <glyph glyph-name="uni0157" unicode="&#x157;" horiz-adv-x="744" 
d="M108 0v973h267v-198l3 -2q38 98 107 148q72 52 208 52h32v-266h-32q-99 0 -164 -22q-66 -23 -102 -82q-36 -60 -36 -171v-432h-283zM90 -391l41 311h221l-85 -311h-177z" />
    <glyph glyph-name="Rcaron" unicode="&#x158;" horiz-adv-x="1163" 
d="M775 0l-214 414h-142v-414h-297v1238h520q221 0 322 -100q102 -100 102 -309q0 -146 -51 -242t-159 -138l242 -449h-323zM419 1003v-354h150q106 0 152 46q47 47 47 136q0 88 -46 130t-153 42h-150zM785 1517l-244 -215l-242 215l115 108l127 -131l129 131z" />
    <glyph glyph-name="rcaron" unicode="&#x159;" horiz-adv-x="744" 
d="M108 0v973h267v-198l3 -2q38 98 107 148q72 52 208 52h32v-266h-32q-99 0 -164 -22q-66 -23 -102 -82q-36 -60 -36 -171v-432h-283zM674 1252l-244 -216l-243 216l115 108l128 -131l129 131z" />
    <glyph glyph-name="Sacute" unicode="&#x15a;" horiz-adv-x="1153" 
d="M211 78q-128 92 -128 306q0 3 4 65h281q-2 -18 -2 -42q0 -104 53 -152t163 -48q100 0 150 31q51 32 51 87q0 41 -18 70q-20 31 -71 59q-54 29 -155 62q-187 62 -285 125q-96 61 -129 129t-33 166q0 89 55 160q56 73 165 114q111 42 272 42q267 0 380 -110t104 -309h-276
q6 200 -198 200q-98 0 -147 -29t-49 -83q0 -32 17 -57q16 -24 67 -49q46 -23 148 -56q185 -56 286 -119q99 -62 135 -135q37 -76 37 -180q0 -160 -134 -250q-132 -89 -381 -89q-234 0 -362 92zM460 1326l164 246h276l-237 -246h-203z" />
    <glyph glyph-name="sacute" unicode="&#x15b;" horiz-adv-x="928" 
d="M218 22q-94 33 -135 107q-43 77 -37 202h253q-3 -73 35 -107q40 -35 128 -35q79 0 117 19q36 18 36 59q0 27 -18 46q-16 18 -72 40q-41 16 -161 48q-160 42 -238 117q-75 72 -75 189q0 126 105 201t320 75q206 0 301 -85q97 -86 88 -229h-250q6 120 -153 120
q-144 0 -144 -78q0 -24 21 -42q24 -20 74 -37q56 -19 160 -45q164 -42 237 -115t73 -198q0 -285 -418 -285q-154 0 -247 33zM352 1072l164 246h276l-237 -246h-203z" />
    <glyph glyph-name="Scircumflex" unicode="&#x15c;" horiz-adv-x="1153" 
d="M211 78q-128 92 -128 306q0 3 4 65h281q-2 -18 -2 -42q0 -104 53 -152t163 -48q100 0 150 31q51 32 51 87q0 41 -18 70q-20 31 -71 59q-54 29 -155 62q-187 62 -285 125q-96 61 -129 129t-33 166q0 89 55 160q56 73 165 114q111 42 272 42q267 0 380 -110t104 -309h-276
q6 200 -198 200q-98 0 -147 -29t-49 -83q0 -32 17 -57q16 -24 67 -49q46 -23 148 -56q185 -56 286 -119q99 -62 135 -135q37 -76 37 -180q0 -160 -134 -250q-132 -89 -381 -89q-234 0 -362 92zM341 1410l243 215l244 -215l-115 -108l-129 131l-128 -131z" />
    <glyph glyph-name="scircumflex" unicode="&#x15d;" horiz-adv-x="928" 
d="M218 22q-94 33 -135 107q-43 77 -37 202h253q-3 -73 35 -107q40 -35 128 -35q79 0 117 19q36 18 36 59q0 27 -18 46q-16 18 -72 40q-41 16 -161 48q-160 42 -238 117q-75 72 -75 189q0 126 105 201t320 75q206 0 301 -85q97 -86 88 -229h-250q6 120 -153 120
q-144 0 -144 -78q0 -24 21 -42q24 -20 74 -37q56 -19 160 -45q164 -42 237 -115t73 -198q0 -285 -418 -285q-154 0 -247 33zM233 1155l243 216l244 -216l-115 -108l-129 131l-128 -131z" />
    <glyph glyph-name="Scedilla" unicode="&#x15e;" horiz-adv-x="1153" 
d="M972 88q-117 -88 -332 -100l-23 -73q184 0 184 -138q0 -63 -49 -102q-50 -39 -147 -39q-103 0 -211 32l29 99q95 -20 162 -20q76 0 76 39q0 25 -33 34q-35 9 -138 8l28 160q-207 10 -321 102q-114 91 -114 294q0 3 4 65h281q-2 -18 -2 -42q0 -104 53 -152t163 -48
q100 0 150 31q51 32 51 87q0 41 -18 70q-20 31 -71 59q-54 29 -155 62q-187 62 -285 125q-96 61 -129 129t-33 166q0 89 55 160q56 73 165 114q111 42 272 42q267 0 380 -110t104 -309h-276q6 200 -198 200q-98 0 -147 -29t-49 -83q0 -32 17 -57q16 -24 67 -49
q46 -23 148 -56q185 -56 286 -119q99 -62 135 -135q37 -76 37 -180q0 -150 -116 -237z" />
    <glyph glyph-name="scedilla" unicode="&#x15f;" horiz-adv-x="928" 
d="M516 -9l-23 -72q184 0 184 -138q0 -64 -49 -103q-50 -39 -147 -39q-102 0 -210 32l28 99q91 -19 163 -19q76 0 76 39q0 25 -34 34q-35 9 -138 8l28 159q-190 10 -273 89q-83 78 -75 251h253q-3 -73 35 -107q40 -35 128 -35q79 0 117 19q36 18 36 59q0 27 -18 46
q-16 18 -72 40q-41 16 -161 48q-160 42 -238 117q-75 72 -75 189q0 126 105 201t320 75q206 0 301 -85q97 -86 88 -229h-250q6 120 -153 120q-144 0 -144 -78q0 -24 21 -42q24 -20 74 -37q56 -19 160 -45q164 -42 237 -115t73 -198q0 -265 -367 -283z" />
    <glyph glyph-name="Scaron" unicode="&#x160;" horiz-adv-x="1153" 
d="M211 78q-128 92 -128 306q0 3 4 65h281q-2 -18 -2 -42q0 -104 53 -152t163 -48q100 0 150 31q51 32 51 87q0 41 -18 70q-20 31 -71 59q-54 29 -155 62q-187 62 -285 125q-96 61 -129 129t-33 166q0 89 55 160q56 73 165 114q111 42 272 42q267 0 380 -110t104 -309h-276
q6 200 -198 200q-98 0 -147 -29t-49 -83q0 -32 17 -57q16 -24 67 -49q46 -23 148 -56q185 -56 286 -119q99 -62 135 -135q37 -76 37 -180q0 -160 -134 -250q-132 -89 -381 -89q-234 0 -362 92zM828 1517l-244 -215l-243 215l115 108l128 -131l129 131z" />
    <glyph glyph-name="scaron" unicode="&#x161;" horiz-adv-x="928" 
d="M218 22q-94 33 -135 107q-43 77 -37 202h253q-3 -73 35 -107q40 -35 128 -35q79 0 117 19q36 18 36 59q0 27 -18 46q-16 18 -72 40q-41 16 -161 48q-160 42 -238 117q-75 72 -75 189q0 126 105 201t320 75q206 0 301 -85q97 -86 88 -229h-250q6 120 -153 120
q-144 0 -144 -78q0 -24 21 -42q24 -20 74 -37q56 -19 160 -45q164 -42 237 -115t73 -198q0 -285 -418 -285q-154 0 -247 33zM720 1263l-244 -216l-243 216l115 108l128 -131l129 131z" />
    <glyph glyph-name="uni0162" unicode="&#x162;" horiz-adv-x="1069" 
d="M683 0h-115l-23 -71q184 0 184 -138q0 -63 -50 -102q-49 -39 -147 -39q-102 0 -210 32l28 99q95 -20 163 -20q76 0 76 39q0 26 -34 35q-35 9 -138 8l29 157h-60v1001h-342v237h980v-237h-341v-1001z" />
    <glyph glyph-name="uni0163" unicode="&#x163;" horiz-adv-x="695" 
d="M488 -71q184 0 184 -138q0 -63 -49 -102t-147 -39q-103 0 -211 32l29 99q95 -20 162 -20q76 0 76 39q0 26 -33 35q-35 9 -138 8l30 162q-128 18 -183 88q-56 71 -56 211v474h-118v195h118v265h283v-265h214v-195h-214v-460q0 -60 25 -85q24 -24 85 -24h111v-209h-145z
" />
    <glyph glyph-name="Tcaron" unicode="&#x164;" horiz-adv-x="1069" 
d="M1024 1238v-237h-341v-1001h-297v1001h-342v237h980zM778 1517l-244 -215l-242 215l115 108l127 -131l129 131z" />
    <glyph glyph-name="tcaron" unicode="&#x165;" horiz-adv-x="716" 
d="M561 1070l60 354h239v-129l-112 -225h-187zM435 318q0 -60 25 -85q24 -24 85 -24h111v-209h-166q-182 0 -260 69t-78 235v474h-118v195h118v265h283v-265h214v-195h-214v-460z" />
    <glyph glyph-name="Tbar" unicode="&#x166;" horiz-adv-x="1069" 
d="M1024 1238v-237h-341v-267h159v-193h-159v-541h-297v541h-160v193h160v267h-342v237h980z" />
    <glyph glyph-name="tbar" unicode="&#x167;" horiz-adv-x="756" 
d="M670 209v-209h-166q-182 0 -260 69t-78 235v143h-120v195h120v136h-118v195h118v265h283v-265h214v-195h-214v-136h212v-195h-212v-129q0 -60 25 -85q24 -24 85 -24h111z" />
    <glyph glyph-name="Utilde" unicode="&#x168;" horiz-adv-x="1268" 
d="M251 103q-129 113 -129 350v785h297v-785q0 -130 52 -185q53 -56 164 -56q112 0 163 56t51 185v785h297v-785q0 -238 -128 -351t-383 -113q-253 0 -384 114zM370 1371q21 59 67 101q43 40 102 40q36 0 63 -12q23 -10 59 -36q24 -17 40 -25t33 -8q28 0 45 17q19 19 35 48
l93 -63q-57 -140 -162 -140q-37 0 -64 12q-21 9 -58 34q-20 16 -40 25q-18 8 -37 8q-50 0 -83 -65z" />
    <glyph glyph-name="utilde" unicode="&#x169;" horiz-adv-x="1101" 
d="M711 973h283v-973h-283v67q-91 -78 -244 -78q-191 0 -281 98q-90 97 -90 291v595h282v-591q0 -184 167 -184q166 0 166 198v577zM281 1105q22 60 67 102q43 40 103 40q34 0 63 -13q26 -12 59 -35q29 -21 40 -26q16 -8 33 -8q27 0 45 18q17 17 34 48l94 -64
q-57 -139 -163 -139q-37 0 -64 12q-21 9 -58 34q-20 16 -40 25q-18 8 -36 8q-50 0 -83 -65z" />
    <glyph glyph-name="Umacron" unicode="&#x16a;" horiz-adv-x="1268" 
d="M251 103q-129 113 -129 350v785h297v-785q0 -130 52 -185q53 -56 164 -56q112 0 163 56t51 185v785h297v-785q0 -238 -128 -351t-383 -113q-253 0 -384 114zM863 1346h-454v145h454v-145z" />
    <glyph glyph-name="umacron" unicode="&#x16b;" horiz-adv-x="1101" 
d="M711 973h283v-973h-283v67q-91 -78 -244 -78q-191 0 -281 98q-90 97 -90 291v595h282v-591q0 -184 167 -184q166 0 166 198v577zM775 1081h-455v145h455v-145z" />
    <glyph glyph-name="Ubreve" unicode="&#x16c;" horiz-adv-x="1268" 
d="M251 103q-129 113 -129 350v785h297v-785q0 -130 52 -185q53 -56 164 -56q112 0 163 56t51 185v785h297v-785q0 -238 -128 -351t-383 -113q-253 0 -384 114zM888 1558q0 -256 -253 -256q-252 0 -253 256h156q1 -115 97 -115q97 0 97 115h156z" />
    <glyph glyph-name="ubreve" unicode="&#x16d;" horiz-adv-x="1101" 
d="M711 973h283v-973h-283v67q-91 -78 -244 -78q-191 0 -281 98q-90 97 -90 291v595h282v-591q0 -184 167 -184q166 0 166 198v577zM799 1293q0 -257 -253 -257q-250 0 -252 257h155q1 -115 97 -115q98 0 98 115h155z" />
    <glyph glyph-name="Uring" unicode="&#x16e;" horiz-adv-x="1268" 
d="M251 103q-129 113 -129 350v785h297v-785q0 -130 52 -185q53 -56 164 -56q112 0 163 56t51 185v785h297v-785q0 -238 -128 -351t-383 -113q-253 0 -384 114zM496 1339q-54 49 -54 131q0 83 54 131q55 49 139 49t139 -49q54 -48 54 -131q0 -82 -54 -131q-55 -50 -139 -50
t-139 50zM692 1414q23 21 23 56t-23 55q-22 19 -57 19t-57 -19q-23 -20 -23 -55t23 -56q21 -20 57 -20t57 20z" />
    <glyph glyph-name="uring" unicode="&#x16f;" horiz-adv-x="1101" 
d="M711 973h283v-973h-283v67q-91 -78 -244 -78q-191 0 -281 98q-90 97 -90 291v595h282v-591q0 -184 167 -184q166 0 166 198v577zM408 1074q-54 50 -54 130q0 84 54 132q55 49 138 49q84 0 139 -49q54 -48 54 -132q0 -80 -54 -130q-55 -50 -139 -50q-83 0 -138 50z
M604 1149q22 21 22 55q0 36 -22 55q-23 20 -58 20q-33 0 -56 -20t-23 -55q0 -34 23 -55q22 -21 56 -21q36 0 58 21z" />
    <glyph glyph-name="Uhungarumlaut" unicode="&#x170;" horiz-adv-x="1268" 
d="M251 103q-129 113 -129 350v785h297v-785q0 -130 52 -185q53 -56 164 -56q112 0 163 56t51 185v785h297v-785q0 -238 -128 -351t-383 -113q-253 0 -384 114zM562 1606h153l-135 -280h-124zM769 1606h152l-134 -280h-126z" />
    <glyph glyph-name="uhungarumlaut" unicode="&#x171;" horiz-adv-x="1101" 
d="M711 973h283v-973h-283v67q-91 -78 -244 -78q-191 0 -281 98q-90 97 -90 291v595h282v-591q0 -184 167 -184q166 0 166 198v577zM474 1341h152l-134 -280h-124zM681 1341h152l-134 -280h-126z" />
    <glyph glyph-name="Uogonek" unicode="&#x172;" horiz-adv-x="1268" 
d="M849 1238h297v-785q0 -216 -106 -328t-317 -132q-64 -40 -110 -93q-42 -48 -42 -86q0 -30 18 -47q17 -16 49 -16q28 0 82 23l44 -103q-76 -44 -157 -44t-131 45t-50 119q0 112 119 202q-211 20 -317 132t-106 328v785h297v-785q0 -130 52 -185q53 -56 164 -56
q112 0 163 56t51 185v785z" />
    <glyph glyph-name="uogonek" unicode="&#x173;" horiz-adv-x="1101" 
d="M1029 -325q-78 -45 -157 -45q-82 0 -131 45t-49 120q0 113 123 205h-104v67q-91 -78 -244 -78q-191 0 -281 98q-90 97 -90 291v595h282v-591q0 -184 167 -184q166 0 166 198v577h283v-973q-74 -43 -115 -93q-42 -51 -42 -89q0 -31 17 -47q19 -17 50 -17q27 0 81 23z" />
    <glyph glyph-name="Wcircumflex" unicode="&#x174;" horiz-adv-x="1816" 
d="M1279 371l207 867h318l-352 -1238h-331l-214 791l-214 -791h-330l-351 1238h319l207 -867l237 867h267zM665 1406l242 216l244 -216l-115 -108l-129 131l-127 -131z" />
    <glyph glyph-name="wcircumflex" unicode="&#x175;" horiz-adv-x="1582" 
d="M1102 324l155 649h306l-311 -973h-285l-175 614l-177 -614h-283l-313 973h306l156 -649l180 649h262zM539 1144l243 216l244 -216l-115 -108l-129 131l-128 -131z" />
    <glyph glyph-name="Ycircumflex" unicode="&#x176;" horiz-adv-x="1146" 
d="M573 759l241 479h316l-408 -732v-506h-298v506l-410 732h317zM329 1410l242 215l244 -215l-115 -108l-129 131l-127 -131z" />
    <glyph glyph-name="ycircumflex" unicode="&#x177;" horiz-adv-x="986" 
d="M483 391l221 582h279l-532 -1327h-264l160 400l-349 927h294zM249 1144l243 216l244 -216l-115 -108l-129 131l-128 -131z" />
    <glyph glyph-name="Ydieresis" unicode="&#x178;" horiz-adv-x="1146" 
d="M573 759l241 479h316l-408 -732v-506h-298v506l-410 732h317zM332 1353q-30 32 -30 74q0 45 30 75t75 30q44 0 74 -30q28 -28 28 -75q0 -46 -29 -75t-73 -29q-47 0 -75 30zM666 1352q-29 29 -29 75q0 47 28 75q30 30 74 30q45 0 75 -30t30 -75t-30 -75q-29 -29 -75 -29
q-44 0 -73 29z" />
    <glyph glyph-name="Zacute" unicode="&#x179;" horiz-adv-x="1066" 
d="M1008 0h-964l545 1001h-515v237h946l-544 -1001h532v-237zM417 1326l165 246h276l-237 -246h-204z" />
    <glyph glyph-name="zacute" unicode="&#x17a;" horiz-adv-x="871" 
d="M829 0h-788l414 764h-395v209h773l-414 -764h410v-209zM288 1061l165 246h276l-237 -246h-204z" />
    <glyph glyph-name="Zdotaccent" unicode="&#x17b;" horiz-adv-x="1066" 
d="M1008 0h-964l545 1001h-515v237h946l-544 -1001h532v-237zM469 1353q-30 30 -30 74q0 45 30 75t74 30q42 0 72 -30q31 -31 31 -75q0 -43 -31 -74q-30 -30 -72 -30q-44 0 -74 30z" />
    <glyph glyph-name="zdotaccent" unicode="&#x17c;" horiz-adv-x="871" 
d="M829 0h-788l414 764h-395v209h773l-414 -764h410v-209zM340 1088q-31 31 -31 74t31 74q30 30 74 30q42 0 72 -30t30 -74t-30 -74t-72 -30q-44 0 -74 30z" />
    <glyph glyph-name="Zcaron" unicode="&#x17d;" horiz-adv-x="1066" 
d="M1008 0h-964l545 1001h-515v237h946l-544 -1001h532v-237zM785 1517l-244 -215l-242 215l115 108l127 -131l129 131z" />
    <glyph glyph-name="zcaron" unicode="&#x17e;" horiz-adv-x="871" 
d="M829 0h-788l414 764h-395v209h773l-414 -764h410v-209zM656 1252l-244 -216l-242 216l115 108l127 -131l129 131z" />
    <glyph glyph-name="uni018F" unicode="&#x18f;" horiz-adv-x="1252" 
d="M1032 1125q130 -124 130 -400v-209q0 -278 -130 -402q-131 -125 -408 -125q-276 0 -405 123t-129 399v211h775v31q0 143 -59 208t-182 65q-104 0 -163 -44t-68 -128h-296q18 202 148 298q132 97 379 97q278 0 408 -124zM806 277q59 65 59 211v25h-485v-39q0 -141 59 -202
q58 -60 185 -60q123 0 182 65z" />
    <glyph glyph-name="florin" unicode="&#x192;" horiz-adv-x="707" 
d="M553 1118q-19 -27 -22 -87l-18 -267h164v-193h-176l-41 -628q-9 -154 -74 -230q-64 -74 -204 -74q-116 0 -223 25l27 182q58 -12 102 -12q49 0 67 25q19 27 22 86l41 626h-156v193h168l18 269q9 156 74 230t207 74q97 0 219 -25l-28 -182q-56 12 -101 12q-49 0 -66 -24z
" />
    <glyph glyph-name="uni01CD" unicode="&#x1cd;" horiz-adv-x="1176" 
d="M1181 0h-323l-71 244h-396l-71 -244h-324l448 1238h288zM589 937l-136 -477h272zM833 1517l-244 -215l-242 215l115 108l127 -131l129 131z" />
    <glyph glyph-name="uni01CE" unicode="&#x1ce;" horiz-adv-x="970" 
d="M722 947q78 -34 116 -114q37 -78 37 -218v-615h-272v96q-93 -105 -256 -105q-138 0 -224 80t-86 214q0 170 139 264q140 95 425 102q-8 74 -42 100q-36 27 -112 27q-124 -1 -298 -49l-46 184q89 29 203 49q112 20 203 20q132 0 213 -35zM557 252q46 43 46 134v83
q-163 -12 -227 -53q-63 -40 -63 -99q0 -48 32 -78q31 -30 94 -30q72 0 118 43zM732 1252l-244 -216l-242 216l115 108l127 -131l129 131z" />
    <glyph glyph-name="uni01CF" unicode="&#x1cf;" horiz-adv-x="542" 
d="M419 0h-297v1238h297v-1238zM515 1517l-244 -215l-243 215l115 108l128 -131l129 131z" />
    <glyph glyph-name="uni01D0" unicode="&#x1d0;" horiz-adv-x="512" 
d="M108 973h297v-973h-297v973zM501 1252l-245 -216l-242 216l115 108l127 -131l130 131z" />
    <glyph glyph-name="uni01D1" unicode="&#x1d1;" horiz-adv-x="1243" 
d="M218 113q-128 125 -128 402v212q0 276 128 399t405 123q275 0 403 -123q127 -123 127 -399v-212q0 -278 -127 -402t-403 -124q-278 0 -405 124zM799 276q57 63 57 209v272q0 143 -57 206t-176 63q-121 0 -178 -63q-58 -64 -58 -206v-272q0 -145 58 -209t178 -64
q118 0 176 64zM867 1517l-244 -215l-243 215l115 108l128 -131l129 131z" />
    <glyph glyph-name="uni01D2" unicode="&#x1d2;" horiz-adv-x="1057" 
d="M58 485q0 500 471 500q470 0 470 -500q0 -499 -470 -499q-471 0 -471 499zM671 261q45 72 45 225q0 154 -45 226q-44 71 -142 71q-100 0 -144 -71q-45 -72 -45 -226q0 -153 45 -225t144 -72q97 0 142 72zM771 1263l-244 -216l-242 216l115 108l127 -131l129 131z" />
    <glyph glyph-name="uni01D3" unicode="&#x1d3;" horiz-adv-x="1268" 
d="M251 103q-129 113 -129 350v785h297v-785q0 -130 52 -185q53 -56 164 -56q112 0 163 56t51 185v785h297v-785q0 -238 -128 -351t-383 -113q-253 0 -384 114zM879 1517l-244 -215l-242 215l115 108l127 -131l129 131z" />
    <glyph glyph-name="uni01D4" unicode="&#x1d4;" horiz-adv-x="1101" 
d="M711 973h283v-973h-283v67q-91 -78 -244 -78q-191 0 -281 98q-90 97 -90 291v595h282v-591q0 -184 167 -184q166 0 166 198v577zM791 1252l-245 -216l-242 216l115 108l127 -131l130 131z" />
    <glyph glyph-name="uni01D5" unicode="&#x1d5;" horiz-adv-x="1268" 
d="M251 103q-129 113 -129 350v785h297v-785q0 -130 52 -185q53 -56 164 -56q112 0 163 56t51 185v785h297v-785q0 -238 -128 -351t-383 -113q-253 0 -384 114zM394 1353q-30 32 -30 74q0 45 30 75t75 30q44 0 74 -30q28 -28 28 -75q0 -46 -29 -75t-73 -29q-47 0 -75 30z
M728 1352q-29 29 -29 75q0 47 28 75q30 30 74 30q45 0 75 -30t30 -75t-30 -75q-29 -29 -75 -29q-44 0 -73 29zM863 1641h-454v145h454v-145z" />
    <glyph glyph-name="uni01D6" unicode="&#x1d6;" horiz-adv-x="1101" 
d="M711 973h283v-973h-283v67q-91 -78 -244 -78q-191 0 -281 98q-90 97 -90 291v595h282v-591q0 -184 167 -184q166 0 166 198v577zM305 1088q-29 31 -29 74q0 46 29 75t75 29t75 -29q28 -28 28 -75q0 -46 -29 -75t-74 -29q-46 0 -75 30zM639 1087q-29 29 -29 75q0 47 28 75
q29 29 75 29t75 -29t29 -75t-29 -75t-75 -29q-45 0 -74 29zM775 1376h-455v145h455v-145z" />
    <glyph glyph-name="uni01D7" unicode="&#x1d7;" horiz-adv-x="1268" 
d="M251 103q-129 113 -129 350v785h297v-785q0 -130 52 -185q53 -56 164 -56q112 0 163 56t51 185v785h297v-785q0 -238 -128 -351t-383 -113q-253 0 -384 114zM394 1353q-30 32 -30 74q0 45 30 75t75 30q44 0 74 -30q28 -28 28 -75q0 -46 -29 -75t-73 -29q-47 0 -75 30z
M728 1352q-29 29 -29 75q0 47 28 75q30 30 74 30q45 0 75 -30t30 -75t-30 -75q-29 -29 -75 -29q-44 0 -73 29zM511 1622l165 246h275l-236 -246h-204z" />
    <glyph glyph-name="uni01D8" unicode="&#x1d8;" horiz-adv-x="1101" 
d="M711 973h283v-973h-283v67q-91 -78 -244 -78q-191 0 -281 98q-90 97 -90 291v595h282v-591q0 -184 167 -184q166 0 166 198v577zM305 1088q-29 31 -29 74q0 46 29 75t75 29t75 -29q28 -28 28 -75q0 -46 -29 -75t-74 -29q-46 0 -75 30zM639 1087q-29 29 -29 75q0 47 28 75
q29 29 75 29t75 -29t29 -75t-29 -75t-75 -29q-45 0 -74 29zM423 1356l164 246h276l-237 -246h-203z" />
    <glyph glyph-name="uni01D9" unicode="&#x1d9;" horiz-adv-x="1268" 
d="M251 103q-129 113 -129 350v785h297v-785q0 -130 52 -185q53 -56 164 -56q112 0 163 56t51 185v785h297v-785q0 -238 -128 -351t-383 -113q-253 0 -384 114zM394 1353q-30 32 -30 74q0 45 30 75t75 30q44 0 74 -30q28 -28 28 -75q0 -46 -29 -75t-73 -29q-47 0 -75 30z
M728 1352q-29 29 -29 75q0 47 28 75q30 30 74 30q45 0 75 -30t30 -75t-30 -75q-29 -29 -75 -29q-44 0 -73 29zM879 1813l-244 -216l-242 216l115 108l127 -131l129 131z" />
    <glyph glyph-name="uni01DA" unicode="&#x1da;" horiz-adv-x="1101" 
d="M711 973h283v-973h-283v67q-91 -78 -244 -78q-191 0 -281 98q-90 97 -90 291v595h282v-591q0 -184 167 -184q166 0 166 198v577zM305 1088q-29 31 -29 74q0 46 29 75t75 29t75 -29q28 -28 28 -75q0 -46 -29 -75t-74 -29q-46 0 -75 30zM639 1087q-29 29 -29 75q0 47 28 75
q29 29 75 29t75 -29t29 -75t-29 -75t-75 -29q-45 0 -74 29zM791 1547l-245 -215l-242 215l115 108l127 -130l130 130z" />
    <glyph glyph-name="uni01DB" unicode="&#x1db;" horiz-adv-x="1268" 
d="M251 103q-129 113 -129 350v785h297v-785q0 -130 52 -185q53 -56 164 -56q112 0 163 56t51 185v785h297v-785q0 -238 -128 -351t-383 -113q-253 0 -384 114zM394 1353q-30 32 -30 74q0 45 30 75t75 30q44 0 74 -30q28 -28 28 -75q0 -46 -29 -75t-73 -29q-47 0 -75 30z
M728 1352q-29 29 -29 75q0 47 28 75q30 30 74 30q45 0 75 -30t30 -75t-30 -75q-29 -29 -75 -29q-44 0 -73 29zM325 1868h276l165 -246h-204z" />
    <glyph glyph-name="uni01DC" unicode="&#x1dc;" horiz-adv-x="1101" 
d="M711 973h283v-973h-283v67q-91 -78 -244 -78q-191 0 -281 98q-90 97 -90 291v595h282v-591q0 -184 167 -184q166 0 166 198v577zM305 1088q-29 31 -29 74q0 46 29 75t75 29t75 -29q28 -28 28 -75q0 -46 -29 -75t-74 -29q-46 0 -75 30zM639 1087q-29 29 -29 75q0 47 28 75
q29 29 75 29t75 -29t29 -75t-29 -75t-75 -29q-45 0 -74 29zM237 1602h276l164 -246h-203z" />
    <glyph glyph-name="Gcaron" unicode="&#x1e6;" horiz-adv-x="1252" 
d="M646 711h516v-203q0 -276 -129 -397q-130 -122 -407 -122q-279 0 -407 124q-129 125 -129 402v212q0 276 129 399t407 123q252 0 382 -96q131 -96 147 -299h-295q-7 87 -68 129q-61 43 -166 43q-122 0 -180 -63q-59 -64 -59 -206v-272q0 -145 59 -209t180 -64
q128 0 187 59t59 201v30h-226v209zM870 1517l-244 -215l-242 215l115 108l127 -131l129 131z" />
    <glyph glyph-name="gcaron" unicode="&#x1e7;" horiz-adv-x="1092" 
d="M702 973h283v-915q0 -224 -105 -323t-328 -99q-193 0 -396 79l69 188q156 -59 286 -59q67 0 111 19q42 18 61 64q19 45 19 131v36q-82 -82 -228 -82q-419 0 -419 485q0 236 101 360q100 123 302 123q75 0 137 -22q63 -22 107 -65v80zM669 281q46 71 46 216q0 144 -46 215
t-144 71t-142 -71q-45 -72 -45 -215q0 -145 45 -217q44 -71 142 -71q97 0 144 72zM865 1252l-244 -216l-243 216l115 108l128 -131l129 131z" />
    <glyph glyph-name="uni01EA" unicode="&#x1ea;" horiz-adv-x="1243" 
d="M1026 1126q127 -123 127 -399v-212q0 -253 -105 -378q-105 -124 -332 -144q-66 -41 -108 -91q-40 -47 -40 -86q0 -31 17 -47q19 -17 50 -17q27 0 81 23l44 -102q-76 -44 -157 -44t-131 45q-49 45 -49 119q0 107 115 200q-233 18 -340 141q-108 124 -108 381v212
q0 276 128 399t405 123q275 0 403 -123zM856 757q0 143 -57 206t-176 63q-121 0 -178 -63q-58 -64 -58 -206v-272q0 -145 58 -209t178 -64q118 0 176 64q57 63 57 209v272z" />
    <glyph glyph-name="uni01EB" unicode="&#x1eb;" horiz-adv-x="1057" 
d="M529 -14h-2q-74 -43 -115 -93q-42 -51 -42 -89q0 -31 17 -47q19 -17 50 -17q27 0 81 23l44 -103q-76 -44 -157 -44t-131 45q-49 45 -49 120q0 125 146 223q-313 75 -313 481q0 500 471 500q470 0 470 -500q0 -499 -470 -499zM385 712q-45 -72 -45 -226q0 -153 45 -225
t144 -72q97 0 142 72t45 225q0 154 -45 226q-44 71 -142 71q-100 0 -144 -71z" />
    <glyph glyph-name="Aringacute" unicode="&#x1fa;" horiz-adv-x="1176" 
d="M1181 0h-323l-71 244h-396l-71 -244h-324l448 1238h288zM589 937l-136 -477h272zM450 1339q-54 49 -54 131q0 83 54 131q55 49 139 49t139 -49q54 -48 54 -131q0 -82 -54 -131q-55 -50 -139 -50t-139 50zM646 1414q23 21 23 56t-23 55q-22 19 -57 19t-57 -19
q-23 -20 -23 -55t23 -56q21 -20 57 -20t57 20zM465 1742l165 246h276l-237 -246h-204z" />
    <glyph glyph-name="aringacute" unicode="&#x1fb;" horiz-adv-x="970" 
d="M722 947q78 -34 116 -114q37 -78 37 -218v-615h-272v96q-93 -105 -256 -105q-138 0 -224 80t-86 214q0 170 139 264q140 95 425 102q-8 74 -42 100q-36 27 -112 27q-124 -1 -298 -49l-46 184q89 29 203 49q112 20 203 20q132 0 213 -35zM557 252q46 43 46 134v83
q-163 -12 -227 -53q-63 -40 -63 -99q0 -48 32 -78q31 -30 94 -30q72 0 118 43zM349 1074q-54 50 -54 130q0 84 54 132q55 49 139 49t139 -49q54 -48 54 -132q0 -80 -54 -130q-55 -50 -139 -50t-139 50zM546 1149q22 21 22 55q0 36 -22 55q-23 20 -58 20q-33 0 -56 -20
t-23 -55q0 -34 23 -55t56 -21q36 0 58 21zM364 1477l165 246h276l-237 -246h-204z" />
    <glyph glyph-name="AEacute" unicode="&#x1fc;" horiz-adv-x="1743" 
d="M1079 527v-290h599v-237h-896v242h-361l-119 -242h-332l647 1238h1049v-237h-587v-242h513v-232h-513zM782 987l-260 -536h260v536zM651 1326l164 246h276l-237 -246h-203z" />
    <glyph glyph-name="aeacute" unicode="&#x1fd;" horiz-adv-x="1535" 
d="M1375 841q112 -142 102 -436h-612q9 -114 48 -161q40 -49 118 -49q67 0 102 32q36 33 48 86h282q-21 -148 -124 -236t-274 -88q-118 0 -199 39q-80 39 -129 121q-51 -78 -142 -118q-90 -40 -209 -40q-167 0 -260 78q-92 77 -92 216q0 169 138 262q140 95 424 104
q-8 74 -42 100q-36 27 -110 27q-125 -2 -299 -49l-48 184q99 32 186 51q83 18 159 18q116 0 195 -28q75 -26 116 -89q88 118 278 118q232 0 344 -142zM915 731q-39 -47 -50 -160h329q-6 110 -46 159q-41 50 -117 50q-75 0 -116 -49zM552 252q46 43 46 134v83
q-163 -12 -227 -53q-63 -40 -63 -99q0 -48 32 -78t93 -30q73 0 119 43zM697 1065l164 246h276l-237 -246h-203z" />
    <glyph glyph-name="Oslashacute" unicode="&#x1fe;" horiz-adv-x="1243" 
d="M1059 1088q94 -123 94 -361v-212q0 -278 -127 -402t-403 -124q-200 0 -319 62l-74 -101l-126 89l82 111q-96 121 -96 365v212q0 276 128 399t405 123q199 0 318 -62l67 92l126 -89zM387 485q0 -31 2 -55l398 546q-58 50 -164 50q-121 0 -178 -63q-58 -64 -58 -206v-272z
M856 757q0 27 -2 49l-396 -544q58 -50 165 -50q118 0 176 64q57 63 57 209v272zM499 1326l164 246h276l-237 -246h-203z" />
    <glyph glyph-name="oslashacute" unicode="&#x1ff;" horiz-adv-x="1057" 
d="M891 849q108 -125 108 -364q0 -499 -470 -499q-158 0 -264 56l-65 -84l-104 70l70 92q-108 124 -108 365q0 500 471 500q157 0 265 -57l60 78l105 -70zM350 357l297 384q-42 42 -118 42q-100 0 -144 -71q-45 -72 -45 -226q0 -79 10 -129zM671 261q45 72 45 225
q0 66 -9 124l-297 -380q43 -41 119 -41q97 0 142 72zM405 1072l164 246h276l-237 -246h-203z" />
    <glyph glyph-name="uni0218" unicode="&#x218;" horiz-adv-x="1153" 
d="M211 78q-128 92 -128 306q0 3 4 65h281q-2 -18 -2 -42q0 -104 53 -152t163 -48q100 0 150 31q51 32 51 87q0 41 -18 70q-20 31 -71 59q-54 29 -155 62q-187 62 -285 125q-96 61 -129 129t-33 166q0 89 55 160q56 73 165 114q111 42 272 42q267 0 380 -110t104 -309h-276
q6 200 -198 200q-98 0 -147 -29t-49 -83q0 -32 17 -57q16 -24 67 -49q46 -23 148 -56q185 -56 286 -119q99 -62 135 -135q37 -76 37 -180q0 -160 -134 -250q-132 -89 -381 -89q-234 0 -362 92zM467 -405l41 311h221l-85 -311h-177z" />
    <glyph glyph-name="uni0219" unicode="&#x219;" horiz-adv-x="928" 
d="M218 22q-94 33 -135 107q-43 77 -37 202h253q-3 -73 35 -107q40 -35 128 -35q79 0 117 19q36 18 36 59q0 27 -18 46q-16 18 -72 40q-41 16 -161 48q-160 42 -238 117q-75 72 -75 189q0 126 105 201t320 75q206 0 301 -85q97 -86 88 -229h-250q6 120 -153 120
q-144 0 -144 -78q0 -24 21 -42q24 -20 74 -37q56 -19 160 -45q164 -42 237 -115t73 -198q0 -285 -418 -285q-154 0 -247 33zM343 -401l41 311h221l-85 -311h-177z" />
    <glyph glyph-name="uni021A" unicode="&#x21a;" horiz-adv-x="1069" 
d="M1024 1238v-237h-341v-1001h-297v1001h-342v237h980zM393 -391l40 311h221l-85 -311h-176z" />
    <glyph glyph-name="uni021B" unicode="&#x21b;" horiz-adv-x="695" 
d="M656 209v-209h-166q-182 0 -260 69t-78 235v474h-118v195h118v265h283v-265h214v-195h-214v-460q0 -60 25 -85q24 -24 85 -24h111zM336 -391l41 311h221l-85 -311h-177z" />
    <glyph glyph-name="uni0232" unicode="&#x232;" horiz-adv-x="1146" 
d="M573 759l241 479h316l-408 -732v-506h-298v506l-410 732h317zM801 1346h-454v145h454v-145z" />
    <glyph glyph-name="uni0233" unicode="&#x233;" horiz-adv-x="986" 
d="M483 391l221 582h279l-532 -1327h-264l160 400l-349 927h294zM720 1081h-455v145h455v-145z" />
    <glyph glyph-name="uni0237" unicode="&#x237;" horiz-adv-x="495" 
d="M-25 -354v218h27q44 0 63 11q22 13 31 41q8 25 8 86v971h283v-984q0 -131 -28 -205t-93 -106q-66 -32 -181 -32h-110z" />
    <glyph glyph-name="uni0259" unicode="&#x259;" horiz-adv-x="1027" 
d="M853 860q116 -127 116 -372q0 -248 -117 -374t-341 -126q-217 0 -331 128q-115 129 -115 385q0 37 2 67h614q-9 113 -50 165q-40 50 -116 50q-71 0 -111 -33q-39 -32 -50 -90h-278q22 149 133 238q110 89 302 89q226 0 342 -127zM628 241q41 48 53 159h-333
q8 -109 49 -158q42 -49 118 -49q73 0 113 48z" />
    <glyph glyph-name="uni02BC" unicode="&#x2bc;" horiz-adv-x="454" 
d="M78 734l60 504h237v-184l-111 -320h-186z" />
    <glyph glyph-name="circumflex" unicode="&#x2c6;" horiz-adv-x="873" 
d="M168 1144l242 216l244 -216l-115 -108l-129 131l-127 -131z" />
    <glyph glyph-name="caron" unicode="&#x2c7;" horiz-adv-x="873" 
d="M654 1252l-244 -216l-242 216l115 108l127 -131l129 131z" />
    <glyph glyph-name="breve" unicode="&#x2d8;" horiz-adv-x="893" 
d="M672 1293q0 -257 -253 -257q-251 0 -253 257h156q1 -115 97 -115q97 0 97 115h156z" />
    <glyph glyph-name="dotaccent" unicode="&#x2d9;" horiz-adv-x="748" 
d="M267 1088q-30 30 -30 74t30 74t74 30q43 0 73 -30t30 -74t-30 -74t-73 -30q-44 0 -74 30z" />
    <glyph glyph-name="ring" unicode="&#x2da;" horiz-adv-x="822" 
d="M252 1074q-54 50 -54 130q0 84 54 132q55 49 139 49t139 -49q54 -48 54 -132q0 -80 -54 -130q-55 -50 -139 -50t-139 50zM448 1149q22 21 22 55q0 36 -22 55q-23 20 -57 20t-57 -20t-23 -55q0 -34 23 -55q22 -21 57 -21t57 21z" />
    <glyph glyph-name="ogonek" unicode="&#x2db;" horiz-adv-x="742" 
d="M485 -325q-78 -45 -158 -45q-81 0 -131 45q-49 45 -49 120q0 131 171 239l131 -34q-74 -43 -115 -93q-42 -51 -42 -89q0 -31 17 -47q19 -17 50 -17q27 0 81 23z" />
    <glyph glyph-name="tilde" unicode="&#x2dc;" horiz-adv-x="893" 
d="M154 1105q22 60 67 102q43 40 103 40q33 0 62 -13t60 -35q32 -22 39 -26q16 -8 33 -8q27 0 45 18q19 19 35 48l94 -64q-57 -139 -163 -139q-37 0 -64 12q-21 9 -58 34q-20 16 -40 25q-18 8 -36 8q-51 0 -83 -65z" />
    <glyph glyph-name="hungarumlaut" unicode="&#x2dd;" horiz-adv-x="923" 
d="M366 1341h152l-134 -280h-124zM573 1341h152l-134 -280h-126z" />
    <glyph glyph-name="gravecomb" unicode="&#x300;" 
d="M-730 1307h275l165 -246h-203z" />
    <glyph glyph-name="acutecomb" unicode="&#x301;" 
d="M-605 1061l165 246h276l-237 -246h-204z" />
    <glyph glyph-name="uni0302" unicode="&#x302;" 
d="M-654 1144l242 216l244 -216l-115 -108l-129 131l-127 -131z" />
    <glyph glyph-name="tildecomb" unicode="&#x303;" 
d="M-692 1105q21 59 68 102q43 40 102 40q34 0 63 -13q26 -12 59 -35q29 -21 40 -26q16 -8 33 -8q27 0 45 18q17 17 34 48l94 -64q-57 -139 -163 -139q-36 0 -63 12q-24 11 -59 34q-21 17 -39 25t-37 8q-51 0 -83 -65z" />
    <glyph glyph-name="uni0304" unicode="&#x304;" 
d="M-166 1081h-455v145h455v-145z" />
    <glyph glyph-name="uni0306" unicode="&#x306;" 
d="M-170 1293q0 -257 -253 -257q-251 0 -253 257h156q1 -115 97 -115q98 0 98 115h155z" />
    <glyph glyph-name="uni0307" unicode="&#x307;" 
d="M-412 1088q-30 30 -30 74t30 74t74 30q43 0 73 -30t30 -74t-30 -74t-73 -30q-44 0 -74 30z" />
    <glyph glyph-name="uni0308" unicode="&#x308;" 
d="M-675 1088q-29 31 -29 74q0 46 29 75t75 29t75 -29q28 -28 28 -75q0 -46 -29 -75t-74 -29q-46 0 -75 30zM-340 1087q-30 30 -30 75q0 46 29 75t74 29q46 0 75 -29t29 -75t-29 -75t-75 -29q-44 0 -73 29z" />
    <glyph glyph-name="uni030A" unicode="&#x30a;" 
d="M-517 1074q-54 50 -54 130q0 84 54 132q55 49 139 49q83 0 138 -49q54 -48 54 -132q0 -80 -54 -130q-55 -50 -138 -50q-84 0 -139 50zM-321 1149q22 21 22 55q0 36 -22 55q-23 20 -57 20t-57 -20t-23 -55q0 -34 23 -55t57 -21t57 21z" />
    <glyph glyph-name="uni030B" unicode="&#x30b;" 
d="M-688 1341h152l-134 -280h-124zM-481 1341h152l-134 -280h-126z" />
    <glyph glyph-name="uni030C" unicode="&#x30c;" 
d="M-168 1252l-244 -216l-242 216l115 108l127 -131l129 131z" />
    <glyph glyph-name="uni0312" unicode="&#x312;" 
d="M-226 1333l-92 -275h-198l116 275h174z" />
    <glyph glyph-name="uni0326" unicode="&#x326;" 
d="M-628 -391l41 311h221l-85 -311h-177z" />
    <glyph glyph-name="uni0327" unicode="&#x327;" 
d="M-363 -71q184 0 184 -138q0 -63 -49 -102q-50 -39 -147 -39q-102 0 -210 32l28 99q95 -20 163 -20q76 0 76 39q0 26 -34 35q-35 9 -138 8l34 184h120v-15z" />
    <glyph glyph-name="uni0328" unicode="&#x328;" 
d="M-221 -325q-78 -45 -157 -45q-82 0 -131 45q-50 45 -50 120q0 130 172 239l131 -34q-74 -43 -115 -93q-43 -52 -43 -89q0 -30 18 -47q19 -17 49 -17q28 0 82 23z" />
    <glyph glyph-name="uni0335" unicode="&#x335;" 
d="M-615 446v192h615v-192h-615z" />
    <glyph glyph-name="uni0336" unicode="&#x336;" 
d="M-1302 444v179h1302v-179h-1302z" />
    <glyph glyph-name="uni0337" unicode="&#x337;" 
d="M-546 578l546 393v-276l-546 -393v276z" />
    <glyph glyph-name="uni0338" unicode="&#x338;" 
d="M-1042 39l904 1240l126 -89l-904 -1240z" />
    <glyph glyph-name="uni0394" unicode="&#x394;" horiz-adv-x="1209" 
d="M467 1238h274l472 -1238h-1217zM605 943l-267 -734h537z" />
    <glyph glyph-name="uni03A9" unicode="&#x3a9;" horiz-adv-x="1252" 
d="M1183 219v-219h-486v219q83 13 130 83q45 67 45 230v200q0 156 -60 225t-184 69q-126 0 -187 -69q-61 -68 -61 -225v-200q0 -162 45 -230q47 -70 130 -83v-219h-486v219h159q-145 120 -145 379v134q0 268 135 392q136 125 410 125q273 0 407 -125t134 -392v-134
q0 -260 -138 -379h152z" />
    <glyph glyph-name="uni03BC" unicode="&#x3bc;" horiz-adv-x="1174" 
d="M785 973h280v-973h-280v85q-77 -87 -200 -87q-119 0 -196 82v-434h-281v1327h281v-566q0 -94 58 -147t138 -53q82 0 141 53t59 147v566z" />
    <glyph glyph-name="pi" unicode="&#x3c0;" horiz-adv-x="1257" 
d="M1183 764h-170v-460q0 -50 23 -73q22 -22 76 -22h71v-209h-109q-129 0 -201 28q-74 29 -107 92q-34 65 -34 170v474h-244v-764h-283v764h-166v209h1144v-209z" />
    <glyph glyph-name="uni0400" unicode="&#x400;" horiz-adv-x="1096" 
d="M419 527v-290h601v-237h-898v1238h884v-237h-587v-242h515v-232h-515zM256 1570h276l165 -245h-204z" />
    <glyph glyph-name="uni0401" unicode="&#x401;" horiz-adv-x="1096" 
d="M419 527v-290h601v-237h-898v1238h884v-237h-587v-242h515v-232h-515zM325 1351q-30 32 -30 74q0 46 30 76q29 29 75 29q45 0 74 -29q28 -28 28 -76q0 -46 -29 -75t-73 -29q-46 0 -75 30zM659 1350q-29 29 -29 75q0 48 28 76q29 29 74 29q46 0 75 -29q30 -30 30 -76
q0 -45 -30 -75q-29 -29 -75 -29q-44 0 -73 29z" />
    <glyph glyph-name="uni0402" unicode="&#x402;" horiz-adv-x="1448" 
d="M44 1001v237h1090v-237h-451v-235q146 14 261 14q219 0 326 -95q106 -94 109 -282v-16q0 -195 -103 -291q-104 -96 -325 -96h-132v230h76q99 0 143 38t44 110v18q0 78 -46 115t-146 37q-87 0 -207 -12v-536h-297v1001h-342z" />
    <glyph glyph-name="uni0403" unicode="&#x403;" horiz-adv-x="969" 
d="M939 1238v-237h-520v-1001h-297v1238h817zM398 1326l164 246h276l-237 -246h-203z" />
    <glyph glyph-name="uni0404" unicode="&#x404;" horiz-adv-x="1223" 
d="M784 273q54 62 54 199h297q0 -248 -126 -365q-127 -118 -395 -118q-273 0 -398 124q-126 125 -126 402v212q0 276 126 399t398 123q268 0 395 -116q126 -115 126 -364h-297q0 137 -54 197t-170 60t-172 -63q-55 -62 -55 -206v-21h320v-232h-320v-19q0 -148 55 -210
q56 -63 172 -63t170 61z" />
    <glyph glyph-name="uni0405" unicode="&#x405;" horiz-adv-x="1153" 
d="M211 78q-128 92 -128 306q0 3 4 65h281q-2 -18 -2 -42q0 -104 53 -152t163 -48q100 0 150 31q51 32 51 87q0 41 -18 70q-20 31 -71 59q-54 29 -155 62q-187 62 -285 125q-96 61 -129 129t-33 166q0 89 55 160q56 73 165 114q111 42 272 42q267 0 380 -110t104 -309h-276
q6 200 -198 200q-98 0 -147 -29t-49 -83q0 -32 17 -57q16 -24 67 -49q46 -23 148 -56q185 -56 286 -119q99 -62 135 -135q37 -76 37 -180q0 -160 -134 -250q-132 -89 -381 -89q-234 0 -362 92z" />
    <glyph glyph-name="uni0406" unicode="&#x406;" horiz-adv-x="542" 
d="M419 0h-297v1238h297v-1238z" />
    <glyph glyph-name="uni0407" unicode="&#x407;" horiz-adv-x="542" 
d="M419 0h-297v1238h297v-1238zM29 1353q-29 31 -29 74q0 46 29 75q30 30 75 30t75 -30q28 -28 28 -75q0 -46 -29 -75t-74 -29q-46 0 -75 30zM363 1352q-29 29 -29 75t29 75q30 30 74 30q45 0 75 -30q29 -29 29 -75t-29 -75t-75 -29q-45 0 -74 29z" />
    <glyph glyph-name="uni0408" unicode="&#x408;" horiz-adv-x="687" 
d="M34 0v237h120q66 0 93 32q27 31 27 108v861h297v-895q0 -130 -32 -203t-110 -107q-77 -33 -215 -33h-180z" />
    <glyph glyph-name="uni0409" unicode="&#x409;" horiz-adv-x="1869" 
d="M1360 868q228 0 333 -106q106 -108 106 -329q0 -219 -106 -327q-105 -106 -333 -106h-513v1001h-334l-4 -325q-3 -261 -41 -409q-37 -144 -125 -206q-86 -61 -244 -61h-74l-2 267h28q66 0 98 31q33 32 48 117q16 92 19 257l7 566h921v-370h216zM1295 230q113 0 160 49
t47 154q0 106 -47 155t-160 49h-151v-407h151z" />
    <glyph glyph-name="uni040A" unicode="&#x40a;" horiz-adv-x="1902" 
d="M1378 801q230 0 342 -100t112 -305q0 -204 -111 -300t-343 -96h-503v562h-456v-562h-297v1238h297v-437h456v437h298v-437h205zM1342 233q103 0 148 39t45 124t-46 127q-48 43 -147 43h-169v-333h169z" />
    <glyph glyph-name="uni040B" unicode="&#x40b;" horiz-adv-x="1448" 
d="M1274 683q105 -98 105 -290v-393h-297v347q0 113 -47 157t-151 44q-86 0 -201 -21v-527h-297v1001h-342v237h1120v-237h-481v-248q154 27 265 27q222 0 326 -97z" />
    <glyph glyph-name="uni040C" unicode="&#x40c;" horiz-adv-x="1133" 
d="M1139 0h-322l-279 513h-119v-513h-297v1238h297v-478h119l249 478h320l-334 -598zM474 1326l164 246h276l-237 -246h-203z" />
    <glyph glyph-name="uni040D" unicode="&#x40d;" horiz-adv-x="1298" 
d="M416 456l467 782h293v-1238h-293v782l-467 -782h-294v1238h294v-782zM336 1572h276l164 -246h-203z" />
    <glyph glyph-name="uni040E" unicode="&#x40e;" horiz-adv-x="1133" 
d="M812 1238h313l-405 -960q-61 -147 -150 -213q-88 -65 -239 -65h-168v239h108q64 0 102 13q40 14 66 43l-432 943h311l260 -608zM893 1586q-1 -101 -31 -166q-28 -63 -102 -95q-73 -32 -198 -32q-126 0 -199 32q-71 31 -100 95q-30 65 -31 166h235q1 -54 23 -80
q21 -26 72 -26q52 0 73 25q22 26 23 81h235z" />
    <glyph glyph-name="uni040F" unicode="&#x40f;" horiz-adv-x="1280" 
d="M860 237v1001h297v-1238h-375v-255h-283v255h-377v1238h297v-1001h441z" />
    <glyph glyph-name="uni0410" unicode="&#x410;" horiz-adv-x="1176" 
d="M1181 0h-323l-71 244h-396l-71 -244h-324l448 1238h288zM589 937l-136 -477h272z" />
    <glyph glyph-name="uni0411" unicode="&#x411;" horiz-adv-x="1188" 
d="M692 773q219 0 324 -97q104 -96 104 -289q0 -195 -104 -291t-324 -96h-570v1238h902v-237h-605v-228h273zM635 230q100 0 144 38q43 37 43 119t-43 119t-144 37h-216v-313h216z" />
    <glyph glyph-name="uni0412" unicode="&#x412;" horiz-adv-x="1202" 
d="M1083 540q45 -74 45 -192q0 -175 -104 -261q-105 -87 -306 -87h-596v1238h580q196 0 299 -86t103 -246q0 -93 -38 -161q-37 -67 -104 -99q75 -31 121 -106zM776 974q-37 31 -113 31h-251v-262h255q72 0 109 32q36 31 36 102q0 67 -36 97zM667 233q86 0 127 35t41 112
t-41 110q-40 33 -127 33h-255v-290h255z" />
    <glyph glyph-name="uni0413" unicode="&#x413;" horiz-adv-x="969" 
d="M939 1238v-237h-520v-1001h-297v1238h817z" />
    <glyph glyph-name="uni0414" unicode="&#x414;" horiz-adv-x="1335" 
d="M1162 237h138v-492h-283v255h-713v-255h-283v492h53q63 0 95 31q34 32 47 117q14 89 17 257l9 596h920v-1001zM865 237v764h-333l-3 -329q-3 -289 -50 -435h386z" />
    <glyph glyph-name="uni0415" unicode="&#x415;" horiz-adv-x="1096" 
d="M419 527v-290h601v-237h-898v1238h884v-237h-587v-242h515v-232h-515z" />
    <glyph glyph-name="uni0416" unicode="&#x416;" horiz-adv-x="1719" 
d="M1724 0h-323l-274 511h-119v-511h-297v511h-119l-274 -511h-323l364 640l-332 598h323l248 -476h113v476h297v-476h113l248 476h324l-333 -598z" />
    <glyph glyph-name="uni0417" unicode="&#x417;" horiz-adv-x="1183" 
d="M1060 535q45 -75 45 -192q0 -352 -486 -352h-76q-227 0 -349 93q-121 93 -121 261v55h282v-22q0 -75 50 -113q49 -37 138 -37h81q91 0 142 34q49 33 49 109t-42 112q-41 35 -135 35h-169v225h173q80 0 116 33t36 103q0 65 -45 98t-125 33h-97q-80 0 -125 -36t-45 -102
v-23h-279v49q0 166 117 257q118 92 332 92h97q225 0 341 -89q117 -90 117 -252q0 -98 -37 -165q-38 -68 -104 -99q73 -31 119 -107z" />
    <glyph glyph-name="uni0418" unicode="&#x418;" horiz-adv-x="1298" 
d="M416 456l467 782h293v-1238h-293v782l-467 -782h-294v1238h294v-782z" />
    <glyph glyph-name="uni0419" unicode="&#x419;" horiz-adv-x="1298" 
d="M416 456l467 782h293v-1238h-293v782l-467 -782h-294v1238h294v-782zM974 1586q-2 -103 -30 -166t-102 -95q-73 -32 -198 -32q-126 0 -199 32q-72 32 -101 95q-30 65 -31 166h235q1 -54 23 -80q21 -26 73 -26q51 0 72 25q22 26 23 81h235z" />
    <glyph glyph-name="uni041A" unicode="&#x41a;" horiz-adv-x="1133" 
d="M1139 0h-322l-279 513h-119v-513h-297v1238h297v-478h119l249 478h320l-334 -598z" />
    <glyph glyph-name="uni041B" unicode="&#x41b;" horiz-adv-x="1266" 
d="M1144 0h-297v1001h-334l-4 -325q-3 -261 -41 -409q-37 -144 -125 -206q-86 -61 -244 -61h-74l-2 267h28q66 0 98 31q33 32 48 117q16 92 19 257l7 566h921v-1238z" />
    <glyph glyph-name="uni041C" unicode="&#x41c;" horiz-adv-x="1612" 
d="M806 529l282 709h401v-1238h-281v883l-280 -706h-244l-279 706v-883h-283v1238h403z" />
    <glyph glyph-name="uni041D" unicode="&#x41d;" horiz-adv-x="1296" 
d="M875 762v476h298v-1238h-298v525h-456v-525h-297v1238h297v-476h456z" />
    <glyph glyph-name="uni041E" unicode="&#x41e;" horiz-adv-x="1243" 
d="M218 113q-128 125 -128 402v212q0 276 128 399t405 123q275 0 403 -123q127 -123 127 -399v-212q0 -278 -127 -402t-403 -124q-278 0 -405 124zM799 276q57 63 57 209v272q0 143 -57 206t-176 63q-121 0 -178 -63q-58 -64 -58 -206v-272q0 -145 58 -209t178 -64
q118 0 176 64z" />
    <glyph glyph-name="uni041F" unicode="&#x41f;" horiz-adv-x="1285" 
d="M1162 1238v-1238h-297v1001h-446v-1001h-297v1238h1040z" />
    <glyph glyph-name="uni0420" unicode="&#x420;" horiz-adv-x="1146" 
d="M970 1131q105 -107 105 -337q0 -228 -105 -335t-333 -107h-216l-2 -352h-297v1238h515q228 0 333 -107zM571 582q114 0 160 50q47 52 47 162q0 112 -47 164q-46 50 -160 50h-147l-1 -426h148z" />
    <glyph glyph-name="uni0421" unicode="&#x421;" horiz-adv-x="1215" 
d="M216 113q-126 125 -126 402v212q0 276 126 399t398 123q268 0 395 -116q126 -115 126 -364h-297q0 137 -54 197t-170 60t-172 -63q-55 -62 -55 -206v-272q0 -148 55 -210q56 -63 172 -63t170 61q54 62 54 199h297q0 -248 -126 -365q-127 -118 -395 -118q-273 0 -398 124z
" />
    <glyph glyph-name="uni0422" unicode="&#x422;" horiz-adv-x="1069" 
d="M1024 1238v-237h-341v-1001h-297v1001h-342v237h980z" />
    <glyph glyph-name="uni0423" unicode="&#x423;" horiz-adv-x="1133" 
d="M812 1238h313l-405 -960q-61 -147 -150 -213q-88 -65 -239 -65h-168v239h108q64 0 102 13q40 14 66 43l-432 943h311l260 -608z" />
    <glyph glyph-name="uni0424" unicode="&#x424;" horiz-adv-x="1724" 
d="M1012 1197q317 -1 478 -132q160 -130 160 -407v-71q0 -280 -160 -410q-162 -132 -478 -133v-132h-297v132q-317 1 -479 133q-160 130 -160 410v71q0 277 160 407t479 132v129h297v-129zM373 587q0 -165 82 -241q84 -78 260 -79v706q-177 -1 -260 -77q-82 -75 -82 -236
v-73zM1353 660q0 161 -81 236q-82 76 -260 77v-706q178 1 260 79q81 76 81 241v73z" />
    <glyph glyph-name="uni0425" unicode="&#x425;" horiz-adv-x="1170" 
d="M755 658l409 -658h-333l-246 446l-245 -446h-333l409 658l-359 580h332l196 -366l197 366h332z" />
    <glyph glyph-name="uni0426" unicode="&#x426;" horiz-adv-x="1331" 
d="M1013 0h-891v1238h297v-1001h441v1001h297v-1001h139v-492h-283v255z" />
    <glyph glyph-name="uni0427" unicode="&#x427;" horiz-adv-x="1177" 
d="M759 1238h297v-1238h-297v442q-120 -18 -214 -18q-251 0 -365 106q-113 105 -113 333v375h297v-368q0 -105 52 -154q50 -47 168 -47q79 0 175 12v557z" />
    <glyph glyph-name="uni0428" unicode="&#x428;" horiz-adv-x="1901" 
d="M1482 237v1001h297v-1238h-1657v1238h297v-1001h384v1001h297v-1001h382z" />
    <glyph glyph-name="uni0429" unicode="&#x429;" horiz-adv-x="1966" 
d="M1650 0h-1528v1238h297v-1001h384v1001h297v-1001h382v1001h297v-1001h152v-492h-281v255z" />
    <glyph glyph-name="uni042A" unicode="&#x42a;" horiz-adv-x="1397" 
d="M883 868q230 0 336 -106q107 -107 107 -329q0 -220 -107 -327q-106 -106 -336 -106h-512v1001h-327v237h625v-370h214zM817 230q116 0 164 49t48 154q0 107 -48 155q-49 49 -164 49h-148v-407h148z" />
    <glyph glyph-name="uni042B" unicode="&#x42b;" horiz-adv-x="1642" 
d="M633 868q233 0 339 -106q107 -107 107 -329q0 -221 -108 -327q-107 -106 -338 -106h-511v1238h297v-370h214zM1224 0v1238h297v-1238h-297zM569 230q116 0 164 49q49 51 49 154q0 106 -49 155t-164 49h-150v-407h150z" />
    <glyph glyph-name="uni042C" unicode="&#x42c;" horiz-adv-x="1149" 
d="M633 868q233 0 339 -106q107 -107 107 -329q0 -221 -108 -327q-107 -106 -338 -106h-511v1238h297v-370h214zM569 230q116 0 164 49q49 51 49 154q0 106 -49 155t-164 49h-150v-407h150z" />
    <glyph glyph-name="uni042D" unicode="&#x42d;" horiz-adv-x="1222" 
d="M1007 1126q125 -123 125 -399v-212q0 -277 -125 -402q-124 -124 -399 -124q-268 0 -394 117t-126 366h298q0 -139 53 -199q54 -61 169 -61q116 0 172 63q55 62 55 210v19h-320v232h320v21q0 144 -55 206q-56 63 -172 63q-115 0 -169 -61q-53 -60 -53 -196h-298
q0 249 126 364q127 116 394 116q274 0 399 -123z" />
    <glyph glyph-name="uni042E" unicode="&#x42e;" horiz-adv-x="1757" 
d="M1540 1126q126 -123 126 -399v-212q0 -277 -126 -402q-125 -124 -403 -124q-274 0 -402 122q-129 122 -130 391h-186v-502h-297v1238h297v-493h186q3 265 132 385q128 119 400 119q277 0 403 -123zM1369 757q0 142 -56 206q-55 63 -176 63t-178 -63t-57 -206v-272
q0 -147 57 -210t178 -63t176 63q56 64 56 210v272z" />
    <glyph glyph-name="uni042F" unicode="&#x42f;" horiz-adv-x="1137" 
d="M1013 0h-297v410h-150l-216 -410h-320l246 449q-203 85 -203 380q0 209 102 309q101 100 326 100h512v-1238zM716 640v368h-143q-110 0 -156 -43t-46 -136q0 -92 47 -141q46 -48 155 -48h143z" />
    <glyph glyph-name="uni0430" unicode="&#x430;" horiz-adv-x="970" 
d="M722 947q78 -34 116 -114q37 -78 37 -218v-615h-272v96q-93 -105 -256 -105q-138 0 -224 80t-86 214q0 170 139 264q140 95 425 102q-8 74 -42 100q-36 27 -112 27q-124 -1 -298 -49l-46 184q89 29 203 49q112 20 203 20q132 0 213 -35zM557 252q46 43 46 134v83
q-163 -12 -227 -53q-63 -40 -63 -99q0 -48 32 -78q31 -30 94 -30q72 0 118 43z" />
    <glyph glyph-name="uni0431" unicode="&#x431;" horiz-adv-x="1064" 
d="M896 777q110 -111 110 -326q0 -226 -118 -345q-118 -120 -352 -120q-240 0 -359 135q-119 136 -119 424q0 305 91 463q92 160 309 200l99 19q97 18 132 35q33 16 36 50l2 14h228l-2 -23q-8 -92 -40 -148t-99 -89q-68 -34 -177 -53l-103 -19q-124 -22 -182 -80
q-57 -57 -69 -175q91 151 318 151q184 0 295 -113zM677 254q48 64 48 183q0 126 -47 188q-46 61 -142 61t-142 -61q-47 -62 -47 -188q0 -120 47 -183q48 -65 142 -65q93 0 141 65z" />
    <glyph glyph-name="uni0432" unicode="&#x432;" horiz-adv-x="1034" 
d="M936 408q40 -56 40 -139q0 -147 -93 -208q-92 -61 -260 -61h-513l-2 973h509q165 0 251 -74q85 -73 85 -209q0 -73 -33 -127q-33 -53 -96 -75q71 -23 112 -80zM391 780v-203h140q76 0 107 24q32 25 32 76q0 53 -33 78q-32 25 -110 25h-136zM534 193q142 0 142 104
q0 50 -35 79t-105 29h-143v-212h141z" />
    <glyph glyph-name="uni0433" unicode="&#x433;" horiz-adv-x="843" 
d="M393 0h-283l-2 973h718v-237h-435z" />
    <glyph glyph-name="uni0434" unicode="&#x434;" horiz-adv-x="1167" 
d="M11 -209v437h53q44 0 67 17q22 16 34 68q12 51 15 159l18 501h824v-745h126v-437h-283v209h-571v-209h-283zM739 228v517h-263l-9 -276q-6 -165 -34 -241h306z" />
    <glyph glyph-name="uni0435" unicode="&#x435;" horiz-adv-x="1027" 
d="M848 857q114 -127 114 -385q0 -37 -2 -67h-613q9 -115 49 -165q40 -51 117 -51q68 0 110 34q41 33 51 90h277q-23 -151 -132 -239t-303 -88q-226 0 -342 126q-116 127 -116 373q0 247 118 374q117 126 340 126q218 0 332 -128zM400 731q-41 -49 -53 -158h332
q-8 108 -49 157q-42 50 -117 50q-72 0 -113 -49z" />
    <glyph glyph-name="uni0436" unicode="&#x436;" horiz-adv-x="1512" 
d="M1514 0h-295l-218 380h-104v-380h-282v380h-104l-217 -380h-296l292 497l-258 476h295l184 -354h104v354h282v-354h104l184 354h295l-258 -476z" />
    <glyph glyph-name="uni0437" unicode="&#x437;" horiz-adv-x="1013" 
d="M918 413q37 -55 37 -142q0 -134 -105 -209q-104 -74 -341 -74h-12q-239 0 -339 78t-100 240v30h280v-14q0 -129 159 -129h7q157 0 157 104t-143 104h-95v174h92q76 0 108 25q33 26 33 76q0 52 -38 81q-37 28 -110 28h-9q-78 0 -119 -31q-42 -32 -42 -91v-12h-280v21
q0 313 435 313h16q430 0 430 -295q0 -74 -33 -126q-34 -54 -94 -76q68 -19 106 -75z" />
    <glyph glyph-name="uni0438" unicode="&#x438;" horiz-adv-x="1107" 
d="M999 973v-973h-283v545l-322 -545h-284l-2 973h283l2 -547l322 547h284z" />
    <glyph glyph-name="uni0439" unicode="&#x439;" horiz-adv-x="1107" 
d="M365 1070q-68 30 -95 90q-28 61 -29 158h222q2 -54 22 -77q21 -24 69 -24t69 24q22 25 23 77h222q-2 -146 -69 -212t-245 -66q-122 0 -189 30zM999 973v-973h-283v545l-322 -545h-284l-2 973h283l2 -547l321 547h285z" />
    <glyph glyph-name="uni043A" unicode="&#x43a;" horiz-adv-x="1006" 
d="M1008 0h-311l-207 380h-99v-380h-283v973h283v-354h97l175 354h311l-261 -476z" />
    <glyph glyph-name="uni043B" unicode="&#x43b;" horiz-adv-x="1119" 
d="M1012 0h-283v745h-269l-7 -276q-6 -199 -37 -295q-32 -99 -101 -136q-71 -38 -209 -38h-74v246h18q44 0 69 17t37 69q13 55 14 158l12 483h830v-973z" />
    <glyph glyph-name="uni043C" unicode="&#x43c;" horiz-adv-x="1444" 
d="M1337 973v-973h-274v670l-219 -670h-241l-219 695l2 -695h-276l-2 973h430l189 -600l196 600h414z" />
    <glyph glyph-name="uni043D" unicode="&#x43d;" horiz-adv-x="1101" 
d="M711 603v370h283v-973h-283v377h-318v-377h-283l-2 973h283v-370h320z" />
    <glyph glyph-name="uni043E" unicode="&#x43e;" horiz-adv-x="1057" 
d="M58 485q0 500 471 500q470 0 470 -500q0 -499 -470 -499q-471 0 -471 499zM671 261q45 72 45 225q0 154 -45 226q-44 71 -142 71q-100 0 -144 -71q-45 -72 -45 -226q0 -153 45 -225t144 -72q97 0 142 72z" />
    <glyph glyph-name="uni043F" unicode="&#x43f;" horiz-adv-x="1105" 
d="M997 973v-973h-282v745h-324l2 -745h-283l-2 973h889z" />
    <glyph glyph-name="uni0440" unicode="&#x440;" horiz-adv-x="1094" 
d="M1038 486q0 -493 -403 -493q-73 0 -136 21q-64 22 -108 62v-430h-283v1327h283v-78q43 40 107 63q62 22 137 22q403 0 403 -494zM710 262q45 72 45 224q0 153 -45 225t-142 72q-98 0 -144 -73t-46 -224q0 -150 46 -223q47 -74 144 -74q96 0 142 73z" />
    <glyph glyph-name="uni0441" unicode="&#x441;" horiz-adv-x="1008" 
d="M58 485q0 498 450 498q201 0 315 -96q115 -96 128 -282h-281q-21 175 -162 175q-89 0 -129 -70q-39 -68 -39 -225t39 -222q41 -68 129 -68q141 0 162 175h281q-13 -185 -128 -283t-315 -98q-450 0 -450 496z" />
    <glyph glyph-name="uni0442" unicode="&#x442;" horiz-adv-x="894" 
d="M867 973v-237h-278l2 -736h-283l-2 736h-278v237h839z" />
    <glyph glyph-name="uni0443" unicode="&#x443;" horiz-adv-x="986" 
d="M483 391l221 582h279l-532 -1327h-264l160 400l-349 927h294z" />
    <glyph glyph-name="uni0444" unicode="&#x444;" horiz-adv-x="1669" 
d="M1611 486q0 -493 -394 -493q-75 0 -135 22q-62 23 -106 65v-434h-283v434q-44 -42 -106 -65q-60 -22 -134 -22q-395 0 -395 493q0 494 395 494q73 0 136 -23q60 -22 104 -66v435h283v-436q43 44 105 67q63 23 136 23q394 0 394 -494zM650 263q43 73 43 223q0 151 -43 224
t-134 73q-90 0 -133 -73t-43 -224q0 -150 43 -223q44 -74 133 -74q90 0 134 74zM1287 263q43 73 43 223q0 151 -43 224t-134 73q-177 0 -177 -297t177 -297q90 0 134 74z" />
    <glyph glyph-name="uni0445" unicode="&#x445;" horiz-adv-x="1006" 
d="M669 513l334 -513h-313l-186 332l-186 -332h-313l338 513l-302 460h311l152 -271l152 271h311z" />
    <glyph glyph-name="uni0446" unicode="&#x446;" horiz-adv-x="1158" 
d="M1132 -209h-281v209h-743l2 973h283l-2 -745h334v745h283v-745h124v-437z" />
    <glyph glyph-name="uni0447" unicode="&#x447;" horiz-adv-x="1036" 
d="M646 973h283l-2 -973h-283v325q-84 -17 -186 -17q-140 0 -226 40q-88 41 -129 128q-41 86 -41 239v258h283v-257q0 -72 16 -108q18 -40 50 -54q34 -15 97 -15q58 0 138 20v414z" />
    <glyph glyph-name="uni0448" unicode="&#x448;" horiz-adv-x="1628" 
d="M1238 228v745h283v-973h-1413l2 973h283l-2 -745h283v745h283v-745h281z" />
    <glyph glyph-name="uni0449" unicode="&#x449;" horiz-adv-x="1669" 
d="M1643 -209h-281v209h-1254l2 973h283l-2 -745h283v745h283v-745h281v745h283v-745h122v-437z" />
    <glyph glyph-name="uni044A" unicode="&#x44a;" horiz-adv-x="1183" 
d="M750 702q200 0 294 -87q95 -87 95 -256q0 -182 -94 -271q-92 -88 -295 -88h-455v736h-267v237h550v-271h172zM683 200q91 0 132 36t41 114q0 76 -42 114q-43 38 -131 38h-105v-302h105z" />
    <glyph glyph-name="uni044B" unicode="&#x44b;" horiz-adv-x="1476" 
d="M562 702q201 0 294 -87q94 -88 94 -256q0 -183 -93 -271q-92 -88 -295 -88h-454v973h283v-271h171zM1072 0v973h297v-973h-297zM495 200q93 0 133 36q41 36 41 114q0 76 -42 114q-43 38 -132 38h-104v-302h104z" />
    <glyph glyph-name="uni044C" unicode="&#x44c;" horiz-adv-x="995" 
d="M562 702q201 0 294 -87q94 -88 94 -256q0 -183 -93 -271q-92 -88 -295 -88h-454v973h283v-271h171zM495 200q93 0 133 36q41 36 41 114q0 76 -42 114q-43 38 -132 38h-104v-302h104z" />
    <glyph glyph-name="uni044D" unicode="&#x44d;" horiz-adv-x="1004" 
d="M946 485q0 -496 -447 -496q-206 0 -321 88q-115 87 -125 252h285q21 -134 161 -134q157 0 166 201h-320v181h320q-10 203 -166 203q-133 0 -159 -133h-285q17 169 131 252q115 84 313 84q447 0 447 -498z" />
    <glyph glyph-name="uni044E" unicode="&#x44e;" horiz-adv-x="1538" 
d="M1482 485q0 -499 -472 -499q-416 0 -464 389h-141v-375h-297v973h297v-370h141q52 382 464 382q472 0 472 -500zM1154 261q45 72 45 225q0 154 -45 226q-44 71 -144 71t-143 -71q-45 -74 -45 -226q0 -151 45 -225q43 -72 143 -72q99 0 144 72z" />
    <glyph glyph-name="uni044F" unicode="&#x44f;" horiz-adv-x="1013" 
d="M904 0h-281v306h-119l-140 -306h-307l176 343q-164 69 -164 290q0 177 93 258q94 82 298 82h444v-973zM623 506v267h-103q-91 0 -131 -29q-39 -28 -39 -102q0 -72 39 -104q40 -32 131 -32h103z" />
    <glyph glyph-name="uni0450" unicode="&#x450;" horiz-adv-x="1027" 
d="M848 857q114 -127 114 -385q0 -37 -2 -67h-613q9 -115 49 -165q40 -51 117 -51q68 0 110 34q41 33 51 90h277q-23 -151 -132 -239t-303 -88q-226 0 -342 126q-116 127 -116 373q0 247 118 374q117 126 340 126q218 0 332 -128zM400 731q-41 -49 -53 -158h332
q-8 108 -49 157q-42 50 -117 50q-72 0 -113 -49zM207 1307h276l164 -246h-203z" />
    <glyph glyph-name="uni0451" unicode="&#x451;" horiz-adv-x="1027" 
d="M848 857q114 -127 114 -385q0 -37 -2 -67h-613q9 -115 49 -165q40 -51 117 -51q68 0 110 34q41 33 51 90h277q-23 -151 -132 -239t-303 -88q-226 0 -342 126q-116 127 -116 373q0 247 118 374q117 126 340 126q218 0 332 -128zM400 731q-41 -49 -53 -158h332
q-8 108 -49 157q-42 50 -117 50q-72 0 -113 -49zM273 1088q-29 31 -29 74q0 46 29 75t75 29t75 -29q28 -28 28 -75q0 -46 -29 -75t-74 -29q-46 0 -75 30zM608 1087q-30 30 -30 75q0 46 29 75t74 29q46 0 75 -29t29 -75t-29 -75t-75 -29q-44 0 -73 29z" />
    <glyph glyph-name="uni0452" unicode="&#x452;" horiz-adv-x="1101" 
d="M909 878q97 -101 97 -296v-609q-1 -124 -30 -195q-28 -69 -93 -101q-63 -31 -179 -31h-112v218h29q44 0 63 11q22 13 31 41q8 25 8 86v580q0 189 -164 189q-168 0 -168 -203v-568h-283v1043h-113v195h113v88h283v-88h219v-195h-219v-150q81 87 230 87q191 0 288 -102z
" />
    <glyph glyph-name="uni0453" unicode="&#x453;" horiz-adv-x="843" 
d="M393 0h-283l-2 973h718v-237h-435zM331 1061l164 246h276l-237 -246h-203z" />
    <glyph glyph-name="uni0454" unicode="&#x454;" horiz-adv-x="1004" 
d="M951 329q-11 -165 -124 -252q-115 -88 -321 -88q-448 0 -448 496q0 498 448 498q198 0 313 -84q114 -83 131 -252h-285q-26 133 -159 133q-156 0 -166 -203h320v-181h-320q9 -201 166 -201q140 0 161 134h284z" />
    <glyph glyph-name="uni0455" unicode="&#x455;" horiz-adv-x="928" 
d="M218 22q-94 33 -135 107q-43 77 -37 202h253q-3 -73 35 -107q40 -35 128 -35q79 0 117 19q36 18 36 59q0 27 -18 46q-16 18 -72 40q-41 16 -161 48q-160 42 -238 117q-75 72 -75 189q0 126 105 201t320 75q206 0 301 -85q97 -86 88 -229h-250q6 120 -153 120
q-144 0 -144 -78q0 -24 21 -42q24 -20 74 -37q56 -19 160 -45q164 -42 237 -115t73 -198q0 -285 -418 -285q-154 0 -247 33z" />
    <glyph glyph-name="uni0456" unicode="&#x456;" horiz-adv-x="498" 
d="M391 1291v-219h-283v219h283zM108 973h283v-973h-283v973z" />
    <glyph glyph-name="uni0457" unicode="&#x457;" horiz-adv-x="512" 
d="M108 973h297v-973h-297v973zM15 1088q-29 31 -29 74q0 46 29 75t75 29q45 0 74 -29t29 -75t-29 -75t-74 -29q-46 0 -75 30zM349 1087q-29 29 -29 75q0 47 28 75q29 29 75 29t75 -29t29 -75t-29 -75t-75 -29q-45 0 -74 29z" />
    <glyph glyph-name="uni0458" unicode="&#x458;" horiz-adv-x="521" 
d="M414 1072h-283v219h283v-219zM0 -354v218h28q45 0 64 11q21 12 30 41t9 86v971h283v-984q0 -131 -28 -205t-93 -106q-66 -32 -182 -32h-111z" />
    <glyph glyph-name="uni0459" unicode="&#x459;" horiz-adv-x="1630" 
d="M1197 702q201 0 294 -87q94 -88 94 -256q0 -183 -93 -271q-92 -88 -295 -88h-468v745h-269l-7 -276q-6 -199 -37 -295q-32 -99 -101 -136q-71 -38 -209 -38h-74v246h18q44 0 69 17t37 69q13 55 14 158l12 483h830v-271h185zM1130 200q92 0 133 36q40 36 40 114
q0 77 -41 114q-43 38 -132 38h-118v-302h118z" />
    <glyph glyph-name="uni045A" unicode="&#x45a;" horiz-adv-x="1607" 
d="M1176 642q201 -3 295 -80q92 -76 92 -237q0 -170 -92 -247q-93 -78 -295 -78h-465v414h-318v-414h-283l-2 973h283v-331h320v331h283v-331h182zM1107 200q95 0 134 26t39 91t-40 93q-41 29 -133 29h-113v-239h113z" />
    <glyph glyph-name="uni045B" unicode="&#x45b;" horiz-adv-x="1101" 
d="M909 878q97 -101 97 -296v-582h-283v582q0 189 -164 189q-168 0 -168 -203v-568h-283v1045h-113v193h113v88h283v-88h219v-193h-219v-132q88 67 230 67q191 0 288 -102z" />
    <glyph glyph-name="uni045C" unicode="&#x45c;" horiz-adv-x="1006" 
d="M1008 0h-311l-207 380h-99v-380h-283v973h283v-354h97l175 354h311l-261 -476zM384 1061l164 246h276l-237 -246h-203z" />
    <glyph glyph-name="uni045D" unicode="&#x45d;" horiz-adv-x="1107" 
d="M999 973v-973h-283v545l-322 -545h-284l-2 973h283l2 -547l322 547h284zM246 1321h276l164 -246h-203z" />
    <glyph glyph-name="uni045E" unicode="&#x45e;" horiz-adv-x="986" 
d="M483 391l221 582h279l-532 -1327h-264l160 400l-349 927h294zM822 1321q-1 -101 -31 -166q-29 -65 -101 -96q-71 -31 -198 -31q-128 0 -199 31q-72 31 -101 96q-30 65 -31 166h235q1 -54 23 -80q21 -26 73 -26q51 0 72 25q22 26 23 81h235z" />
    <glyph glyph-name="uni045F" unicode="&#x45f;" horiz-adv-x="1115" 
d="M725 228v745h283v-973h-308v-209h-283v209h-309l2 973h283v-745h332z" />
    <glyph glyph-name="uni0462" unicode="&#x462;" horiz-adv-x="1303" 
d="M806 760q202 0 314 -91q113 -92 113 -289t-113 -289q-112 -91 -314 -91h-539v891h-223v200h223v147h297v-147h364v-200h-364v-131h242zM755 230q83 0 127 38q43 37 43 112q0 76 -43 113q-44 38 -127 38h-191v-301h191z" />
    <glyph glyph-name="uni0463" unicode="&#x463;" horiz-adv-x="1144" 
d="M711 702q199 0 294 -87t95 -256q0 -182 -94 -271q-92 -88 -295 -88h-455v868h-261v221h261v237h283v-237h338v-221h-338v-166h172zM644 200q92 0 132 36q41 36 41 114q0 77 -41 114q-43 38 -132 38h-105v-302h105z" />
    <glyph glyph-name="uni0490" unicode="&#x490;" horiz-adv-x="969" 
d="M656 1238v241h283v-478h-520v-1001h-297v1238h534z" />
    <glyph glyph-name="uni0491" unicode="&#x491;" horiz-adv-x="843" 
d="M393 0h-283l-2 973h435v208h283v-445h-435z" />
    <glyph glyph-name="uni04C1" unicode="&#x4c1;" horiz-adv-x="1719" 
d="M1724 0h-323l-274 511h-119v-511h-297v511h-119l-274 -511h-323l364 640l-332 598h323l248 -476h113v476h297v-476h113l248 476h324l-333 -598zM1190 1586q-1 -101 -31 -166q-29 -63 -101 -95q-73 -32 -198 -32q-126 0 -199 32q-72 32 -101 95q-30 65 -31 166h235
q1 -54 23 -80q21 -26 73 -26q51 0 72 25q22 26 23 81h235z" />
    <glyph glyph-name="uni04C2" unicode="&#x4c2;" horiz-adv-x="1512" 
d="M1514 0h-295l-218 380h-104v-380h-282v380h-104l-217 -380h-296l292 497l-258 476h295l184 -354h104v354h282v-354h104l184 354h295l-258 -476zM1086 1321q-1 -101 -31 -166q-29 -64 -102 -96q-71 -31 -198 -31q-128 0 -199 31q-72 31 -101 96q-30 65 -31 166h236
q1 -54 23 -80q21 -26 72 -26q52 0 73 25q22 26 23 81h235z" />
    <glyph glyph-name="uni04F8" unicode="&#x4f8;" horiz-adv-x="1642" 
d="M633 868q233 0 339 -106q107 -107 107 -329q0 -221 -108 -327q-107 -106 -338 -106h-511v1238h297v-370h214zM1224 0v1238h297v-1238h-297zM569 230q116 0 164 49q49 51 49 154q0 106 -49 155t-164 49h-150v-407h150zM570 1353q-29 31 -29 74q0 46 29 75q30 30 76 30
q44 0 74 -30q28 -28 28 -75q0 -46 -29 -75t-73 -29q-48 0 -76 30zM905 1352q-30 30 -30 75q0 46 29 75q30 30 74 30q45 0 75 -30q29 -29 29 -75t-29 -75t-75 -29q-44 0 -73 29z" />
    <glyph glyph-name="uni04F9" unicode="&#x4f9;" horiz-adv-x="1476" 
d="M562 702q201 0 294 -87q94 -88 94 -256q0 -183 -93 -271q-92 -88 -295 -88h-454v973h283v-271h171zM1072 0v973h297v-973h-297zM495 200q93 0 133 36q41 36 41 114q0 76 -42 114q-43 38 -132 38h-104v-302h104zM485 1088q-29 31 -29 74q0 46 29 75t76 29q45 0 74 -29
q28 -28 28 -75q0 -46 -29 -75t-73 -29q-47 0 -76 30zM820 1087q-29 29 -29 75q0 47 28 75q29 29 74 29q46 0 75 -29t29 -75t-29 -75t-75 -29q-44 0 -73 29z" />
    <glyph glyph-name="uni05B0" unicode="&#x5b0;" 
d="M470 -258q-26 26 -26 62q0 34 26 60q25 25 61 25t61 -25t25 -60q0 -37 -25 -62t-61 -25t-61 25zM470 -502q-26 26 -26 60q0 36 26 62q25 25 61 25t61 -25t25 -62q0 -35 -25 -60t-61 -25t-61 25z" />
    <glyph glyph-name="uni05B1" unicode="&#x5b1;" 
d="M703 -258q-26 26 -26 62q0 34 26 60q25 25 61 25t61 -25q26 -26 26 -60q0 -36 -26 -62q-25 -25 -61 -25t-61 25zM703 -502q-26 26 -26 60q0 36 26 62q25 25 61 25t61 -25q26 -26 26 -62q0 -34 -26 -60q-25 -25 -61 -25t-61 25zM230 -258q-25 25 -25 62q0 35 25 60t62 25
q35 0 60 -25t25 -60q0 -37 -25 -62t-60 -25q-37 0 -62 25zM472 -258q-25 25 -25 62q0 35 25 60t60 25q37 0 62 -25t25 -60q0 -37 -25 -62t-62 -25q-35 0 -60 25zM351 -469q-26 26 -26 62q0 34 26 60q25 25 61 25t61 -25q26 -26 26 -60q0 -36 -26 -62q-24 -24 -61 -24t-61 24
z" />
    <glyph glyph-name="uni05B2" unicode="&#x5b2;" 
d="M196 -256v129h407v-129h-407zM712 -258q-26 26 -26 62q0 34 26 60q25 25 61 25t61 -25q26 -26 26 -60q0 -36 -26 -62q-25 -25 -61 -25t-61 25zM712 -502q-26 26 -26 60q0 36 26 62q25 25 61 25t61 -25q26 -26 26 -62q0 -34 -26 -60q-25 -25 -61 -25t-61 25z" />
    <glyph glyph-name="uni05B3" unicode="&#x5b3;" 
d="M186 -131h435v-124h-166l24 -129v-106h-150v106l26 129h-169v124zM730 -258q-26 26 -26 62q0 34 26 60q25 25 61 25t61 -25t25 -60q0 -37 -25 -62t-61 -25t-61 25zM730 -502q-26 26 -26 60q0 36 26 62q25 25 61 25t61 -25t25 -62q0 -35 -25 -60t-61 -25t-61 25z" />
    <glyph glyph-name="uni05B4" unicode="&#x5b4;" 
d="M467 -271q-27 27 -27 64q0 39 27 66q26 26 64 26q37 0 63 -26q27 -27 27 -66q0 -37 -27 -64q-26 -26 -63 -26q-38 0 -64 26z" />
    <glyph glyph-name="uni05B5" unicode="&#x5b5;" 
d="M348 -258q-24 24 -24 62q0 36 24 60q25 25 62 25q35 0 60 -25t25 -60q0 -37 -25 -62t-60 -25q-37 0 -62 25zM591 -258q-25 25 -25 62q0 35 25 60t60 25q37 0 62 -25q24 -24 24 -60q0 -38 -24 -62q-25 -25 -62 -25q-35 0 -60 25z" />
    <glyph glyph-name="uni05B6" unicode="&#x5b6;" 
d="M348 -258q-24 24 -24 62q0 36 24 60q25 25 62 25q35 0 60 -25t25 -60q0 -37 -25 -62t-60 -25q-37 0 -62 25zM591 -258q-25 25 -25 62q0 35 25 60t60 25q37 0 62 -25q24 -24 24 -60q0 -38 -24 -62q-25 -25 -62 -25q-35 0 -60 25zM470 -469q-26 26 -26 62q0 34 26 60
q25 25 61 25t61 -25t25 -60q0 -37 -25 -62q-24 -24 -61 -24t-61 24z" />
    <glyph glyph-name="uni05B7" unicode="&#x5b7;" 
d="M327 -255v129h407v-129h-407z" />
    <glyph glyph-name="uni05B8" unicode="&#x5b8;" 
d="M313 -131h435v-124h-166l25 -129v-106h-151v106l27 129h-170v124z" />
    <glyph glyph-name="uni05B9" unicode="&#x5b9;" 
d="M467 1187q-27 27 -27 65q0 37 27 64q26 26 64 26q37 0 63 -26q27 -27 27 -64q0 -38 -27 -65t-63 -27q-37 0 -64 27z" />
    <glyph glyph-name="uni05BA" unicode="&#x5ba;" 
d="M467 1187q-27 27 -27 65q0 37 27 64q26 26 64 26q37 0 63 -26q27 -27 27 -64q0 -38 -27 -65t-63 -27q-37 0 -64 27z" />
    <glyph glyph-name="uni05BB" unicode="&#x5bb;" 
d="M471 -250q-24 24 -24 57q0 34 24 58t60 24q33 0 57 -24t24 -58q0 -33 -24 -57t-57 -24q-36 0 -60 24zM652 -399q-24 24 -24 58q0 33 24 57t57 24q34 0 58 -24t24 -57q0 -36 -23 -59t-59 -23q-33 0 -57 24zM832 -547q-24 24 -24 57q0 34 24 58q23 23 58 23q34 0 57 -23
q24 -24 24 -58q0 -35 -23 -58t-58 -23q-34 0 -58 24z" />
    <glyph glyph-name="uni05BC" unicode="&#x5bc;" 
d="M468 461q-26 26 -26 62q0 37 26 63t63 26q36 0 62 -26t26 -63q0 -36 -26 -62t-62 -26q-37 0 -63 26z" />
    <glyph glyph-name="uni05BE" unicode="&#x5be;" horiz-adv-x="629" 
d="M81 838v223h467v-223h-467z" />
    <glyph glyph-name="uni05BF" unicode="&#x5bf;" 
d="M322 1158v119h417v-119h-417z" />
    <glyph glyph-name="uni05C1" unicode="&#x5c1;" 
d="M467 1187q-27 27 -27 65q0 37 27 64q26 26 64 26q37 0 63 -26q27 -27 27 -64q0 -38 -27 -65t-63 -27q-37 0 -64 27z" />
    <glyph glyph-name="uni05C2" unicode="&#x5c2;" 
d="M467 1187q-27 27 -27 65q0 37 27 64q26 26 64 26q37 0 63 -26q27 -27 27 -64q0 -38 -27 -65t-63 -27q-37 0 -64 27z" />
    <glyph glyph-name="uni05C3" unicode="&#x5c3;" horiz-adv-x="500" 
d="M103 0v308h297v-308h-297zM103 762v308h297v-308h-297z" />
    <glyph glyph-name="uni05C6" unicode="&#x5c6;" horiz-adv-x="613" 
d="M329 2q-214 1 -214 240v819h447v-223h-157v-506q0 -60 19 -85q18 -24 69 -24h80v-223z" />
    <glyph glyph-name="uni05C7" unicode="&#x5c7;" 
d="M378 -118h305v-85h-117l18 -91v-76h-105v76l18 91h-119v85z" />
    <glyph glyph-name="uni05D0" unicode="&#x5d0;" horiz-adv-x="1184" 
d="M1102 0h-296l-359 550q-35 -12 -50 -44t-15 -89v-417h-286v416q0 125 58 210q59 86 173 108l-214 327h294l322 -492q38 12 55 44t17 87v361h288v-373q0 -130 -65 -204q-68 -77 -170 -106z" />
    <glyph glyph-name="uni05D1" unicode="&#x5d1;" horiz-adv-x="1038" 
d="M865 1061v-838h131v-223h-911v223h490v615h-490v223h780z" />
    <glyph glyph-name="uni05D2" unicode="&#x5d2;" horiz-adv-x="725" 
d="M380 235q-30 -113 -103 -174t-208 -61h-58v223h58q139 0 203 62t64 182q0 51 -7 90l-39 281h-202v223h437l177 -1061h-276l-37 235h-9z" />
    <glyph glyph-name="uni05D3" unicode="&#x5d3;" horiz-adv-x="976" 
d="M51 1061h855v-223h-114v-838h-290v838h-451v223z" />
    <glyph glyph-name="uni05D4" unicode="&#x5d4;" horiz-adv-x="1163" 
d="M111 1061h918v-1061h-288v838h-630v223zM115 0v607h290v-607h-290z" />
    <glyph glyph-name="uni05D5" unicode="&#x5d5;" horiz-adv-x="557" 
d="M424 1061v-1061h-290v1061h290z" />
    <glyph glyph-name="uni05D6" unicode="&#x5d6;" horiz-adv-x="728" 
d="M683 1061v-223h-168q-59 -62 -59 -192q0 -74 18 -170l94 -476h-285l-83 432q-18 90 -18 164q0 94 28 155q27 59 71 82v5h-230v223h632z" />
    <glyph glyph-name="uni05D7" unicode="&#x5d7;" horiz-adv-x="1197" 
d="M704 1061q139 0 221 -43q83 -44 122 -142q39 -97 39 -266v-610h-290v607q0 91 -16 139q-17 50 -54 71q-38 21 -105 21h-197v-838h-290v1061h570z" />
    <glyph glyph-name="uni05D8" unicode="&#x5d8;" horiz-adv-x="1176" 
d="M1066 557q0 -210 -64 -331t-188 -174q-122 -52 -312 -52h-307l-122 1061h288l94 -838h47q106 0 164 30q59 30 86 102q26 69 26 202v281h-230v223h518v-504z" />
    <glyph glyph-name="uni05D9" unicode="&#x5d9;" horiz-adv-x="519" 
d="M405 1061v-629h-290v629h290z" />
    <glyph glyph-name="uni05DA" unicode="&#x5da;" horiz-adv-x="896" 
d="M762 -265h-290v1103h-421v223h711v-1326z" />
    <glyph glyph-name="uni05DB" unicode="&#x5db;" horiz-adv-x="930" 
d="M400 1061q164 0 261 -47q96 -47 138 -151q43 -107 43 -283v-99q0 -175 -43 -283q-42 -104 -138 -151q-97 -47 -261 -47h-315v223h244q90 0 137 28q49 29 68 87q20 60 20 159v67q0 99 -20 159q-19 58 -68 87q-47 28 -137 28h-244v223h315z" />
    <glyph glyph-name="uni05DC" unicode="&#x5dc;" horiz-adv-x="939" 
d="M539 0h-304l294 838h-481v400h276v-177h576z" />
    <glyph glyph-name="uni05DD" unicode="&#x5dd;" horiz-adv-x="1197" 
d="M723 1061q191 0 275 -85q84 -86 84 -277v-699h-948v1061h589zM799 649q0 103 -37 146t-122 43h-224v-615h383v426z" />
    <glyph glyph-name="uni05DE" unicode="&#x5de;" horiz-adv-x="1165" 
d="M615 1061q162 0 258 -51t141 -161q45 -109 45 -290v-559h-520v223h230v329q0 154 -44 221q-43 65 -163 65h-54l-142 -838h-292l149 838h-135v223h527z" />
    <glyph glyph-name="uni05DF" unicode="&#x5df;" horiz-adv-x="557" 
d="M134 1061h290v-1326h-290v1326z" />
    <glyph glyph-name="uni05E0" unicode="&#x5e0;" horiz-adv-x="668" 
d="M41 0v223h108q67 0 92 30q24 28 24 106v479h-150v223h439v-737q0 -128 -27 -197q-27 -70 -89 -98q-64 -29 -178 -29h-219z" />
    <glyph glyph-name="uni05E1" unicode="&#x5e1;" horiz-adv-x="1169" 
d="M1061 562q0 -211 -61 -334q-61 -124 -181 -176q-119 -52 -308 -52h-320l-115 1061h985v-499zM778 838h-396l65 -615h64q105 0 161 31q55 31 81 103q25 71 25 205v276z" />
    <glyph glyph-name="uni05E2" unicode="&#x5e2;" horiz-adv-x="1108" 
d="M709 1061h290v-515q0 -154 -47 -257q-46 -100 -140 -164t-246 -106l-469 -132l-55 217l209 62l-187 895h290l164 -817q77 22 118 54q40 31 56 89q17 60 17 167v507z" />
    <glyph glyph-name="uni05E3" unicode="&#x5e3;" horiz-adv-x="1069" 
d="M552 1061q212 0 309 -104q98 -106 98 -320v-902h-290v888q0 113 -41 165q-40 50 -140 50h-127v-429h-278v652h469z" />
    <glyph glyph-name="uni05E4" unicode="&#x5e4;" horiz-adv-x="1089" 
d="M582 1061q150 0 241 -42q93 -43 136 -138q44 -97 44 -257v-187q0 -160 -44 -257q-43 -95 -136 -138q-91 -42 -241 -42h-456v223h397q106 0 148 55q42 56 42 189v127q0 133 -42 189q-42 55 -148 55h-122v-348h-275v571h456z" />
    <glyph glyph-name="uni05E5" unicode="&#x5e5;" horiz-adv-x="1029" 
d="M638 1061h290v-348q0 -220 -102 -325q-101 -104 -288 -130l166 -523h-287l-417 1326h285l187 -592q95 21 131 83q35 60 35 193v316z" />
    <glyph glyph-name="uni05E6" unicode="&#x5e6;" horiz-adv-x="1091" 
d="M80 0v223h477l-543 838h297l299 -461q49 18 71 52q23 35 23 100v309h290v-341q0 -251 -253 -320l260 -400h-921z" />
    <glyph glyph-name="uni05E7" unicode="&#x5e7;" horiz-adv-x="1161" 
d="M1049 451q0 -242 -102 -347q-101 -104 -319 -104h-94v223h48q91 0 134 46q44 47 44 178v391h-652v223h941v-610zM111 -265v872h290v-872h-290z" />
    <glyph glyph-name="uni05E8" unicode="&#x5e8;" horiz-adv-x="937" 
d="M536 575q0 99 -20 157q-19 57 -64 82q-42 24 -127 24h-274v223h338q160 0 256 -44q95 -43 138 -144q43 -99 43 -272v-601h-290v575z" />
    <glyph glyph-name="uni05E9" unicode="&#x5e9;" horiz-adv-x="1441" 
d="M1316 497q0 -178 -55 -287t-171 -160q-113 -50 -305 -50h-583l-119 1061h281l91 -838h277q118 0 183 28q67 29 95 94t28 182v534h278v-564zM861 400h-272v661h272v-661z" />
    <glyph glyph-name="uni05EA" unicode="&#x5ea;" horiz-adv-x="1239" 
d="M700 1061q154 0 248 -44q93 -44 137 -142q43 -96 43 -265v-610h-290v584q0 141 -45 198q-44 56 -156 56h-126v-838h-463v223h187v615h-125v223h590z" />
    <glyph glyph-name="uni05F0" unicode="&#x5f0;" horiz-adv-x="1114" 
d="M982 1061v-1061h-290v1061h290zM424 1061v-1061h-290v1061h290z" />
    <glyph glyph-name="uni05F1" unicode="&#x5f1;" horiz-adv-x="1059" 
d="M405 1061v-629h-290v629h290zM925 1061v-1061h-290v1061h290z" />
    <glyph glyph-name="uni05F2" unicode="&#x5f2;" horiz-adv-x="1038" 
d="M923 1061v-629h-290v629h290zM405 1061v-629h-290v629h290z" />
    <glyph glyph-name="uni05F3" unicode="&#x5f3;" horiz-adv-x="454" 
d="M78 734l60 504h237v-184l-111 -320h-186z" />
    <glyph glyph-name="uni05F4" unicode="&#x5f4;" horiz-adv-x="732" 
d="M78 734l60 504h214l-2 -184l-106 -320h-166zM378 734l61 504h214v-184l-108 -320h-167z" />
    <glyph glyph-name="uni0950" unicode="&#x950;" horiz-adv-x="1393" 
d="M631 1314h165v-159h-165v159zM1086 1012q-176 -57 -359 -57q-180 0 -375 57l32 132q172 -55 343 -55q176 0 329 55zM676 368q35 -70 35 -158q0 -127 -88 -204t-246 -77q-99 0 -192 49q-90 47 -157 155l115 102q57 -68 107 -106q47 -35 111 -35q69 0 103 28q35 29 35 92
q0 47 -26 104q-25 56 -72 108l-113 -35l-49 155l143 50q51 13 75 37q22 22 22 64q0 35 -24 56q-23 20 -69 20q-53 0 -81 -31q-29 -32 -29 -95h-200q0 149 80 220q79 70 231 70q156 0 226 -55t70 -152q0 -82 -24 -139t-86 -96q69 -58 103 -127zM1332 578v-65
q0 -359 -292 -359q-290 0 -290 359v65q0 359 290 359q292 0 292 -359zM1134 564q0 105 -22 158q-21 51 -72 51q-50 0 -71 -51t-21 -158v-37q0 -107 21 -158t71 -51q51 0 72 51q22 53 22 158v37z" />
    <glyph glyph-name="uni0E3F" unicode="&#xe3f;" horiz-adv-x="1211" 
d="M1083 540q45 -74 45 -192q0 -175 -104 -261q-105 -87 -306 -87h-30v-156h-195v156h-371v1238h371v156h195v-156h14q196 0 299 -86t103 -246q0 -93 -38 -161q-37 -67 -104 -99q75 -31 121 -106zM776 974q-37 31 -113 31h-251v-262h255q72 0 109 32q36 31 36 102
q0 67 -36 97zM667 233q86 0 127 35t41 112t-41 110q-40 33 -127 33h-255v-290h255z" />
    <glyph glyph-name="uni1E3E" unicode="&#x1e3e;" horiz-adv-x="1612" 
d="M806 529l282 709h401v-1238h-281v883l-280 -706h-244l-279 706v-883h-283v1238h403zM683 1326l164 246h276l-237 -246h-203z" />
    <glyph glyph-name="uni1E3F" unicode="&#x1e3f;" horiz-adv-x="1632" 
d="M1537 608v-608h-283v608q0 78 -36 122q-36 43 -109 43t-109 -43q-36 -44 -36 -122v-608h-283v608q0 78 -36 122q-36 43 -109 43t-109 -44q-36 -43 -36 -124v-605h-283v973h283v-67q82 76 228 76q183 0 272 -110q87 110 283 110q363 0 363 -374zM736 1061l164 246h276
l-237 -246h-203z" />
    <glyph glyph-name="Wgrave" unicode="&#x1e80;" horiz-adv-x="1816" 
d="M1279 371l207 867h318l-352 -1238h-331l-214 791l-214 -791h-330l-351 1238h319l207 -867l237 867h267zM600 1569h275l165 -246h-203z" />
    <glyph glyph-name="wgrave" unicode="&#x1e81;" horiz-adv-x="1582" 
d="M1102 324l155 649h306l-311 -973h-285l-175 614l-177 -614h-283l-313 973h306l156 -649l180 649h262zM472 1307h276l165 -246h-204z" />
    <glyph glyph-name="Wacute" unicode="&#x1e82;" horiz-adv-x="1816" 
d="M1279 371l207 867h318l-352 -1238h-331l-214 791l-214 -791h-330l-351 1238h319l207 -867l237 867h267zM783 1323l165 246h276l-237 -246h-204z" />
    <glyph glyph-name="wacute" unicode="&#x1e83;" horiz-adv-x="1582" 
d="M1102 324l155 649h306l-311 -973h-285l-175 614l-177 -614h-283l-313 973h306l156 -649l180 649h262zM658 1061l164 246h276l-237 -246h-203z" />
    <glyph glyph-name="Wdieresis" unicode="&#x1e84;" horiz-adv-x="1816" 
d="M1279 371l207 867h318l-352 -1238h-331l-214 791l-214 -791h-330l-351 1238h319l207 -867l237 867h267zM666 1349q-29 31 -29 75q0 46 29 75t75 29q45 0 74 -29t29 -75q0 -45 -30 -75t-73 -30q-47 0 -75 30zM1000 1349q-29 29 -29 75q0 47 28 75q29 29 75 29t75 -29
t29 -75t-29 -75q-30 -30 -75 -30q-44 0 -74 30z" />
    <glyph glyph-name="wdieresis" unicode="&#x1e85;" horiz-adv-x="1582" 
d="M1102 324l155 649h306l-311 -973h-285l-175 614l-177 -614h-283l-313 973h306l156 -649l180 649h262zM540 1088q-29 31 -29 74q0 46 29 75t75 29t75 -29q28 -28 28 -75q0 -46 -29 -75t-74 -29q-47 0 -75 30zM875 1087q-30 30 -30 75q0 46 29 75t74 29q46 0 75 -29t29 -75
t-29 -75t-75 -29q-44 0 -73 29z" />
    <glyph glyph-name="uni1E9E" unicode="&#x1e9e;" horiz-adv-x="1213" 
d="M805 743q165 -10 261 -106t96 -264q0 -180 -116 -281t-316 -101q-126 0 -219 32l50 200q61 -16 134 -16q103 0 158 45q56 45 56 134q0 88 -59 132t-183 44h-103v188l161 270h-141q-95 0 -145 -46q-52 -47 -52 -162v-812h-253v798q0 227 110 334q109 106 334 106h503z" />
    <glyph glyph-name="uni1EBC" unicode="&#x1ebc;" horiz-adv-x="1096" 
d="M419 527v-290h601v-237h-898v1238h884v-237h-587v-242h515v-232h-515zM301 1369q22 60 67 102q42 39 102 39q36 0 63 -12q26 -12 59 -35q29 -21 40 -26q16 -8 33 -8q27 0 45 18q20 20 35 47l93 -63q-57 -140 -162 -140q-37 0 -64 12q-21 9 -58 34q-23 18 -40 26
q-18 8 -36 8q-51 0 -84 -66z" />
    <glyph glyph-name="uni1EBD" unicode="&#x1ebd;" horiz-adv-x="1027" 
d="M848 857q114 -127 114 -385q0 -37 -2 -67h-613q9 -115 49 -165q40 -51 117 -51q68 0 110 34q41 33 51 90h277q-23 -151 -132 -239t-303 -88q-226 0 -342 126q-116 127 -116 373q0 247 118 374q117 126 340 126q218 0 332 -128zM400 731q-41 -49 -53 -158h332
q-8 108 -49 157q-42 50 -117 50q-72 0 -113 -49zM249 1105q21 59 68 102q43 40 102 40q34 0 63 -13q26 -12 59 -35q29 -21 40 -26q16 -8 33 -8q27 0 45 18q17 17 34 48l94 -64q-57 -139 -163 -139q-36 0 -63 12q-24 11 -59 34q-20 16 -40 25q-18 8 -36 8q-50 0 -83 -65z" />
    <glyph glyph-name="Ygrave" unicode="&#x1ef2;" horiz-adv-x="1146" 
d="M573 759l241 479h316l-408 -732v-506h-298v506l-410 732h317zM264 1572h275l165 -246h-203z" />
    <glyph glyph-name="ygrave" unicode="&#x1ef3;" horiz-adv-x="986" 
d="M483 391l221 582h279l-532 -1327h-264l160 400l-349 927h294zM182 1307h276l165 -246h-204z" />
    <glyph glyph-name="uni1EF8" unicode="&#x1ef8;" horiz-adv-x="1146" 
d="M573 759l241 479h316l-408 -732v-506h-298v506l-410 732h317zM306 1371q21 59 67 101q43 40 103 40q36 0 63 -12q23 -10 59 -36q24 -17 40 -25t32 -8q28 0 45 17q19 19 35 48l94 -63q-57 -140 -163 -140q-37 0 -64 12q-21 9 -58 34q-20 16 -40 25q-18 8 -36 8
q-51 0 -83 -65z" />
    <glyph glyph-name="uni1EF9" unicode="&#x1ef9;" horiz-adv-x="986" 
d="M483 391l221 582h279l-532 -1327h-264l160 400l-349 927h294zM225 1105q22 60 67 102q43 40 102 40q34 0 63 -13q26 -12 59 -35q29 -21 40 -26q16 -8 33 -8q27 0 45 18q19 19 35 48l93 -64q-57 -139 -162 -139q-37 0 -64 12q-21 9 -58 34q-20 16 -40 25q-18 8 -37 8
q-51 0 -83 -65z" />
    <glyph glyph-name="uni200B" unicode="&#x200b;" 
 />
    <glyph glyph-name="endash" unicode="&#x2013;" horiz-adv-x="1179" 
d="M67 432v208h1047v-208h-1047z" />
    <glyph glyph-name="emdash" unicode="&#x2014;" horiz-adv-x="1377" 
d="M19 439v191h1341v-191h-1341z" />
    <glyph glyph-name="quoteleft" unicode="&#x2018;" horiz-adv-x="454" 
d="M375 1238l-60 -504h-237v184l111 320h186z" />
    <glyph glyph-name="quoteright" unicode="&#x2019;" horiz-adv-x="454" 
d="M78 734l60 504h237v-184l-111 -320h-186z" />
    <glyph glyph-name="quotesinglbase" unicode="&#x201a;" horiz-adv-x="445" 
d="M55 -246l60 504h237v-184l-111 -320h-186z" />
    <glyph glyph-name="quotedblleft" unicode="&#x201c;" horiz-adv-x="760" 
d="M363 1238l-61 -504h-224v184l111 320h174zM681 1238l-60 -504h-227v184l112 320h175z" />
    <glyph glyph-name="quotedblright" unicode="&#x201d;" horiz-adv-x="760" 
d="M78 734l60 504h225v-184l-112 -320h-173zM394 734l61 504h226v-184l-112 -320h-175z" />
    <glyph glyph-name="quotedblbase" unicode="&#x201e;" horiz-adv-x="749" 
d="M55 -246l60 504h225v-184l-112 -320h-173zM371 -246l61 504h226v-184l-112 -320h-175z" />
    <glyph glyph-name="dagger" unicode="&#x2020;" horiz-adv-x="1179" 
d="M720 1326v-428h394v-208h-1047v208h386v428h267zM720 -354h-267v621h267v-621z" />
    <glyph glyph-name="daggerdbl" unicode="&#x2021;" horiz-adv-x="1179" 
d="M720 1326v-428h394v-208h-1047v208h386v428h267zM453 64h-386v208h1047v-208h-394v-418h-267v418z" />
    <glyph glyph-name="bullet" unicode="&#x2022;" horiz-adv-x="832" 
d="M244 237q-80 47 -126 126q-45 77 -45 173q0 97 45 172q47 79 126 125t173 46q96 0 173 -46q78 -47 125 -125q45 -75 45 -172q0 -96 -45 -173q-46 -79 -125 -126q-77 -46 -173 -46q-94 0 -173 46z" />
    <glyph glyph-name="ellipsis" unicode="&#x2026;" horiz-adv-x="1407" 
d="M81 0v308h297v-308h-297zM555 0v308h297v-308h-297zM1029 0v308h297v-308h-297z" />
    <glyph glyph-name="perthousand" unicode="&#x2030;" horiz-adv-x="2086" 
d="M542 1182q68 -63 68 -192v-215q0 -132 -68 -195q-69 -64 -208 -64q-138 0 -207 64q-67 63 -67 195v215q0 129 67 192t207 63t208 -63zM249 760q0 -99 85 -99q87 0 87 99v243q0 97 -87 97q-85 0 -85 -97v-243zM1354 655q68 -63 68 -192v-215q0 -132 -68 -195
q-69 -64 -208 -64q-138 0 -207 64q-67 63 -67 195v215q0 129 67 192t207 63t208 -63zM1061 233q0 -99 85 -99q87 0 87 99v243q0 97 -87 97q-85 0 -85 -97v-243zM368 0h-181l918 1238h181zM1968 655q68 -63 68 -192v-215q0 -132 -68 -195q-69 -64 -208 -64q-138 0 -207 64
q-67 63 -67 195v215q0 129 67 192t207 63t208 -63zM1675 233q0 -99 85 -99q86 0 86 99v243q0 97 -86 97q-85 0 -85 -97v-243z" />
    <glyph glyph-name="uni2031" unicode="&#x2031;" horiz-adv-x="2702" 
d="M542 1182q68 -63 68 -192v-215q0 -132 -68 -195q-69 -64 -208 -64q-138 0 -207 64q-67 63 -67 195v215q0 129 67 192t207 63t208 -63zM249 760q0 -99 85 -99q87 0 87 99v243q0 97 -87 97q-85 0 -85 -97v-243zM1354 655q68 -63 68 -192v-215q0 -132 -68 -195
q-69 -64 -208 -64q-138 0 -207 64q-67 63 -67 195v215q0 129 67 192t207 63t208 -63zM1061 233q0 -99 85 -99q87 0 87 99v243q0 97 -87 97q-85 0 -85 -97v-243zM368 0h-181l918 1238h181zM1968 655q68 -63 68 -192v-215q0 -132 -68 -195q-69 -64 -208 -64q-138 0 -207 64
q-67 63 -67 195v215q0 129 67 192t207 63t208 -63zM1675 233q0 -99 85 -99q86 0 86 99v243q0 97 -86 97q-85 0 -85 -97v-243zM2581 655q68 -63 68 -192v-215q0 -132 -68 -195q-69 -64 -208 -64q-138 0 -207 64q-67 63 -67 195v215q0 129 67 192q68 63 207 63q141 0 208 -63z
M2289 233q0 -99 84 -99q87 0 87 99v243q0 97 -87 97q-84 0 -84 -97v-243z" />
    <glyph glyph-name="guilsinglleft" unicode="&#x2039;" horiz-adv-x="576" 
d="M430 88l-336 397l336 396l139 -113l-235 -283l235 -282z" />
    <glyph glyph-name="guilsinglright" unicode="&#x203a;" horiz-adv-x="576" 
d="M483 485l-336 -397l-140 115l235 282l-235 283l140 113z" />
    <glyph glyph-name="uni203D" unicode="&#x203d;" horiz-adv-x="960" 
d="M626 1233q258 -48 258 -282q0 -78 -20 -128q-21 -53 -49 -84q-33 -36 -76 -74q-58 -47 -86 -89q-29 -43 -29 -111v-39h-277v66q0 68 20 112q22 48 49 77q30 31 74 67q54 41 84 81q27 36 27 91q0 59 -29 88q-28 28 -91 28q-67 0 -95 -31q-29 -32 -29 -112v-49h-283v81
q0 132 67 210q66 77 202 99l4 177h283zM635 0h-299v308h299v-308z" />
    <glyph glyph-name="fraction" unicode="&#x2044;" horiz-adv-x="390" 
d="M-173 0h-181l918 1238h181z" />
    <glyph glyph-name="uni2051" unicode="&#x2051;" horiz-adv-x="802" 
d="M334 755l-138 101l98 108l-142 28l51 163l129 -62l-15 147h173l-21 -149l134 64l50 -163l-142 -28l99 -108l-138 -101l-71 120zM469 393l134 63l50 -162l-142 -29l99 -108l-138 -100l-71 120l-67 -120l-138 100l98 108l-142 29l51 162l129 -62l-15 147h173z" />
    <glyph glyph-name="uni20A9" unicode="&#x20a9;" horiz-adv-x="1879" 
d="M1670 649h199v-134h-237l-146 -515h-331l-138 515h-150l-140 -515h-331l-145 515h-239v134h200l-166 589h317l141 -589h143l159 589h269l161 -589h142l141 589h319zM941 791l-37 -142h76zM536 515l35 -144l39 144h-74zM1273 515l39 -144l34 144h-73z" />
    <glyph glyph-name="uni20AA" unicode="&#x20aa;" horiz-adv-x="1508" 
d="M1058 331h-232v338q0 75 -21 103q-21 29 -87 29h-354v-801h-230v973h703q115 0 168 -56t53 -180v-406zM481 0v644h232v-472h304q64 0 93 15q30 16 42 52t12 101v633h230v-625q0 -182 -68 -265t-221 -83h-624z" />
    <glyph glyph-name="Euro" unicode="&#x20ac;" horiz-adv-x="1062" 
d="M786 241q56 24 104 68l102 -196q-55 -52 -140 -88q-86 -36 -199 -36q-232 0 -352 102q-121 103 -142 325h-106v168h103v74h-103v166h106q19 222 140 323q119 100 354 100q103 0 191 -25q91 -26 148 -71l-104 -203q-38 35 -97 55q-57 19 -124 19q-104 0 -156 -46
q-53 -47 -65 -152h383l-83 -166h-304v-74h269l-83 -168h-182q12 -105 65 -152q52 -46 156 -46q65 0 119 23z" />
    <glyph glyph-name="uni20B9" unicode="&#x20b9;" horiz-adv-x="1137" 
d="M1006 1015h-230q43 -52 52 -113h178v-120h-175q-14 -161 -101 -241q-86 -79 -260 -85l457 -456h-336l-442 456v218h221q87 0 133 25q47 26 59 83h-413v120h415q-13 59 -61 87q-45 26 -133 26h-218v223h854v-223z" />
    <glyph glyph-name="uni20BA" unicode="&#x20ba;" horiz-adv-x="1248" 
d="M1167 615q-9 -302 -162 -458q-154 -157 -446 -157h-272v460l-181 -57v149l181 56v105l-181 -57v150l181 57v375h252v-295l275 86v-150l-275 -87v-102l275 86v-150l-275 -87v-318h38q178 0 259 97q79 95 85 297h246z" />
    <glyph glyph-name="uni20BD" unicode="&#x20bd;" horiz-adv-x="1190" 
d="M509 469v-68h434v-194h-434v-207h-297v207h-101v194h101v68h-101v230h101v539h483q220 0 322 -96q103 -97 103 -290q0 -191 -103 -288q-101 -95 -322 -95h-186zM509 1008v-309h149q93 0 128 38q36 39 36 115q0 75 -36 116q-36 40 -128 40h-149z" />
    <glyph glyph-name="uni20BF" unicode="&#x20bf;" horiz-adv-x="1211" 
d="M792 4v-163h-159v159h-79v-159h-160v159h-272v1238h272v159h160v-159h79v159h159v-164q153 -18 232 -102q80 -85 80 -225q0 -93 -38 -161q-37 -67 -104 -99q75 -31 121 -106q45 -74 45 -192q0 -314 -336 -344zM412 1005v-262h255q72 0 109 32q36 31 36 102q0 67 -36 97
q-37 31 -113 31h-251zM667 233q86 0 127 35t41 112t-41 110q-40 33 -127 33h-255v-290h255z" />
    <glyph glyph-name="uni2113" unicode="&#x2113;" horiz-adv-x="769" 
d="M672 60q-100 -81 -223 -81q-72 0 -134 32q-61 31 -99 89q-37 56 -37 132v139q-57 -27 -91 -39l-33 96q57 20 124 55v463q0 155 63 230q62 74 182 74t171 -51t51 -170q0 -139 -70 -270q-72 -135 -187 -241v-270q0 -75 35 -115q34 -39 87 -39q61 0 119 42zM407 1091
q-18 -33 -18 -108v-343q157 166 157 352q0 76 -18 104q-18 29 -61 29q-41 0 -60 -34z" />
    <glyph glyph-name="uni2116" unicode="&#x2116;" horiz-adv-x="1906" 
d="M492 1238l415 -884v884h274v-1238h-367l-414 881v-881h-278v1238h370zM1739 847q65 -60 65 -182v-207q0 -125 -64 -186q-63 -60 -198 -60t-198 60q-64 61 -64 186v207q0 122 65 182t197 60t197 -60zM1624 676q0 93 -82 93q-81 0 -81 -93v-230q0 -96 81 -96q82 0 82 96
v230zM1776 0h-481v124h481v-124z" />
    <glyph glyph-name="trademark" unicode="&#x2122;" horiz-adv-x="1064" 
d="M51 1238h368v-150h-106v-312h-157v312h-105v150zM748 867h-49l-91 178v-269h-157v462h186l86 -149l83 149h188v-462h-157v269z" />
    <glyph glyph-name="estimated" unicode="&#x212e;" horiz-adv-x="1443" 
d="M1187 1074q166 -178 166 -508h-1024v-327q75 -80 184 -123q108 -43 246 -43q295 0 461 228l68 -50q-79 -134 -215 -202t-314 -68q-208 0 -358 77q-152 78 -231 221q-80 145 -80 335q0 191 78 335q79 146 221 224q143 79 333 79q299 0 465 -178zM501 1114
q-103 -43 -172 -118v-333h789v333q-70 75 -174 119q-100 42 -222 42q-118 0 -221 -43z" />
    <glyph glyph-name="uni2135" unicode="&#x2135;" horiz-adv-x="1282" 
d="M1199 865l-557 -322l-559 322l559 327zM683 677q-8 22 -16 58q-7 31 -7 52q66 0 125 12q58 12 97 29q13 6 31 13.5t23 9.5l24 -18l36 14l1 11l-76 42q-12 8 -12 20q0 10 9 23l-60 26l-50 -32l37 -33q-46 -35 -87 -56q-40 -20 -95 -20q9 83 69 224q-20 11 -63 11
q-48 0 -62 -5q0 -16 4 -47t4 -56q-33 11 -67 11q-62 0 -102 -32q-28 -21 -66 -80l-3 -2l-30 15l-29 12l-53 -18l25 -28l23 2q12 0 25 -7l76 -45q12 3 28 8q15 5 21 10q4 7 16 36q20 56 52 77q22 16 46 16q18 0 33 -7q-1 -3 -25 -60q-7 -18 -39 -98q-14 -36 -14 -61
q0 -32 27 -32l117 -3zM624 511v-640l-557 324l-2 640zM1215 195l-555 -324v642l557 322zM785 41q6 21 25 33l76 48q14 44 14 51q-65 84 -65 133q0 34 33 60q55 -58 193 -175l59 99v11q-20 2 -57 13q-28 8 -51 22q48 81 67 158q18 75 18 111l24 14l9 35l-7 6l-74 -41
q-8 -4 -16 -4q-19 0 -25 22l-53 -39v-55l50 12q5 -52 5 -70q0 -67 -32 -126q-45 34 -94 92q-51 60 -62 81q-21 -12 -51 -42t-30 -48q0 -6 9 -12q65 -31 94 -48q-68 -56 -68 -156q0 -36 34 -93l-2 -11l-26 -16q-25 -13 -25 -18l-11 -60zM531 58l-2 13q-74 95 -113 162
q52 22 71 77t19 86l25 -16l10 27l-7 12l-76 43q-17 9 -28 29q-13 24 -16 40l-51 19v-55l49 -42q4 -56 4 -71q0 -76 -30 -88q-53 91 -93 184q-48 112 -49 113q-12 28 -14 32q-6 11 -7 17q-11 6 -27 6q-20 0 -36 -8t-8 -19q62 -91 97 -150q-11 5 -24 5q-25 0 -38 -21
q-14 -22 -8 -60q1 -19 12 -60q9 -34 23 -73l-2 -5l-28 14l-25 12l-12 -46l39 -32q0 4 3 7q4 4 11 4q6 0 14 -5l80 -48q12 29 12 37q-7 20 -12 32t-9 25q-35 91 -44 129l-4 23q0 21 16 21q9 0 19 -5q9 -19 81 -162l50.5 -101t43.5 -86l23 -46z" />
    <glyph glyph-name="uni2136" unicode="&#x2136;" horiz-adv-x="1768" 
d="M1728 868q-7 -37 -39 -37q-11 0 -25 6q-332 116 -755 116q-138 0 -249 -10q-2 -22 -2 -48q0 -48 14 -87q7 -17 -5 -33q-11 -15 -34 -23q-18 -6 -33 4q-14 9 -20 33q-12 57 -12 134q-33 -47 -90 -122q-27 -36 -50 -49q-25 -16 -42 -16q-16 0 -27 10q-16 10 -16 29
q0 9 12 35q8 17 39 49q7 7 73 71q-108 -12 -294 -40q-25 -3 -40 9q-16 13 -16 40q0 37 42 43q54 8 189 38q163 36 209 50q23 41 50 105q17 41 39 88q2 4 10 24.5t16 38.5q14 29 42 29q22 0 35 -19q11 -17 8 -40q-8 -47 -23 -80q-18 -41 -50 -102q76 29 141 61q53 26 66 35
q12 9 25 9q20 0 34 -20q9 -13 9 -23q0 -17 -20 -37q-8 -8 -58 -33q-46 -23 -147 -64q84 5 212 5q462 0 741 -119q50 -21 41 -60zM1306 785q36 -32 36 -74q0 -115 -147 -305q-143 -186 -338 -359q-191 -170 -286 -210q-38 -17 -74 -17q-65 0 -101 63q-19 32 -19 87
q0 90 59 211q57 118 155 220q74 78 157 128q86 51 145 51q45 0 67 -28q18 -20 18 -50q0 -60 -56 -137q-58 -80 -91 -109q-22 -19 -46 -19q-16 0 -35 14q-18 18 -18 36q0 24 27 51q79 79 109 136q-89 -32 -172 -112q-84 -81 -141 -180q-56 -98 -70 -182q-2 -10 -2 -23
q0 -20 8 -34t24 -14q13 0 30 9q111 59 251 183q141 125 260 266q120 142 163 244q14 33 14 53q0 25 -25 37q-23 11 -83 11q-143 0 -294 -69q-150 -69 -256 -159q-17 -16 -39 -16q-30 0 -43 25q-7 11 -7 26q0 16 7 29q8 14 20 23q97 75 266 157q171 83 353 83q48 0 83 -5
q54 -9 91 -41z" />
    <glyph glyph-name="uni2137" unicode="&#x2137;" horiz-adv-x="1351" 
d="M1199 396q0 -119 -65 -224q-67 -108 -185 -173q-120 -66 -275 -66t-275 66q-119 65 -184 173q-65 107 -65 224q0 320 352 515q-233 68 -341 88l34 133q142 -30 237 -59q115 -36 242 -86q152 58 240 85q101 31 239 60l35 -133q-118 -20 -341 -88q352 -196 352 -515z
M874 111q88 46 140 123q51 76 51 167q0 144 -99 258t-292 192q-194 -78 -291 -192q-98 -115 -98 -258q0 -92 50 -167q52 -77 140 -123q89 -46 199 -46q111 0 200 46zM603 570q-30 32 -30 72q0 39 30 69t71 30t71 -30t30 -69q0 -40 -30 -72q-30 -31 -71 -31t-71 31zM430 557
q71 -33 133 -53q57 -18 113 -18q54 0 113 18q65 20 131 53l53 -115q-96 -49 -175 -67l100 -129l-109 -80l-115 154l-115 -154l-108 80l99 129q-75 20 -173 67z" />
    <glyph glyph-name="uni2150" unicode="&#x2150;" horiz-adv-x="1285" 
d="M329 674h94v-143h-368v143h102v336h-92v127q31 0 54 5q21 5 37 16q15 13 22 30q8 19 11 50h140v-564zM244 0h-180l918 1238h180zM1065 0h-188l177 566h-235v141h456z" />
    <glyph glyph-name="uni2151" unicode="&#x2151;" horiz-adv-x="1310" 
d="M327 674h94v-143h-368v143h103v336h-92v127q31 0 54 5q20 4 36 16q15 13 22 30q8 19 11 50h140v-564zM246 0h-181l918 1238h181zM1207 659q70 -64 70 -178q0 -46 -19 -103q-17 -51 -52 -102l-205 -276h-203l184 249h-11q-94 0 -154 63t-60 169q0 113 69 178q68 64 191 64
q120 0 190 -64zM963 397q23 -29 57 -29q36 0 58 30q22 29 22 76q0 49 -22 80t-58 31q-34 0 -57 -30q-22 -29 -22 -81q0 -49 22 -77z" />
    <glyph glyph-name="uni2152" unicode="&#x2152;" horiz-adv-x="1784" 
d="M329 674h94v-143h-368v143h102v336h-92v127q31 0 54 5q21 5 37 16q15 13 22 30q8 19 11 50h140v-564zM242 0h-180l918 1238h180zM1054 143h94v-143h-368v143h103v336h-92v128q34 0 53 4t37 17q15 13 22 30q8 20 11 49h140v-564zM1660 655q68 -63 68 -192v-215
q0 -132 -68 -195q-69 -64 -208 -64q-138 0 -207 64q-67 63 -67 195v215q0 129 67 192t207 63t208 -63zM1367 233q0 -99 85 -99q87 0 87 99v243q0 97 -87 97q-85 0 -85 -97v-243z" />
    <glyph glyph-name="uni2153" unicode="&#x2153;" horiz-adv-x="1299" 
d="M325 674h94v-143h-368v143h103v336h-92v127q31 0 54 5q20 4 36 16q15 13 22 30q9 23 12 50h139v-564zM246 0h-181l918 1238h181zM1234 309q29 -44 29 -111q0 -104 -67 -156q-68 -53 -190 -53q-123 0 -190 61q-66 60 -59 189h170q-3 -65 18 -90q23 -27 68 -27q38 0 61 23
t23 64q0 44 -25 65q-26 21 -78 21h-39v124h28q91 0 91 87q0 74 -73 74q-39 0 -57 -29q-17 -27 -14 -81h-168q-7 121 58 185q64 63 179 63q121 0 182 -51t61 -145q0 -52 -23 -93q-22 -40 -68 -58q54 -17 83 -62z" />
    <glyph glyph-name="uni2154" unicode="&#x2154;" horiz-adv-x="1533" 
d="M318 670h197v-143h-485l235 354q38 57 54 91q17 37 17 66q0 33 -18 51t-53 18q-83 0 -74 -136h-164q-2 16 -2 37q0 237 246 237q113 0 175 -53t62 -157q0 -90 -80 -211zM391 0h-181l918 1238h181zM1468 309q28 -43 28 -111q0 -104 -67 -156q-68 -53 -189 -53
q-123 0 -190 61t-60 189h170q-3 -63 19 -90q23 -27 68 -27q38 0 61 23q22 22 22 64q0 44 -25 65t-78 21h-39v124h29q90 0 90 87q0 74 -73 74q-38 0 -56 -29q-17 -27 -14 -81h-168q-8 122 57 185t180 63q119 0 181 -51q61 -51 61 -145q0 -53 -22 -93t-68 -58q54 -17 83 -62z
" />
    <glyph glyph-name="uni2155" unicode="&#x2155;" horiz-adv-x="1352" 
d="M325 674h94v-143h-368v143h103v336h-92v127q31 0 54 5q20 4 36 16q15 13 22 30q9 23 12 50h139v-564zM246 0h-181l918 1238h181zM1260 439q49 -64 49 -191q0 -131 -60 -196q-59 -63 -184 -63q-115 0 -175 57q-61 58 -61 164h165q0 -37 19 -61q18 -23 55 -23q39 0 57 28
q17 27 17 92t-17 95q-18 32 -57 32q-27 0 -46 -13t-28 -38h-165v385h457v-141h-299v-99q48 35 120 35q105 0 153 -63z" />
    <glyph glyph-name="uni2156" unicode="&#x2156;" horiz-adv-x="1536" 
d="M318 670h197v-143h-485l235 354q38 57 54 91q17 37 17 66q0 33 -18 51t-53 18q-83 0 -74 -136h-164q-2 16 -2 37q0 237 246 237q113 0 175 -53t62 -157q0 -90 -80 -211zM386 0h-181l918 1238h180zM1442 439q49 -64 49 -191q0 -132 -59 -196q-58 -63 -185 -63
q-115 0 -175 57t-60 164h164q0 -37 19 -61q18 -23 55 -23q39 0 57 28q18 29 18 92q0 64 -18 95q-18 32 -57 32q-27 0 -46 -13t-28 -38h-164v385h456v-141h-299v-99q48 35 120 35q105 0 153 -63z" />
    <glyph glyph-name="uni2157" unicode="&#x2157;" horiz-adv-x="1545" 
d="M520 837q28 -43 28 -112q0 -104 -67 -156q-68 -53 -189 -53q-123 0 -190 61t-60 189h170q-3 -63 19 -90q23 -27 68 -27q38 0 61 23q22 22 22 64q0 44 -25 65t-78 21h-38v124h28q90 0 90 87q0 74 -72 74q-39 0 -57 -29q-17 -27 -14 -81h-168q-8 122 57 185t180 63
q119 0 181 -51q61 -51 61 -145q0 -53 -22 -93t-68 -58q55 -18 83 -61zM393 0h-181l918 1238h181zM1451 439q49 -64 49 -191q0 -131 -60 -196q-58 -63 -184 -63q-115 0 -175 57q-61 58 -61 164h165q0 -37 19 -61q18 -23 55 -23q39 0 57 28q18 29 18 92q0 64 -18 95
q-18 32 -57 32q-27 0 -46 -13t-28 -38h-165v385h457v-141h-299v-99q48 35 120 35q105 0 153 -63z" />
    <glyph glyph-name="uni2158" unicode="&#x2158;" horiz-adv-x="1568" 
d="M508 794h56v-138h-56v-125h-167v125h-323v73l196 509h180l-169 -444h116v147h167v-147zM416 0h-181l918 1238h180zM1474 439q49 -64 49 -191q0 -131 -60 -196q-59 -63 -184 -63q-115 0 -175 57q-61 58 -61 164h165q0 -39 18 -61q18 -23 56 -23q39 0 57 28q17 27 17 92
t-17 95q-18 32 -57 32q-27 0 -46 -13t-28 -38h-165v385h457v-141h-299v-99q48 35 120 35q105 0 153 -63z" />
    <glyph glyph-name="uni2159" unicode="&#x2159;" horiz-adv-x="1225" 
d="M327 674h94v-143h-368v143h103v336h-92v127q31 0 54 5q20 4 36 16q15 13 22 30q8 19 11 50h140v-564zM248 0h-181l918 1238h180zM1133 395q61 -62 61 -169q0 -112 -69 -177q-70 -65 -191 -65q-119 0 -190 65q-70 64 -70 177q0 52 18 105q16 48 53 101l205 275h201
l-184 -249h11q94 0 155 -63zM988 152q22 29 22 81q0 49 -22 77q-24 30 -58 30q-35 0 -58 -31t-23 -76q0 -48 23 -80q22 -31 58 -31t58 30z" />
    <glyph glyph-name="uni215A" unicode="&#x215a;" horiz-adv-x="1393" 
d="M494 969q49 -64 49 -191q0 -131 -59 -195q-59 -63 -185 -63q-115 0 -175 57t-60 164h164q0 -38 19 -62q18 -23 55 -23q39 0 57 28t18 92t-18 96t-57 32q-26 0 -46 -14q-19 -13 -28 -38h-164v386h456v-141h-299v-100q49 36 120 36q104 0 153 -64zM389 0h-180l918 1238h180
zM1299 395q61 -62 61 -169q0 -112 -69 -177q-70 -65 -191 -65q-119 0 -190 65q-70 64 -70 177q0 50 19 105q17 51 52 101l205 275h202l-184 -249h10q94 0 155 -63zM1154 152q22 29 22 81q0 49 -22 77q-24 30 -57 30q-37 0 -59 -30q-23 -31 -23 -77q0 -48 23 -80
q22 -31 59 -31q35 0 57 30z" />
    <glyph glyph-name="oneeighth" unicode="&#x215b;" horiz-adv-x="1296" 
d="M327 674h94v-143h-368v143h103v336h-92v127q31 0 54 5q20 4 36 16q15 13 22 30q8 19 11 50h140v-564zM242 0h-180l918 1238h180zM1263 207q0 -223 -267 -223q-266 0 -266 223q0 143 122 191q-39 22 -61 59q-22 38 -22 81q0 86 59 133t169 47q109 0 168 -47t59 -133
q0 -45 -21 -81t-62 -59q122 -48 122 -191zM928 525q0 -70 69 -70q68 0 68 70q0 83 -68 83q-69 0 -69 -83zM1061 132q21 27 21 86q0 116 -86 116q-87 0 -87 -116q0 -59 21 -86q22 -28 66 -28q43 0 65 28z" />
    <glyph glyph-name="threeeighths" unicode="&#x215c;" horiz-adv-x="1510" 
d="M520 837q28 -43 28 -112q0 -104 -67 -156q-68 -53 -189 -53q-123 0 -190 61t-60 189h170q-3 -63 19 -90q23 -27 68 -27q38 0 61 23q22 22 22 64q0 44 -25 65t-78 21h-38v124h28q90 0 90 87q0 74 -72 74q-39 0 -57 -29q-17 -27 -14 -81h-168q-8 122 57 185t180 63
q119 0 181 -51q61 -51 61 -145q0 -53 -22 -93t-68 -58q55 -18 83 -61zM378 0h-180l918 1238h180zM1477 207q0 -223 -267 -223q-266 0 -266 223q0 143 122 191q-39 22 -61 59q-22 38 -22 81q0 86 59 133t169 47q109 0 168 -47t59 -133q0 -45 -21 -81t-62 -59
q122 -48 122 -191zM1142 525q0 -70 69 -70q68 0 68 70q0 83 -68 83q-69 0 -69 -83zM1275 132q21 27 21 86q0 116 -86 116q-87 0 -87 -116q0 -59 21 -86q22 -28 66 -28q43 0 65 28z" />
    <glyph glyph-name="fiveeighths" unicode="&#x215d;" horiz-adv-x="1517" 
d="M494 969q49 -64 49 -191q0 -131 -59 -195q-59 -63 -185 -63q-115 0 -175 57t-60 164h164q0 -38 19 -62q18 -23 55 -23q39 0 57 28t18 92t-18 96t-57 32q-26 0 -46 -14q-19 -13 -28 -38h-164v386h456v-141h-299v-100q49 36 120 36q104 0 153 -64zM387 0h-180l918 1238h180
zM1482 207q0 -223 -267 -223q-265 0 -265 223q0 143 122 191q-41 23 -62 59t-21 81q0 87 58 133q59 47 170 47q109 0 168 -47q58 -46 58 -133q0 -45 -21 -81t-62 -59q122 -48 122 -191zM1148 525q0 -70 69 -70q67 0 67 70q0 83 -67 83q-69 0 -69 -83zM1280 132q22 28 22 86
q0 116 -87 116t-87 -116q0 -58 22 -86t65 -28t65 28z" />
    <glyph glyph-name="seveneighths" unicode="&#x215e;" horiz-adv-x="1388" 
d="M272 531h-187l177 566h-235v141h456zM235 0h-180l918 1238h180zM1355 207q0 -223 -267 -223q-266 0 -266 223q0 143 122 191q-39 22 -61 59q-22 38 -22 81q0 86 59 133t169 47q109 0 168 -47t59 -133q0 -45 -21 -81t-62 -59q122 -48 122 -191zM1020 525q0 -70 69 -70
q68 0 68 70q0 83 -68 83q-69 0 -69 -83zM1153 132q21 27 21 86q0 116 -86 116q-87 0 -87 -116q0 -59 21 -86q22 -28 66 -28q43 0 65 28z" />
    <glyph glyph-name="uni215F" unicode="&#x215f;" horiz-adv-x="810" 
d="M325 674h94v-143h-368v143h103v336h-92v127q31 0 54 5q20 4 36 16q15 13 22 30q9 23 12 50h139v-564zM246 0h-181l918 1238h181z" />
    <glyph glyph-name="uni2189" unicode="&#x2189;" horiz-adv-x="1593" 
d="M539 1188q68 -63 68 -192v-216q0 -132 -68 -195q-67 -63 -208 -63q-139 0 -207 63q-67 63 -67 195v216q0 129 67 192q66 62 207 62q142 0 208 -62zM246 766q0 -99 85 -99q86 0 86 99v242q0 97 -86 97q-85 0 -85 -97v-242zM451 0h-180l917 1238h181zM1528 309
q28 -43 28 -111q0 -104 -67 -156q-68 -53 -189 -53q-123 0 -190 61q-66 60 -59 189h169q-3 -63 19 -90q23 -27 68 -27q38 0 61 23q22 22 22 64q0 44 -25 65t-77 21h-39v124h28q90 0 90 87q0 74 -72 74q-39 0 -57 -29q-17 -27 -14 -81h-168q-8 122 57 185t180 63
q119 0 181 -51q61 -51 61 -145q0 -53 -22 -93t-68 -58q54 -17 83 -62z" />
    <glyph glyph-name="arrowleft" unicode="&#x2190;" horiz-adv-x="1370" 
d="M447 640h855v-208h-855l223 -214l-152 -154l-474 472l474 474l152 -154z" />
    <glyph glyph-name="arrowup" unicode="&#x2191;" horiz-adv-x="1061" 
d="M532 1158l473 -474l-154 -153l-214 222v-852h-209v852l-218 -222l-152 153z" />
    <glyph glyph-name="arrowright" unicode="&#x2192;" horiz-adv-x="1370" 
d="M700 856l152 154l474 -474l-474 -472l-152 154l223 214h-854v208h854z" />
    <glyph glyph-name="arrowdown" unicode="&#x2193;" horiz-adv-x="1061" 
d="M635 334l216 223l154 -152l-474 -474l-473 474l152 154l216 -225v854h209v-854z" />
    <glyph glyph-name="arrowboth" unicode="&#x2194;" horiz-adv-x="1952" 
d="M1199 856l154 154l474 -474l-474 -472l-154 154l223 214h-891l222 -214l-153 -154l-474 472l474 474l153 -154l-222 -216h891z" />
    <glyph glyph-name="arrowupdn" unicode="&#x2195;" horiz-adv-x="1061" 
d="M635 937v-811l216 224l154 -154l-474 -475l-473 477l152 152l216 -224v811l-216 -224l-152 152l473 477l474 -477l-154 -152z" />
    <glyph glyph-name="uni2196" unicode="&#x2196;" horiz-adv-x="1199" 
d="M488 789l605 -605l-147 -147l-603 603l5 -309h-217l-2 668h670v-216z" />
    <glyph glyph-name="uni2197" unicode="&#x2197;" horiz-adv-x="1199" 
d="M400 769v218h670l-2 -670h-217l5 309l-603 -603l-147 147l605 605z" />
    <glyph glyph-name="uni2198" unicode="&#x2198;" horiz-adv-x="1199" 
d="M1070 -14h-670v217l311 -5l-605 605l147 147l603 -603l-5 309h217z" />
    <glyph glyph-name="uni2199" unicode="&#x2199;" horiz-adv-x="1199" 
d="M946 950l147 -147l-605 -605l311 5v-217h-670l2 670h217l-5 -309z" />
    <glyph glyph-name="uni21AF" unicode="&#x21af;" horiz-adv-x="822" 
d="M531 285l171 125l97 -141l-447 -310l-292 419l145 103l135 -198l107 414l-316 -51l163 680h199l-122 -472l310 44z" />
    <glyph glyph-name="arrowdbldown" unicode="&#x21d3;" horiz-adv-x="1319" 
d="M444 1326h175v-1073h-104l-365 453l149 99l145 -213v734zM700 253v1073h175v-734l145 213l149 -99l-364 -453h-105zM23 0v179h1273v-179h-1273z" />
    <glyph glyph-name="uni21DE" unicode="&#x21de;" horiz-adv-x="1061" 
d="M1005 863l-154 -154l-214 223v-304h161v-145h-161v-87h161v-143h-161v-173h-209v173h-164v143h164v87h-164v145h164v304l-218 -223l-152 154l474 474z" />
    <glyph glyph-name="uni21DF" unicode="&#x21df;" horiz-adv-x="1061" 
d="M637 306l214 223l154 -154l-473 -474l-474 474l152 154l218 -223v304h-164v145h164v87h-164v143h164v173h209v-173h161v-143h-161v-87h161v-145h-161v-304z" />
    <glyph glyph-name="uni21E7" unicode="&#x21e7;" horiz-adv-x="1451" 
d="M727 1265l656 -713v-6h-331v-546h-651v546h-332v4zM881 157v524h155l-309 318l-310 -318h156v-524h308z" />
    <glyph glyph-name="uni21E9" unicode="&#x21e9;" horiz-adv-x="1451" 
d="M1383 692v-6l-656 -713l-658 715v4h332v546h651v-546h331zM1036 557h-155v524h-308v-524h-156l310 -318z" />
    <glyph glyph-name="uni21EA" unicode="&#x21ea;" horiz-adv-x="1451" 
d="M727 1265l656 -713v-6h-331v-198h-651v198h-332v4zM883 501v180h157l-313 320l-313 -320h157v-180h312zM401 288h651v-288h-651v288zM883 133v26h-312v-26h312z" />
    <glyph glyph-name="uni21F1" unicode="&#x21f1;" horiz-adv-x="1349" 
d="M96 1326h995v-90h-902v-941h-93v1031zM654 897l533 -533l-129 -129l-533 533v-237h-166v530h524v-164h-229z" />
    <glyph glyph-name="partialdiff" unicode="&#x2202;" horiz-adv-x="1011" 
d="M812 803q73 -93 107 -188q32 -89 32 -189q0 -214 -113 -325q-114 -112 -336 -112t-336 112q-113 111 -113 325q0 123 49 212q48 86 132 133q83 46 190 46q20 0 52 -3l-338 424h334zM617 264q41 56 41 160q0 100 -42 156q-42 55 -114 55q-75 0 -115 -55t-40 -156
q0 -105 40 -160t115 -55t115 55z" />
    <glyph glyph-name="emptyset" unicode="&#x2205;" horiz-adv-x="1421" 
d="M1148 1074q88 -85 140 -205q51 -117 51 -252q0 -172 -83 -317q-82 -143 -228 -227q-143 -82 -317 -82q-172 0 -317 83l-56 -74h-184l122 161q-92 89 -142 204q-51 117 -51 252q0 174 84 318q85 146 227 227q145 83 317 83q173 0 318 -83l59 76h184zM289 445
q33 -83 91 -144l545 721q-101 53 -214 53q-126 0 -230 -61t-164 -166q-61 -107 -61 -231q0 -89 33 -172zM940 220q105 62 164 166q60 105 60 231q0 91 -32 173q-32 81 -90 144l-545 -722q101 -53 214 -53q126 0 229 61z" />
    <glyph glyph-name="uni2206" unicode="&#x2206;" horiz-adv-x="1209" 
d="M467 1238h274l472 -1238h-1217zM605 943l-267 -734h537z" />
    <glyph glyph-name="product" unicode="&#x220f;" horiz-adv-x="1342" 
d="M122 -354v1680h1098v-1680h-283v1472h-532v-1472h-283z" />
    <glyph glyph-name="summation" unicode="&#x2211;" horiz-adv-x="1055" 
d="M32 1326h948v-208h-525l399 -632l-399 -631h525v-209h-948l530 840z" />
    <glyph glyph-name="minus" unicode="&#x2212;" horiz-adv-x="742" 
d="M69 432v208h605v-208h-605z" />
    <glyph glyph-name="radical" unicode="&#x221a;" horiz-adv-x="1193" 
d="M665 -354h-302l-329 846l263 106l211 -554l389 1282h268z" />
    <glyph glyph-name="infinity" unicode="&#x221e;" horiz-adv-x="1395" 
d="M1254 786q78 -90 78 -250t-78 -250t-202 -90q-83 0 -177 52q-96 54 -175 141q-82 -89 -177 -141q-94 -52 -178 -52q-126 0 -204 90q-77 89 -77 250t77 250t204 89q84 0 178 -52q96 -54 177 -140q77 85 175 140q94 52 177 52q125 0 202 -89zM592 536q-127 129 -221 129
q-53 0 -82 -34t-29 -95q0 -62 29 -96q29 -33 82 -33q94 0 221 129zM1105 442q30 36 30 94t-30 94q-29 35 -79 35q-96 0 -218 -129q122 -129 218 -129q50 0 79 35z" />
    <glyph glyph-name="integral" unicode="&#x222b;" horiz-adv-x="707" 
d="M748 1312l-28 -182q-56 12 -101 12q-49 0 -66 -24q-19 -27 -22 -87l-71 -1088q-9 -154 -74 -230q-64 -74 -204 -74q-116 0 -223 25l27 182q58 -12 102 -12q49 0 67 25q19 27 22 86l71 1088q9 156 74 230t207 74q97 0 219 -25z" />
    <glyph glyph-name="approxequal" unicode="&#x2248;" horiz-adv-x="921" 
d="M826 637q-86 -76 -200 -76q-54 0 -90 16q-40 17 -87 49q-42 30 -75 45t-77 15q-103 0 -200 -83v196q90 78 200 78q54 0 91 -17q36 -16 84 -48q42 -30 76 -44q37 -15 78 -15q109 0 200 82v-198zM826 269q-84 -74 -200 -74q-56 0 -90 15q-35 16 -87 50q-39 28 -73 43
q-33 15 -79 15q-103 0 -200 -83v197q89 77 200 77q56 0 91 -16q31 -14 84 -49q42 -30 76 -44t78 -14q108 0 200 81v-198z" />
    <glyph glyph-name="notequal" unicode="&#x2260;" horiz-adv-x="1057" 
d="M959 838v-196h-264l-106 -212h370v-197h-471l-113 -224h-228l115 224h-159v197h258l108 212h-366v196h465l109 214h227l-108 -214h163z" />
    <glyph glyph-name="lessequal" unicode="&#x2264;" horiz-adv-x="955" 
d="M808 355l-679 321v205l679 322v-221l-453 -204l453 -201v-222zM140 239h686v-200h-686v200z" />
    <glyph glyph-name="greaterequal" unicode="&#x2265;" horiz-adv-x="955" 
d="M826 881v-205l-679 -321v222l453 201l-453 204v221zM129 39v200h686v-200h-686z" />
    <glyph glyph-name="uni2318" unicode="&#x2318;" horiz-adv-x="1354" 
d="M1054 501q72 0 133 -35q57 -33 95 -94q36 -59 36 -130q0 -72 -36 -131q-38 -61 -95 -94q-61 -35 -133 -35q-71 0 -133 35q-61 34 -96 94q-34 58 -34 131v117h-225v-117q0 -74 -35 -131q-37 -60 -97 -94q-62 -35 -133 -35q-72 0 -133 35q-58 33 -95 94q-36 59 -36 131
t36 130q37 61 95 94q61 35 133 35h115v235h-115q-74 0 -133 34q-58 33 -95 94q-36 58 -36 132q0 72 36 131q37 61 95 94q61 35 133 35q71 0 133 -35q60 -34 97 -94q35 -57 35 -131v-117h225v117q0 73 34 131q35 60 96 94q62 35 133 35q72 0 133 -35q57 -33 95 -94
q36 -59 36 -131q0 -74 -36 -132q-38 -61 -95 -94q-59 -34 -133 -34h-115v-235h115zM416 879v117q0 49 -34 83q-33 33 -81 33t-81 -33t-33 -83t33 -83q34 -34 81 -34h115zM939 879h115q47 0 81 34q32 32 32 83t-32 83q-33 33 -81 33t-81 -33q-34 -34 -34 -83v-117zM791 736
h-225v-235h225v235zM416 359h-115q-47 0 -81 -34q-33 -33 -33 -83t33 -83t81 -33t81 33q34 34 34 83v117zM939 359v-117q0 -49 34 -83q33 -33 81 -33t81 33q32 32 32 83t-32 83q-34 34 -81 34h-115z" />
    <glyph glyph-name="uni2325" unicode="&#x2325;" horiz-adv-x="1423" 
d="M1013 209h283v-209h-399l-508 1029h-285v209h402zM1296 1029h-463v209h463v-209z" />
    <glyph glyph-name="uni2326" unicode="&#x2326;" horiz-adv-x="1832" 
d="M145 1238h1143l496 -619l-496 -619h-1143v1238zM313 154h881l376 465l-376 465h-881v-930zM1194 847l-227 -226l229 -230l-128 -127l-228 228l-228 -228l-129 127l230 230l-228 226l129 127l226 -226l226 226z" />
    <glyph glyph-name="uni232B" unicode="&#x232b;" horiz-adv-x="1832" 
d="M48 619l497 619h1142v-1238h-1142zM638 154h881v930h-881l-376 -465zM865 621l-227 226l128 127l226 -226l227 226l129 -127l-227 -226l228 -230l-129 -127l-228 228l-228 -228l-127 127z" />
    <glyph glyph-name="uni2380" unicode="&#x2380;" horiz-adv-x="1041" 
d="M296 967q94 65 295 71q-6 50 -29 69q-25 20 -76 20q-74 0 -208 -34l-32 127q71 23 141 35q74 13 142 13q135 0 194 -57t59 -198v-428h-190v68q-67 -73 -176 -73q-97 0 -156 55q-60 55 -60 148q0 118 96 184zM592 913q-113 -9 -158 -37q-43 -27 -43 -71q0 -33 24 -54
t68 -21q48 1 79 32q30 30 30 92v59zM520 228l306 350l134 -127l-437 -465h-7l-436 467l136 125z" />
    <glyph glyph-name="uni2387" unicode="&#x2387;" horiz-adv-x="1423" 
d="M1296 1238v-209h-283l-507 -1029h-402v209h285l508 1029h399zM833 0v209h463v-209h-463z" />
    <glyph glyph-name="uni23CE" unicode="&#x23ce;" horiz-adv-x="1503" 
d="M1137 1061h181v-488q0 -96 -25 -149q-26 -55 -81 -77q-57 -23 -153 -23h-670l257 -241l-131 -129l-469 463l469 467l131 -129l-264 -251h638q61 0 89 25t28 83v449z" />
    <glyph glyph-name="uni2400" unicode="&#x2400;" horiz-adv-x="1375" 
d="M1289 1051l-226 -227q49 -59 76 -135q26 -72 26 -158q0 -130 -64 -239q-65 -110 -174 -174q-110 -65 -239 -65q-83 0 -158 27q-78 28 -136 76l-226 -227l-81 82l226 226q-49 59 -76 135q-27 75 -27 159q0 128 65 238q65 111 174 175t239 64q86 0 158 -26q78 -28 136 -76
l226 226zM407 331l481 481q-89 63 -200 63q-94 0 -171 -46q-79 -47 -125 -124q-47 -79 -47 -171q0 -112 62 -203zM969 730l-481 -481q88 -63 200 -63q94 0 171 46q79 47 125 124q47 79 47 171q0 112 -62 203z" />
    <glyph glyph-name="uni24D8" unicode="&#x24d8;" horiz-adv-x="1421" 
d="M394 74q-142 81 -227 227q-84 144 -84 316q0 174 84 318q85 146 227 227q145 83 317 83t317 -83q146 -84 228 -227q83 -145 83 -318q0 -172 -83 -317q-82 -143 -228 -227q-143 -82 -317 -82q-172 0 -317 83zM940 220q105 62 164 166q60 105 60 231t-60 231
q-59 104 -164 166q-103 61 -229 61t-230 -61t-164 -166q-61 -107 -61 -231t61 -231q60 -105 164 -166t230 -61t229 61zM622 795q-35 29 -35 77t35 78q34 30 89 30t89 -30q35 -30 35 -78t-35 -77t-89 -29t-89 29zM815 278h-210v417h210v-417z" />
    <glyph glyph-name="uni24FF" unicode="&#x24ff;" horiz-adv-x="1429" 
d="M399 73q-144 83 -227 227q-84 147 -84 315q0 170 84 317q82 144 226 226q147 84 317 84q169 0 316 -84q144 -82 226 -226q84 -147 84 -317q0 -169 -84 -316q-82 -144 -226 -226q-147 -84 -316 -84t-316 84zM929 298q70 64 70 203v231q0 137 -70 201t-215 64
q-144 0 -214 -64t-70 -201v-231q0 -139 70 -203q71 -65 214 -65q144 0 215 65zM633 395q-26 27 -26 93v257q0 63 26 90q27 28 81 28q107 0 107 -118v-257q0 -122 -107 -122q-54 0 -81 29z" />
    <glyph glyph-name="filledbox" unicode="&#x25a0;" horiz-adv-x="1273" 
d="M106 0v1061h1061v-1061h-1061z" />
    <glyph glyph-name="uni25A1" unicode="&#x25a1;" horiz-adv-x="1275" 
d="M106 0v1063h1063v-1063h-1063zM1003 902h-729v-739h729v739z" />
    <glyph glyph-name="uni25A4" unicode="&#x25a4;" horiz-adv-x="1499" 
d="M131 0v1238h1238v-1238h-1238zM209 1162v-94h1082v94h-1082zM209 904h1082v93h-1082v-93zM209 737h1082v96h-1082v-96zM209 571h1082v96h-1082v-96zM209 405h1082v96h-1082v-96zM209 239h1082v95h-1082v-95zM209 76h1082v92h-1082v-92z" />
    <glyph glyph-name="triagup" unicode="&#x25b2;" horiz-adv-x="1358" 
d="M1341 0h-1323l661 1173z" />
    <glyph glyph-name="uni25B3" unicode="&#x25b3;" horiz-adv-x="1358" 
d="M1341 0h-1323l661 1173zM679 822l-368 -654h738z" />
    <glyph glyph-name="triagdn" unicode="&#x25bc;" horiz-adv-x="1358" 
d="M679 -111l-661 1172h1323z" />
    <glyph glyph-name="uni25BD" unicode="&#x25bd;" horiz-adv-x="1358" 
d="M679 -111l-661 1172h1323zM1049 893h-738l368 -654z" />
    <glyph glyph-name="uni25C6" unicode="&#x25c6;" horiz-adv-x="1061" 
d="M997 619l-466 -467l-467 467l467 467z" />
    <glyph glyph-name="uni25C7" unicode="&#x25c7;" horiz-adv-x="1061" 
d="M997 619l-466 -467l-467 467l467 467zM283 619l248 -248l247 248l-247 248z" />
    <glyph glyph-name="lozenge" unicode="&#x25ca;" horiz-adv-x="1018" 
d="M30 608l478 708l481 -708l-481 -704zM232 608l276 -412l277 412l-277 414z" />
    <glyph glyph-name="circle" unicode="&#x25cb;" horiz-adv-x="1421" 
d="M394 74q-142 81 -227 227q-84 144 -84 316q0 174 84 318q85 146 227 227q145 83 317 83t317 -83q146 -84 228 -227q83 -145 83 -318q0 -172 -83 -317q-82 -143 -228 -227q-143 -82 -317 -82q-172 0 -317 83zM940 220q105 62 164 166q60 105 60 231t-60 231
q-59 104 -164 166q-103 61 -229 61t-230 -61t-164 -166q-61 -107 -61 -231t61 -231q60 -105 164 -166t230 -61t229 61z" />
    <glyph glyph-name="uni25CC" unicode="&#x25cc;" horiz-adv-x="1420" 
d="M637 1066q-30 30 -30 75q0 44 30 74t74 30q42 0 72 -30q31 -31 31 -74q0 -44 -31 -75q-30 -30 -72 -30q-44 0 -74 30zM265 1061q30 30 75 30q42 0 72 -30t30 -72q0 -45 -30 -75t-72 -30q-45 0 -75 30t-30 75q0 42 30 72zM1006 1061q30 30 75 30t73 -30q29 -31 29 -72
q0 -44 -29 -75q-28 -30 -73 -30t-75 30t-30 75q0 42 30 72zM112 543q-29 31 -29 74q0 42 29 73q28 30 74 30q44 0 73 -30q29 -31 29 -73q0 -43 -29 -74q-29 -30 -73 -30q-46 0 -74 30zM1161 543q-29 31 -29 74q0 42 29 73q29 30 73 30q46 0 74 -30q29 -31 29 -73
q0 -43 -29 -74q-28 -30 -74 -30q-44 0 -73 30zM265 320q30 30 75 30q42 0 72 -30t30 -74q0 -43 -30 -73t-72 -30q-45 0 -75 30t-30 73q0 44 30 74zM1006 318q30 30 75 30t73 -30q29 -31 29 -74q0 -41 -29 -72t-73 -31t-75 31q-30 30 -30 72q0 44 30 74zM637 19
q-30 30 -30 75q0 44 30 73q31 29 74 29q41 0 72 -29t31 -73t-31 -75q-30 -30 -72 -30q-44 0 -74 30z" />
    <glyph glyph-name="uni25CF" unicode="&#x25cf;" horiz-adv-x="1421" 
d="M394 74q-142 81 -227 227q-84 144 -84 316q0 174 84 318q85 146 227 227q145 83 317 83t317 -83q146 -84 228 -227q83 -145 83 -318q0 -172 -83 -317q-82 -143 -228 -227q-143 -82 -317 -82q-172 0 -317 83z" />
    <glyph glyph-name="uni2605" unicode="&#x2605;" horiz-adv-x="1457" 
d="M727 191l-460 -285l126 527l-411 350l538 41l209 502l207 -502l539 -41l-414 -350l131 -527z" />
    <glyph glyph-name="uni2606" unicode="&#x2606;" horiz-adv-x="1457" 
d="M727 200l-460 -294l134 531l-419 346l543 34l204 509l201 -509l545 -34l-423 -346l140 -531zM577 495l-71 -260l226 147l223 -147l-69 260l207 166l-267 15l-94 249l-94 -249l-268 -15z" />
    <glyph glyph-name="uni2610" unicode="&#x2610;" horiz-adv-x="1275" 
d="M106 0v1063h1063v-1063h-1063zM1003 902h-729v-739h729v739z" />
    <glyph glyph-name="uni2611" unicode="&#x2611;" horiz-adv-x="1275" 
d="M106 0v1063h1063v-1063h-1063zM1003 902h-729v-739h729v739zM711 246h-179l-198 323l142 87l132 -223l140 382h168z" />
    <glyph glyph-name="uni2612" unicode="&#x2612;" horiz-adv-x="1275" 
d="M106 0v1063h1063v-1063h-1063zM274 163h729v739h-729v-739zM637 419l-172 -171l-110 109l172 172l-172 171l110 110l172 -172l171 172l110 -110l-172 -171l172 -172l-110 -109z" />
    <glyph glyph-name="uni262E" unicode="&#x262e;" horiz-adv-x="1421" 
d="M1028 1162q146 -84 228 -227q83 -145 83 -318q0 -172 -83 -317q-82 -143 -228 -227q-143 -82 -317 -82q-172 0 -317 83q-142 81 -227 227q-84 144 -84 316q0 174 84 318q85 146 227 227q145 83 317 83t317 -83zM630 1068q-106 -18 -191 -82q-86 -65 -134 -161
q-49 -98 -49 -208q0 -87 34 -177l340 260v368zM1118 823q-47 96 -128 159t-185 84v-366l329 -251q30 79 30 168q0 113 -46 206zM805 168q145 31 244 141l-244 192v-333zM378 302q104 -109 252 -136v333z" />
    <glyph glyph-name="uni262F" unicode="&#x262f;" horiz-adv-x="1421" 
d="M1028 1162q146 -84 228 -227q83 -145 83 -318q0 -172 -83 -317q-82 -143 -228 -227q-143 -82 -317 -82q-172 0 -317 83q-142 81 -227 227q-84 144 -84 316q0 174 84 318q85 146 227 227q145 83 317 83t317 -83zM484 1015q-103 -59 -165 -163q-62 -102 -63 -226
q6 -100 69 -142t138 -42q71 0 118 28q45 27 71 68q22 35 50 104q69 170 221 170q94 0 160 -52q65 -51 81 -139q0 126 -61 230q-61 103 -165 164q-104 60 -227 60t-227 -60z" />
    <glyph glyph-name="smileface" unicode="&#x263a;" horiz-adv-x="1421" 
d="M394 74q-142 81 -227 227q-84 144 -84 316q0 174 84 318q85 146 227 227q145 83 317 83t317 -83q146 -84 228 -227q83 -145 83 -318q0 -172 -83 -317q-82 -143 -228 -227q-143 -82 -317 -82q-172 0 -317 83zM940 220q105 62 164 166q60 105 60 231t-60 231
q-59 104 -164 166q-103 61 -229 61t-230 -61t-164 -166q-61 -107 -61 -231t61 -231q60 -105 164 -166t230 -61t229 61zM487 701q-32 32 -32 82q0 51 32 83t82 32q47 0 79 -32q33 -33 33 -83q0 -48 -32 -82q-31 -32 -80 -32q-50 0 -82 32zM788 701q-33 33 -33 82q0 43 35 80
q34 35 80 35q48 0 80 -35q33 -36 33 -80q0 -50 -32 -82t-81 -32q-50 0 -82 32zM1063 592q0 -91 -46 -165t-125 -118t-174 -44t-174 44q-80 45 -124 118q-45 75 -45 165h156q0 -76 54 -129q55 -53 133 -53q79 0 135 53t56 129h154z" />
    <glyph glyph-name="uni263F" unicode="&#x263f;" horiz-adv-x="1414" 
d="M810 773q141 -32 234 -147q91 -112 91 -260q0 -119 -56 -213q-57 -96 -155 -152t-217 -56q-116 0 -214 56q-99 57 -156 152q-58 98 -58 213q0 94 43 182q42 85 116 144q76 60 167 81l14 150l-159 -78l-64 202l175 35l-120 135l173 125l82 -148l88 148l172 -125l-126 -135
l179 -35l-64 -202l-166 80zM862 209q63 63 63 157t-63 157q-64 64 -155 64q-90 0 -154 -62q-63 -61 -63 -152q0 -97 63 -163q62 -65 154 -65q91 0 155 64z" />
    <glyph glyph-name="female" unicode="&#x2640;" horiz-adv-x="1768" 
d="M1781 30q0 -21 -20 -35q-39 -27 -116 -42q-78 -15 -170 -15q-127 0 -218 25q-172 -110 -373 -110t-373 110q-91 -25 -217 -25q-92 0 -170 15t-117 42q-19 13 -19 35q0 31 28 50q92 67 133 195q40 126 40 273q0 186 94 348q93 161 254 254t347 93q188 0 348 -93
q161 -93 254 -254q93 -160 93 -348q0 -147 40 -273q40 -127 134 -195q28 -19 28 -50zM630 1081q-119 -60 -206 -166q-84 -103 -114 -232q153 11 337 67q188 58 315 164q29 25 55 25q25 0 44 -25q89 -104 203 -167q110 -61 197 -73q-30 132 -114 238q-84 107 -205 168
t-258 61q-134 0 -254 -60zM374 255q82 -138 217 -218q137 -81 293 -81q158 0 294 81q135 80 217 218q80 135 80 293v27q-100 7 -226 63q-127 56 -241 179q-159 -125 -358 -178q-196 -52 -355 -54q-1 -8 -1 -37q0 -158 80 -293zM628 512q16 -23 16 -63q0 -37 -16 -62
q-16 -24 -43 -24t-43 24q-17 26 -17 62q0 40 16 63q17 24 44 24t43 -24zM1227 512q16 -23 16 -63q0 -37 -16 -62q-16 -24 -42 -24q-27 0 -43 24q-17 26 -17 62q0 40 16 63q17 24 44 24q25 0 42 -24zM272 37q48 0 129 13q-103 102 -155 226q-36 -155 -113 -214
q54 -25 139 -25zM1496 37q86 0 140 25q-77 59 -113 214q-51 -123 -156 -226q81 -13 129 -13zM1068 265q21 0 32 -14q14 -14 14 -32q0 -23 -23 -44q-89 -78 -207 -78t-207 78q-23 21 -23 44q0 17 15 32q14 14 31 14q20 0 37 -16q26 -24 68 -39q40 -14 79 -14q40 0 80 14
q41 14 67 39q19 16 37 16z" />
    <glyph glyph-name="male" unicode="&#x2642;" horiz-adv-x="1768" 
d="M1232 1150q161 -93 254 -254q93 -160 93 -348q0 -186 -93 -347t-254 -254q-162 -94 -348 -94q-185 0 -347 94q-161 93 -254 254q-94 162 -94 347q0 186 94 348q93 161 254 254t347 93q188 0 348 -93zM628 1082q-119 -60 -205 -165q-85 -104 -115 -234q152 9 337 65
q188 57 317 166q29 25 55 25q25 0 44 -25q88 -103 204 -167q110 -61 198 -73q-29 132 -114 238q-87 108 -207 169q-121 61 -258 61q-136 0 -256 -60zM1179 35q134 80 217 219q81 136 81 294v27q-104 6 -228 61q-126 55 -241 181q-159 -125 -359 -178q-198 -53 -355 -54
q-2 -16 -2 -37q0 -159 80 -294q82 -138 218 -219t294 -81t295 81zM628 512q16 -23 16 -63q0 -37 -16 -62q-16 -24 -43 -24t-43 24q-17 26 -17 62q0 40 16 63q17 24 44 24t43 -24zM1227 512q16 -23 16 -63q0 -37 -16 -62q-16 -24 -42 -24q-27 0 -43 24q-17 26 -17 62
q0 40 16 63q17 24 44 24q25 0 42 -24zM1068 265q21 0 32 -14q14 -14 14 -32q0 -23 -23 -44q-89 -78 -207 -78t-207 78q-23 21 -23 44q0 17 15 32q14 14 31 14q20 0 37 -16q26 -24 68 -39q40 -14 79 -14q40 0 80 14q41 14 67 39q19 16 37 16z" />
    <glyph glyph-name="uni2661" unicode="&#x2661;" horiz-adv-x="1400" 
d="M1169 1095q76 -42 120 -118t44 -165q0 -85 -35 -159q-38 -81 -111 -158l-488 -527l-485 527q-73 77 -111 158q-36 77 -36 159q0 89 43 166q42 75 117 117t171 42t163 -38q65 -37 138 -119q79 84 140 120q62 37 158 37q95 0 172 -42zM907 950q-32 -20 -88 -76l-120 -122
l-117 122q-53 54 -89 76q-38 23 -88 23q-74 0 -119 -48t-45 -122q0 -97 79 -177l379 -407l380 407q43 47 62 89q19 41 19 88q0 75 -46 122q-46 48 -122 48q-48 0 -85 -23z" />
    <glyph glyph-name="heart" unicode="&#x2665;" horiz-adv-x="1390" 
d="M1158 1102q74 -43 118 -120q43 -76 43 -167q0 -79 -37 -154q-39 -80 -111 -159l-476 -521l-477 521q-75 80 -111 158q-36 76 -36 155q0 93 41 168q42 77 116 120t166 43q97 0 158 -36t143 -116q81 81 141 116q62 36 153 36q93 0 169 -44z" />
    <glyph glyph-name="diamond" unicode="&#x2666;" horiz-adv-x="1130" 
d="M564 1351l485 -721l-485 -298l-484 315zM57 562l507 -359l508 342l-508 -761z" />
    <glyph glyph-name="uni26A5" unicode="&#x26a5;" horiz-adv-x="1768" 
d="M1737 653q0 -16 -16 -25q-37 -20 -108 -20q-69 0 -127 18q-93 -64 -207 -64q-117 0 -207 64q-58 -18 -128 -18t-107 20q-18 8 -18 26q0 20 19 30q37 21 58 96q20 71 20 148q0 104 48 186q49 84 131 132q84 49 184 49t184 -49q80 -47 130 -132q48 -83 48 -186
q0 -70 20 -147q19 -75 51 -93q25 -13 25 -35zM133 999q-29 0 -29 29v194q0 30 29 30h583q30 0 30 -30v-194q0 -29 -30 -29h-583zM1090 1171q-80 -66 -103 -168q78 6 165 35q88 29 155 92q11 11 23 11q18 0 30 -21q41 -58 102 -92q60 -34 114 -43q-20 109 -102 180
q-83 71 -195 71q-109 0 -189 -65zM686 1196h-522v-140h522v140zM1018 774q41 -71 109 -111t152 -40q85 0 152 38q68 39 109 108q39 67 41 154q-56 7 -128 41q-70 33 -127 99q-132 -115 -348 -126v-9q0 -84 40 -154zM1140 912q8 -14 8 -38q0 -23 -8 -37q-7 -13 -21 -13
q-13 0 -22 13t-9 37t9 38q9 13 22 13q14 0 21 -13zM1462 912q8 -14 8 -38q0 -23 -8 -37q-7 -13 -21 -13t-23 13q-8 12 -8 37q0 26 8 38q9 13 23 13t21 -13zM133 660q-29 0 -29 30v193q0 30 29 30h583q30 0 30 -30v-193q0 -30 -30 -30h-583zM686 856h-522v-140h522v140z
M946 665q31 0 74 7q-45 51 -67 110q-17 -81 -53 -113q34 -4 46 -4zM1608 665q29 0 47 4q-38 26 -51 111q-22 -56 -67 -108q27 -7 71 -7zM1374 766q12 0 23 -11q7 -7 7 -18q0 -12 -12 -24q-44 -39 -113 -39q-73 0 -112 39q-12 11 -12 24q0 12 10 22q6 7 16 7q9 0 18 -9
q31 -27 81 -27q43 0 80 29q6 7 14 7zM623 509q85 -50 134 -135t49 -187q0 -98 -49 -180q-51 -84 -134 -132q-84 -48 -184 -48q-98 0 -180 49q-83 50 -131 134t-48 183t48 183q47 83 131 133q83 50 180 50q99 0 184 -50zM255 435q-83 -66 -108 -168q79 7 168 36q87 28 150 91
q14 11 23 11q20 0 32 -21q40 -55 107 -92q63 -35 116 -43q-19 108 -105 180q-84 71 -194 71q-108 0 -189 -65zM1643 163q2 -4 2 -11q0 -13 -18 -19l-136 -32l92 -101q9 -9 9 -18t-13 -19l-198 -133q-6 -5 -14 -5q-10 0 -16 11l-74 118l-73 -118q-6 -11 -16 -11q-8 0 -15 5
l-199 133q-12 9 -12 19q0 9 9 18l92 101l-138 32q-21 8 -14 30l74 219q7 19 28 12l131 -53l-9 135v3q0 20 22 20h242q24 0 21 -23l-10 -135l129 55q4 2 10 2q5 0 13 -4q6 -3 7 -10zM1516 -12l-124 145l189 47l-53 147l-179 -65l9 184h-162l10 -184l-180 65l-52 -147l186 -47
l-120 -145l133 -92l104 157l106 -157zM594 -74q70 41 111 110q41 70 43 151q-59 6 -131 39t-131 101q-77 -67 -171 -94q-97 -28 -177 -31v-9q0 -83 42 -154t111 -112q71 -42 153 -42q80 0 150 41zM298 176q8 -14 8 -38q0 -22 -8 -36t-22 -14t-22 14t-8 36q0 24 8 38
q7 13 22 13t22 -13zM623 176q8 -14 8 -38q0 -22 -8 -36t-22 -14t-22 14t-8 36q0 24 8 38q7 13 22 13t22 -13zM538 37q10 0 17 -7q9 -9 9 -21q0 -14 -14 -25q-14 -14 -46 -27q-30 -12 -65 -12q-36 0 -66 12q-33 13 -48 27q-14 11 -14 27q0 7 9 19q7 7 18 7t23 -9
q11 -11 33 -19q20 -7 45 -7q23 0 43 7q22 8 33 19q12 9 23 9z" />
    <glyph glyph-name="uni272A" unicode="&#x272a;" horiz-adv-x="1421" 
d="M1028 1162q146 -84 228 -227q83 -145 83 -318q0 -172 -83 -317q-82 -143 -228 -227q-143 -82 -317 -82q-172 0 -317 83q-142 81 -227 227q-84 144 -84 316q0 174 84 318q85 146 227 227q145 83 317 83t317 -83z" />
    <glyph glyph-name="uni2731" unicode="&#x2731;" horiz-adv-x="1305" 
d="M1125 1038l127 -219l-346 -200l346 -200l-127 -219l-343 198v-398h-257v400l-345 -200l-127 219l347 200l-347 200l127 219l345 -200v400h257v-398z" />
    <glyph glyph-name="uni2732" unicode="&#x2732;" horiz-adv-x="1250" 
d="M707 780h-162v458h162v-458zM525 769l-83 -143l-400 232l85 145zM808 628l-81 141l398 234l83 -143zM1208 378l-85 -145l-396 232l81 142zM129 235l-83 143l398 227l81 -140zM707 0h-162v455h162v-455z" />
    <glyph glyph-name="uni275B" unicode="&#x275b;" horiz-adv-x="820" 
d="M361 916q68 39 140 39q64 0 122 -32q56 -31 89 -93q33 -61 33 -142q0 -89 -44 -162q-44 -72 -119 -112q-77 -41 -172 -41q-98 0 -175 46q-79 47 -122 127q-44 82 -44 183q0 136 70 257q71 122 203 195q133 73 314 73v-140q-102 -1 -191 -55q-87 -53 -117 -139z" />
    <glyph glyph-name="uni275C" unicode="&#x275c;" horiz-adv-x="820" 
d="M584 1208q79 -47 122 -127q44 -82 44 -183q0 -136 -70 -257t-203 -194q-134 -74 -314 -74v140q102 1 191 55q86 52 116 139l-12 4q-68 -39 -140 -39q-64 0 -122 32q-56 31 -89 93t-33 142q0 89 44 162q44 72 119 112q77 41 172 41q98 0 175 -46z" />
    <glyph glyph-name="uni275D" unicode="&#x275d;" horiz-adv-x="1545" 
d="M361 916q68 39 140 39q64 0 122 -32q56 -31 89 -93q33 -61 33 -142q0 -89 -44 -162q-44 -72 -119 -112q-77 -41 -172 -41q-98 0 -175 46q-79 47 -122 127q-44 82 -44 183q0 136 70 257q71 122 203 195q133 73 314 73v-140q-102 -1 -191 -55q-87 -53 -117 -139zM1086 916
q68 39 140 39q64 0 122 -32q56 -31 89 -93q33 -61 33 -142q0 -89 -44 -162q-44 -72 -119 -112q-77 -41 -172 -41q-98 0 -175 46q-79 47 -122 127q-44 82 -44 183q0 136 70 257q71 122 203 195q133 73 314 73v-140q-102 -1 -191 -55q-86 -52 -116 -139z" />
    <glyph glyph-name="uni275E" unicode="&#x275e;" horiz-adv-x="1545" 
d="M584 1208q79 -47 122 -127q44 -82 44 -183q0 -136 -70 -257t-203 -194q-134 -74 -314 -74v140q102 1 191 55q86 52 116 139l-12 4q-68 -39 -140 -39q-64 0 -122 32q-56 31 -89 93t-33 142q0 89 44 162q44 72 119 112q77 41 172 41q98 0 175 -46zM1309 1208
q79 -47 122 -127q44 -82 44 -183q0 -136 -70 -257t-203 -194q-134 -74 -314 -74v140q102 1 191 55q87 53 117 139l-13 4q-67 -39 -140 -39q-64 0 -122 32q-56 31 -89 93t-33 142q0 89 44 162q44 72 119 112q77 41 172 41q98 0 175 -46z" />
    <glyph glyph-name="uni2761" unicode="&#x2761;" horiz-adv-x="1315" 
d="M1176 1238v-974q0 -286 -118 -437q-119 -152 -409 -152q-198 0 -327 80q-133 83 -193 204q-62 126 -65 257l189 49q23 -288 209 -288q81 0 120 69t39 205v150q-243 3 -371 107t-128 313q0 211 127 314t372 103h555zM894 -27q70 104 70 291v779h-131v-792q0 -145 -37 -238
q-38 -95 -115 -147q142 1 213 107z" />
    <glyph glyph-name="uni2776" unicode="&#x2776;" horiz-adv-x="1429" 
d="M399 73q-144 83 -227 227q-84 147 -84 315q0 170 84 317q82 144 226 226q147 84 317 84q169 0 316 -84q144 -82 226 -226q84 -147 84 -317q0 -169 -84 -316q-82 -144 -226 -226q-147 -84 -316 -84t-316 84zM522 241h387v134h-94v615h-141q-9 -62 -32 -83q-17 -14 -40 -18
q-27 -5 -71 -5v-134h106v-375h-115v-134z" />
    <glyph glyph-name="uni2777" unicode="&#x2777;" horiz-adv-x="1429" 
d="M399 73q-144 83 -227 227q-84 147 -84 315q0 170 84 317q82 144 226 226q147 84 317 84q169 0 316 -84q144 -82 226 -226q84 -147 84 -317q0 -169 -84 -316q-82 -144 -226 -226q-147 -84 -316 -84t-316 84zM446 241h525v134h-241l142 180q92 125 92 221q0 107 -66 164
t-184 57q-126 0 -197 -67t-61 -221h170l-2 28q0 57 22 92q22 34 63 34q39 0 60 -21q22 -22 22 -59q0 -33 -18 -74q-17 -37 -59 -97z" />
    </font>
</defs>
</svg>
