<?xml version="1.0" standalone="no"?>
<!DOCTYPE svg PUBLIC "-//W3C//DTD SVG 1.1//EN" "http://www.w3.org/Graphics/SVG/1.1/DTD/svg11.dtd" >
<svg xmlns="http://www.w3.org/2000/svg" xmlns:xlink="http://www.w3.org/1999/xlink" version="1.1">
<metadata>
Created by FontForge 20201107 at Mon Jul  8 07:16:30 2024
 By 
Copyright (c) 2009-2021 Avraham Cornfeld. All rights reserved.
</metadata>
<defs>
<font id="AlmoniMLv5AAA-Light" horiz-adv-x="0" >
  <font-face 
    font-family="Almoni ML v5 AAA Light"
    font-weight="300"
    font-stretch="normal"
    units-per-em="2048"
    panose-1="0 0 4 0 0 0 0 0 0 0"
    ascent="1638"
    descent="-410"
    x-height="973"
    cap-height="1238"
    bbox="-1162 -495 2412 1804"
    underline-thickness="47"
    underline-position="-278"
    unicode-range="U+0020-FFFD"
  />
<missing-glyph horiz-adv-x="926" 
d="M103 0q-23 0 -34 11t-11 33v1148q0 23 10 35q9 11 35 11h721q26 0 35 -11t9 -35v-1148q0 -25 -9 -34q-10 -10 -35 -10h-721zM170 1173l293 -496l294 496h-587zM499 617l297 -507v1022zM131 1130v-1022l297 509zM463 561l-293 -496h587z" />
    <glyph glyph-name="f_f.liga" unicode="ff" horiz-adv-x="1082" 
d="M860 1218q-31 -45 -31 -155v-90h239v-75h-239v-898h-104v898h-437v-898h-106v898h-124v75h124v92q0 143 49 207q48 63 170 63q79 0 177 -19l-10 -69q-89 14 -136 14q-84 0 -114 -43q-30 -44 -30 -155v-90h437v92q0 143 49 207q48 63 170 63q81 0 176 -19l-9 -69
q-89 14 -137 14q-84 0 -114 -43z" />
    <glyph glyph-name="f_f_i.liga" unicode="ffi" horiz-adv-x="1505" 
d="M1355 1312v-168h-110v108q-140 18 -235 18q-100 0 -140 -52q-41 -53 -41 -178v-67h239v-75h-239v-898h-104v898h-437v-898h-106v898h-124v75h124v92q0 143 49 207q48 63 170 63q79 0 177 -19l-10 -69q-89 14 -136 14q-84 0 -114 -43q-30 -44 -30 -155v-90h437v67
q0 162 63 233t213 71q133 0 354 -32zM1351 0h-109v973h109v-973z" />
    <glyph glyph-name="f_f_l.liga" unicode="ffl" horiz-adv-x="1542" 
d="M1484 80v-80h-71q-67 0 -106 14q-37 13 -55 51q-18 37 -18 108v1081q-128 16 -224 16q-100 0 -140 -52q-41 -53 -41 -178v-67h239v-75h-239v-898h-104v898h-437v-898h-106v898h-124v75h124v92q0 143 49 207q48 63 170 63q79 0 177 -19l-10 -69q-89 14 -136 14
q-84 0 -114 -43q-30 -44 -30 -155v-90h437v67q0 162 63 233t213 71q61 0 158 -9q103 -10 182 -21v-1128q0 -65 20 -85q21 -21 77 -21h46z" />
    <glyph glyph-name="f_i.liga" unicode="fi" horiz-adv-x="962" 
d="M812 1312v-168h-110v108q-140 18 -235 18q-98 0 -138 -52q-41 -53 -41 -178v-67h237v-75h-237v-898h-106v898h-124v75h124v67q0 162 63 233t213 71q133 0 354 -32zM808 0h-109v973h109v-973z" />
    <glyph glyph-name="f_l.liga" unicode="fl" horiz-adv-x="999" 
d="M941 80v-80h-71q-67 0 -106 14q-37 13 -55 51q-17 35 -17 108v1081q-128 16 -225 16q-98 0 -138 -52q-41 -53 -41 -178v-67h237v-75h-237v-898h-106v898h-124v75h124v67q0 162 63 233t213 71q60 0 159 -9q102 -9 181 -21v-1128q0 -64 21 -85t76 -21h46z" />
    <glyph glyph-name="uni05D005D005D0.liga" unicode="&#x5d0;&#x5d0;&#x5d0;" horiz-adv-x="2083" 
d="M115 1061h111l793 -1061h-112l-488 654q-86 -10 -132 -67q-46 -56 -46 -155v-432h-108v437q0 112 62 191q61 77 171 97zM1388 0l-790 1061h111l791 -1061h-112zM1981 0h-112l-790 1061h111l453 -608q186 19 186 219v389h108v-392q0 -123 -65 -199t-172 -92z" />
    <glyph glyph-name=".notdef" horiz-adv-x="926" 
d="M103 0q-23 0 -34 11t-11 33v1148q0 23 10 35q9 11 35 11h721q26 0 35 -11t9 -35v-1148q0 -25 -9 -34q-10 -10 -35 -10h-721zM170 1173l293 -496l294 496h-587zM499 617l297 -507v1022zM131 1130v-1022l297 509zM463 561l-293 -496h587z" />
    <glyph glyph-name=".null" 
 />
    <glyph glyph-name="nonmarkingreturn" horiz-adv-x="588" 
 />
    <glyph glyph-name="space" unicode=" " horiz-adv-x="534" 
 />
    <glyph glyph-name="exclam" unicode="!" horiz-adv-x="479" 
d="M186 532v706h109v-706l-12 -219h-85zM184 0v157h113v-157h-113z" />
    <glyph glyph-name="quotedbl" unicode="&#x22;" horiz-adv-x="488" 
d="M76 819l60 419h89l-2 -87l-82 -332h-65zM265 819l60 419h91l-2 -87l-82 -332h-67z" />
    <glyph glyph-name="numbersign" unicode="#" horiz-adv-x="1184" 
d="M1141 888l-18 -80h-210l-80 -327h212l-21 -78h-210l-98 -403h-102l99 403h-354l-101 -403h-101l99 403h-212l20 78h212l79 327h-212l20 80h212l87 350h100l-84 -350h351l87 350h101l-85 -350h209zM375 481h355l80 327h-352z" />
    <glyph glyph-name="dollar" unicode="$" horiz-adv-x="1069" 
d="M889 77q-103 -80 -307 -88v-148h-78v147q-203 8 -305 92q-103 85 -103 272q0 49 3 76h104q-3 -46 -3 -67q0 -145 75 -214q74 -68 229 -76v532q-154 58 -236 112q-87 57 -118 114q-33 60 -33 138q0 117 96 195t291 87v148h78v-147q226 -6 316 -111q92 -108 82 -274h-103
q7 130 -61 214q-67 82 -234 88v-490q162 -59 247 -113q89 -56 126 -118t37 -151q0 -137 -103 -218zM288 826q61 -58 216 -119v458q-141 -11 -208 -66q-68 -56 -68 -135q0 -81 60 -138zM582 73q148 8 222 65q75 58 75 154q0 92 -65 155q-63 62 -232 128v-502z" />
    <glyph glyph-name="percent" unicode="%" horiz-adv-x="1329" 
d="M506 1183q63 -60 63 -173v-255q0 -113 -63 -174q-62 -61 -182 -61q-118 0 -182 61t-64 174v255q0 111 64 172t182 61q119 0 182 -60zM154 752q0 -82 46 -128t124 -46q79 0 125 46t46 128v261q0 82 -46 127q-47 45 -125 45t-124 -45t-46 -127v-261zM1188 654
q64 -61 64 -173v-255q0 -112 -64 -174q-62 -61 -182 -61q-117 0 -181 61q-65 62 -65 174v255q0 110 65 172t181 62q118 0 182 -61zM837 223q0 -81 46 -127t123 -46q80 0 126 46t46 127v262q0 81 -46 126t-126 45q-76 0 -123 -45q-46 -45 -46 -126v-262zM287 0h-75l823 1238
h72z" />
    <glyph glyph-name="ampersand" unicode="&#x26;" horiz-adv-x="1082" 
d="M1035 0h-110l-179 237q-68 -126 -163 -186q-96 -60 -199 -60q-75 0 -140 31t-104 82q-66 82 -66 175q0 154 184 305l147 122l-90 118q-80 103 -80 205q0 98 74 159t207 61q120 0 191 -62q69 -60 69 -152q0 -56 -29 -114t-87 -107l-345 -294q-142 -119 -142 -228
q0 -61 46 -126q27 -39 74 -62q48 -23 101 -23q80 0 157 53q75 51 133 163l214 373h108l-210 -350zM469 759l134 111q43 36 66 80t23 86q0 65 -46 105t-131 40q-93 0 -142 -40t-49 -110q0 -84 70 -175z" />
    <glyph glyph-name="quotesingle" unicode="'" horiz-adv-x="302" 
d="M76 819l60 419h94l-2 -87l-81 -332h-71z" />
    <glyph glyph-name="parenleft" unicode="(" horiz-adv-x="553" 
d="M334 43q67 -217 170 -368h-76q-118 159 -185 369q-68 213 -68 471q0 257 68 470q68 212 185 370h76q-103 -150 -170 -369t-67 -471q0 -253 67 -472z" />
    <glyph glyph-name="parenright" unicode=")" horiz-adv-x="553" 
d="M218 986q-67 219 -170 369h78q116 -156 184 -370q68 -213 68 -470q0 -258 -68 -471t-184 -369h-78q103 151 170 368q69 225 69 472q0 246 -69 471z" />
    <glyph glyph-name="asterisk" unicode="*" horiz-adv-x="659" 
d="M580 1100l27 -81l-229 -60l149 -186l-69 -51l-131 194l-124 -194l-69 51l145 186l-226 60l27 81l217 -85l-10 239h86l-14 -241z" />
    <glyph glyph-name="plus" unicode="+" horiz-adv-x="753" 
d="M414 573h253v-74h-253v-253h-74v253h-253v74h253v253h74v-253z" />
    <glyph glyph-name="comma" unicode="," horiz-adv-x="281" 
d="M64 -200l30 389h93v-115l-60 -274h-63z" />
    <glyph glyph-name="hyphen" unicode="-" horiz-adv-x="679" 
d="M87 497v78h505v-78h-505z" />
    <glyph glyph-name="period" unicode="." horiz-adv-x="318" 
d="M101 0v159h115v-159h-115z" />
    <glyph glyph-name="slash" unicode="/" horiz-adv-x="608" 
d="M27 0l463 1238h92l-464 -1238h-91z" />
    <glyph glyph-name="zero" unicode="0" horiz-adv-x="1105" 
d="M868 1141q110 -108 110 -329v-384q0 -223 -110 -331t-314 -108q-206 0 -315 108q-110 108 -110 331v384q0 221 110 329q109 108 315 108q204 0 314 -108zM239 421q0 -178 82 -263t233 -85q149 0 231 85q83 86 83 263v398q0 176 -83 262q-81 84 -231 84q-152 0 -233 -84
q-82 -85 -82 -262v-398z" />
    <glyph glyph-name="one" unicode="1" horiz-adv-x="620" 
d="M96 0v83h191v895h-177v83q60 0 100 8q38 7 59 29q34 38 40 140h87v-1155h165v-83h-465z" />
    <glyph glyph-name="two" unicode="2" horiz-adv-x="965" 
d="M283 83h603v-83h-785l476 559q171 195 171 366q0 110 -67 174q-68 65 -193 65q-147 0 -216 -98q-69 -97 -58 -258h-104q-2 22 -2 50q0 184 100 287q101 104 282 104q172 0 269 -88q95 -86 95 -238q0 -194 -173 -394z" />
    <glyph glyph-name="three" unicode="3" horiz-adv-x="999" 
d="M836 558q68 -86 68 -226q0 -159 -105 -251q-106 -92 -288 -92q-124 0 -218 47t-140 136q-47 92 -40 214h103q-7 -144 75 -229q81 -84 224 -84q137 0 211 71q75 72 75 194q0 133 -79 206t-248 73h-71v78h66q143 0 218 63t75 178q0 98 -70 164q-69 65 -195 65
q-131 0 -206 -79t-66 -214h-103q-2 16 -2 35q0 158 104 250t273 92q175 0 272 -85q98 -86 98 -220q0 -110 -55 -183q-55 -72 -163 -98q120 -20 187 -105z" />
    <glyph glyph-name="four" unicode="4" horiz-adv-x="963" 
d="M771 331h152v-83h-152v-248h-101v248h-619v40l450 950h107l-424 -907h486v345h101v-345z" />
    <glyph glyph-name="five" unicode="5" horiz-adv-x="1027" 
d="M827 763q89 -108 89 -328q0 -219 -98 -332q-99 -114 -291 -114q-185 0 -279 90q-94 89 -101 257h101q8 -128 76 -195q70 -68 203 -68q139 0 211 91q72 92 72 269q0 181 -69 268q-70 88 -210 88q-94 0 -166 -43q-68 -41 -107 -115h-102v607h719v-83h-620v-412
q52 62 126 95q77 34 174 34q182 0 272 -109z" />
    <glyph glyph-name="six" unicode="6" horiz-adv-x="986" 
d="M718 737q88 -48 135 -137q49 -92 49 -206q0 -186 -110 -296q-109 -109 -297 -109q-187 0 -296 109t-109 296q0 94 34 171q32 74 99 160l408 513h124l-389 -486q76 33 156 33q109 0 196 -48zM713 159q81 89 81 235q0 147 -82 233q-82 87 -217 87q-88 0 -153 -39
q-69 -41 -106 -113q-38 -73 -38 -168q0 -146 81 -235q81 -88 216 -88q137 0 218 88z" />
    <glyph glyph-name="seven" unicode="7" horiz-adv-x="859" 
d="M343 0h-113l433 1150h-599v88h739z" />
    <glyph glyph-name="eight" unicode="8" horiz-adv-x="1025" 
d="M169 564q76 93 204 124q-98 27 -156 95q-58 69 -58 163q0 137 97 219q99 84 257 84q157 0 256 -84q98 -83 98 -219q0 -94 -58 -163q-58 -68 -156 -95q128 -31 204 -124q75 -91 75 -223q0 -105 -51 -185t-147 -123q-97 -44 -221 -44t-221 44q-96 43 -147 123t-51 185
q0 132 75 223zM329 782q70 -59 184 -59t184 59q69 58 69 155q0 106 -70 172q-69 65 -183 65t-183 -65q-70 -66 -70 -172q0 -97 69 -155zM288 143q86 -78 225 -78t224 78t85 205q0 135 -85 216q-87 82 -224 82q-138 0 -225 -82q-85 -81 -85 -216q0 -127 85 -205z" />
    <glyph glyph-name="nine" unicode="9" horiz-adv-x="986" 
d="M778 1140q110 -110 110 -296q0 -94 -34 -171q-32 -74 -99 -160l-408 -513h-126l391 486q-76 -33 -156 -33q-112 0 -197 48q-87 49 -134 137q-49 92 -49 206q0 187 109 296t296 109q188 0 297 -109zM695 612q83 89 83 232q0 146 -81 235q-81 88 -216 88t-216 -88
q-81 -89 -81 -235t81 -233q82 -88 216 -88q131 0 214 89z" />
    <glyph glyph-name="colon" unicode=":" horiz-adv-x="367" 
d="M126 0v159h115v-159h-115zM126 814v159h115v-159h-115z" />
    <glyph glyph-name="semicolon" unicode=";" horiz-adv-x="367" 
d="M106 -200l30 389h94v-115l-60 -274h-64zM126 814v159h115v-159h-115z" />
    <glyph glyph-name="less" unicode="&#x3c;" horiz-adv-x="875" 
d="M727 203l-578 294v78l578 295v-85l-492 -249l492 -249v-84z" />
    <glyph glyph-name="equal" unicode="=" horiz-adv-x="969" 
d="M108 683v77h759v-77h-759zM108 311v78h759v-78h-759z" />
    <glyph glyph-name="greater" unicode="&#x3e;" horiz-adv-x="875" 
d="M727 575v-78l-578 -294v85l491 248l-491 251v83z" />
    <glyph glyph-name="question" unicode="?" horiz-adv-x="880" 
d="M774 821q-24 -55 -54 -90q-28 -31 -85 -84q-70 -61 -108 -115q-35 -50 -35 -134v-85h-99v97q0 66 20 112q22 50 50 81q33 36 82 78q73 65 110 118q37 54 37 137q0 114 -62 170t-188 56q-132 0 -195 -57t-63 -177v-60h-104v71q0 151 88 226q89 75 274 75q354 0 354 -294
q0 -74 -22 -125zM386 0v157h113v-157h-113z" />
    <glyph glyph-name="at" unicode="@" horiz-adv-x="1715" 
d="M1263 1155q172 -90 269 -259q97 -168 97 -383q0 -167 -57 -289q-57 -121 -147 -184t-189 -63q-104 0 -159 57q-55 56 -55 168q0 30 6 67q-41 -79 -111 -132q-66 -50 -157 -50q-116 0 -187 78q-71 79 -71 226q0 74 18 155q36 160 133 245q96 84 219 84q97 0 155 -52
q60 -54 73 -135l32 156h78l-101 -496q-16 -77 -16 -138q0 -84 34 -124t106 -40q81 0 152 55q73 56 117 161q45 106 45 251q0 195 -84 344q-86 152 -239 235q-154 84 -356 84q-204 0 -363 -93t-246 -261t-87 -383q0 -194 82 -337q83 -145 224 -221q143 -77 320 -77
q88 0 184 21l8 -64q-101 -23 -205 -23q-197 0 -355 85q-160 86 -251 244q-92 160 -92 372q0 236 97 418q97 183 274 286q178 104 409 104q221 0 396 -92zM1072 589q0 103 -50 162t-139 59q-98 0 -176 -75q-77 -74 -106 -201q-17 -67 -17 -138q0 -114 53 -179t145 -65
q97 0 172 89q76 89 107 249q11 55 11 99z" />
    <glyph glyph-name="A" unicode="A" horiz-adv-x="1061" 
d="M1051 0h-121l-125 350h-549l-125 -350h-120l467 1238h106zM531 1121l-246 -689h491z" />
    <glyph glyph-name="B" unicode="B" horiz-adv-x="1149" 
d="M999 554q60 -75 60 -214q0 -340 -375 -340h-518v1238h501q171 0 264 -78t93 -228q0 -113 -49 -188q-48 -74 -137 -95q101 -20 161 -95zM841 1091q-66 51 -195 51h-372v-450h386q125 0 186 58t61 177q0 113 -66 164zM660 96q142 0 212 60q71 60 71 191q0 249 -283 249
h-386v-500h386z" />
    <glyph glyph-name="C" unicode="C" horiz-adv-x="1165" 
d="M227 112q-117 122 -117 381v255q0 257 117 379t362 122q239 0 360 -112q119 -110 119 -329h-109q0 175 -93 266q-92 91 -277 91q-187 0 -278 -99q-92 -100 -92 -309v-272q0 -214 91 -312q92 -99 279 -99q185 0 277 91q93 91 93 268h109q0 -220 -119 -330
q-121 -112 -360 -112q-245 0 -362 121z" />
    <glyph glyph-name="D" unicode="D" horiz-adv-x="1200" 
d="M589 1238q201 0 309 -50q106 -49 154 -181t48 -388t-48 -388t-154 -181q-108 -50 -309 -50h-423v1238h423zM585 88q161 0 248 41q85 40 121 153q36 112 36 337t-36 337q-36 113 -121 153q-87 41 -248 41h-309v-1062h309z" />
    <glyph glyph-name="E" unicode="E" horiz-adv-x="1098" 
d="M276 607v-519h720v-88h-830v1238h814v-88h-704v-457h638v-86h-638z" />
    <glyph glyph-name="F" unicode="F" horiz-adv-x="1008" 
d="M967 1238v-88h-691v-462h626v-85h-626v-603h-110v1238h801z" />
    <glyph glyph-name="G" unicode="G" horiz-adv-x="1186" 
d="M637 661h440v-169q0 -260 -118 -381q-119 -122 -365 -122q-245 0 -365 122q-119 120 -119 382v255q0 259 119 379q120 122 365 122q215 0 336 -89q120 -89 138 -262h-109q-12 131 -107 199t-258 68q-189 0 -282 -99t-93 -309v-272q0 -213 93 -313q92 -99 282 -99
q189 0 282 98q93 97 93 310v101h-332v79z" />
    <glyph glyph-name="H" unicode="H" horiz-adv-x="1252" 
d="M976 686v552h110v-1238h-110v598h-700v-598h-110v1238h110v-552h700z" />
    <glyph glyph-name="I" unicode="I" horiz-adv-x="440" 
d="M276 0h-110v1238h110v-1238z" />
    <glyph glyph-name="J" unicode="J" horiz-adv-x="573" 
d="M12 0v88h122q96 0 134 44t38 153v953h110v-964q0 -105 -25 -162q-25 -58 -82 -85t-157 -27h-140z" />
    <glyph glyph-name="K" unicode="K" horiz-adv-x="1055" 
d="M370 638l656 -638h-161l-589 580v-580h-110v1238h110v-543l557 543h161z" />
    <glyph glyph-name="L" unicode="L" horiz-adv-x="997" 
d="M962 0h-796v1238h110v-1150h686v-88z" />
    <glyph glyph-name="M" unicode="M" horiz-adv-x="1528" 
d="M764 377l451 861h147v-1238h-105v1102l-449 -842h-88l-449 842v-1102h-105v1238h147z" />
    <glyph glyph-name="N" unicode="N" horiz-adv-x="1271" 
d="M1003 118v1120h102v-1238h-141l-695 1118v-1118h-103v1238h140z" />
    <glyph glyph-name="O" unicode="O" horiz-adv-x="1183" 
d="M228 111q-118 121 -118 382v255q0 258 118 379q119 122 364 122q244 0 363 -121t119 -380v-255q0 -260 -119 -382t-363 -122q-245 0 -364 122zM872 172q92 101 92 313v272q0 209 -92 309q-92 99 -280 99q-187 0 -280 -99t-93 -309v-272q0 -213 93 -313q92 -99 280 -99
q190 0 280 99z" />
    <glyph glyph-name="P" unicode="P" horiz-adv-x="1091" 
d="M901 1136q95 -103 95 -317q0 -216 -95 -317t-303 -101h-322v-401h-110v1238h432q208 0 303 -102zM577 486q163 0 236 81q73 80 73 252q0 173 -72 253q-72 79 -237 79h-299l-2 -665h301z" />
    <glyph glyph-name="Q" unicode="Q" horiz-adv-x="1179" 
d="M1074 493q0 -247 -121 -365q-120 -117 -330 -117q-23 0 -73 3q35 -8 46 -12q115 -27 179 -48l253 -78l-29 -79l-313 99q-239 77 -347 130q-109 54 -169 160t-60 307v255q0 259 119 379q120 122 363 122q244 0 363 -122t119 -379v-255zM219 485q0 -213 93 -313
q92 -99 280 -99q190 0 280 99q92 101 92 313v272q0 209 -92 309q-92 99 -280 99q-187 0 -280 -99t-93 -309v-272z" />
    <glyph glyph-name="R" unicode="R" horiz-adv-x="1085" 
d="M1006 0h-120l-258 479h-28h-326v-479h-110v1238h436q200 0 296 -94q94 -93 94 -284q0 -155 -61 -246q-62 -93 -190 -121zM575 571q155 0 231 73q75 72 75 217q0 144 -74 215q-73 70 -232 70h-301v-575h301z" />
    <glyph glyph-name="S" unicode="S" horiz-adv-x="1084" 
d="M217 73q-113 86 -113 277q0 42 4 78h104q-3 -46 -3 -67q0 -152 84 -221t253 -69t255 58q87 58 87 163q0 67 -32 116q-33 50 -108 93q-79 45 -210 93q-166 60 -253 115q-90 57 -126 118q-35 60 -35 140q0 125 110 204t330 79q239 0 336 -106q98 -107 89 -279h-103
q8 137 -66 219q-74 83 -254 83q-167 0 -248 -57t-81 -146q0 -59 30 -104q29 -44 101 -85t200 -89q168 -60 261 -117q92 -56 131 -121q39 -64 39 -153q0 -145 -115 -226t-341 -81q-214 0 -326 85z" />
    <glyph glyph-name="T" unicode="T" horiz-adv-x="1025" 
d="M974 1238v-88h-406v-1150h-110v1150h-408v88h924z" />
    <glyph glyph-name="U" unicode="U" horiz-adv-x="1222" 
d="M257 96q-110 106 -110 341v801h109v-801q0 -193 83 -279q82 -85 273 -85q190 0 272 85q83 86 83 279v801h110v-801q0 -235 -110 -341q-112 -107 -355 -107t-355 107z" />
    <glyph glyph-name="V" unicode="V" horiz-adv-x="1119" 
d="M617 0h-115l-460 1238h119l398 -1102l400 1102h118z" />
    <glyph glyph-name="W" unicode="W" horiz-adv-x="1738" 
d="M1249 134l320 1104h116l-374 -1238h-121l-322 1072l-323 -1072h-119l-373 1238h117l320 -1104l329 1104h101z" />
    <glyph glyph-name="X" unicode="X" horiz-adv-x="1061" 
d="M592 649l436 -649h-124l-373 571l-375 -571h-122l435 649l-386 589h122l326 -509l323 509h124z" />
    <glyph glyph-name="Y" unicode="Y" horiz-adv-x="1038" 
d="M518 603l361 635h118l-424 -727v-511h-110v511l-422 727h116z" />
    <glyph glyph-name="Z" unicode="Z" horiz-adv-x="992" 
d="M959 0h-901l738 1150h-723v88h886l-738 -1150h738v-88z" />
    <glyph glyph-name="bracketleft" unicode="[" horiz-adv-x="511" 
d="M265 1293v-1557h205v-61h-297v1680h297v-62h-205z" />
    <glyph glyph-name="backslash" unicode="\" horiz-adv-x="608" 
d="M27 1238h91l464 -1238h-92z" />
    <glyph glyph-name="bracketright" unicode="]" horiz-adv-x="511" 
d="M41 -264h205v1557h-205v62h297v-1680h-297v61z" />
    <glyph glyph-name="asciicircum" unicode="^" horiz-adv-x="960" 
d="M478 1256h5l424 -504l-58 -53l-370 456l-366 -456l-60 51z" />
    <glyph glyph-name="underscore" unicode="_" horiz-adv-x="620" 
d="M0 -83v81h621v-81h-621z" />
    <glyph glyph-name="grave" unicode="`" horiz-adv-x="790" 
d="M205 1242h115l131 -181h-80z" />
    <glyph glyph-name="a" unicode="a" horiz-adv-x="937" 
d="M673 948q68 -32 100 -104q32 -73 32 -197v-647h-103v187q-43 -96 -131 -145q-89 -49 -200 -49q-147 0 -227 76t-80 205q0 343 638 361v9q0 141 -49 200q-49 60 -168 60q-147 0 -358 -69l-19 71q216 74 385 74q111 0 180 -32zM614 150q88 76 88 239v177
q-536 -20 -536 -281q0 -96 60 -153q61 -58 175 -58q125 0 213 76z" />
    <glyph glyph-name="b" unicode="b" horiz-adv-x="1057" 
d="M872 852q101 -128 101 -366q0 -237 -101 -365t-292 -128q-123 0 -202 50q-82 51 -123 146v-189h-105v1326h105v-543q41 95 123 146q81 51 202 51q191 0 292 -128zM788 176q79 111 79 310q0 200 -79 311q-78 109 -229 109q-149 0 -228 -109q-80 -110 -80 -311
q0 -200 80 -310q79 -109 228 -109q151 0 229 109z" />
    <glyph glyph-name="c" unicode="c" horiz-adv-x="967" 
d="M186 113q-101 127 -101 373q0 245 101 372q100 125 300 125q179 0 280 -88q102 -88 118 -244h-104q-17 119 -91 186q-77 69 -203 69q-147 0 -222 -104q-75 -103 -75 -316q0 -421 297 -421q128 0 204 69t90 190h104q-16 -157 -118 -247q-101 -89 -280 -89q-200 0 -300 125
z" />
    <glyph glyph-name="d" unicode="d" horiz-adv-x="1057" 
d="M803 1326h104v-1326h-104v189q-41 -94 -124 -146q-79 -50 -201 -50q-191 0 -292 128t-101 365q0 238 101 366t292 128q120 0 201 -51q83 -52 124 -146v543zM727 176q79 109 79 310q0 202 -79 311t-228 109q-151 0 -229 -109q-79 -111 -79 -311q0 -199 79 -310
q78 -109 229 -109q149 0 228 109z" />
    <glyph glyph-name="e" unicode="e" horiz-adv-x="985" 
d="M791 853q103 -128 100 -397h-704q10 -391 298 -391q120 0 192 64t94 170h104q-27 -144 -123 -227q-98 -84 -267 -84q-199 0 -299 125q-101 127 -101 373q0 248 101 373q100 124 299 124q201 0 306 -130zM271 814q-75 -91 -82 -278h598q-18 370 -302 370q-139 0 -214 -92z
" />
    <glyph glyph-name="f" unicode="f" horiz-adv-x="539" 
d="M318 1218q-30 -44 -30 -155v-90h237v-75h-237v-898h-106v898h-124v75h124v92q0 143 49 207q48 63 170 63q79 0 177 -19l-10 -69q-89 14 -136 14q-84 0 -114 -43z" />
    <glyph glyph-name="g" unicode="g" horiz-adv-x="1052" 
d="M798 973h104v-954q0 -203 -89 -292q-90 -90 -281 -90q-181 0 -337 48l21 74q156 -44 304 -44q145 0 211 70q67 72 67 236v198q-88 -180 -322 -180q-193 0 -295 125q-101 123 -101 345q0 223 101 346q102 125 291 125q116 0 198 -48q86 -50 128 -136v177zM722 218
q79 104 79 291t-79 291q-80 106 -229 106q-148 0 -228 -106q-79 -104 -79 -291t79 -291q79 -105 228 -105t229 105z" />
    <glyph glyph-name="h" unicode="h" horiz-adv-x="1052" 
d="M828 875q90 -105 90 -295v-580h-104v580q0 152 -69 236t-202 84q-146 0 -217 -86t-71 -248v-566h-105v1326h105v-504q86 158 307 158q176 0 266 -105z" />
    <glyph glyph-name="i" unicode="i" horiz-adv-x="405" 
d="M255 1130h-105v161h105v-161zM255 0h-105v973h105v-973z" />
    <glyph glyph-name="j" unicode="j" horiz-adv-x="415" 
d="M265 1130h-106v161h106v-161zM-23 -354v82h51q71 0 101 36t30 132v1077h106v-1083q0 -137 -47 -190q-48 -54 -163 -54h-78z" />
    <glyph glyph-name="k" unicode="k" horiz-adv-x="859" 
d="M336 532l476 -532h-140l-417 472v-472h-105v1326h105v-734l378 381h145z" />
    <glyph glyph-name="l" unicode="l" horiz-adv-x="450" 
d="M322 0q-67 0 -106 14q-37 13 -55 51q-18 37 -18 108v1153h106v-1140q0 -63 22 -85q21 -21 76 -21h46v-80h-71z" />
    <glyph glyph-name="m" unicode="m" horiz-adv-x="1533" 
d="M1401 628v-628h-105v628q0 274 -235 274q-233 0 -233 -274v-628h-105v628q0 130 -57 202t-178 72q-119 0 -176 -73t-57 -210v-619h-105v973h105v-129q72 138 260 138q217 0 283 -170q63 170 284 170q319 0 319 -354z" />
    <glyph glyph-name="n" unicode="n" horiz-adv-x="1052" 
d="M831 878q89 -104 89 -294v-584h-106v584q0 150 -69 235t-200 85q-146 0 -219 -88q-71 -86 -71 -247v-569h-105v973h105v-159q83 168 313 168q174 0 263 -104z" />
    <glyph glyph-name="o" unicode="o" horiz-adv-x="997" 
d="M85 486q0 249 103 373t309 124t311 -124t105 -373q0 -247 -105 -373q-104 -125 -311 -125q-412 0 -412 498zM808 486q0 421 -311 421q-308 0 -308 -421q0 -422 308 -422q311 0 311 422z" />
    <glyph glyph-name="p" unicode="p" horiz-adv-x="1057" 
d="M872 852q101 -128 101 -366q0 -237 -101 -365t-292 -128q-118 0 -200 49t-125 144v-540h-105v1327h105v-186q41 90 125 142q82 51 200 51q191 0 292 -128zM788 176q79 111 79 310q0 200 -79 311q-78 109 -229 109q-149 0 -228 -109q-80 -110 -80 -311q0 -200 80 -310
q79 -109 228 -109q151 0 229 109z" />
    <glyph glyph-name="q" unicode="q" horiz-adv-x="1057" 
d="M803 973h104v-1327h-104v540q-42 -94 -126 -144q-82 -49 -199 -49q-191 0 -292 128t-101 365q0 238 101 366t292 128q116 0 199 -51q85 -52 126 -142v186zM727 176q79 109 79 310q0 202 -79 311t-228 109q-151 0 -229 -109q-79 -111 -79 -311q0 -199 79 -310
q78 -109 229 -109q149 0 228 109z" />
    <glyph glyph-name="r" unicode="r" horiz-adv-x="643" 
d="M150 0v973h99v-234l4 -2q27 111 104 173q78 63 212 63h50v-98h-50q-314 0 -314 -360v-515h-105z" />
    <glyph glyph-name="s" unicode="s" horiz-adv-x="877" 
d="M163 57q-94 70 -94 222q0 26 2 50h95q-3 -31 -3 -46q0 -219 279 -219q132 0 200 44q67 43 67 124q0 52 -26 88q-27 38 -88 69q-69 35 -172 66q-174 52 -255 121q-80 68 -80 167q0 109 90 175q89 65 273 65q182 0 271 -83t81 -216h-96q6 101 -58 163t-202 62
q-132 0 -195 -45t-63 -121q0 -70 72 -118q74 -49 232 -98q173 -52 245 -118t72 -176q0 -114 -92 -180q-90 -65 -274 -65q-188 0 -281 69z" />
    <glyph glyph-name="t" unicode="t" horiz-adv-x="608" 
d="M578 80v-80h-134q-144 0 -206 60q-61 60 -61 205v633h-135v75h135v265h104v-265h283v-75h-283v-629q0 -102 41 -146q40 -43 140 -43h116z" />
    <glyph glyph-name="u" unicode="u" horiz-adv-x="1052" 
d="M796 973h106v-973h-106v149q-86 -158 -308 -158q-178 0 -267 98q-88 97 -88 288v596h106v-595q0 -150 69 -229q69 -80 205 -80q142 0 213 83q70 82 70 241v580z" />
    <glyph glyph-name="v" unicode="v" horiz-adv-x="919" 
d="M511 0h-102l-370 973h111l310 -855l309 855h112z" />
    <glyph glyph-name="w" unicode="w" horiz-adv-x="1425" 
d="M1029 120l234 853h113l-292 -973h-108l-263 840l-264 -840h-108l-291 973h113l233 -853l267 853h99z" />
    <glyph glyph-name="x" unicode="x" horiz-adv-x="868" 
d="M495 518l347 -518h-117l-290 446l-294 -446h-114l348 518l-304 455h115l249 -379l248 379h115z" />
    <glyph glyph-name="y" unicode="y" horiz-adv-x="891" 
d="M444 170l304 803h106l-513 -1327h-100l153 400l-353 927h109z" />
    <glyph glyph-name="z" unicode="z" horiz-adv-x="838" 
d="M775 0h-718l571 893h-554v80h701l-572 -893h572v-80z" />
    <glyph glyph-name="braceleft" unicode="{" horiz-adv-x="571" 
d="M474 1293q-76 0 -106 -36t-30 -120v-410q0 -188 -159 -209v-5q159 -26 159 -211v-408q0 -88 31 -123q31 -36 105 -36h57v-60h-71q-114 0 -160 51q-47 52 -47 166v407q0 76 -24 115t-70 51q-50 13 -122 13v74q77 0 122 13q46 13 70 52t24 115v405q0 116 46 166
q47 52 161 52h71v-62h-57z" />
    <glyph glyph-name="bar" unicode="|" horiz-adv-x="431" 
d="M166 -354v1680h99v-1680h-99z" />
    <glyph glyph-name="braceright" unicode="}" horiz-adv-x="571" 
d="M41 1293v62h70q114 0 161 -52q46 -50 46 -166v-405q0 -76 24 -115t70 -52q45 -13 122 -13v-74q-72 0 -122 -13q-46 -12 -70 -51t-24 -115v-407q0 -114 -47 -166q-46 -51 -160 -51h-70v60h56q75 0 106 36q30 34 30 123v408q0 185 160 211v5q-160 21 -160 209v410
q0 84 -30 120t-106 36h-56z" />
    <glyph glyph-name="asciitilde" unicode="~" horiz-adv-x="689" 
d="M603 506q-64 -59 -143 -59q-38 0 -66 14q-27 14 -56 38q-28 19 -56 34q-22 12 -54 12q-72 0 -141 -66v83q64 62 141 62q40 0 66 -13q29 -14 58 -38q28 -21 55 -35q22 -11 53 -11q79 0 143 64v-85z" />
    <glyph glyph-name="uni00A0" unicode="&#xa0;" horiz-adv-x="534" 
 />
    <glyph glyph-name="exclamdown" unicode="&#xa1;" horiz-adv-x="447" 
d="M279 973v-158h-113v158h113zM279 440v-705h-109v705l12 220h85z" />
    <glyph glyph-name="cent" unicode="&#xa2;" horiz-adv-x="967" 
d="M690 267q76 69 90 189h104q-13 -141 -100 -229q-85 -87 -232 -103v-124h-80v120q-192 3 -290 129q-97 125 -97 370q0 243 97 368q98 126 290 129v122h80v-126q148 -17 232 -102q87 -88 100 -227h-104q-17 120 -91 187q-76 68 -203 68q-147 0 -222 -103t-75 -316
q0 -421 297 -421q128 0 204 69z" />
    <glyph glyph-name="sterling" unicode="&#xa3;" horiz-adv-x="949" 
d="M881 57q-72 -34 -130 -50q-60 -16 -128 -16q-56 0 -131 13q-126 19 -198 19q-94 0 -183 -30l-21 85q47 42 70 72q28 37 51 110q22 70 22 184q0 68 -7 125h-155v75h148l-17 184q-6 51 -6 92q0 173 83 245q84 73 244 73q165 0 242 -79t77 -253h-97q0 133 -55 192
q-56 60 -172 60q-109 0 -164 -55t-55 -194q0 -51 3 -81l20 -184h286v-75h-279q5 -50 5 -113q0 -147 -33 -231q-31 -80 -91 -138q52 17 121 17q65 0 175 -17q70 -9 113 -9q63 0 114 13q53 13 111 42z" />
    <glyph glyph-name="currency" unicode="&#xa4;" horiz-adv-x="976" 
d="M757 424l149 -146l-57 -57l-147 147q-93 -73 -214 -73t-214 75l-147 -149l-56 57l148 148q-72 88 -72 211q0 121 72 210l-148 149l56 56l147 -148q92 74 214 74t214 -72l147 146l57 -56l-149 -147q72 -91 72 -212t-72 -213zM625 401q63 36 99 99t36 137t-36 137t-99 99
t-137 36t-137 -36t-99 -99t-36 -137t36 -137t99 -99q65 -37 137 -37t137 37z" />
    <glyph glyph-name="yen" unicode="&#xa5;" horiz-adv-x="1038" 
d="M879 1238h118l-397 -683h228v-72h-255v-152h255v-73h-255v-258h-110v258h-215v73h215v152h-215v72h189l-396 683h116l361 -635z" />
    <glyph glyph-name="brokenbar" unicode="&#xa6;" horiz-adv-x="431" 
d="M265 699h-99v627h99v-627zM265 -354h-99v628h99v-628z" />
    <glyph glyph-name="section" unicode="&#xa7;" horiz-adv-x="822" 
d="M685 27q60 -75 60 -186q0 -138 -88 -211q-87 -72 -252 -72q-159 0 -245 87q-85 87 -82 258h88q-3 -134 61 -205t183 -71t182 56q64 57 64 160q0 106 -73 172q-74 67 -201 77q-160 25 -241 115t-81 235q0 270 251 311q-115 30 -174 104t-59 186q0 139 87 211t252 72
q159 0 245 -87q86 -88 83 -257h-89q1 131 -62 204q-62 71 -182 71q-118 0 -181 -56q-65 -57 -65 -159q0 -107 74 -173q74 -67 200 -77q162 -26 242 -115t80 -235q0 -270 -251 -311q115 -30 174 -104zM218 243q64 -70 185 -70q128 0 197 70q69 71 69 199t-65 199
q-64 70 -185 70q-127 0 -196 -70q-69 -71 -69 -199q0 -129 64 -199z" />
    <glyph glyph-name="dieresis" unicode="&#xa8;" horiz-adv-x="774" 
d="M203 1086q-14 14 -14 37q0 21 14 35q15 15 36 15q20 0 35 -15q14 -14 14 -35q0 -23 -14 -37t-35 -14q-22 0 -36 14zM483 1086q-14 14 -14 37q0 21 14 35q15 15 35 15q22 0 37 -15q14 -14 14 -35q0 -23 -14 -37t-37 -14q-21 0 -35 14z" />
    <glyph glyph-name="copyright" unicode="&#xa9;" horiz-adv-x="1427" 
d="M397 73q-144 83 -227 227q-83 145 -83 315q0 173 83 318t226 227q145 83 317 83t317 -83q144 -83 227 -227q84 -147 84 -318q0 -169 -84 -316q-82 -143 -227 -226q-147 -84 -317 -84q-169 0 -316 84zM996 131q126 74 201 202q75 127 75 282q0 157 -75 284
q-76 130 -201 203q-126 74 -283 74q-156 0 -282 -74q-128 -75 -203 -203q-74 -126 -74 -284q0 -156 74 -282t203 -202q126 -74 282 -74q157 0 283 74zM990 456q-33 -72 -107 -116q-76 -45 -160 -45q-141 0 -230 90q-88 89 -88 230q0 96 40 167q41 72 112 114q70 41 166 41
q86 0 160 -45q75 -46 107 -119l-56 -30q-26 57 -85 93q-60 36 -131 36q-110 0 -178 -71t-68 -186q0 -114 68 -185t178 -71q75 0 132 35q59 36 84 92z" />
    <glyph glyph-name="ordfeminine" unicode="&#xaa;" horiz-adv-x="666" 
d="M532 1188q53 -56 53 -191v-479h-74v138q-32 -72 -97 -107q-66 -36 -149 -36q-108 0 -167 56t-59 153q0 254 472 267v7q0 102 -38 146q-39 45 -126 45q-101 0 -262 -52l-14 53q166 55 284 55q125 0 177 -55zM446 630q65 56 65 176v131q-398 -17 -398 -208q0 -72 44 -114
q43 -42 131 -42q92 0 158 57zM578 384h-527v42h527v-42z" />
    <glyph glyph-name="guillemotleft" unicode="&#xab;" horiz-adv-x="866" 
d="M462 133l-336 359l336 360l53 -44l-296 -316l296 -315zM780 133l-334 359l334 360l55 -44l-296 -316l296 -315z" />
    <glyph glyph-name="logicalnot" unicode="&#xac;" horiz-adv-x="679" 
d="M87 497v78h505v-336h-86v258h-419z" />
    <glyph glyph-name="uni00AD" unicode="&#xad;" horiz-adv-x="679" 
d="M87 497v78h505v-78h-505z" />
    <glyph glyph-name="registered" unicode="&#xae;" horiz-adv-x="1427" 
d="M1030 1160q144 -83 227 -227q84 -147 84 -318q0 -169 -84 -316q-82 -143 -227 -226q-147 -84 -317 -84q-169 0 -316 84q-144 83 -227 227q-83 145 -83 315q0 173 83 318t226 227q145 83 317 83t317 -83zM996 131q126 74 201 202q75 127 75 282q0 157 -75 284
q-76 130 -201 203q-126 74 -283 74q-156 0 -282 -74q-128 -75 -203 -203q-74 -126 -74 -284q0 -156 74 -282t203 -202q126 -74 282 -74q157 0 283 74zM782 591l168 -285h-60l-163 279h-133v-279h-60v640h202q207 0 207 -178q0 -163 -161 -177zM594 895v-258h136
q154 0 154 129t-154 129h-136z" />
    <glyph glyph-name="macron" unicode="&#xaf;" horiz-adv-x="753" 
d="M538 1088h-335v58h335v-58z" />
    <glyph glyph-name="degree" unicode="&#xb0;" horiz-adv-x="491" 
d="M119 946q-48 50 -48 128q0 77 48 125t127 48q77 0 125 -48t48 -125q0 -78 -48 -128q-48 -49 -125 -49q-79 0 -127 49zM329 990q32 34 32 84t-32 82q-31 31 -83 31t-83 -31q-32 -32 -32 -82t32 -84q32 -33 83 -33q52 0 83 33z" />
    <glyph glyph-name="plusminus" unicode="&#xb1;" horiz-adv-x="751" 
d="M417 1019v-244h243v-71h-243v-244h-70v244h-244v71h244v244h70zM653 267h-556v74h556v-74z" />
    <glyph glyph-name="uni00B2" unicode="&#xb2;" horiz-adv-x="557" 
d="M193 585h316v-58h-435l255 322q92 116 92 209q0 129 -142 129q-159 0 -150 -195h-67l-2 32q0 106 58 163q57 56 163 56q101 0 156 -48t55 -137q0 -115 -92 -227z" />
    <glyph glyph-name="uni00B3" unicode="&#xb3;" horiz-adv-x="578" 
d="M482 837q40 -47 40 -128q0 -88 -60 -140q-58 -51 -168 -51t-172 59t-55 168h67q-6 -84 38 -128t125 -44q78 0 118 37t40 103q0 75 -43 115q-42 39 -140 39h-40v51h37q164 0 164 138q0 62 -37 96q-38 35 -109 35q-73 0 -115 -45q-40 -43 -34 -120h-67q-7 104 52 163
q58 58 164 58q103 0 159 -48q55 -48 55 -134q0 -137 -130 -164q69 -10 111 -60z" />
    <glyph glyph-name="acute" unicode="&#xb4;" horiz-adv-x="785" 
d="M313 1061l131 181h115l-166 -181h-80z" />
    <glyph glyph-name="uni00B5" unicode="&#xb5;" horiz-adv-x="1094" 
d="M840 973h104v-973h-104v177q-38 -89 -110 -136q-74 -48 -184 -48q-108 0 -181 48q-73 47 -110 134v-529h-105v1327h105v-556q0 -160 74 -252t217 -92q145 0 219 92q75 93 75 252v556z" />
    <glyph glyph-name="paragraph" unicode="&#xb6;" horiz-adv-x="979" 
d="M389 665q-162 3 -244 67q-81 63 -81 219q0 160 81 223q82 64 244 64h539v-83h-111v-1157h-87v1157h-252v-1157h-89v667z" />
    <glyph glyph-name="periodcentered" unicode="&#xb7;" horiz-adv-x="318" 
d="M101 456v159h115v-159h-115z" />
    <glyph glyph-name="cedilla" unicode="&#xb8;" horiz-adv-x="739" 
d="M347 -99q162 1 162 -108q0 -53 -39 -80q-43 -30 -122 -30q-74 0 -161 27l13 44q86 -21 143 -21t83 16q27 17 27 48q0 39 -37 54q-34 14 -124 11l35 150h50v-8z" />
    <glyph glyph-name="uni00B9" unicode="&#xb9;" horiz-adv-x="360" 
d="M232 587h92v-58h-267v58h106v499h-99v51q31 0 54 5q20 4 32 16q24 24 25 80h57v-651z" />
    <glyph glyph-name="ordmasculine" unicode="&#xba;" horiz-adv-x="714" 
d="M50 877q0 185 76 277q76 93 229 93q308 0 308 -370q0 -368 -308 -368q-305 0 -305 368zM585 879q0 311 -230 311q-228 0 -228 -311q0 -313 228 -313q230 0 230 313zM67 384v42h564v-42h-564z" />
    <glyph glyph-name="guillemotright" unicode="&#xbb;" horiz-adv-x="866" 
d="M741 492l-334 -359l-55 44l295 315l-295 316l55 44zM421 492l-334 -359l-55 44l295 315l-295 316l55 44z" />
    <glyph glyph-name="onequarter" unicode="&#xbc;" horiz-adv-x="1082" 
d="M233 587h92v-58h-267v58h106v499h-99v51q31 0 54 5q22 5 33 16q24 24 25 80h56v-651zM134 0h-74l823 1238h72zM976 202h82v-55h-82v-147h-67v147h-366v26l260 536h72l-244 -507h278v199h67v-199z" />
    <glyph glyph-name="onehalf" unicode="&#xbd;" horiz-adv-x="1177" 
d="M239 589h92v-58h-267v58h106v499h-99v51q35 0 54 4t32 17q24 24 25 80h57v-651zM134 0h-74l823 1238h72zM814 58h316v-58h-435l255 322q92 116 92 209q0 129 -142 129q-159 0 -150 -195h-67l-2 32q0 106 58 163q57 56 163 56q100 0 156 -48q54 -47 54 -137
q0 -115 -92 -227z" />
    <glyph glyph-name="threequarters" unicode="&#xbe;" horiz-adv-x="1368" 
d="M482 837q40 -47 40 -128q0 -88 -60 -140q-58 -51 -168 -51t-172 59t-55 168h67q-6 -84 38 -128t125 -44q78 0 118 37t40 103q0 75 -43 115q-42 39 -140 39h-40v51h37q164 0 164 138q0 62 -37 96q-38 35 -109 35q-73 0 -115 -45q-40 -43 -34 -120h-67q-7 104 52 163
q58 58 164 58q103 0 159 -48q55 -48 55 -134q0 -137 -130 -164q69 -10 111 -60zM370 0h-75l823 1238h72zM1263 202h81v-55h-81v-147h-67v147h-367v26l260 536h73l-244 -507h278v199h67v-199z" />
    <glyph glyph-name="questiondown" unicode="&#xbf;" horiz-adv-x="764" 
d="M446 973v-158h-115v158h115zM56 152q23 53 54 89q35 40 86 84q70 61 108 115q36 51 36 135v85h99v-98q0 -63 -21 -111q-22 -50 -50 -81q-36 -40 -81 -78q-74 -65 -111 -119q-36 -53 -36 -136q0 -116 61 -171t188 -55q134 0 196 56t62 177v60h105v-70q0 -152 -89 -227
q-87 -74 -274 -74q-355 0 -355 294q0 74 22 125z" />
    <glyph glyph-name="Agrave" unicode="&#xc0;" horiz-adv-x="1061" 
d="M1051 0h-121l-125 350h-549l-125 -350h-120l467 1238h106zM531 1121l-246 -689h491zM355 1507h115l131 -181h-79z" />
    <glyph glyph-name="Aacute" unicode="&#xc1;" horiz-adv-x="1061" 
d="M1051 0h-121l-125 350h-549l-125 -350h-120l467 1238h106zM531 1121l-246 -689h491zM456 1326l131 181h115l-166 -181h-80z" />
    <glyph glyph-name="Acircumflex" unicode="&#xc2;" horiz-adv-x="1061" 
d="M1051 0h-121l-125 350h-549l-125 -350h-120l467 1238h106zM531 1121l-246 -689h491zM354 1360l177 172l176 -172l-51 -46l-125 138l-126 -138z" />
    <glyph glyph-name="Atilde" unicode="&#xc3;" horiz-adv-x="1061" 
d="M1051 0h-121l-125 350h-549l-125 -350h-120l467 1238h106zM531 1121l-246 -689h491zM350 1356q33 94 110 94q23 0 41 -10q16 -9 44 -29q19 -17 31 -24q14 -8 29 -8q25 0 40 16q16 18 29 45l41 -25q-18 -44 -43 -69t-64 -25q-24 0 -43 11q-23 13 -42 30q-19 16 -33 25
q-11 7 -28 7q-43 0 -69 -64z" />
    <glyph glyph-name="Adieresis" unicode="&#xc4;" horiz-adv-x="1061" 
d="M1051 0h-121l-125 350h-549l-125 -350h-120l467 1238h106zM531 1121l-246 -689h491zM355 1351q-14 14 -14 37q0 22 14 36t36 14q21 0 35 -14t14 -36q0 -23 -14 -37t-35 -14q-22 0 -36 14zM635 1351q-14 14 -14 37q0 22 14 36t35 14q23 0 37 -14q15 -15 15 -36
q0 -22 -15 -37q-14 -14 -37 -14q-21 0 -35 14z" />
    <glyph glyph-name="Aring" unicode="&#xc5;" horiz-adv-x="1061" 
d="M1051 0h-121l-125 350h-549l-125 -350h-120l467 1238h106zM531 1121l-246 -689h491zM443 1336q-34 33 -34 86t34 86q33 32 88 32q53 0 88 -32t35 -86t-35 -86q-36 -33 -88 -33q-53 0 -88 33zM585 1368q22 22 22 54q0 30 -22 52q-20 20 -54 20q-33 0 -53 -20
q-22 -22 -22 -52q0 -32 22 -54q20 -20 53 -20q34 0 54 20z" />
    <glyph glyph-name="AE" unicode="&#xc6;" horiz-adv-x="1685" 
d="M877 607v-519h722v-88h-831v338h-471l-196 -338h-122l736 1238h868v-88h-706v-457h640v-86h-640zM768 1144l-425 -728h425v728z" />
    <glyph glyph-name="Ccedilla" unicode="&#xc7;" horiz-adv-x="1165" 
d="M866 165q93 91 93 268h109q0 -214 -115 -326q-116 -113 -346 -116l-27 -90q163 2 163 -108q0 -52 -40 -80q-43 -30 -121 -30q-74 0 -161 27l12 44q85 -21 144 -21t84 16t25 48q0 39 -36 54q-34 14 -125 11l30 129q-227 9 -336 130t-109 372v255q0 257 117 379t362 122
q239 0 360 -112q119 -110 119 -329h-109q0 175 -93 266q-92 91 -277 91q-187 0 -278 -99q-92 -100 -92 -309v-272q0 -214 91 -312q92 -99 279 -99q185 0 277 91z" />
    <glyph glyph-name="Egrave" unicode="&#xc8;" horiz-adv-x="1098" 
d="M276 607v-519h720v-88h-830v1238h814v-88h-704v-457h638v-86h-638zM401 1507h115l131 -181h-79z" />
    <glyph glyph-name="Eacute" unicode="&#xc9;" horiz-adv-x="1098" 
d="M276 607v-519h720v-88h-830v1238h814v-88h-704v-457h638v-86h-638zM502 1326l131 181h115l-166 -181h-80z" />
    <glyph glyph-name="Ecircumflex" unicode="&#xca;" horiz-adv-x="1098" 
d="M276 607v-519h720v-88h-830v1238h814v-88h-704v-457h638v-86h-638zM400 1360l177 172l176 -172l-51 -46l-125 138l-126 -138z" />
    <glyph glyph-name="Edieresis" unicode="&#xcb;" horiz-adv-x="1098" 
d="M276 607v-519h720v-88h-830v1238h814v-88h-704v-457h638v-86h-638zM403 1351q-14 14 -14 37q0 22 14 36t36 14q21 0 35 -14t14 -36q0 -23 -14 -37t-35 -14q-22 0 -36 14zM683 1351q-14 14 -14 37q0 22 14 36t35 14q23 0 37 -14t14 -36q0 -23 -14 -37t-37 -14
q-21 0 -35 14z" />
    <glyph glyph-name="Igrave" unicode="&#xcc;" horiz-adv-x="440" 
d="M276 0h-110v1238h110v-1238zM44 1507h115l131 -181h-80z" />
    <glyph glyph-name="Iacute" unicode="&#xcd;" horiz-adv-x="440" 
d="M276 0h-110v1238h110v-1238zM145 1326l131 181h115l-166 -181h-80z" />
    <glyph glyph-name="Icircumflex" unicode="&#xce;" horiz-adv-x="440" 
d="M276 0h-110v1238h110v-1238zM42 1360l177 172l177 -172l-51 -46l-126 138l-125 -138z" />
    <glyph glyph-name="Idieresis" unicode="&#xcf;" horiz-adv-x="440" 
d="M276 0h-110v1238h110v-1238zM44 1351q-14 14 -14 37q0 22 14 36t36 14q21 0 35 -14t14 -36q0 -23 -14 -37t-35 -14q-22 0 -36 14zM324 1351q-15 15 -15 37q0 21 15 36q14 14 35 14q23 0 37 -14t14 -36q0 -23 -14 -37t-37 -14q-21 0 -35 14z" />
    <glyph glyph-name="Eth" unicode="&#xd0;" horiz-adv-x="1213" 
d="M600 1238q200 0 308 -50q107 -50 155 -181q48 -132 48 -388t-48 -388q-48 -131 -155 -181q-108 -50 -308 -50h-423v601h-149v75h149v562h423zM596 88q161 0 248 41q85 40 121 153q36 112 36 337t-36 337q-36 113 -121 153q-87 41 -248 41h-309v-474h263v-75h-263v-513
h309z" />
    <glyph glyph-name="Ntilde" unicode="&#xd1;" horiz-adv-x="1271" 
d="M1003 118v1120h102v-1238h-141l-695 1118v-1118h-103v1238h140zM463 1356q33 94 110 94q24 0 42 -10q12 -6 43 -29q19 -17 31 -24q14 -8 29 -8q25 0 40 16q16 18 29 45l41 -25q-18 -44 -43 -69t-63 -25q-25 0 -44 11q-20 11 -41 30q-16 14 -34 25q-11 7 -28 7
q-43 0 -69 -64z" />
    <glyph glyph-name="Ograve" unicode="&#xd2;" horiz-adv-x="1183" 
d="M228 111q-118 121 -118 382v255q0 258 118 379q119 122 364 122q244 0 363 -121t119 -380v-255q0 -260 -119 -382t-363 -122q-245 0 -364 122zM872 172q92 101 92 313v272q0 209 -92 309q-92 99 -280 99q-187 0 -280 -99t-93 -309v-272q0 -213 93 -313q92 -99 280 -99
q190 0 280 99zM417 1507h115l131 -181h-79z" />
    <glyph glyph-name="Oacute" unicode="&#xd3;" horiz-adv-x="1183" 
d="M228 111q-118 121 -118 382v255q0 258 118 379q119 122 364 122q244 0 363 -121t119 -380v-255q0 -260 -119 -382t-363 -122q-245 0 -364 122zM872 172q92 101 92 313v272q0 209 -92 309q-92 99 -280 99q-187 0 -280 -99t-93 -309v-272q0 -213 93 -313q92 -99 280 -99
q190 0 280 99zM516 1326l131 181h115l-166 -181h-80z" />
    <glyph glyph-name="Ocircumflex" unicode="&#xd4;" horiz-adv-x="1183" 
d="M228 111q-118 121 -118 382v255q0 258 118 379q119 122 364 122q244 0 363 -121t119 -380v-255q0 -260 -119 -382t-363 -122q-245 0 -364 122zM872 172q92 101 92 313v272q0 209 -92 309q-92 99 -280 99q-187 0 -280 -99t-93 -309v-272q0 -213 93 -313q92 -99 280 -99
q190 0 280 99zM416 1360l176 172l177 -172l-51 -46l-126 138l-125 -138z" />
    <glyph glyph-name="Otilde" unicode="&#xd5;" horiz-adv-x="1183" 
d="M228 111q-118 121 -118 382v255q0 258 118 379q119 122 364 122q244 0 363 -121t119 -380v-255q0 -260 -119 -382t-363 -122q-245 0 -364 122zM872 172q92 101 92 313v272q0 209 -92 309q-92 99 -280 99q-187 0 -280 -99t-93 -309v-272q0 -213 93 -313q92 -99 280 -99
q190 0 280 99zM410 1356q33 94 110 94q24 0 42 -10q12 -6 43 -29q19 -17 31 -24q14 -8 29 -8q25 0 40 16q16 18 29 45l41 -25q-18 -44 -43 -69t-63 -25q-25 0 -44 11q-20 11 -41 30q-16 14 -34 25q-11 7 -28 7q-43 0 -69 -64z" />
    <glyph glyph-name="Odieresis" unicode="&#xd6;" horiz-adv-x="1183" 
d="M228 111q-118 121 -118 382v255q0 258 118 379q119 122 364 122q244 0 363 -121t119 -380v-255q0 -260 -119 -382t-363 -122q-245 0 -364 122zM872 172q92 101 92 313v272q0 209 -92 309q-92 99 -280 99q-187 0 -280 -99t-93 -309v-272q0 -213 93 -313q92 -99 280 -99
q190 0 280 99zM417 1351q-14 14 -14 37q0 22 14 36t36 14q21 0 35 -14t14 -36q0 -23 -14 -37t-35 -14q-22 0 -36 14zM697 1351q-14 14 -14 37q0 22 14 36t35 14q23 0 37 -14t14 -36q0 -23 -14 -37t-37 -14q-21 0 -35 14z" />
    <glyph glyph-name="multiply" unicode="&#xd7;" horiz-adv-x="686" 
d="M523 764l52 -51l-179 -179l179 -179l-52 -53l-178 181l-181 -181l-51 53l179 179l-179 179l51 51l181 -179z" />
    <glyph glyph-name="Oslash" unicode="&#xd8;" horiz-adv-x="1183" 
d="M1084 1219l-97 -130q87 -119 87 -341v-255q0 -260 -119 -382t-363 -122q-232 0 -350 108l-86 -116l-52 38l96 128q-90 122 -90 346v255q0 258 118 379q119 122 364 122q232 0 351 -108l88 116zM219 485q0 -152 48 -248l614 819q-91 109 -289 109q-187 0 -280 -99
t-93 -309v-272zM964 757q0 145 -46 240l-612 -817q89 -107 286 -107q190 0 280 99q92 101 92 313v272z" />
    <glyph glyph-name="Ugrave" unicode="&#xd9;" horiz-adv-x="1222" 
d="M257 96q-110 106 -110 341v801h109v-801q0 -193 83 -279q82 -85 273 -85q190 0 272 85q83 86 83 279v801h110v-801q0 -235 -110 -341q-112 -107 -355 -107t-355 107zM437 1507h115l131 -181h-80z" />
    <glyph glyph-name="Uacute" unicode="&#xda;" horiz-adv-x="1222" 
d="M257 96q-110 106 -110 341v801h109v-801q0 -193 83 -279q82 -85 273 -85q190 0 272 85q83 86 83 279v801h110v-801q0 -235 -110 -341q-112 -107 -355 -107t-355 107zM538 1326l131 181h114l-166 -181h-79z" />
    <glyph glyph-name="Ucircumflex" unicode="&#xdb;" horiz-adv-x="1222" 
d="M257 96q-110 106 -110 341v801h109v-801q0 -193 83 -279q82 -85 273 -85q190 0 272 85q83 86 83 279v801h110v-801q0 -235 -110 -341q-112 -107 -355 -107t-355 107zM435 1360l177 172l177 -172l-52 -46l-125 138l-126 -138z" />
    <glyph glyph-name="Udieresis" unicode="&#xdc;" horiz-adv-x="1222" 
d="M257 96q-110 106 -110 341v801h109v-801q0 -193 83 -279q82 -85 273 -85q190 0 272 85q83 86 83 279v801h110v-801q0 -235 -110 -341q-112 -107 -355 -107t-355 107zM437 1351q-14 14 -14 37q0 22 14 36t35 14q22 0 36 -14t14 -36q0 -23 -14 -37t-36 -14q-21 0 -35 14z
M716 1351q-14 14 -14 37q0 22 14 36t36 14q23 0 37 -14t14 -36q0 -23 -14 -37t-37 -14q-22 0 -36 14z" />
    <glyph glyph-name="Yacute" unicode="&#xdd;" horiz-adv-x="1038" 
d="M518 603l361 635h118l-424 -727v-511h-110v511l-422 727h116zM444 1326l131 181h115l-167 -181h-79z" />
    <glyph glyph-name="Thorn" unicode="&#xde;" horiz-adv-x="1066" 
d="M578 1019q207 0 301 -97t94 -303t-94 -303t-301 -97h-302v-219h-110v1238h110v-219h302zM552 306q164 0 238 75q73 74 73 238t-73 238q-74 75 -238 75h-276v-626h276z" />
    <glyph glyph-name="germandbls" unicode="&#xdf;" horiz-adv-x="1013" 
d="M591 80q132 0 194 55q64 56 64 178q0 64 -25 113q-27 52 -60 84q-42 40 -92 77q-65 51 -95 84q-31 34 -31 81q0 43 20 75q19 30 58 71q41 42 65 81q22 35 22 89q0 90 -55 138q-56 48 -163 48q-129 0 -189 -76t-60 -230v-948h-103v953q0 195 84 288q83 92 270 92
q152 0 234 -67q83 -68 83 -185q0 -68 -25 -109q-26 -42 -71 -89q-34 -34 -52 -62q-17 -26 -17 -61q0 -31 25 -57q31 -33 80 -70q64 -50 102 -88q41 -41 71 -102q30 -62 30 -142q0 -156 -86 -228q-87 -73 -248 -73h-184v80h154z" />
    <glyph glyph-name="agrave" unicode="&#xe0;" horiz-adv-x="937" 
d="M673 948q68 -32 100 -104q32 -73 32 -197v-647h-103v187q-43 -96 -131 -145q-89 -49 -200 -49q-147 0 -227 76t-80 205q0 343 638 361v9q0 141 -49 200q-49 60 -168 60q-147 0 -358 -69l-19 71q216 74 385 74q111 0 180 -32zM614 150q88 76 88 239v177
q-536 -20 -536 -281q0 -96 60 -153q61 -58 175 -58q125 0 213 76zM278 1242h115l130 -181h-79z" />
    <glyph glyph-name="aacute" unicode="&#xe1;" horiz-adv-x="937" 
d="M673 948q68 -32 100 -104q32 -73 32 -197v-647h-103v187q-43 -96 -131 -145q-89 -49 -200 -49q-147 0 -227 76t-80 205q0 343 638 361v9q0 141 -49 200q-49 60 -168 60q-147 0 -358 -69l-19 71q216 74 385 74q111 0 180 -32zM614 150q88 76 88 239v177
q-536 -20 -536 -281q0 -96 60 -153q61 -58 175 -58q125 0 213 76zM378 1061l131 181h115l-166 -181h-80z" />
    <glyph glyph-name="acircumflex" unicode="&#xe2;" horiz-adv-x="937" 
d="M673 948q68 -32 100 -104q32 -73 32 -197v-647h-103v187q-43 -96 -131 -145q-89 -49 -200 -49q-147 0 -227 76t-80 205q0 343 638 361v9q0 141 -49 200q-49 60 -168 60q-147 0 -358 -69l-19 71q216 74 385 74q111 0 180 -32zM614 150q88 76 88 239v177
q-536 -20 -536 -281q0 -96 60 -153q61 -58 175 -58q125 0 213 76zM276 1095l177 171l177 -171l-52 -46l-125 138l-126 -138z" />
    <glyph glyph-name="atilde" unicode="&#xe3;" horiz-adv-x="937" 
d="M673 948q68 -32 100 -104q32 -73 32 -197v-647h-103v187q-43 -96 -131 -145q-89 -49 -200 -49q-147 0 -227 76t-80 205q0 343 638 361v9q0 141 -49 200q-49 60 -168 60q-147 0 -358 -69l-19 71q216 74 385 74q111 0 180 -32zM614 150q88 76 88 239v177
q-536 -20 -536 -281q0 -96 60 -153q61 -58 175 -58q125 0 213 76zM272 1091q33 94 110 94q24 0 42 -10q12 -6 43 -29q19 -17 31 -24q14 -8 29 -8q25 0 40 16q17 19 29 44l41 -24q-18 -44 -43 -69t-63 -25q-27 0 -44 10q-16 9 -41 31q-12 10 -34 24q-11 7 -28 7
q-44 0 -69 -63z" />
    <glyph glyph-name="adieresis" unicode="&#xe4;" horiz-adv-x="937" 
d="M673 948q68 -32 100 -104q32 -73 32 -197v-647h-103v187q-43 -96 -131 -145q-89 -49 -200 -49q-147 0 -227 76t-80 205q0 343 638 361v9q0 141 -49 200q-49 60 -168 60q-147 0 -358 -69l-19 71q216 74 385 74q111 0 180 -32zM614 150q88 76 88 239v177
q-536 -20 -536 -281q0 -96 60 -153q61 -58 175 -58q125 0 213 76zM278 1086q-14 14 -14 37q0 21 14 35q15 15 35 15t35 -15t15 -35q0 -22 -15 -37q-14 -14 -35 -14t-35 14zM557 1086q-14 14 -14 37q0 21 14 35q15 15 35 15q23 0 38 -15q14 -14 14 -35q0 -23 -14 -37t-38 -14
q-21 0 -35 14z" />
    <glyph glyph-name="aring" unicode="&#xe5;" horiz-adv-x="937" 
d="M673 948q68 -32 100 -104q32 -73 32 -197v-647h-103v187q-43 -96 -131 -145q-89 -49 -200 -49q-147 0 -227 76t-80 205q0 343 638 361v9q0 141 -49 200q-49 60 -168 60q-147 0 -358 -69l-19 71q216 74 385 74q111 0 180 -32zM614 150q88 76 88 239v177
q-536 -20 -536 -281q0 -96 60 -153q61 -58 175 -58q125 0 213 76zM365 1071q-34 33 -34 86q0 52 34 85q35 33 88 33q52 0 88 -33t36 -85q0 -53 -36 -86t-88 -33q-53 0 -88 33zM508 1103q21 21 21 54q0 31 -21 52q-20 20 -55 20q-33 0 -53 -20q-22 -22 -22 -52q0 -32 22 -54
q21 -21 53 -21q34 0 55 21z" />
    <glyph glyph-name="ae" unicode="&#xe6;" horiz-adv-x="1582" 
d="M1400 852q104 -131 98 -396h-704q6 -199 80 -294q76 -97 219 -97q121 0 193 64q70 63 93 170h105q-27 -141 -122 -226t-258 -85q-280 0 -356 258q-30 -117 -128 -185t-243 -68q-155 0 -238 75q-82 75 -82 206q0 343 638 361v9q0 141 -49 200q-50 60 -168 60
q-146 0 -358 -69l-19 71q216 74 366 74q133 0 204 -46q72 -47 93 -154q85 203 329 203q203 0 307 -131zM875 813q-73 -91 -81 -284h601q-14 377 -302 377q-143 0 -218 -93zM607 150q88 76 88 239v177q-536 -20 -536 -281q0 -96 60 -153q61 -58 175 -58q125 0 213 76z" />
    <glyph glyph-name="ccedilla" unicode="&#xe7;" horiz-adv-x="967" 
d="M690 134q76 69 90 190h104q-13 -148 -107 -237t-252 -98l-30 -100q163 2 163 -108q0 -53 -40 -81q-41 -29 -121 -29q-74 0 -161 27l12 44q86 -21 144 -21t83 15q26 16 26 48q0 39 -36 54t-125 12l32 138q-192 3 -290 129q-97 125 -97 369q0 245 101 372q100 125 300 125
q179 0 280 -88q102 -88 118 -244h-104q-17 119 -91 186q-77 69 -203 69q-147 0 -222 -104q-75 -103 -75 -316q0 -421 297 -421q128 0 204 69z" />
    <glyph glyph-name="egrave" unicode="&#xe8;" horiz-adv-x="985" 
d="M791 853q103 -128 100 -397h-704q10 -391 298 -391q120 0 192 64t94 170h104q-27 -144 -123 -227q-98 -84 -267 -84q-199 0 -299 125q-101 127 -101 373q0 248 101 373q100 124 299 124q201 0 306 -130zM271 814q-75 -91 -82 -278h598q-18 370 -302 370q-139 0 -214 -92z
M308 1242h115l131 -181h-80z" />
    <glyph glyph-name="eacute" unicode="&#xe9;" horiz-adv-x="985" 
d="M791 853q103 -128 100 -397h-704q10 -391 298 -391q120 0 192 64t94 170h104q-27 -144 -123 -227q-98 -84 -267 -84q-199 0 -299 125q-101 127 -101 373q0 248 101 373q100 124 299 124q201 0 306 -130zM271 814q-75 -91 -82 -278h598q-18 370 -302 370q-139 0 -214 -92z
M407 1061l131 181h115l-167 -181h-79z" />
    <glyph glyph-name="ecircumflex" unicode="&#xea;" horiz-adv-x="985" 
d="M791 853q103 -128 100 -397h-704q10 -391 298 -391q120 0 192 64t94 170h104q-27 -144 -123 -227q-98 -84 -267 -84q-199 0 -299 125q-101 127 -101 373q0 248 101 373q100 124 299 124q201 0 306 -130zM271 814q-75 -91 -82 -278h598q-18 370 -302 370q-139 0 -214 -92z
M306 1095l177 171l177 -171l-52 -46l-125 138l-126 -138z" />
    <glyph glyph-name="edieresis" unicode="&#xeb;" horiz-adv-x="985" 
d="M791 853q103 -128 100 -397h-704q10 -391 298 -391q120 0 192 64t94 170h104q-27 -144 -123 -227q-98 -84 -267 -84q-199 0 -299 125q-101 127 -101 373q0 248 101 373q100 124 299 124q201 0 306 -130zM271 814q-75 -91 -82 -278h598q-18 370 -302 370q-139 0 -214 -92z
M308 1086q-14 14 -14 37q0 21 14 35q15 15 35 15t35 -15t15 -35q0 -22 -15 -37q-14 -14 -35 -14t-35 14zM587 1086q-14 14 -14 37q0 21 14 35q15 15 36 15q22 0 37 -15q14 -14 14 -35q0 -23 -14 -37t-37 -14q-22 0 -36 14z" />
    <glyph glyph-name="igrave" unicode="&#xec;" horiz-adv-x="410" 
d="M150 973h110v-973h-110v973zM28 1242h115l131 -181h-79z" />
    <glyph glyph-name="iacute" unicode="&#xed;" horiz-adv-x="410" 
d="M150 973h110v-973h-110v973zM129 1061l131 181h115l-166 -181h-80z" />
    <glyph glyph-name="icircumflex" unicode="&#xee;" horiz-adv-x="410" 
d="M150 973h110v-973h-110v973zM27 1095l176 171l177 -171l-51 -46l-126 138l-125 -138z" />
    <glyph glyph-name="idieresis" unicode="&#xef;" horiz-adv-x="410" 
d="M150 973h110v-973h-110v973zM30 1086q-14 14 -14 37q0 21 14 35q15 15 35 15q21 0 36 -15q14 -14 14 -35q0 -23 -14 -37t-36 -14q-21 0 -35 14zM309 1086q-14 14 -14 37q0 21 14 35q15 15 36 15q22 0 37 -15q14 -14 14 -35q0 -23 -14 -37t-37 -14q-22 0 -36 14z" />
    <glyph glyph-name="eth" unicode="&#xf0;" horiz-adv-x="981" 
d="M488 1130q214 -145 311 -347q98 -204 98 -390q0 -122 -53 -214q-54 -93 -145 -142q-92 -49 -211 -49t-211 49q-93 49 -145 139q-52 89 -52 206t51 207q52 91 141 139q90 48 207 48q159 0 258 -95q-92 241 -307 387l-188 -198l-47 44l178 190q-109 62 -237 102l32 74
q146 -47 264 -115l141 149l50 -42zM707 155q85 86 85 231q0 144 -85 230q-86 88 -219 88t-219 -88q-85 -86 -85 -230q0 -145 85 -231q86 -88 219 -88t219 88z" />
    <glyph glyph-name="ntilde" unicode="&#xf1;" horiz-adv-x="1052" 
d="M831 878q89 -104 89 -294v-584h-106v584q0 150 -69 235t-200 85q-146 0 -219 -88q-71 -86 -71 -247v-569h-105v973h105v-159q83 168 313 168q174 0 263 -104zM347 1100q33 94 109 94q24 0 42 -10q12 -6 43 -29q19 -17 31 -24q14 -8 29 -8q25 0 40 16q17 19 29 44l41 -25
q-19 -46 -42 -69q-24 -24 -64 -24q-26 0 -43 10q-23 13 -42 30q-16 14 -34 25q-11 7 -28 7q-44 0 -69 -63z" />
    <glyph glyph-name="ograve" unicode="&#xf2;" horiz-adv-x="997" 
d="M85 486q0 249 103 373t309 124t311 -124t105 -373q0 -247 -105 -373q-104 -125 -311 -125q-412 0 -412 498zM808 486q0 421 -311 421q-308 0 -308 -421q0 -422 308 -422q311 0 311 422zM322 1250h115l131 -180h-80z" />
    <glyph glyph-name="oacute" unicode="&#xf3;" horiz-adv-x="997" 
d="M85 486q0 249 103 373t309 124t311 -124t105 -373q0 -247 -105 -373q-104 -125 -311 -125q-412 0 -412 498zM808 486q0 421 -311 421q-308 0 -308 -421q0 -422 308 -422q311 0 311 422zM423 1070l131 180h115l-167 -180h-79z" />
    <glyph glyph-name="ocircumflex" unicode="&#xf4;" horiz-adv-x="997" 
d="M85 486q0 249 103 373t309 124t311 -124t105 -373q0 -247 -105 -373q-104 -125 -311 -125q-412 0 -412 498zM808 486q0 421 -311 421q-308 0 -308 -421q0 -422 308 -422q311 0 311 422zM320 1104l177 171l177 -171l-51 -46l-126 138l-126 -138z" />
    <glyph glyph-name="otilde" unicode="&#xf5;" horiz-adv-x="997" 
d="M85 486q0 249 103 373t309 124t311 -124t105 -373q0 -247 -105 -373q-104 -125 -311 -125q-412 0 -412 498zM808 486q0 421 -311 421q-308 0 -308 -421q0 -422 308 -422q311 0 311 422zM317 1100q33 94 109 94q24 0 42 -10q12 -6 43 -29q19 -17 31 -24q14 -8 29 -8
q25 0 40 16q17 19 29 44l41 -25q-18 -44 -43 -69q-24 -24 -63 -24q-27 0 -44 10q-20 11 -41 30q-16 14 -34 25q-11 7 -28 7q-44 0 -69 -63z" />
    <glyph glyph-name="odieresis" unicode="&#xf6;" horiz-adv-x="997" 
d="M85 486q0 249 103 373t309 124t311 -124t105 -373q0 -247 -105 -373q-104 -125 -311 -125q-412 0 -412 498zM808 486q0 421 -311 421q-308 0 -308 -421q0 -422 308 -422q311 0 311 422zM322 1095q-14 14 -14 37q0 21 14 35t35 14q22 0 36 -14t14 -35q0 -23 -14 -37
t-36 -14q-21 0 -35 14zM601 1095q-14 14 -14 37q0 21 14 35t36 14q23 0 37 -14t14 -35q0 -23 -14 -37t-37 -14q-22 0 -36 14z" />
    <glyph glyph-name="divide" unicode="&#xf7;" horiz-adv-x="939" 
d="M419 815v142h103v-142h-103zM87 497v78h769v-78h-769zM419 111v144h103v-144h-103z" />
    <glyph glyph-name="oslash" unicode="&#xf8;" horiz-adv-x="997" 
d="M812 854q101 -125 101 -368q0 -247 -105 -373q-104 -125 -311 -125q-176 0 -276 92l-74 -98l-43 30l80 105q-99 126 -99 369q0 249 103 373t309 124q179 0 279 -92l76 99l41 -30zM248 200l472 615q-80 92 -223 92q-308 0 -308 -421q0 -180 59 -286zM808 486
q0 183 -58 287l-472 -619q78 -90 219 -90q311 0 311 422z" />
    <glyph glyph-name="ugrave" unicode="&#xf9;" horiz-adv-x="1052" 
d="M796 973h106v-973h-106v149q-86 -158 -308 -158q-178 0 -267 98q-88 97 -88 288v596h106v-595q0 -150 69 -229q69 -80 205 -80q142 0 213 83q70 82 70 241v580zM341 1242h115l131 -181h-79z" />
    <glyph glyph-name="uacute" unicode="&#xfa;" horiz-adv-x="1052" 
d="M796 973h106v-973h-106v149q-86 -158 -308 -158q-178 0 -267 98q-88 97 -88 288v596h106v-595q0 -150 69 -229q69 -80 205 -80q142 0 213 83q70 82 70 241v580zM442 1061l131 181h115l-166 -181h-80z" />
    <glyph glyph-name="ucircumflex" unicode="&#xfb;" horiz-adv-x="1052" 
d="M796 973h106v-973h-106v149q-86 -158 -308 -158q-178 0 -267 98q-88 97 -88 288v596h106v-595q0 -150 69 -229q69 -80 205 -80q142 0 213 83q70 82 70 241v580zM340 1095l176 171l177 -171l-51 -46l-126 138l-125 -138z" />
    <glyph glyph-name="udieresis" unicode="&#xfc;" horiz-adv-x="1052" 
d="M796 973h106v-973h-106v149q-86 -158 -308 -158q-178 0 -267 98q-88 97 -88 288v596h106v-595q0 -150 69 -229q69 -80 205 -80q142 0 213 83q70 82 70 241v580zM343 1086q-14 14 -14 37q0 21 14 35q15 15 35 15q21 0 36 -15q14 -14 14 -35q0 -23 -14 -37t-36 -14
q-21 0 -35 14zM623 1086q-15 15 -15 37q0 20 15 35t35 15q22 0 37 -15q14 -14 14 -35q0 -23 -14 -37t-37 -14q-21 0 -35 14z" />
    <glyph glyph-name="yacute" unicode="&#xfd;" horiz-adv-x="891" 
d="M444 170l304 803h106l-513 -1327h-100l153 400l-353 927h109zM370 1061l131 181h114l-166 -181h-79z" />
    <glyph glyph-name="thorn" unicode="&#xfe;" horiz-adv-x="1057" 
d="M872 852q101 -128 101 -366q0 -237 -101 -365t-292 -128q-119 0 -200 50q-83 51 -125 143v-541h-105v1681h105v-539q42 93 125 143t200 50q191 0 292 -128zM788 176q79 111 79 310q0 200 -79 311q-78 109 -229 109q-149 0 -228 -109q-80 -110 -80 -311q0 -200 80 -310
q79 -109 228 -109q151 0 229 109z" />
    <glyph glyph-name="ydieresis" unicode="&#xff;" horiz-adv-x="891" 
d="M444 170l304 803h106l-513 -1327h-100l153 400l-353 927h109zM269 1086q-14 14 -14 37q0 21 14 35q15 15 35 15q21 0 36 -15q14 -14 14 -35q0 -23 -14 -37t-36 -14q-21 0 -35 14zM548 1086q-14 14 -14 37q0 21 14 35q15 15 36 15q22 0 37 -15q14 -14 14 -35
q0 -23 -14 -37t-37 -14q-22 0 -36 14z" />
    <glyph glyph-name="Amacron" unicode="&#x100;" horiz-adv-x="1061" 
d="M1051 0h-121l-125 350h-549l-125 -350h-120l467 1238h106zM531 1121l-246 -689h491zM699 1353h-335v58h335v-58z" />
    <glyph glyph-name="amacron" unicode="&#x101;" horiz-adv-x="937" 
d="M673 948q68 -32 100 -104q32 -73 32 -197v-647h-103v187q-43 -96 -131 -145q-89 -49 -200 -49q-147 0 -227 76t-80 205q0 343 638 361v9q0 141 -49 200q-49 60 -168 60q-147 0 -358 -69l-19 71q216 74 385 74q111 0 180 -32zM614 150q88 76 88 239v177
q-536 -20 -536 -281q0 -96 60 -153q61 -58 175 -58q125 0 213 76zM621 1088h-334v58h334v-58z" />
    <glyph glyph-name="Abreve" unicode="&#x102;" horiz-adv-x="1061" 
d="M1051 0h-121l-125 350h-549l-125 -350h-120l467 1238h106zM531 1121l-246 -689h491zM720 1503q-2 -92 -52 -137q-51 -45 -137 -45t-137 45t-53 137l64 2q2 -63 35 -95q32 -31 91 -31q58 0 90 31q33 32 35 95z" />
    <glyph glyph-name="abreve" unicode="&#x103;" horiz-adv-x="937" 
d="M673 948q68 -32 100 -104q32 -73 32 -197v-647h-103v187q-43 -96 -131 -145q-89 -49 -200 -49q-147 0 -227 76t-80 205q0 343 638 361v9q0 141 -49 200q-49 60 -168 60q-147 0 -358 -69l-19 71q216 74 385 74q111 0 180 -32zM614 150q88 76 88 239v177
q-536 -20 -536 -281q0 -96 60 -153q61 -58 175 -58q125 0 213 76zM642 1238q-2 -92 -52 -137q-51 -45 -137 -45t-137 45q-50 45 -52 137l63 2q1 -62 36 -95q32 -31 90 -31t90 31q33 32 35 95z" />
    <glyph glyph-name="Aogonek" unicode="&#x104;" horiz-adv-x="1061" 
d="M1086 -288q-57 -39 -119 -39q-61 0 -97 35q-37 36 -37 94q0 112 138 198h-41l-125 350h-549l-125 -350h-120l467 1238h106l467 -1238h-6l4 -2q-72 -41 -116 -93q-40 -47 -40 -94q0 -41 24 -64q25 -23 63 -23q39 0 85 30zM531 1121l-246 -689h491z" />
    <glyph glyph-name="aogonek" unicode="&#x105;" horiz-adv-x="937" 
d="M840 -288q-57 -39 -118 -39q-62 0 -98 35q-37 36 -37 94q0 112 138 198h-23v187q-43 -96 -131 -145q-89 -49 -200 -49q-147 0 -227 76t-80 205q0 343 638 361v9q0 141 -49 200q-49 60 -168 60q-147 0 -358 -69l-19 71q216 74 385 74q111 0 180 -32q68 -32 100 -104
q32 -73 32 -197v-647h-7l3 -2q-71 -41 -114 -94q-40 -49 -40 -93q0 -41 24 -64q25 -23 63 -23t85 30zM614 150q88 76 88 239v177q-536 -20 -536 -281q0 -96 60 -153q61 -58 175 -58q125 0 213 76z" />
    <glyph glyph-name="Cacute" unicode="&#x106;" horiz-adv-x="1165" 
d="M227 112q-117 122 -117 381v255q0 257 117 379t362 122q239 0 360 -112q119 -110 119 -329h-109q0 175 -93 266q-92 91 -277 91q-187 0 -278 -99q-92 -100 -92 -309v-272q0 -214 91 -312q92 -99 279 -99q185 0 277 91q93 91 93 268h109q0 -220 -119 -330
q-121 -112 -360 -112q-245 0 -362 121zM515 1326l131 181h114l-166 -181h-79z" />
    <glyph glyph-name="cacute" unicode="&#x107;" horiz-adv-x="967" 
d="M186 113q-101 127 -101 373q0 245 101 372q100 125 300 125q179 0 280 -88q102 -88 118 -244h-104q-17 119 -91 186q-77 69 -203 69q-147 0 -222 -104q-75 -103 -75 -316q0 -421 297 -421q128 0 204 69t90 190h104q-16 -157 -118 -247q-101 -89 -280 -89q-200 0 -300 125
zM412 1072l131 180h115l-166 -180h-80z" />
    <glyph glyph-name="Ccircumflex" unicode="&#x108;" horiz-adv-x="1165" 
d="M227 112q-117 122 -117 381v255q0 257 117 379t362 122q239 0 360 -112q119 -110 119 -329h-109q0 175 -93 266q-92 91 -277 91q-187 0 -278 -99q-92 -100 -92 -309v-272q0 -214 91 -312q92 -99 279 -99q185 0 277 91q93 91 93 268h109q0 -220 -119 -330
q-121 -112 -360 -112q-245 0 -362 121zM412 1360l177 172l177 -172l-51 -46l-126 138l-126 -138z" />
    <glyph glyph-name="ccircumflex" unicode="&#x109;" horiz-adv-x="967" 
d="M186 113q-101 127 -101 373q0 245 101 372q100 125 300 125q179 0 280 -88q102 -88 118 -244h-104q-17 119 -91 186q-77 69 -203 69q-147 0 -222 -104q-75 -103 -75 -316q0 -421 297 -421q128 0 204 69t90 190h104q-16 -157 -118 -247q-101 -89 -280 -89q-200 0 -300 125
zM309 1105l177 172l177 -172l-51 -46l-126 138l-125 -138z" />
    <glyph glyph-name="Cdotaccent" unicode="&#x10a;" horiz-adv-x="1165" 
d="M227 112q-117 122 -117 381v255q0 257 117 379t362 122q239 0 360 -112q119 -110 119 -329h-109q0 175 -93 266q-92 91 -277 91q-187 0 -278 -99q-92 -100 -92 -309v-272q0 -214 91 -312q92 -99 279 -99q185 0 277 91q93 91 93 268h109q0 -220 -119 -330
q-121 -112 -360 -112q-245 0 -362 121zM554 1352q-15 15 -15 36q0 22 15 36q16 14 37 14t35 -14t14 -36q0 -20 -14 -36q-14 -15 -35 -15q-22 0 -37 15z" />
    <glyph glyph-name="cdotaccent" unicode="&#x10b;" horiz-adv-x="967" 
d="M186 113q-101 127 -101 373q0 245 101 372q100 125 300 125q179 0 280 -88q102 -88 118 -244h-104q-17 119 -91 186q-77 69 -203 69q-147 0 -222 -104q-75 -103 -75 -316q0 -421 297 -421q128 0 204 69t90 190h104q-16 -157 -118 -247q-101 -89 -280 -89q-200 0 -300 125
zM452 1097q-15 15 -15 37t15 35q16 14 36 14q21 0 35 -14q15 -15 15 -35t-15 -37q-14 -15 -35 -15t-36 15z" />
    <glyph glyph-name="Ccaron" unicode="&#x10c;" horiz-adv-x="1165" 
d="M227 112q-117 122 -117 381v255q0 257 117 379t362 122q239 0 360 -112q119 -110 119 -329h-109q0 175 -93 266q-92 91 -277 91q-187 0 -278 -99q-92 -100 -92 -309v-272q0 -214 91 -312q92 -99 279 -99q185 0 277 91q93 91 93 268h109q0 -220 -119 -330
q-121 -112 -360 -112q-245 0 -362 121zM766 1486l-177 -172l-177 172l51 46l126 -138l126 138z" />
    <glyph glyph-name="ccaron" unicode="&#x10d;" horiz-adv-x="967" 
d="M186 113q-101 127 -101 373q0 245 101 372q100 125 300 125q179 0 280 -88q102 -88 118 -244h-104q-17 119 -91 186q-77 69 -203 69q-147 0 -222 -104q-75 -103 -75 -316q0 -421 297 -421q128 0 204 69t90 190h104q-16 -157 -118 -247q-101 -89 -280 -89q-200 0 -300 125
zM663 1231l-177 -172l-177 172l52 46l125 -138l126 138z" />
    <glyph glyph-name="Dcaron" unicode="&#x10e;" horiz-adv-x="1200" 
d="M589 1238q201 0 309 -50q106 -49 154 -181t48 -388t-48 -388t-154 -181q-108 -50 -309 -50h-423v1238h423zM585 88q161 0 248 41q85 40 121 153q36 112 36 337t-36 337q-36 113 -121 153q-87 41 -248 41h-309v-1062h309zM736 1486l-177 -172l-177 172l51 46l126 -138
l125 138z" />
    <glyph glyph-name="dcaron" unicode="&#x10f;" horiz-adv-x="1266" 
d="M803 1326h104v-1326h-104v189q-41 -94 -124 -146q-79 -50 -201 -50q-191 0 -292 128t-101 365q0 238 101 366t292 128q120 0 201 -51q83 -52 124 -146v543zM727 176q79 109 79 310q0 202 -79 311t-228 109q-151 0 -229 -109q-79 -111 -79 -311q0 -199 79 -310
q78 -109 229 -109q149 0 228 109zM1058 907l60 419h93l-1 -86l-82 -333h-70z" />
    <glyph glyph-name="Dcroat" unicode="&#x110;" horiz-adv-x="1213" 
d="M600 1238q200 0 308 -50q107 -50 155 -181q48 -132 48 -388t-48 -388q-48 -131 -155 -181q-108 -50 -308 -50h-423v601h-149v75h149v562h423zM596 88q161 0 248 41q85 40 121 153q36 112 36 337t-36 337q-36 113 -121 153q-87 41 -248 41h-309v-474h263v-75h-263v-513
h309z" />
    <glyph glyph-name="dcroat" unicode="&#x111;" horiz-adv-x="1057" 
d="M1026 1178v-74h-119v-1104h-104v189q-41 -94 -124 -146q-79 -50 -201 -50q-191 0 -292 128t-101 365q0 238 101 366t292 128q120 0 201 -51q83 -52 124 -146v321h-299v74h299v148h104v-148h119zM727 176q79 109 79 310q0 202 -79 311t-228 109q-151 0 -229 -109
q-79 -111 -79 -311q0 -199 79 -310q78 -109 229 -109q149 0 228 109z" />
    <glyph glyph-name="Emacron" unicode="&#x112;" horiz-adv-x="1098" 
d="M276 607v-519h720v-88h-830v1238h814v-88h-704v-457h638v-86h-638zM745 1353h-335v58h335v-58z" />
    <glyph glyph-name="emacron" unicode="&#x113;" horiz-adv-x="985" 
d="M791 853q103 -128 100 -397h-704q10 -391 298 -391q120 0 192 64t94 170h104q-27 -144 -123 -227q-98 -84 -267 -84q-199 0 -299 125q-101 127 -101 373q0 248 101 373q100 124 299 124q201 0 306 -130zM271 814q-75 -91 -82 -278h598q-18 370 -302 370q-139 0 -214 -92z
M651 1088h-334v58h334v-58z" />
    <glyph glyph-name="Ebreve" unicode="&#x114;" horiz-adv-x="1098" 
d="M276 607v-519h720v-88h-830v1238h814v-88h-704v-457h638v-86h-638zM768 1503q-2 -92 -53 -137t-137 -45t-137 45q-50 45 -52 137l64 2q2 -63 35 -95q32 -31 90 -31q59 0 91 31q33 32 35 95z" />
    <glyph glyph-name="ebreve" unicode="&#x115;" horiz-adv-x="985" 
d="M791 853q103 -128 100 -397h-704q10 -391 298 -391q120 0 192 64t94 170h104q-27 -144 -123 -227q-98 -84 -267 -84q-199 0 -299 125q-101 127 -101 373q0 248 101 373q100 124 299 124q201 0 306 -130zM271 814q-75 -91 -82 -278h598q-18 370 -302 370q-139 0 -214 -92z
M672 1238q-2 -92 -52 -137q-51 -45 -137 -45t-137 45q-50 45 -52 137l63 2q1 -62 36 -95q32 -31 90 -31t90 31q33 32 35 95z" />
    <glyph glyph-name="Edotaccent" unicode="&#x116;" horiz-adv-x="1098" 
d="M276 607v-519h720v-88h-830v1238h814v-88h-704v-457h638v-86h-638zM542 1352q-15 15 -15 36q0 22 15 36q16 14 36 14q22 0 36 -14t14 -36q0 -20 -14 -36q-14 -15 -36 -15q-21 0 -36 15z" />
    <glyph glyph-name="edotaccent" unicode="&#x117;" horiz-adv-x="985" 
d="M791 853q103 -128 100 -397h-704q10 -391 298 -391q120 0 192 64t94 170h104q-27 -144 -123 -227q-98 -84 -267 -84q-199 0 -299 125q-101 127 -101 373q0 248 101 373q100 124 299 124q201 0 306 -130zM271 814q-75 -91 -82 -278h598q-18 370 -302 370q-139 0 -214 -92z
M447 1087q-15 15 -15 36t15 35q17 15 36 15q20 0 35 -15q14 -14 14 -35q0 -20 -14 -36q-14 -15 -35 -15t-36 15z" />
    <glyph glyph-name="Eogonek" unicode="&#x118;" horiz-adv-x="1098" 
d="M1031 -288q-57 -39 -118 -39q-62 0 -98 35q-37 36 -37 94q0 112 138 198h-750v1238h814v-88h-704v-457h638v-86h-638v-519h720v-88h-6l4 -2q-72 -41 -116 -93q-40 -47 -40 -94q0 -41 24 -64q25 -23 63 -23q41 0 85 30z" />
    <glyph glyph-name="eogonek" unicode="&#x119;" horiz-adv-x="985" 
d="M791 853q103 -128 100 -397h-704q10 -391 298 -391q120 0 192 64t94 170h104q-26 -135 -109 -215q-86 -83 -232 -95q-72 -42 -114 -93q-40 -49 -40 -94q0 -41 24 -64q25 -23 63 -23q42 0 85 30l21 -42q-57 -39 -118 -39q-62 0 -98 35q-37 36 -37 94q0 109 135 195
q-370 21 -370 498q0 248 101 373q100 124 299 124q201 0 306 -130zM271 814q-75 -91 -82 -278h598q-18 370 -302 370q-139 0 -214 -92z" />
    <glyph glyph-name="Ecaron" unicode="&#x11a;" horiz-adv-x="1098" 
d="M276 607v-519h720v-88h-830v1238h814v-88h-704v-457h638v-86h-638zM753 1486l-176 -172l-177 172l51 46l126 -138l125 138z" />
    <glyph glyph-name="ecaron" unicode="&#x11b;" horiz-adv-x="985" 
d="M791 853q103 -128 100 -397h-704q10 -391 298 -391q120 0 192 64t94 170h104q-27 -144 -123 -227q-98 -84 -267 -84q-199 0 -299 125q-101 127 -101 373q0 248 101 373q100 124 299 124q201 0 306 -130zM271 814q-75 -91 -82 -278h598q-18 370 -302 370q-139 0 -214 -92z
M660 1220l-177 -171l-177 171l51 46l126 -138l125 138z" />
    <glyph glyph-name="Gcircumflex" unicode="&#x11c;" horiz-adv-x="1186" 
d="M637 661h440v-169q0 -260 -118 -381q-119 -122 -365 -122q-245 0 -365 122q-119 120 -119 382v255q0 259 119 379q120 122 365 122q215 0 336 -89q120 -89 138 -262h-109q-12 131 -107 199t-258 68q-189 0 -282 -99t-93 -309v-272q0 -213 93 -313q92 -99 282 -99
q189 0 282 98q93 97 93 310v101h-332v79zM416 1360l176 172l177 -172l-51 -46l-126 138l-125 -138z" />
    <glyph glyph-name="gcircumflex" unicode="&#x11d;" horiz-adv-x="1052" 
d="M798 973h104v-954q0 -203 -89 -292q-90 -90 -281 -90q-181 0 -337 48l21 74q156 -44 304 -44q145 0 211 70q67 72 67 236v198q-88 -180 -322 -180q-193 0 -295 125q-101 123 -101 345q0 223 101 346q102 125 291 125q116 0 198 -48q86 -50 128 -136v177zM722 218
q79 104 79 291t-79 291q-80 106 -229 106q-148 0 -228 -106q-79 -104 -79 -291t79 -291q79 -105 228 -105t229 105zM350 1095l177 171l177 -171l-51 -46l-126 138l-126 -138z" />
    <glyph glyph-name="Gbreve" unicode="&#x11e;" horiz-adv-x="1186" 
d="M637 661h440v-169q0 -260 -118 -381q-119 -122 -365 -122q-245 0 -365 122q-119 120 -119 382v255q0 259 119 379q120 122 365 122q215 0 336 -89q120 -89 138 -262h-109q-12 131 -107 199t-258 68q-189 0 -282 -99t-93 -309v-272q0 -213 93 -313q92 -99 282 -99
q189 0 282 98q93 97 93 310v101h-332v79zM783 1503q-2 -92 -52 -137q-51 -45 -137 -45t-137 45q-50 45 -52 137l64 2q2 -63 35 -95q32 -31 90 -31t90 31q35 33 36 95z" />
    <glyph glyph-name="gbreve" unicode="&#x11f;" horiz-adv-x="1052" 
d="M798 973h104v-954q0 -203 -89 -292q-90 -90 -281 -90q-181 0 -337 48l21 74q156 -44 304 -44q145 0 211 70q67 72 67 236v198q-88 -180 -322 -180q-193 0 -295 125q-101 123 -101 345q0 223 101 346q102 125 291 125q116 0 198 -48q86 -50 128 -136v177zM722 218
q79 104 79 291t-79 291q-80 106 -229 106q-148 0 -228 -106q-79 -104 -79 -291t79 -291q79 -105 228 -105t229 105zM718 1238q-2 -92 -52 -137q-51 -45 -137 -45t-137 45q-50 45 -52 137l63 2q1 -62 36 -95q32 -31 90 -31t90 31q33 32 35 95z" />
    <glyph glyph-name="Gdotaccent" unicode="&#x120;" horiz-adv-x="1186" 
d="M637 661h440v-169q0 -260 -118 -381q-119 -122 -365 -122q-245 0 -365 122q-119 120 -119 382v255q0 259 119 379q120 122 365 122q215 0 336 -89q120 -89 138 -262h-109q-12 131 -107 199t-258 68q-189 0 -282 -99t-93 -309v-272q0 -213 93 -313q92 -99 282 -99
q189 0 282 98q93 97 93 310v101h-332v79zM558 1352q-15 15 -15 36q0 22 15 36q16 14 36 14q22 0 36 -14t14 -36q0 -20 -14 -36q-14 -15 -36 -15q-21 0 -36 15z" />
    <glyph glyph-name="gdotaccent" unicode="&#x121;" horiz-adv-x="1052" 
d="M798 973h104v-954q0 -203 -89 -292q-90 -90 -281 -90q-181 0 -337 48l21 74q156 -44 304 -44q145 0 211 70q67 72 67 236v198q-88 -180 -322 -180q-193 0 -295 125q-101 123 -101 345q0 223 101 346q102 125 291 125q116 0 198 -48q86 -50 128 -136v177zM722 218
q79 104 79 291t-79 291q-80 106 -229 106q-148 0 -228 -106q-79 -104 -79 -291t79 -291q79 -105 228 -105t229 105zM493 1087q-15 15 -15 36t15 35q17 15 36 15q20 0 35 -15q14 -14 14 -35q0 -20 -14 -36q-14 -15 -35 -15t-36 15z" />
    <glyph glyph-name="uni0122" unicode="&#x122;" horiz-adv-x="1186" 
d="M637 661h440v-169q0 -260 -118 -381q-119 -122 -365 -122q-245 0 -365 122q-119 120 -119 382v255q0 259 119 379q120 122 365 122q215 0 336 -89q120 -89 138 -262h-109q-12 131 -107 199t-258 68q-189 0 -282 -99t-93 -309v-272q0 -213 93 -313q92 -99 282 -99
q189 0 282 98q93 97 93 310v101h-332v79zM527 -361l27 253h92l-50 -253h-69z" />
    <glyph glyph-name="uni0123" unicode="&#x123;" horiz-adv-x="1052" 
d="M798 973h104v-954q0 -203 -89 -292q-90 -90 -281 -90q-181 0 -337 48l21 74q156 -44 304 -44q145 0 211 70q67 72 67 236v198q-88 -180 -322 -180q-193 0 -295 125q-101 123 -101 345q0 223 101 346q102 125 291 125q116 0 198 -48q86 -50 128 -136v177zM722 218
q79 104 79 291t-79 291q-80 106 -229 106q-148 0 -228 -106q-79 -104 -79 -291t79 -291q79 -105 228 -105t229 105zM617 1305l-44 -256h-83l60 256h67z" />
    <glyph glyph-name="Hcircumflex" unicode="&#x124;" horiz-adv-x="1252" 
d="M976 686v552h110v-1238h-110v598h-700v-598h-110v1238h110v-552h700zM447 1360l177 172l177 -172l-51 -46l-126 138l-125 -138z" />
    <glyph glyph-name="hcircumflex" unicode="&#x125;" horiz-adv-x="1052" 
d="M828 875q90 -105 90 -295v-580h-104v580q0 152 -69 236t-202 84q-146 0 -217 -86t-71 -248v-566h-105v1326h105v-504q86 158 307 158q176 0 266 -105zM25 1448l177 172l176 -172l-51 -46l-125 138l-126 -138z" />
    <glyph glyph-name="Hbar" unicode="&#x126;" horiz-adv-x="1252" 
d="M1086 997h120v-69h-120v-928h-110v598h-700v-598h-110v928h-122v69h122v241h110v-241h700v241h110v-241zM276 686h700v242h-700v-242z" />
    <glyph glyph-name="hbar" unicode="&#x127;" horiz-adv-x="1052" 
d="M828 875q90 -105 90 -295v-580h-104v580q0 152 -69 236t-202 84q-146 0 -217 -86t-71 -248v-566h-105v1104h-159v74h159v148h105v-148h258v-74h-258v-282q86 158 307 158q176 0 266 -105z" />
    <glyph glyph-name="Itilde" unicode="&#x128;" horiz-adv-x="440" 
d="M276 0h-110v1238h110v-1238zM39 1356q33 94 110 94q23 0 41 -10q12 -6 43 -29q19 -17 31 -24q14 -8 30 -8q24 0 39 16q18 20 30 45l40 -25q-19 -46 -42 -69q-25 -25 -64 -25q-24 0 -43 11q-23 13 -42 30q-19 16 -33 25q-11 7 -29 7q-43 0 -69 -64z" />
    <glyph glyph-name="itilde" unicode="&#x129;" horiz-adv-x="410" 
d="M150 973h110v-973h-110v973zM23 1091q33 94 110 94q23 0 41 -10q16 -9 44 -29q20 -19 30 -24q14 -8 30 -8q24 0 39 16q19 21 30 44l40 -24q-19 -46 -42 -69q-25 -25 -64 -25q-26 0 -43 10q-19 11 -42 31q-15 12 -33 24q-11 7 -29 7q-44 0 -69 -63z" />
    <glyph glyph-name="Imacron" unicode="&#x12a;" horiz-adv-x="440" 
d="M276 0h-110v1238h110v-1238zM387 1353h-334v58h334v-58z" />
    <glyph glyph-name="imacron" unicode="&#x12b;" horiz-adv-x="410" 
d="M150 973h110v-973h-110v973zM371 1088h-334v58h334v-58z" />
    <glyph glyph-name="Ibreve" unicode="&#x12c;" horiz-adv-x="440" 
d="M276 0h-110v1238h110v-1238zM410 1503q-2 -92 -52 -137q-51 -45 -137 -45t-137 45q-50 45 -52 137l63 2q1 -62 36 -95q32 -31 90 -31t90 31q35 33 36 95z" />
    <glyph glyph-name="ibreve" unicode="&#x12d;" horiz-adv-x="410" 
d="M150 973h110v-973h-110v973zM394 1238q-2 -92 -52 -137q-51 -45 -137 -45t-137 45q-50 45 -52 137l64 2q2 -63 35 -95q32 -31 90 -31t90 31q35 33 36 95z" />
    <glyph glyph-name="Iogonek" unicode="&#x12e;" horiz-adv-x="440" 
d="M311 -288q-57 -39 -118 -39t-97 35q-38 36 -38 94q0 112 138 198h-30v1238h110v-1238h-7l3 -2q-71 -41 -114 -94q-40 -49 -40 -93q0 -41 24 -64q25 -23 63 -23q39 0 85 30z" />
    <glyph glyph-name="iogonek" unicode="&#x12f;" horiz-adv-x="410" 
d="M169 1087q-15 15 -15 36t15 35q17 15 36 15q21 0 36 -15q14 -14 14 -35q0 -20 -14 -36q-13 -15 -36 -15q-21 0 -36 15zM295 -288q-57 -39 -118 -39t-97 35q-38 36 -38 94q0 112 138 198h-30v973h110v-973h-7l3 -2q-71 -41 -114 -94q-39 -48 -39 -93q0 -42 23 -64
q25 -23 63 -23q39 0 85 30z" />
    <glyph glyph-name="Idotaccent" unicode="&#x130;" horiz-adv-x="440" 
d="M276 0h-110v1238h110v-1238zM185 1352q-15 15 -15 36q0 22 15 36q16 14 36 14q21 0 35 -14q15 -15 15 -36q0 -19 -15 -36q-14 -15 -35 -15t-36 15z" />
    <glyph glyph-name="dotlessi" unicode="&#x131;" horiz-adv-x="410" 
d="M150 973h110v-973h-110v973z" />
    <glyph glyph-name="IJ" unicode="&#x132;" horiz-adv-x="1013" 
d="M276 0h-110v1238h110v-1238zM453 0v88h122q95 0 133 44t38 153v953h110v-964q0 -105 -25 -162q-25 -58 -82 -85t-157 -27h-139z" />
    <glyph glyph-name="ij" unicode="&#x133;" horiz-adv-x="820" 
d="M255 1130h-105v161h105v-161zM255 0h-105v973h105v-973zM672 1165h-106v161h106v-161zM133 -315l12 76q160 -40 271 -40q79 0 115 37q35 36 35 146v1069h106v-1072q0 -103 -24 -158q-24 -56 -74 -78t-137 -22q-137 0 -304 42z" />
    <glyph glyph-name="Jcircumflex" unicode="&#x134;" horiz-adv-x="573" 
d="M12 0v88h122q96 0 134 44t38 153v953h110v-964q0 -105 -25 -162q-25 -58 -82 -85t-157 -27h-140zM186 1360l177 172l176 -172l-51 -46l-125 138l-126 -138z" />
    <glyph glyph-name="jcircumflex" unicode="&#x135;" horiz-adv-x="415" 
d="M-23 -354v82h51q71 0 101 36t30 132v1077h106v-1083q0 -137 -47 -190q-48 -54 -163 -54h-78zM35 1095l177 171l177 -171l-51 -46l-126 138l-125 -138z" />
    <glyph glyph-name="uni0136" unicode="&#x136;" horiz-adv-x="1055" 
d="M370 638l656 -638h-161l-589 580v-580h-110v1238h110v-543l557 543h161zM490 -354l26 253h92l-49 -253h-69z" />
    <glyph glyph-name="uni0137" unicode="&#x137;" horiz-adv-x="859" 
d="M336 532l476 -532h-140l-417 472v-472h-105v1326h105v-734l378 381h145zM394 -354l27 253h92l-50 -253h-69z" />
    <glyph glyph-name="Lacute" unicode="&#x139;" horiz-adv-x="997" 
d="M962 0h-796v1238h110v-1150h686v-88zM150 1326l131 181h115l-166 -181h-80z" />
    <glyph glyph-name="lacute" unicode="&#x13a;" horiz-adv-x="450" 
d="M322 0q-67 0 -106 14q-37 13 -55 51q-18 37 -18 108v1153h106v-1140q0 -63 22 -85q21 -21 76 -21h46v-80h-71zM122 1415l131 180h115l-166 -180h-80z" />
    <glyph glyph-name="uni013B" unicode="&#x13b;" horiz-adv-x="997" 
d="M962 0h-796v1238h110v-1150h686v-88zM523 -354l27 253h92l-50 -253h-69z" />
    <glyph glyph-name="uni013C" unicode="&#x13c;" horiz-adv-x="450" 
d="M322 0q-67 0 -106 14q-37 13 -55 51q-18 37 -18 108v1153h106v-1140q0 -63 22 -85q21 -21 76 -21h46v-80h-71zM212 -354l27 253h92l-50 -253h-69z" />
    <glyph glyph-name="Lcaron" unicode="&#x13d;" horiz-adv-x="995" 
d="M962 0h-796v1238h110v-1150h686v-88zM720 819l58 419h92v-87l-81 -332h-69z" />
    <glyph glyph-name="lcaron" unicode="&#x13e;" horiz-adv-x="599" 
d="M322 0q-67 0 -106 14q-37 13 -55 51q-18 37 -18 108v1153h106v-1140q0 -63 22 -85q21 -21 76 -21h46v-80h-71zM409 907l56 419h89l-2 -86l-76 -333h-67z" />
    <glyph glyph-name="Ldot" unicode="&#x13f;" horiz-adv-x="997" 
d="M962 0h-796v1238h110v-1150h686v-88zM667 592v153h111v-153h-111z" />
    <glyph glyph-name="ldot" unicode="&#x140;" horiz-adv-x="519" 
d="M322 0q-67 0 -106 14q-37 13 -55 51q-18 37 -18 108v1153h106v-1140q0 -63 22 -85q21 -21 76 -21h46v-80h-71zM361 469v150h106v-150h-106z" />
    <glyph glyph-name="Lslash" unicode="&#x141;" horiz-adv-x="997" 
d="M276 520v-432h686v-88h-796v419l-124 -113v106l124 113v713h110v-612l173 157v-106z" />
    <glyph glyph-name="lslash" unicode="&#x142;" horiz-adv-x="450" 
d="M426 585l-177 -161v-238q0 -63 22 -85q21 -21 76 -21h46v-80h-71q-67 0 -106 14q-37 13 -55 51q-18 37 -18 108v154l-124 -113v106l124 113v893h106v-795l177 161v-107z" />
    <glyph glyph-name="Nacute" unicode="&#x143;" horiz-adv-x="1271" 
d="M1003 118v1120h102v-1238h-141l-695 1118v-1118h-103v1238h140zM569 1326l131 181h115l-166 -181h-80z" />
    <glyph glyph-name="nacute" unicode="&#x144;" horiz-adv-x="1052" 
d="M831 878q89 -104 89 -294v-584h-106v584q0 150 -69 235t-200 85q-146 0 -219 -88q-71 -86 -71 -247v-569h-105v973h105v-159q83 168 313 168q174 0 263 -104zM453 1070l131 180h115l-167 -180h-79z" />
    <glyph glyph-name="uni0145" unicode="&#x145;" horiz-adv-x="1271" 
d="M1003 118v1120h102v-1238h-141l-695 1118v-1118h-103v1238h140zM568 -354l26 253h92l-49 -253h-69z" />
    <glyph glyph-name="uni0146" unicode="&#x146;" horiz-adv-x="1052" 
d="M831 878q89 -104 89 -294v-584h-106v584q0 150 -69 235t-200 85q-146 0 -219 -88q-71 -86 -71 -247v-569h-105v973h105v-159q83 168 313 168q174 0 263 -104zM458 -354l27 253h92l-50 -253h-69z" />
    <glyph glyph-name="Ncaron" unicode="&#x147;" horiz-adv-x="1271" 
d="M1003 118v1120h102v-1238h-141l-695 1118v-1118h-103v1238h140zM821 1486l-177 -172l-177 172l51 46l126 -138l125 138z" />
    <glyph glyph-name="ncaron" unicode="&#x148;" horiz-adv-x="1052" 
d="M831 878q89 -104 89 -294v-584h-106v584q0 150 -69 235t-200 85q-146 0 -219 -88q-71 -86 -71 -247v-569h-105v973h105v-159q83 168 313 168q174 0 263 -104zM704 1229l-177 -171l-177 171l51 46l126 -138l126 138z" />
    <glyph glyph-name="napostrophe" unicode="&#x149;" horiz-adv-x="1052" 
d="M283 1484l-2 -69l-63 -267h-59l48 336h76zM831 878q89 -104 89 -294v-584h-106v584q0 150 -69 235t-200 85q-146 0 -219 -88q-71 -86 -71 -247v-569h-105v973h105v-159q83 168 313 168q174 0 263 -104z" />
    <glyph glyph-name="Eng" unicode="&#x14a;" horiz-adv-x="1271" 
d="M1003 1238h102v-1353q0 -135 -47 -186q-48 -53 -163 -53h-74v82h51q71 0 101 34t30 125v113h-39l-695 1118v-1118h-103v1238h140l697 -1120v1120z" />
    <glyph glyph-name="eng" unicode="&#x14b;" horiz-adv-x="1055" 
d="M920 5h3v-120q0 -133 -48 -186t-162 -53h-78v82h51q74 0 102 34q29 35 29 125v113h-3v584q0 150 -69 235t-200 85q-146 0 -219 -88q-71 -86 -71 -247v-569h-105v973h105v-159q83 168 313 168q174 0 263 -104t89 -294v-579z" />
    <glyph glyph-name="Omacron" unicode="&#x14c;" horiz-adv-x="1183" 
d="M228 111q-118 121 -118 382v255q0 258 118 379q119 122 364 122q244 0 363 -121t119 -380v-255q0 -260 -119 -382t-363 -122q-245 0 -364 122zM872 172q92 101 92 313v272q0 209 -92 309q-92 99 -280 99q-187 0 -280 -99t-93 -309v-272q0 -213 93 -313q92 -99 280 -99
q190 0 280 99zM760 1353h-334v58h334v-58z" />
    <glyph glyph-name="omacron" unicode="&#x14d;" horiz-adv-x="997" 
d="M85 486q0 249 103 373t309 124t311 -124t105 -373q0 -247 -105 -373q-104 -125 -311 -125q-412 0 -412 498zM808 486q0 421 -311 421q-308 0 -308 -421q0 -422 308 -422q311 0 311 422zM665 1097h-334v58h334v-58z" />
    <glyph glyph-name="Obreve" unicode="&#x14e;" horiz-adv-x="1183" 
d="M228 111q-118 121 -118 382v255q0 258 118 379q119 122 364 122q244 0 363 -121t119 -380v-255q0 -260 -119 -382t-363 -122q-245 0 -364 122zM872 172q92 101 92 313v272q0 209 -92 309q-92 99 -280 99q-187 0 -280 -99t-93 -309v-272q0 -213 93 -313q92 -99 280 -99
q190 0 280 99zM782 1503q-2 -92 -52 -137q-51 -45 -138 -45q-86 0 -137 45q-50 45 -52 137l64 2q2 -63 35 -95q32 -31 90 -31q59 0 91 31q33 32 35 95z" />
    <glyph glyph-name="obreve" unicode="&#x14f;" horiz-adv-x="997" 
d="M85 486q0 249 103 373t309 124t311 -124t105 -373q0 -247 -105 -373q-104 -125 -311 -125q-412 0 -412 498zM808 486q0 421 -311 421q-308 0 -308 -421q0 -422 308 -422q311 0 311 422zM686 1247q-2 -92 -52 -137q-51 -45 -137 -45t-137 45q-50 45 -52 137l63 2
q1 -62 36 -95q32 -31 90 -31t90 31q35 33 36 95z" />
    <glyph glyph-name="Ohungarumlaut" unicode="&#x150;" horiz-adv-x="1183" 
d="M228 111q-118 121 -118 382v255q0 258 118 379q119 122 364 122q244 0 363 -121t119 -380v-255q0 -260 -119 -382t-363 -122q-245 0 -364 122zM872 172q92 101 92 313v272q0 209 -92 309q-92 99 -280 99q-187 0 -280 -99t-93 -309v-272q0 -213 93 -313q92 -99 280 -99
q190 0 280 99zM575 1537h69l-96 -211h-51zM699 1537h69l-96 -211h-51z" />
    <glyph glyph-name="ohungarumlaut" unicode="&#x151;" horiz-adv-x="997" 
d="M85 486q0 249 103 373t309 124t311 -124t105 -373q0 -247 -105 -373q-104 -125 -311 -125q-412 0 -412 498zM808 486q0 421 -311 421q-308 0 -308 -421q0 -422 308 -422q311 0 311 422zM479 1280h69l-95 -210h-52zM603 1280h69l-95 -210h-52z" />
    <glyph glyph-name="OE" unicode="&#x152;" horiz-adv-x="1885" 
d="M1068 88h715v-88h-805v193q-99 -204 -394 -204q-238 0 -356 123q-118 122 -118 381v255q0 258 118 379q119 122 356 122q148 0 246 -50q99 -50 148 -152v191h791v-88h-701v-444h635v-83h-635v-535zM959 757q0 209 -92 309q-91 99 -276 99q-186 0 -279 -99t-93 -309v-272
q0 -212 92 -313q90 -99 280 -99q186 0 276 99q92 101 92 313v272z" />
    <glyph glyph-name="oe" unicode="&#x153;" horiz-adv-x="1667" 
d="M1483 852q103 -130 100 -396h-706q10 -391 299 -391q121 0 193 64t94 170h104q-27 -143 -123 -227t-263 -84q-132 0 -218 61q-89 63 -130 179q-83 -240 -354 -240q-200 0 -301 125q-102 126 -102 373q0 246 102 372q101 125 301 125q271 0 354 -240q41 116 130 179
q86 61 218 61q198 0 302 -131zM789 486q0 420 -304 420q-153 0 -228 -104q-75 -103 -75 -316q0 -421 303 -421q304 0 304 421zM877 522h602q-9 384 -303 384q-287 0 -299 -384z" />
    <glyph glyph-name="Racute" unicode="&#x154;" horiz-adv-x="1085" 
d="M1006 0h-120l-258 479h-28h-326v-479h-110v1238h436q200 0 296 -94q94 -93 94 -284q0 -155 -61 -246q-62 -93 -190 -121zM575 571q155 0 231 73q75 72 75 217q0 144 -74 215q-73 70 -232 70h-301v-575h301zM442 1326l131 181h115l-166 -181h-80z" />
    <glyph glyph-name="racute" unicode="&#x155;" horiz-adv-x="643" 
d="M150 0v973h99v-234l4 -2q27 111 104 173q78 63 212 63h50v-98h-50q-314 0 -314 -360v-515h-105zM260 1061l131 181h115l-166 -181h-80z" />
    <glyph glyph-name="uni0156" unicode="&#x156;" horiz-adv-x="1085" 
d="M1006 0h-120l-258 479h-28h-326v-479h-110v1238h436q200 0 296 -94q94 -93 94 -284q0 -155 -61 -246q-62 -93 -190 -121zM575 571q155 0 231 73q75 72 75 217q0 144 -74 215q-73 70 -232 70h-301v-575h301zM460 -354l26 253h92l-49 -253h-69z" />
    <glyph glyph-name="uni0157" unicode="&#x157;" horiz-adv-x="643" 
d="M150 0v973h99v-234l4 -2q27 111 104 173q78 63 212 63h50v-98h-50q-314 0 -314 -360v-515h-105zM129 -354l27 253h92l-50 -253h-69z" />
    <glyph glyph-name="Rcaron" unicode="&#x158;" horiz-adv-x="1085" 
d="M1006 0h-120l-258 479h-28h-326v-479h-110v1238h436q200 0 296 -94q94 -93 94 -284q0 -155 -61 -246q-62 -93 -190 -121zM575 571q155 0 231 73q75 72 75 217q0 144 -74 215q-73 70 -232 70h-301v-575h301zM693 1486l-177 -172l-176 172l51 46l125 -138l126 138z" />
    <glyph glyph-name="rcaron" unicode="&#x159;" horiz-adv-x="643" 
d="M150 0v973h99v-234l4 -2q27 111 104 173q78 63 212 63h50v-98h-50q-314 0 -314 -360v-515h-105zM511 1220l-177 -171l-177 171l52 46l125 -138l126 138z" />
    <glyph glyph-name="Sacute" unicode="&#x15a;" horiz-adv-x="1084" 
d="M217 73q-113 86 -113 277q0 42 4 78h104q-3 -46 -3 -67q0 -152 84 -221t253 -69t255 58q87 58 87 163q0 67 -32 116q-33 50 -108 93q-79 45 -210 93q-166 60 -253 115q-90 57 -126 118q-35 60 -35 140q0 125 110 204t330 79q239 0 336 -106q98 -107 89 -279h-103
q8 137 -66 219q-74 83 -254 83q-167 0 -248 -57t-81 -146q0 -59 30 -104q29 -44 101 -85t200 -89q168 -60 261 -117q92 -56 131 -121q39 -64 39 -153q0 -145 -115 -226t-341 -81q-214 0 -326 85zM486 1326l131 181h115l-166 -181h-80z" />
    <glyph glyph-name="sacute" unicode="&#x15b;" horiz-adv-x="877" 
d="M163 57q-94 70 -94 222q0 26 2 50h95q-3 -31 -3 -46q0 -219 279 -219q132 0 200 44q67 43 67 124q0 52 -26 88q-27 38 -88 69q-69 35 -172 66q-174 52 -255 121q-80 68 -80 167q0 109 90 175q89 65 273 65q182 0 271 -83t81 -216h-96q6 101 -58 163t-202 62
q-132 0 -195 -45t-63 -121q0 -70 72 -118q74 -49 232 -98q173 -52 245 -118t72 -176q0 -114 -92 -180q-90 -65 -274 -65q-188 0 -281 69zM377 1072l131 180h115l-167 -180h-79z" />
    <glyph glyph-name="Scircumflex" unicode="&#x15c;" horiz-adv-x="1084" 
d="M217 73q-113 86 -113 277q0 42 4 78h104q-3 -46 -3 -67q0 -152 84 -221t253 -69t255 58q87 58 87 163q0 67 -32 116q-33 50 -108 93q-79 45 -210 93q-166 60 -253 115q-90 57 -126 118q-35 60 -35 140q0 125 110 204t330 79q239 0 336 -106q98 -107 89 -279h-103
q8 137 -66 219q-74 83 -254 83q-167 0 -248 -57t-81 -146q0 -59 30 -104q29 -44 101 -85t200 -89q168 -60 261 -117q92 -56 131 -121q39 -64 39 -153q0 -145 -115 -226t-341 -81q-214 0 -326 85zM384 1360l177 172l176 -172l-51 -46l-125 138l-126 -138z" />
    <glyph glyph-name="scircumflex" unicode="&#x15d;" horiz-adv-x="877" 
d="M163 57q-94 70 -94 222q0 26 2 50h95q-3 -31 -3 -46q0 -219 279 -219q132 0 200 44q67 43 67 124q0 52 -26 88q-27 38 -88 69q-69 35 -172 66q-174 52 -255 121q-80 68 -80 167q0 109 90 175q89 65 273 65q182 0 271 -83t81 -216h-96q6 101 -58 163t-202 62
q-132 0 -195 -45t-63 -121q0 -70 72 -118q74 -49 232 -98q173 -52 245 -118t72 -176q0 -114 -92 -180q-90 -65 -274 -65q-188 0 -281 69zM274 1105l177 172l177 -172l-51 -46l-126 138l-126 -138z" />
    <glyph glyph-name="Scedilla" unicode="&#x15e;" horiz-adv-x="1084" 
d="M890 73q-107 -79 -322 -85l-29 -99q163 2 163 -108q0 -53 -40 -81q-41 -29 -121 -29q-74 0 -161 27l13 44q86 -21 143 -21q58 0 83 15q27 16 27 48q0 39 -37 54q-36 15 -124 12l31 138q-202 6 -306 91q-106 86 -106 273q0 40 4 76h104q-3 -46 -3 -67q0 -152 84 -221
t253 -69t255 58q87 58 87 163q0 67 -32 116t-108 92q-84 48 -210 94q-166 60 -253 115q-90 57 -126 118q-35 60 -35 140q0 125 110 204t330 79q239 0 336 -106q98 -107 89 -279h-103q8 137 -66 219q-74 83 -254 83q-167 0 -248 -57t-81 -146q0 -59 30 -104q29 -44 101 -85
t200 -89q168 -60 261 -117q92 -56 131 -121q39 -64 39 -153q0 -141 -109 -222z" />
    <glyph glyph-name="scedilla" unicode="&#x15f;" horiz-adv-x="877" 
d="M726 57q-82 -63 -254 -69l-28 -96q163 2 163 -108q0 -52 -40 -80q-41 -29 -121 -29q-77 0 -161 26l12 44q85 -21 143 -21q59 0 84 16q26 17 26 48q0 39 -36 54q-34 14 -125 11l32 135q-176 3 -264 73t-88 218q0 26 2 50h95q-3 -31 -3 -46q0 -219 279 -219q132 0 200 44
q67 43 67 124q0 52 -26 88q-27 38 -88 69q-69 35 -172 66q-174 52 -255 121q-80 68 -80 167q0 109 90 175q89 65 273 65q182 0 271 -83t81 -216h-96q6 101 -58 163t-202 62q-132 0 -195 -45t-63 -121q0 -70 72 -118q74 -49 232 -98q173 -52 245 -118t72 -176
q0 -111 -84 -176z" />
    <glyph glyph-name="Scaron" unicode="&#x160;" horiz-adv-x="1084" 
d="M217 73q-113 86 -113 277q0 42 4 78h104q-3 -46 -3 -67q0 -152 84 -221t253 -69t255 58q87 58 87 163q0 67 -32 116q-33 50 -108 93q-79 45 -210 93q-166 60 -253 115q-90 57 -126 118q-35 60 -35 140q0 125 110 204t330 79q239 0 336 -106q98 -107 89 -279h-103
q8 137 -66 219q-74 83 -254 83q-167 0 -248 -57t-81 -146q0 -59 30 -104q29 -44 101 -85t200 -89q168 -60 261 -117q92 -56 131 -121q39 -64 39 -153q0 -145 -115 -226t-341 -81q-214 0 -326 85zM737 1486l-176 -172l-177 172l51 46l126 -138l125 138z" />
    <glyph glyph-name="scaron" unicode="&#x161;" horiz-adv-x="877" 
d="M163 57q-94 70 -94 222q0 26 2 50h95q-3 -31 -3 -46q0 -219 279 -219q132 0 200 44q67 43 67 124q0 52 -26 88q-27 38 -88 69q-69 35 -172 66q-174 52 -255 121q-80 68 -80 167q0 109 90 175q89 65 273 65q182 0 271 -83t81 -216h-96q6 101 -58 163t-202 62
q-132 0 -195 -45t-63 -121q0 -70 72 -118q74 -49 232 -98q173 -52 245 -118t72 -176q0 -114 -92 -180q-90 -65 -274 -65q-188 0 -281 69zM628 1231l-177 -172l-177 172l51 46l126 -138l126 138z" />
    <glyph glyph-name="uni0162" unicode="&#x162;" horiz-adv-x="1025" 
d="M568 0h-39l-28 -99q162 1 162 -108q0 -52 -40 -80q-43 -30 -121 -30q-74 0 -161 27l13 44q86 -21 143 -21q59 0 84 16q26 17 26 48q0 39 -37 54q-34 14 -124 11l32 138h-20v1150h-408v88h924v-88h-406v-1150z" />
    <glyph glyph-name="uni0163" unicode="&#x163;" horiz-adv-x="608" 
d="M444 0q-23 0 -39 2l-28 -99q162 1 162 -108q0 -54 -39 -81q-41 -29 -122 -29q-73 0 -160 27l12 44q86 -21 143 -21q59 0 84 16q26 17 26 47q0 39 -36 54t-125 12l33 143q-95 16 -137 76q-41 59 -41 182v633h-135v75h135v265h104v-265h283v-75h-283v-629q0 -102 41 -146
q40 -43 140 -43h116v-80h-134z" />
    <glyph glyph-name="Tcaron" unicode="&#x164;" horiz-adv-x="1025" 
d="M974 1238v-88h-406v-1150h-110v1150h-408v88h924zM688 1486l-177 -172l-177 172l52 46l125 -138l126 138z" />
    <glyph glyph-name="tcaron" unicode="&#x165;" horiz-adv-x="611" 
d="M447 1102l61 293h93l-1 -60l-82 -233h-71zM281 269q0 -102 41 -146q40 -43 140 -43h116v-80h-134q-144 0 -206 60q-61 60 -61 205v633h-135v75h135v265h104v-265h283v-75h-283v-629z" />
    <glyph glyph-name="Tbar" unicode="&#x166;" horiz-adv-x="1025" 
d="M974 1238v-88h-406v-476h205v-74h-205v-600h-110v600h-207v74h207v476h-408v88h924z" />
    <glyph glyph-name="tbar" unicode="&#x167;" horiz-adv-x="649" 
d="M584 80v-80h-135q-147 0 -208 60t-61 205v329h-139v75h139v229h-134v75h134v265h107v-265h281v-75h-281v-229h275v-75h-275v-325q0 -106 40 -147q41 -42 140 -42h117z" />
    <glyph glyph-name="Utilde" unicode="&#x168;" horiz-adv-x="1222" 
d="M257 96q-110 106 -110 341v801h109v-801q0 -193 83 -279q82 -85 273 -85q190 0 272 85q83 86 83 279v801h110v-801q0 -235 -110 -341q-112 -107 -355 -107t-355 107zM430 1356q33 94 109 94q24 0 42 -10q12 -6 43 -29q19 -17 31 -24q14 -8 29 -8q25 0 40 16q16 18 29 45
l41 -25q-19 -46 -42 -69q-25 -25 -64 -25q-24 0 -43 11q-23 13 -42 30q-16 14 -34 25q-11 7 -28 7q-43 0 -69 -64z" />
    <glyph glyph-name="utilde" unicode="&#x169;" horiz-adv-x="1052" 
d="M796 973h106v-973h-106v149q-86 -158 -308 -158q-178 0 -267 98q-88 97 -88 288v596h106v-595q0 -150 69 -229q69 -80 205 -80q142 0 213 83q70 82 70 241v580zM336 1091q33 94 110 94q23 0 41 -10q16 -9 44 -29q19 -17 31 -24q14 -8 29 -8q24 0 39 16q19 21 30 44
l40 -24q-19 -46 -42 -69q-25 -25 -64 -25q-26 0 -43 10q-19 11 -42 31q-15 12 -33 24q-11 7 -29 7q-43 0 -69 -63z" />
    <glyph glyph-name="Umacron" unicode="&#x16a;" horiz-adv-x="1222" 
d="M257 96q-110 106 -110 341v801h109v-801q0 -193 83 -279q82 -85 273 -85q190 0 272 85q83 86 83 279v801h110v-801q0 -235 -110 -341q-112 -107 -355 -107t-355 107zM780 1353h-334v58h334v-58z" />
    <glyph glyph-name="umacron" unicode="&#x16b;" horiz-adv-x="1052" 
d="M796 973h106v-973h-106v149q-86 -158 -308 -158q-178 0 -267 98q-88 97 -88 288v596h106v-595q0 -150 69 -229q69 -80 205 -80q142 0 213 83q70 82 70 241v580zM684 1088h-334v58h334v-58z" />
    <glyph glyph-name="Ubreve" unicode="&#x16c;" horiz-adv-x="1222" 
d="M257 96q-110 106 -110 341v801h109v-801q0 -193 83 -279q82 -85 273 -85q190 0 272 85q83 86 83 279v801h110v-801q0 -235 -110 -341q-112 -107 -355 -107t-355 107zM801 1503q-2 -92 -52 -137q-51 -45 -137 -45t-137 45q-50 45 -52 137l63 2q1 -62 36 -95q32 -31 90 -31
t90 31q33 32 35 95z" />
    <glyph glyph-name="ubreve" unicode="&#x16d;" horiz-adv-x="1052" 
d="M796 973h106v-973h-106v149q-86 -158 -308 -158q-178 0 -267 98q-88 97 -88 288v596h106v-595q0 -150 69 -229q69 -80 205 -80q142 0 213 83q70 82 70 241v580zM707 1238q-2 -92 -52 -137q-51 -45 -137 -45t-137 45q-50 45 -52 137l64 2q2 -63 35 -95q32 -31 90 -31
t90 31q35 33 36 95z" />
    <glyph glyph-name="Uring" unicode="&#x16e;" horiz-adv-x="1222" 
d="M257 96q-110 106 -110 341v801h109v-801q0 -193 83 -279q82 -85 273 -85q190 0 272 85q83 86 83 279v801h110v-801q0 -235 -110 -341q-112 -107 -355 -107t-355 107zM524 1336q-34 33 -34 86t34 86q33 32 88 32q53 0 88 -32q36 -33 36 -86t-36 -86t-88 -33q-54 0 -88 33z
M667 1368q21 21 21 54q0 31 -21 52q-20 20 -55 20q-33 0 -53 -20q-21 -21 -21 -52q0 -33 21 -54q20 -20 53 -20q35 0 55 20z" />
    <glyph glyph-name="uring" unicode="&#x16f;" horiz-adv-x="1052" 
d="M796 973h106v-973h-106v149q-86 -158 -308 -158q-178 0 -267 98q-88 97 -88 288v596h106v-595q0 -150 69 -229q69 -80 205 -80q142 0 213 83q70 82 70 241v580zM429 1071q-35 33 -35 86q0 52 35 85t87 33q53 0 89 -33q35 -32 35 -85q0 -54 -35 -86q-36 -33 -89 -33
q-52 0 -87 33zM571 1103q21 21 21 54q0 31 -21 52q-20 20 -55 20q-33 0 -53 -20q-21 -21 -21 -52q0 -33 21 -54t53 -21q34 0 55 21z" />
    <glyph glyph-name="Uhungarumlaut" unicode="&#x170;" horiz-adv-x="1222" 
d="M257 96q-110 106 -110 341v801h109v-801q0 -193 83 -279q82 -85 273 -85q190 0 272 85q83 86 83 279v801h110v-801q0 -235 -110 -341q-112 -107 -355 -107t-355 107zM594 1537h69l-95 -211h-52zM718 1537h69l-95 -211h-52z" />
    <glyph glyph-name="uhungarumlaut" unicode="&#x171;" horiz-adv-x="1052" 
d="M796 973h106v-973h-106v149q-86 -158 -308 -158q-178 0 -267 98q-88 97 -88 288v596h106v-595q0 -150 69 -229q69 -80 205 -80q142 0 213 83q70 82 70 241v580zM499 1272h69l-96 -211h-51zM623 1272h69l-96 -211h-51z" />
    <glyph glyph-name="Uogonek" unicode="&#x172;" horiz-adv-x="1222" 
d="M967 1238h110v-801q0 -222 -101 -331q-100 -108 -322 -117q-73 -41 -113 -92q-39 -49 -39 -93q0 -41 24 -64q25 -23 63 -23q41 0 85 30l21 -42q-57 -39 -118 -39q-62 0 -98 35q-37 36 -37 94q0 54 35 104q34 49 98 90q-225 8 -326 115q-102 108 -102 333v801h109v-801
q0 -193 83 -279q82 -85 273 -85q190 0 272 85q83 86 83 279v801z" />
    <glyph glyph-name="uogonek" unicode="&#x173;" horiz-adv-x="1052" 
d="M937 -288q-57 -39 -118 -39t-97 35q-38 36 -38 94q0 112 138 198h-26v149q-86 -158 -308 -158q-178 0 -267 98q-88 97 -88 288v596h104v-595q0 -150 70 -229q71 -80 206 -80q142 0 213 83q70 82 70 241v580h106v-973h-7l3 -2q-71 -41 -114 -94q-39 -48 -39 -93
q0 -42 23 -64q25 -23 63 -23q41 0 85 30z" />
    <glyph glyph-name="Wcircumflex" unicode="&#x174;" horiz-adv-x="1738" 
d="M1249 134l320 1104h116l-374 -1238h-121l-322 1072l-323 -1072h-119l-373 1238h117l320 -1104l329 1104h101zM692 1342l176 172l177 -172l-51 -46l-126 138l-125 -138z" />
    <glyph glyph-name="wcircumflex" unicode="&#x175;" horiz-adv-x="1425" 
d="M1029 120l234 853h113l-292 -973h-108l-263 840l-264 -840h-108l-291 973h113l233 -853l267 853h99zM534 1095l177 171l177 -171l-51 -46l-126 138l-126 -138z" />
    <glyph glyph-name="Ycircumflex" unicode="&#x176;" horiz-adv-x="1038" 
d="M518 603l361 635h118l-424 -727v-511h-110v511l-422 727h116zM341 1360l177 172l177 -172l-51 -46l-126 138l-125 -138z" />
    <glyph glyph-name="ycircumflex" unicode="&#x177;" horiz-adv-x="891" 
d="M444 170l304 803h106l-513 -1327h-100l153 400l-353 927h109zM267 1095l177 171l177 -171l-52 -46l-125 138l-126 -138z" />
    <glyph glyph-name="Ydieresis" unicode="&#x178;" horiz-adv-x="1038" 
d="M518 603l361 635h118l-424 -727v-511h-110v511l-422 727h116zM343 1351q-14 14 -14 37q0 22 14 36t35 14q22 0 36 -14t14 -36q0 -23 -14 -37t-36 -14q-21 0 -35 14zM623 1351q-15 15 -15 37q0 21 15 36q14 14 35 14q23 0 37 -14t14 -36q0 -23 -14 -37t-37 -14
q-21 0 -35 14z" />
    <glyph glyph-name="Zacute" unicode="&#x179;" horiz-adv-x="992" 
d="M959 0h-901l738 1150h-723v88h886l-738 -1150h738v-88zM439 1326l130 181h115l-166 -181h-79z" />
    <glyph glyph-name="zacute" unicode="&#x17a;" horiz-adv-x="838" 
d="M775 0h-718l571 893h-554v80h701l-572 -893h572v-80zM336 1061l131 181h115l-166 -181h-80z" />
    <glyph glyph-name="Zdotaccent" unicode="&#x17b;" horiz-adv-x="992" 
d="M959 0h-901l738 1150h-723v88h886l-738 -1150h738v-88zM478 1352q-15 15 -15 36q0 22 15 36q16 14 37 14t35 -14t14 -36q0 -20 -14 -36q-14 -15 -35 -15q-22 0 -37 15z" />
    <glyph glyph-name="zdotaccent" unicode="&#x17c;" horiz-adv-x="838" 
d="M775 0h-718l571 893h-554v80h701l-572 -893h572v-80zM376 1087q-15 15 -15 36t15 35q17 15 36 15q20 0 35 -15t15 -35q0 -19 -15 -36q-13 -15 -35 -15q-21 0 -36 15z" />
    <glyph glyph-name="Zcaron" unicode="&#x17d;" horiz-adv-x="992" 
d="M959 0h-901l738 1150h-723v88h886l-738 -1150h738v-88zM690 1486l-177 -172l-177 172l51 46l126 -138l125 138z" />
    <glyph glyph-name="zcaron" unicode="&#x17e;" horiz-adv-x="838" 
d="M775 0h-718l571 893h-554v80h701l-572 -893h572v-80zM587 1220l-177 -171l-177 171l52 46l125 -138l126 138z" />
    <glyph glyph-name="uni018F" unicode="&#x18f;" horiz-adv-x="1186" 
d="M957 1121q120 -127 120 -387v-226q0 -262 -120 -390q-121 -129 -365 -129q-242 0 -363 127q-119 125 -119 390v147h857v92q0 420 -375 420q-158 0 -252 -70t-114 -197h-109q23 169 144 260t331 91q245 0 365 -128zM967 497v78h-749v-82q0 -211 93 -316q92 -104 281 -104
q375 0 375 424z" />
    <glyph glyph-name="florin" unicode="&#x192;" horiz-adv-x="668" 
d="M463 1211q-32 -49 -40 -171l-18 -281h207v-75h-212l-48 -748q-9 -156 -62 -226q-53 -69 -173 -69q-84 0 -170 18l11 70q82 -14 130 -14q84 0 117 50q34 50 41 171l48 748h-204v75h209l18 281q9 158 61 226q52 69 176 69q67 0 168 -17l-11 -71q-79 14 -131 14
q-84 0 -117 -50z" />
    <glyph glyph-name="uni01CD" unicode="&#x1cd;" horiz-adv-x="1061" 
d="M1051 0h-121l-125 350h-549l-125 -350h-120l467 1238h106zM531 1121l-246 -689h491zM707 1486l-176 -172l-177 172l51 46l126 -138l125 138z" />
    <glyph glyph-name="uni01CE" unicode="&#x1ce;" horiz-adv-x="937" 
d="M673 948q68 -32 100 -104q32 -73 32 -197v-647h-103v187q-43 -96 -131 -145q-89 -49 -200 -49q-147 0 -227 76t-80 205q0 343 638 361v9q0 141 -49 200q-49 60 -168 60q-147 0 -358 -69l-19 71q216 74 385 74q111 0 180 -32zM614 150q88 76 88 239v177
q-536 -20 -536 -281q0 -96 60 -153q61 -58 175 -58q125 0 213 76zM630 1220l-177 -171l-177 171l51 46l126 -138l125 138z" />
    <glyph glyph-name="uni01CF" unicode="&#x1cf;" horiz-adv-x="440" 
d="M276 0h-110v1238h110v-1238zM396 1486l-177 -172l-177 172l52 46l125 -138l126 138z" />
    <glyph glyph-name="uni01D0" unicode="&#x1d0;" horiz-adv-x="410" 
d="M150 973h110v-973h-110v973zM380 1220l-177 -171l-176 171l51 46l125 -138l126 138z" />
    <glyph glyph-name="uni01D1" unicode="&#x1d1;" horiz-adv-x="1183" 
d="M228 111q-118 121 -118 382v255q0 258 118 379q119 122 364 122q244 0 363 -121t119 -380v-255q0 -260 -119 -382t-363 -122q-245 0 -364 122zM872 172q92 101 92 313v272q0 209 -92 309q-92 99 -280 99q-187 0 -280 -99t-93 -309v-272q0 -213 93 -313q92 -99 280 -99
q190 0 280 99zM769 1486l-177 -172l-176 172l51 46l125 -138l126 138z" />
    <glyph glyph-name="uni01D2" unicode="&#x1d2;" horiz-adv-x="997" 
d="M85 486q0 249 103 373t309 124t311 -124t105 -373q0 -247 -105 -373q-104 -125 -311 -125q-412 0 -412 498zM808 486q0 421 -311 421q-308 0 -308 -421q0 -422 308 -422q311 0 311 422zM674 1229l-177 -171l-177 171l51 46l126 -138l126 138z" />
    <glyph glyph-name="uni01D3" unicode="&#x1d3;" horiz-adv-x="1222" 
d="M257 96q-110 106 -110 341v801h109v-801q0 -193 83 -279q82 -85 273 -85q190 0 272 85q83 86 83 279v801h110v-801q0 -235 -110 -341q-112 -107 -355 -107t-355 107zM789 1486l-177 -172l-177 172l51 46l126 -138l125 138z" />
    <glyph glyph-name="uni01D4" unicode="&#x1d4;" horiz-adv-x="1052" 
d="M796 973h106v-973h-106v149q-86 -158 -308 -158q-178 0 -267 98q-88 97 -88 288v596h106v-595q0 -150 69 -229q69 -80 205 -80q142 0 213 83q70 82 70 241v580zM693 1220l-177 -171l-176 171l51 46l125 -138l126 138z" />
    <glyph glyph-name="uni01D5" unicode="&#x1d5;" horiz-adv-x="1222" 
d="M257 96q-110 106 -110 341v801h109v-801q0 -193 83 -279q82 -85 273 -85q190 0 272 85q83 86 83 279v801h110v-801q0 -235 -110 -341q-112 -107 -355 -107t-355 107zM437 1351q-14 14 -14 37q0 22 14 36t35 14q22 0 36 -14t14 -36q0 -23 -14 -37t-36 -14q-21 0 -35 14z
M716 1351q-14 14 -14 37q0 22 14 36t36 14q23 0 37 -14t14 -36q0 -23 -14 -37t-37 -14q-22 0 -36 14zM780 1556h-334v59h334v-59z" />
    <glyph glyph-name="uni01D6" unicode="&#x1d6;" horiz-adv-x="1052" 
d="M796 973h106v-973h-106v149q-86 -158 -308 -158q-178 0 -267 98q-88 97 -88 288v596h106v-595q0 -150 69 -229q69 -80 205 -80q142 0 213 83q70 82 70 241v580zM343 1086q-14 14 -14 37q0 21 14 35q15 15 35 15q21 0 36 -15q14 -14 14 -35q0 -23 -14 -37t-36 -14
q-21 0 -35 14zM623 1086q-15 15 -15 37q0 20 15 35t35 15q22 0 37 -15q14 -14 14 -35q0 -23 -14 -37t-37 -14q-21 0 -35 14zM684 1291h-334v58h334v-58z" />
    <glyph glyph-name="uni01D7" unicode="&#x1d7;" horiz-adv-x="1222" 
d="M257 96q-110 106 -110 341v801h109v-801q0 -193 83 -279q82 -85 273 -85q190 0 272 85q83 86 83 279v801h110v-801q0 -235 -110 -341q-112 -107 -355 -107t-355 107zM437 1351q-14 14 -14 37q0 22 14 36t35 14q22 0 36 -14t14 -36q0 -23 -14 -37t-36 -14q-21 0 -35 14z
M716 1351q-14 14 -14 37q0 22 14 36t36 14q23 0 37 -14t14 -36q0 -23 -14 -37t-37 -14q-22 0 -36 14zM538 1530l131 180h114l-166 -180h-79z" />
    <glyph glyph-name="uni01D8" unicode="&#x1d8;" horiz-adv-x="1052" 
d="M796 973h106v-973h-106v149q-86 -158 -308 -158q-178 0 -267 98q-88 97 -88 288v596h106v-595q0 -150 69 -229q69 -80 205 -80q142 0 213 83q70 82 70 241v580zM343 1086q-14 14 -14 37q0 21 14 35q15 15 35 15q21 0 36 -15q14 -14 14 -35q0 -23 -14 -37t-36 -14
q-21 0 -35 14zM623 1086q-15 15 -15 37q0 20 15 35t35 15q22 0 37 -15q14 -14 14 -35q0 -23 -14 -37t-37 -14q-21 0 -35 14zM442 1265l131 180h115l-166 -180h-80z" />
    <glyph glyph-name="uni01D9" unicode="&#x1d9;" horiz-adv-x="1222" 
d="M257 96q-110 106 -110 341v801h109v-801q0 -193 83 -279q82 -85 273 -85q190 0 272 85q83 86 83 279v801h110v-801q0 -235 -110 -341q-112 -107 -355 -107t-355 107zM437 1351q-14 14 -14 37q0 22 14 36t35 14q22 0 36 -14t14 -36q0 -23 -14 -37t-36 -14q-21 0 -35 14z
M716 1351q-14 14 -14 37q0 22 14 36t36 14q23 0 37 -14t14 -36q0 -23 -14 -37t-37 -14q-22 0 -36 14zM789 1689l-177 -172l-177 172l51 46l126 -138l125 138z" />
    <glyph glyph-name="uni01DA" unicode="&#x1da;" horiz-adv-x="1052" 
d="M796 973h106v-973h-106v149q-86 -158 -308 -158q-178 0 -267 98q-88 97 -88 288v596h106v-595q0 -150 69 -229q69 -80 205 -80q142 0 213 83q70 82 70 241v580zM343 1086q-14 14 -14 37q0 21 14 35q15 15 35 15q21 0 36 -15q14 -14 14 -35q0 -23 -14 -37t-36 -14
q-21 0 -35 14zM623 1086q-15 15 -15 37q0 20 15 35t35 15q22 0 37 -15q14 -14 14 -35q0 -23 -14 -37t-37 -14q-21 0 -35 14zM693 1424l-177 -172l-176 172l51 46l125 -138l126 138z" />
    <glyph glyph-name="uni01DB" unicode="&#x1db;" horiz-adv-x="1222" 
d="M257 96q-110 106 -110 341v801h109v-801q0 -193 83 -279q82 -85 273 -85q190 0 272 85q83 86 83 279v801h110v-801q0 -235 -110 -341q-112 -107 -355 -107t-355 107zM437 1351q-14 14 -14 37q0 22 14 36t35 14q22 0 36 -14t14 -36q0 -23 -14 -37t-36 -14q-21 0 -35 14z
M716 1351q-14 14 -14 37q0 22 14 36t36 14q23 0 37 -14t14 -36q0 -23 -14 -37t-37 -14q-22 0 -36 14zM437 1710h115l131 -180h-80z" />
    <glyph glyph-name="uni01DC" unicode="&#x1dc;" horiz-adv-x="1052" 
d="M796 973h106v-973h-106v149q-86 -158 -308 -158q-178 0 -267 98q-88 97 -88 288v596h106v-595q0 -150 69 -229q69 -80 205 -80q142 0 213 83q70 82 70 241v580zM343 1086q-14 14 -14 37q0 21 14 35q15 15 35 15q21 0 36 -15q14 -14 14 -35q0 -23 -14 -37t-36 -14
q-21 0 -35 14zM623 1086q-15 15 -15 37q0 20 15 35t35 15q22 0 37 -15q14 -14 14 -35q0 -23 -14 -37t-37 -14q-21 0 -35 14zM341 1445h115l131 -180h-79z" />
    <glyph glyph-name="Gcaron" unicode="&#x1e6;" horiz-adv-x="1186" 
d="M637 661h440v-169q0 -260 -118 -381q-119 -122 -365 -122q-245 0 -365 122q-119 120 -119 382v255q0 259 119 379q120 122 365 122q215 0 336 -89q120 -89 138 -262h-109q-12 131 -107 199t-258 68q-189 0 -282 -99t-93 -309v-272q0 -213 93 -313q92 -99 282 -99
q189 0 282 98q93 97 93 310v101h-332v79zM769 1486l-177 -172l-176 172l51 46l125 -138l126 138z" />
    <glyph glyph-name="gcaron" unicode="&#x1e7;" horiz-adv-x="1052" 
d="M798 973h104v-954q0 -203 -89 -292q-90 -90 -281 -90q-181 0 -337 48l21 74q156 -44 304 -44q145 0 211 70q67 72 67 236v198q-88 -180 -322 -180q-193 0 -295 125q-101 123 -101 345q0 223 101 346q102 125 291 125q116 0 198 -48q86 -50 128 -136v177zM722 218
q79 104 79 291t-79 291q-80 106 -229 106q-148 0 -228 -106q-79 -104 -79 -291t79 -291q79 -105 228 -105t229 105zM704 1220l-177 -171l-177 171l51 46l126 -138l126 138z" />
    <glyph glyph-name="uni01EA" unicode="&#x1ea;" horiz-adv-x="1183" 
d="M955 1128q119 -121 119 -380v-255q0 -252 -111 -374q-111 -121 -340 -130h1q-72 -42 -114 -93q-40 -49 -40 -94q0 -41 24 -64q25 -23 63 -23q41 0 85 30l21 -42q-57 -39 -118 -39q-62 0 -98 35q-37 36 -37 94q0 111 136 198q-219 10 -328 133q-108 122 -108 369v255
q0 258 118 379q119 122 364 122q244 0 363 -121zM964 757q0 209 -92 309q-92 99 -280 99q-187 0 -280 -99t-93 -309v-272q0 -213 93 -313q92 -99 280 -99q190 0 280 99q92 101 92 313v272z" />
    <glyph glyph-name="uni01EB" unicode="&#x1eb;" horiz-adv-x="997" 
d="M808 113q-104 -125 -311 -125h-7l3 -2q-71 -41 -114 -94q-39 -48 -39 -94q0 -41 23 -63q25 -23 63 -23t85 30l21 -43q-57 -39 -118 -39q-60 0 -97 36q-38 36 -38 94q0 114 145 201q-339 42 -339 495q0 249 103 373t309 124t311 -124t105 -373q0 -247 -105 -373zM497 64
q311 0 311 422q0 421 -311 421q-308 0 -308 -421q0 -422 308 -422z" />
    <glyph glyph-name="Aringacute" unicode="&#x1fa;" horiz-adv-x="1061" 
d="M1051 0h-121l-125 350h-549l-125 -350h-120l467 1238h106zM531 1121l-246 -689h491zM443 1336q-34 33 -34 86t34 86q33 32 88 32q53 0 88 -32t35 -86t-35 -86q-36 -33 -88 -33q-53 0 -88 33zM585 1368q22 22 22 54q0 30 -22 52q-20 20 -54 20q-33 0 -53 -20
q-22 -22 -22 -52q0 -32 22 -54q20 -20 53 -20q34 0 54 20zM456 1624l131 180h115l-166 -180h-80z" />
    <glyph glyph-name="aringacute" unicode="&#x1fb;" horiz-adv-x="937" 
d="M673 948q68 -32 100 -104q32 -73 32 -197v-647h-103v187q-43 -96 -131 -145q-89 -49 -200 -49q-147 0 -227 76t-80 205q0 343 638 361v9q0 141 -49 200q-49 60 -168 60q-147 0 -358 -69l-19 71q216 74 385 74q111 0 180 -32zM614 150q88 76 88 239v177
q-536 -20 -536 -281q0 -96 60 -153q61 -58 175 -58q125 0 213 76zM365 1071q-34 33 -34 86q0 52 34 85q35 33 88 33q52 0 88 -33t36 -85q0 -53 -36 -86t-88 -33q-53 0 -88 33zM508 1103q21 21 21 54q0 31 -21 52q-20 20 -55 20q-33 0 -53 -20q-22 -22 -22 -52q0 -32 22 -54
q21 -21 53 -21q34 0 55 21zM378 1358l131 181h115l-166 -181h-80z" />
    <glyph glyph-name="AEacute" unicode="&#x1fc;" horiz-adv-x="1685" 
d="M877 607v-519h722v-88h-831v338h-471l-196 -338h-122l736 1238h868v-88h-706v-457h640v-86h-640zM768 1144l-425 -728h425v728zM760 1326l131 181h115l-166 -181h-80z" />
    <glyph glyph-name="aeacute" unicode="&#x1fd;" horiz-adv-x="1582" 
d="M1400 852q104 -131 98 -396h-704q6 -199 80 -294q76 -97 219 -97q121 0 193 64q70 63 93 170h105q-27 -141 -122 -226t-258 -85q-280 0 -356 258q-30 -117 -128 -185t-243 -68q-155 0 -238 75q-82 75 -82 206q0 343 638 361v9q0 141 -49 200q-50 60 -168 60
q-146 0 -358 -69l-19 71q216 74 366 74q133 0 204 -46q72 -47 93 -154q85 203 329 203q203 0 307 -131zM875 813q-73 -91 -81 -284h601q-14 377 -302 377q-143 0 -218 -93zM607 150q88 76 88 239v177q-536 -20 -536 -281q0 -96 60 -153q61 -58 175 -58q125 0 213 76z
M994 1065l131 180h115l-166 -180h-80z" />
    <glyph glyph-name="Oslashacute" unicode="&#x1fe;" horiz-adv-x="1183" 
d="M1084 1219l-97 -130q87 -119 87 -341v-255q0 -260 -119 -382t-363 -122q-232 0 -350 108l-86 -116l-52 38l96 128q-90 122 -90 346v255q0 258 118 379q119 122 364 122q232 0 351 -108l88 116zM219 485q0 -152 48 -248l614 819q-91 109 -289 109q-187 0 -280 -99
t-93 -309v-272zM964 757q0 145 -46 240l-612 -817q89 -107 286 -107q190 0 280 99q92 101 92 313v272zM516 1326l131 181h115l-166 -181h-80z" />
    <glyph glyph-name="oslashacute" unicode="&#x1ff;" horiz-adv-x="997" 
d="M812 854q101 -125 101 -368q0 -247 -105 -373q-104 -125 -311 -125q-176 0 -276 92l-74 -98l-43 30l80 105q-99 126 -99 369q0 249 103 373t309 124q179 0 279 -92l76 99l41 -30zM248 200l472 615q-80 92 -223 92q-308 0 -308 -421q0 -180 59 -286zM808 486
q0 183 -58 287l-472 -619q78 -90 219 -90q311 0 311 422zM423 1070l131 180h115l-167 -180h-79z" />
    <glyph glyph-name="uni0218" unicode="&#x218;" horiz-adv-x="1084" 
d="M217 73q-113 86 -113 277q0 42 4 78h104q-3 -46 -3 -67q0 -152 84 -221t253 -69t255 58q87 58 87 163q0 67 -32 116q-33 50 -108 93q-79 45 -210 93q-166 60 -253 115q-90 57 -126 118q-35 60 -35 140q0 125 110 204t330 79q239 0 336 -106q98 -107 89 -279h-103
q8 137 -66 219q-74 83 -254 83q-167 0 -248 -57t-81 -146q0 -59 30 -104q29 -44 101 -85t200 -89q168 -60 261 -117q92 -56 131 -121q39 -64 39 -153q0 -145 -115 -226t-341 -81q-214 0 -326 85zM483 -366l26 253h92l-49 -253h-69z" />
    <glyph glyph-name="uni0219" unicode="&#x219;" horiz-adv-x="877" 
d="M163 57q-94 70 -94 222q0 26 2 50h95q-3 -31 -3 -46q0 -219 279 -219q132 0 200 44q67 43 67 124q0 52 -26 88q-27 38 -88 69q-69 35 -172 66q-174 52 -255 121q-80 68 -80 167q0 109 90 175q89 65 273 65q182 0 271 -83t81 -216h-96q6 101 -58 163t-202 62
q-132 0 -195 -45t-63 -121q0 -70 72 -118q74 -49 232 -98q173 -52 245 -118t72 -176q0 -114 -92 -180q-90 -65 -274 -65q-188 0 -281 69zM387 -363l27 253h92l-50 -253h-69z" />
    <glyph glyph-name="uni021A" unicode="&#x21a;" horiz-adv-x="1025" 
d="M974 1238v-88h-406v-1150h-110v1150h-408v88h924zM446 -354l26 253h92l-49 -253h-69z" />
    <glyph glyph-name="uni021B" unicode="&#x21b;" horiz-adv-x="608" 
d="M578 80v-80h-134q-144 0 -206 60q-61 60 -61 205v633h-135v75h135v265h104v-265h283v-75h-283v-629q0 -102 41 -146q40 -43 140 -43h116zM320 -352l27 253h92l-50 -253h-69z" />
    <glyph glyph-name="uni0232" unicode="&#x232;" horiz-adv-x="1038" 
d="M518 603l361 635h118l-424 -727v-511h-110v511l-422 727h116zM686 1353h-334v58h334v-58z" />
    <glyph glyph-name="uni0233" unicode="&#x233;" horiz-adv-x="891" 
d="M444 170l304 803h106l-513 -1327h-100l153 400l-353 927h109zM612 1088h-334v58h334v-58z" />
    <glyph glyph-name="uni0237" unicode="&#x237;" horiz-adv-x="415" 
d="M-23 -354v82h51q71 0 101 36t30 132v1077h106v-1083q0 -137 -47 -190q-48 -54 -163 -54h-78z" />
    <glyph glyph-name="uni0259" unicode="&#x259;" horiz-adv-x="985" 
d="M799 860q101 -127 101 -374t-101 -372t-298 -125q-201 0 -306 130q-104 129 -101 397h704q-10 391 -297 391q-122 0 -193 -63q-72 -64 -94 -170h-104q27 144 123 227q97 84 268 84q198 0 298 -125zM715 158q73 90 81 279h-598q18 -370 303 -370q139 0 214 91z" />
    <glyph glyph-name="uni02BC" unicode="&#x2bc;" horiz-adv-x="302" 
d="M76 819l60 419h94l-2 -87l-81 -332h-71z" />
    <glyph glyph-name="circumflex" unicode="&#x2c6;" horiz-adv-x="760" 
d="M195 1095l176 171l177 -171l-51 -46l-126 138l-125 -138z" />
    <glyph glyph-name="caron" unicode="&#x2c7;" horiz-adv-x="760" 
d="M548 1220l-177 -171l-176 171l51 46l125 -138l126 138z" />
    <glyph glyph-name="breve" unicode="&#x2d8;" horiz-adv-x="767" 
d="M564 1238q-2 -92 -52 -137q-51 -45 -137 -45t-137 45q-50 45 -52 137l63 2q1 -62 36 -95q32 -31 90 -31t90 31q35 33 36 95z" />
    <glyph glyph-name="dotaccent" unicode="&#x2d9;" horiz-adv-x="719" 
d="M314 1087q-15 15 -15 36t15 35q17 15 36 15q21 0 36 -15q14 -14 14 -35q0 -20 -14 -36q-14 -15 -36 -15q-21 0 -36 15z" />
    <glyph glyph-name="ring" unicode="&#x2da;" horiz-adv-x="744" 
d="M277 1071q-35 33 -35 86q0 52 35 85t87 33q53 0 89 -33q35 -32 35 -85q0 -54 -35 -86q-36 -33 -89 -33q-52 0 -87 33zM419 1103q21 21 21 54q0 31 -21 52q-20 20 -55 20q-33 0 -53 -20q-21 -21 -21 -52q0 -33 21 -54t53 -21q34 0 55 21z" />
    <glyph glyph-name="ogonek" unicode="&#x2db;" horiz-adv-x="718" 
d="M437 -287q-56 -38 -119 -38q-61 0 -97 35q-37 36 -37 94q0 124 168 215l46 -19q-71 -41 -114 -94q-40 -49 -40 -93q0 -42 24 -64q25 -23 63 -23q39 0 85 30z" />
    <glyph glyph-name="tilde" unicode="&#x2dc;" horiz-adv-x="767" 
d="M195 1091q33 94 109 94q24 0 42 -10q12 -6 43 -29q19 -17 31 -24q14 -8 29 -8q25 0 40 16q17 19 29 44l41 -24q-18 -44 -43 -69t-63 -25q-27 0 -44 10q-16 9 -41 31q-12 10 -34 24q-11 7 -28 7q-44 0 -69 -63z" />
    <glyph glyph-name="hungarumlaut" unicode="&#x2dd;" horiz-adv-x="776" 
d="M405 1272h69l-96 -211h-51zM529 1272h69l-96 -211h-51z" />
    <glyph glyph-name="gravecomb" unicode="&#x300;" 
d="M-575 1242h115l131 -181h-80z" />
    <glyph glyph-name="acutecomb" unicode="&#x301;" 
d="M-435 1061l131 181h115l-166 -181h-80z" />
    <glyph glyph-name="uni0302" unicode="&#x302;" 
d="M-550 1095l177 171l177 -171l-52 -46l-125 138l-126 -138z" />
    <glyph glyph-name="tildecomb" unicode="&#x303;" 
d="M-557 1091q33 94 110 94q23 0 41 -10q12 -6 43 -29q19 -17 31 -24q14 -8 30 -8q24 0 39 16q19 21 30 44l40 -24q-19 -46 -42 -69q-25 -25 -64 -25q-26 0 -43 10q-19 11 -42 31q-15 12 -33 24q-11 7 -29 7q-44 0 -69 -63z" />
    <glyph glyph-name="uni0304" unicode="&#x304;" 
d="M-200 1088h-334v58h334v-58z" />
    <glyph glyph-name="uni0306" unicode="&#x306;" 
d="M-186 1238q-2 -92 -52 -137q-51 -45 -137 -45t-137 45q-50 45 -52 137l63 2q1 -62 36 -95q32 -31 90 -31t90 31q35 33 36 95z" />
    <glyph glyph-name="uni0307" unicode="&#x307;" 
d="M-385 1087q-15 15 -15 36t15 35q17 15 37 15t35 -15q14 -14 14 -35q0 -20 -14 -36q-14 -15 -35 -15q-22 0 -37 15z" />
    <glyph glyph-name="uni0308" unicode="&#x308;" 
d="M-554 1086q-14 14 -14 37q0 21 14 35q15 15 36 15q20 0 35 -15q14 -14 14 -35q0 -23 -14 -37t-35 -14q-22 0 -36 14zM-274 1086q-14 14 -14 37q0 21 14 35q15 15 35 15q22 0 37 -15t15 -35q0 -22 -15 -37q-14 -14 -37 -14q-21 0 -35 14z" />
    <glyph glyph-name="uni030A" unicode="&#x30a;" 
d="M-450 1071q-35 33 -35 86q0 52 35 85q34 33 87 33t89 -33q35 -32 35 -85q0 -54 -35 -86q-36 -33 -89 -33t-87 33zM-308 1103q21 21 21 54q0 31 -21 52q-20 20 -55 20q-33 0 -53 -20q-21 -21 -21 -52q0 -33 21 -54t53 -21q34 0 55 21z" />
    <glyph glyph-name="uni030B" unicode="&#x30b;" 
d="M-608 1272h69l-96 -211h-51zM-485 1272h69l-95 -211h-51z" />
    <glyph glyph-name="uni030C" unicode="&#x30c;" 
d="M-196 1220l-177 -171l-177 171l51 46l126 -138l125 138z" />
    <glyph glyph-name="uni0312" unicode="&#x312;" 
d="M-279 1305l-45 -256h-83l60 256h68z" />
    <glyph glyph-name="uni0326" unicode="&#x326;" 
d="M-584 -354l27 253h92l-50 -253h-69z" />
    <glyph glyph-name="uni0327" unicode="&#x327;" 
d="M-382 -99q163 2 163 -108q0 -52 -40 -80q-43 -30 -121 -30q-74 0 -161 27l12 44q85 -21 143 -21t84 16t26 48q0 39 -36 54q-34 14 -125 11l36 150h49v-8z" />
    <glyph glyph-name="uni0328" unicode="&#x328;" 
d="M-271 -287q-56 -38 -118 -38q-61 0 -97 35q-37 36 -37 94q0 124 168 215l46 -19q-72 -42 -115 -94q-39 -48 -39 -93q0 -42 24 -64q25 -23 62 -23q39 0 85 30z" />
    <glyph glyph-name="uni0335" unicode="&#x335;" 
d="M-522 501v74h522v-74h-522z" />
    <glyph glyph-name="uni0336" unicode="&#x336;" 
d="M-1162 501v68h1162v-68h-1162z" />
    <glyph glyph-name="uni0337" unicode="&#x337;" 
d="M-407 430l407 371v-106l-407 -371v106z" />
    <glyph glyph-name="uni0338" unicode="&#x338;" 
d="M-982 19l927 1238l53 -38l-928 -1238z" />
    <glyph glyph-name="uni0394" unicode="&#x394;" horiz-adv-x="1096" 
d="M499 1238h99l488 -1238h-1075zM548 1125l-407 -1045h816z" />
    <glyph glyph-name="uni03A9" unicode="&#x3a9;" horiz-adv-x="1188" 
d="M1125 81v-81h-441v81q303 23 303 494v113q0 477 -391 477q-394 0 -394 -477v-113q0 -472 302 -494v-81h-440v81h258q-113 58 -171 188q-59 132 -59 327v92q0 561 504 561q501 0 501 -561v-92q0 -197 -59 -329q-58 -130 -170 -186h257z" />
    <glyph glyph-name="uni03BC" unicode="&#x3bc;" horiz-adv-x="1094" 
d="M840 973h104v-973h-104v177q-38 -89 -110 -136q-74 -48 -184 -48q-108 0 -181 48q-73 47 -110 134v-529h-105v1327h105v-556q0 -160 74 -252t217 -92q145 0 219 92q75 93 75 252v556z" />
    <glyph glyph-name="pi" unicode="&#x3c0;" horiz-adv-x="1172" 
d="M1098 893h-217v-688q0 -62 30 -94q30 -31 102 -31h85v-80h-97q-122 0 -173 48q-52 49 -52 152v693h-440v-893h-106v893h-186v80h1054v-80z" />
    <glyph glyph-name="uni0400" unicode="&#x400;" horiz-adv-x="1098" 
d="M276 607v-519h720v-88h-830v1238h814v-88h-704v-457h638v-86h-638zM401 1507h115l131 -181h-79z" />
    <glyph glyph-name="uni0401" unicode="&#x401;" horiz-adv-x="1098" 
d="M276 607v-519h720v-88h-830v1238h814v-88h-704v-457h638v-86h-638zM403 1351q-14 14 -14 37q0 22 14 36t36 14q21 0 35 -14t14 -36q0 -23 -14 -37t-35 -14q-22 0 -36 14zM683 1351q-14 14 -14 37q0 22 14 36t35 14q23 0 37 -14t14 -36q0 -23 -14 -37t-37 -14
q-21 0 -35 14z" />
    <glyph glyph-name="uni0402" unicode="&#x402;" horiz-adv-x="1409" 
d="M50 1150v88h1045v-88h-527v-414q53 6 177 17q66 6 150 6q419 0 421 -363v-30q0 -186 -94 -277q-92 -89 -301 -89h-161v87h142q161 0 232 67q72 68 72 210v30q0 280 -331 280q-110 0 -245 -16q-40 -5 -62 -7v-651h-110v1150h-408z" />
    <glyph glyph-name="uni0403" unicode="&#x403;" horiz-adv-x="942" 
d="M907 1238v-88h-631v-1150h-110v1238h741zM455 1326l130 181h115l-166 -181h-79z" />
    <glyph glyph-name="uni0404" unicode="&#x404;" horiz-adv-x="1172" 
d="M867 165q92 92 92 268h109q0 -442 -477 -442q-247 0 -364 121q-117 122 -117 381v255q0 261 118 380q119 121 363 121q477 0 477 -441h-109q0 175 -93 266q-92 91 -275 91q-186 0 -279 -99t-93 -309v-88h531v-87h-531v-97q0 -212 92 -312q91 -99 280 -99q185 0 276 91z
" />
    <glyph glyph-name="uni0405" unicode="&#x405;" horiz-adv-x="1084" 
d="M217 73q-113 86 -113 277q0 42 4 78h104q-3 -46 -3 -67q0 -152 84 -221t253 -69t255 58q87 58 87 163q0 67 -32 116q-33 50 -108 93q-79 45 -210 93q-166 60 -253 115q-90 57 -126 118q-35 60 -35 140q0 125 110 204t330 79q239 0 336 -106q98 -107 89 -279h-103
q8 137 -66 219q-74 83 -254 83q-167 0 -248 -57t-81 -146q0 -59 30 -104q29 -44 101 -85t200 -89q168 -60 261 -117q92 -56 131 -121q39 -64 39 -153q0 -145 -115 -226t-341 -81q-214 0 -326 85z" />
    <glyph glyph-name="uni0406" unicode="&#x406;" horiz-adv-x="440" 
d="M276 0h-110v1238h110v-1238z" />
    <glyph glyph-name="uni0407" unicode="&#x407;" horiz-adv-x="440" 
d="M276 0h-110v1238h110v-1238zM44 1351q-14 14 -14 37q0 22 14 36t36 14q21 0 35 -14t14 -36q0 -23 -14 -37t-35 -14q-22 0 -36 14zM324 1351q-15 15 -15 37q0 21 15 36q14 14 35 14q23 0 37 -14t14 -36q0 -23 -14 -37t-37 -14q-21 0 -35 14z" />
    <glyph glyph-name="uni0408" unicode="&#x408;" horiz-adv-x="573" 
d="M12 0v88h122q96 0 134 44t38 153v953h110v-964q0 -105 -25 -162q-25 -58 -82 -85t-157 -27h-140z" />
    <glyph glyph-name="uni0409" unicode="&#x409;" horiz-adv-x="1874" 
d="M1383 814q206 0 302 -99t96 -308t-96 -308t-302 -99h-424v1150h-582l-6 -328q-6 -348 -31 -515q-25 -171 -89 -239q-63 -68 -191 -68h-33l-2 101h19q92 0 135 56q44 58 62 205q17 137 23 459l7 417h797v-424h315zM1360 87q164 0 238 77q73 76 73 243q0 166 -73 243
q-74 79 -238 79h-292v-642h292z" />
    <glyph glyph-name="uni040A" unicode="&#x40a;" horiz-adv-x="1894" 
d="M1397 736q403 0 403 -375q0 -186 -97 -273q-99 -88 -306 -88h-421v647h-700v-647h-110v1238h110v-502h700v502h110v-502h311zM1385 87q161 0 233 66q73 67 73 208q0 139 -75 213q-74 73 -231 73h-299v-560h299z" />
    <glyph glyph-name="uni040B" unicode="&#x40b;" horiz-adv-x="1409" 
d="M1216 669q100 -90 100 -276v-393h-110v378q0 154 -79 225t-241 71q-69 0 -147 -10q-63 -8 -171 -29v-635h-110v1150h-408v88h1054v-88h-536v-430q115 21 184 29q87 10 157 10q207 0 307 -90z" />
    <glyph glyph-name="uni040C" unicode="&#x40c;" horiz-adv-x="1039" 
d="M1006 0h-122l-398 591h-210v-591h-110v1238h110v-555h209l369 555h120l-406 -600zM470 1326l131 181h115l-166 -181h-80z" />
    <glyph glyph-name="uni040D" unicode="&#x40d;" horiz-adv-x="1252" 
d="M274 164l704 1074h110v-1238h-110v1074l-704 -1074h-108v1238h108v-1074zM442 1507h115l131 -181h-80z" />
    <glyph glyph-name="uni040E" unicode="&#x40e;" horiz-adv-x="1066" 
d="M907 1238h115l-458 -1049q-43 -100 -108 -145q-64 -44 -169 -44h-96v90h76q80 0 129 32q48 31 78 104l21 50l-453 962h117l389 -838zM803 1539q-1 -118 -61 -176t-204 -58q-146 0 -206 58t-61 176h88q1 -80 42 -121q40 -40 137 -40q95 0 135 40q41 41 42 121h88z" />
    <glyph glyph-name="uni040F" unicode="&#x40f;" horiz-adv-x="1241" 
d="M967 88v1150h110v-1238h-403v-262h-106v262h-402v1238h110v-1150h691z" />
    <glyph glyph-name="uni0410" unicode="&#x410;" horiz-adv-x="1061" 
d="M1051 0h-121l-125 350h-549l-125 -350h-120l467 1238h106zM531 1121l-246 -689h491z" />
    <glyph glyph-name="uni0411" unicode="&#x411;" horiz-adv-x="1130" 
d="M642 734q206 0 300 -90t94 -278q0 -187 -93 -277q-92 -89 -301 -89h-476v1238h784v-88h-674v-416h366zM623 87q161 0 232 67q72 68 72 212q0 146 -72 213q-73 68 -232 68h-347v-560h347z" />
    <glyph glyph-name="uni0412" unicode="&#x412;" horiz-adv-x="1149" 
d="M999 554q60 -75 60 -214q0 -340 -375 -340h-518v1238h501q171 0 264 -78t93 -228q0 -113 -49 -188q-48 -74 -137 -95q101 -20 161 -95zM841 1091q-66 51 -195 51h-372v-450h386q125 0 186 58t61 177q0 113 -66 164zM660 96q142 0 212 60q71 60 71 191q0 249 -283 249
h-386v-500h386z" />
    <glyph glyph-name="uni0413" unicode="&#x413;" horiz-adv-x="942" 
d="M907 1238v-88h-631v-1150h-110v1238h741z" />
    <glyph glyph-name="uni0414" unicode="&#x414;" horiz-adv-x="1222" 
d="M1043 88h144v-350h-105v262h-971v-262h-104v350h23q90 0 134 58q43 56 61 205q17 137 23 461l8 426h787v-1150zM934 88v1062h-573l-6 -329q-6 -336 -27 -490q-23 -168 -77 -243h683z" />
    <glyph glyph-name="uni0415" unicode="&#x415;" horiz-adv-x="1098" 
d="M276 607v-519h720v-88h-830v1238h814v-88h-704v-457h638v-86h-638z" />
    <glyph glyph-name="uni0416" unicode="&#x416;" horiz-adv-x="1612" 
d="M1579 0h-122l-391 591h-205v-591h-109v591h-206l-390 -591h-122l431 638l-400 600h122l363 -555h202v555h109v-555h202l364 555h120l-399 -600z" />
    <glyph glyph-name="uni0417" unicode="&#x417;" horiz-adv-x="1124" 
d="M965 539q55 -74 55 -207q0 -336 -429 -336h-94q-192 0 -301 82q-108 81 -108 232v17h105v-7q0 -115 81 -175t223 -60h95q321 0 321 256q0 137 -70 192q-71 56 -217 56h-184v85h198q128 0 189 59t61 185q0 112 -81 173q-82 62 -217 62h-91q-137 0 -219 -59
q-80 -58 -80 -173v-7h-105v16q0 150 107 231t297 81h91q189 0 298 -83q107 -82 107 -234q0 -115 -46 -188t-137 -100q95 -22 151 -98z" />
    <glyph glyph-name="uni0418" unicode="&#x418;" horiz-adv-x="1252" 
d="M274 164l704 1074h110v-1238h-110v1074l-704 -1074h-108v1238h108v-1074z" />
    <glyph glyph-name="uni0419" unicode="&#x419;" horiz-adv-x="1252" 
d="M274 164l704 1074h110v-1238h-110v1074l-704 -1074h-108v1238h108v-1074zM884 1539q-1 -118 -61 -176t-204 -58q-146 0 -206 58t-61 176h88q1 -79 43 -121q40 -40 136 -40q95 0 135 40q41 41 42 121h88z" />
    <glyph glyph-name="uni041A" unicode="&#x41a;" horiz-adv-x="1039" 
d="M1006 0h-122l-398 591h-210v-591h-110v1238h110v-555h209l369 555h120l-406 -600z" />
    <glyph glyph-name="uni041B" unicode="&#x41b;" horiz-adv-x="1234" 
d="M1068 0h-109v1150h-582l-6 -328q-6 -348 -31 -515q-25 -171 -89 -239q-63 -68 -191 -68h-33l-2 101h19q92 0 135 56q44 58 62 205q17 137 23 459l7 417h797v-1238z" />
    <glyph glyph-name="uni041C" unicode="&#x41c;" horiz-adv-x="1528" 
d="M764 377l451 861h147v-1238h-105v1102l-449 -842h-88l-449 842v-1102h-105v1238h147z" />
    <glyph glyph-name="uni041D" unicode="&#x41d;" horiz-adv-x="1252" 
d="M976 686v552h110v-1238h-110v598h-700v-598h-110v1238h110v-552h700z" />
    <glyph glyph-name="uni041E" unicode="&#x41e;" horiz-adv-x="1183" 
d="M228 111q-118 121 -118 382v255q0 258 118 379q119 122 364 122q244 0 363 -121t119 -380v-255q0 -260 -119 -382t-363 -122q-245 0 -364 122zM872 172q92 101 92 313v272q0 209 -92 309q-92 99 -280 99q-187 0 -280 -99t-93 -309v-272q0 -213 93 -313q92 -99 280 -99
q190 0 280 99z" />
    <glyph glyph-name="uni041F" unicode="&#x41f;" horiz-adv-x="1241" 
d="M1077 1238v-1238h-110v1150h-691v-1150h-110v1238h911z" />
    <glyph glyph-name="uni0420" unicode="&#x420;" horiz-adv-x="1091" 
d="M901 1136q95 -103 95 -317q0 -216 -95 -317t-303 -101h-322v-401h-110v1238h432q208 0 303 -102zM577 486q163 0 236 81q73 80 73 252q0 173 -72 253q-72 79 -237 79h-299l-2 -665h301z" />
    <glyph glyph-name="uni0421" unicode="&#x421;" horiz-adv-x="1165" 
d="M227 112q-117 122 -117 381v255q0 257 117 379t362 122q239 0 360 -112q119 -110 119 -329h-109q0 175 -93 266q-92 91 -277 91q-187 0 -278 -99q-92 -100 -92 -309v-272q0 -214 91 -312q92 -99 279 -99q185 0 277 91q93 91 93 268h109q0 -220 -119 -330
q-121 -112 -360 -112q-245 0 -362 121z" />
    <glyph glyph-name="uni0422" unicode="&#x422;" horiz-adv-x="1025" 
d="M974 1238v-88h-406v-1150h-110v1150h-408v88h924z" />
    <glyph glyph-name="uni0423" unicode="&#x423;" horiz-adv-x="1066" 
d="M907 1238h115l-458 -1049q-43 -100 -108 -145q-64 -44 -169 -44h-96v90h76q80 0 129 32q48 31 78 104l21 50l-453 962h117l389 -838z" />
    <glyph glyph-name="uni0424" unicode="&#x424;" horiz-adv-x="1598" 
d="M895 1199q296 0 454 -124q160 -125 160 -394v-108q0 -522 -614 -522h-41v-139h-109v139h-39q-616 0 -616 522v108q0 270 160 394t456 124h39v127h109v-127h41zM745 134v982h-39q-245 0 -375 -103q-131 -104 -131 -332v-108q0 -439 504 -439h41zM1399 681q0 228 -131 332
q-130 103 -373 103h-41v-982h41q504 0 504 439v108z" />
    <glyph glyph-name="uni0425" unicode="&#x425;" horiz-adv-x="1061" 
d="M592 649l436 -649h-124l-373 571l-375 -571h-122l435 649l-386 589h122l326 -509l323 509h124z" />
    <glyph glyph-name="uni0426" unicode="&#x426;" horiz-adv-x="1255" 
d="M1116 0h-950v1238h110v-1150h690v1150h109v-1150h145v-350h-104v262z" />
    <glyph glyph-name="uni0427" unicode="&#x427;" horiz-adv-x="1131" 
d="M856 1238h110v-1238h-110v502q-177 -46 -334 -46q-223 0 -326 98q-102 98 -102 304v380h109v-378q0 -160 81 -237q82 -77 252 -77q146 0 320 45v647z" />
    <glyph glyph-name="uni0428" unicode="&#x428;" horiz-adv-x="1897" 
d="M1622 88v1150h109v-1238h-1565v1238h110v-1150h619v1150h110v-1150h617z" />
    <glyph glyph-name="uni0429" unicode="&#x429;" horiz-adv-x="1917" 
d="M1777 0h-1611v1238h110v-1150h619v1150h110v-1150h617v1150h109v-1150h151v-350h-105v262z" />
    <glyph glyph-name="uni042A" unicode="&#x42a;" horiz-adv-x="1361" 
d="M844 814q220 0 321 -100q103 -101 103 -307q0 -208 -103 -308q-102 -99 -321 -99h-400v1150h-394v88h504v-424h290zM822 87q175 0 255 77q81 78 81 243q0 163 -81 242q-82 80 -255 80h-268v-642h268z" />
    <glyph glyph-name="uni042B" unicode="&#x42b;" horiz-adv-x="1510" 
d="M564 814q221 0 322 -100q103 -101 103 -307q0 -208 -103 -308q-102 -99 -322 -99h-398v1238h110v-424h288zM1234 0v1238h110v-1238h-110zM543 87q175 0 255 77q81 78 81 243q0 163 -81 242q-82 80 -255 80h-267v-642h267z" />
    <glyph glyph-name="uni042C" unicode="&#x42c;" horiz-adv-x="1084" 
d="M564 814q221 0 322 -100q103 -101 103 -307q0 -208 -103 -308q-102 -99 -322 -99h-398v1238h110v-424h288zM543 87q175 0 255 77q81 78 81 243q0 163 -81 242q-82 80 -255 80h-267v-642h267z" />
    <glyph glyph-name="uni042D" unicode="&#x42d;" horiz-adv-x="1172" 
d="M944 1128q119 -121 119 -380v-255q0 -258 -118 -381q-117 -121 -363 -121q-478 0 -478 442h110q0 -176 92 -268q91 -91 276 -91q188 0 279 99q92 100 92 312v97h-530v87h530v88q0 210 -93 309t-278 99q-183 0 -275 -91q-93 -91 -93 -266h-110q0 441 478 441
q243 0 362 -121z" />
    <glyph glyph-name="uni042E" unicode="&#x42e;" horiz-adv-x="1627" 
d="M1399 1128q118 -119 118 -380v-255q0 -261 -118 -382q-119 -122 -363 -122q-245 0 -364 122q-118 121 -118 382v101h-278v-594h-110v1238h110v-555h278v65q0 258 118 379q119 122 364 122q244 0 363 -121zM1408 757q0 209 -92 309q-92 99 -280 99q-187 0 -280 -99
t-93 -309v-272q0 -213 93 -313q92 -99 280 -99q190 0 280 99q92 101 92 313v272z" />
    <glyph glyph-name="uni042F" unicode="&#x42f;" horiz-adv-x="1069" 
d="M904 0h-110v476h-318q-28 0 -46 2l-260 -478h-117l272 492q-125 31 -184 122q-60 92 -60 244q0 193 95 286q96 94 300 94h428v-1238zM794 561v590h-294q-164 0 -235 -71q-72 -72 -72 -222q0 -149 73 -223t235 -74h293z" />
    <glyph glyph-name="uni0430" unicode="&#x430;" horiz-adv-x="937" 
d="M673 948q68 -32 100 -104q32 -73 32 -197v-647h-103v187q-43 -96 -131 -145q-89 -49 -200 -49q-147 0 -227 76t-80 205q0 343 638 361v9q0 141 -49 200q-49 60 -168 60q-147 0 -358 -69l-19 71q216 74 385 74q111 0 180 -32zM614 150q88 76 88 239v177
q-536 -20 -536 -281q0 -96 60 -153q61 -58 175 -58q125 0 213 76z" />
    <glyph glyph-name="uni0431" unicode="&#x431;" horiz-adv-x="999" 
d="M812 799q102 -119 102 -343q0 -228 -105 -348t-308 -120q-208 0 -312 125t-104 373q0 238 33 377q33 140 111 212q79 73 222 98l97 15q73 12 123 30q42 15 58 35t19 56l2 17h87l-2 -21q-6 -66 -29 -100q-23 -35 -77 -58q-50 -21 -154 -40l-99 -18q-104 -18 -166 -60
q-60 -41 -92 -122q-33 -85 -45 -214q39 108 127 167q86 58 222 58q188 0 290 -119zM731 164q79 102 79 289q0 191 -78 289t-231 98q-154 0 -232 -98t-78 -289q0 -187 79 -289q78 -100 231 -100q152 0 230 100z" />
    <glyph glyph-name="uni0432" unicode="&#x432;" horiz-adv-x="1020" 
d="M872 410q51 -60 51 -152q0 -140 -86 -199t-264 -59h-423v973h405q177 0 261 -63t84 -199q0 -91 -44 -147q-42 -54 -127 -74q92 -20 143 -80zM255 891v-362h277q139 0 200 44q60 43 60 134q0 101 -64 143q-63 41 -203 41h-270zM543 81q137 0 202 44t65 142q0 85 -65 134
q-67 50 -193 50h-297v-370h288z" />
    <glyph glyph-name="uni0433" unicode="&#x433;" horiz-adv-x="852" 
d="M255 0h-105v973h656v-89h-551v-884z" />
    <glyph glyph-name="uni0434" unicode="&#x434;" horiz-adv-x="1101" 
d="M25 -248v333h37q59 0 91 26q31 25 48 104q16 75 22 238l18 520h682v-888h129v-333h-106v248h-817v-248h-104zM819 85v803h-476l-14 -437q-6 -171 -25 -251q-20 -84 -60 -115h575z" />
    <glyph glyph-name="uni0435" unicode="&#x435;" horiz-adv-x="985" 
d="M791 853q103 -128 100 -397h-704q10 -391 298 -391q120 0 192 64t94 170h104q-27 -144 -123 -227q-98 -84 -267 -84q-199 0 -299 125q-101 127 -101 373q0 248 101 373q100 124 299 124q201 0 306 -130zM271 814q-75 -91 -82 -278h598q-18 370 -302 370q-139 0 -214 -92z
" />
    <glyph glyph-name="uni0436" unicode="&#x436;" horiz-adv-x="1450" 
d="M1424 0h-119l-323 456h-206v-456h-104v456h-205l-324 -456h-116l353 499l-320 474h117l288 -428h207v428h104v-428h207l289 428h118l-322 -474z" />
    <glyph glyph-name="uni0437" unicode="&#x437;" horiz-adv-x="986" 
d="M839 411q51 -58 51 -155q0 -133 -92 -201q-91 -67 -290 -67h-25q-203 0 -294 69q-92 69 -92 215v15h105v-9q0 -108 69 -155q72 -49 212 -49h23q276 0 276 191q0 81 -66 131q-67 50 -194 50h-135v86h124q132 0 196 45q62 44 62 134q0 97 -69 143q-68 46 -205 46h-26
q-133 0 -200 -48t-67 -141v-11h-105v15q0 270 370 270h30q194 0 285 -67q92 -68 92 -203q0 -94 -47 -152q-47 -57 -132 -75q92 -18 144 -77z" />
    <glyph glyph-name="uni0438" unicode="&#x438;" horiz-adv-x="1066" 
d="M803 973h113v-973h-104v817l-547 -817h-115v973h105l1 -816z" />
    <glyph glyph-name="uni0439" unicode="&#x439;" horiz-adv-x="1066" 
d="M338 1092q-57 56 -59 167h84q2 -79 40 -116q40 -38 129 -38q92 0 130 38q39 39 40 116h83q-2 -112 -58 -167q-58 -56 -195 -56q-136 0 -194 56zM803 973h113v-973h-104v817l-547 -817h-115v973h105l1 -816z" />
    <glyph glyph-name="uni043A" unicode="&#x43a;" horiz-adv-x="928" 
d="M902 0h-126l-327 455h-194v-455h-105v973h105v-427h196l294 427h123l-334 -474z" />
    <glyph glyph-name="uni043B" unicode="&#x43b;" horiz-adv-x="1054" 
d="M904 0h-106v888h-474l-9 -437q-3 -191 -30 -287q-27 -97 -78 -130q-53 -34 -147 -34h-37v94h18q60 0 94 25q35 26 53 104q20 85 21 235l12 515h683v-973z" />
    <glyph glyph-name="uni043C" unicode="&#x43c;" horiz-adv-x="1388" 
d="M1238 973v-973h-103v883l-394 -883h-94l-394 893v-893h-103v973h161l384 -867l387 867h156z" />
    <glyph glyph-name="uni043D" unicode="&#x43d;" horiz-adv-x="1064" 
d="M810 534v439h104v-973h-104v449h-555v-449h-105v973h105v-439h555z" />
    <glyph glyph-name="uni043E" unicode="&#x43e;" horiz-adv-x="997" 
d="M85 486q0 249 103 373t309 124t311 -124t105 -373q0 -247 -105 -373q-104 -125 -311 -125q-412 0 -412 498zM808 486q0 421 -311 421q-308 0 -308 -421q0 -422 308 -422q311 0 311 422z" />
    <glyph glyph-name="uni043F" unicode="&#x43f;" horiz-adv-x="1066" 
d="M916 973v-973h-106v888h-555v-888h-105v973h766z" />
    <glyph glyph-name="uni0440" unicode="&#x440;" horiz-adv-x="1057" 
d="M872 852q101 -128 101 -366q0 -237 -101 -365t-292 -128q-118 0 -200 49t-125 144v-540h-105v1327h105v-186q41 90 125 142q82 51 200 51q191 0 292 -128zM788 176q79 111 79 310q0 200 -79 311q-78 109 -229 109q-149 0 -228 -109q-80 -110 -80 -311q0 -200 80 -310
q79 -109 228 -109q151 0 229 109z" />
    <glyph glyph-name="uni0441" unicode="&#x441;" horiz-adv-x="967" 
d="M186 113q-101 127 -101 373q0 245 101 372q100 125 300 125q179 0 280 -88q102 -88 118 -244h-104q-17 119 -91 186q-77 69 -203 69q-147 0 -222 -104q-75 -103 -75 -316q0 -421 297 -421q128 0 204 69t90 190h104q-16 -157 -118 -247q-101 -89 -280 -89q-200 0 -300 125
z" />
    <glyph glyph-name="uni0442" unicode="&#x442;" horiz-adv-x="894" 
d="M833 973v-89h-332v-884h-105l-2 884h-332v89h771z" />
    <glyph glyph-name="uni0443" unicode="&#x443;" horiz-adv-x="891" 
d="M444 170l304 803h106l-513 -1327h-100l153 400l-353 927h109z" />
    <glyph glyph-name="uni0444" unicode="&#x444;" horiz-adv-x="1653" 
d="M1471 852q98 -128 98 -366q0 -237 -98 -365t-279 -128q-111 0 -191 52q-82 53 -122 148v-547h-104v545q-40 -96 -122 -147q-81 -51 -191 -51q-182 0 -280 128q-97 127 -97 365q0 239 97 366q98 128 280 128q111 0 191 -52q82 -53 122 -148v546h104v-548q41 98 121 150
t192 52q181 0 279 -128zM697 177q78 109 78 309t-78 310t-216 110t-215 -110t-77 -310q0 -199 77 -309t215 -110t216 110zM1387 177q77 110 77 309q0 200 -77 310t-216 110q-136 0 -214 -111t-78 -309q0 -197 78 -308t214 -111q139 0 216 110z" />
    <glyph glyph-name="uni0445" unicode="&#x445;" horiz-adv-x="868" 
d="M495 518l347 -518h-117l-290 446l-294 -446h-114l348 518l-304 455h115l249 -379l248 379h115z" />
    <glyph glyph-name="uni0446" unicode="&#x446;" horiz-adv-x="1098" 
d="M1047 -248h-104v248h-793v973h105v-888h559v888h106v-888h127v-333z" />
    <glyph glyph-name="uni0447" unicode="&#x447;" horiz-adv-x="1011" 
d="M755 973h106v-973h-106v368q-156 -44 -281 -44q-191 0 -277 85q-87 85 -87 284v280h106v-280q0 -156 64 -219q66 -64 212 -64q116 0 263 46v517z" />
    <glyph glyph-name="uni0448" unicode="&#x448;" horiz-adv-x="1604" 
d="M1348 85v888h106v-973h-1304v973h105v-888h495v888h104v-888h494z" />
    <glyph glyph-name="uni0449" unicode="&#x449;" horiz-adv-x="1632" 
d="M1581 -248h-106v248h-1325v973h105v-888h495v888h104v-888h494v888h106v-888h127v-333z" />
    <glyph glyph-name="uni044A" unicode="&#x44a;" horiz-adv-x="1239" 
d="M805 626q186 0 273 -78t87 -233q0 -159 -87 -237t-273 -78h-414v884h-329v89h435v-347h308zM782 76q143 0 210 58t67 179t-67 179t-210 58h-285v-474h285z" />
    <glyph glyph-name="uni044B" unicode="&#x44b;" horiz-adv-x="1377" 
d="M562 626q187 0 274 -78t87 -233q0 -159 -87 -237t-274 -78h-412v973h105v-347h307zM1118 0v973h109v-973h-109zM541 76q144 0 211 58t67 179t-67 179t-211 58h-286v-474h286z" />
    <glyph glyph-name="uni044C" unicode="&#x44c;" horiz-adv-x="997" 
d="M562 626q187 0 274 -78t87 -233q0 -159 -87 -237t-274 -78h-412v973h105v-347h307zM541 76q144 0 211 58t67 179t-67 179t-211 58h-286v-474h286z" />
    <glyph glyph-name="uni044D" unicode="&#x44d;" horiz-adv-x="963" 
d="M778 858q101 -127 101 -372q0 -246 -101 -373q-100 -125 -300 -125q-179 0 -281 86q-103 87 -117 237h106q14 -113 89 -179q76 -67 203 -67q144 0 219 98t78 284h-457v80h457q-9 379 -297 379q-125 0 -201 -65q-74 -64 -91 -178h-105q16 149 120 235q103 85 277 85
q200 0 300 -125z" />
    <glyph glyph-name="uni044E" unicode="&#x44e;" horiz-adv-x="1429" 
d="M1240 859q104 -123 104 -373q0 -248 -104 -373t-312 -125q-195 0 -300 115q-104 114 -113 341h-255v-444h-110v973h110v-444h255q9 227 113 340q105 114 300 114q207 0 312 -124zM1238 486q0 421 -310 421q-155 0 -231 -105q-76 -104 -76 -316q0 -422 307 -422
q310 0 310 422z" />
    <glyph glyph-name="uni044F" unicode="&#x44f;" horiz-adv-x="992" 
d="M842 0h-105v382h-291h-11l-226 -382h-113l236 391q-123 19 -180 90q-56 69 -56 195q0 149 83 223t267 74h396v-973zM737 458v439h-272q-141 0 -203 -54t-62 -166q0 -111 62 -165q61 -54 203 -54h272z" />
    <glyph glyph-name="uni0450" unicode="&#x450;" horiz-adv-x="985" 
d="M791 853q103 -128 100 -397h-704q10 -391 298 -391q120 0 192 64t94 170h104q-27 -144 -123 -227q-98 -84 -267 -84q-199 0 -299 125q-101 127 -101 373q0 248 101 373q100 124 299 124q201 0 306 -130zM271 814q-75 -91 -82 -278h598q-18 370 -302 370q-139 0 -214 -92z
M308 1242h115l131 -181h-80z" />
    <glyph glyph-name="uni0451" unicode="&#x451;" horiz-adv-x="985" 
d="M791 853q103 -128 100 -397h-704q10 -391 298 -391q120 0 192 64t94 170h104q-27 -144 -123 -227q-98 -84 -267 -84q-199 0 -299 125q-101 127 -101 373q0 248 101 373q100 124 299 124q201 0 306 -130zM271 814q-75 -91 -82 -278h598q-18 370 -302 370q-139 0 -214 -92z
M308 1086q-14 14 -14 37q0 21 14 35q15 15 35 15t35 -15t15 -35q0 -22 -15 -37q-14 -14 -35 -14t-35 14zM587 1086q-14 14 -14 37q0 21 14 35q15 15 36 15q22 0 37 -15q14 -14 14 -35q0 -23 -14 -37t-37 -14q-22 0 -36 14z" />
    <glyph glyph-name="uni0452" unicode="&#x452;" horiz-adv-x="1052" 
d="M828 875q90 -105 90 -295v-695q0 -135 -48 -187t-161 -52h-78v82h52q70 0 100 36q31 37 31 132v684q0 152 -69 236t-202 84q-146 0 -217 -86t-71 -248v-566h-105v1104h-159v74h159v148h105v-148h258v-74h-258v-328q32 99 108 151q77 53 199 53q176 0 266 -105z" />
    <glyph glyph-name="uni0453" unicode="&#x453;" horiz-adv-x="852" 
d="M255 0h-105v973h656v-89h-551v-884zM407 1061l131 181h115l-167 -181h-79z" />
    <glyph glyph-name="uni0454" unicode="&#x454;" horiz-adv-x="963" 
d="M884 311q-14 -150 -117 -237q-102 -86 -281 -86q-200 0 -300 125q-101 127 -101 373q0 245 101 372q100 125 300 125q174 0 277 -85q104 -86 120 -235h-105q-17 114 -91 178q-76 65 -201 65q-288 0 -297 -379h457v-80h-457q3 -186 78 -284t219 -98q127 0 203 67
q75 66 89 179h106z" />
    <glyph glyph-name="uni0455" unicode="&#x455;" horiz-adv-x="877" 
d="M163 57q-94 70 -94 222q0 26 2 50h95q-3 -31 -3 -46q0 -219 279 -219q132 0 200 44q67 43 67 124q0 52 -26 88q-27 38 -88 69q-69 35 -172 66q-174 52 -255 121q-80 68 -80 167q0 109 90 175q89 65 273 65q182 0 271 -83t81 -216h-96q6 101 -58 163t-202 62
q-132 0 -195 -45t-63 -121q0 -70 72 -118q74 -49 232 -98q173 -52 245 -118t72 -176q0 -114 -92 -180q-90 -65 -274 -65q-188 0 -281 69z" />
    <glyph glyph-name="uni0456" unicode="&#x456;" horiz-adv-x="405" 
d="M255 1130h-105v161h105v-161zM255 0h-105v973h105v-973z" />
    <glyph glyph-name="uni0457" unicode="&#x457;" horiz-adv-x="410" 
d="M150 973h110v-973h-110v973zM30 1086q-14 14 -14 37q0 21 14 35q15 15 35 15q21 0 36 -15q14 -14 14 -35q0 -23 -14 -37t-36 -14q-21 0 -35 14zM309 1086q-14 14 -14 37q0 21 14 35q15 15 36 15q22 0 37 -15q14 -14 14 -35q0 -23 -14 -37t-37 -14q-22 0 -36 14z" />
    <glyph glyph-name="uni0458" unicode="&#x458;" horiz-adv-x="415" 
d="M265 1130h-106v161h106v-161zM-23 -354v82h51q71 0 101 36t30 132v1077h106v-1083q0 -137 -47 -190q-48 -54 -163 -54h-78z" />
    <glyph glyph-name="uni0459" unicode="&#x459;" horiz-adv-x="1650" 
d="M1215 626q186 0 273 -78q88 -79 88 -233q0 -158 -88 -237q-87 -78 -273 -78h-417v888h-474l-9 -437q-3 -191 -30 -287q-27 -97 -78 -130q-53 -34 -147 -34h-37v94h18q60 0 94 25q35 26 53 104q20 85 21 235l12 515h683v-347h311zM1194 76q143 0 210 58t67 179t-67 179
t-210 58h-290v-474h290z" />
    <glyph glyph-name="uni045A" unicode="&#x45a;" horiz-adv-x="1660" 
d="M1226 584q186 -1 274 -71q86 -68 86 -219q0 -154 -86 -224t-274 -70h-416v499h-555v-499h-105v973h105v-389h555v389h104v-389h312zM1203 76q148 0 213 50q66 51 66 164q0 114 -66 165t-213 51h-289v-430h289z" />
    <glyph glyph-name="uni045B" unicode="&#x45b;" horiz-adv-x="1052" 
d="M828 875q90 -105 90 -295v-580h-104v580q0 152 -69 236t-202 84q-146 0 -217 -86t-71 -248v-566h-105v1104h-159v74h159v148h105v-148h258v-74h-258v-282q86 158 307 158q176 0 266 -105z" />
    <glyph glyph-name="uni045C" unicode="&#x45c;" horiz-adv-x="928" 
d="M902 0h-126l-327 455h-194v-455h-105v973h105v-427h196l294 427h123l-334 -474zM386 1061l130 181h115l-166 -181h-79z" />
    <glyph glyph-name="uni045D" unicode="&#x45d;" horiz-adv-x="1066" 
d="M803 973h113v-973h-104v817l-547 -817h-115v973h105l1 -816zM357 1242h115l131 -181h-80z" />
    <glyph glyph-name="uni045E" unicode="&#x45e;" horiz-adv-x="891" 
d="M444 170l304 803h106l-513 -1327h-100l153 400l-353 927h109zM711 1273q-1 -118 -61 -176q-58 -57 -204 -57q-148 0 -206 57q-60 58 -61 176h88q1 -80 42 -121q40 -40 137 -40q95 0 135 40q41 41 42 121h88z" />
    <glyph glyph-name="uni045F" unicode="&#x45f;" horiz-adv-x="1069" 
d="M814 85v888h106v-973h-333v-248h-104v248h-333v973h105v-888h559z" />
    <glyph glyph-name="uni0462" unicode="&#x462;" horiz-adv-x="1184" 
d="M667 757q207 0 316 -95q108 -95 108 -284q0 -188 -108 -283q-109 -95 -316 -95h-386v959h-231v76h231v203h110v-203h442v-76h-442v-202h276zM651 87q327 0 327 291q0 292 -327 292h-260v-583h260z" />
    <glyph glyph-name="uni0463" unicode="&#x463;" horiz-adv-x="1142" 
d="M707 626q187 0 274 -78t87 -233q0 -159 -87 -237t-274 -78h-412v927h-304v83h304v316h105v-316h399v-83h-399v-301h307zM686 76q144 0 211 58t67 179t-67 179t-211 58h-286v-474h286z" />
    <glyph glyph-name="uni0490" unicode="&#x490;" horiz-adv-x="942" 
d="M803 1238v256h104v-344h-631v-1150h-110v1238h637z" />
    <glyph glyph-name="uni0491" unicode="&#x491;" horiz-adv-x="852" 
d="M255 0h-105v973h552v247h104v-336h-551v-884z" />
    <glyph glyph-name="uni04C1" unicode="&#x4c1;" horiz-adv-x="1612" 
d="M1579 0h-122l-391 591h-205v-591h-109v591h-206l-390 -591h-122l431 638l-400 600h122l363 -555h202v555h109v-555h202l364 555h120l-399 -600zM1072 1539q-1 -118 -61 -176t-205 -58q-146 0 -206 58t-61 176h89q1 -80 42 -121q40 -40 136 -40t136 40q39 39 41 121h89z
" />
    <glyph glyph-name="uni04C2" unicode="&#x4c2;" horiz-adv-x="1450" 
d="M1424 0h-119l-323 456h-206v-456h-104v456h-205l-324 -456h-116l353 499l-320 474h117l288 -428h207v428h104v-428h207l289 428h118l-322 -474zM990 1273q-1 -118 -61 -176q-59 -57 -204 -57q-148 0 -206 57q-60 58 -61 176h88q1 -79 43 -121q40 -40 136 -40q95 0 135 40
q41 41 42 121h88z" />
    <glyph glyph-name="uni04F8" unicode="&#x4f8;" horiz-adv-x="1510" 
d="M564 814q221 0 322 -100q103 -101 103 -307q0 -208 -103 -308q-102 -99 -322 -99h-398v1238h110v-424h288zM1234 0v1238h110v-1238h-110zM543 87q175 0 255 77q81 78 81 243q0 163 -81 242q-82 80 -255 80h-267v-642h267zM580 1351q-14 14 -14 37q0 22 14 36t35 14
q22 0 36 -14t14 -36q0 -23 -14 -37t-36 -14q-21 0 -35 14zM860 1351q-15 15 -15 37q0 21 15 36q14 14 35 14q23 0 37 -14t14 -36q0 -23 -14 -37t-37 -14q-21 0 -35 14z" />
    <glyph glyph-name="uni04F9" unicode="&#x4f9;" horiz-adv-x="1377" 
d="M562 626q187 0 274 -78t87 -233q0 -159 -87 -237t-274 -78h-412v973h105v-347h307zM1118 0v973h109v-973h-109zM541 76q144 0 211 58t67 179t-67 179t-211 58h-286v-474h286zM501 1086q-15 15 -15 37q0 20 15 35t35 15t35 -15q14 -14 14 -35q0 -23 -14 -37t-35 -14
t-35 14zM780 1086q-14 14 -14 37q0 21 14 35q15 15 35 15q22 0 37 -15t15 -35q0 -22 -15 -37q-14 -14 -37 -14q-21 0 -35 14z" />
    <glyph glyph-name="uni05B0" unicode="&#x5b0;" 
d="M497 -228q-14 14 -14 33q0 20 14 34t34 14q19 0 33 -14t14 -34q0 -19 -14 -33t-33 -14q-20 0 -34 14zM497 -391q-14 14 -14 34q0 19 14 33t34 14q19 0 33 -14t14 -33q0 -20 -14 -34t-33 -14q-20 0 -34 14z" />
    <glyph glyph-name="uni05B1" unicode="&#x5b1;" 
d="M653 -228q-15 15 -15 33q0 19 15 34q14 14 33 14q20 0 34 -14t14 -34q0 -19 -14 -33t-34 -14q-19 0 -33 14zM653 -391q-15 15 -15 34q0 18 15 33q14 14 33 14q20 0 34 -14t14 -33q0 -20 -14 -34t-34 -14q-19 0 -33 14zM336 -228q-14 14 -14 33q0 20 14 34t34 14
q19 0 33 -14t14 -34q0 -19 -14 -33t-33 -14q-20 0 -34 14zM499 -228q-14 14 -14 33q0 20 14 34t33 14q20 0 34 -14t14 -34q0 -19 -14 -33t-34 -14q-19 0 -33 14zM417 -368q-14 14 -14 34q0 19 14 33t34 14t34 -14t14 -33q0 -20 -14 -34t-34 -14t-34 14z" />
    <glyph glyph-name="uni05B2" unicode="&#x5b2;" 
d="M301 -225v64h283v-64h-283zM663 -228q-14 14 -14 33q0 20 14 34t34 14q19 0 33 -14q15 -15 15 -34q0 -18 -15 -33q-14 -14 -33 -14q-20 0 -34 14zM663 -391q-14 14 -14 34q0 19 14 33t34 14q19 0 33 -14q15 -15 15 -33q0 -19 -15 -34q-14 -14 -33 -14q-20 0 -34 14z" />
    <glyph glyph-name="uni05B3" unicode="&#x5b3;" 
d="M313 -156h269v-60h-110l16 -95v-66h-78v66l16 95h-113v60zM658 -228q-14 14 -14 33q0 20 14 34t34 14q19 0 33 -14t14 -34q0 -19 -14 -33t-33 -14q-20 0 -34 14zM658 -391q-14 14 -14 34q0 19 14 33t34 14q19 0 33 -14t14 -33q0 -20 -14 -34t-33 -14q-20 0 -34 14z" />
    <glyph glyph-name="uni05B4" unicode="&#x5b4;" 
d="M493 -236q-14 16 -14 38q0 20 14 36q13 15 38 15q23 0 37 -15q14 -16 14 -36q0 -22 -14 -38q-14 -15 -37 -15q-25 0 -38 15z" />
    <glyph glyph-name="uni05B5" unicode="&#x5b5;" 
d="M416 -228q-15 15 -15 33q0 19 15 34q14 14 33 14q20 0 34 -14t14 -34q0 -19 -14 -33t-34 -14q-19 0 -33 14zM578 -228q-14 14 -14 33q0 20 14 34t34 14t34 -14t14 -34q0 -19 -14 -33t-34 -14t-34 14z" />
    <glyph glyph-name="uni05B6" unicode="&#x5b6;" 
d="M416 -228q-15 15 -15 33q0 19 15 34q14 14 33 14q20 0 34 -14t14 -34q0 -19 -14 -33t-34 -14q-19 0 -33 14zM578 -228q-14 14 -14 33q0 20 14 34t34 14t34 -14t14 -34q0 -19 -14 -33t-34 -14t-34 14zM497 -368q-14 14 -14 34q0 19 14 33t34 14q19 0 33 -14t14 -33
q0 -20 -14 -34t-33 -14q-20 0 -34 14z" />
    <glyph glyph-name="uni05B7" unicode="&#x5b7;" 
d="M389 -218v64h283v-64h-283z" />
    <glyph glyph-name="uni05B8" unicode="&#x5b8;" 
d="M396 -156h269v-60h-110l16 -95v-66h-78v66l16 95h-113v60z" />
    <glyph glyph-name="uni05B9" unicode="&#x5b9;" 
d="M493 1207q-14 16 -14 38q0 21 14 35q15 15 38 15q19 0 36 -15q15 -14 15 -35q0 -23 -15 -38t-36 -15q-25 0 -38 15z" />
    <glyph glyph-name="uni05BA" unicode="&#x5ba;" 
d="M493 1207q-14 16 -14 38q0 21 14 35q15 15 38 15q19 0 36 -15q15 -14 15 -35q0 -23 -15 -38t-36 -15q-25 0 -38 15z" />
    <glyph glyph-name="uni05BB" unicode="&#x5bb;" 
d="M501 -225q-15 15 -15 32t15 32q14 14 31 14q21 0 34 -13q14 -14 14 -33q0 -18 -14 -32t-34 -14q-17 0 -31 14zM615 -329q-14 14 -14 34q0 17 14 31q15 15 32 15q20 0 34 -14t14 -32q0 -20 -14 -34t-34 -14q-18 0 -32 14zM730 -431q-14 14 -14 33t14 33q13 13 34 13
q19 0 33 -14q13 -13 13 -32q0 -20 -13 -33t-33 -13q-21 0 -34 13z" />
    <glyph glyph-name="uni05BC" unicode="&#x5bc;" 
d="M494 487q-15 15 -15 36q0 22 15 37t37 15q21 0 36 -15t15 -37q0 -21 -15 -36t-36 -15q-22 0 -37 15z" />
    <glyph glyph-name="uni05BE" unicode="&#x5be;" horiz-adv-x="571" 
d="M83 978v83h405v-83h-405z" />
    <glyph glyph-name="uni05BF" unicode="&#x5bf;" 
d="M350 1178v51h361v-51h-361z" />
    <glyph glyph-name="uni05C1" unicode="&#x5c1;" 
d="M493 1207q-14 16 -14 38q0 21 14 35q15 15 38 15q19 0 36 -15q15 -14 15 -35q0 -23 -15 -38t-36 -15q-25 0 -38 15z" />
    <glyph glyph-name="uni05C2" unicode="&#x5c2;" 
d="M493 1207q-14 16 -14 38q0 21 14 35q15 15 38 15q19 0 36 -15q15 -14 15 -35q0 -23 -15 -38t-36 -15q-25 0 -38 15z" />
    <glyph glyph-name="uni05C3" unicode="&#x5c3;" horiz-adv-x="367" 
d="M126 0v159h115v-159h-115zM126 906v159h115v-159h-115z" />
    <glyph glyph-name="uni05C6" unicode="&#x5c6;" horiz-adv-x="558" 
d="M348 2q-95 1 -140 54q-45 52 -45 160v845h325v-83h-219v-734q0 -86 31 -123q32 -38 101 -38h110v-83z" />
    <glyph glyph-name="uni05C7" unicode="&#x5c7;" 
d="M421 -145h217v-50h-88l11 -77v-52h-62v52l12 77h-90v50z" />
    <glyph glyph-name="uni05D0" unicode="&#x5d0;" horiz-adv-x="1091" 
d="M992 0h-111l-471 653q-168 -23 -168 -221v-432h-108v430q0 120 59 197t168 93l-246 341h111l441 -610q87 9 130 61t43 157v392h106v-396q0 -132 -61 -200q-61 -69 -167 -85z" />
    <glyph glyph-name="uni05D1" unicode="&#x5d1;" horiz-adv-x="1039" 
d="M837 1061v-978h148v-83h-882v83h626v895h-626v83h734z" />
    <glyph glyph-name="uni05D2" unicode="&#x5d2;" horiz-adv-x="629" 
d="M396 267q-19 -125 -101 -196t-205 -71h-62v83h62q137 0 212 86q75 85 75 224q0 6 -4 58l-55 527h-212v83h299l129 -1061h-102l-31 267h-5z" />
    <glyph glyph-name="uni05D3" unicode="&#x5d3;" horiz-adv-x="972" 
d="M64 1061h819v-83h-146v-978h-106v978h-567v83z" />
    <glyph glyph-name="uni05D4" unicode="&#x5d4;" horiz-adv-x="1181" 
d="M156 1061h841v-1061h-107v978h-734v83zM164 0v628h108v-628h-108z" />
    <glyph glyph-name="uni05D5" unicode="&#x5d5;" horiz-adv-x="477" 
d="M292 1061v-1061h-108v1061h108z" />
    <glyph glyph-name="uni05D6" unicode="&#x5d6;" horiz-adv-x="659" 
d="M615 1061v-83h-205q-43 -40 -69 -94q-24 -49 -24 -141q0 -82 19 -177l115 -566h-106l-112 552q-19 89 -19 171q0 171 99 250v5h-253v83h555z" />
    <glyph glyph-name="uni05D7" unicode="&#x5d7;" horiz-adv-x="1206" 
d="M660 1061q142 0 225 -39t120 -136q38 -99 38 -278v-608h-107v607q0 146 -30 230q-28 78 -93 110q-63 31 -180 31h-341v-978h-108v1061h476z" />
    <glyph glyph-name="uni05D8" unicode="&#x5d8;" horiz-adv-x="1167" 
d="M1017 596q0 -220 -55 -348q-57 -132 -173 -189q-120 -59 -319 -59h-238l-121 1061h107l111 -978h141q168 0 264 51t136 160q41 112 41 302v382h-349v83h455v-465z" />
    <glyph glyph-name="uni05D9" unicode="&#x5d9;" horiz-adv-x="440" 
d="M274 1061v-589h-108v589h108z" />
    <glyph glyph-name="uni05DA" unicode="&#x5da;" horiz-adv-x="896" 
d="M713 -265h-108v1243h-541v83h649v-1326z" />
    <glyph glyph-name="uni05DB" unicode="&#x5db;" horiz-adv-x="970" 
d="M424 1061q152 0 241 -48q86 -47 128 -152q40 -101 40 -272v-117q0 -171 -40 -272q-41 -104 -128 -151q-90 -49 -241 -49h-321v83h298q122 0 193 41q70 40 102 126q31 84 31 226v109q0 142 -31 226q-32 85 -102 126q-71 41 -193 41h-298v83h321z" />
    <glyph glyph-name="uni05DC" unicode="&#x5dc;" horiz-adv-x="875" 
d="M401 0h-111l382 978h-614v260h103v-177h649z" />
    <glyph glyph-name="uni05DD" unicode="&#x5dd;" horiz-adv-x="1200" 
d="M709 1061q122 0 192 -37q71 -38 102 -126q32 -90 32 -247v-651h-851v1061h525zM928 635q0 136 -22 209t-76 104q-53 30 -146 30h-394v-895h638v552z" />
    <glyph glyph-name="uni05DE" unicode="&#x5de;" horiz-adv-x="1131" 
d="M557 1061q151 0 243 -48q93 -49 134 -156q42 -109 42 -296v-561h-483v83h375v476q0 163 -32 252q-33 91 -104 129t-191 38h-152l-175 -978h-108l177 978h-173v83h447z" />
    <glyph glyph-name="uni05DF" unicode="&#x5df;" horiz-adv-x="477" 
d="M184 1061h108v-1326h-108v1326z" />
    <glyph glyph-name="uni05E0" unicode="&#x5e0;" horiz-adv-x="636" 
d="M48 0v83h147q95 0 134 47q39 46 39 155v693h-225v83h331v-787q0 -150 -54 -212t-188 -62h-184z" />
    <glyph glyph-name="uni05E1" unicode="&#x5e1;" horiz-adv-x="1172" 
d="M1022 623q0 -231 -54 -366q-54 -134 -171 -196q-116 -61 -318 -61h-244l-120 1061h907v-438zM918 978h-688l99 -895h150q171 0 265 52q93 52 134 168q40 114 40 320v355z" />
    <glyph glyph-name="uni05E2" unicode="&#x5e2;" horiz-adv-x="1027" 
d="M762 1061h108v-523q0 -144 -39 -240q-40 -98 -125 -160q-88 -64 -236 -104l-396 -108l-21 83l265 74l-201 978h108l192 -950l34 9q119 33 187 84t96 130q28 78 28 205v522z" />
    <glyph glyph-name="uni05E3" unicode="&#x5e3;" horiz-adv-x="1068" 
d="M520 1061q202 0 294 -102q92 -103 92 -322v-902h-108v896q0 186 -69 267q-68 80 -230 80h-251v-536h-103v619h375z" />
    <glyph glyph-name="uni05E4" unicode="&#x5e4;" horiz-adv-x="1121" 
d="M575 1061q148 0 239 -47q89 -46 130 -147q39 -97 39 -264v-145q0 -167 -39 -264q-41 -101 -130 -147q-91 -47 -239 -47h-402v83h382q120 0 190 40t100 123t30 221v127q0 138 -30 221t-100 123t-190 40h-279v-467h-103v550h402z" />
    <glyph glyph-name="uni05E5" unicode="&#x5e5;" horiz-adv-x="926" 
d="M676 1061h107v-369q0 -221 -99 -311q-100 -91 -275 -109l183 -537h-107l-453 1326h108l242 -709q95 11 157 43q65 34 100 106q37 76 37 201v359z" />
    <glyph glyph-name="uni05E6" unicode="&#x5e6;" horiz-adv-x="1022" 
d="M108 0v83h638l-704 978h114l405 -564q99 13 158 68q59 54 59 172v324h106v-334q0 -258 -270 -304l302 -423h-808z" />
    <glyph glyph-name="uni05E7" unicode="&#x5e7;" horiz-adv-x="1167" 
d="M1010 442q0 -166 -40 -261q-41 -97 -123 -139q-83 -42 -221 -42h-120v83h104q107 0 170 33q65 34 94 109q30 77 30 215v538h-755v83h861v-619zM163 -265v893h108v-893h-108z" />
    <glyph glyph-name="uni05E8" unicode="&#x5e8;" horiz-adv-x="935" 
d="M665 561q0 166 -32 257q-31 89 -102 125q-69 35 -200 35h-267v83h288q160 0 249 -43q91 -44 131 -150q41 -108 41 -299v-569h-108v561z" />
    <glyph glyph-name="uni05E9" unicode="&#x5e9;" horiz-adv-x="1356" 
d="M1190 557q0 -220 -55 -340q-56 -122 -163 -169q-110 -48 -288 -48h-451l-106 1061h105l97 -978h338q151 0 241 39q91 39 134 143q44 106 44 301v495h104v-504zM723 343h-102v718h102v-718z" />
    <glyph glyph-name="uni05EA" unicode="&#x5ea;" horiz-adv-x="1218" 
d="M674 1061q134 0 216 -41q84 -42 126 -141t42 -271v-608h-108v600q0 146 -33 228q-33 83 -96 116q-65 34 -168 34h-262v-978h-336v83h233v895h-173v83h559z" />
    <glyph glyph-name="uni05F0" unicode="&#x5f0;" horiz-adv-x="953" 
d="M768 1061v-1061h-108v1061h108zM292 1061v-1061h-108v1061h108z" />
    <glyph glyph-name="uni05F1" unicode="&#x5f1;" horiz-adv-x="875" 
d="M274 1061v-589h-108v589h108zM690 1061v-1061h-108v1061h108z" />
    <glyph glyph-name="uni05F2" unicode="&#x5f2;" horiz-adv-x="880" 
d="M715 1061v-589h-108v589h108zM274 1061v-589h-108v589h108z" />
    <glyph glyph-name="uni05F3" unicode="&#x5f3;" horiz-adv-x="302" 
d="M76 819l60 419h94l-2 -87l-81 -332h-71z" />
    <glyph glyph-name="uni05F4" unicode="&#x5f4;" horiz-adv-x="477" 
d="M76 819l60 419h83l-1 -87l-78 -332h-64zM260 819l60 419h85l-2 -87l-78 -332h-65z" />
    <glyph glyph-name="uni0950" unicode="&#x950;" horiz-adv-x="1379" 
d="M681 1270h65v-124h-65v124zM1040 1051q-148 -54 -322 -54t-327 54l12 54q139 -53 313 -53q176 0 312 53zM638 376q34 -75 34 -187q0 -124 -83 -192t-234 -68q-88 0 -176 47q-84 45 -152 148l44 39q66 -86 134 -127q67 -41 147 -41q112 0 174 50q63 51 63 146
q0 93 -32 166q-32 72 -101 131l-51 -10l-124 -27l-17 62l120 26q106 18 152 58t46 121q0 74 -46 114t-140 40q-205 0 -205 -196h-76q0 261 281 261q136 0 200 -54q65 -55 65 -154q0 -82 -31 -134q-31 -51 -103 -82q76 -60 111 -137zM1231 847q71 -91 71 -278v-47
q0 -187 -71 -278q-71 -90 -212 -90q-137 0 -208 90q-70 89 -70 278v47q0 189 70 278q71 90 208 90q141 0 212 -90zM1224 564q0 159 -51 234q-50 74 -154 74q-102 0 -151 -74t-49 -234v-37q0 -159 49 -233q50 -75 151 -75q103 0 154 75t51 233v37z" />
    <glyph glyph-name="uni0E3F" unicode="&#xe3f;" horiz-adv-x="1186" 
d="M999 554q60 -75 60 -214q0 -340 -375 -340h-72v-159h-67v159h-379v1238h379v159h67v-159h55q171 0 264 -78t93 -228q0 -113 -49 -188q-48 -74 -137 -95q101 -20 161 -95zM274 692h271v450h-271v-450zM612 1142v-450h48q125 0 186 58t61 177q0 113 -66 164t-195 51h-34z
M274 596v-500h271v500h-271zM660 96q142 0 212 60q71 60 71 191q0 249 -283 249h-48v-500h48z" />
    <glyph glyph-name="uni1E3E" unicode="&#x1e3e;" horiz-adv-x="1528" 
d="M764 377l451 861h147v-1238h-105v1102l-449 -842h-88l-449 842v-1102h-105v1238h147zM690 1326l131 181h115l-167 -181h-79z" />
    <glyph glyph-name="uni1E3F" unicode="&#x1e3f;" horiz-adv-x="1533" 
d="M1401 628v-628h-105v628q0 274 -235 274q-233 0 -233 -274v-628h-105v628q0 130 -57 202t-178 72q-119 0 -176 -73t-57 -210v-619h-105v973h105v-129q72 138 260 138q217 0 283 -170q63 170 284 170q319 0 319 -354zM709 1061l131 181h115l-166 -181h-80z" />
    <glyph glyph-name="Wgrave" unicode="&#x1e80;" horiz-adv-x="1738" 
d="M1249 134l320 1104h116l-374 -1238h-121l-322 1072l-323 -1072h-119l-373 1238h117l320 -1104l329 1104h101zM693 1489h115l131 -180h-79z" />
    <glyph glyph-name="wgrave" unicode="&#x1e81;" horiz-adv-x="1425" 
d="M1029 120l234 853h113l-292 -973h-108l-263 840l-264 -840h-108l-291 973h113l233 -853l267 853h99zM534 1242h115l131 -181h-80z" />
    <glyph glyph-name="Wacute" unicode="&#x1e82;" horiz-adv-x="1738" 
d="M1249 134l320 1104h116l-374 -1238h-121l-322 1072l-323 -1072h-119l-373 1238h117l320 -1104l329 1104h101zM794 1309l131 180h115l-166 -180h-80z" />
    <glyph glyph-name="wacute" unicode="&#x1e83;" horiz-adv-x="1425" 
d="M1029 120l234 853h113l-292 -973h-108l-263 840l-264 -840h-108l-291 973h113l233 -853l267 853h99zM635 1061l131 181h115l-166 -181h-80z" />
    <glyph glyph-name="Wdieresis" unicode="&#x1e84;" horiz-adv-x="1738" 
d="M1249 134l320 1104h116l-374 -1238h-121l-322 1072l-323 -1072h-119l-373 1238h117l320 -1104l329 1104h101zM693 1333q-14 14 -14 38q0 21 14 35t36 14q21 0 35 -14t14 -35q0 -24 -14 -38t-35 -14q-22 0 -36 14zM973 1333q-14 14 -14 38q0 21 14 35t35 14q23 0 37 -14
t14 -35q0 -24 -14 -38t-37 -14q-21 0 -35 14z" />
    <glyph glyph-name="wdieresis" unicode="&#x1e85;" horiz-adv-x="1425" 
d="M1029 120l234 853h113l-292 -973h-108l-263 840l-264 -840h-108l-291 973h113l233 -853l267 853h99zM536 1086q-14 14 -14 37q0 21 14 35q15 15 35 15q21 0 36 -15q14 -14 14 -35q0 -23 -14 -37t-36 -14q-21 0 -35 14zM815 1086q-14 14 -14 37q0 21 14 35q15 15 36 15
q22 0 37 -15q14 -14 14 -35q0 -23 -14 -37t-37 -14q-22 0 -36 14z" />
    <glyph glyph-name="uni1E9E" unicode="&#x1e9e;" horiz-adv-x="1184" 
d="M993 637q114 -96 114 -273q0 -176 -112 -273q-113 -98 -316 -98q-107 0 -201 28l19 76q89 -23 170 -23q161 0 253 78t92 216q0 141 -92 216q-90 74 -262 74h-92v69l308 430h-340q-137 0 -207 -73q-69 -72 -69 -226v-858h-95v852q0 386 369 386h480l-349 -509h9
q208 3 321 -92z" />
    <glyph glyph-name="uni1EBC" unicode="&#x1ebc;" horiz-adv-x="1098" 
d="M276 607v-519h720v-88h-830v1238h814v-88h-704v-457h638v-86h-638zM396 1356q33 94 110 94q23 0 41 -10q16 -9 44 -29q19 -17 31 -24q14 -8 29 -8q25 0 40 16q16 18 29 45l40 -25q-19 -46 -42 -69q-25 -25 -64 -25q-24 0 -43 11q-23 13 -42 30q-19 16 -33 25q-11 7 -28 7
q-43 0 -69 -64z" />
    <glyph glyph-name="uni1EBD" unicode="&#x1ebd;" horiz-adv-x="985" 
d="M791 853q103 -128 100 -397h-704q10 -391 298 -391q120 0 192 64t94 170h104q-27 -144 -123 -227q-98 -84 -267 -84q-199 0 -299 125q-101 127 -101 373q0 248 101 373q100 124 299 124q201 0 306 -130zM271 814q-75 -91 -82 -278h598q-18 370 -302 370q-139 0 -214 -92z
M301 1091q33 94 109 94q24 0 42 -10q12 -6 43 -29q19 -17 31 -24q14 -8 29 -8q25 0 40 16q17 19 29 44l41 -24q-19 -46 -42 -69q-25 -25 -64 -25q-26 0 -43 10q-19 11 -42 31q-12 10 -34 24q-11 7 -28 7q-44 0 -69 -63z" />
    <glyph glyph-name="Ygrave" unicode="&#x1ef2;" horiz-adv-x="1038" 
d="M518 603l361 635h118l-424 -727v-511h-110v511l-422 727h116zM343 1507h115l131 -181h-80z" />
    <glyph glyph-name="ygrave" unicode="&#x1ef3;" horiz-adv-x="891" 
d="M444 170l304 803h106l-513 -1327h-100l153 400l-353 927h109zM269 1242h115l131 -181h-80z" />
    <glyph glyph-name="uni1EF8" unicode="&#x1ef8;" horiz-adv-x="1038" 
d="M518 603l361 635h118l-424 -727v-511h-110v511l-422 727h116zM338 1356q33 94 109 94q24 0 42 -10q12 -6 43 -29q19 -17 31 -24q14 -8 29 -8q25 0 40 16q16 18 29 45l41 -25q-19 -46 -42 -69q-25 -25 -64 -25q-24 0 -43 11q-23 13 -42 30q-19 16 -33 25q-11 7 -29 7
q-43 0 -69 -64z" />
    <glyph glyph-name="uni1EF9" unicode="&#x1ef9;" horiz-adv-x="891" 
d="M444 170l304 803h106l-513 -1327h-100l153 400l-353 927h109zM264 1091q33 94 109 94q24 0 42 -10q12 -6 43 -29q19 -17 31 -24q14 -8 29 -8q25 0 40 16q17 19 29 44l41 -24q-18 -44 -43 -69t-63 -25q-27 0 -44 10q-16 9 -41 31q-12 10 -34 24q-11 7 -28 7q-43 0 -69 -63
z" />
    <glyph glyph-name="uni200B" unicode="&#x200b;" 
 />
    <glyph glyph-name="endash" unicode="&#x2013;" horiz-adv-x="1105" 
d="M85 497v78h941v-78h-941z" />
    <glyph glyph-name="emdash" unicode="&#x2014;" horiz-adv-x="1186" 
d="M21 497v76h1148v-76h-1148z" />
    <glyph glyph-name="quoteleft" unicode="&#x2018;" horiz-adv-x="302" 
d="M230 1238l-60 -419h-94v87l81 332h73z" />
    <glyph glyph-name="quoteright" unicode="&#x2019;" horiz-adv-x="302" 
d="M76 819l60 419h94l-2 -87l-81 -332h-71z" />
    <glyph glyph-name="quotesinglbase" unicode="&#x201a;" horiz-adv-x="313" 
d="M65 -186l61 419h93l-1 -86l-82 -333h-71z" />
    <glyph glyph-name="quotedblleft" unicode="&#x201c;" horiz-adv-x="488" 
d="M225 1238l-61 -419h-88v87l81 332h68zM416 1238l-61 -419h-90l2 87l81 332h68z" />
    <glyph glyph-name="quotedblright" unicode="&#x201d;" horiz-adv-x="488" 
d="M76 819l60 419h89l-2 -87l-82 -332h-65zM265 819l60 419h91l-2 -87l-82 -332h-67z" />
    <glyph glyph-name="quotedblbase" unicode="&#x201e;" horiz-adv-x="498" 
d="M65 -186l61 419h88l-2 -86l-81 -333h-66zM255 -186l60 419h90l-2 -86l-81 -333h-67z" />
    <glyph glyph-name="dagger" unicode="&#x2020;" horiz-adv-x="1105" 
d="M605 1326v-498h421v-80h-941v80h419v498h101zM605 -354h-101v564h101v-564z" />
    <glyph glyph-name="daggerdbl" unicode="&#x2021;" horiz-adv-x="1105" 
d="M605 1326v-498h421v-80h-941v80h419v498h101zM504 138h-419v78h941v-78h-421v-492h-101v492z" />
    <glyph glyph-name="bullet" unicode="&#x2022;" horiz-adv-x="834" 
d="M246 237q-80 47 -126 126t-46 173q0 95 46 172q47 79 126 125t173 46q96 0 173 -46t124 -125q46 -77 46 -172q0 -94 -46 -173q-47 -80 -124 -126t-173 -46q-94 0 -173 46z" />
    <glyph glyph-name="ellipsis" unicode="&#x2026;" horiz-adv-x="1011" 
d="M101 0v159h115v-159h-115zM447 0v159h115v-159h-115zM794 0v159h115v-159h-115z" />
    <glyph glyph-name="perthousand" unicode="&#x2030;" horiz-adv-x="1901" 
d="M506 1183q63 -60 63 -173v-255q0 -113 -63 -174q-62 -61 -182 -61q-118 0 -182 61t-64 174v255q0 111 64 172t182 61q119 0 182 -60zM154 752q0 -82 46 -128t124 -46q79 0 125 46t46 128v261q0 82 -46 127q-47 45 -125 45t-124 -45t-46 -127v-261zM1188 654
q64 -61 64 -173v-255q0 -112 -64 -174q-62 -61 -182 -61q-117 0 -181 61q-65 62 -65 174v255q0 110 65 172t181 62q118 0 182 -61zM837 223q0 -81 46 -127t123 -46q80 0 126 46t46 127v262q0 81 -46 126t-126 45q-76 0 -123 -45q-46 -45 -46 -126v-262zM287 0h-75l823 1238
h72zM1769 654q63 -60 63 -173v-255q0 -112 -63 -174q-62 -61 -183 -61q-117 0 -181 61t-64 174v255q0 111 64 172q65 62 181 62q119 0 183 -61zM1417 223q0 -81 46 -127t123 -46q80 0 126 46t46 127v262q0 81 -46 126t-126 45q-76 0 -123 -45q-46 -45 -46 -126v-262z" />
    <glyph glyph-name="uni2031" unicode="&#x2031;" horiz-adv-x="2483" 
d="M506 1183q63 -60 63 -173v-255q0 -113 -63 -174q-62 -61 -182 -61q-118 0 -182 61t-64 174v255q0 111 64 172t182 61q119 0 182 -60zM154 752q0 -82 46 -128t124 -46q79 0 125 46t46 128v261q0 82 -46 127q-47 45 -125 45t-124 -45t-46 -127v-261zM1188 654
q64 -61 64 -173v-255q0 -112 -64 -174q-62 -61 -182 -61q-117 0 -181 61q-65 62 -65 174v255q0 110 65 172t181 62q118 0 182 -61zM837 223q0 -81 46 -127t123 -46q80 0 126 46t46 127v262q0 81 -46 126t-126 45q-76 0 -123 -45q-46 -45 -46 -126v-262zM287 0h-75l823 1238
h72zM1769 654q63 -60 63 -173v-255q0 -112 -63 -174q-62 -61 -183 -61q-117 0 -181 61t-64 174v255q0 111 64 172q65 62 181 62q119 0 183 -61zM1417 223q0 -81 46 -127t123 -46q80 0 126 46t46 127v262q0 81 -46 126t-126 45q-76 0 -123 -45q-46 -45 -46 -126v-262z
M2349 654q63 -60 63 -173v-255q0 -112 -63 -174q-62 -61 -183 -61q-117 0 -181 61t-64 174v255q0 111 64 172q65 62 181 62q119 0 183 -61zM1997 223q0 -81 46 -127t123 -46q80 0 126 46t46 127v262q0 81 -46 126t-126 45q-76 0 -123 -45q-46 -45 -46 -126v-262z" />
    <glyph glyph-name="guilsinglleft" unicode="&#x2039;" horiz-adv-x="548" 
d="M462 133l-336 359l336 360l53 -44l-296 -316l296 -315z" />
    <glyph glyph-name="guilsinglright" unicode="&#x203a;" horiz-adv-x="548" 
d="M421 492l-334 -359l-55 44l295 315l-295 316l55 44z" />
    <glyph glyph-name="uni203D" unicode="&#x203d;" horiz-adv-x="880" 
d="M796 948q0 -74 -22 -128q-24 -58 -55 -94q-36 -41 -86 -88q-71 -68 -105 -118q-35 -52 -35 -131v-78h-106v720h106v-416q30 38 69 77q66 64 97 114q33 52 33 131q0 113 -62 169t-190 56q-132 0 -194 -57t-62 -175v-90h-104v101q0 151 88 226t274 75q354 0 354 -294z
M497 0h-115v159h115v-159z" />
    <glyph glyph-name="fraction" unicode="&#x2044;" horiz-adv-x="291" 
d="M-228 0h-74l822 1238h72z" />
    <glyph glyph-name="uni2051" unicode="&#x2051;" horiz-adv-x="718" 
d="M258 808l-56 43l118 150l-184 48l23 67l175 -69l-9 191h71l-12 -193l178 71l22 -67l-184 -50l120 -148l-57 -43l-104 158zM384 311l178 71l22 -65l-184 -52l120 -147l-57 -42l-104 157l-101 -157l-56 42l118 149l-184 50l23 65l175 -69l-9 193h71z" />
    <glyph glyph-name="uni20A9" unicode="&#x20a9;" horiz-adv-x="1788" 
d="M1535 653h204v-64h-223l-179 -589h-120l-177 589h-290l-179 -589h-118l-177 589h-223v64h203l-176 585h116l170 -585h304l175 585h101l175 -585h304l170 585h117zM895 1072l-126 -419h251zM384 589l132 -455l137 455h-269zM1139 589l136 -455l133 455h-269z" />
    <glyph glyph-name="uni20AA" unicode="&#x20aa;" horiz-adv-x="1453" 
d="M959 352h-89v361q0 71 -14 113q-14 40 -51 60q-38 20 -108 20h-425v-906h-88v973h550q128 0 176 -54q49 -55 49 -183v-384zM529 0v635h88v-568h380q87 0 130 27q44 27 60 80q16 52 16 150v649h88v-648q0 -115 -24 -186t-81 -105q-56 -34 -160 -34h-497z" />
    <glyph glyph-name="Euro" unicode="&#x20ac;" horiz-adv-x="1077" 
d="M934 172l37 -75q-117 -108 -320 -108q-229 0 -341 120q-114 121 -115 372h-128v67h128v154h-128v67h128q3 245 116 361q112 115 340 115q201 0 320 -95l-39 -78q-101 88 -278 88t-264 -94q-87 -95 -89 -297h486l-32 -67h-454v-154h380l-32 -67h-348q0 -210 88 -308
q88 -99 265 -99q171 0 280 98z" />
    <glyph glyph-name="uni20B9" unicode="&#x20b9;" horiz-adv-x="1057" 
d="M982 1155h-375q128 -79 134 -251h241v-52h-243q-9 -152 -97 -228t-271 -76h-111l493 -548h-123l-487 548v82h204q143 0 213 54q71 55 80 168h-497v52h499q-3 124 -76 188q-72 63 -219 63h-188v83h823v-83z" />
    <glyph glyph-name="uni20BA" unicode="&#x20ba;" horiz-adv-x="1105" 
d="M982 554q-3 -278 -138 -416t-414 -138h-145v499l-198 -82v62l198 82v154l-198 -84v61l198 83v463h95v-424l331 137v-60l-331 -138v-152l331 136v-61l-331 -137v-456h55q238 0 344 115q108 117 111 356h92z" />
    <glyph glyph-name="uni20BD" unicode="&#x20bd;" horiz-adv-x="1119" 
d="M371 531v-138h492v-75h-492v-318h-109v318h-112v75h112v138h-112v84h112v623h385q196 0 287 -88q90 -87 90 -266t-90 -266t-287 -87h-276zM371 1151v-536h262q149 0 215 68q66 67 66 201q0 135 -66 201t-215 66h-262z" />
    <glyph glyph-name="uni20BF" unicode="&#x20bf;" horiz-adv-x="1186" 
d="M690 0v-159h-64v159h-134v-159h-62v159h-264v1238h264v159h62v-159h134v159h64v-159q161 -6 247 -83q87 -78 87 -223q0 -113 -49 -188q-48 -74 -137 -95q101 -20 161 -95t60 -214q0 -337 -369 -340zM841 1091q-66 51 -195 51h-372v-450h386q125 0 186 58t61 177
q0 113 -66 164zM660 96q142 0 212 60q71 60 71 191q0 249 -283 249h-386v-500h386z" />
    <glyph glyph-name="uni2113" unicode="&#x2113;" horiz-adv-x="672" 
d="M573 44q-89 -60 -172 -60q-85 0 -141 63q-55 62 -55 169v214q-56 -34 -118 -59l-14 43q69 27 132 69v541q0 112 47 170q46 56 128 56q86 0 127 -50t41 -144q0 -174 -70 -318q-71 -146 -191 -248v-269q0 -91 37 -140t99 -49q58 0 129 44zM287 546q101 90 158 218t57 279
q0 78 -27 117t-81 39q-107 0 -107 -164v-489z" />
    <glyph glyph-name="uni2116" unicode="&#x2116;" horiz-adv-x="1874" 
d="M306 1238l697 -1120v1120h102v-1238h-141l-695 1118v-1118h-103v1238h140zM1674 830q61 -57 61 -163v-243q0 -108 -61 -166t-172 -58q-112 0 -173 58t-61 166v243q0 106 61 163q63 58 173 58q109 0 172 -58zM1664 670q0 76 -44 120q-43 43 -118 43q-76 0 -119 -43
q-44 -44 -44 -120v-251q0 -76 44 -120t119 -44q74 0 118 44t44 120v251zM1716 0h-443v51h443v-51z" />
    <glyph glyph-name="trademark" unicode="&#x2122;" horiz-adv-x="912" 
d="M44 1238h334v-60h-136v-372h-63v372h-135v60zM635 936h-25l-136 224v-354h-64v432h76l137 -214l134 214h76v-432h-64v354z" />
    <glyph glyph-name="estimated" unicode="&#x212e;" horiz-adv-x="1482" 
d="M1080 1172q142 -78 217 -228t75 -359h-1057v-373q79 -86 198 -133q120 -47 267 -47q325 0 490 244l41 -27q-81 -133 -219 -202q-136 -68 -314 -68q-207 0 -357 78t-231 222q-80 142 -80 335t77 335q79 145 222 223q144 78 332 78q197 0 339 -78zM498 1151
q-106 -42 -183 -125v-379h852v379q-149 170 -428 170q-128 0 -241 -45z" />
    <glyph glyph-name="uni2135" unicode="&#x2135;" horiz-adv-x="1282" 
d="M1199 865l-557 -322l-559 322l559 327zM683 677q-8 22 -16 58q-7 31 -7 52q66 0 125 12q58 12 97 29q13 6 31 13.5t23 9.5l24 -18l36 14l1 11l-76 42q-12 8 -12 20q0 10 9 23l-60 26l-50 -32l37 -33q-46 -35 -87 -56q-40 -20 -95 -20q9 83 69 224q-20 11 -63 11
q-48 0 -62 -5q0 -16 4 -47t4 -56q-33 11 -67 11q-62 0 -102 -32q-28 -21 -66 -80l-3 -2l-30 15l-29 12l-53 -18l25 -28l23 2q12 0 25 -7l76 -45q12 3 28 8q15 5 21 10q4 7 16 36q20 56 52 77q22 16 46 16q18 0 33 -7q-1 -3 -25 -60q-7 -18 -39 -98q-14 -36 -14 -61
q0 -32 27 -32l117 -3zM624 511v-640l-557 324l-2 640zM1215 195l-555 -324v642l557 322zM785 41q6 21 25 33l76 48q14 44 14 51q-65 84 -65 133q0 34 33 60q55 -58 193 -175l59 99v11q-20 2 -57 13q-28 8 -51 22q48 81 67 158q18 75 18 111l24 14l9 35l-7 6l-74 -41
q-8 -4 -16 -4q-19 0 -25 22l-53 -39v-55l50 12q5 -52 5 -70q0 -67 -32 -126q-45 34 -94 92q-51 60 -62 81q-21 -12 -51 -42t-30 -48q0 -6 9 -12q65 -31 94 -48q-68 -56 -68 -156q0 -36 34 -93l-2 -11l-26 -16q-25 -13 -25 -18l-11 -60zM531 58l-2 13q-74 95 -113 162
q52 22 71 77t19 86l25 -16l10 27l-7 12l-76 43q-17 9 -28 29q-13 24 -16 40l-51 19v-55l49 -42q4 -56 4 -71q0 -76 -30 -88q-53 91 -93 184q-48 112 -49 113q-12 28 -14 32q-6 11 -7 17q-11 6 -27 6q-20 0 -36 -8t-8 -19q62 -91 97 -150q-11 5 -24 5q-25 0 -38 -21
q-14 -22 -8 -60q1 -19 12 -60q9 -34 23 -73l-2 -5l-28 14l-25 12l-12 -46l39 -32q0 4 3 7q4 4 11 4q6 0 14 -5l80 -48q12 29 12 37q-7 20 -12 32t-9 25q-35 91 -44 129l-4 23q0 21 16 21q9 0 19 -5q9 -19 81 -162l50.5 -101t43.5 -86l23 -46z" />
    <glyph glyph-name="uni2136" unicode="&#x2136;" horiz-adv-x="1768" 
d="M1728 868q-7 -37 -39 -37q-11 0 -25 6q-332 116 -755 116q-138 0 -249 -10q-2 -22 -2 -48q0 -48 14 -87q7 -17 -5 -33q-11 -15 -34 -23q-18 -6 -33 4q-14 9 -20 33q-12 57 -12 134q-33 -47 -90 -122q-27 -36 -50 -49q-25 -16 -42 -16q-16 0 -27 10q-16 10 -16 29
q0 9 12 35q8 17 39 49q7 7 73 71q-108 -12 -294 -40q-25 -3 -40 9q-16 13 -16 40q0 37 42 43q54 8 189 38q163 36 209 50q23 41 50 105q17 41 39 88q2 4 10 24.5t16 38.5q14 29 42 29q22 0 35 -19q11 -17 8 -40q-8 -47 -23 -80q-18 -41 -50 -102q76 29 141 61q53 26 66 35
q12 9 25 9q20 0 34 -20q9 -13 9 -23q0 -17 -20 -37q-8 -8 -58 -33q-46 -23 -147 -64q84 5 212 5q462 0 741 -119q50 -21 41 -60zM1306 785q36 -32 36 -74q0 -115 -147 -305q-143 -186 -338 -359q-191 -170 -286 -210q-38 -17 -74 -17q-65 0 -101 63q-19 32 -19 87
q0 90 59 211q57 118 155 220q74 78 157 128q86 51 145 51q45 0 67 -28q18 -20 18 -50q0 -60 -56 -137q-58 -80 -91 -109q-22 -19 -46 -19q-16 0 -35 14q-18 18 -18 36q0 24 27 51q79 79 109 136q-89 -32 -172 -112q-84 -81 -141 -180q-56 -98 -70 -182q-2 -10 -2 -23
q0 -20 8 -34t24 -14q13 0 30 9q111 59 251 183q141 125 260 266q120 142 163 244q14 33 14 53q0 25 -25 37q-23 11 -83 11q-143 0 -294 -69q-150 -69 -256 -159q-17 -16 -39 -16q-30 0 -43 25q-7 11 -7 26q0 16 7 29q8 14 20 23q97 75 266 157q171 83 353 83q48 0 83 -5
q54 -9 91 -41z" />
    <glyph glyph-name="uni2137" unicode="&#x2137;" horiz-adv-x="1329" 
d="M1190 396q0 -119 -65 -224q-67 -108 -185 -173q-120 -66 -275 -66t-275 66q-119 65 -184 173q-65 107 -65 224q0 320 352 515q-233 68 -341 88l34 133q145 -30 238 -59q111 -34 241 -86q148 56 241 85q103 32 238 60l36 -133q-120 -21 -342 -88q352 -196 352 -515z
M865 111q88 46 140 123q51 76 51 167q0 144 -99 258t-292 192q-193 -78 -291 -192q-98 -115 -98 -258q0 -92 50 -167q52 -77 140 -123q89 -46 199 -46q111 0 200 46zM594 570q-30 32 -30 72q0 39 30 69t71 30t71 -30t30 -69q0 -40 -30 -72q-30 -31 -71 -31t-71 31zM421 557
q71 -33 133 -53q57 -18 113 -18q55 0 113 18q65 20 131 53l53 -115q-96 -49 -175 -67l101 -129l-110 -80l-115 154l-115 -154l-108 80l99 129q-75 20 -173 67z" />
    <glyph glyph-name="uni2150" unicode="&#x2150;" horiz-adv-x="1177" 
d="M248 587h92v-58h-267v58h106v499h-99v51q31 0 54 5q20 4 32 16q24 24 25 80h57v-651zM134 0h-74l823 1238h72zM888 -2h-76l240 655h-343v56h433z" />
    <glyph glyph-name="uni2151" unicode="&#x2151;" horiz-adv-x="1176" 
d="M237 587h92v-58h-267v58h106v499h-99v51q31 0 54 5q22 5 33 16q22 22 24 80h57v-651zM136 0h-74l822 1238h73zM1051 653q65 -65 65 -174q0 -106 -71 -189l-256 -290h-82l223 256q-28 -8 -69 -8q-99 0 -161 63q-62 64 -62 168q0 109 66 174q67 65 173 65q109 0 174 -65z
M998 348q47 52 47 130q0 80 -47 132q-46 51 -121 51q-73 0 -120 -51q-46 -50 -46 -132q0 -80 46 -130q46 -51 120 -51q75 0 121 51z" />
    <glyph glyph-name="uni2152" unicode="&#x2152;" horiz-adv-x="1575" 
d="M249 587h92v-58h-267v58h106v499h-99v51q31 0 54 5q22 5 33 16q24 24 25 80h56v-651zM134 0h-74l823 1238h72zM861 58h92v-58h-267v58h106v499h-99v51q31 0 54 5q20 4 33 17q24 24 25 79h56v-651zM1436 654q64 -61 64 -173v-255q0 -112 -64 -174q-62 -61 -182 -61
q-117 0 -181 61q-65 62 -65 174v255q0 110 65 172q64 61 181 61q119 0 182 -60zM1084 223q0 -81 46 -127t124 -46q79 0 125 46t46 127v262q0 81 -46 126q-47 45 -125 45t-124 -45t-46 -126v-262z" />
    <glyph glyph-name="uni2153" unicode="&#x2153;" horiz-adv-x="1161" 
d="M233 587h92v-58h-267v58h106v499h-99v51q31 0 54 5q22 5 33 16q24 24 25 80h56v-651zM136 0h-74l822 1238h73zM1067 310q40 -47 40 -128q0 -89 -59 -140q-58 -51 -169 -51q-110 0 -172 59q-61 58 -54 168h67q-6 -84 38 -128t125 -44q77 0 117 37t40 103q0 75 -43 115
q-42 39 -139 39h-41v51h37q165 0 165 138q0 62 -37 96q-38 35 -110 35t-114 -45q-41 -44 -35 -120h-67q-7 104 52 163q58 58 164 58q104 0 159 -48t55 -134q0 -137 -129 -164q68 -10 110 -60z" />
    <glyph glyph-name="uni2154" unicode="&#x2154;" horiz-adv-x="1418" 
d="M193 585h316v-58h-435l255 322q92 116 92 209q0 129 -142 129q-159 0 -150 -195h-67l-2 32q0 106 58 163q57 56 163 56q101 0 156 -48t55 -137q0 -115 -92 -227zM347 0h-75l823 1238h72zM1322 310q40 -47 40 -128q0 -89 -59 -140t-169 -51t-172 59t-55 168h67
q-6 -83 39 -128q44 -44 124 -44q78 0 118 37t40 103q0 75 -43 115q-42 39 -140 39h-40v51h37q164 0 164 138q0 62 -37 96q-38 35 -109 35q-72 0 -114 -45q-41 -44 -35 -120h-67q-7 104 52 163q58 58 164 58q103 0 159 -48q55 -48 55 -134q0 -137 -130 -164q69 -10 111 -60z
" />
    <glyph glyph-name="uni2155" unicode="&#x2155;" horiz-adv-x="1243" 
d="M232 587h92v-58h-267v58h106v499h-99v51q31 0 54 5q20 4 32 16q24 24 25 80h57v-651zM138 0h-74l822 1238h73zM1123 436q55 -64 55 -190q0 -127 -59 -191t-169 -64q-109 0 -165 52t-56 146h67q0 -66 40 -103q41 -38 115 -38q78 0 118 49t40 147t-41 150t-117 52
q-49 0 -92 -23q-41 -22 -63 -66h-67v350h422v-56h-359v-221q33 35 75 52q46 19 97 19q103 0 159 -65z" />
    <glyph glyph-name="uni2156" unicode="&#x2156;" horiz-adv-x="1444" 
d="M193 585h316v-58h-435l255 322q92 116 92 209q0 129 -142 129q-159 0 -150 -195h-67l-2 32q0 106 58 163q57 56 163 56q101 0 156 -48t55 -137q0 -115 -92 -227zM332 0h-74l823 1238h72zM1323 436q55 -64 55 -190q0 -127 -59 -191t-169 -64q-109 0 -165 52
q-57 53 -57 146h68q0 -67 39 -103q41 -38 116 -38q78 0 118 49t40 147t-41 150t-117 52q-50 0 -93 -23q-40 -21 -62 -66h-68v350h423v-56h-359v-221q33 35 75 52q46 19 97 19q103 0 159 -65z" />
    <glyph glyph-name="uni2157" unicode="&#x2157;" horiz-adv-x="1467" 
d="M482 837q40 -47 40 -128q0 -88 -60 -140q-58 -51 -168 -51t-172 59t-55 168h67q-6 -84 38 -128t125 -44q78 0 118 37t40 103q0 75 -43 115q-42 39 -140 39h-40v51h37q164 0 164 138q0 62 -37 96q-38 35 -109 35q-73 0 -115 -45q-40 -43 -34 -120h-67q-7 104 52 163
q58 58 164 58q103 0 159 -48q55 -48 55 -134q0 -137 -130 -164q69 -10 111 -60zM343 0h-74l822 1238h73zM1346 436q55 -64 55 -190q0 -127 -59 -191t-169 -64q-109 0 -165 52q-57 53 -57 146h68q0 -67 39 -103q41 -38 116 -38q78 0 118 49t40 147t-41 150t-117 52
q-50 0 -93 -23q-40 -21 -62 -66h-68v350h423v-56h-359v-221q33 35 75 52q46 19 97 19q103 0 159 -65z" />
    <glyph glyph-name="uni2158" unicode="&#x2158;" horiz-adv-x="1466" 
d="M463 730h82v-54h-82v-147h-67v147h-366v26l260 536h73l-245 -508h278v200h67v-200zM343 0h-74l822 1238h73zM1344 436q55 -64 55 -190q0 -129 -58 -191q-59 -64 -170 -64q-109 0 -165 52t-56 146h67q0 -66 40 -103q41 -38 116 -38q77 0 117 49t40 147t-41 150t-116 52
q-50 0 -93 -23q-41 -22 -63 -66h-67v350h422v-56h-359v-221q32 34 76 52q46 19 96 19q103 0 159 -65z" />
    <glyph glyph-name="uni2159" unicode="&#x2159;" horiz-adv-x="1080" 
d="M239 587h92v-58h-267v58h106v499h-99v51q31 0 54 5q20 4 32 16q24 24 25 80h57v-651zM136 0h-74l822 1238h73zM967 396q62 -64 62 -168q0 -108 -64 -173q-65 -66 -173 -66q-109 0 -175 66q-65 65 -65 173q0 106 71 189l256 290h83l-225 -256q36 9 69 9q99 0 161 -64z
M911 97q46 50 46 133q0 80 -46 130t-120 50q-75 0 -122 -51q-46 -50 -46 -129q0 -83 46 -133q47 -51 122 -51q73 0 120 51z" />
    <glyph glyph-name="uni215A" unicode="&#x215a;" horiz-adv-x="1361" 
d="M483 967q55 -64 55 -191t-59 -191q-59 -63 -170 -63q-108 0 -164 52q-57 52 -57 146h68q0 -68 39 -104q41 -38 116 -38q77 0 118 50q40 49 40 147t-41 150q-40 51 -117 51q-50 0 -93 -23q-40 -22 -62 -65h-68v350h423v-57h-359v-221q35 36 75 53q43 18 97 18
q104 0 159 -64zM368 0h-74l822 1238h72zM1247 396q62 -64 62 -168q0 -106 -65 -173q-64 -66 -172 -66q-109 0 -175 66t-66 173q0 106 71 189l256 290h84l-225 -256q36 9 69 9q99 0 161 -64zM1190 97q46 50 46 133q0 80 -46 130t-120 50t-121 -51q-47 -52 -47 -129
q0 -81 47 -133q47 -51 121 -51t120 51z" />
    <glyph glyph-name="oneeighth" unicode="&#x215b;" horiz-adv-x="1169" 
d="M239 587h92v-58h-267v58h106v499h-99v51q31 0 54 5q20 4 32 16q24 24 25 80h57v-651zM134 0h-74l823 1238h72zM1078 319q36 -51 36 -126q0 -99 -64 -153t-185 -54q-119 0 -183 54q-65 54 -65 153q0 75 36 126q35 50 107 70q-51 18 -78 57q-28 40 -28 90q0 83 56 130
t157 47q99 0 155 -47q55 -46 55 -130q0 -52 -27 -89q-28 -38 -79 -58q72 -20 107 -70zM758 444q38 -30 109 -30q68 0 106 31q39 31 39 86q0 64 -38 100t-107 36q-71 0 -109 -36t-38 -100q0 -57 38 -87zM996 79q46 42 46 117q0 79 -47 123t-130 44q-82 0 -129 -44
q-46 -43 -46 -123q0 -75 46 -117t129 -42q85 0 131 42z" />
    <glyph glyph-name="threeeighths" unicode="&#x215c;" horiz-adv-x="1400" 
d="M482 837q40 -47 40 -128q0 -88 -60 -140q-58 -51 -168 -51t-172 59t-55 168h67q-6 -84 38 -128t125 -44q78 0 118 37t40 103q0 75 -43 115q-42 39 -140 39h-40v51h37q164 0 164 138q0 62 -37 96q-38 35 -109 35q-73 0 -115 -45q-40 -43 -34 -120h-67q-7 104 52 163
q58 58 164 58q103 0 159 -48q55 -48 55 -134q0 -137 -130 -164q69 -10 111 -60zM340 0h-75l823 1238h72zM1310 319q36 -51 36 -126q0 -99 -65 -153t-184 -54t-184 54q-64 54 -64 153q0 75 36 126q35 50 107 70q-52 18 -79 57t-27 90q0 83 56 130t156 47t156 -47
q55 -46 55 -130q0 -50 -28 -89t-78 -58q72 -20 107 -70zM990 444q38 -30 108 -30q68 0 106 31q39 31 39 86q0 64 -38 100q-37 36 -107 36t-108 -36q-39 -37 -39 -100q0 -56 39 -87zM1227 79q46 42 46 117q0 79 -47 123t-129 44q-83 0 -130 -44q-46 -43 -46 -123
q0 -75 46 -117q47 -42 130 -42t130 42z" />
    <glyph glyph-name="fiveeighths" unicode="&#x215d;" horiz-adv-x="1459" 
d="M483 967q55 -64 55 -191t-59 -191q-59 -63 -170 -63q-108 0 -164 52q-57 52 -57 146h68q0 -68 39 -104q41 -38 116 -38q77 0 118 50q40 49 40 147t-41 150q-40 51 -117 51q-50 0 -93 -23q-40 -22 -62 -65h-68v350h423v-57h-359v-221q35 36 75 53q43 18 97 18
q104 0 159 -64zM368 0h-74l822 1238h72zM1368 319q36 -51 36 -126q0 -99 -64 -153t-185 -54q-119 0 -183 54q-65 54 -65 153q0 74 37 126q35 50 107 70q-52 18 -79 57q-28 40 -28 90q0 83 56 130t157 47q99 0 155 -47q55 -46 55 -130q0 -52 -27 -89q-28 -38 -79 -58
q72 -20 107 -70zM1048 444q38 -30 109 -30q68 0 106 31q39 31 39 86q0 64 -38 100t-107 36q-71 0 -109 -36t-38 -100q0 -57 38 -87zM1286 79q46 42 46 117q0 79 -47 123t-130 44q-82 0 -129 -44q-46 -43 -46 -123q0 -75 46 -117t129 -42q85 0 131 42z" />
    <glyph glyph-name="seveneighths" unicode="&#x215e;" horiz-adv-x="1331" 
d="M218 527h-77l241 654h-343v57h433zM207 0h-74l822 1238h73zM1241 319q36 -51 36 -126q0 -99 -65 -153q-64 -54 -184 -54q-119 0 -184 54q-64 54 -64 153q0 75 36 126q35 50 107 70q-52 18 -79 57t-27 90q0 83 56 130t156 47t156 -47q55 -46 55 -130q0 -50 -28 -89
t-78 -58q72 -20 107 -70zM921 444q37 -30 108 -30q68 0 106 31q39 31 39 86q0 64 -38 100t-107 36q-71 0 -108 -36q-38 -36 -38 -100q0 -57 38 -87zM1158 79q46 42 46 117q0 80 -46 123q-47 44 -130 44t-130 -44q-46 -43 -46 -123q0 -75 46 -117t130 -42t130 42z" />
    <glyph glyph-name="uni215F" unicode="&#x215f;" horiz-adv-x="654" 
d="M233 587h92v-58h-267v58h106v499h-99v51q31 0 54 5q22 5 33 16q24 24 25 80h56v-651zM136 0h-74l822 1238h73z" />
    <glyph glyph-name="uni2189" unicode="&#x2189;" horiz-adv-x="1483" 
d="M504 1187q64 -61 64 -174v-254q0 -112 -64 -174t-182 -62q-116 0 -181 62t-65 174v254q0 111 65 173q64 61 181 61q119 0 182 -60zM152 755q0 -81 46 -127t124 -46q79 0 125 46t46 127v262q0 81 -46 126q-47 45 -125 45t-124 -45t-46 -126v-262zM391 0h-74l822 1238h72z
M1387 310q40 -47 40 -128q0 -89 -59 -140t-169 -51q-109 0 -171 59t-55 168h67q-6 -84 38 -128t125 -44q77 0 117 37t40 103q0 76 -42 115t-140 39h-41v51h37q165 0 165 138q0 62 -37 96q-38 35 -110 35t-114 -45q-41 -44 -35 -120h-67q-7 104 52 163q58 58 164 58
q104 0 159 -48t55 -134q0 -137 -129 -164q68 -10 110 -60z" />
    <glyph glyph-name="arrowleft" unicode="&#x2190;" horiz-adv-x="1535" 
d="M246 575h1202v-78h-1202l281 -276l-57 -58l-376 373l375 375l58 -59z" />
    <glyph glyph-name="arrowup" unicode="&#x2191;" horiz-adv-x="917" 
d="M460 1183l373 -377l-58 -56l-276 281v-1203h-78v1203l-278 -281l-56 58z" />
    <glyph glyph-name="arrowright" unicode="&#x2192;" horiz-adv-x="1535" 
d="M1010 852l56 59l375 -375l-376 -373l-57 58l281 276h-1202v78h1202z" />
    <glyph glyph-name="arrowdown" unicode="&#x2193;" horiz-adv-x="917" 
d="M497 117l278 279l58 -56l-375 -375l-371 375l56 58l276 -281v1201h78v-1201z" />
    <glyph glyph-name="arrowboth" unicode="&#x2194;" horiz-adv-x="1844" 
d="M1265 852l56 59l375 -375l-375 -373l-58 58l281 276h-1243l281 -276l-59 -58l-374 373l373 375l58 -59l-279 -277h1243z" />
    <glyph glyph-name="arrowupdn" unicode="&#x2195;" horiz-adv-x="917" 
d="M499 1066v-1064l276 279l58 -58l-375 -375l-371 377l56 56l274 -279v1063l-274 -280l-56 59l371 376l375 -375l-58 -58z" />
    <glyph glyph-name="uni2196" unicode="&#x2196;" horiz-adv-x="1294" 
d="M329 946l851 -849l-57 -56l-849 849l4 -393h-82l-1 529h528v-82z" />
    <glyph glyph-name="uni2197" unicode="&#x2197;" horiz-adv-x="1294" 
d="M571 891v82h529l-2 -529h-81l3 393l-848 -849l-57 56l849 849z" />
    <glyph glyph-name="uni2198" unicode="&#x2198;" horiz-adv-x="1294" 
d="M1100 0h-529v81l393 -1l-849 848l57 57l848 -849l-3 393h81z" />
    <glyph glyph-name="uni2199" unicode="&#x2199;" horiz-adv-x="1294" 
d="M1123 985l57 -57l-851 -848l394 1v-81h-528l1 529h82l-4 -393z" />
    <glyph glyph-name="uni21AF" unicode="&#x21af;" horiz-adv-x="776" 
d="M416 99l251 175l37 -55l-356 -246l-228 331l57 39l168 -240l159 629l-363 -76l161 670h76l-145 -585l363 71z" />
    <glyph glyph-name="arrowdbldown" unicode="&#x21d3;" horiz-adv-x="1220" 
d="M465 1326h69v-1124h-41l-321 452l58 39l235 -352v985zM686 202v1124h69v-985l235 352l59 -39l-324 -452h-39zM23 0v69h1174v-69h-1174z" />
    <glyph glyph-name="uni21DE" unicode="&#x21de;" horiz-adv-x="917" 
d="M833 937l-58 -56l-276 279v-539h171v-60h-171v-156h171v-62h-171v-384h-78v384h-175v62h175v156h-175v60h175v539l-278 -279l-56 58l373 373z" />
    <glyph glyph-name="uni21DF" unicode="&#x21df;" horiz-adv-x="917" 
d="M499 78l276 279l58 -56l-373 -375l-373 373l56 58l278 -279v539h-175v60h175v156h-175v62h175v384h78v-384h171v-62h-171v-156h171v-60h-171v-539z" />
    <glyph glyph-name="uni21E7" unicode="&#x21e7;" horiz-adv-x="1451" 
d="M727 1265l656 -674v-6h-331v-585h-651v585h-332v4zM983 62v580h262l-518 518l-518 -518h261v-580h513z" />
    <glyph glyph-name="uni21E9" unicode="&#x21e9;" horiz-adv-x="1451" 
d="M1383 653v-6l-656 -674l-658 676v4h332v585h651v-585h331zM1245 596h-262v580h-513v-580h-261l518 -518z" />
    <glyph glyph-name="uni21EA" unicode="&#x21ea;" horiz-adv-x="1451" 
d="M727 1265l656 -674v-6h-331v-258h-651v258h-332v4zM985 389v253h260l-518 518l-518 -518h260v-253h516zM401 239h651v-239h-651v239zM985 55v131h-516v-131h516z" />
    <glyph glyph-name="uni21F1" unicode="&#x21f1;" horiz-adv-x="1368" 
d="M134 1326h895v-40h-852v-892h-43v932zM513 996l711 -711l-50 -52l-712 713v-325h-68v440h416v-65h-297z" />
    <glyph glyph-name="partialdiff" unicode="&#x2202;" horiz-adv-x="986" 
d="M766 725q64 -80 98 -159q33 -76 33 -172q0 -187 -109 -296t-296 -109q-188 0 -297 109q-110 110 -110 296q0 114 49 206q47 89 135 137q87 48 198 48q79 0 156 -33l-391 486h125zM707 159q82 90 82 235q0 143 -83 232q-82 88 -214 88q-135 0 -216 -87t-81 -233t81 -235
q81 -88 216 -88q134 0 215 88z" />
    <glyph glyph-name="emptyset" unicode="&#x2205;" horiz-adv-x="1427" 
d="M1104 1111q110 -88 174 -217q63 -128 63 -279q0 -169 -84 -316q-82 -143 -227 -226q-147 -84 -317 -84q-186 0 -338 98l-62 -87h-78l87 122q-110 89 -173 217q-62 125 -62 276q0 173 83 318t226 227q145 83 317 83q188 0 339 -97l66 92h78zM210 371q56 -114 153 -192
l650 912q-134 85 -300 85q-156 0 -282 -74q-128 -75 -203 -203q-74 -126 -74 -284q0 -129 56 -244zM996 131q126 74 201 202q75 127 75 282q0 134 -55 248q-55 115 -152 191l-651 -913q136 -84 299 -84q157 0 283 74z" />
    <glyph glyph-name="uni2206" unicode="&#x2206;" horiz-adv-x="1096" 
d="M499 1238h99l488 -1238h-1075zM548 1125l-407 -1045h816z" />
    <glyph glyph-name="product" unicode="&#x220f;" horiz-adv-x="1291" 
d="M166 -354v1680h959v-1680h-105v1601h-749v-1601h-105z" />
    <glyph glyph-name="summation" unicode="&#x2211;" horiz-adv-x="1011" 
d="M60 1326h858v-79h-695l490 -761l-490 -760h695v-80h-858l541 840z" />
    <glyph glyph-name="minus" unicode="&#x2212;" horiz-adv-x="679" 
d="M87 497v78h505v-78h-505z" />
    <glyph glyph-name="radical" unicode="&#x221a;" horiz-adv-x="1008" 
d="M483 -354h-112l-311 846l97 39l266 -733l444 1528h100z" />
    <glyph glyph-name="infinity" unicode="&#x221e;" horiz-adv-x="1283" 
d="M1141 751q69 -76 69 -215q0 -138 -69 -215t-181 -77q-86 0 -168 59q-79 57 -148 164q-70 -107 -151 -164q-83 -59 -168 -59q-111 0 -182 77q-70 76 -70 215t70 215q71 77 182 77q83 0 168 -60q82 -58 151 -163q67 105 148 163q83 60 168 60q112 0 181 -77zM472 380
q64 55 131 156q-67 101 -131 156q-65 56 -138 56q-84 0 -134 -56q-51 -57 -51 -156t51 -156q50 -56 134 -56q73 0 138 56zM1084 380q51 57 51 156t-51 156q-50 56 -133 56q-133 0 -265 -212q132 -212 265 -212q83 0 133 56z" />
    <glyph glyph-name="integral" unicode="&#x222b;" horiz-adv-x="668" 
d="M722 1318l-11 -71q-79 14 -131 14q-84 0 -117 -50q-32 -49 -40 -171l-71 -1104q-9 -156 -62 -226q-53 -69 -173 -69q-84 0 -170 18l11 70q82 -14 130 -14q84 0 117 50q34 50 41 171l71 1104q9 158 61 226q52 69 176 69q67 0 168 -17z" />
    <glyph glyph-name="approxequal" unicode="&#x2248;" horiz-adv-x="855" 
d="M757 653q-82 -59 -180 -59q-46 0 -83 13q-38 13 -77 37q-34 19 -68 34q-27 12 -68 12q-96 0 -180 -64v81q80 59 180 59q46 0 82 -13q38 -14 76 -37q33 -18 67 -32q30 -12 71 -12q98 0 180 62v-81zM757 375q-80 -58 -180 -58q-49 0 -83 12q-38 13 -77 37q-43 24 -68 35
t-68 11q-96 0 -180 -64v82q79 58 180 58q49 0 82 -12q38 -14 76 -37q39 -22 67 -33q30 -12 71 -12q98 0 180 62v-81z" />
    <glyph glyph-name="notequal" unicode="&#x2260;" horiz-adv-x="969" 
d="M867 760v-77h-271l-152 -294h423v-78h-464l-141 -272h-89l142 272h-207v78h247l153 294h-400v77h438l137 262h88l-136 -262h232z" />
    <glyph glyph-name="lessequal" unicode="&#x2264;" horiz-adv-x="778" 
d="M670 382l-578 294v77l578 296v-83l-491 -251l491 -248v-85zM110 246h582v-78h-582v78z" />
    <glyph glyph-name="greaterequal" unicode="&#x2265;" horiz-adv-x="778" 
d="M686 753v-77l-578 -294v85l492 248l-492 251v83zM87 168v78h582v-78h-582z" />
    <glyph glyph-name="uni2318" unicode="&#x2318;" horiz-adv-x="1443" 
d="M1120 462q66 0 122 -32t88 -88t32 -121q0 -64 -32 -120q-31 -55 -88 -87q-56 -32 -122 -32q-67 0 -123 32t-89 87t-33 120v182h-307v-182q0 -64 -32 -120q-31 -55 -88 -87q-56 -32 -123 -32q-66 0 -122 32t-89 87t-33 120t33 121q34 57 89 88q56 32 122 32h181v314h-181
q-66 0 -122 32t-89 87t-33 120q0 67 33 122t89 87t122 32q103 0 173 -69t70 -172v-180h307v180q0 67 33 122t89 87t123 32q102 0 172 -69t70 -172q0 -64 -32 -120q-31 -55 -88 -87q-56 -32 -122 -32h-183v-314h183zM506 835v180q0 77 -52 129q-53 53 -129 53q-77 0 -129 -52
q-53 -53 -53 -130q0 -75 53 -128q52 -52 129 -52h181zM937 835h183q76 0 128 52t52 128q0 77 -52 129q-53 53 -128 53q-77 0 -130 -53t-53 -129v-180zM875 776h-307v-314h307v314zM506 403h-181q-77 0 -129 -52q-53 -53 -53 -130q0 -75 53 -128q52 -52 129 -52t129 52
t52 128v182zM937 403v-182q0 -75 53 -128q52 -52 130 -52q76 0 128 52t52 128q0 77 -52 129q-53 53 -128 53h-183z" />
    <glyph glyph-name="uni2325" unicode="&#x2325;" horiz-adv-x="1439" 
d="M1001 80h304v-80h-350l-538 1158h-304v80h350zM1305 1158h-463v80h463v-80z" />
    <glyph glyph-name="uni2326" unicode="&#x2326;" horiz-adv-x="1872" 
d="M172 1238h1163l497 -619l-497 -619h-1163v1238zM239 62h1059l446 557l-446 557h-1059v-1114zM1139 951l49 -49l-281 -281l283 -285l-49 -49l-283 284l-285 -284l-50 49l285 285l-283 281l50 49l283 -281z" />
    <glyph glyph-name="uni232B" unicode="&#x232b;" horiz-adv-x="1872" 
d="M42 619l497 619h1162v-1238h-1162zM575 62h1059v1114h-1059l-446 -557zM1017 571l-285 -284l-49 49l284 285l-283 281l50 49l283 -281l281 281l50 -49l-282 -281l283 -285l-49 -49z" />
    <glyph glyph-name="uni2380" unicode="&#x2380;" horiz-adv-x="1001" 
d="M677 1003v7q0 105 -38 151q-37 45 -128 45q-99 0 -269 -53l-12 53q165 57 290 57q124 0 180 -57q55 -56 55 -194v-489h-78v142q-32 -72 -98 -110q-65 -37 -153 -37q-107 0 -170 58q-61 57 -61 154q0 261 482 273zM611 638q66 57 66 179v133q-405 -14 -405 -213
q0 -72 46 -115q47 -44 133 -44q92 1 160 60zM499 87l336 412l53 -48l-386 -458h-5l-384 460l53 46z" />
    <glyph glyph-name="uni2387" unicode="&#x2387;" horiz-adv-x="1439" 
d="M1305 1238v-80h-304l-538 -1158h-350v80h304l538 1158h350zM842 0v80h463v-80h-463z" />
    <glyph glyph-name="uni23CE" unicode="&#x23ce;" horiz-adv-x="1443" 
d="M1192 1061h71v-476q0 -113 -48 -160q-49 -47 -163 -47h-843l307 -300l-51 -51l-389 389l389 387l51 -50l-311 -304h835q80 0 117 35q35 34 35 114v463z" />
    <glyph glyph-name="uni2400" unicode="&#x2400;" horiz-adv-x="1375" 
d="M1266 1074l-223 -223q61 -68 91 -148q31 -81 31 -172q0 -130 -64 -239q-65 -110 -174 -174q-110 -65 -239 -65q-88 0 -172 32q-82 31 -148 90l-223 -223l-35 36l222 222q-59 66 -90 148q-32 84 -32 173q0 128 65 238q65 111 174 175t239 64q88 0 172 -32q82 -31 148 -90
l223 223zM295 380q29 -72 78 -129l594 594q-59 53 -128 80q-71 28 -151 28q-112 0 -210 -57q-96 -56 -154 -155q-57 -97 -57 -210q0 -80 28 -151zM1081 681q-29 72 -78 129l-594 -594q59 -53 128 -80q71 -28 151 -28q112 0 210 57q96 56 154 155q57 98 57 211q0 79 -28 150z
" />
    <glyph glyph-name="uni24D8" unicode="&#x24d8;" horiz-adv-x="1427" 
d="M397 73q-144 83 -227 227q-83 145 -83 315q0 173 83 318t226 227q145 83 317 83t317 -83q144 -83 227 -227q84 -147 84 -318q0 -169 -84 -316q-82 -143 -227 -226q-147 -84 -317 -84q-169 0 -316 84zM996 131q126 74 201 202q75 127 75 282q0 157 -75 284
q-76 130 -201 203q-126 74 -283 74q-156 0 -282 -74q-128 -75 -203 -203q-74 -126 -74 -284q0 -156 74 -282t203 -202q126 -74 282 -74q157 0 283 74zM666 886q-19 19 -19 44q0 24 19 43q17 17 47 17q29 0 47 -17q20 -18 20 -43q0 -26 -20 -44t-47 -18q-29 0 -47 18z
M753 258h-81v506h81v-506z" />
    <glyph glyph-name="uni24FF" unicode="&#x24ff;" horiz-adv-x="1429" 
d="M399 73q-144 83 -227 227q-84 147 -84 315q0 170 84 317q82 144 226 226q147 84 317 84q169 0 316 -84q144 -82 226 -226q84 -147 84 -317q0 -169 -84 -316q-82 -144 -226 -226q-147 -84 -316 -84t-316 84zM911 289q69 67 69 206v241q0 138 -69 206q-70 68 -197 68
q-126 0 -196 -68q-69 -68 -69 -206v-241q0 -139 69 -206q70 -68 196 -68q127 0 197 68zM567 325q-52 55 -52 167v249q0 113 52 165q53 53 147 53t146 -54q53 -55 53 -164v-249q0 -111 -53 -167q-51 -54 -146 -54q-96 0 -147 54z" />
    <glyph glyph-name="filledbox" unicode="&#x25a0;" horiz-adv-x="1273" 
d="M106 0v1061h1061v-1061h-1061z" />
    <glyph glyph-name="uni25A1" unicode="&#x25a1;" horiz-adv-x="1283" 
d="M106 0v1072h1072v-1072h-1072zM1112 1008h-940v-944h940v944z" />
    <glyph glyph-name="uni25A4" unicode="&#x25a4;" horiz-adv-x="1579" 
d="M170 0v1238h1238v-1238h-1238zM209 1201v-135h1162v135h-1162zM209 895h1162v136h-1162v-136zM209 723h1162v138h-1162v-138zM209 552h1162v136h-1162v-136zM209 378h1162v138h-1162v-138zM209 207h1162v136h-1162v-136zM209 37h1162v135h-1162v-135z" />
    <glyph glyph-name="triagup" unicode="&#x25b2;" horiz-adv-x="1358" 
d="M1341 0h-1323l661 1173z" />
    <glyph glyph-name="uni25B3" unicode="&#x25b3;" horiz-adv-x="1358" 
d="M1341 0h-1323l661 1173zM679 1036l-546 -971h1094z" />
    <glyph glyph-name="triagdn" unicode="&#x25bc;" horiz-adv-x="1358" 
d="M679 -111l-661 1172h1323z" />
    <glyph glyph-name="uni25BD" unicode="&#x25bd;" horiz-adv-x="1358" 
d="M679 -111l-661 1172h1323zM1227 996h-1094l546 -971z" />
    <glyph glyph-name="uni25C6" unicode="&#x25c6;" horiz-adv-x="1061" 
d="M989 619l-458 -458l-458 458l458 458z" />
    <glyph glyph-name="uni25C7" unicode="&#x25c7;" horiz-adv-x="1061" 
d="M989 619l-458 -458l-458 458l458 458zM161 619l370 -370l369 370l-369 370z" />
    <glyph glyph-name="lozenge" unicode="&#x25ca;" horiz-adv-x="937" 
d="M35 559l434 665l431 -665l-431 -663zM117 559l352 -547l352 547l-352 548z" />
    <glyph glyph-name="circle" unicode="&#x25cb;" horiz-adv-x="1427" 
d="M397 73q-144 83 -227 227q-83 145 -83 315q0 173 83 318t226 227q145 83 317 83t317 -83q144 -83 227 -227q84 -147 84 -318q0 -169 -84 -316q-82 -143 -227 -226q-147 -84 -317 -84q-169 0 -316 84zM996 131q126 74 201 202q75 127 75 282q0 157 -75 284
q-76 130 -201 203q-126 74 -283 74q-156 0 -282 -74q-128 -75 -203 -203q-74 -126 -74 -284q0 -156 74 -282t203 -202q126 -74 282 -74q157 0 283 74z" />
    <glyph glyph-name="uni25CC" unicode="&#x25cc;" horiz-adv-x="1425" 
d="M673 1145q-17 17 -17 40q0 24 17 41t40 17t40 -17q16 -16 16 -41q0 -24 -16 -40q-17 -17 -40 -17t-40 17zM268 1060q17 17 42 17q24 0 40 -16t16 -41q0 -24 -17 -41t-39 -17q-23 0 -41 18t-18 40q0 23 17 40zM1076 1061q16 16 40 16q25 0 42 -17q16 -16 16 -40
q0 -23 -16 -40q-16 -18 -42 -18q-23 0 -40 17t-17 41t17 41zM103 574q-16 16 -16 41q0 26 16 42q17 17 42 17q23 0 40 -17t17 -42t-16 -41q-17 -17 -41 -17q-25 0 -42 17zM1241 574q-17 17 -17 41q0 22 17 41q17 18 39 18q25 0 42 -17t17 -42q0 -24 -17 -41t-42 -17
q-22 0 -39 17zM268 256q16 16 40 16t40 -16t16 -42q0 -24 -16 -40q-17 -17 -40 -17t-40 17t-17 40q0 25 17 42zM1078 254q17 17 40 17t40 -17q16 -16 16 -42q0 -24 -16 -40t-40 -16t-40 16q-17 17 -17 40q0 25 17 42zM672 6q-16 16 -16 42q0 23 17 40q16 16 40 16t40 -16
t16 -40q0 -26 -16 -42q-17 -17 -40 -17q-24 0 -41 17z" />
    <glyph glyph-name="uni25CF" unicode="&#x25cf;" horiz-adv-x="1427" 
d="M397 73q-144 83 -227 227q-83 145 -83 315q0 173 83 318t226 227q145 83 317 83t317 -83q144 -83 227 -227q84 -147 84 -318q0 -169 -84 -316q-82 -143 -227 -226q-147 -84 -317 -84q-169 0 -316 84z" />
    <glyph glyph-name="uni2605" unicode="&#x2605;" horiz-adv-x="1457" 
d="M727 191l-460 -285l126 527l-411 350l538 41l209 502l207 -502l539 -41l-414 -350l131 -527z" />
    <glyph glyph-name="uni2606" unicode="&#x2606;" horiz-adv-x="1457" 
d="M729 228l-462 -322l163 540l-448 337l561 11l186 532l185 -532l561 -11l-449 -337l166 -540zM499 469l-135 -427l366 260l363 -260l-134 427l357 263l-446 5l-140 423l-141 -423l-446 -5z" />
    <glyph glyph-name="uni2610" unicode="&#x2610;" horiz-adv-x="1283" 
d="M106 0v1072h1072v-1072h-1072zM1112 1008h-940v-944h940v944z" />
    <glyph glyph-name="uni2611" unicode="&#x2611;" horiz-adv-x="1283" 
d="M106 0v1072h1072v-1072h-1072zM1112 1008h-940v-944h940v944zM608 207h-67l-239 364l55 37l212 -325l310 582h69z" />
    <glyph glyph-name="uni2612" unicode="&#x2612;" horiz-adv-x="1283" 
d="M106 0v1072h1072v-1072h-1072zM172 64h940v944h-940v-944zM642 485l-246 -246l-46 46l246 246l-246 245l46 45l246 -246l246 246l46 -45l-246 -245l246 -246l-46 -46z" />
    <glyph glyph-name="uni262E" unicode="&#x262e;" horiz-adv-x="1427" 
d="M1030 1160q144 -83 227 -227q84 -147 84 -318q0 -169 -84 -316q-82 -143 -227 -226q-147 -84 -317 -84q-169 0 -316 84q-144 83 -227 227q-83 145 -83 315q0 173 83 318t226 227q145 83 317 83t317 -83zM681 1176q-148 -9 -267 -85q-121 -77 -190 -201q-70 -125 -70 -275
q0 -175 99 -320l428 331v550zM1204 889q-66 122 -188 200q-119 76 -266 85v-546l424 -331q98 142 98 318q0 149 -68 274zM750 58q114 7 215 57q97 48 170 133l-385 300v-490zM292 246q73 -84 173 -133q98 -48 216 -56v489z" />
    <glyph glyph-name="uni262F" unicode="&#x262f;" horiz-adv-x="1427" 
d="M1030 1160q144 -83 227 -227q84 -147 84 -318q0 -169 -84 -316q-82 -143 -227 -226q-147 -84 -317 -84q-169 0 -316 84q-144 83 -227 227q-83 145 -83 315q0 173 83 318t226 227q145 83 317 83t317 -83zM436 1104q-127 -73 -203 -196q-76 -124 -79 -275q9 -124 87 -175
t169 -51q89 0 144 34q56 35 86 84q28 47 66 133q87 209 279 209q116 0 192 -65q75 -65 95 -178q-1 154 -77 281q-75 127 -202 199q-126 72 -280 72q-151 0 -277 -72z" />
    <glyph glyph-name="smileface" unicode="&#x263a;" horiz-adv-x="1427" 
d="M397 73q-144 83 -227 227q-83 145 -83 315q0 173 83 318t226 227q145 83 317 83t317 -83q144 -83 227 -227q84 -147 84 -318q0 -169 -84 -316q-82 -143 -227 -226q-147 -84 -317 -84q-169 0 -316 84zM996 131q126 74 201 202q75 127 75 282q0 157 -75 284
q-76 130 -201 203q-126 74 -283 74q-156 0 -282 -74q-128 -75 -203 -203q-74 -126 -74 -284q0 -156 74 -282t203 -202q126 -74 282 -74q157 0 283 74zM526 762q-17 19 -17 44q0 28 18 46t44 18t44 -18t18 -46q0 -26 -18 -44q-17 -17 -44 -17q-29 0 -45 17zM817 762
q-18 18 -18 44q0 24 19 45q18 19 43 19q27 0 45 -18q19 -19 19 -46q0 -26 -18 -44q-17 -17 -46 -17q-27 0 -44 17zM1084 598q0 -95 -48 -176q-47 -79 -133 -127q-83 -46 -187 -46q-103 0 -186 46q-86 48 -133 127q-49 83 -49 176h62q0 -79 41 -146q41 -66 111 -105
q71 -39 154 -39q84 0 155 39t111 105q40 65 40 146h62z" />
    <glyph glyph-name="uni263F" unicode="&#x263f;" horiz-adv-x="1414" 
d="M748 764q99 -9 179 -62q78 -52 124 -137q46 -86 46 -183q0 -106 -52 -196t-140 -140q-90 -51 -198 -51q-107 0 -196 51q-87 50 -140 140q-53 89 -53 196q0 100 46 183q47 85 126 137q80 53 179 62l8 205l-208 -81l-27 78l219 56l-141 179l67 49l120 -185l122 185l68 -49
l-144 -177l220 -58l-25 -78l-212 83zM863 112q71 42 112 113q42 72 42 157q0 86 -42 156q-42 71 -112 111q-71 41 -156 41t-156 -40q-72 -40 -112 -109q-41 -70 -41 -152q0 -88 41 -160q42 -74 113 -116q70 -42 155 -42q87 0 156 41z" />
    <glyph glyph-name="female" unicode="&#x2640;" horiz-adv-x="1768" 
d="M1792 37q0 -7 -9 -16q-46 -37 -124 -55q-82 -19 -172 -19q-119 0 -214 26q-83 -57 -184 -89q-97 -31 -205 -31t-205 31q-101 32 -184 89q-94 -26 -214 -26q-89 0 -171 19q-78 18 -124 55q-9 9 -9 16q0 12 14 21q105 65 152 205q46 138 46 285q0 186 94 348
q93 161 254 254t347 93q188 0 348 -93q161 -93 254 -254q93 -160 93 -348q0 -147 46 -285q47 -140 152 -205q15 -10 15 -21zM591 1126q-139 -74 -230 -199q-91 -126 -117 -278q92 3 234 33q130 28 275 94q140 64 250 165q12 12 25 12q12 0 24 -14q108 -136 243 -212
q130 -73 231 -81q-26 153 -116 279q-92 127 -231 201q-139 73 -295 73t-293 -73zM324 225q87 -147 238 -238q150 -90 322 -90q173 0 323 90q151 91 238 238q88 149 88 323q0 43 -1 55q-107 6 -244 77q-141 73 -260 220q-170 -151 -394 -222q-220 -70 -397 -73q-2 -24 -2 -57
q0 -172 89 -323zM593 496q12 -21 12 -52q0 -29 -12 -50t-29 -21q-20 0 -32 21t-12 50q0 31 12 52q11 20 32 20q18 0 29 -20zM1237 496q12 -21 12 -52q0 -27 -13 -50q-12 -21 -30 -21q-19 0 -31 20q-11 18 -11 51t11 52q11 20 31 20t31 -20zM274 -9q87 0 172 20
q-82 67 -144 159t-90 198q-18 -111 -62 -196q-44 -84 -111 -126q82 -55 235 -55zM1494 -9q156 0 236 55q-69 43 -112 126q-44 85 -62 196q-29 -109 -89 -198q-61 -92 -144 -159q85 -20 171 -20zM1112 212q10 0 15 -5t5 -16q0 -10 -11 -19q-101 -89 -237 -89t-237 89
q-10 9 -10 19q0 11 5 16t14 5q12 0 20 -7q86 -78 208 -78q124 0 209 78q8 7 19 7z" />
    <glyph glyph-name="male" unicode="&#x2642;" horiz-adv-x="1768" 
d="M1232 1150q161 -93 254 -254q93 -160 93 -348q0 -186 -93 -347t-254 -254q-162 -94 -348 -94q-185 0 -347 94q-161 93 -254 254q-94 162 -94 347q0 186 94 348q93 161 254 254t347 93q188 0 348 -93zM589 1127q-136 -71 -229 -199q-90 -124 -116 -279q92 3 234 33
q130 28 275 94q140 64 250 165q12 12 25 12q12 0 24 -14q108 -136 243 -212q130 -73 231 -81q-26 156 -116 280q-92 126 -230 200q-137 73 -296 73q-157 0 -295 -72zM1207 -14q149 88 238 239q88 149 88 323q0 43 -1 55q-107 6 -244 77q-141 73 -260 220
q-170 -151 -394 -222q-220 -70 -397 -73q-2 -24 -2 -57q0 -172 89 -323t238 -239q151 -89 322 -89q172 0 323 89zM593 496q12 -21 12 -52q0 -29 -12 -50t-29 -21q-20 0 -32 21t-12 50q0 31 12 52q11 20 32 20q18 0 29 -20zM1237 496q12 -21 12 -52q0 -27 -13 -50
q-12 -21 -30 -21q-19 0 -31 20q-11 18 -11 51t11 52q11 20 31 20t31 -20zM1112 212q10 0 15 -5t5 -16q0 -10 -11 -19q-101 -89 -237 -89t-237 89q-10 9 -10 19q0 11 5 16t14 5q12 0 20 -7q86 -78 208 -78q124 0 209 78q8 7 19 7z" />
    <glyph glyph-name="uni2661" unicode="&#x2661;" horiz-adv-x="1393" 
d="M1162 1099q76 -43 119 -119q44 -77 44 -166q0 -79 -37 -154q-38 -78 -112 -159l-479 -524l-481 524q-75 82 -111 157q-36 76 -36 156q0 92 42 167q42 74 117 118q74 43 168 43t158 -37q68 -40 143 -116q75 76 140 116q61 37 155 37t170 -43zM895 1062q-41 -17 -73 -44
q-28 -24 -83 -79l-42 -42l-43 42q-77 79 -126 108q-53 32 -130 32q-76 0 -134 -36q-60 -37 -92 -96q-34 -63 -34 -135q0 -67 29 -131q28 -62 91 -131l439 -474l437 474q62 68 92 131t30 131q0 72 -34 135q-32 59 -95 96q-62 36 -137 36q-53 0 -95 -17z" />
    <glyph glyph-name="heart" unicode="&#x2665;" horiz-adv-x="1390" 
d="M1158 1102q74 -43 118 -120q43 -76 43 -167q0 -79 -37 -154q-39 -80 -111 -159l-476 -521l-477 521q-75 80 -111 158q-36 76 -36 155q0 93 41 168q42 77 116 120t166 43q97 0 158 -36t143 -116q81 81 141 116q62 36 153 36q93 0 169 -44z" />
    <glyph glyph-name="diamond" unicode="&#x2666;" horiz-adv-x="1169" 
d="M585 1351l485 -721l-485 -298l-484 315zM78 562l507 -359l508 342l-508 -761z" />
    <glyph glyph-name="uni26A5" unicode="&#x26a5;" horiz-adv-x="1768" 
d="M1747 649q0 -10 -10 -16q-40 -28 -126 -28q-69 0 -125 18q-90 -66 -206 -66q-113 0 -206 64q-57 -16 -123 -16q-87 0 -127 28q-12 6 -12 18t14 21q45 25 68 100q22 73 22 151q0 99 49 185q48 84 132 133q83 48 183 48q102 0 184 -48q84 -49 132 -133q49 -86 49 -185
q0 -75 21 -150q20 -72 64 -99q17 -8 17 -25zM1076 1175q-88 -75 -109 -186q84 6 184 39q98 32 175 106q10 7 16 7q11 0 22 -14q48 -66 113 -103q64 -36 118 -44q-19 116 -108 193q-88 76 -207 76q-116 0 -204 -74zM126 994q-22 0 -22 19v206q0 21 22 21h590q23 0 23 -21
v-206q0 -19 -23 -19h-590zM697 1201h-550v-168h550v168zM1003 760q40 -72 116 -117q73 -43 161 -43q89 0 162 43q76 45 116 117q43 77 43 163v13q-61 6 -130 41q-70 35 -130 107q-83 -73 -189 -105q-105 -32 -192 -35v-21q0 -86 43 -163zM1135 903q7 -11 7 -35q0 -20 -7 -31
q-8 -13 -19 -13t-19 13t-8 31q0 22 8 35q7 11 19 11t19 -11zM1464 902q7 -11 7 -34q0 -20 -7 -31q-8 -13 -17 -13q-13 0 -21 13t-8 31q0 46 29 46q9 0 17 -12zM126 660q-22 0 -22 21v203q0 22 22 22h590q23 0 23 -22v-203q0 -21 -23 -21h-590zM697 867h-550v-168h550v168z
M1599 644q60 0 92 16q-26 17 -44 55t-27 88q-30 -91 -95 -150q39 -9 74 -9zM960 644q39 0 75 9q-66 61 -94 148q-19 -102 -73 -141q35 -16 92 -16zM1390 753q7 0 14 -7q6 -6 6 -12q0 -9 -9 -18q-50 -44 -121 -44q-73 0 -120 44q-9 9 -9 18q0 8 7 14q5 5 13 5q6 0 12 -7
q39 -33 97 -33q59 0 98 35q5 5 12 5zM623 506q85 -50 134 -135t49 -185q0 -99 -49 -181q-50 -83 -134 -132q-86 -50 -184 -50t-181 50q-85 51 -132 133q-48 84 -48 183t48 183q48 83 132 134q82 49 181 49q101 0 184 -49zM238 440q-90 -75 -112 -185q84 6 185 39t174 106
q10 7 16 7q10 0 21 -14q50 -66 116 -103q65 -36 121 -44q-19 115 -110 192t-207 77q-114 0 -204 -75zM1648 150q2 -4 2 -9t-3 -8q-5 -5 -9 -6l-147 -35l101 -104q5 -5 5 -13t-9 -14l-207 -141l-10 -4q-7 0 -13 9l-76 124l-78 -124q-7 -13 -23 -5l-207 141q-8 5 -9 12t6 15
l99 104l-147 35q-16 7 -10 23l77 230q8 17 23 11l138 -60l-12 145v3q0 6 4 9q6 4 12 4h255q8 0 13 -5q3 -3 2 -11l-14 -145l138 62l6 1q12 0 15 -12zM1544 -21l-124 136l186 46l-64 184l-173 -73l12 181h-200l15 -181l-176 71l-61 -182l183 -46l-123 -136l164 -113l99 152
l97 -152zM603 -90q75 43 118 118q43 74 43 161v13q-58 6 -131 41t-134 107q-80 -73 -188 -105q-107 -32 -193 -35v-21q0 -83 45 -161q43 -75 118 -118q76 -44 161 -44t161 44zM292 168q7 -11 7 -34q0 -21 -7 -32q-8 -12 -18 -12q-12 0 -20 12q-8 13 -8 32q0 21 8 34
q8 12 20 12q10 0 18 -12zM624 169q7 -11 7 -35q0 -21 -7 -32q-8 -12 -19 -12q-13 0 -20 12q-7 11 -7 32q0 24 7 35t20 11q12 0 19 -11zM548 23q9 0 14 -5q7 -7 7 -14q0 -8 -10 -18q-50 -44 -120 -44q-71 0 -121 44q-9 9 -9 18q0 6 6 14q5 5 14 5t14 -5q36 -36 96 -36
q59 0 95 36q8 5 14 5z" />
    <glyph glyph-name="uni272A" unicode="&#x272a;" horiz-adv-x="1427" 
d="M1030 1160q144 -83 227 -227q84 -147 84 -318q0 -169 -84 -316q-82 -143 -227 -226q-147 -84 -317 -84q-169 0 -316 84q-144 83 -227 227q-83 145 -83 315q0 173 83 318t226 227q145 83 317 83t317 -83z" />
    <glyph glyph-name="uni2731" unicode="&#x2731;" horiz-adv-x="1283" 
d="M1153 969l50 -81l-466 -269l466 -269l-50 -81l-463 267v-536h-96v536l-463 -267l-50 81l465 269l-465 269l50 81l463 -267v536h96v-536z" />
    <glyph glyph-name="uni2732" unicode="&#x2732;" horiz-adv-x="1252" 
d="M658 762h-64v478h64v-478zM516 718l-31 -57l-416 241l34 57zM768 661l-32 57l414 241l33 -57zM104 279l-33 55l414 239l31 -57zM1181 334l-33 -56l-412 238l32 57zM658 -4h-64v476h64v-476z" />
    <glyph glyph-name="uni275B" unicode="&#x275b;" horiz-adv-x="859" 
d="M382 916q68 39 140 39q64 0 122 -32q56 -31 89 -93q33 -61 33 -142q0 -89 -44 -162q-44 -72 -119 -112q-77 -41 -171 -41q-99 0 -176 46q-79 47 -122 127q-44 82 -44 183q0 136 70 257q71 122 203 195q133 73 314 73v-140q-102 -1 -191 -55q-86 -52 -116 -139z" />
    </font>
</defs>
</svg>
